  0
SECTION
  2
HEADER
  9
$ACADVER
  1
AC1009
  9
$EXTMIN
 10
-2381.92913409
 20
2462.43281471
 30
0.0
  9
$EXTMAX
 10
3068.11881188
 20
6390.72164074
 30
0.0
  0
ENDSEC
  0
SECTION
  2
TABLES
  0
TABLE
  2
LAYER
 70
1
 0
LAYER
 2
Default Layer
 70
0
 62
1
 6
CONTINUOUS
 0
ENDTAB
 0
ENDSEC
  0
SECTION
  2
ENTITIES
  0
POLYLINE
  8
Default Layer
 66
   1
 39
0.000000
 70
    1
  0
VERTEX
  8
0
 10
-2381.92913409
 20
2692.88613126
  0
VERTEX
  8
0
 10
-2231.49523409
 20
2693.10543338
  0
VERTEX
  8
0
 10
-2231.49523409
 20
3069.43243338
  0
VERTEX
  8
0
 10
-2083.93403409
 20
3069.43243338
  0
VERTEX
  8
0
 10
-2083.93403409
 20
3134.89153338
  0
VERTEX
  8
0
 10
-2086.33973409
 20
3185.46703338
  0
VERTEX
  8
0
 10
-2091.95923409
 20
3264.39143338
  0
VERTEX
  8
0
 10
-2099.87683409
 20
3343.08233338
  0
VERTEX
  8
0
 10
-2108.31503409
 20
3400.13913338
  0
VERTEX
  8
0
 10
-2124.45543409
 20
3469.04533338
  0
VERTEX
  8
0
 10
-2139.89563409
 20
3522.60113338
  0
VERTEX
  8
0
 10
-2167.61603409
 20
3606.67823338
  0
VERTEX
  8
0
 10
-2197.70643409
 20
3680.71923338
  0
VERTEX
  8
0
 10
-2232.87773409
 20
3756.60943338
  0
VERTEX
  8
0
 10
-2256.68423409
 20
3810.16523338
  0
VERTEX
  8
0
 10
-2283.79433409
 20
3863.48763338
  0
VERTEX
  8
0
 10
-2300.81443409
 20
3898.89233338
  0
VERTEX
  8
0
 10
-2361.17463409
 20
3903.57823338
  0
VERTEX
  8
0
 10
-2381.92913409
 20
3905.94803338
  0
VERTEX
  8
0
 10
-2381.92913409
 20
3502.67263338
  0
VERTEX
  8
0
 10
-2381.92913409
 20
3099.39713338
  0
VERTEX
  8
0
 10
-2381.92913409
 20
2692.88613126
  0
SEQEND
  0
POLYLINE
  8
Default Layer
 66
   1
 39
0.000000
 70
    1
  0
VERTEX
  8
0
 10
-1113.65246570
 20
3698.54555912
  0
VERTEX
  8
0
 10
-1113.65246570
 20
3710.84555912
  0
VERTEX
  8
0
 10
-1042.65246570
 20
3710.84555912
  0
VERTEX
  8
0
 10
-1042.65246570
 20
3698.54555912
  0
VERTEX
  8
0
 10
-1113.65246570
 20
3698.54555912
  0
SEQEND
  0
POLYLINE
  8
Default Layer
 66
   1
 39
0.000000
 70
    1
  0
VERTEX
  8
0
 10
-1113.33612341
 20
3082.62788020
  0
VERTEX
  8
0
 10
-1113.33612341
 20
3094.92788020
  0
VERTEX
  8
0
 10
-1042.33612341
 20
3094.92788020
  0
VERTEX
  8
0
 10
-1042.33612341
 20
3082.62788020
  0
VERTEX
  8
0
 10
-1113.33612341
 20
3082.62788020
  0
SEQEND
  0
POLYLINE
  8
Default Layer
 66
   1
 39
0.000000
 70
    1
  0
VERTEX
  8
0
 10
-2331.49546429
 20
3698.54555912
  0
VERTEX
  8
0
 10
-2331.49546429
 20
3710.84555912
  0
VERTEX
  8
0
 10
-2260.49546429
 20
3710.84555912
  0
VERTEX
  8
0
 10
-2260.49546429
 20
3698.54555912
  0
VERTEX
  8
0
 10
-2331.49546429
 20
3698.54555912
  0
SEQEND
  0
POLYLINE
  8
Default Layer
 66
   1
 39
0.000000
 70
    1
  0
VERTEX
  8
0
 10
-2331.17912199
 20
3082.62788020
  0
VERTEX
  8
0
 10
-2331.17912199
 20
3094.92788020
  0
VERTEX
  8
0
 10
-2260.17912199
 20
3094.92788020
  0
VERTEX
  8
0
 10
-2260.17912199
 20
3082.62788020
  0
VERTEX
  8
0
 10
-2331.17912199
 20
3082.62788020
  0
SEQEND
  0
POLYLINE
  8
Default Layer
 66
   1
 39
0.000000
 70
    1
  0
VERTEX
  8
0
 10
-1160.89840912
 20
3387.98931867
  0
VERTEX
  8
0
 10
-1160.89840912
 20
3400.28931867
  0
VERTEX
  8
0
 10
-1040.89840912
 20
3400.28931867
  0
VERTEX
  8
0
 10
-1040.89840912
 20
3387.98931867
  0
VERTEX
  8
0
 10
-1160.89840912
 20
3387.98931867
  0
SEQEND
  0
POLYLINE
  8
Default Layer
 66
   1
 39
0.000000
 70
    1
  0
VERTEX
  8
0
 10
-2331.82662694
 20
3387.98931867
  0
VERTEX
  8
0
 10
-2331.82662694
 20
3400.28931867
  0
VERTEX
  8
0
 10
-2211.82662694
 20
3400.28931867
  0
VERTEX
  8
0
 10
-2211.82662694
 20
3387.98931867
  0
VERTEX
  8
0
 10
-2331.82662694
 20
3387.98931867
  0
SEQEND
  0
POLYLINE
  8
Default Layer
 66
   1
 39
0.000000
 70
    1
  0
VERTEX
  8
0
 10
-990.49504950
 20
2692.27558317
  0
VERTEX
  8
0
 10
-990.49504950
 20
3095.72842999
  0
VERTEX
  8
0
 10
-990.49504950
 20
3506.63422999
  0
VERTEX
  8
0
 10
-990.49504950
 20
3911.05102574
  0
VERTEX
  8
0
 10
-1042.86594950
 20
3909.41722574
  0
VERTEX
  8
0
 10
-1088.28874950
 20
3908.75302574
  0
VERTEX
  8
0
 10
-1129.63604950
 20
3830.48262999
  0
VERTEX
  8
0
 10
-1172.49144950
 20
3729.45732999
  0
VERTEX
  8
0
 10
-1203.94634950
 20
3630.06572999
  0
VERTEX
  8
0
 10
-1221.46914950
 20
3557.42512999
  0
VERTEX
  8
0
 10
-1240.57184950
 20
3466.40002999
  0
VERTEX
  8
0
 10
-1262.70874950
 20
3342.57352999
  0
VERTEX
  8
0
 10
-1270.23124950
 20
3238.47812999
  0
VERTEX
  8
0
 10
-1271.84714950
 20
3150.95392999
  0
VERTEX
  8
0
 10
-1276.82024950
 20
3067.30772999
  0
VERTEX
  8
0
 10
-1128.10994950
 20
3067.30772999
  0
VERTEX
  8
0
 10
-1139.38358618
 20
2692.27558317
  0
VERTEX
  8
0
 10
-990.49504950
 20
2692.27558317
  0
SEQEND
  0
POLYLINE
  8
Default Layer
 66
   1
 39
0.000000
 70
    1
  0
VERTEX
  8
0
 10
-1358.06697789
 20
3479.60670693
  0
VERTEX
  8
0
 10
-1358.06697789
 20
3594.96617723
  0
VERTEX
  8
0
 10
-1969.03705243
 20
3605.64333423
  0
VERTEX
  8
0
 10
-1969.03705243
 20
3479.68759448
  0
VERTEX
  8
0
 10
-1981.17967928
 20
3479.68759448
  0
VERTEX
  8
0
 10
-1981.17967928
 20
3380.75919986
  0
VERTEX
  8
0
 10
-1969.03705243
 20
3380.75919986
  0
VERTEX
  8
0
 10
-1969.03705243
 20
3329.64474866
  0
VERTEX
  8
0
 10
-1358.06697789
 20
3329.64474866
  0
VERTEX
  8
0
 10
-1358.06697789
 20
3380.75919986
  0
VERTEX
  8
0
 10
-1345.49368211
 20
3380.75919986
  0
VERTEX
  8
0
 10
-1345.49368211
 20
3479.60670693
  0
VERTEX
  8
0
 10
-1358.06697789
 20
3479.60670693
  0
SEQEND
  0
POLYLINE
  8
Default Layer
 66
   1
 39
0.000000
 70
    1
  0
VERTEX
  8
0
 10
-1354.61577563
 20
3108.09017581
  0
VERTEX
  8
0
 10
-1354.61577563
 20
3285.97572461
  0
VERTEX
  8
0
 10
-1965.58585017
 20
3285.97572461
  0
VERTEX
  8
0
 10
-1965.58585017
 20
3108.09017581
  0
VERTEX
  8
0
 10
-1977.72847702
 20
3108.09017581
  0
VERTEX
  8
0
 10
-1977.72847702
 20
3039.09017581
  0
VERTEX
  8
0
 10
-1965.58585017
 20
3039.09017581
  0
VERTEX
  8
0
 10
-1965.58585017
 20
2987.97572461
  0
VERTEX
  8
0
 10
-1354.61577563
 20
2987.97572461
  0
VERTEX
  8
0
 10
-1354.61577563
 20
3039.09017581
  0
VERTEX
  8
0
 10
-1342.04247984
 20
3039.09017581
  0
VERTEX
  8
0
 10
-1342.04247984
 20
3108.09017581
  0
VERTEX
  8
0
 10
-1354.61577563
 20
3108.09017581
  0
SEQEND
  0
POLYLINE
  8
Default Layer
 66
   1
 39
0.000000
 70
    1
  0
VERTEX
  8
0
 10
-1354.51691565
 20
3778.27699760
  0
VERTEX
  8
0
 10
-1354.51691565
 20
3847.12612489
  0
VERTEX
  8
0
 10
-1965.48699020
 20
3834.50766662
  0
VERTEX
  8
0
 10
-1965.48699020
 20
3778.27699760
  0
VERTEX
  8
0
 10
-1977.62961704
 20
3778.27699760
  0
VERTEX
  8
0
 10
-1977.62961704
 20
3709.27699760
  0
VERTEX
  8
0
 10
-1965.48699020
 20
3709.27699760
  0
VERTEX
  8
0
 10
-1965.48699020
 20
3658.16254639
  0
VERTEX
  8
0
 10
-1354.51691565
 20
3658.16254639
  0
VERTEX
  8
0
 10
-1354.51691565
 20
3709.27699760
  0
VERTEX
  8
0
 10
-1341.94361987
 20
3709.27699760
  0
VERTEX
  8
0
 10
-1341.94361987
 20
3778.27699760
  0
VERTEX
  8
0
 10
-1354.51691565
 20
3778.27699760
  0
SEQEND
  0
POLYLINE
  8
Default Layer
 66
   1
 39
0.000000
 70
    1
  0
VERTEX
  8
0
 10
-1970.04121535
 20
2535.86822815
  0
VERTEX
  8
0
 10
-1335.04121535
 20
2535.86822815
  0
VERTEX
  8
0
 10
-1335.04121535
 20
2645.86822815
  0
VERTEX
  8
0
 10
-1970.04121535
 20
2645.86822815
  0
VERTEX
  8
0
 10
-1970.04121535
 20
2535.86822815
  0
SEQEND
  0
POLYLINE
  8
Default Layer
 66
   1
 39
0.000000
 70
    1
  0
VERTEX
  8
0
 10
-1970.04121535
 20
2653.96822815
  0
VERTEX
  8
0
 10
-1335.04121535
 20
2653.96822815
  0
VERTEX
  8
0
 10
-1335.04121535
 20
2763.96822815
  0
VERTEX
  8
0
 10
-1970.04121535
 20
2763.96822815
  0
VERTEX
  8
0
 10
-1970.04121535
 20
2653.96822815
  0
SEQEND
  0
POLYLINE
  8
Default Layer
 66
   1
 39
0.000000
 70
    1
  0
VERTEX
  8
0
 10
-1970.04121535
 20
2772.06822815
  0
VERTEX
  8
0
 10
-1335.04121535
 20
2772.06822815
  0
VERTEX
  8
0
 10
-1335.04121535
 20
2882.06822815
  0
VERTEX
  8
0
 10
-1970.04121535
 20
2882.06822815
  0
VERTEX
  8
0
 10
-1970.04121535
 20
2772.06822815
  0
SEQEND
  0
POLYLINE
  8
Default Layer
 66
   1
 39
0.000000
 70
    1
  0
VERTEX
  8
0
 10
3067.97741315
 20
2759.23578218
  0
VERTEX
  8
0
 10
2918.17201315
 20
2759.23578218
  0
VERTEX
  8
0
 10
2909.73371315
 20
3100.80448218
  0
VERTEX
  8
0
 10
2753.57271315
 20
3100.80448218
  0
VERTEX
  8
0
 10
2752.13641315
 20
3100.80448218
  0
VERTEX
  8
0
 10
2759.37171315
 20
3202.33248218
  0
VERTEX
  8
0
 10
2776.98431315
 20
3337.36208218
  0
VERTEX
  8
0
 10
2798.20551315
 20
3440.47008218
  0
VERTEX
  8
0
 10
2819.19331315
 20
3528.69448218
  0
VERTEX
  8
0
 10
2832.49701315
 20
3580.38308218
  0
VERTEX
  8
0
 10
2855.33411315
 20
3654.19068218
  0
VERTEX
  8
0
 10
2880.73861315
 20
3728.71638218
  0
VERTEX
  8
0
 10
2899.17701315
 20
3782.05668218
  0
VERTEX
  8
0
 10
2920.86501315
 20
3841.19618218
  0
VERTEX
  8
0
 10
2939.28551315
 20
3890.78418218
  0
VERTEX
  8
0
 10
2956.53901315
 20
3938.75638218
  0
VERTEX
  8
0
 10
2966.39551315
 20
3959.95968218
  0
VERTEX
  8
0
 10
3022.08781315
 20
3963.58638218
  0
VERTEX
  8
0
 10
3068.11881188
 20
3966.92578218
  0
VERTEX
  8
0
 10
3067.97741315
 20
2759.23578218
  0
SEQEND
  0
POLYLINE
  8
Default Layer
 66
   1
 39
0.000000
 70
    1
  0
VERTEX
  8
0
 10
976.04096450
 20
2759.27168218
  0
VERTEX
  8
0
 10
976.04096450
 20
3171.34448218
  0
VERTEX
  8
0
 10
976.04096450
 20
3583.41728218
  0
VERTEX
  8
0
 10
976.04096450
 20
3978.66547115
  0
VERTEX
  8
0
 10
1033.79796450
 20
3978.70137115
  0
VERTEX
  8
0
 10
1111.77076450
 20
3975.36197115
  0
VERTEX
  8
0
 10
1127.62386450
 20
3941.18018218
  0
VERTEX
  8
0
 10
1156.58316450
 20
3840.62158218
  0
VERTEX
  8
0
 10
1181.26946450
 20
3745.88008218
  0
VERTEX
  8
0
 10
1202.95746450
 20
3649.46878218
  0
VERTEX
  8
0
 10
1221.70116450
 20
3554.02708218
  0
VERTEX
  8
0
 10
1239.65476450
 20
3467.43648218
  0
VERTEX
  8
0
 10
1260.42716450
 20
3357.34458218
  0
VERTEX
  8
0
 10
1279.54786450
 20
3219.29878218
  0
VERTEX
  8
0
 10
1294.46736450
 20
3066.62068218
  0
VERTEX
  8
0
 10
1303.58786450
 20
2955.59518218
  0
VERTEX
  8
0
 10
1308.30966450
 20
2864.08528218
  0
VERTEX
  8
0
 10
1310.71546450
 20
2760.95938218
  0
VERTEX
  8
0
 10
976.04096450
 20
2759.27168218
  0
SEQEND
  0
POLYLINE
  8
Default Layer
 66
   1
 39
0.000000
 70
    1
  0
VERTEX
  8
0
 10
1030.26319229
 20
3766.60901132
  0
VERTEX
  8
0
 10
1101.26319229
 20
3766.60901132
  0
VERTEX
  8
0
 10
1101.26319229
 20
3778.90901132
  0
VERTEX
  8
0
 10
1030.26319229
 20
3778.90901132
  0
VERTEX
  8
0
 10
1030.26319229
 20
3766.60901132
  0
SEQEND
  0
POLYLINE
  8
Default Layer
 66
   1
 39
0.000000
 70
    1
  0
VERTEX
  8
0
 10
2945.68044830
 20
3766.60901132
  0
VERTEX
  8
0
 10
3016.68044830
 20
3766.60901132
  0
VERTEX
  8
0
 10
3016.68044830
 20
3778.90901132
  0
VERTEX
  8
0
 10
2945.68044830
 20
3778.90901132
  0
VERTEX
  8
0
 10
2945.68044830
 20
3766.60901132
  0
SEQEND
  0
POLYLINE
  8
Default Layer
 66
   1
 39
0.000000
 70
    1
  0
VERTEX
  8
0
 10
1029.93202963
 20
3150.62137058
  0
VERTEX
  8
0
 10
1149.93202963
 20
3150.62137058
  0
VERTEX
  8
0
 10
1149.93202963
 20
3162.92137058
  0
VERTEX
  8
0
 10
1029.93202963
 20
3162.92137058
  0
VERTEX
  8
0
 10
1029.93202963
 20
3150.62137058
  0
SEQEND
  0
POLYLINE
  8
Default Layer
 66
   1
 39
0.000000
 70
    1
  0
VERTEX
  8
0
 10
2897.46385424
 20
3150.62137058
  0
VERTEX
  8
0
 10
3017.46385424
 20
3150.62137058
  0
VERTEX
  8
0
 10
3017.46385424
 20
3162.92137058
  0
VERTEX
  8
0
 10
2897.46385424
 20
3162.92137058
  0
VERTEX
  8
0
 10
2897.46385424
 20
3150.62137058
  0
SEQEND
  0
POLYLINE
  8
Default Layer
 66
   1
 39
0.000000
 70
    1
  0
VERTEX
  8
0
 10
1029.93202963
 20
3456.05277086
  0
VERTEX
  8
0
 10
1149.93202963
 20
3456.05277086
  0
VERTEX
  8
0
 10
1149.93202963
 20
3468.35277086
  0
VERTEX
  8
0
 10
1029.93202963
 20
3468.35277086
  0
VERTEX
  8
0
 10
1029.93202963
 20
3456.05277086
  0
SEQEND
  0
POLYLINE
  8
Default Layer
 66
   1
 39
0.000000
 70
    1
  0
VERTEX
  8
0
 10
2898.11095467
 20
3456.05277086
  0
VERTEX
  8
0
 10
3018.11095467
 20
3456.05277086
  0
VERTEX
  8
0
 10
3018.11095467
 20
3468.35277086
  0
VERTEX
  8
0
 10
2898.11095467
 20
3468.35277086
  0
VERTEX
  8
0
 10
2898.11095467
 20
3456.05277086
  0
SEQEND
  0
POLYLINE
  8
Default Layer
 66
   1
 39
0.000000
 70
    1
  0
VERTEX
  8
0
 10
1403.05407065
 20
3528.90864498
  0
VERTEX
  8
0
 10
1403.05407065
 20
3672.02060820
  0
VERTEX
  8
0
 10
2579.02895750
 20
3672.02060820
  0
VERTEX
  8
0
 10
2579.02895750
 20
3529.13636775
  0
VERTEX
  8
0
 10
2590.93996881
 20
3529.13636775
  0
VERTEX
  8
0
 10
2590.93996881
 20
3410.97459264
  0
VERTEX
  8
0
 10
2579.02895750
 20
3410.97459264
  0
VERTEX
  8
0
 10
2579.02895750
 20
3360.02060820
  0
VERTEX
  8
0
 10
1403.05407065
 20
3360.02060820
  0
VERTEX
  8
0
 10
1403.05407065
 20
3411.07042008
  0
VERTEX
  8
0
 10
1391.24007207
 20
3411.07042008
  0
VERTEX
  8
0
 10
1391.24007207
 20
3528.90864498
  0
VERTEX
  8
0
 10
1403.05407065
 20
3528.90864498
  0
SEQEND
  0
POLYLINE
  8
Default Layer
 66
   1
 39
0.000000
 70
    1
  0
VERTEX
  8
0
 10
2567.91387546
 20
3869.43966337
  0
VERTEX
  8
0
 10
2567.91387546
 20
3925.51661952
  0
VERTEX
  8
0
 10
1391.93898861
 20
3949.13578501
  0
VERTEX
  8
0
 10
1391.93898861
 20
3869.50561103
  0
VERTEX
  8
0
 10
1380.02797730
 20
3869.50561103
  0
VERTEX
  8
0
 10
1380.02797730
 20
3800.68524328
  0
VERTEX
  8
0
 10
1391.93898861
 20
3800.68524328
  0
VERTEX
  8
0
 10
1391.93898861
 20
3749.73125884
  0
VERTEX
  8
0
 10
2567.91387546
 20
3749.73125884
  0
VERTEX
  8
0
 10
2567.91387546
 20
3800.78107072
  0
VERTEX
  8
0
 10
2579.72787405
 20
3800.78107072
  0
VERTEX
  8
0
 10
2579.72787405
 20
3869.43966337
  0
VERTEX
  8
0
 10
2567.91387546
 20
3869.43966337
  0
SEQEND
  0
POLYLINE
  8
Default Layer
 66
   1
 39
0.000000
 70
    1
  0
VERTEX
  8
0
 10
1403.05407065
 20
3132.07430976
  0
VERTEX
  8
0
 10
1403.05407065
 20
3231.99231966
  0
VERTEX
  8
0
 10
2579.02895750
 20
3227.13906648
  0
VERTEX
  8
0
 10
2579.02895750
 20
3131.97848232
  0
VERTEX
  8
0
 10
2590.93996881
 20
3131.97848232
  0
VERTEX
  8
0
 10
2590.93996881
 20
3013.97848232
  0
VERTEX
  8
0
 10
2579.02895750
 20
3013.97848232
  0
VERTEX
  8
0
 10
2579.02895750
 20
2963.02449788
  0
VERTEX
  8
0
 10
1403.05407065
 20
2963.02449788
  0
VERTEX
  8
0
 10
1403.05407065
 20
3014.07430976
  0
VERTEX
  8
0
 10
1391.24007207
 20
3014.07430976
  0
VERTEX
  8
0
 10
1391.24007207
 20
3132.07430976
  0
VERTEX
  8
0
 10
1403.05407065
 20
3132.07430976
  0
SEQEND
  0
POLYLINE
  8
Default Layer
 66
   1
 39
0.000000
 70
    1
  0
VERTEX
  8
0
 10
1426.07512016
 20
2808.63281471
  0
VERTEX
  8
0
 10
1426.07512016
 20
2698.63281471
  0
VERTEX
  8
0
 10
2626.07512016
 20
2698.63281471
  0
VERTEX
  8
0
 10
2626.07512016
 20
2808.63281471
  0
VERTEX
  8
0
 10
1426.07512016
 20
2808.63281471
  0
SEQEND
  0
POLYLINE
  8
Default Layer
 66
   1
 39
0.000000
 70
    1
  0
VERTEX
  8
0
 10
1426.07512016
 20
2690.53281471
  0
VERTEX
  8
0
 10
1426.07512016
 20
2580.53281471
  0
VERTEX
  8
0
 10
2626.07512016
 20
2580.53281471
  0
VERTEX
  8
0
 10
2626.07512016
 20
2690.53281471
  0
VERTEX
  8
0
 10
1426.07512016
 20
2690.53281471
  0
SEQEND
  0
POLYLINE
  8
Default Layer
 66
   1
 39
0.000000
 70
    1
  0
VERTEX
  8
0
 10
1426.07512016
 20
2572.43281471
  0
VERTEX
  8
0
 10
1426.07512016
 20
2462.43281471
  0
VERTEX
  8
0
 10
2626.07512016
 20
2462.43281471
  0
VERTEX
  8
0
 10
2626.07512016
 20
2572.43281471
  0
VERTEX
  8
0
 10
1426.07512016
 20
2572.43281471
  0
SEQEND
  0
POLYLINE
  8
Default Layer
 66
   1
 39
0.000000
 70
    0
  0
VERTEX
  8
0
 10
1035.58007065
 20
2880.02828854
  0
VERTEX
  8
0
 10
1035.58007065
 20
2930.82828854
  0
VERTEX
  8
0
 10
1069.44673732
 20
2930.82828854
  0
SEQEND
  0
POLYLINE
  8
Default Layer
 66
   1
 39
0.000000
 70
    0
  0
VERTEX
  8
0
 10
1035.58007065
 20
2905.42828854
  0
VERTEX
  8
0
 10
1052.51340398
 20
2905.42828854
  0
SEQEND
  0
POLYLINE
  8
Default Layer
 66
   1
 39
0.000000
 70
    0
  0
VERTEX
  8
0
 10
1086.38007065
 20
2880.02828854
  0
VERTEX
  8
0
 10
1086.38007065
 20
2930.82828854
  0
VERTEX
  8
0
 10
1111.78007065
 20
2930.82828854
  0
VERTEX
  8
0
 10
1120.24673732
 20
2922.36162188
  0
VERTEX
  8
0
 10
1120.24673732
 20
2913.89495521
  0
VERTEX
  8
0
 10
1111.78007065
 20
2905.42828854
  0
VERTEX
  8
0
 10
1086.38007065
 20
2905.42828854
  0
SEQEND
  0
POLYLINE
  8
Default Layer
 66
   1
 39
0.000000
 70
    0
  0
VERTEX
  8
0
 10
1094.84673732
 20
2905.42828854
  0
VERTEX
  8
0
 10
1120.24673732
 20
2880.02828854
  0
SEQEND
  0
POLYLINE
  8
Default Layer
 66
   1
 39
0.000000
 70
    1
  0
VERTEX
  8
0
 10
1137.18007065
 20
2880.02828854
  0
VERTEX
  8
0
 10
1137.18007065
 20
2930.82828854
  0
VERTEX
  8
0
 10
1171.04673732
 20
2930.82828854
  0
VERTEX
  8
0
 10
1171.04673732
 20
2880.02828854
  0
VERTEX
  8
0
 10
1137.18007065
 20
2880.02828854
  0
SEQEND
  0
POLYLINE
  8
Default Layer
 66
   1
 39
0.000000
 70
    0
  0
VERTEX
  8
0
 10
1187.98007065
 20
2880.02828854
  0
VERTEX
  8
0
 10
1187.98007065
 20
2930.82828854
  0
VERTEX
  8
0
 10
1221.84673732
 20
2880.02828854
  0
VERTEX
  8
0
 10
1221.84673732
 20
2930.82828854
  0
SEQEND
  0
POLYLINE
  8
Default Layer
 66
   1
 39
0.000000
 70
    0
  0
VERTEX
  8
0
 10
1238.78007065
 20
2930.82828854
  0
VERTEX
  8
0
 10
1272.64673732
 20
2930.82828854
  0
SEQEND
  0
POLYLINE
  8
Default Layer
 66
   1
 39
0.000000
 70
    0
  0
VERTEX
  8
0
 10
1255.71340398
 20
2930.82828854
  0
VERTEX
  8
0
 10
1255.71340398
 20
2880.02828854
  0
SEQEND
  0
POLYLINE
  8
Default Layer
 66
   1
 39
0.000000
 70
    0
  0
VERTEX
  8
0
 10
2802.59562935
 20
3259.66053748
  0
VERTEX
  8
0
 10
2802.59562935
 20
3310.46053748
  0
VERTEX
  8
0
 10
2827.99562935
 20
3310.46053748
  0
VERTEX
  8
0
 10
2836.46229602
 20
3301.99387082
  0
VERTEX
  8
0
 10
2836.46229602
 20
3293.52720415
  0
VERTEX
  8
0
 10
2827.99562935
 20
3285.06053748
  0
VERTEX
  8
0
 10
2802.59562935
 20
3285.06053748
  0
SEQEND
  0
POLYLINE
  8
Default Layer
 66
   1
 39
0.000000
 70
    0
  0
VERTEX
  8
0
 10
2811.06229602
 20
3285.06053748
  0
VERTEX
  8
0
 10
2836.46229602
 20
3259.66053748
  0
SEQEND
  0
POLYLINE
  8
Default Layer
 66
   1
 39
0.000000
 70
    0
  0
VERTEX
  8
0
 10
2853.39562935
 20
3259.66053748
  0
VERTEX
  8
0
 10
2853.39562935
 20
3310.46053748
  0
VERTEX
  8
0
 10
2887.26229602
 20
3310.46053748
  0
SEQEND
  0
POLYLINE
  8
Default Layer
 66
   1
 39
0.000000
 70
    0
  0
VERTEX
  8
0
 10
2853.39562935
 20
3285.06053748
  0
VERTEX
  8
0
 10
2870.32896268
 20
3285.06053748
  0
SEQEND
  0
POLYLINE
  8
Default Layer
 66
   1
 39
0.000000
 70
    0
  0
VERTEX
  8
0
 10
2853.39562935
 20
3259.66053748
  0
VERTEX
  8
0
 10
2887.26229602
 20
3259.66053748
  0
SEQEND
  0
POLYLINE
  8
Default Layer
 66
   1
 39
0.000000
 70
    0
  0
VERTEX
  8
0
 10
2904.19562935
 20
3259.66053748
  0
VERTEX
  8
0
 10
2904.19562935
 20
3276.59387082
  0
VERTEX
  8
0
 10
2921.12896268
 20
3310.46053748
  0
VERTEX
  8
0
 10
2938.06229602
 20
3276.59387082
  0
VERTEX
  8
0
 10
2938.06229602
 20
3259.66053748
  0
SEQEND
  0
POLYLINE
  8
Default Layer
 66
   1
 39
0.000000
 70
    0
  0
VERTEX
  8
0
 10
2904.19562935
 20
3276.59387082
  0
VERTEX
  8
0
 10
2938.06229602
 20
3276.59387082
  0
SEQEND
  0
POLYLINE
  8
Default Layer
 66
   1
 39
0.000000
 70
    0
  0
VERTEX
  8
0
 10
2954.99562935
 20
3259.66053748
  0
VERTEX
  8
0
 10
2954.99562935
 20
3310.46053748
  0
VERTEX
  8
0
 10
2980.39562935
 20
3310.46053748
  0
VERTEX
  8
0
 10
2988.86229602
 20
3301.99387082
  0
VERTEX
  8
0
 10
2988.86229602
 20
3293.52720415
  0
VERTEX
  8
0
 10
2980.39562935
 20
3285.06053748
  0
VERTEX
  8
0
 10
2954.99562935
 20
3285.06053748
  0
SEQEND
  0
POLYLINE
  8
Default Layer
 66
   1
 39
0.000000
 70
    0
  0
VERTEX
  8
0
 10
2963.46229602
 20
3285.06053748
  0
VERTEX
  8
0
 10
2988.86229602
 20
3259.66053748
  0
SEQEND
  0
POLYLINE
  8
Default Layer
 66
   1
 39
0.000000
 70
    0
  0
VERTEX
  8
0
 10
-2150.09900990
 20
4491.73974540
  0
VERTEX
  8
0
 10
-2150.09900990
 20
4720.33974540
  0
VERTEX
  8
0
 10
-1997.69900990
 20
4491.73974540
  0
VERTEX
  8
0
 10
-1997.69900990
 20
4720.33974540
  0
SEQEND
  0
POLYLINE
  8
Default Layer
 66
   1
 39
0.000000
 70
    0
  0
VERTEX
  8
0
 10
-1921.49900990
 20
4491.73974540
  0
VERTEX
  8
0
 10
-1769.09900990
 20
4720.33974540
  0
SEQEND
  0
POLYLINE
  8
Default Layer
 66
   1
 39
0.000000
 70
    0
  0
VERTEX
  8
0
 10
-1692.89900990
 20
4529.83974540
  0
VERTEX
  8
0
 10
-1654.79900990
 20
4491.73974540
  0
VERTEX
  8
0
 10
-1578.59900990
 20
4491.73974540
  0
VERTEX
  8
0
 10
-1540.49900990
 20
4529.83974540
  0
VERTEX
  8
0
 10
-1692.89900990
 20
4682.23974540
  0
VERTEX
  8
0
 10
-1654.79900990
 20
4720.33974540
  0
VERTEX
  8
0
 10
-1578.59900990
 20
4720.33974540
  0
VERTEX
  8
0
 10
-1540.49900990
 20
4682.23974540
  0
SEQEND
  0
POLYLINE
  8
Default Layer
 66
   1
 39
0.000000
 70
    1
  0
VERTEX
  8
0
 10
1466.76096181
 20
4381.30127298
  0
VERTEX
  8
0
 10
1466.76096181
 20
4609.90127298
  0
VERTEX
  8
0
 10
1619.16096181
 20
4609.90127298
  0
VERTEX
  8
0
 10
1619.16096181
 20
4381.30127298
  0
VERTEX
  8
0
 10
1466.76096181
 20
4381.30127298
  0
SEQEND
  0
POLYLINE
  8
Default Layer
 66
   1
 39
0.000000
 70
    0
  0
VERTEX
  8
0
 10
1695.36096181
 20
4381.30127298
  0
VERTEX
  8
0
 10
1847.76096181
 20
4609.90127298
  0
SEQEND
  0
POLYLINE
  8
Default Layer
 66
   1
 39
0.000000
 70
    0
  0
VERTEX
  8
0
 10
1923.96096181
 20
4419.40127298
  0
VERTEX
  8
0
 10
1962.06096181
 20
4381.30127298
  0
VERTEX
  8
0
 10
2038.26096181
 20
4381.30127298
  0
VERTEX
  8
0
 10
2076.36096181
 20
4419.40127298
  0
VERTEX
  8
0
 10
1923.96096181
 20
4571.80127298
  0
VERTEX
  8
0
 10
1962.06096181
 20
4609.90127298
  0
VERTEX
  8
0
 10
2038.26096181
 20
4609.90127298
  0
VERTEX
  8
0
 10
2076.36096181
 20
4571.80127298
  0
SEQEND
  0
POLYLINE
  8
Default Layer
 66
   1
 39
0.000000
 70
    0
  0
VERTEX
  8
0
 10
-438.88161245
 20
6390.72164074
  0
VERTEX
  8
0
 10
-324.58161245
 20
6162.12164074
  0
VERTEX
  8
0
 10
-210.28161245
 20
6390.72164074
  0
SEQEND
  0
POLYLINE
  8
Default Layer
 66
   1
 39
0.000000
 70
    0
  0
VERTEX
  8
0
 10
-134.08161245
 20
6390.72164074
  0
VERTEX
  8
0
 10
-57.88161245
 20
6162.12164074
  0
VERTEX
  8
0
 10
-19.78161245
 20
6276.42164074
  0
VERTEX
  8
0
 10
18.31838755
 20
6162.12164074
  0
VERTEX
  8
0
 10
94.51838755
 20
6390.72164074
  0
SEQEND
  0
POLYLINE
  8
Default Layer
 66
   1
 39
0.000000
 70
    0
  0
VERTEX
  8
0
 10
551.71838755
 20
6200.22164074
  0
VERTEX
  8
0
 10
513.61838755
 20
6162.12164074
  0
VERTEX
  8
0
 10
437.41838755
 20
6162.12164074
  0
VERTEX
  8
0
 10
399.31838755
 20
6200.22164074
  0
VERTEX
  8
0
 10
399.31838755
 20
6352.62164074
  0
VERTEX
  8
0
 10
437.41838755
 20
6390.72164074
  0
VERTEX
  8
0
 10
513.61838755
 20
6390.72164074
  0
VERTEX
  8
0
 10
551.71838755
 20
6352.62164074
  0
SEQEND
  0
POLYLINE
  8
Default Layer
 66
   1
 39
0.000000
 70
    0
  0
VERTEX
  8
0
 10
627.91838755
 20
6162.12164074
  0
VERTEX
  8
0
 10
627.91838755
 20
6238.32164074
  0
VERTEX
  8
0
 10
704.11838755
 20
6390.72164074
  0
VERTEX
  8
0
 10
780.31838755
 20
6238.32164074
  0
VERTEX
  8
0
 10
780.31838755
 20
6162.12164074
  0
SEQEND
  0
POLYLINE
  8
Default Layer
 66
   1
 39
0.000000
 70
    0
  0
VERTEX
  8
0
 10
627.91838755
 20
6238.32164074
  0
VERTEX
  8
0
 10
780.31838755
 20
6238.32164074
  0
SEQEND
  0
POLYLINE
  8
Default Layer
 66
   1
 39
0.000000
 70
    0
  0
VERTEX
  8
0
 10
856.51838755
 20
6162.12164074
  0
VERTEX
  8
0
 10
970.81838755
 20
6162.12164074
  0
VERTEX
  8
0
 10
1008.91838755
 20
6200.22164074
  0
VERTEX
  8
0
 10
1008.91838755
 20
6352.62164074
  0
VERTEX
  8
0
 10
970.81838755
 20
6390.72164074
  0
VERTEX
  8
0
 10
856.51838755
 20
6390.72164074
  0
SEQEND
  0
POLYLINE
  8
Default Layer
 66
   1
 39
0.000000
 70
    0
  0
VERTEX
  8
0
 10
894.61838755
 20
6390.72164074
  0
VERTEX
  8
0
 10
894.61838755
 20
6162.12164074
  0
SEQEND
  0
POLYLINE
  8
Default Layer
 66
   1
 39
0.000000
 70
    0
  0
VERTEX
  8
0
 10
1085.11838755
 20
6162.12164074
  0
VERTEX
  8
0
 10
1199.41838755
 20
6162.12164074
  0
VERTEX
  8
0
 10
1237.51838755
 20
6200.22164074
  0
VERTEX
  8
0
 10
1237.51838755
 20
6352.62164074
  0
VERTEX
  8
0
 10
1199.41838755
 20
6390.72164074
  0
VERTEX
  8
0
 10
1085.11838755
 20
6390.72164074
  0
SEQEND
  0
POLYLINE
  8
Default Layer
 66
   1
 39
0.000000
 70
    0
  0
VERTEX
  8
0
 10
1123.21838755
 20
6390.72164074
  0
VERTEX
  8
0
 10
1123.21838755
 20
6162.12164074
  0
SEQEND
  0
POLYLINE
  8
Default Layer
 66
   1
 39
0.000000
 70
    0
  0
VERTEX
  8
0
 10
1313.71838755
 20
6390.72164074
  0
VERTEX
  8
0
 10
1389.91838755
 20
6276.42164074
  0
VERTEX
  8
0
 10
1389.91838755
 20
6162.12164074
  0
SEQEND
  0
POLYLINE
  8
Default Layer
 66
   1
 39
0.000000
 70
    0
  0
VERTEX
  8
0
 10
1389.91838755
 20
6276.42164074
  0
VERTEX
  8
0
 10
1466.11838755
 20
6390.72164074
  0
SEQEND
  0
POLYLINE
  8
Default Layer
 66
   1
 39
0.000000
 70
    0
  0
VERTEX
  8
0
 10
-1238.98161245
 20
5944.40735502
  0
VERTEX
  8
0
 10
-1200.88161245
 20
5982.50735502
  0
VERTEX
  8
0
 10
-1124.68161245
 20
5982.50735502
  0
VERTEX
  8
0
 10
-1086.58161245
 20
5944.40735502
  0
VERTEX
  8
0
 10
-1086.58161245
 20
5906.30735502
  0
VERTEX
  8
0
 10
-1124.68161245
 20
5868.20735502
  0
VERTEX
  8
0
 10
-1162.78161245
 20
5868.20735502
  0
SEQEND
  0
POLYLINE
  8
Default Layer
 66
   1
 39
0.000000
 70
    0
  0
VERTEX
  8
0
 10
-1124.68161245
 20
5868.20735502
  0
VERTEX
  8
0
 10
-1086.58161245
 20
5830.10735502
  0
VERTEX
  8
0
 10
-1086.58161245
 20
5792.00735502
  0
VERTEX
  8
0
 10
-1124.68161245
 20
5753.90735502
  0
VERTEX
  8
0
 10
-1200.88161245
 20
5753.90735502
  0
VERTEX
  8
0
 10
-1238.98161245
 20
5792.00735502
  0
SEQEND
  0
POLYLINE
  8
Default Layer
 66
   1
 39
0.000000
 70
    0
  0
VERTEX
  8
0
 10
-781.78161245
 20
5792.00735502
  0
VERTEX
  8
0
 10
-743.68161245
 20
5753.90735502
  0
VERTEX
  8
0
 10
-667.48161245
 20
5753.90735502
  0
VERTEX
  8
0
 10
-629.38161245
 20
5792.00735502
  0
VERTEX
  8
0
 10
-781.78161245
 20
5944.40735502
  0
VERTEX
  8
0
 10
-743.68161245
 20
5982.50735502
  0
VERTEX
  8
0
 10
-667.48161245
 20
5982.50735502
  0
VERTEX
  8
0
 10
-629.38161245
 20
5944.40735502
  0
SEQEND
  0
POLYLINE
  8
Default Layer
 66
   1
 39
0.000000
 70
    0
  0
VERTEX
  8
0
 10
-553.18161245
 20
5753.90735502
  0
VERTEX
  8
0
 10
-553.18161245
 20
5982.50735502
  0
SEQEND
  0
POLYLINE
  8
Default Layer
 66
   1
 39
0.000000
 70
    0
  0
VERTEX
  8
0
 10
-553.18161245
 20
5868.20735502
  0
VERTEX
  8
0
 10
-400.78161245
 20
5868.20735502
  0
SEQEND
  0
POLYLINE
  8
Default Layer
 66
   1
 39
0.000000
 70
    0
  0
VERTEX
  8
0
 10
-400.78161245
 20
5982.50735502
  0
VERTEX
  8
0
 10
-400.78161245
 20
5753.90735502
  0
SEQEND
  0
POLYLINE
  8
Default Layer
 66
   1
 39
0.000000
 70
    0
  0
VERTEX
  8
0
 10
-324.58161245
 20
5753.90735502
  0
VERTEX
  8
0
 10
-324.58161245
 20
5982.50735502
  0
VERTEX
  8
0
 10
-172.18161245
 20
5982.50735502
  0
SEQEND
  0
POLYLINE
  8
Default Layer
 66
   1
 39
0.000000
 70
    0
  0
VERTEX
  8
0
 10
-324.58161245
 20
5868.20735502
  0
VERTEX
  8
0
 10
-248.38161245
 20
5868.20735502
  0
SEQEND
  0
POLYLINE
  8
Default Layer
 66
   1
 39
0.000000
 70
    0
  0
VERTEX
  8
0
 10
-324.58161245
 20
5753.90735502
  0
VERTEX
  8
0
 10
-172.18161245
 20
5753.90735502
  0
SEQEND
  0
POLYLINE
  8
Default Layer
 66
   1
 39
0.000000
 70
    0
  0
VERTEX
  8
0
 10
-95.98161245
 20
5982.50735502
  0
VERTEX
  8
0
 10
-95.98161245
 20
5753.90735502
  0
VERTEX
  8
0
 10
56.41838755
 20
5753.90735502
  0
SEQEND
  0
POLYLINE
  8
Default Layer
 66
   1
 39
0.000000
 70
    0
  0
VERTEX
  8
0
 10
132.61838755
 20
5982.50735502
  0
VERTEX
  8
0
 10
246.91838755
 20
5753.90735502
  0
VERTEX
  8
0
 10
361.21838755
 20
5982.50735502
  0
SEQEND
  0
POLYLINE
  8
Default Layer
 66
   1
 39
0.000000
 70
    0
  0
VERTEX
  8
0
 10
437.41838755
 20
5753.90735502
  0
VERTEX
  8
0
 10
437.41838755
 20
5982.50735502
  0
VERTEX
  8
0
 10
589.81838755
 20
5982.50735502
  0
SEQEND
  0
POLYLINE
  8
Default Layer
 66
   1
 39
0.000000
 70
    0
  0
VERTEX
  8
0
 10
437.41838755
 20
5868.20735502
  0
VERTEX
  8
0
 10
513.61838755
 20
5868.20735502
  0
SEQEND
  0
POLYLINE
  8
Default Layer
 66
   1
 39
0.000000
 70
    0
  0
VERTEX
  8
0
 10
437.41838755
 20
5753.90735502
  0
VERTEX
  8
0
 10
589.81838755
 20
5753.90735502
  0
SEQEND
  0
POLYLINE
  8
Default Layer
 66
   1
 39
0.000000
 70
    0
  0
VERTEX
  8
0
 10
666.01838755
 20
5792.00735502
  0
VERTEX
  8
0
 10
704.11838755
 20
5753.90735502
  0
VERTEX
  8
0
 10
780.31838755
 20
5753.90735502
  0
VERTEX
  8
0
 10
818.41838755
 20
5792.00735502
  0
VERTEX
  8
0
 10
666.01838755
 20
5944.40735502
  0
VERTEX
  8
0
 10
704.11838755
 20
5982.50735502
  0
VERTEX
  8
0
 10
780.31838755
 20
5982.50735502
  0
VERTEX
  8
0
 10
818.41838755
 20
5944.40735502
  0
SEQEND
  0
POLYLINE
  8
Default Layer
 66
   1
 39
0.000000
 70
    0
  0
VERTEX
  8
0
 10
1123.21838755
 20
5982.50735502
  0
VERTEX
  8
0
 10
1199.41838755
 20
5982.50735502
  0
SEQEND
  0
POLYLINE
  8
Default Layer
 66
   1
 39
0.000000
 70
    0
  0
VERTEX
  8
0
 10
1161.31838755
 20
5982.50735502
  0
VERTEX
  8
0
 10
1161.31838755
 20
5753.90735502
  0
SEQEND
  0
POLYLINE
  8
Default Layer
 66
   1
 39
0.000000
 70
    0
  0
VERTEX
  8
0
 10
1123.21838755
 20
5753.90735502
  0
VERTEX
  8
0
 10
1199.41838755
 20
5753.90735502
  0
SEQEND
  0
POLYLINE
  8
Default Layer
 66
   1
 39
0.000000
 70
    0
  0
VERTEX
  8
0
 10
1275.61838755
 20
5753.90735502
  0
VERTEX
  8
0
 10
1275.61838755
 20
5982.50735502
  0
VERTEX
  8
0
 10
1428.01838755
 20
5753.90735502
  0
VERTEX
  8
0
 10
1428.01838755
 20
5982.50735502
  0
SEQEND
  0
POLYLINE
  8
Default Layer
 66
   1
 39
0.000000
 70
    0
  0
VERTEX
  8
0
 10
1732.81838755
 20
5944.40735502
  0
VERTEX
  8
0
 10
1770.91838755
 20
5982.50735502
  0
VERTEX
  8
0
 10
1770.91838755
 20
5753.90735502
  0
SEQEND
  0
POLYLINE
  8
Default Layer
 66
   1
 39
0.000000
 70
    0
  0
VERTEX
  8
0
 10
1732.81838755
 20
5753.90735502
  0
VERTEX
  8
0
 10
1809.01838755
 20
5753.90735502
  0
SEQEND
  0
POLYLINE
  8
Default Layer
 66
   1
 39
0.000000
 70
    0
  0
VERTEX
  8
0
 10
1885.21838755
 20
5944.40735502
  0
VERTEX
  8
0
 10
1923.31838755
 20
5982.50735502
  0
VERTEX
  8
0
 10
1999.51838755
 20
5982.50735502
  0
VERTEX
  8
0
 10
2037.61838755
 20
5944.40735502
  0
VERTEX
  8
0
 10
2037.61838755
 20
5906.30735502
  0
VERTEX
  8
0
 10
1999.51838755
 20
5868.20735502
  0
VERTEX
  8
0
 10
1923.31838755
 20
5868.20735502
  0
VERTEX
  8
0
 10
1885.21838755
 20
5830.10735502
  0
VERTEX
  8
0
 10
1885.21838755
 20
5753.90735502
  0
VERTEX
  8
0
 10
2037.61838755
 20
5753.90735502
  0
SEQEND
  0
POLYLINE
  8
Default Layer
 66
   1
 39
0.000000
 70
    0
  0
VERTEX
  8
0
 10
2113.81838755
 20
5753.90735502
  0
VERTEX
  8
0
 10
2113.81838755
 20
5982.50735502
  0
VERTEX
  8
0
 10
2190.01838755
 20
5830.10735502
  0
VERTEX
  8
0
 10
2266.21838755
 20
5982.50735502
  0
VERTEX
  8
0
 10
2266.21838755
 20
5753.90735502
  0
SEQEND
  0
POLYLINE
  8
Default Layer
 66
   1
 39
0.000000
 70
    0
  0
VERTEX
  8
0
 10
2342.41838755
 20
5753.90735502
  0
VERTEX
  8
0
 10
2342.41838755
 20
5982.50735502
  0
VERTEX
  8
0
 10
2418.61838755
 20
5830.10735502
  0
VERTEX
  8
0
 10
2494.81838755
 20
5982.50735502
  0
VERTEX
  8
0
 10
2494.81838755
 20
5753.90735502
  0
SEQEND
  0
ENDSEC
  0
EOF
