  0
SECTION
  2
HEADER
  9
$ACADVER
  1
AC1009
  9
$INSBASE
 10
0.0
 20
0.0
 30
0.0
  9
$EXTMIN
 10
0.0117889564313831
 20
-1218.7572608943839896
 30
0.0
  9
$EXTMAX
 10
2440.0117889564307916
 20
209.2706628736951018
 30
0.0
  9
$LIMMIN
 10
-0.013
 20
-0.013
  9
$LIMMAX
 10
2.4870000000000001
 20
1.2869999999999999
  9
$ORTHOMODE
 70
     1
  9
$REGENMODE
 70
     1
  9
$FILLMODE
 70
     1
  9
$QTEXTMODE
 70
     0
  9
$MIRRTEXT
 70
     0
  9
$DRAGMODE
 70
     2
  9
$LTSCALE
 40
1.0
  9
$OSMODE
 70
   175
  9
$ATTMODE
 70
     1
  9
$TEXTSIZE
 40
2.5
  9
$TRACEWID
 40
1.0
  9
$TEXTSTYLE
  7
STANDARD
  9
$CLAYER
  8
0
  9
$CELTYPE
  6
BYLAYER
  9
$CECOLOR
 62
   242
  9
$DIMSCALE
 40
1.0
  9
$DIMASZ
 40
2.5
  9
$DIMEXO
 40
0.625
  9
$DIMDLI
 40
3.75
  9
$DIMRND
 40
0.0
  9
$DIMDLE
 40
0.0
  9
$DIMEXE
 40
1.25
  9
$DIMTP
 40
0.0
  9
$DIMTM
 40
0.0
  9
$DIMTXT
 40
2.5
  9
$DIMCEN
 40
2.5
  9
$DIMTSZ
 40
0.0
  9
$DIMTOL
 70
     0
  9
$DIMLIM
 70
     0
  9
$DIMTIH
 70
     0
  9
$DIMTOH
 70
     0
  9
$DIMSE1
 70
     0
  9
$DIMSE2
 70
     0
  9
$DIMTAD
 70
     1
  9
$DIMZIN
 70
     8
  9
$DIMBLK
  1

  9
$DIMASO
 70
     1
  9
$DIMSHO
 70
     1
  9
$DIMPOST
  1

  9
$DIMAPOST
  1

  9
$DIMALT
 70
     0
  9
$DIMALTD
 70
     3
  9
$DIMALTF
 40
0.03937007874016
  9
$DIMLFAC
 40
1.0
  9
$DIMTOFL
 70
     1
  9
$DIMTVP
 40
0.0
  9
$DIMTIX
 70
     0
  9
$DIMSOXD
 70
     0
  9
$DIMSAH
 70
     0
  9
$DIMBLK1
  1

  9
$DIMBLK2
  1

  9
$DIMSTYLE
  2
ISO-25
  9
$DIMCLRD
 70
     0
  9
$DIMCLRE
 70
     0
  9
$DIMCLRT
 70
     0
  9
$DIMTFAC
 40
1.0
  9
$DIMGAP
 40
0.625
  9
$LUNITS
 70
     2
  9
$LUPREC
 70
     4
  9
$SKETCHINC
 40
1.0
  9
$FILLETRAD
 40
0.0
  9
$AUNITS
 70
     0
  9
$AUPREC
 70
     0
  9
$MENU
  1
.
  9
$ELEVATION
 40
0.0
  9
$PELEVATION
 40
0.0
  9
$THICKNESS
 40
0.0
  9
$LIMCHECK
 70
     0
  9
$BLIPMODE
 70
     0
  9
$CHAMFERA
 40
0.0
  9
$CHAMFERB
 40
0.0
  9
$SKPOLY
 70
     0
  9
$TDCREATE
 40
2458087.5747569450177252
  9
$TDUPDATE
 40
2458088.6586689818650484
  9
$TDINDWG
 40
0.0653587963
  9
$TDUSRTIMER
 40
0.0653587963
  9
$USRTIMER
 70
     1
  9
$ANGBASE
 50
0.0
  9
$ANGDIR
 70
     0
  9
$PDMODE
 70
     0
  9
$PDSIZE
 40
0.0
  9
$PLINEWID
 40
0.0
  9
$COORDS
 70
     1
  9
$SPLFRAME
 70
     0
  9
$SPLINETYPE
 70
     6
  9
$SPLINESEGS
 70
     8
  9
$ATTDIA
 70
     1
  9
$ATTREQ
 70
     1
  9
$HANDLING
 70
     1
  9
$HANDSEED
  5
6B7
  9
$SURFTAB1
 70
     6
  9
$SURFTAB2
 70
     6
  9
$SURFTYPE
 70
     6
  9
$SURFU
 70
     6
  9
$SURFV
 70
     6
  9
$UCSNAME
  2

  9
$UCSORG
 10
0.0
 20
0.0
 30
0.0
  9
$UCSXDIR
 10
1.0
 20
0.0
 30
0.0
  9
$UCSYDIR
 10
0.0
 20
1.0
 30
0.0
  9
$PUCSNAME
  2

  9
$PUCSORG
 10
0.0
 20
0.0
 30
0.0
  9
$PUCSXDIR
 10
1.0
 20
0.0
 30
0.0
  9
$PUCSYDIR
 10
0.0
 20
1.0
 30
0.0
  9
$USERI1
 70
     0
  9
$USERI2
 70
     0
  9
$USERI3
 70
     0
  9
$USERI4
 70
     0
  9
$USERI5
 70
     0
  9
$USERR1
 40
0.0
  9
$USERR2
 40
0.0
  9
$USERR3
 40
0.0
  9
$USERR4
 40
0.0
  9
$USERR5
 40
0.0
  9
$WORLDVIEW
 70
     1
  9
$SHADEDGE
 70
     3
  9
$SHADEDIF
 70
    70
  9
$TILEMODE
 70
     1
  9
$MAXACTVP
 70
    64
  9
$PLIMCHECK
 70
     0
  9
$PEXTMIN
 10
1.0000000000000000E+20
 20
1.0000000000000000E+20
 30
1.0000000000000000E+20
  9
$PEXTMAX
 10
-1.0000000000000000E+20
 20
-1.0000000000000000E+20
 30
-1.0000000000000000E+20
  9
$PLIMMIN
 10
0.0
 20
0.0
  9
$PLIMMAX
 10
12.0
 20
9.0
  9
$UNITMODE
 70
     0
  9
$VISRETAIN
 70
     1
  9
$PLINEGEN
 70
     0
  9
$PSLTSCALE
 70
     1
  0
ENDSEC
  0
SECTION
  2
TABLES
  0
TABLE
  2
VPORT
 70
     1
  0
VPORT
  2
*ACTIVE
 70
     0
 10
0.0
 20
0.0
 11
1.0
 21
1.0
 12
1884.9380913939089623
 22
-421.6090860389177237
 13
0.0
 23
0.0
 14
10.0
 24
10.0
 15
10.0
 25
10.0
 16
0.0
 26
0.0
 36
1.0
 17
0.0
 27
0.0
 37
0.0
 40
2102.4754446169317816
 41
2.5318725099601589
 42
50.0
 43
0.0
 44
0.0
 50
0.0
 51
0.0
 71
     0
 72
  1000
 73
     1
 74
     1
 75
     0
 76
     0
 77
     0
 78
     0
  0
ENDTAB
  0
TABLE
  2
LTYPE
 70
     2
  0
LTYPE
  2
CONTINUOUS
 70
     0
  3
Solid line
 72
    65
 73
     0
 40
0.0
  0
ENDTAB
  0
TABLE
  2
LAYER
 70
     3
  0
LAYER
  2
0
 70
     0
 62
     7
  6
CONTINUOUS
  0
LAYER
  2
CNCSHAPE
 70
     0
 62
     7
  6
CONTINUOUS
  0
LAYER
  2
DEPT
 70
     0
 62
     8
  6
CONTINUOUS
  0
ENDTAB
  0
TABLE
  2
STYLE
 70
     2
  0
STYLE
  2
STANDARD
 70
     0
 40
0.0
 41
1.0
 50
0.0
 71
     0
 42
2.5
  3
txt
  4

  0
STYLE
  2
ANNOTATIVE
 70
     0
 40
0.0
 41
1.0
 50
0.0
 71
     0
 42
0.2
  3
txt
  4

  0
ENDTAB
  0
TABLE
  2
VIEW
 70
     1
  0
ENDTAB
  0
TABLE
  2
UCS
 70
     0
  0
ENDTAB
  0
TABLE
  2
APPID
 70
    10
  0
APPID
  2
ACAD
 70
     0
  0
APPID
  2
ACADANNOTATIVE
 70
     0
  0
APPID
  2
ACAD_PSEXT
 70
     0
  0
APPID
  2
ACAD_DSTYLE_DIMJAG
 70
     0
  0
APPID
  2
ACAD_DSTYLE_DIMTALN
 70
     0
  0
APPID
  2
ACAECLAYERSTANDARD
 70
     0
  0
APPID
  2
ACCMTRANSPARENCY
 70
     0
  0
APPID
  2
ACAD_EXEMPT_FROM_CAD_STANDARDS
 70
     0
  0
APPID
  2
ACAD_NAV_VCDISPLAY
 70
     0
  0
APPID
  2
ACAD_MLEADERVER
 70
     0
  0
ENDTAB
  0
TABLE
  2
DIMSTYLE
 70
     4
  0
DIMSTYLE
  2
STANDARD
 70
     0
  3

  4

  5

  6

  7

 40
1.0
 41
0.18
 42
0.0625
 43
0.38
 44
0.18
 45
0.0
 46
0.0
 47
0.0
 48
0.0
140
0.18
141
0.09
142
0.0
143
25.3999999999999986
144
1.0
145
0.0
146
1.0
147
0.09
 71
     0
 72
     0
 73
     1
 74
     1
 75
     0
 76
     0
 77
     0
 78
     0
170
     0
171
     2
172
     0
173
     0
174
     0
175
     0
176
     0
177
     0
178
     0
  0
DIMSTYLE
  2
ANNOTATIVE
 70
     0
  3

  4

  5

  6

  7

 40
0.0
 41
2.5
 42
0.625
 43
3.75
 44
1.25
 45
0.0
 46
0.0
 47
0.0
 48
0.0
140
2.5
141
2.5
142
0.0
143
0.03937007874016
144
1.0
145
0.0
146
1.0
147
0.625
 71
     0
 72
     0
 73
     0
 74
     0
 75
     0
 76
     0
 77
     1
 78
     8
170
     0
171
     3
172
     1
173
     0
174
     0
175
     0
176
     0
177
     0
178
     0
  0
DIMSTYLE
  2
ISO-25
 70
     0
  3

  4

  5

  6

  7

 40
1.0
 41
2.5
 42
0.625
 43
3.75
 44
1.25
 45
0.0
 46
0.0
 47
0.0
 48
0.0
140
2.5
141
2.5
142
0.0
143
0.03937007874016
144
1.0
145
0.0
146
1.0
147
0.625
 71
     0
 72
     0
 73
     0
 74
     0
 75
     0
 76
     0
 77
     1
 78
     8
170
     0
171
     3
172
     1
173
     0
174
     0
175
     0
176
     0
177
     0
178
     0
  0
ENDTAB
  0
ENDSEC
  0
SECTION
  2
BLOCKS
  0
BLOCK
  8
0
  2
$MODEL_SPACE
 70
     0
 10
0.0
 20
0.0
 30
0.0
  3
$MODEL_SPACE
  1

  0
ENDBLK
  5
72
  8
0
  0
BLOCK
 67
     1
  8
0
  2
$PAPER_SPACE
 70
     0
 10
0.0
 20
0.0
 30
0.0
  3
$PAPER_SPACE
  1

  0
ENDBLK
  5
6E
 67
     1
  8
0
  0
ENDSEC
  0
SECTION
  2
ENTITIES
  0
POLYLINE
  5
7D
  8
0
  6
CONTINUOUS
 66
     1
 10
0.0
 20
0.0
 30
0.0
 70
     1
  0
VERTEX
  5
474
  8
0
  6
CONTINUOUS
 10
0.0117889564313831
 20
-1218.7572608943839896
 30
0.0
  0
VERTEX
  5
475
  8
0
  6
CONTINUOUS
 10
2440.0117889564307916
 20
-1218.7572608943839896
 30
0.0
  0
VERTEX
  5
476
  8
0
  6
CONTINUOUS
 10
2440.0117889564307916
 20
1.24273910561601
 30
0.0
  0
VERTEX
  5
477
  8
0
  6
CONTINUOUS
 10
0.0117889564313831
 20
1.24273910561601
 30
0.0
  0
SEQEND
  5
478
  8
0
  6
CONTINUOUS
  0
POLYLINE
  5
89
  8
CNCSHAPE
 66
     1
 10
0.0
 20
0.0
 30
0.0
 70
     1
  0
VERTEX
  5
479
  8
CNCSHAPE
 10
793.0935754925719721
 20
-1111.2553506839799411
 30
0.0
  0
VERTEX
  5
47A
  8
CNCSHAPE
 10
835.0935631783847839
 20
-1111.2553506839799411
 30
0.0
 42
-0.1428571428955192
  0
VERTEX
  5
47B
  8
CNCSHAPE
 10
835.0935631783847839
 20
-1118.2553486317669922
 30
0.0
  0
VERTEX
  5
47C
  8
CNCSHAPE
 10
835.0935631783847839
 20
-1122.2553474588789868
 30
0.0
  0
VERTEX
  5
47D
  8
CNCSHAPE
 10
895.0935455864289452
 20
-1122.2553474588789868
 30
0.0
  0
VERTEX
  5
47E
  8
CNCSHAPE
 10
895.0935455864289452
 20
-1119.2553483382039303
 30
0.0
  0
VERTEX
  5
47F
  8
CNCSHAPE
 10
895.0935455864289452
 20
-1119.2553483382039303
 30
0.0
 42
-0.3749999999816356
  0
VERTEX
  5
480
  8
CNCSHAPE
 10
895.0935455859741978
 20
-1111.2553506835249664
 30
0.0
  0
VERTEX
  5
481
  8
CNCSHAPE
 10
928.0935359111260823
 20
-1111.2553506835249664
 30
0.0
  0
VERTEX
  5
482
  8
CNCSHAPE
 10
928.0935359111260823
 20
-133.2556374309961029
 30
0.0
  0
VERTEX
  5
483
  8
CNCSHAPE
 10
895.0935455859741978
 20
-133.2556374309961029
 30
0.0
 42
-0.3749999999816356
  0
VERTEX
  5
484
  8
CNCSHAPE
 10
895.0935455864289452
 20
-125.2556397763172953
 30
0.0
  0
VERTEX
  5
485
  8
CNCSHAPE
 10
895.0935455864289452
 20
-125.2556397763172953
 30
0.0
  0
VERTEX
  5
486
  8
CNCSHAPE
 10
895.0935455864289452
 20
-122.2556406558696978
 30
0.0
  0
VERTEX
  5
487
  8
CNCSHAPE
 10
835.0935631783847839
 20
-122.2556406558696978
 30
0.0
  0
VERTEX
  5
488
  8
CNCSHAPE
 10
835.0935631783847839
 20
-126.2556394829817066
 30
0.0
 42
-0.1428571428955192
  0
VERTEX
  5
489
  8
CNCSHAPE
 10
835.0935631783847839
 20
-133.2556374305412987
 30
0.0
  0
VERTEX
  5
48A
  8
CNCSHAPE
 10
793.0935754930267194
 20
-133.2556374305412987
 30
0.0
  0
SEQEND
  5
48B
  8
CNCSHAPE
  0
POLYLINE
  5
8A
  8
CNCSHAPE
 66
     1
 10
0.0
 20
0.0
 30
0.0
 70
     1
  0
VERTEX
  5
48C
  8
CNCSHAPE
 10
895.5935454401020479
 20
-319.2555828969333902
 30
0.0
  0
VERTEX
  5
48D
  8
CNCSHAPE
 10
895.5935454401020479
 20
-331.2555793787241782
 30
0.0
  0
VERTEX
  5
48E
  8
CNCSHAPE
 10
834.5935633251663148
 20
-331.2555793787241782
 30
0.0
  0
VERTEX
  5
48F
  8
CNCSHAPE
 10
834.5935633251663148
 20
-319.2555828969333902
 30
0.0
  0
SEQEND
  5
490
  8
CNCSHAPE
  0
POLYLINE
  5
8B
  8
CNCSHAPE
 66
     1
 10
0.0
 20
0.0
 30
0.0
 70
     1
  0
VERTEX
  5
491
  8
CNCSHAPE
 10
895.5935454401020479
 20
-518.2555245506437132
 30
0.0
  0
VERTEX
  5
492
  8
CNCSHAPE
 10
895.5935454401020479
 20
-530.2555210324344444
 30
0.0
  0
VERTEX
  5
493
  8
CNCSHAPE
 10
834.5935633251663148
 20
-530.2555210324344444
 30
0.0
  0
VERTEX
  5
494
  8
CNCSHAPE
 10
834.5935633251663148
 20
-518.2555245506437132
 30
0.0
  0
SEQEND
  5
495
  8
CNCSHAPE
  0
POLYLINE
  5
8C
  8
CNCSHAPE
 66
     1
 10
0.0
 20
0.0
 30
0.0
 70
     1
  0
VERTEX
  5
496
  8
CNCSHAPE
 10
895.5935454401020479
 20
-925.2554052178155644
 30
0.0
  0
VERTEX
  5
497
  8
CNCSHAPE
 10
895.5935454401020479
 20
-913.2554087360249468
 30
0.0
  0
VERTEX
  5
498
  8
CNCSHAPE
 10
834.5935633251663148
 20
-913.2554087360249468
 30
0.0
  0
VERTEX
  5
499
  8
CNCSHAPE
 10
834.5935633251663148
 20
-925.2554052178155644
 30
0.0
  0
SEQEND
  5
49A
  8
CNCSHAPE
  0
POLYLINE
  5
8D
  8
CNCSHAPE
 66
     1
 10
0.0
 20
0.0
 30
0.0
 70
     1
  0
VERTEX
  5
49B
  8
CNCSHAPE
 10
895.5935454401020479
 20
-726.2554635641054119
 30
0.0
  0
VERTEX
  5
49C
  8
CNCSHAPE
 10
895.5935454401020479
 20
-714.2554670823145671
 30
0.0
  0
VERTEX
  5
49D
  8
CNCSHAPE
 10
834.5935633251663148
 20
-714.2554670823145671
 30
0.0
  0
VERTEX
  5
49E
  8
CNCSHAPE
 10
834.5935633251663148
 20
-726.2554635641054119
 30
0.0
  0
SEQEND
  5
49F
  8
CNCSHAPE
  0
POLYLINE
  5
8E
  8
CNCSHAPE
 66
     1
 10
0.0
 20
0.0
 30
0.0
 70
     1
  0
VERTEX
  5
4A0
  8
CNCSHAPE
 10
435.281867721210574
 20
-122.2556406563244025
 30
0.0
  0
VERTEX
  5
4A1
  8
CNCSHAPE
 10
435.281867721210574
 20
-1122.2553474584240121
 30
0.0
  0
VERTEX
  5
4A2
  8
CNCSHAPE
 10
325.2818999735844159
 20
-1122.2553474584240121
 30
0.0
  0
VERTEX
  5
4A3
  8
CNCSHAPE
 10
325.2818999735844159
 20
-122.2556406558696978
 30
0.0
  0
SEQEND
  5
4A4
  8
CNCSHAPE
  0
POLYLINE
  5
8F
  8
CNCSHAPE
 66
     1
 10
0.0
 20
0.0
 30
0.0
 70
     1
  0
VERTEX
  5
4A5
  8
CNCSHAPE
 10
352.7818919106045996
 20
-319.2555828969333902
 30
0.0
  0
VERTEX
  5
4A6
  8
CNCSHAPE
 10
352.7818919106045996
 20
-331.2555793787241782
 30
0.0
  0
VERTEX
  5
4A7
  8
CNCSHAPE
 10
393.7818798890709786
 20
-331.2555793787241782
 30
0.0
  0
VERTEX
  5
4A8
  8
CNCSHAPE
 10
393.7818798890709786
 20
-319.2555828969333902
 30
0.0
  0
SEQEND
  5
4A9
  8
CNCSHAPE
  0
POLYLINE
  5
90
  8
CNCSHAPE
 66
     1
 10
0.0
 20
0.0
 30
0.0
 70
     1
  0
VERTEX
  5
4AA
  8
CNCSHAPE
 10
352.7818919106045996
 20
-518.2555245506437132
 30
0.0
  0
VERTEX
  5
4AB
  8
CNCSHAPE
 10
352.7818919106045996
 20
-530.2555210324344444
 30
0.0
  0
VERTEX
  5
4AC
  8
CNCSHAPE
 10
393.7818798890709786
 20
-530.2555210324344444
 30
0.0
  0
VERTEX
  5
4AD
  8
CNCSHAPE
 10
393.7818798890709786
 20
-518.2555245506437132
 30
0.0
  0
SEQEND
  5
4AE
  8
CNCSHAPE
  0
POLYLINE
  5
91
  8
CNCSHAPE
 66
     1
 10
0.0
 20
0.0
 30
0.0
 70
     1
  0
VERTEX
  5
4AF
  8
CNCSHAPE
 10
352.7818919106045996
 20
-925.2554052178155644
 30
0.0
  0
VERTEX
  5
4B0
  8
CNCSHAPE
 10
352.7818919106045996
 20
-913.2554087360249468
 30
0.0
  0
VERTEX
  5
4B1
  8
CNCSHAPE
 10
393.7818798890709786
 20
-913.2554087360249468
 30
0.0
  0
VERTEX
  5
4B2
  8
CNCSHAPE
 10
393.7818798890709786
 20
-925.2554052178155644
 30
0.0
  0
SEQEND
  5
4B3
  8
CNCSHAPE
  0
POLYLINE
  5
92
  8
CNCSHAPE
 66
     1
 10
0.0
 20
0.0
 30
0.0
 70
     1
  0
VERTEX
  5
4B4
  8
CNCSHAPE
 10
352.7818919106045996
 20
-726.2554635641054119
 30
0.0
  0
VERTEX
  5
4B5
  8
CNCSHAPE
 10
352.7818919106045996
 20
-714.2554670823145671
 30
0.0
  0
VERTEX
  5
4B6
  8
CNCSHAPE
 10
393.7818798890709786
 20
-714.2554670823145671
 30
0.0
  0
VERTEX
  5
4B7
  8
CNCSHAPE
 10
393.7818798890709786
 20
-726.2554635641054119
 30
0.0
  0
SEQEND
  5
4B8
  8
CNCSHAPE
  0
POLYLINE
  5
97
  8
CNCSHAPE
 66
     1
 10
0.0
 20
0.0
 30
0.0
 70
     1
  0
VERTEX
  5
4B9
  8
CNCSHAPE
 10
676.7035941675436561
 20
-319.255582895569205
 30
0.0
  0
VERTEX
  5
4BA
  8
CNCSHAPE
 10
676.7035941675436561
 20
-331.2555793773598793
 30
0.0
  0
VERTEX
  5
4BB
  8
CNCSHAPE
 10
635.7036061890773908
 20
-331.2555793773598793
 30
0.0
  0
VERTEX
  5
4BC
  8
CNCSHAPE
 10
635.7036061890773908
 20
-319.255582895569205
 30
0.0
  0
SEQEND
  5
4BD
  8
CNCSHAPE
  0
POLYLINE
  5
98
  8
CNCSHAPE
 66
     1
 10
0.0
 20
0.0
 30
0.0
 70
     1
  0
VERTEX
  5
4BE
  8
CNCSHAPE
 10
676.7035941675436561
 20
-518.2555245492793574
 30
0.0
  0
VERTEX
  5
4BF
  8
CNCSHAPE
 10
676.7035941675436561
 20
-530.2555210310702023
 30
0.0
  0
VERTEX
  5
4C0
  8
CNCSHAPE
 10
635.7036061890773908
 20
-530.2555210310702023
 30
0.0
  0
VERTEX
  5
4C1
  8
CNCSHAPE
 10
635.7036061890773908
 20
-518.2555245492793574
 30
0.0
  0
SEQEND
  5
4C2
  8
CNCSHAPE
  0
POLYLINE
  5
99
  8
CNCSHAPE
 66
     1
 10
0.0
 20
0.0
 30
0.0
 70
     1
  0
VERTEX
  5
4C3
  8
CNCSHAPE
 10
676.7035941675436561
 20
-714.2554670809504387
 30
0.0
  0
VERTEX
  5
4C4
  8
CNCSHAPE
 10
676.7035941675436561
 20
-726.2554635627410562
 30
0.0
  0
VERTEX
  5
4C5
  8
CNCSHAPE
 10
635.7036061890773908
 20
-726.2554635627410562
 30
0.0
  0
VERTEX
  5
4C6
  8
CNCSHAPE
 10
635.7036061890773908
 20
-714.2554670809504387
 30
0.0
  0
SEQEND
  5
4C7
  8
CNCSHAPE
  0
POLYLINE
  5
9A
  8
CNCSHAPE
 66
     1
 10
0.0
 20
0.0
 30
0.0
 70
     1
  0
VERTEX
  5
4C8
  8
CNCSHAPE
 10
676.7035941675436561
 20
-913.2554087346607048
 30
0.0
  0
VERTEX
  5
4C9
  8
CNCSHAPE
 10
676.7035941675436561
 20
-925.255405216451436
 30
0.0
  0
VERTEX
  5
4CA
  8
CNCSHAPE
 10
635.7036061890773908
 20
-925.255405216451436
 30
0.0
  0
VERTEX
  5
4CB
  8
CNCSHAPE
 10
635.7036061890773908
 20
-913.2554087346607048
 30
0.0
  0
SEQEND
  5
4CC
  8
CNCSHAPE
  0
POLYLINE
  5
9B
  8
CNCSHAPE
 66
     1
 10
0.0
 20
0.0
 30
0.0
 70
     1
  0
VERTEX
  5
4CD
  8
CNCSHAPE
 10
549.7036314036683962
 20
-319.255582895569205
 30
0.0
  0
VERTEX
  5
4CE
  8
CNCSHAPE
 10
549.7036314036683962
 20
-331.2555793773598793
 30
0.0
  0
VERTEX
  5
4CF
  8
CNCSHAPE
 10
590.7036193825895225
 20
-331.2555793773598793
 30
0.0
  0
VERTEX
  5
4D0
  8
CNCSHAPE
 10
590.7036193825895225
 20
-319.255582895569205
 30
0.0
  0
SEQEND
  5
4D1
  8
CNCSHAPE
  0
POLYLINE
  5
9C
  8
CNCSHAPE
 66
     1
 10
0.0
 20
0.0
 30
0.0
 70
     1
  0
VERTEX
  5
4D2
  8
CNCSHAPE
 10
549.7036314036683962
 20
-518.2555245492793574
 30
0.0
  0
VERTEX
  5
4D3
  8
CNCSHAPE
 10
549.7036314036683962
 20
-530.2555210310702023
 30
0.0
  0
VERTEX
  5
4D4
  8
CNCSHAPE
 10
590.7036193825895225
 20
-530.2555210310702023
 30
0.0
  0
VERTEX
  5
4D5
  8
CNCSHAPE
 10
590.7036193825895225
 20
-518.2555245492793574
 30
0.0
  0
SEQEND
  5
4D6
  8
CNCSHAPE
  0
POLYLINE
  5
9D
  8
CNCSHAPE
 66
     1
 10
0.0
 20
0.0
 30
0.0
 70
     1
  0
VERTEX
  5
4D7
  8
CNCSHAPE
 10
549.7036314036683962
 20
-714.2554670809504387
 30
0.0
  0
VERTEX
  5
4D8
  8
CNCSHAPE
 10
549.7036314036683962
 20
-726.2554635627410562
 30
0.0
  0
VERTEX
  5
4D9
  8
CNCSHAPE
 10
590.7036193825895225
 20
-726.2554635627410562
 30
0.0
  0
VERTEX
  5
4DA
  8
CNCSHAPE
 10
590.7036193825895225
 20
-714.2554670809504387
 30
0.0
  0
SEQEND
  5
4DB
  8
CNCSHAPE
  0
POLYLINE
  5
9E
  8
CNCSHAPE
 66
     1
 10
0.0
 20
0.0
 30
0.0
 70
     1
  0
VERTEX
  5
4DC
  8
CNCSHAPE
 10
549.7036314036683962
 20
-913.2554087346607048
 30
0.0
  0
VERTEX
  5
4DD
  8
CNCSHAPE
 10
549.7036314036683962
 20
-925.255405216451436
 30
0.0
  0
VERTEX
  5
4DE
  8
CNCSHAPE
 10
590.7036193825895225
 20
-925.255405216451436
 30
0.0
  0
VERTEX
  5
4DF
  8
CNCSHAPE
 10
590.7036193825895225
 20
-913.2554087346607048
 30
0.0
  0
SEQEND
  5
4E0
  8
CNCSHAPE
  0
POLYLINE
  5
9F
  8
CNCSHAPE
 66
     1
 10
0.0
 20
0.0
 30
0.0
 70
     1
  0
VERTEX
  5
4E1
  8
CNCSHAPE
 10
512.7036422518591507
 20
-1111.2553506821609517
 30
0.0
  0
VERTEX
  5
4E2
  8
CNCSHAPE
 10
545.516776671798425
 20
-1111.2553506821609517
 30
0.0
  0
VERTEX
  5
4E3
  8
CNCSHAPE
 10
550.2036312573416126
 20
-1111.2553506821609517
 30
0.0
 42
-0.3750000000323421
  0
VERTEX
  5
4E4
  8
CNCSHAPE
 10
550.2036312573416126
 20
-1119.2553483363849409
 30
0.0
  0
VERTEX
  5
4E5
  8
CNCSHAPE
 10
550.2036312573416126
 20
-1122.2553474570599974
 30
0.0
  0
VERTEX
  5
4E6
  8
CNCSHAPE
 10
590.2036195293710534
 20
-1122.2553474570599974
 30
0.0
  0
VERTEX
  5
4E7
  8
CNCSHAPE
 10
590.2036195293710534
 20
-1122.2553474570599974
 30
0.0
  0
VERTEX
  5
4E8
  8
CNCSHAPE
 10
590.2036195293710534
 20
-1119.2553483363849409
 30
0.0
 42
-0.3749999999961777
  0
VERTEX
  5
4E9
  8
CNCSHAPE
 10
590.203619528461445
 20
-1111.2553506821609517
 30
0.0
  0
VERTEX
  5
4EA
  8
CNCSHAPE
 10
590.203619528461445
 20
-1111.2553506821609517
 30
0.0
  0
VERTEX
  5
4EB
  8
CNCSHAPE
 10
636.2036060422957462
 20
-1111.2553506821609517
 30
0.0
  0
VERTEX
  5
4EC
  8
CNCSHAPE
 10
636.2036060422957462
 20
-1111.2553506821609517
 30
0.0
  0
VERTEX
  5
4ED
  8
CNCSHAPE
 10
636.2036060422957462
 20
-1111.2553506821609517
 30
0.0
 42
-0.3749999999961777
  0
VERTEX
  5
4EE
  8
CNCSHAPE
 10
636.2036060422957462
 20
-1119.2553483363849409
 30
0.0
  0
VERTEX
  5
4EF
  8
CNCSHAPE
 10
636.2036060422957462
 20
-1122.2553474570599974
 30
0.0
  0
VERTEX
  5
4F0
  8
CNCSHAPE
 10
636.2036060422957462
 20
-1122.2553474570599974
 30
0.0
  0
VERTEX
  5
4F1
  8
CNCSHAPE
 10
676.2035943143253007
 20
-1122.2553474570599974
 30
0.0
  0
VERTEX
  5
4F2
  8
CNCSHAPE
 10
676.2035943143253007
 20
-1119.2553483363849409
 30
0.0
 42
-0.3750000000323421
  0
VERTEX
  5
4F3
  8
CNCSHAPE
 10
676.203594313415806
 20
-1111.2553506821609517
 30
0.0
  0
VERTEX
  5
4F4
  8
CNCSHAPE
 10
680.8904488994137409
 20
-1111.2553506821609517
 30
0.0
  0
VERTEX
  5
4F5
  8
CNCSHAPE
 10
713.7035833188981542
 20
-1111.2553506821609517
 30
0.0
  0
VERTEX
  5
4F6
  8
CNCSHAPE
 10
713.7035833188981542
 20
-133.255637429631804
 30
0.0
  0
VERTEX
  5
4F7
  8
CNCSHAPE
 10
680.8904488994137409
 20
-133.255637429631804
 30
0.0
  0
VERTEX
  5
4F8
  8
CNCSHAPE
 10
676.203594313415806
 20
-133.255637429631804
 30
0.0
 42
-0.3750000000323421
  0
VERTEX
  5
4F9
  8
CNCSHAPE
 10
676.2035943143253007
 20
-125.2556397754079001
 30
0.0
  0
VERTEX
  5
4FA
  8
CNCSHAPE
 10
676.2035943143253007
 20
-122.2556406549602031
 30
0.0
  0
VERTEX
  5
4FB
  8
CNCSHAPE
 10
636.2036060422957462
 20
-122.2556406549602031
 30
0.0
  0
VERTEX
  5
4FC
  8
CNCSHAPE
 10
636.2036060422957462
 20
-122.2556406549602031
 30
0.0
  0
VERTEX
  5
4FD
  8
CNCSHAPE
 10
636.2036060422957462
 20
-125.2556397754079001
 30
0.0
 42
-0.3749999999961777
  0
VERTEX
  5
4FE
  8
CNCSHAPE
 10
636.2036060422957462
 20
-133.255637429631804
 30
0.0
  0
VERTEX
  5
4FF
  8
CNCSHAPE
 10
636.2036060422957462
 20
-133.255637429631804
 30
0.0
  0
VERTEX
  5
500
  8
CNCSHAPE
 10
636.2036060422957462
 20
-133.255637429631804
 30
0.0
  0
VERTEX
  5
501
  8
CNCSHAPE
 10
590.203619528461445
 20
-133.255637429631804
 30
0.0
  0
VERTEX
  5
502
  8
CNCSHAPE
 10
590.203619528461445
 20
-133.255637429631804
 30
0.0
 42
-0.3749999999961777
  0
VERTEX
  5
503
  8
CNCSHAPE
 10
590.2036195293710534
 20
-125.2556397754079001
 30
0.0
  0
VERTEX
  5
504
  8
CNCSHAPE
 10
590.2036195293710534
 20
-122.2556406549602031
 30
0.0
  0
VERTEX
  5
505
  8
CNCSHAPE
 10
590.2036195293710534
 20
-122.2556406549602031
 30
0.0
  0
VERTEX
  5
506
  8
CNCSHAPE
 10
550.2036312573416126
 20
-122.2556406549602031
 30
0.0
  0
VERTEX
  5
507
  8
CNCSHAPE
 10
550.2036312573416126
 20
-125.2556397754079001
 30
0.0
 42
-0.3750000000323421
  0
VERTEX
  5
508
  8
CNCSHAPE
 10
550.2036312573416126
 20
-133.255637429631804
 30
0.0
  0
VERTEX
  5
509
  8
CNCSHAPE
 10
545.516776671798425
 20
-133.255637429631804
 30
0.0
  0
VERTEX
  5
50A
  8
CNCSHAPE
 10
512.7036422518591507
 20
-133.255637429631804
 30
0.0
  0
SEQEND
  5
50B
  8
CNCSHAPE
  0
POLYLINE
  5
A5
  8
CNCSHAPE
 66
     1
 10
0.0
 20
0.0
 30
0.0
 70
     1
  0
VERTEX
  5
50C
  8
CNCSHAPE
 10
1476.52926135517896
 20
-729.1689553881950587
 30
0.0
  0
VERTEX
  5
50D
  8
CNCSHAPE
 10
1297.5293138374829596
 20
-729.1689553881950587
 30
0.0
  0
VERTEX
  5
50E
  8
CNCSHAPE
 10
1297.5293138374829596
 20
-740.1689521630942181
 30
0.0
  0
VERTEX
  5
50F
  8
CNCSHAPE
 10
1186.5293463820560191
 20
-740.1689521630942181
 30
0.0
  0
VERTEX
  5
510
  8
CNCSHAPE
 10
1186.5293463820560191
 20
-729.1689553881950587
 30
0.0
  0
VERTEX
  5
511
  8
CNCSHAPE
 10
1045.529387723516038
 20
-729.1689553881950587
 30
0.0
  0
VERTEX
  5
512
  8
CNCSHAPE
 10
1045.529387723516038
 20
-899.1689055447750434
 30
0.0
 42
0.2526142706417811
  0
VERTEX
  5
513
  8
CNCSHAPE
 10
1085.5293759950900494
 20
-942.1688929372520533
 30
0.0
 42
0.056916555995635
  0
VERTEX
  5
514
  8
CNCSHAPE
 10
1688.5291991966610112
 20
-1054.1688600988888993
 30
0.0
 42
0.017292459717987
  0
VERTEX
  5
515
  8
CNCSHAPE
 10
2344.3461964748407809
 20
-1040.228250447489927
 30
0.0
 42
0.3659863554856382
  0
VERTEX
  5
516
  8
CNCSHAPE
 10
2345.5290065658359708
 20
-1038.884592397015922
 30
0.0
  0
VERTEX
  5
517
  8
CNCSHAPE
 10
2345.5290065658359708
 20
-740.1689521630942181
 30
0.0
  0
VERTEX
  5
518
  8
CNCSHAPE
 10
2224.5290420428559628
 20
-740.1689521630942181
 30
0.0
  0
VERTEX
  5
519
  8
CNCSHAPE
 10
2224.5290420428559628
 20
-729.1689553881950587
 30
0.0
  0
VERTEX
  5
51A
  8
CNCSHAPE
 10
1944.5291241386510137
 20
-729.1689553881950587
 30
0.0
  0
VERTEX
  5
51B
  8
CNCSHAPE
 10
1944.5291241386510137
 20
-740.1689521630942181
 30
0.0
  0
VERTEX
  5
51C
  8
CNCSHAPE
 10
1823.5291596152160309
 20
-740.1689521630942181
 30
0.0
  0
VERTEX
  5
51D
  8
CNCSHAPE
 10
1823.5291596152160309
 20
-729.1689553881950587
 30
0.0
  0
VERTEX
  5
51E
  8
CNCSHAPE
 10
1598.5292255850499714
 20
-729.1689553881950587
 30
0.0
  0
VERTEX
  5
51F
  8
CNCSHAPE
 10
1598.5292255850499714
 20
-740.1689521630942181
 30
0.0
  0
VERTEX
  5
520
  8
CNCSHAPE
 10
1477.5292610616149886
 20
-740.1689521630942181
 30
0.0
  0
VERTEX
  5
521
  8
CNCSHAPE
 10
1477.5292610616149886
 20
-729.1689553881950587
 30
0.0
  0
SEQEND
  5
522
  8
CNCSHAPE
  0
POLYLINE
  5
B1
  8
CNCSHAPE
 66
     1
 10
0.0
 20
0.0
 30
0.0
 70
     1
  0
VERTEX
  5
523
  8
CNCSHAPE
 10
2154.5290625695320159
 20
-208.0730489331772048
 30
0.0
 42
0.0122835783123409
  0
VERTEX
  5
524
  8
CNCSHAPE
 10
1688.5291991966601017
 20
-202.8358721798512931
 30
0.0
 42
0.056916555995635
  0
VERTEX
  5
525
  8
CNCSHAPE
 10
1085.5293759950889125
 20
-314.8358393412609075
 30
0.0
 42
0.2526142706417811
  0
VERTEX
  5
526
  8
CNCSHAPE
 10
1045.5293877235139917
 20
-357.8358267339654049
 30
0.0
  0
VERTEX
  5
527
  8
CNCSHAPE
 10
1045.5293877235139917
 20
-527.8357768903179021
 30
0.0
  0
VERTEX
  5
528
  8
CNCSHAPE
 10
1186.5293463820539728
 20
-527.8357768903179021
 30
0.0
  0
VERTEX
  5
529
  8
CNCSHAPE
 10
1186.5293463820539728
 20
-516.8357801154188564
 30
0.0
  0
VERTEX
  5
52A
  8
CNCSHAPE
 10
1297.5293138374809132
 20
-516.8357801154188564
 30
0.0
  0
VERTEX
  5
52B
  8
CNCSHAPE
 10
1297.5293138374809132
 20
-527.8357768903179021
 30
0.0
  0
VERTEX
  5
52C
  8
CNCSHAPE
 10
1476.5292613551769136
 20
-527.8357768903179021
 30
0.0
  0
VERTEX
  5
52D
  8
CNCSHAPE
 10
1477.5292610616140792
 20
-527.8357768903179021
 30
0.0
  0
VERTEX
  5
52E
  8
CNCSHAPE
 10
1477.5292610616140792
 20
-516.8357801154188564
 30
0.0
  0
VERTEX
  5
52F
  8
CNCSHAPE
 10
1598.5292255850490619
 20
-516.8357801154188564
 30
0.0
  0
VERTEX
  5
530
  8
CNCSHAPE
 10
1598.5292255850490619
 20
-527.8357768903179021
 30
0.0
  0
VERTEX
  5
531
  8
CNCSHAPE
 10
1823.5291596152139846
 20
-527.8357768903179021
 30
0.0
  0
VERTEX
  5
532
  8
CNCSHAPE
 10
1823.5291596152139846
 20
-516.8357801154188564
 30
0.0
  0
VERTEX
  5
533
  8
CNCSHAPE
 10
1944.5291241386489673
 20
-516.8357801154188564
 30
0.0
  0
VERTEX
  5
534
  8
CNCSHAPE
 10
1944.5291241386489673
 20
-527.8357768903179021
 30
0.0
  0
VERTEX
  5
535
  8
CNCSHAPE
 10
2224.5290420428550533
 20
-527.8357768903179021
 30
0.0
  0
VERTEX
  5
536
  8
CNCSHAPE
 10
2224.5290420428550533
 20
-516.8357801154188564
 30
0.0
  0
VERTEX
  5
537
  8
CNCSHAPE
 10
2345.5290065658350613
 20
-516.8357801154188564
 30
0.0
  0
VERTEX
  5
538
  8
CNCSHAPE
 10
2345.5290065658350613
 20
-426.835806503125184
 30
0.0
 42
-0.9999999999999998
  0
VERTEX
  5
539
  8
CNCSHAPE
 10
2345.5290065658350613
 20
-356.835827027301093
 30
0.0
  0
VERTEX
  5
53A
  8
CNCSHAPE
 10
2345.5290065658350613
 20
-331.8358343572826925
 30
0.0
 42
0.1706982011886168
  0
VERTEX
  5
53B
  8
CNCSHAPE
 10
2340.5290080318309265
 20
-325.3117423906433032
 30
0.0
  0
VERTEX
  5
53C
  8
CNCSHAPE
 10
2166.3395702044231257
 20
-211.7091445196211055
 30
0.0
 42
0.0877175774503309
  0
SEQEND
  5
53D
  8
CNCSHAPE
  0
POLYLINE
  5
104
  8
DEPT
 66
     1
 10
0.0
 20
0.0
 30
0.0
 70
     1
  0
VERTEX
  5
540
  8
DEPT
 10
817.4935684561534117
 20
-1111.2553506839799411
 30
0.0
  0
VERTEX
  5
541
  8
DEPT
 10
817.4935684561534117
 20
-133.2556374305412987
 30
0.0
  0
VERTEX
  5
542
  8
DEPT
 10
804.6935719748174733
 20
-133.2556374305412987
 30
0.0
  0
VERTEX
  5
543
  8
DEPT
 10
804.6935719748174733
 20
-1111.2553506839799411
 30
0.0
  0
SEQEND
  5
544
  8
DEPT
  0
POLYLINE
  5
105
  8
DEPT
 66
     1
 10
0.0
 20
0.0
 30
0.0
 70
     1
  0
VERTEX
  5
545
  8
DEPT
 10
410.8818747585385722
 20
-1111.6553506817069774
 30
0.0
  0
VERTEX
  5
546
  8
DEPT
 10
410.8818747585385722
 20
-132.8556374300864888
 30
0.0
  0
VERTEX
  5
547
  8
DEPT
 10
423.6818712398745106
 20
-132.8556374300866025
 30
0.0
  0
VERTEX
  5
548
  8
DEPT
 10
423.6818712398745106
 20
-1111.6553506817069774
 30
0.0
  0
SEQEND
  5
549
  8
DEPT
  0
POLYLINE
  5
10B
  8
CNCSHAPE
 66
     1
 10
0.0
 20
0.0
 30
0.0
 70
     1
  0
VERTEX
  5
54A
  8
CNCSHAPE
 10
1923.6291283898578968
 20
-350.3699855949612925
 30
0.0
  0
VERTEX
  5
54B
  8
CNCSHAPE
 10
1923.6291283898578968
 20
-308.5699940973764228
 30
0.0
  0
VERTEX
  5
54C
  8
CNCSHAPE
 10
1936.4291283898580787
 20
-308.5699940973764228
 30
0.0
  0
VERTEX
  5
54D
  8
CNCSHAPE
 10
1936.4291283898580787
 20
-350.3699855949612925
 30
0.0
  0
SEQEND
  5
54E
  8
CNCSHAPE
  0
POLYLINE
  5
10C
  8
CNCSHAPE
 66
     1
 10
0.0
 20
0.0
 30
0.0
 70
     1
  0
VERTEX
  5
54F
  8
CNCSHAPE
 10
1923.6291283898578968
 20
-483.1015895831163789
 30
0.0
  0
VERTEX
  5
550
  8
CNCSHAPE
 10
1923.6291283898578968
 20
-441.3015980855316229
 30
0.0
  0
VERTEX
  5
551
  8
CNCSHAPE
 10
1936.4291283898580787
 20
-441.3015980855316229
 30
0.0
  0
VERTEX
  5
552
  8
CNCSHAPE
 10
1936.4291283898580787
 20
-483.1015895831163789
 30
0.0
  0
SEQEND
  5
553
  8
CNCSHAPE
  0
POLYLINE
  5
10D
  8
CNCSHAPE
 66
     1
 10
0.0
 20
0.0
 30
0.0
 70
     1
  0
VERTEX
  5
554
  8
CNCSHAPE
 10
1577.6292298362579913
 20
-350.3699855949612925
 30
0.0
  0
VERTEX
  5
555
  8
CNCSHAPE
 10
1577.6292298362579913
 20
-308.5699940973764228
 30
0.0
  0
VERTEX
  5
556
  8
CNCSHAPE
 10
1590.4292298362579459
 20
-308.5699940973764228
 30
0.0
  0
VERTEX
  5
557
  8
CNCSHAPE
 10
1590.4292298362579459
 20
-350.3699855949612925
 30
0.0
  0
SEQEND
  5
558
  8
CNCSHAPE
  0
POLYLINE
  5
10E
  8
CNCSHAPE
 66
     1
 10
0.0
 20
0.0
 30
0.0
 70
     1
  0
VERTEX
  5
559
  8
CNCSHAPE
 10
1577.6292298362579913
 20
-483.1015895831163789
 30
0.0
  0
VERTEX
  5
55A
  8
CNCSHAPE
 10
1577.6292298362579913
 20
-441.3015980855316229
 30
0.0
  0
VERTEX
  5
55B
  8
CNCSHAPE
 10
1590.4292298362579459
 20
-441.3015980855316229
 30
0.0
  0
VERTEX
  5
55C
  8
CNCSHAPE
 10
1590.4292298362579459
 20
-483.1015895831163789
 30
0.0
  0
SEQEND
  5
55D
  8
CNCSHAPE
  0
POLYLINE
  5
10F
  8
CNCSHAPE
 66
     1
 10
0.0
 20
0.0
 30
0.0
 70
     1
  0
VERTEX
  5
55E
  8
CNCSHAPE
 10
1895.9291385068679574
 20
-275.7358509226772867
 30
0.0
  0
VERTEX
  5
55F
  8
CNCSHAPE
 10
1834.1291563923869035
 20
-275.7358509226772867
 30
0.0
  0
VERTEX
  5
560
  8
CNCSHAPE
 10
1834.1291563923869035
 20
-262.935854440886601
 30
0.0
  0
VERTEX
  5
561
  8
CNCSHAPE
 10
1895.9291385068679574
 20
-262.935854440886601
 30
0.0
  0
SEQEND
  5
562
  8
CNCSHAPE
  0
POLYLINE
  5
110
  8
CNCSHAPE
 66
     1
 10
0.0
 20
0.0
 30
0.0
 70
     1
  0
VERTEX
  5
563
  8
CNCSHAPE
 10
1549.929239953268052
 20
-275.7358509226772867
 30
0.0
  0
VERTEX
  5
564
  8
CNCSHAPE
 10
1488.1292578383320233
 20
-275.7358509226772867
 30
0.0
  0
VERTEX
  5
565
  8
CNCSHAPE
 10
1488.1292578383320233
 20
-262.935854440886601
 30
0.0
  0
VERTEX
  5
566
  8
CNCSHAPE
 10
1549.929239953268052
 20
-262.935854440886601
 30
0.0
  0
SEQEND
  5
567
  8
CNCSHAPE
  0
POLYLINE
  5
111
  8
CNCSHAPE
 66
     1
 10
0.0
 20
0.0
 30
0.0
 70
     1
  0
VERTEX
  5
568
  8
CNCSHAPE
 10
1259.42932512601692
 20
-326.7358359700605206
 30
0.0
  0
VERTEX
  5
569
  8
CNCSHAPE
 10
1197.6293430110808913
 20
-326.7358359700605206
 30
0.0
  0
VERTEX
  5
56A
  8
CNCSHAPE
 10
1197.6293430110808913
 20
-313.9358394882698917
 30
0.0
  0
VERTEX
  5
56B
  8
CNCSHAPE
 10
1259.42932512601692
 20
-313.9358394882698917
 30
0.0
  0
SEQEND
  5
56C
  8
CNCSHAPE
  0
POLYLINE
  5
119
  8
CNCSHAPE
 66
     1
 10
0.0
 20
0.0
 30
0.0
 70
     1
  0
VERTEX
  5
56D
  8
CNCSHAPE
 10
1276.6293180886880236
 20
-399.2358069432423235
 30
0.0
  0
VERTEX
  5
56E
  8
CNCSHAPE
 10
1276.6293180886880236
 20
-357.4358154456575107
 30
0.0
  0
VERTEX
  5
56F
  8
CNCSHAPE
 10
1289.4293180891420434
 20
-357.4358154456575107
 30
0.0
  0
VERTEX
  5
570
  8
CNCSHAPE
 10
1289.4293180891420434
 20
-399.2358069432423235
 30
0.0
  0
SEQEND
  5
571
  8
CNCSHAPE
  0
POLYLINE
  5
11A
  8
CNCSHAPE
 66
     1
 10
0.0
 20
0.0
 30
0.0
 70
     1
  0
VERTEX
  5
572
  8
CNCSHAPE
 10
1276.6293180886880236
 20
-485.2357817281966277
 30
0.0
  0
VERTEX
  5
573
  8
CNCSHAPE
 10
1276.6293180886880236
 20
-443.4357902306117012
 30
0.0
  0
VERTEX
  5
574
  8
CNCSHAPE
 10
1289.4293180891420434
 20
-443.4357902306117012
 30
0.0
  0
VERTEX
  5
575
  8
CNCSHAPE
 10
1289.4293180891420434
 20
-485.2357817281966277
 30
0.0
  0
SEQEND
  5
576
  8
CNCSHAPE
  0
POLYLINE
  5
19E
  8
CNCSHAPE
 66
     1
 10
0.0
 20
0.0
 30
0.0
 70
     1
  0
VERTEX
  5
577
  8
CNCSHAPE
 10
1276.62931808869007
 20
-771.7689505503165037
 30
0.0
  0
VERTEX
  5
578
  8
CNCSHAPE
 10
1276.62931808869007
 20
-813.5689420479013734
 30
0.0
  0
VERTEX
  5
579
  8
CNCSHAPE
 10
1289.4293180891440898
 20
-813.5689420479013734
 30
0.0
  0
VERTEX
  5
57A
  8
CNCSHAPE
 10
1289.4293180891440898
 20
-771.7689505503165037
 30
0.0
  0
SEQEND
  5
57B
  8
CNCSHAPE
  0
POLYLINE
  5
19F
  8
CNCSHAPE
 66
     1
 10
0.0
 20
0.0
 30
0.0
 70
     1
  0
VERTEX
  5
57C
  8
CNCSHAPE
 10
1276.62931808869007
 20
-857.768925335270751
 30
0.0
  0
VERTEX
  5
57D
  8
CNCSHAPE
 10
1276.62931808869007
 20
-899.5689168328556207
 30
0.0
  0
VERTEX
  5
57E
  8
CNCSHAPE
 10
1289.4293180891440898
 20
-899.5689168328556207
 30
0.0
  0
VERTEX
  5
57F
  8
CNCSHAPE
 10
1289.4293180891440898
 20
-857.768925335270751
 30
0.0
  0
SEQEND
  5
580
  8
CNCSHAPE
  0
POLYLINE
  5
1A0
  8
CNCSHAPE
 66
     1
 10
0.0
 20
0.0
 30
0.0
 70
     1
  0
VERTEX
  5
581
  8
CNCSHAPE
 10
1577.6292298362600377
 20
-773.903142695396582
 30
0.0
  0
VERTEX
  5
582
  8
CNCSHAPE
 10
1577.6292298362600377
 20
-815.7031341929814516
 30
0.0
  0
VERTEX
  5
583
  8
CNCSHAPE
 10
1590.4292298362590827
 20
-815.7031341929814516
 30
0.0
  0
VERTEX
  5
584
  8
CNCSHAPE
 10
1590.4292298362590827
 20
-773.903142695396582
 30
0.0
  0
SEQEND
  5
585
  8
CNCSHAPE
  0
POLYLINE
  5
1A1
  8
CNCSHAPE
 66
     1
 10
0.0
 20
0.0
 30
0.0
 70
     1
  0
VERTEX
  5
586
  8
CNCSHAPE
 10
1577.6292298362600377
 20
-906.6347466835518389
 30
0.0
  0
VERTEX
  5
587
  8
CNCSHAPE
 10
1577.6292298362600377
 20
-948.4347381811367086
 30
0.0
  0
VERTEX
  5
588
  8
CNCSHAPE
 10
1590.4292298362590827
 20
-948.4347381811367086
 30
0.0
  0
VERTEX
  5
589
  8
CNCSHAPE
 10
1590.4292298362590827
 20
-906.6347466835518389
 30
0.0
  0
SEQEND
  5
58A
  8
CNCSHAPE
  0
POLYLINE
  5
1A2
  8
CNCSHAPE
 66
     1
 10
0.0
 20
0.0
 30
0.0
 70
     1
  0
VERTEX
  5
58B
  8
CNCSHAPE
 10
1923.6291283898599431
 20
-773.903142695396582
 30
0.0
  0
VERTEX
  5
58C
  8
CNCSHAPE
 10
1923.6291283898599431
 20
-815.7031341929814516
 30
0.0
  0
VERTEX
  5
58D
  8
CNCSHAPE
 10
1936.4291283898598977
 20
-815.7031341929814516
 30
0.0
  0
VERTEX
  5
58E
  8
CNCSHAPE
 10
1936.4291283898598977
 20
-773.903142695396582
 30
0.0
  0
SEQEND
  5
58F
  8
CNCSHAPE
  0
POLYLINE
  5
1A3
  8
CNCSHAPE
 66
     1
 10
0.0
 20
0.0
 30
0.0
 70
     1
  0
VERTEX
  5
590
  8
CNCSHAPE
 10
1923.6291283898599431
 20
-906.6347466835518389
 30
0.0
  0
VERTEX
  5
591
  8
CNCSHAPE
 10
1923.6291283898599431
 20
-948.4347381811367086
 30
0.0
  0
VERTEX
  5
592
  8
CNCSHAPE
 10
1936.4291283898598977
 20
-948.4347381811367086
 30
0.0
  0
VERTEX
  5
593
  8
CNCSHAPE
 10
1936.4291283898598977
 20
-906.6347466835518389
 30
0.0
  0
SEQEND
  5
594
  8
CNCSHAPE
  0
POLYLINE
  5
1A4
  8
CNCSHAPE
 66
     1
 10
0.0
 20
0.0
 30
0.0
 70
     1
  0
VERTEX
  5
595
  8
CNCSHAPE
 10
1895.9291385068700038
 20
-981.2688813558357879
 30
0.0
  0
VERTEX
  5
596
  8
CNCSHAPE
 10
1834.1291563923889498
 20
-981.2688813558357879
 30
0.0
  0
VERTEX
  5
597
  8
CNCSHAPE
 10
1834.1291563923889498
 20
-994.0688778376263599
 30
0.0
  0
VERTEX
  5
598
  8
CNCSHAPE
 10
1895.9291385068700038
 20
-994.0688778376263599
 30
0.0
  0
SEQEND
  5
599
  8
CNCSHAPE
  0
POLYLINE
  5
1A5
  8
CNCSHAPE
 66
     1
 10
0.0
 20
0.0
 30
0.0
 70
     1
  0
VERTEX
  5
59A
  8
CNCSHAPE
 10
1549.9292399532700983
 20
-981.2688813558357879
 30
0.0
  0
VERTEX
  5
59B
  8
CNCSHAPE
 10
1488.1292578383329328
 20
-981.2688813558357879
 30
0.0
  0
VERTEX
  5
59C
  8
CNCSHAPE
 10
1488.1292578383329328
 20
-994.0688778376263599
 30
0.0
  0
VERTEX
  5
59D
  8
CNCSHAPE
 10
1549.9292399532700983
 20
-994.0688778376263599
 30
0.0
  0
SEQEND
  5
59E
  8
CNCSHAPE
  0
POLYLINE
  5
1A6
  8
CNCSHAPE
 66
     1
 10
0.0
 20
0.0
 30
0.0
 70
     1
  0
VERTEX
  5
59F
  8
CNCSHAPE
 10
1259.4293251260189663
 20
-930.268896308452554
 30
0.0
  0
VERTEX
  5
5A0
  8
CNCSHAPE
 10
1197.6293430110820282
 20
-930.268896308452554
 30
0.0
  0
VERTEX
  5
5A1
  8
CNCSHAPE
 10
1197.6293430110820282
 20
-943.0688927902432397
 30
0.0
  0
VERTEX
  5
5A2
  8
CNCSHAPE
 10
1259.4293251260189663
 20
-943.0688927902432397
 30
0.0
  0
SEQEND
  5
5A3
  8
CNCSHAPE
  0
POLYLINE
  5
40A
  8
CNCSHAPE
 66
     1
 10
0.0
 20
0.0
 30
0.0
 70
     1
  0
VERTEX
  5
62C
  8
CNCSHAPE
 10
154.7306694807207919
 20
-87.7712889235063045
 30
0.0
  0
VERTEX
  5
62D
  8
CNCSHAPE
 10
154.7306694807207919
 20
-90.7712880441813752
 30
0.0
 42
-0.3750000000323421
  0
VERTEX
  5
62E
  8
CNCSHAPE
 10
154.7306694807207919
 20
-98.7712856984052507
 30
0.0
  0
VERTEX
  5
62F
  8
CNCSHAPE
 10
126.3740656687491963
 20
-98.7712856988599981
 30
0.0
 42
0.3235932642983383
  0
VERTEX
  5
630
  8
CNCSHAPE
 10
123.5253805403932006
 20
-100.830546937942799
 30
0.0
  0
VERTEX
  5
631
  8
CNCSHAPE
 10
99.2811381726077968
 20
-176.0293925295007966
 30
0.0
 42
0.0768832805561248
  0
VERTEX
  5
632
  8
CNCSHAPE
 10
98.7306859016079841
 20
-179.7712619489010137
 30
0.0
  0
VERTEX
  5
633
  8
CNCSHAPE
 10
98.7306859016079841
 20
-286.7712305763070049
 30
0.0
 42
0.4142135623730955
  0
VERTEX
  5
634
  8
CNCSHAPE
 10
101.7306850218282932
 20
-289.7712296974368087
 30
0.0
  0
VERTEX
  5
635
  8
CNCSHAPE
 10
134.7306753469800071
 20
-289.7712296974368087
 30
0.0
 42
-0.3750000000481488
  0
VERTEX
  5
636
  8
CNCSHAPE
 10
134.7306753469800071
 20
-297.7712273516607979
 30
0.0
  0
VERTEX
  5
637
  8
CNCSHAPE
 10
134.7306753469800071
 20
-300.7712264725632849
 30
0.0
  0
VERTEX
  5
638
  8
CNCSHAPE
 10
194.7306577545695063
 20
-300.7712264725632849
 30
0.0
  0
VERTEX
  5
639
  8
CNCSHAPE
 10
194.7306577545695063
 20
-296.7712276454512903
 30
0.0
 42
-0.1428571428955192
  0
VERTEX
  5
63A
  8
CNCSHAPE
 10
194.7306577545695063
 20
-289.7712296974368087
 30
0.0
  0
VERTEX
  5
63B
  8
CNCSHAPE
 10
212.3306524754364943
 20
-289.7712296974368087
 30
0.0
  0
VERTEX
  5
63C
  8
CNCSHAPE
 10
212.3306524754364943
 20
-261.9580938121836198
 30
0.0
  0
VERTEX
  5
63D
  8
CNCSHAPE
 10
212.3306524754364943
 20
-257.2712392259583112
 30
0.0
 42
-0.3061224416039137
  0
VERTEX
  5
63E
  8
CNCSHAPE
 10
222.1306498388260877
 20
-257.2712392259584249
 30
0.0
  0
VERTEX
  5
63F
  8
CNCSHAPE
 10
225.1306489585917063
 20
-257.2712392259584249
 30
0.0
  0
VERTEX
  5
640
  8
CNCSHAPE
 10
225.1306489585917063
 20
-217.2712509539288988
 30
0.0
  0
VERTEX
  5
641
  8
CNCSHAPE
 10
222.1306498388260877
 20
-217.2712509539288988
 30
0.0
 42
-0.3061224415743907
  0
VERTEX
  5
642
  8
CNCSHAPE
 10
212.3306524754364943
 20
-217.2712509548383082
 30
0.0
  0
VERTEX
  5
643
  8
CNCSHAPE
 10
212.3306524745269996
 20
-171.2712644407764913
 30
0.0
 42
-0.306122441603913
  0
VERTEX
  5
644
  8
CNCSHAPE
 10
222.130649837916593
 20
-171.2712644416860996
 30
0.0
  0
VERTEX
  5
645
  8
CNCSHAPE
 10
225.1306489576822116
 20
-171.2712644416860996
 30
0.0
  0
VERTEX
  5
646
  8
CNCSHAPE
 10
225.1306489576822116
 20
-131.2712761696566872
 30
0.0
  0
VERTEX
  5
647
  8
CNCSHAPE
 10
222.130649837916593
 20
-131.2712761696566872
 30
0.0
 42
-0.306122441603913
  0
VERTEX
  5
648
  8
CNCSHAPE
 10
212.3306524745269996
 20
-131.271276169656602
 30
0.0
  0
VERTEX
  5
649
  8
CNCSHAPE
 10
212.330652479983911
 20
-98.7712856979506171
 30
0.0
  0
VERTEX
  5
64A
  8
CNCSHAPE
 10
194.7306577518407096
 20
-98.7712856984053644
 30
0.0
 42
-0.3750000000323421
  0
VERTEX
  5
64B
  8
CNCSHAPE
 10
194.7306577527502043
 20
-90.7712880441813752
 30
0.0
  0
VERTEX
  5
64C
  8
CNCSHAPE
 10
194.7306577527502043
 20
-87.7712889235063045
 30
0.0
  0
SEQEND
  5
64D
  8
CNCSHAPE
  0
POLYLINE
  5
40B
  8
CNCSHAPE
 66
     1
 10
0.0
 20
0.0
 30
0.0
 70
     1
  0
VERTEX
  5
64E
  8
CNCSHAPE
 10
154.7306694807207919
 20
-352.4041623377415817
 30
0.0
  0
VERTEX
  5
64F
  8
CNCSHAPE
 10
154.7306694807207919
 20
-355.4041614584165814
 30
0.0
 42
-0.3750000000323421
  0
VERTEX
  5
650
  8
CNCSHAPE
 10
154.7306694807207919
 20
-363.4041591126405137
 30
0.0
  0
VERTEX
  5
651
  8
CNCSHAPE
 10
126.3740656687491963
 20
-363.4041591130952042
 30
0.0
 42
0.3235932642983383
  0
VERTEX
  5
652
  8
CNCSHAPE
 10
123.5253805403932006
 20
-365.4634203521781046
 30
0.0
  0
VERTEX
  5
653
  8
CNCSHAPE
 10
99.2811381726077968
 20
-440.662265943736088
 30
0.0
 42
0.0768832805561248
  0
VERTEX
  5
654
  8
CNCSHAPE
 10
98.7306859016079841
 20
-444.4041353631362767
 30
0.0
  0
VERTEX
  5
655
  8
CNCSHAPE
 10
98.7306859016079841
 20
-551.4041039905423531
 30
0.0
 42
0.4142135623730955
  0
VERTEX
  5
656
  8
CNCSHAPE
 10
101.7306850218282932
 20
-554.4041031116720433
 30
0.0
  0
VERTEX
  5
657
  8
CNCSHAPE
 10
134.7306753469800071
 20
-554.4041031116720433
 30
0.0
 42
-0.3750000000481488
  0
VERTEX
  5
658
  8
CNCSHAPE
 10
134.7306753469800071
 20
-562.4041007658961462
 30
0.0
  0
VERTEX
  5
659
  8
CNCSHAPE
 10
134.7306753469800071
 20
-565.4040998867984626
 30
0.0
  0
VERTEX
  5
65A
  8
CNCSHAPE
 10
194.7306577545695063
 20
-565.4040998867984626
 30
0.0
  0
VERTEX
  5
65B
  8
CNCSHAPE
 10
194.7306577545695063
 20
-561.404101059686468
 30
0.0
 42
-0.1428571428955192
  0
VERTEX
  5
65C
  8
CNCSHAPE
 10
194.7306577545695063
 20
-554.4041031116720433
 30
0.0
  0
VERTEX
  5
65D
  8
CNCSHAPE
 10
212.3306524754364943
 20
-554.4041031116720433
 30
0.0
  0
VERTEX
  5
65E
  8
CNCSHAPE
 10
212.3306524754364943
 20
-526.5909672264187975
 30
0.0
  0
VERTEX
  5
65F
  8
CNCSHAPE
 10
212.3306524754364943
 20
-521.9041126401934889
 30
0.0
 42
-0.3061224416039137
  0
VERTEX
  5
660
  8
CNCSHAPE
 10
222.1306498388260877
 20
-521.9041126401937163
 30
0.0
  0
VERTEX
  5
661
  8
CNCSHAPE
 10
225.1306489585917063
 20
-521.9041126401937163
 30
0.0
  0
VERTEX
  5
662
  8
CNCSHAPE
 10
225.1306489585917063
 20
-481.9041243681641049
 30
0.0
  0
VERTEX
  5
663
  8
CNCSHAPE
 10
222.1306498388260877
 20
-481.9041243681641049
 30
0.0
 42
-0.3061224415743907
  0
VERTEX
  5
664
  8
CNCSHAPE
 10
212.3306524754364943
 20
-481.9041243690734859
 30
0.0
  0
VERTEX
  5
665
  8
CNCSHAPE
 10
212.3306524745269996
 20
-435.9041378550116974
 30
0.0
 42
-0.306122441603913
  0
VERTEX
  5
666
  8
CNCSHAPE
 10
222.130649837916593
 20
-435.9041378559214195
 30
0.0
  0
VERTEX
  5
667
  8
CNCSHAPE
 10
225.1306489576822116
 20
-435.9041378559214195
 30
0.0
  0
VERTEX
  5
668
  8
CNCSHAPE
 10
225.1306489576822116
 20
-395.9041495838920923
 30
0.0
  0
VERTEX
  5
669
  8
CNCSHAPE
 10
222.130649837916593
 20
-395.9041495838920923
 30
0.0
 42
-0.306122441603913
  0
VERTEX
  5
66A
  8
CNCSHAPE
 10
212.3306524745269996
 20
-395.9041495838919218
 30
0.0
  0
VERTEX
  5
66B
  8
CNCSHAPE
 10
212.330652479983911
 20
-363.4041591121858801
 30
0.0
  0
VERTEX
  5
66C
  8
CNCSHAPE
 10
194.7306577518407096
 20
-363.4041591126406274
 30
0.0
 42
-0.3750000000323421
  0
VERTEX
  5
66D
  8
CNCSHAPE
 10
194.7306577527502043
 20
-355.4041614584165814
 30
0.0
  0
VERTEX
  5
66E
  8
CNCSHAPE
 10
194.7306577527502043
 20
-352.4041623377415817
 30
0.0
  0
SEQEND
  5
66F
  8
CNCSHAPE
  0
POLYLINE
  5
40C
  8
CNCSHAPE
 66
     1
 10
0.0
 20
0.0
 30
0.0
 70
     1
  0
VERTEX
  5
670
  8
CNCSHAPE
 10
154.7306694807207919
 20
-626.0662030324400575
 30
0.0
  0
VERTEX
  5
671
  8
CNCSHAPE
 10
154.7306694807207919
 20
-629.0662021531152277
 30
0.0
 42
-0.3750000000323421
  0
VERTEX
  5
672
  8
CNCSHAPE
 10
154.7306694807207919
 20
-637.0661998073391032
 30
0.0
  0
VERTEX
  5
673
  8
CNCSHAPE
 10
126.3740656687491963
 20
-637.0661998077938506
 30
0.0
 42
0.3235932642983383
  0
VERTEX
  5
674
  8
CNCSHAPE
 10
123.5253805403932006
 20
-639.1254610468766941
 30
0.0
  0
VERTEX
  5
675
  8
CNCSHAPE
 10
99.2811381726077968
 20
-714.3243066384345639
 30
0.0
 42
0.0768832805561248
  0
VERTEX
  5
676
  8
CNCSHAPE
 10
98.7306859016079841
 20
-718.0661760578349231
 30
0.0
  0
VERTEX
  5
677
  8
CNCSHAPE
 10
98.7306859016079841
 20
-825.0661446852410563
 30
0.0
 42
0.4142135623730955
  0
VERTEX
  5
678
  8
CNCSHAPE
 10
101.7306850218282932
 20
-828.0661438063707465
 30
0.0
  0
VERTEX
  5
679
  8
CNCSHAPE
 10
134.7306753469800071
 20
-828.0661438063707465
 30
0.0
 42
-0.3750000000481488
  0
VERTEX
  5
67A
  8
CNCSHAPE
 10
134.7306753469800071
 20
-836.0661414605948494
 30
0.0
  0
VERTEX
  5
67B
  8
CNCSHAPE
 10
134.7306753469800071
 20
-839.0661405814971658
 30
0.0
  0
VERTEX
  5
67C
  8
CNCSHAPE
 10
194.7306577545695063
 20
-839.0661405814971658
 30
0.0
  0
VERTEX
  5
67D
  8
CNCSHAPE
 10
194.7306577545695063
 20
-835.0661417543851712
 30
0.0
 42
-0.1428571428955192
  0
VERTEX
  5
67E
  8
CNCSHAPE
 10
194.7306577545695063
 20
-828.0661438063707465
 30
0.0
  0
VERTEX
  5
67F
  8
CNCSHAPE
 10
212.3306524754364943
 20
-828.0661438063707465
 30
0.0
  0
VERTEX
  5
680
  8
CNCSHAPE
 10
212.3306524754364943
 20
-800.253007921117387
 30
0.0
  0
VERTEX
  5
681
  8
CNCSHAPE
 10
212.3306524754364943
 20
-795.5661533348921921
 30
0.0
 42
-0.3061224416039137
  0
VERTEX
  5
682
  8
CNCSHAPE
 10
222.1306498388260877
 20
-795.5661533348923058
 30
0.0
  0
VERTEX
  5
683
  8
CNCSHAPE
 10
225.1306489585917063
 20
-795.5661533348923058
 30
0.0
  0
VERTEX
  5
684
  8
CNCSHAPE
 10
225.1306489585917063
 20
-755.5661650628627513
 30
0.0
  0
VERTEX
  5
685
  8
CNCSHAPE
 10
222.1306498388260877
 20
-755.5661650628627513
 30
0.0
 42
-0.3061224415743907
  0
VERTEX
  5
686
  8
CNCSHAPE
 10
212.3306524754364943
 20
-755.5661650637721323
 30
0.0
  0
VERTEX
  5
687
  8
CNCSHAPE
 10
212.3306524745269996
 20
-709.5661785497103438
 30
0.0
 42
-0.306122441603913
  0
VERTEX
  5
688
  8
CNCSHAPE
 10
222.130649837916593
 20
-709.5661785506200658
 30
0.0
  0
VERTEX
  5
689
  8
CNCSHAPE
 10
225.1306489576822116
 20
-709.5661785506200658
 30
0.0
  0
VERTEX
  5
68A
  8
CNCSHAPE
 10
225.1306489576822116
 20
-669.566190278590625
 30
0.0
  0
VERTEX
  5
68B
  8
CNCSHAPE
 10
222.130649837916593
 20
-669.566190278590625
 30
0.0
 42
-0.306122441603913
  0
VERTEX
  5
68C
  8
CNCSHAPE
 10
212.3306524745269996
 20
-669.5661902785905113
 30
0.0
  0
VERTEX
  5
68D
  8
CNCSHAPE
 10
212.330652479983911
 20
-637.0661998068843559
 30
0.0
  0
VERTEX
  5
68E
  8
CNCSHAPE
 10
194.7306577518407096
 20
-637.0661998073392169
 30
0.0
 42
-0.3750000000323421
  0
VERTEX
  5
68F
  8
CNCSHAPE
 10
194.7306577527502043
 20
-629.0662021531152277
 30
0.0
  0
VERTEX
  5
690
  8
CNCSHAPE
 10
194.7306577527502043
 20
-626.0662030324400575
 30
0.0
  0
SEQEND
  5
691
  8
CNCSHAPE
  0
POLYLINE
  5
40D
  8
CNCSHAPE
 66
     1
 10
0.0
 20
0.0
 30
0.0
 70
     1
  0
VERTEX
  5
692
  8
CNCSHAPE
 10
154.7306694807207919
 20
-897.1749597970318746
 30
0.0
  0
VERTEX
  5
693
  8
CNCSHAPE
 10
154.7306694807207919
 20
-900.1749589177070447
 30
0.0
 42
-0.3750000000323421
  0
VERTEX
  5
694
  8
CNCSHAPE
 10
154.7306694807207919
 20
-908.1749565719309203
 30
0.0
  0
VERTEX
  5
695
  8
CNCSHAPE
 10
126.3740656687491963
 20
-908.1749565723856676
 30
0.0
 42
0.3235932642983383
  0
VERTEX
  5
696
  8
CNCSHAPE
 10
123.5253805403932006
 20
-910.2342178114685112
 30
0.0
  0
VERTEX
  5
697
  8
CNCSHAPE
 10
99.2811381726077968
 20
-985.4330634030264946
 30
0.0
 42
0.0768832805561248
  0
VERTEX
  5
698
  8
CNCSHAPE
 10
98.7306859016079841
 20
-989.1749328224268538
 30
0.0
  0
VERTEX
  5
699
  8
CNCSHAPE
 10
98.7306859016079841
 20
-1096.1749014498320776
 30
0.0
 42
0.4142135623730955
  0
VERTEX
  5
69A
  8
CNCSHAPE
 10
101.7306850218282932
 20
-1099.1749005709621088
 30
0.0
  0
VERTEX
  5
69B
  8
CNCSHAPE
 10
134.7306753469800071
 20
-1099.1749005709621088
 30
0.0
 42
-0.3750000000481488
  0
VERTEX
  5
69C
  8
CNCSHAPE
 10
134.7306753469800071
 20
-1107.174898225186098
 30
0.0
  0
VERTEX
  5
69D
  8
CNCSHAPE
 10
134.7306753469800071
 20
-1110.1748973460889829
 30
0.0
  0
VERTEX
  5
69E
  8
CNCSHAPE
 10
194.7306577545695063
 20
-1110.1748973460889829
 30
0.0
  0
VERTEX
  5
69F
  8
CNCSHAPE
 10
194.7306577545695063
 20
-1106.1748985189769883
 30
0.0
 42
-0.1428571428955192
  0
VERTEX
  5
6A0
  8
CNCSHAPE
 10
194.7306577545695063
 20
-1099.1749005709621088
 30
0.0
  0
VERTEX
  5
6A1
  8
CNCSHAPE
 10
212.3306524754364943
 20
-1099.1749005709621088
 30
0.0
  0
VERTEX
  5
6A2
  8
CNCSHAPE
 10
212.3306524754364943
 20
-1071.3617646857089767
 30
0.0
  0
VERTEX
  5
6A3
  8
CNCSHAPE
 10
212.3306524754364943
 20
-1066.6749100994838955
 30
0.0
 42
-0.3061224416039137
  0
VERTEX
  5
6A4
  8
CNCSHAPE
 10
222.1306498388260877
 20
-1066.6749100994838955
 30
0.0
  0
VERTEX
  5
6A5
  8
CNCSHAPE
 10
225.1306489585917063
 20
-1066.6749100994838955
 30
0.0
  0
VERTEX
  5
6A6
  8
CNCSHAPE
 10
225.1306489585917063
 20
-1026.6749218274549094
 30
0.0
  0
VERTEX
  5
6A7
  8
CNCSHAPE
 10
222.1306498388260877
 20
-1026.6749218274549094
 30
0.0
 42
-0.3061224415743907
  0
VERTEX
  5
6A8
  8
CNCSHAPE
 10
212.3306524754364943
 20
-1026.6749218283639493
 30
0.0
  0
VERTEX
  5
6A9
  8
CNCSHAPE
 10
212.3306524745269996
 20
-980.6749353143021608
 30
0.0
 42
-0.306122441603913
  0
VERTEX
  5
6AA
  8
CNCSHAPE
 10
222.130649837916593
 20
-980.6749353152118829
 30
0.0
  0
VERTEX
  5
6AB
  8
CNCSHAPE
 10
225.1306489576822116
 20
-980.6749353152118829
 30
0.0
  0
VERTEX
  5
6AC
  8
CNCSHAPE
 10
225.1306489576822116
 20
-940.674947043182442
 30
0.0
  0
VERTEX
  5
6AD
  8
CNCSHAPE
 10
222.130649837916593
 20
-940.674947043182442
 30
0.0
 42
-0.306122441603913
  0
VERTEX
  5
6AE
  8
CNCSHAPE
 10
212.3306524745269996
 20
-940.6749470431822147
 30
0.0
  0
VERTEX
  5
6AF
  8
CNCSHAPE
 10
212.330652479983911
 20
-908.1749565714761729
 30
0.0
  0
VERTEX
  5
6B0
  8
CNCSHAPE
 10
194.7306577518407096
 20
-908.1749565719309203
 30
0.0
 42
-0.3750000000323421
  0
VERTEX
  5
6B1
  8
CNCSHAPE
 10
194.7306577527502043
 20
-900.1749589177070447
 30
0.0
  0
VERTEX
  5
6B2
  8
CNCSHAPE
 10
194.7306577527502043
 20
-897.1749597970318746
 30
0.0
  0
SEQEND
  5
6B3
  8
CNCSHAPE
  0
ENDSEC
  0
EOF
