  0
SECTION
  2
HEADER
  9
$ACADVER
  1
AC1009
  9
$EXTMIN
 10
1797.59925572
 20
-4504.72193223
 30
0.0
  9
$EXTMAX
 10
2890.22165572
 20
-4023.58243223
 30
0.0
  0
ENDSEC
  0
SECTION
  2
TABLES
  0
TABLE
  2
LAYER
 70
1
 0
LAYER
 2
Default Layer
 70
0
 62
1
 6
CONTINUOUS
 0
ENDTAB
 0
ENDSEC
  0
SECTION
  2
ENTITIES
  0
POLYLINE
  8
Default Layer
 66
   1
 39
0.000000
 70
    0
  0
VERTEX
  8
0
 10
1921.26229194
 20
-4039.18645275
  0
VERTEX
  8
0
 10
1921.37165572
 20
-4039.05843223
  0
VERTEX
  8
0
 10
1921.37165572
 20
-4039.18719758
  0
SEQEND
  0
POLYLINE
  8
Default Layer
 66
   1
 39
0.000000
 70
    0
  0
VERTEX
  8
0
 10
2878.88664935
 20
-4159.28181676
  0
VERTEX
  8
0
 10
2879.26995572
 20
-4159.61713223
  0
VERTEX
  8
0
 10
2879.07330945
 20
-4159.70032893
  0
SEQEND
  0
POLYLINE
  8
Default Layer
 66
   1
 39
0.000000
 70
    1
  0
VERTEX
  8
0
 10
2449.16426503
 20
-4074.46303223
  0
VERTEX
  8
0
 10
2451.54255572
 20
-4073.11653223
  0
VERTEX
  8
0
 10
2453.05065572
 20
-4070.71073223
  0
VERTEX
  8
0
 10
2455.04345572
 20
-4068.01773223
  0
VERTEX
  8
0
 10
2456.55155572
 20
-4063.09843223
  0
VERTEX
  8
0
 10
2457.00045572
 20
-4025.84463223
  0
VERTEX
  8
0
 10
2457.50315572
 20
-4025.84260863
  0
VERTEX
  8
0
 10
2459.31281876
 20
-4025.83532392
  0
VERTEX
  8
0
 10
2849.50285572
 20
-4024.26463223
  0
VERTEX
  8
0
 10
2860.23915572
 20
-4025.07263223
  0
VERTEX
  8
0
 10
2864.22485572
 20
-4025.07263223
  0
VERTEX
  8
0
 10
2869.66475572
 20
-4027.63993223
  0
VERTEX
  8
0
 10
2875.60745572
 20
-4031.03323223
  0
VERTEX
  8
0
 10
2879.01865572
 20
-4033.42103223
  0
VERTEX
  8
0
 10
2883.70455572
 20
-4038.86093223
  0
VERTEX
  8
0
 10
2887.43885572
 20
-4044.64203223
  0
VERTEX
  8
0
 10
2888.35455572
 20
-4049.22023223
  0
VERTEX
  8
0
 10
2889.41375572
 20
-4056.00673223
  0
VERTEX
  8
0
 10
2889.35995572
 20
-4060.58483223
  0
VERTEX
  8
0
 10
2890.22165572
 20
-4067.55093223
  0
VERTEX
  8
0
 10
2890.22165572
 20
-4467.16293223
  0
VERTEX
  8
0
 10
2889.62925572
 20
-4473.94943223
  0
VERTEX
  8
0
 10
2888.71355572
 20
-4480.91543223
  0
VERTEX
  8
0
 10
2887.56455572
 20
-4484.86523223
  0
VERTEX
  8
0
 10
2885.21265572
 20
-4489.44343223
  0
VERTEX
  8
0
 10
2882.82475572
 20
-4492.83663223
  0
VERTEX
  8
0
 10
2878.24665572
 20
-4497.41483223
  0
VERTEX
  8
0
 10
2873.93775572
 20
-4500.80803223
  0
VERTEX
  8
0
 10
2867.58215572
 20
-4503.16003223
  0
VERTEX
  8
0
 10
2864.18895572
 20
-4504.72193223
  0
VERTEX
  8
0
 10
2855.82255572
 20
-4504.72193223
  0
VERTEX
  8
0
 10
2849.03605572
 20
-4504.72193223
  0
VERTEX
  8
0
 10
2347.62685572
 20
-4504.57833223
  0
VERTEX
  8
0
 10
1846.21765572
 20
-4504.38083223
  0
VERTEX
  8
0
 10
1835.85845572
 20
-4504.38083223
  0
VERTEX
  8
0
 10
1828.37175572
 20
-4504.38083223
  0
VERTEX
  8
0
 10
1822.57275572
 20
-4503.32153223
  0
VERTEX
  8
0
 10
1817.65345572
 20
-4501.52623223
  0
VERTEX
  8
0
 10
1812.55465572
 20
-4499.01273223
  0
VERTEX
  8
0
 10
1808.76645572
 20
-4495.88873223
  0
VERTEX
  8
0
 10
1801.97995572
 20
-4486.22973223
  0
VERTEX
  8
0
 10
1799.71775572
 20
-4481.40013223
  0
VERTEX
  8
0
 10
1799.08945572
 20
-4476.96563223
  0
VERTEX
  8
0
 10
1798.20965572
 20
-4471.97453223
  0
VERTEX
  8
0
 10
1798.20965572
 20
-4468.56333223
  0
VERTEX
  8
0
 10
1797.59925572
 20
-4066.59933223
  0
VERTEX
  8
0
 10
1797.59925572
 20
-4061.21323223
  0
VERTEX
  8
0
 10
1797.59925572
 20
-4056.38373223
  0
VERTEX
  8
0
 10
1797.63515572
 20
-4052.34413223
  0
VERTEX
  8
0
 10
1800.04095572
 20
-4045.34223223
  0
VERTEX
  8
0
 10
1803.77525572
 20
-4038.12483223
  0
VERTEX
  8
0
 10
1809.34095572
 20
-4031.10503223
  0
VERTEX
  8
0
 10
1816.19925572
 20
-4026.50883223
  0
VERTEX
  8
0
 10
1821.85465572
 20
-4024.76733223
  0
VERTEX
  8
0
 10
1825.26585572
 20
-4024.35443223
  0
VERTEX
  8
0
 10
1830.77755572
 20
-4023.58243223
  0
VERTEX
  8
0
 10
2135.55855572
 20
-4023.58243223
  0
VERTEX
  8
0
 10
2135.55855572
 20
-4061.06963223
  0
VERTEX
  8
0
 10
2136.22275572
 20
-4064.46283223
  0
VERTEX
  8
0
 10
2138.62855572
 20
-4070.44143223
  0
VERTEX
  8
0
 10
2140.94465572
 20
-4072.63173223
  0
VERTEX
  8
0
 10
2144.39175572
 20
-4073.42173223
  0
VERTEX
  8
0
 10
2147.67842115
 20
-4074.46303223
  0
VERTEX
  8
0
 10
2449.16426503
 20
-4074.46303223
  0
SEQEND
  0
POLYLINE
  8
Default Layer
 66
   1
 39
0.000000
 70
    0
  0
VERTEX
  8
0
 10
2877.94110743
 20
-4158.45465901
  0
VERTEX
  8
0
 10
2878.88664935
 20
-4159.28181676
  0
SEQEND
  0
POLYLINE
  8
Default Layer
 66
   1
 39
0.000000
 70
    1
  0
VERTEX
  8
0
 10
2307.28505572
 20
-4209.22303223
  0
VERTEX
  8
0
 10
2374.03665572
 20
-4209.54623223
  0
VERTEX
  8
0
 10
2374.03665572
 20
-4275.02313223
  0
VERTEX
  8
0
 10
2307.28505572
 20
-4275.02313223
  0
VERTEX
  8
0
 10
2307.28505572
 20
-4209.22303223
  0
SEQEND
  0
POLYLINE
  8
Default Layer
 66
   1
 39
0.000000
 70
    1
  0
VERTEX
  8
0
 10
1814.43979932
 20
-4361.12873223
  0
VERTEX
  8
0
 10
1814.40390565
 20
-4360.95195114
  0
VERTEX
  8
0
 10
1814.35286648
 20
-4360.78120441
  0
VERTEX
  8
0
 10
1814.28742446
 20
-4360.61723313
  0
VERTEX
  8
0
 10
1814.20832224
 20
-4360.46077837
  0
VERTEX
  8
0
 10
1814.11630247
 20
-4360.31258124
  0
VERTEX
  8
0
 10
1814.01210780
 20
-4360.17338280
  0
VERTEX
  8
0
 10
1813.77016437
 20
-4359.92494636
  0
VERTEX
  8
0
 10
1813.63390090
 20
-4359.81719053
  0
VERTEX
  8
0
 10
1813.48843314
 20
-4359.72139773
  0
VERTEX
  8
0
 10
1813.33450374
 20
-4359.63830906
  0
VERTEX
  8
0
 10
1813.17285533
 20
-4359.56866559
  0
VERTEX
  8
0
 10
1813.00423058
 20
-4359.51320841
  0
VERTEX
  8
0
 10
1812.82937214
 20
-4359.47267861
  0
VERTEX
  8
0
 10
1812.64902265
 20
-4359.44781727
  0
VERTEX
  8
0
 10
1812.46392477
 20
-4359.43936547
  0
VERTEX
  8
0
 10
1812.26067163
 20
-4359.44956612
  0
VERTEX
  8
0
 10
1812.06325163
 20
-4359.47950955
  0
VERTEX
  8
0
 10
1811.87265601
 20
-4359.52820799
  0
VERTEX
  8
0
 10
1811.68987603
 20
-4359.59467364
  0
VERTEX
  8
0
 10
1811.51590294
 20
-4359.67791875
  0
VERTEX
  8
0
 10
1811.35172800
 20
-4359.77695551
  0
VERTEX
  8
0
 10
1811.19834245
 20
-4359.89079616
  0
VERTEX
  8
0
 10
1811.05673755
 20
-4360.01845291
  0
VERTEX
  8
0
 10
1810.92610822
 20
-4360.16083391
  0
VERTEX
  8
0
 10
1810.80959428
 20
-4360.31532386
  0
VERTEX
  8
0
 10
1810.70821342
 20
-4360.48090159
  0
VERTEX
  8
0
 10
1810.62298336
 20
-4360.65654590
  0
VERTEX
  8
0
 10
1810.55492176
 20
-4360.84123562
  0
VERTEX
  8
0
 10
1810.50504634
 20
-4361.03394958
  0
VERTEX
  8
0
 10
1810.47437477
 20
-4361.23366659
  0
VERTEX
  8
0
 10
1810.46392477
 20
-4361.43936547
  0
VERTEX
  8
0
 10
1810.47425054
 20
-4361.64385385
  0
VERTEX
  8
0
 10
1810.50455766
 20
-4361.84243523
  0
VERTEX
  8
0
 10
1810.55384081
 20
-4362.03410429
  0
VERTEX
  8
0
 10
1810.62109468
 20
-4362.21785572
  0
VERTEX
  8
0
 10
1810.70531397
 20
-4362.39268423
  0
VERTEX
  8
0
 10
1810.80549336
 20
-4362.55758448
  0
VERTEX
  8
0
 10
1810.92062754
 20
-4362.71155119
  0
VERTEX
  8
0
 10
1811.04971120
 20
-4362.85357903
  0
VERTEX
  8
0
 10
1811.19173904
 20
-4362.98266269
  0
VERTEX
  8
0
 10
1811.34570575
 20
-4363.09779688
  0
VERTEX
  8
0
 10
1811.51060601
 20
-4363.19797627
  0
VERTEX
  8
0
 10
1811.68543451
 20
-4363.28219555
  0
VERTEX
  8
0
 10
1811.86918595
 20
-4363.34944943
  0
VERTEX
  8
0
 10
1812.06085501
 20
-4363.39873257
  0
VERTEX
  8
0
 10
1812.25943638
 20
-4363.42903969
  0
VERTEX
  8
0
 10
1812.46392477
 20
-4363.43936547
  0
VERTEX
  8
0
 10
1812.66841315
 20
-4363.42903969
  0
VERTEX
  8
0
 10
1812.86699453
 20
-4363.39873257
  0
VERTEX
  8
0
 10
1813.05866359
 20
-4363.34944943
  0
VERTEX
  8
0
 10
1813.24241502
 20
-4363.28219555
  0
VERTEX
  8
0
 10
1813.41724353
 20
-4363.19797627
  0
VERTEX
  8
0
 10
1813.58214378
 20
-4363.09779688
  0
VERTEX
  8
0
 10
1813.73611049
 20
-4362.98266269
  0
VERTEX
  8
0
 10
1813.87813833
 20
-4362.85357903
  0
VERTEX
  8
0
 10
1814.00722200
 20
-4362.71155119
  0
VERTEX
  8
0
 10
1814.12235618
 20
-4362.55758448
  0
VERTEX
  8
0
 10
1814.22253557
 20
-4362.39268423
  0
VERTEX
  8
0
 10
1814.30675485
 20
-4362.21785572
  0
VERTEX
  8
0
 10
1814.37400873
 20
-4362.03410429
  0
VERTEX
  8
0
 10
1814.42329187
 20
-4361.84243523
  0
VERTEX
  8
0
 10
1814.45359899
 20
-4361.64385385
  0
VERTEX
  8
0
 10
1814.46392477
 20
-4361.43936547
  0
VERTEX
  8
0
 10
1814.43979932
 20
-4361.12873223
  0
SEQEND
  0
POLYLINE
  8
Default Layer
 66
   1
 39
0.000000
 70
    1
  0
VERTEX
  8
0
 10
2746.34125572
 20
-4039.16752514
  0
VERTEX
  8
0
 10
2746.11028885
 20
-4039.12555156
  0
VERTEX
  8
0
 10
2745.87046679
 20
-4039.11126276
  0
VERTEX
  8
0
 10
2745.66597840
 20
-4039.12158853
  0
VERTEX
  8
0
 10
2745.46739703
 20
-4039.15189565
  0
VERTEX
  8
0
 10
2745.27572796
 20
-4039.20117880
  0
VERTEX
  8
0
 10
2745.09197653
 20
-4039.26843267
  0
VERTEX
  8
0
 10
2744.91714802
 20
-4039.35265196
  0
VERTEX
  8
0
 10
2744.75224777
 20
-4039.45283134
  0
VERTEX
  8
0
 10
2744.59828106
 20
-4039.56796553
  0
VERTEX
  8
0
 10
2744.45625322
 20
-4039.69704919
  0
VERTEX
  8
0
 10
2744.32716956
 20
-4039.83907703
  0
VERTEX
  8
0
 10
2744.21203537
 20
-4039.99304374
  0
VERTEX
  8
0
 10
2744.11185599
 20
-4040.15794400
  0
VERTEX
  8
0
 10
2744.02763670
 20
-4040.33277250
  0
VERTEX
  8
0
 10
2743.96038283
 20
-4040.51652394
  0
VERTEX
  8
0
 10
2743.91109968
 20
-4040.70819300
  0
VERTEX
  8
0
 10
2743.88079256
 20
-4040.90677437
  0
VERTEX
  8
0
 10
2743.87046679
 20
-4041.11126276
  0
VERTEX
  8
0
 10
2743.88079256
 20
-4041.31575114
  0
VERTEX
  8
0
 10
2743.91109968
 20
-4041.51433251
  0
VERTEX
  8
0
 10
2743.96038283
 20
-4041.70600158
  0
VERTEX
  8
0
 10
2744.02763670
 20
-4041.88975301
  0
VERTEX
  8
0
 10
2744.11185599
 20
-4042.06458152
  0
VERTEX
  8
0
 10
2744.21203537
 20
-4042.22948177
  0
VERTEX
  8
0
 10
2744.32716956
 20
-4042.38344848
  0
VERTEX
  8
0
 10
2744.45625322
 20
-4042.52547632
  0
VERTEX
  8
0
 10
2744.59828106
 20
-4042.65455998
  0
VERTEX
  8
0
 10
2744.75224777
 20
-4042.76969417
  0
VERTEX
  8
0
 10
2744.91714802
 20
-4042.86987356
  0
VERTEX
  8
0
 10
2745.09197653
 20
-4042.95409284
  0
VERTEX
  8
0
 10
2745.27572796
 20
-4043.02134671
  0
VERTEX
  8
0
 10
2745.46739703
 20
-4043.07062986
  0
VERTEX
  8
0
 10
2745.66597840
 20
-4043.10093698
  0
VERTEX
  8
0
 10
2745.87046679
 20
-4043.11126276
  0
VERTEX
  8
0
 10
2746.11021568
 20
-4043.09697987
  0
VERTEX
  8
0
 10
2746.34125572
 20
-4043.05500037
  0
VERTEX
  8
0
 10
2746.65895639
 20
-4042.94939773
  0
VERTEX
  8
0
 10
2746.95046948
 20
-4042.79455569
  0
VERTEX
  8
0
 10
2747.21081029
 20
-4042.59547044
  0
VERTEX
  8
0
 10
2747.43499417
 20
-4042.35713818
  0
VERTEX
  8
0
 10
2747.61803643
 20
-4042.08455509
  0
VERTEX
  8
0
 10
2747.75495240
 20
-4041.78271737
  0
VERTEX
  8
0
 10
2747.84075741
 20
-4041.45662119
  0
VERTEX
  8
0
 10
2747.86293559
 20
-4041.28603749
  0
VERTEX
  8
0
 10
2747.87046679
 20
-4041.11126276
  0
VERTEX
  8
0
 10
2747.86293459
 20
-4040.93647588
  0
VERTEX
  8
0
 10
2747.84075365
 20
-4040.76588073
  0
VERTEX
  8
0
 10
2747.75493951
 20
-4040.43976456
  0
VERTEX
  8
0
 10
2747.61801226
 20
-4040.13791199
  0
VERTEX
  8
0
 10
2747.43495980
 20
-4039.86532080
  0
VERTEX
  8
0
 10
2747.21077001
 20
-4039.62698875
  0
VERTEX
  8
0
 10
2746.95043081
 20
-4039.42791362
  0
VERTEX
  8
0
 10
2746.65893008
 20
-4039.27309316
  0
VERTEX
  8
0
 10
2746.34125572
 20
-4039.16752514
  0
SEQEND
  0
POLYLINE
  8
Default Layer
 66
   1
 39
0.000000
 70
    1
  0
VERTEX
  8
0
 10
2878.88664935
 20
-4159.28181676
  0
VERTEX
  8
0
 10
2878.99183081
 20
-4159.48467822
  0
VERTEX
  8
0
 10
2879.07330945
 20
-4159.70032893
  0
VERTEX
  8
0
 10
2879.14095482
 20
-4159.99187401
  0
VERTEX
  8
0
 10
2879.16426457
 20
-4160.29813865
  0
VERTEX
  8
0
 10
2879.15393880
 20
-4160.50262703
  0
VERTEX
  8
0
 10
2879.12363168
 20
-4160.70120841
  0
VERTEX
  8
0
 10
2879.07434853
 20
-4160.89287747
  0
VERTEX
  8
0
 10
2879.00709466
 20
-4161.07662891
  0
VERTEX
  8
0
 10
2878.92287537
 20
-4161.25145741
  0
VERTEX
  8
0
 10
2878.82269598
 20
-4161.41635767
  0
VERTEX
  8
0
 10
2878.70756180
 20
-4161.57032437
  0
VERTEX
  8
0
 10
2878.57847813
 20
-4161.71235221
  0
VERTEX
  8
0
 10
2878.43645029
 20
-4161.84143588
  0
VERTEX
  8
0
 10
2878.28248359
 20
-4161.95657006
  0
VERTEX
  8
0
 10
2878.11758333
 20
-4162.05674945
  0
VERTEX
  8
0
 10
2877.94275483
 20
-4162.14096873
  0
VERTEX
  8
0
 10
2877.75900339
 20
-4162.20822261
  0
VERTEX
  8
0
 10
2877.56733433
 20
-4162.25750576
  0
VERTEX
  8
0
 10
2877.36875295
 20
-4162.28781287
  0
VERTEX
  8
0
 10
2877.16426457
 20
-4162.29813865
  0
VERTEX
  8
0
 10
2876.91554618
 20
-4162.28282240
  0
VERTEX
  8
0
 10
2876.67594776
 20
-4162.23808176
  0
VERTEX
  8
0
 10
2876.44729356
 20
-4162.16572884
  0
VERTEX
  8
0
 10
2876.23140787
 20
-4162.06757578
  0
VERTEX
  8
0
 10
2876.03011497
 20
-4161.94543471
  0
VERTEX
  8
0
 10
2875.84523912
 20
-4161.80111776
  0
VERTEX
  8
0
 10
2875.67860460
 20
-4161.63643707
  0
VERTEX
  8
0
 10
2875.53203568
 20
-4161.45320476
  0
VERTEX
  8
0
 10
2875.37675511
 20
-4161.19564788
  0
VERTEX
  8
0
 10
2875.26120227
 20
-4160.91474096
  0
VERTEX
  8
0
 10
2875.18912336
 20
-4160.61429942
  0
VERTEX
  8
0
 10
2875.16426457
 20
-4160.29813865
  0
VERTEX
  8
0
 10
2875.17459034
 20
-4160.09365027
  0
VERTEX
  8
0
 10
2875.20489746
 20
-4159.89506889
  0
VERTEX
  8
0
 10
2875.25418061
 20
-4159.70339983
  0
VERTEX
  8
0
 10
2875.32143448
 20
-4159.51964839
  0
VERTEX
  8
0
 10
2875.40565377
 20
-4159.34481989
  0
VERTEX
  8
0
 10
2875.50583316
 20
-4159.17991963
  0
VERTEX
  8
0
 10
2875.62096734
 20
-4159.02595293
  0
VERTEX
  8
0
 10
2875.75005101
 20
-4158.88392509
  0
VERTEX
  8
0
 10
2875.89207885
 20
-4158.75484142
  0
VERTEX
  8
0
 10
2876.04604555
 20
-4158.63970724
  0
VERTEX
  8
0
 10
2876.21094581
 20
-4158.53952785
  0
VERTEX
  8
0
 10
2876.38577431
 20
-4158.45530856
  0
VERTEX
  8
0
 10
2876.56952575
 20
-4158.38805469
  0
VERTEX
  8
0
 10
2876.76119481
 20
-4158.33877154
  0
VERTEX
  8
0
 10
2876.95977619
 20
-4158.30846442
  0
VERTEX
  8
0
 10
2877.16426457
 20
-4158.29813865
  0
VERTEX
  8
0
 10
2877.36796524
 20
-4158.30839144
  0
VERTEX
  8
0
 10
2877.56592490
 20
-4158.33852279
  0
VERTEX
  8
0
 10
2877.75726511
 20
-4158.38759216
  0
VERTEX
  8
0
 10
2877.94110743
 20
-4158.45465901
  0
VERTEX
  8
0
 10
2878.22583211
 20
-4158.60282617
  0
VERTEX
  8
0
 10
2878.48142786
 20
-4158.79313922
  0
VERTEX
  8
0
 10
2878.70324888
 20
-4159.02100160
  0
VERTEX
  8
0
 10
2878.88664935
 20
-4159.28181676
  0
SEQEND
  0
POLYLINE
  8
Default Layer
 66
   1
 39
0.000000
 70
    1
  0
VERTEX
  8
0
 10
1814.04660083
 20
-4164.69244581
  0
VERTEX
  8
0
 10
1814.04679595
 20
-4164.68472923
  0
VERTEX
  8
0
 10
1814.03647017
 20
-4164.48024085
  0
VERTEX
  8
0
 10
1814.00616305
 20
-4164.28165947
  0
VERTEX
  8
0
 10
1813.95687990
 20
-4164.08999041
  0
VERTEX
  8
0
 10
1813.88962603
 20
-4163.90623897
  0
VERTEX
  8
0
 10
1813.80540675
 20
-4163.73141047
  0
VERTEX
  8
0
 10
1813.70522736
 20
-4163.56651021
  0
VERTEX
  8
0
 10
1813.59009317
 20
-4163.41254351
  0
VERTEX
  8
0
 10
1813.46100951
 20
-4163.27051567
  0
VERTEX
  8
0
 10
1813.31898167
 20
-4163.14143200
  0
VERTEX
  8
0
 10
1813.16501496
 20
-4163.02629782
  0
VERTEX
  8
0
 10
1813.00011471
 20
-4162.92611843
  0
VERTEX
  8
0
 10
1812.82528620
 20
-4162.84189915
  0
VERTEX
  8
0
 10
1812.64153477
 20
-4162.77464527
  0
VERTEX
  8
0
 10
1812.44986570
 20
-4162.72536212
  0
VERTEX
  8
0
 10
1812.25128433
 20
-4162.69505501
  0
VERTEX
  8
0
 10
1812.04679595
 20
-4162.68472923
  0
VERTEX
  8
0
 10
1811.84230756
 20
-4162.69505501
  0
VERTEX
  8
0
 10
1811.64372619
 20
-4162.72536212
  0
VERTEX
  8
0
 10
1811.45205713
 20
-4162.77464527
  0
VERTEX
  8
0
 10
1811.26830569
 20
-4162.84189915
  0
VERTEX
  8
0
 10
1811.09347719
 20
-4162.92611843
  0
VERTEX
  8
0
 10
1810.92857693
 20
-4163.02629782
  0
VERTEX
  8
0
 10
1810.77461022
 20
-4163.14143200
  0
VERTEX
  8
0
 10
1810.63258238
 20
-4163.27051567
  0
VERTEX
  8
0
 10
1810.50349872
 20
-4163.41254351
  0
VERTEX
  8
0
 10
1810.38836453
 20
-4163.56651021
  0
VERTEX
  8
0
 10
1810.28818515
 20
-4163.73141047
  0
VERTEX
  8
0
 10
1810.20396586
 20
-4163.90623897
  0
VERTEX
  8
0
 10
1810.13671199
 20
-4164.08999041
  0
VERTEX
  8
0
 10
1810.08742884
 20
-4164.28165947
  0
VERTEX
  8
0
 10
1810.05712172
 20
-4164.48024085
  0
VERTEX
  8
0
 10
1810.04679595
 20
-4164.68472923
  0
VERTEX
  8
0
 10
1810.05350328
 20
-4164.84163223
  0
VERTEX
  8
0
 10
1810.07747628
 20
-4165.03232771
  0
VERTEX
  8
0
 10
1810.11891550
 20
-4165.21699972
  0
VERTEX
  8
0
 10
1810.17695268
 20
-4165.39478181
  0
VERTEX
  8
0
 10
1810.25071958
 20
-4165.56480752
  0
VERTEX
  8
0
 10
1810.33934794
 20
-4165.72621040
  0
VERTEX
  8
0
 10
1810.44196950
 20
-4165.87812400
  0
VERTEX
  8
0
 10
1810.55771602
 20
-4166.01968185
  0
VERTEX
  8
0
 10
1810.68571924
 20
-4166.15001752
  0
VERTEX
  8
0
 10
1810.82511092
 20
-4166.26826453
  0
VERTEX
  8
0
 10
1810.97502278
 20
-4166.37355644
  0
VERTEX
  8
0
 10
1811.13458659
 20
-4166.46502678
  0
VERTEX
  8
0
 10
1811.30293410
 20
-4166.54180912
  0
VERTEX
  8
0
 10
1811.47919703
 20
-4166.60303699
  0
VERTEX
  8
0
 10
1811.66250716
 20
-4166.64784393
  0
VERTEX
  8
0
 10
1811.85199621
 20
-4166.67536350
  0
VERTEX
  8
0
 10
1812.04679595
 20
-4166.68472923
  0
VERTEX
  8
0
 10
1812.25128428
 20
-4166.67440534
  0
VERTEX
  8
0
 10
1812.44986532
 20
-4166.64411141
  0
VERTEX
  8
0
 10
1812.64153348
 20
-4166.59486406
  0
VERTEX
  8
0
 10
1812.82528315
 20
-4166.52767989
  0
VERTEX
  8
0
 10
1813.00010875
 20
-4166.44357552
  0
VERTEX
  8
0
 10
1813.16500467
 20
-4166.34356757
  0
VERTEX
  8
0
 10
1813.31896533
 20
-4166.22867265
  0
VERTEX
  8
0
 10
1813.46098512
 20
-4166.09990737
  0
VERTEX
  8
0
 10
1813.59005845
 20
-4165.95828834
  0
VERTEX
  8
0
 10
1813.70517972
 20
-4165.80483218
  0
VERTEX
  8
0
 10
1813.80534334
 20
-4165.64055550
  0
VERTEX
  8
0
 10
1813.88954372
 20
-4165.46647492
  0
VERTEX
  8
0
 10
1813.95677525
 20
-4165.28360705
  0
VERTEX
  8
0
 10
1814.00603234
 20
-4165.09296849
  0
VERTEX
  8
0
 10
1814.03630940
 20
-4164.89557588
  0
VERTEX
  8
0
 10
1814.04660083
 20
-4164.69244581
  0
SEQEND
  0
POLYLINE
  8
Default Layer
 66
   1
 39
0.000000
 70
    1
  0
VERTEX
  8
0
 10
2874.71462504
 20
-4363.29578004
  0
VERTEX
  8
0
 10
2875.01695883
 20
-4363.18171461
  0
VERTEX
  8
0
 10
2875.29363638
 20
-4363.02252448
  0
VERTEX
  8
0
 10
2875.54014076
 20
-4362.82274502
  0
VERTEX
  8
0
 10
2875.75195504
 20
-4362.58691158
  0
VERTEX
  8
0
 10
2875.92456228
 20
-4362.31955949
  0
VERTEX
  8
0
 10
2876.05344556
 20
-4362.02522412
  0
VERTEX
  8
0
 10
2876.13408794
 20
-4361.70844082
  0
VERTEX
  8
0
 10
2876.16197250
 20
-4361.37374492
  0
VERTEX
  8
0
 10
2876.15164672
 20
-4361.16925654
  0
VERTEX
  8
0
 10
2876.12133961
 20
-4360.97067517
  0
VERTEX
  8
0
 10
2876.07205646
 20
-4360.77900610
  0
VERTEX
  8
0
 10
2876.00480259
 20
-4360.59525467
  0
VERTEX
  8
0
 10
2875.92058330
 20
-4360.42042616
  0
VERTEX
  8
0
 10
2875.82040391
 20
-4360.25552591
  0
VERTEX
  8
0
 10
2875.70526973
 20
-4360.10155920
  0
VERTEX
  8
0
 10
2875.57618606
 20
-4359.95953136
  0
VERTEX
  8
0
 10
2875.43415822
 20
-4359.83044770
  0
VERTEX
  8
0
 10
2875.28019152
 20
-4359.71531351
  0
VERTEX
  8
0
 10
2875.11529126
 20
-4359.61513412
  0
VERTEX
  8
0
 10
2874.94046276
 20
-4359.53091484
  0
VERTEX
  8
0
 10
2874.75671132
 20
-4359.46366097
  0
VERTEX
  8
0
 10
2874.56504226
 20
-4359.41437782
  0
VERTEX
  8
0
 10
2874.36646088
 20
-4359.38407070
  0
VERTEX
  8
0
 10
2874.16197250
 20
-4359.37374492
  0
VERTEX
  8
0
 10
2873.95345198
 20
-4359.38448502
  0
VERTEX
  8
0
 10
2873.75110237
 20
-4359.41599669
  0
VERTEX
  8
0
 10
2873.55599487
 20
-4359.46721697
  0
VERTEX
  8
0
 10
2873.36920067
 20
-4359.53708292
  0
VERTEX
  8
0
 10
2873.19179096
 20
-4359.62453160
  0
VERTEX
  8
0
 10
2873.02483694
 20
-4359.72850005
  0
VERTEX
  8
0
 10
2872.86940979
 20
-4359.84792533
  0
VERTEX
  8
0
 10
2872.72658071
 20
-4359.98174449
  0
VERTEX
  8
0
 10
2872.60194236
 20
-4360.12264150
  0
VERTEX
  8
0
 10
2872.49086670
 20
-4360.27489669
  0
VERTEX
  8
0
 10
2872.39429559
 20
-4360.43755998
  0
VERTEX
  8
0
 10
2872.31317085
 20
-4360.60968129
  0
VERTEX
  8
0
 10
2872.24843433
 20
-4360.79031052
  0
VERTEX
  8
0
 10
2872.20102787
 20
-4360.97849759
  0
VERTEX
  8
0
 10
2872.17189332
 20
-4361.17329242
  0
VERTEX
  8
0
 10
2872.16197250
 20
-4361.37374492
  0
VERTEX
  8
0
 10
2872.17229827
 20
-4361.57823331
  0
VERTEX
  8
0
 10
2872.20260539
 20
-4361.77681468
  0
VERTEX
  8
0
 10
2872.25188854
 20
-4361.96848374
  0
VERTEX
  8
0
 10
2872.31914241
 20
-4362.15223518
  0
VERTEX
  8
0
 10
2872.40336170
 20
-4362.32706368
  0
VERTEX
  8
0
 10
2872.50354109
 20
-4362.49196394
  0
VERTEX
  8
0
 10
2872.61867527
 20
-4362.64593065
  0
VERTEX
  8
0
 10
2872.74775894
 20
-4362.78795849
  0
VERTEX
  8
0
 10
2872.88978678
 20
-4362.91704215
  0
VERTEX
  8
0
 10
2873.04375348
 20
-4363.03217634
  0
VERTEX
  8
0
 10
2873.20865374
 20
-4363.13235572
  0
VERTEX
  8
0
 10
2873.38348224
 20
-4363.21657501
  0
VERTEX
  8
0
 10
2873.56723368
 20
-4363.28382888
  0
VERTEX
  8
0
 10
2873.75890274
 20
-4363.33311203
  0
VERTEX
  8
0
 10
2873.95748412
 20
-4363.36341915
  0
VERTEX
  8
0
 10
2874.16197250
 20
-4363.37374492
  0
VERTEX
  8
0
 10
2874.44450044
 20
-4363.35387134
  0
VERTEX
  8
0
 10
2874.71462504
 20
-4363.29578004
  0
SEQEND
  0
POLYLINE
  8
Default Layer
 66
   1
 39
0.000000
 70
    1
  0
VERTEX
  8
0
 10
2760.80307656
 20
-4485.67323379
  0
VERTEX
  8
0
 10
2760.53533364
 20
-4485.49917429
  0
VERTEX
  8
0
 10
2760.24008279
 20
-4485.36915451
  0
VERTEX
  8
0
 10
2759.92199096
 20
-4485.28777148
  0
VERTEX
  8
0
 10
2759.58572508
 20
-4485.25962224
  0
VERTEX
  8
0
 10
2759.38123670
 20
-4485.26994802
  0
VERTEX
  8
0
 10
2759.18265533
 20
-4485.30025513
  0
VERTEX
  8
0
 10
2758.99098626
 20
-4485.34953828
  0
VERTEX
  8
0
 10
2758.80723483
 20
-4485.41679216
  0
VERTEX
  8
0
 10
2758.63240632
 20
-4485.50101144
  0
VERTEX
  8
0
 10
2758.46750607
 20
-4485.60119083
  0
VERTEX
  8
0
 10
2758.31353936
 20
-4485.71632501
  0
VERTEX
  8
0
 10
2758.17151152
 20
-4485.84540868
  0
VERTEX
  8
0
 10
2758.04242786
 20
-4485.98743652
  0
VERTEX
  8
0
 10
2757.92729367
 20
-4486.14140322
  0
VERTEX
  8
0
 10
2757.82711428
 20
-4486.30630348
  0
VERTEX
  8
0
 10
2757.74289500
 20
-4486.48113198
  0
VERTEX
  8
0
 10
2757.67564113
 20
-4486.66488342
  0
VERTEX
  8
0
 10
2757.62635798
 20
-4486.85655248
  0
VERTEX
  8
0
 10
2757.59605086
 20
-4487.05513386
  0
VERTEX
  8
0
 10
2757.58572508
 20
-4487.25962224
  0
VERTEX
  8
0
 10
2757.60426458
 20
-4487.53307358
  0
VERTEX
  8
0
 10
2757.65826020
 20
-4487.79523098
  0
VERTEX
  8
0
 10
2757.74527759
 20
-4488.04365033
  0
VERTEX
  8
0
 10
2757.86288242
 20
-4488.27588749
  0
VERTEX
  8
0
 10
2758.00864037
 20
-4488.48949831
  0
VERTEX
  8
0
 10
2758.18011709
 20
-4488.68203866
  0
VERTEX
  8
0
 10
2758.37487826
 20
-4488.85106440
  0
VERTEX
  8
0
 10
2758.59048954
 20
-4488.99413141
  0
VERTEX
  8
0
 10
2758.81871440
 20
-4489.10697739
  0
VERTEX
  8
0
 10
2759.06217200
 20
-4489.19031064
  0
VERTEX
  8
0
 10
2759.31859725
 20
-4489.24192698
  0
VERTEX
  8
0
 10
2759.58572508
 20
-4489.25962224
  0
VERTEX
  8
0
 10
2759.79021347
 20
-4489.24929647
  0
VERTEX
  8
0
 10
2759.98879484
 20
-4489.21898935
  0
VERTEX
  8
0
 10
2760.18046390
 20
-4489.16970620
  0
VERTEX
  8
0
 10
2760.36421534
 20
-4489.10245233
  0
VERTEX
  8
0
 10
2760.53904384
 20
-4489.01823304
  0
VERTEX
  8
0
 10
2760.70394410
 20
-4488.91805365
  0
VERTEX
  8
0
 10
2760.85791081
 20
-4488.80291947
  0
VERTEX
  8
0
 10
2760.99993865
 20
-4488.67383580
  0
VERTEX
  8
0
 10
2761.12902231
 20
-4488.53180796
  0
VERTEX
  8
0
 10
2761.24415649
 20
-4488.37784126
  0
VERTEX
  8
0
 10
2761.34433588
 20
-4488.21294100
  0
VERTEX
  8
0
 10
2761.42855517
 20
-4488.03811250
  0
VERTEX
  8
0
 10
2761.49580904
 20
-4487.85436106
  0
VERTEX
  8
0
 10
2761.54509219
 20
-4487.66269200
  0
VERTEX
  8
0
 10
2761.57539931
 20
-4487.46411062
  0
VERTEX
  8
0
 10
2761.58572508
 20
-4487.25962224
  0
VERTEX
  8
0
 10
2761.57162323
 20
-4487.02088930
  0
VERTEX
  8
0
 10
2761.53038793
 20
-4486.79048213
  0
VERTEX
  8
0
 10
2761.46362460
 20
-4486.57001418
  0
VERTEX
  8
0
 10
2761.37293864
 20
-4486.36109892
  0
VERTEX
  8
0
 10
2761.25993545
 20
-4486.16534979
  0
VERTEX
  8
0
 10
2761.12622044
 20
-4485.98438026
  0
VERTEX
  8
0
 10
2760.97339901
 20
-4485.81980377
  0
VERTEX
  8
0
 10
2760.80307656
 20
-4485.67323379
  0
SEQEND
  0
POLYLINE
  8
Default Layer
 66
   1
 39
0.000000
 70
    1
  0
VERTEX
  8
0
 10
1921.87023328
 20
-4482.69584942
  0
VERTEX
  8
0
 10
1921.59812060
 20
-4482.51404186
  0
VERTEX
  8
0
 10
1921.29741480
 20
-4482.37826163
  0
VERTEX
  8
0
 10
1920.97294715
 20
-4482.29328840
  0
VERTEX
  8
0
 10
1920.62954892
 20
-4482.26390184
  0
VERTEX
  8
0
 10
1920.45203368
 20
-4482.27167209
  0
VERTEX
  8
0
 10
1920.27885378
 20
-4482.29454700
  0
VERTEX
  8
0
 10
1919.94811909
 20
-4482.38299579
  0
VERTEX
  8
0
 10
1919.64258298
 20
-4482.52401823
  0
VERTEX
  8
0
 10
1919.36748362
 20
-4482.71238433
  0
VERTEX
  8
0
 10
1919.12805913
 20
-4482.94286409
  0
VERTEX
  8
0
 10
1918.92954767
 20
-4483.21022750
  0
VERTEX
  8
0
 10
1918.77718739
 20
-4483.50924459
  0
VERTEX
  8
0
 10
1918.67621644
 20
-4483.83468534
  0
VERTEX
  8
0
 10
1918.64132208
 20
-4484.04636587
  0
VERTEX
  8
0
 10
1918.62954892
 20
-4484.26390184
  0
VERTEX
  8
0
 10
1918.63987469
 20
-4484.46839022
  0
VERTEX
  8
0
 10
1918.67018181
 20
-4484.66697160
  0
VERTEX
  8
0
 10
1918.71946496
 20
-4484.85864066
  0
VERTEX
  8
0
 10
1918.78671883
 20
-4485.04239210
  0
VERTEX
  8
0
 10
1918.87093811
 20
-4485.21722060
  0
VERTEX
  8
0
 10
1918.97111750
 20
-4485.38212086
  0
VERTEX
  8
0
 10
1919.08625169
 20
-4485.53608757
  0
VERTEX
  8
0
 10
1919.21533535
 20
-4485.67811541
  0
VERTEX
  8
0
 10
1919.35736319
 20
-4485.80719907
  0
VERTEX
  8
0
 10
1919.51132990
 20
-4485.92233325
  0
VERTEX
  8
0
 10
1919.67623015
 20
-4486.02251264
  0
VERTEX
  8
0
 10
1919.85105866
 20
-4486.10673193
  0
VERTEX
  8
0
 10
1920.03481009
 20
-4486.17398580
  0
VERTEX
  8
0
 10
1920.22647916
 20
-4486.22326895
  0
VERTEX
  8
0
 10
1920.42506053
 20
-4486.25357607
  0
VERTEX
  8
0
 10
1920.62954892
 20
-4486.26390184
  0
VERTEX
  8
0
 10
1920.83403730
 20
-4486.25357607
  0
VERTEX
  8
0
 10
1921.03261867
 20
-4486.22326895
  0
VERTEX
  8
0
 10
1921.22428774
 20
-4486.17398580
  0
VERTEX
  8
0
 10
1921.40803917
 20
-4486.10673193
  0
VERTEX
  8
0
 10
1921.58286768
 20
-4486.02251264
  0
VERTEX
  8
0
 10
1921.74776793
 20
-4485.92233325
  0
VERTEX
  8
0
 10
1921.90173464
 20
-4485.80719907
  0
VERTEX
  8
0
 10
1922.04376248
 20
-4485.67811541
  0
VERTEX
  8
0
 10
1922.17284614
 20
-4485.53608757
  0
VERTEX
  8
0
 10
1922.28798033
 20
-4485.38212086
  0
VERTEX
  8
0
 10
1922.38815972
 20
-4485.21722060
  0
VERTEX
  8
0
 10
1922.47237900
 20
-4485.04239210
  0
VERTEX
  8
0
 10
1922.53963287
 20
-4484.85864066
  0
VERTEX
  8
0
 10
1922.58891602
 20
-4484.66697160
  0
VERTEX
  8
0
 10
1922.61922314
 20
-4484.46839022
  0
VERTEX
  8
0
 10
1922.62954892
 20
-4484.26390184
  0
VERTEX
  8
0
 10
1922.61590150
 20
-4484.02902027
  0
VERTEX
  8
0
 10
1922.57597816
 20
-4483.80217044
  0
VERTEX
  8
0
 10
1922.51130729
 20
-4483.58489006
  0
VERTEX
  8
0
 10
1922.42341727
 20
-4483.37871683
  0
VERTEX
  8
0
 10
1922.31383648
 20
-4483.18518845
  0
VERTEX
  8
0
 10
1922.18409329
 20
-4483.00584262
  0
VERTEX
  8
0
 10
1922.03571610
 20
-4482.84221704
  0
VERTEX
  8
0
 10
1921.87023328
 20
-4482.69584942
  0
SEQEND
  0
POLYLINE
  8
Default Layer
 66
   1
 39
0.000000
 70
    1
  0
VERTEX
  8
0
 10
1921.37165572
 20
-4039.18719758
  0
VERTEX
  8
0
 10
1921.30224562
 20
-4039.18544250
  0
VERTEX
  8
0
 10
1921.26229194
 20
-4039.18645275
  0
VERTEX
  8
0
 10
1921.06131618
 20
-4039.20029278
  0
VERTEX
  8
0
 10
1920.86627697
 20
-4039.23347456
  0
VERTEX
  8
0
 10
1920.67814428
 20
-4039.28502763
  0
VERTEX
  8
0
 10
1920.49788807
 20
-4039.35398151
  0
VERTEX
  8
0
 10
1920.32647831
 20
-4039.43936576
  0
VERTEX
  8
0
 10
1920.16488496
 20
-4039.54020989
  0
VERTEX
  8
0
 10
1920.01407798
 20
-4039.65554344
  0
VERTEX
  8
0
 10
1919.87502733
 20
-4039.78439595
  0
VERTEX
  8
0
 10
1919.74870298
 20
-4039.92579695
  0
VERTEX
  8
0
 10
1919.63607488
 20
-4040.07877597
  0
VERTEX
  8
0
 10
1919.53811301
 20
-4040.24236255
  0
VERTEX
  8
0
 10
1919.45578732
 20
-4040.41558622
  0
VERTEX
  8
0
 10
1919.39006777
 20
-4040.59747652
  0
VERTEX
  8
0
 10
1919.34192433
 20
-4040.78706298
  0
VERTEX
  8
0
 10
1919.31232696
 20
-4040.98337512
  0
VERTEX
  8
0
 10
1919.30224562
 20
-4041.18544250
  0
VERTEX
  8
0
 10
1919.32129374
 20
-4041.45857267
  0
VERTEX
  8
0
 10
1919.35431959
 20
-4041.63873249
  0
VERTEX
  8
0
 10
1919.40305907
 20
-4041.81286466
  0
VERTEX
  8
0
 10
1919.46673880
 20
-4041.98019710
  0
VERTEX
  8
0
 10
1919.54458538
 20
-4042.13995771
  0
VERTEX
  8
0
 10
1919.63582544
 20
-4042.29137441
  0
VERTEX
  8
0
 10
1919.73968557
 20
-4042.43367511
  0
VERTEX
  8
0
 10
1919.85539239
 20
-4042.56608772
  0
VERTEX
  8
0
 10
1919.98217252
 20
-4042.68784014
  0
VERTEX
  8
0
 10
1920.11925256
 20
-4042.79816031
  0
VERTEX
  8
0
 10
1920.26585911
 20
-4042.89627611
  0
VERTEX
  8
0
 10
1920.42121880
 20
-4042.98141547
  0
VERTEX
  8
0
 10
1920.58455824
 20
-4043.05280630
  0
VERTEX
  8
0
 10
1920.75510403
 20
-4043.10967650
  0
VERTEX
  8
0
 10
1920.93208278
 20
-4043.15125400
  0
VERTEX
  8
0
 10
1921.11472111
 20
-4043.17676669
  0
VERTEX
  8
0
 10
1921.30224562
 20
-4043.18544250
  0
VERTEX
  8
0
 10
1921.55374388
 20
-4043.16978093
  0
VERTEX
  8
0
 10
1921.79588741
 20
-4043.12405262
  0
VERTEX
  8
0
 10
1922.02678414
 20
-4043.05014218
  0
VERTEX
  8
0
 10
1922.24454199
 20
-4042.94993419
  0
VERTEX
  8
0
 10
1922.44726888
 20
-4042.82531325
  0
VERTEX
  8
0
 10
1922.63307272
 20
-4042.67816397
  0
VERTEX
  8
0
 10
1922.80006143
 20
-4042.51037094
  0
VERTEX
  8
0
 10
1922.94634292
 20
-4042.32381875
  0
VERTEX
  8
0
 10
1923.09668597
 20
-4042.06919250
  0
VERTEX
  8
0
 10
1923.20850161
 20
-4041.79216652
  0
VERTEX
  8
0
 10
1923.27821358
 20
-4041.49637259
  0
VERTEX
  8
0
 10
1923.30224562
 20
-4041.18544250
  0
VERTEX
  8
0
 10
1923.29234602
 20
-4040.98519535
  0
VERTEX
  8
0
 10
1923.26327606
 20
-4040.79059007
  0
VERTEX
  8
0
 10
1923.21597905
 20
-4040.60257074
  0
VERTEX
  8
0
 10
1923.15139828
 20
-4040.42208145
  0
VERTEX
  8
0
 10
1923.07047705
 20
-4040.25006627
  0
VERTEX
  8
0
 10
1922.97415865
 20
-4040.08746928
  0
VERTEX
  8
0
 10
1922.86338639
 20
-4039.93523457
  0
VERTEX
  8
0
 10
1922.73910355
 20
-4039.79430620
  0
VERTEX
  8
0
 10
1922.60225343
 20
-4039.66562827
  0
VERTEX
  8
0
 10
1922.45377933
 20
-4039.55014486
  0
VERTEX
  8
0
 10
1922.29462455
 20
-4039.44880003
  0
VERTEX
  8
0
 10
1922.12573237
 20
-4039.36253788
  0
VERTEX
  8
0
 10
1921.94804611
 20
-4039.29230248
  0
VERTEX
  8
0
 10
1921.76250905
 20
-4039.23903790
  0
VERTEX
  8
0
 10
1921.57006448
 20
-4039.20368824
  0
VERTEX
  8
0
 10
1921.37165572
 20
-4039.18719758
  0
SEQEND
  0
POLYLINE
  8
Default Layer
 66
   1
 39
0.000000
 70
    1
  0
VERTEX
  8
0
 10
2515.12185630
 20
-4484.10705552
  0
VERTEX
  8
0
 10
2515.26579404
 20
-4483.96219180
  0
VERTEX
  8
0
 10
2515.39440862
 20
-4483.80344420
  0
VERTEX
  8
0
 10
2515.50650769
 20
-4483.63200636
  0
VERTEX
  8
0
 10
2515.60089888
 20
-4483.44907194
  0
VERTEX
  8
0
 10
2515.67638985
 20
-4483.25583458
  0
VERTEX
  8
0
 10
2515.73178822
 20
-4483.05348794
  0
VERTEX
  8
0
 10
2515.76590163
 20
-4482.84322564
  0
VERTEX
  8
0
 10
2515.77753774
 20
-4482.62624136
  0
VERTEX
  8
0
 10
2515.76721197
 20
-4482.42175298
  0
VERTEX
  8
0
 10
2515.73690485
 20
-4482.22317160
  0
VERTEX
  8
0
 10
2515.68762170
 20
-4482.03150254
  0
VERTEX
  8
0
 10
2515.62036783
 20
-4481.84775110
  0
VERTEX
  8
0
 10
2515.53614854
 20
-4481.67292260
  0
VERTEX
  8
0
 10
2515.43596915
 20
-4481.50802234
  0
VERTEX
  8
0
 10
2515.32083497
 20
-4481.35405564
  0
VERTEX
  8
0
 10
2515.19175131
 20
-4481.21202780
  0
VERTEX
  8
0
 10
2515.04972347
 20
-4481.08294413
  0
VERTEX
  8
0
 10
2514.89575676
 20
-4480.96780995
  0
VERTEX
  8
0
 10
2514.73085650
 20
-4480.86763056
  0
VERTEX
  8
0
 10
2514.55602800
 20
-4480.78341127
  0
VERTEX
  8
0
 10
2514.37227656
 20
-4480.71615740
  0
VERTEX
  8
0
 10
2514.18060750
 20
-4480.66687425
  0
VERTEX
  8
0
 10
2513.98202613
 20
-4480.63656713
  0
VERTEX
  8
0
 10
2513.77753774
 20
-4480.62624136
  0
VERTEX
  8
0
 10
2513.54133696
 20
-4480.64011807
  0
VERTEX
  8
0
 10
2513.31319732
 20
-4480.68101544
  0
VERTEX
  8
0
 10
2512.99424634
 20
-4480.78595532
  0
VERTEX
  8
0
 10
2512.70154594
 20
-4480.94044732
  0
VERTEX
  8
0
 10
2512.44011277
 20
-4481.13946015
  0
VERTEX
  8
0
 10
2512.21496347
 20
-4481.37796252
  0
VERTEX
  8
0
 10
2512.03111468
 20
-4481.65092312
  0
VERTEX
  8
0
 10
2511.89358303
 20
-4481.95331066
  0
VERTEX
  8
0
 10
2511.80738517
 20
-4482.28009384
  0
VERTEX
  8
0
 10
2511.78510411
 20
-4482.45106151
  0
VERTEX
  8
0
 10
2511.77753774
 20
-4482.62624136
  0
VERTEX
  8
0
 10
2511.78786352
 20
-4482.83072974
  0
VERTEX
  8
0
 10
2511.81817063
 20
-4483.02931112
  0
VERTEX
  8
0
 10
2511.86745378
 20
-4483.22098018
  0
VERTEX
  8
0
 10
2511.93470766
 20
-4483.40473162
  0
VERTEX
  8
0
 10
2512.01892694
 20
-4483.57956012
  0
VERTEX
  8
0
 10
2512.11910633
 20
-4483.74446038
  0
VERTEX
  8
0
 10
2512.23424051
 20
-4483.89842708
  0
VERTEX
  8
0
 10
2512.36332418
 20
-4484.04045492
  0
VERTEX
  8
0
 10
2512.50535202
 20
-4484.16953859
  0
VERTEX
  8
0
 10
2512.65931872
 20
-4484.28467277
  0
VERTEX
  8
0
 10
2512.82421898
 20
-4484.38485216
  0
VERTEX
  8
0
 10
2512.99904749
 20
-4484.46907144
  0
VERTEX
  8
0
 10
2513.18279892
 20
-4484.53632532
  0
VERTEX
  8
0
 10
2513.37446798
 20
-4484.58560847
  0
VERTEX
  8
0
 10
2513.57304936
 20
-4484.61591558
  0
VERTEX
  8
0
 10
2513.77753774
 20
-4484.62624136
  0
VERTEX
  8
0
 10
2513.96933623
 20
-4484.61716363
  0
VERTEX
  8
0
 10
2514.15600208
 20
-4484.59048214
  0
VERTEX
  8
0
 10
2514.33670751
 20
-4484.54702440
  0
VERTEX
  8
0
 10
2514.51062476
 20
-4484.48761795
  0
VERTEX
  8
0
 10
2514.67692604
 20
-4484.41309031
  0
VERTEX
  8
0
 10
2514.83478357
 20
-4484.32426901
  0
VERTEX
  8
0
 10
2514.98336958
 20
-4484.22198157
  0
VERTEX
  8
0
 10
2515.12185630
 20
-4484.10705552
  0
SEQEND
  0
POLYLINE
  8
Default Layer
 66
   1
 39
0.000000
 70
    1
  0
VERTEX
  8
0
 10
2176.24547400
 20
-4479.14589991
  0
VERTEX
  8
0
 10
2176.41417564
 20
-4479.41118332
  0
VERTEX
  8
0
 10
2176.54007702
 20
-4479.70265322
  0
VERTEX
  8
0
 10
2176.61881644
 20
-4480.01593168
  0
VERTEX
  8
0
 10
2176.64603219
 20
-4480.34664079
  0
VERTEX
  8
0
 10
2176.63570641
 20
-4480.55112917
  0
VERTEX
  8
0
 10
2176.60539930
 20
-4480.74971055
  0
VERTEX
  8
0
 10
2176.55611615
 20
-4480.94137961
  0
VERTEX
  8
0
 10
2176.48886228
 20
-4481.12513105
  0
VERTEX
  8
0
 10
2176.40464299
 20
-4481.29995955
  0
VERTEX
  8
0
 10
2176.30446360
 20
-4481.46485981
  0
VERTEX
  8
0
 10
2176.18932942
 20
-4481.61882651
  0
VERTEX
  8
0
 10
2176.06024575
 20
-4481.76085435
  0
VERTEX
  8
0
 10
2175.91821791
 20
-4481.88993802
  0
VERTEX
  8
0
 10
2175.76425121
 20
-4482.00507220
  0
VERTEX
  8
0
 10
2175.59935095
 20
-4482.10525159
  0
VERTEX
  8
0
 10
2175.42452245
 20
-4482.18947087
  0
VERTEX
  8
0
 10
2175.24077101
 20
-4482.25672475
  0
VERTEX
  8
0
 10
2175.04910195
 20
-4482.30600790
  0
VERTEX
  8
0
 10
2174.85052057
 20
-4482.33631501
  0
VERTEX
  8
0
 10
2174.64603219
 20
-4482.34664079
  0
VERTEX
  8
0
 10
2174.51795572
 20
-4482.34212545
  0
VERTEX
  8
0
 10
2174.32473229
 20
-4482.32056513
  0
VERTEX
  8
0
 10
2174.13750936
 20
-4482.28108330
  0
VERTEX
  8
0
 10
2173.95717906
 20
-4482.22457293
  0
VERTEX
  8
0
 10
2173.78463350
 20
-4482.15192699
  0
VERTEX
  8
0
 10
2173.62076483
 20
-4482.06403844
  0
VERTEX
  8
0
 10
2173.46646516
 20
-4481.96180025
  0
VERTEX
  8
0
 10
2173.32262663
 20
-4481.84610538
  0
VERTEX
  8
0
 10
2173.19014136
 20
-4481.71784681
  0
VERTEX
  8
0
 10
2173.06990149
 20
-4481.57791750
  0
VERTEX
  8
0
 10
2172.96279914
 20
-4481.42721041
  0
VERTEX
  8
0
 10
2172.86972644
 20
-4481.26661852
  0
VERTEX
  8
0
 10
2172.79157552
 20
-4481.09703479
  0
VERTEX
  8
0
 10
2172.72923851
 20
-4480.91935218
  0
VERTEX
  8
0
 10
2172.68360753
 20
-4480.73446367
  0
VERTEX
  8
0
 10
2172.65557471
 20
-4480.54326222
  0
VERTEX
  8
0
 10
2172.64603219
 20
-4480.34664079
  0
VERTEX
  8
0
 10
2172.65635796
 20
-4480.14215241
  0
VERTEX
  8
0
 10
2172.68666508
 20
-4479.94357103
  0
VERTEX
  8
0
 10
2172.73594823
 20
-4479.75190197
  0
VERTEX
  8
0
 10
2172.80320210
 20
-4479.56815053
  0
VERTEX
  8
0
 10
2172.88742139
 20
-4479.39332203
  0
VERTEX
  8
0
 10
2172.98760078
 20
-4479.22842177
  0
VERTEX
  8
0
 10
2173.10273496
 20
-4479.07445507
  0
VERTEX
  8
0
 10
2173.23181863
 20
-4478.93242723
  0
VERTEX
  8
0
 10
2173.37384647
 20
-4478.80334356
  0
VERTEX
  8
0
 10
2173.52781317
 20
-4478.68820938
  0
VERTEX
  8
0
 10
2173.69271343
 20
-4478.58802999
  0
VERTEX
  8
0
 10
2173.86754193
 20
-4478.50381070
  0
VERTEX
  8
0
 10
2174.05129337
 20
-4478.43655683
  0
VERTEX
  8
0
 10
2174.24296243
 20
-4478.38727368
  0
VERTEX
  8
0
 10
2174.44154381
 20
-4478.35696656
  0
VERTEX
  8
0
 10
2174.64603219
 20
-4478.34664079
  0
VERTEX
  8
0
 10
2174.88753278
 20
-4478.36107321
  0
VERTEX
  8
0
 10
2175.12049332
 20
-4478.40325961
  0
VERTEX
  8
0
 10
2175.34324519
 20
-4478.47153371
  0
VERTEX
  8
0
 10
2175.55411982
 20
-4478.56422924
  0
VERTEX
  8
0
 10
2175.75144861
 20
-4478.67967990
  0
VERTEX
  8
0
 10
2175.93356296
 20
-4478.81621942
  0
VERTEX
  8
0
 10
2176.09879429
 20
-4478.97218151
  0
VERTEX
  8
0
 10
2176.24547400
 20
-4479.14589991
  0
SEQEND
  0
ENDSEC
  0
EOF
