  0
SECTION
  2
HEADER
  9
$ACADVER
  1
AC1009
  9
$EXTMIN
 10
10.25814799
 20
9.37524011
 30
0.0
  9
$EXTMAX
 10
1489.04288583
 20
1102.68501274
 30
0.0
  0
ENDSEC
  0
SECTION
  2
TABLES
  0
TABLE
  2
LAYER
 70
1
 0
LAYER
 2
Default Layer
 70
0
 62
1
 6
CONTINUOUS
 0
ENDTAB
 0
ENDSEC
  0
SECTION
  2
ENTITIES
  0
POLYLINE
  8
Default Layer
 66
   1
 39
0.000000
 70
    1
  0
VERTEX
  8
0
 10
225.85360679
 20
26.35360679
  0
VERTEX
  8
0
 10
225.86206455
 20
26.01911765
  0
VERTEX
  8
0
 10
225.88716556
 20
25.68901955
  0
VERTEX
  8
0
 10
225.92850140
 20
25.36372089
  0
VERTEX
  8
0
 10
225.98566369
 20
25.04363007
  0
VERTEX
  8
0
 10
226.05824400
 20
24.72915552
  0
VERTEX
  8
0
 10
226.14583392
 20
24.42070562
  0
VERTEX
  8
0
 10
226.24802506
 20
24.11868880
  0
VERTEX
  8
0
 10
226.36440901
 20
23.82351345
  0
VERTEX
  8
0
 10
226.49457735
 20
23.53558799
  0
VERTEX
  8
0
 10
226.63812169
 20
23.25532082
  0
VERTEX
  8
0
 10
226.79463361
 20
22.98312035
  0
VERTEX
  8
0
 10
226.96370470
 20
22.71939498
  0
VERTEX
  8
0
 10
227.33789080
 20
22.21900319
  0
VERTEX
  8
0
 10
227.75741271
 20
21.75741271
  0
VERTEX
  8
0
 10
228.21900319
 20
21.33789080
  0
VERTEX
  8
0
 10
228.71939498
 20
20.96370470
  0
VERTEX
  8
0
 10
228.98312035
 20
20.79463361
  0
VERTEX
  8
0
 10
229.25532082
 20
20.63812169
  0
VERTEX
  8
0
 10
229.53558799
 20
20.49457735
  0
VERTEX
  8
0
 10
229.82351345
 20
20.36440901
  0
VERTEX
  8
0
 10
230.11868880
 20
20.24802506
  0
VERTEX
  8
0
 10
230.42070562
 20
20.14583392
  0
VERTEX
  8
0
 10
230.72915552
 20
20.05824400
  0
VERTEX
  8
0
 10
231.04363007
 20
19.98566369
  0
VERTEX
  8
0
 10
231.36372089
 20
19.92850140
  0
VERTEX
  8
0
 10
231.68901955
 20
19.88716556
  0
VERTEX
  8
0
 10
232.01911765
 20
19.86206455
  0
VERTEX
  8
0
 10
232.35360679
 20
19.85360679
  0
VERTEX
  8
0
 10
232.68809593
 20
19.86206455
  0
VERTEX
  8
0
 10
233.01819403
 20
19.88716556
  0
VERTEX
  8
0
 10
233.34349269
 20
19.92850140
  0
VERTEX
  8
0
 10
233.66358350
 20
19.98566369
  0
VERTEX
  8
0
 10
233.97805806
 20
20.05824400
  0
VERTEX
  8
0
 10
234.28650796
 20
20.14583392
  0
VERTEX
  8
0
 10
234.58852478
 20
20.24802506
  0
VERTEX
  8
0
 10
234.88370013
 20
20.36440901
  0
VERTEX
  8
0
 10
235.17162559
 20
20.49457735
  0
VERTEX
  8
0
 10
235.45189276
 20
20.63812169
  0
VERTEX
  8
0
 10
235.72409323
 20
20.79463361
  0
VERTEX
  8
0
 10
235.98781860
 20
20.96370470
  0
VERTEX
  8
0
 10
236.48821039
 20
21.33789080
  0
VERTEX
  8
0
 10
236.94980087
 20
21.75741271
  0
VERTEX
  8
0
 10
237.36932278
 20
22.21900319
  0
VERTEX
  8
0
 10
237.74350888
 20
22.71939498
  0
VERTEX
  8
0
 10
237.91257997
 20
22.98312035
  0
VERTEX
  8
0
 10
238.06909189
 20
23.25532082
  0
VERTEX
  8
0
 10
238.21263622
 20
23.53558799
  0
VERTEX
  8
0
 10
238.34280457
 20
23.82351345
  0
VERTEX
  8
0
 10
238.45918851
 20
24.11868880
  0
VERTEX
  8
0
 10
238.56137965
 20
24.42070562
  0
VERTEX
  8
0
 10
238.64896958
 20
24.72915552
  0
VERTEX
  8
0
 10
238.72154989
 20
25.04363007
  0
VERTEX
  8
0
 10
238.77871217
 20
25.36372089
  0
VERTEX
  8
0
 10
238.82004802
 20
25.68901955
  0
VERTEX
  8
0
 10
238.84514903
 20
26.01911765
  0
VERTEX
  8
0
 10
238.85360679
 20
26.35360679
  0
VERTEX
  8
0
 10
238.84514903
 20
26.68809593
  0
VERTEX
  8
0
 10
238.82004802
 20
27.01819403
  0
VERTEX
  8
0
 10
238.77871217
 20
27.34349269
  0
VERTEX
  8
0
 10
238.72154989
 20
27.66358350
  0
VERTEX
  8
0
 10
238.64896958
 20
27.97805806
  0
VERTEX
  8
0
 10
238.56137965
 20
28.28650796
  0
VERTEX
  8
0
 10
238.45918851
 20
28.58852478
  0
VERTEX
  8
0
 10
238.34280457
 20
28.88370013
  0
VERTEX
  8
0
 10
238.21263622
 20
29.17162559
  0
VERTEX
  8
0
 10
238.06909189
 20
29.45189276
  0
VERTEX
  8
0
 10
237.91257997
 20
29.72409323
  0
VERTEX
  8
0
 10
237.74350888
 20
29.98781860
  0
VERTEX
  8
0
 10
237.36932278
 20
30.48821039
  0
VERTEX
  8
0
 10
236.94980087
 20
30.94980087
  0
VERTEX
  8
0
 10
236.48821039
 20
31.36932278
  0
VERTEX
  8
0
 10
235.98781860
 20
31.74350888
  0
VERTEX
  8
0
 10
235.72409323
 20
31.91257997
  0
VERTEX
  8
0
 10
235.45189276
 20
32.06909189
  0
VERTEX
  8
0
 10
235.17162559
 20
32.21263622
  0
VERTEX
  8
0
 10
234.88370013
 20
32.34280457
  0
VERTEX
  8
0
 10
234.58852478
 20
32.45918851
  0
VERTEX
  8
0
 10
234.28650796
 20
32.56137965
  0
VERTEX
  8
0
 10
233.97805806
 20
32.64896958
  0
VERTEX
  8
0
 10
233.66358350
 20
32.72154989
  0
VERTEX
  8
0
 10
233.34349269
 20
32.77871217
  0
VERTEX
  8
0
 10
233.01819403
 20
32.82004802
  0
VERTEX
  8
0
 10
232.68809593
 20
32.84514903
  0
VERTEX
  8
0
 10
232.35360679
 20
32.85360679
  0
VERTEX
  8
0
 10
232.01911765
 20
32.84514903
  0
VERTEX
  8
0
 10
231.68901955
 20
32.82004802
  0
VERTEX
  8
0
 10
231.36372089
 20
32.77871217
  0
VERTEX
  8
0
 10
231.04363007
 20
32.72154989
  0
VERTEX
  8
0
 10
230.72915552
 20
32.64896958
  0
VERTEX
  8
0
 10
230.42070562
 20
32.56137965
  0
VERTEX
  8
0
 10
230.11868880
 20
32.45918851
  0
VERTEX
  8
0
 10
229.82351345
 20
32.34280457
  0
VERTEX
  8
0
 10
229.53558799
 20
32.21263622
  0
VERTEX
  8
0
 10
229.25532082
 20
32.06909189
  0
VERTEX
  8
0
 10
228.98312035
 20
31.91257997
  0
VERTEX
  8
0
 10
228.71939498
 20
31.74350888
  0
VERTEX
  8
0
 10
228.21900319
 20
31.36932278
  0
VERTEX
  8
0
 10
227.75741271
 20
30.94980087
  0
VERTEX
  8
0
 10
227.33789080
 20
30.48821039
  0
VERTEX
  8
0
 10
226.96370470
 20
29.98781860
  0
VERTEX
  8
0
 10
226.79463361
 20
29.72409323
  0
VERTEX
  8
0
 10
226.63812169
 20
29.45189276
  0
VERTEX
  8
0
 10
226.49457735
 20
29.17162559
  0
VERTEX
  8
0
 10
226.36440901
 20
28.88370013
  0
VERTEX
  8
0
 10
226.24802506
 20
28.58852478
  0
VERTEX
  8
0
 10
226.14583392
 20
28.28650796
  0
VERTEX
  8
0
 10
226.05824400
 20
27.97805806
  0
VERTEX
  8
0
 10
225.98566369
 20
27.66358350
  0
VERTEX
  8
0
 10
225.92850140
 20
27.34349269
  0
VERTEX
  8
0
 10
225.88716556
 20
27.01819403
  0
VERTEX
  8
0
 10
225.86206455
 20
26.68809593
  0
VERTEX
  8
0
 10
225.85360679
 20
26.35360679
  0
SEQEND
  0
POLYLINE
  8
Default Layer
 66
   1
 39
0.000000
 70
    1
  0
VERTEX
  8
0
 10
423.85360679
 20
30.35360679
  0
VERTEX
  8
0
 10
423.86206455
 20
30.01911765
  0
VERTEX
  8
0
 10
423.88716556
 20
29.68901955
  0
VERTEX
  8
0
 10
423.92850140
 20
29.36372089
  0
VERTEX
  8
0
 10
423.98566369
 20
29.04363007
  0
VERTEX
  8
0
 10
424.05824400
 20
28.72915552
  0
VERTEX
  8
0
 10
424.14583392
 20
28.42070562
  0
VERTEX
  8
0
 10
424.24802506
 20
28.11868880
  0
VERTEX
  8
0
 10
424.36440901
 20
27.82351345
  0
VERTEX
  8
0
 10
424.49457735
 20
27.53558799
  0
VERTEX
  8
0
 10
424.63812169
 20
27.25532082
  0
VERTEX
  8
0
 10
424.79463361
 20
26.98312035
  0
VERTEX
  8
0
 10
424.96370470
 20
26.71939498
  0
VERTEX
  8
0
 10
425.33789080
 20
26.21900319
  0
VERTEX
  8
0
 10
425.75741271
 20
25.75741271
  0
VERTEX
  8
0
 10
426.21900319
 20
25.33789080
  0
VERTEX
  8
0
 10
426.71939498
 20
24.96370470
  0
VERTEX
  8
0
 10
426.98312035
 20
24.79463361
  0
VERTEX
  8
0
 10
427.25532082
 20
24.63812169
  0
VERTEX
  8
0
 10
427.53558799
 20
24.49457735
  0
VERTEX
  8
0
 10
427.82351345
 20
24.36440901
  0
VERTEX
  8
0
 10
428.11868880
 20
24.24802506
  0
VERTEX
  8
0
 10
428.42070562
 20
24.14583392
  0
VERTEX
  8
0
 10
428.72915552
 20
24.05824400
  0
VERTEX
  8
0
 10
429.04363007
 20
23.98566369
  0
VERTEX
  8
0
 10
429.36372089
 20
23.92850140
  0
VERTEX
  8
0
 10
429.68901955
 20
23.88716556
  0
VERTEX
  8
0
 10
430.01911765
 20
23.86206455
  0
VERTEX
  8
0
 10
430.35360679
 20
23.85360679
  0
VERTEX
  8
0
 10
430.68809593
 20
23.86206455
  0
VERTEX
  8
0
 10
431.01819403
 20
23.88716556
  0
VERTEX
  8
0
 10
431.34349269
 20
23.92850140
  0
VERTEX
  8
0
 10
431.66358350
 20
23.98566369
  0
VERTEX
  8
0
 10
431.97805806
 20
24.05824400
  0
VERTEX
  8
0
 10
432.28650796
 20
24.14583392
  0
VERTEX
  8
0
 10
432.58852478
 20
24.24802506
  0
VERTEX
  8
0
 10
432.88370013
 20
24.36440901
  0
VERTEX
  8
0
 10
433.17162559
 20
24.49457735
  0
VERTEX
  8
0
 10
433.45189276
 20
24.63812169
  0
VERTEX
  8
0
 10
433.72409323
 20
24.79463361
  0
VERTEX
  8
0
 10
433.98781860
 20
24.96370470
  0
VERTEX
  8
0
 10
434.48821039
 20
25.33789080
  0
VERTEX
  8
0
 10
434.94980087
 20
25.75741271
  0
VERTEX
  8
0
 10
435.36932278
 20
26.21900319
  0
VERTEX
  8
0
 10
435.74350888
 20
26.71939498
  0
VERTEX
  8
0
 10
435.91257997
 20
26.98312035
  0
VERTEX
  8
0
 10
436.06909189
 20
27.25532082
  0
VERTEX
  8
0
 10
436.21263622
 20
27.53558799
  0
VERTEX
  8
0
 10
436.34280457
 20
27.82351345
  0
VERTEX
  8
0
 10
436.45918851
 20
28.11868880
  0
VERTEX
  8
0
 10
436.56137965
 20
28.42070562
  0
VERTEX
  8
0
 10
436.64896958
 20
28.72915552
  0
VERTEX
  8
0
 10
436.72154989
 20
29.04363007
  0
VERTEX
  8
0
 10
436.77871217
 20
29.36372089
  0
VERTEX
  8
0
 10
436.82004802
 20
29.68901955
  0
VERTEX
  8
0
 10
436.84514903
 20
30.01911765
  0
VERTEX
  8
0
 10
436.85360679
 20
30.35360679
  0
VERTEX
  8
0
 10
436.84514903
 20
30.68809593
  0
VERTEX
  8
0
 10
436.82004802
 20
31.01819403
  0
VERTEX
  8
0
 10
436.77871217
 20
31.34349269
  0
VERTEX
  8
0
 10
436.72154989
 20
31.66358350
  0
VERTEX
  8
0
 10
436.64896958
 20
31.97805806
  0
VERTEX
  8
0
 10
436.56137965
 20
32.28650796
  0
VERTEX
  8
0
 10
436.45918851
 20
32.58852478
  0
VERTEX
  8
0
 10
436.34280457
 20
32.88370013
  0
VERTEX
  8
0
 10
436.21263622
 20
33.17162559
  0
VERTEX
  8
0
 10
436.06909189
 20
33.45189276
  0
VERTEX
  8
0
 10
435.91257997
 20
33.72409323
  0
VERTEX
  8
0
 10
435.74350888
 20
33.98781860
  0
VERTEX
  8
0
 10
435.36932278
 20
34.48821039
  0
VERTEX
  8
0
 10
434.94980087
 20
34.94980087
  0
VERTEX
  8
0
 10
434.48821039
 20
35.36932278
  0
VERTEX
  8
0
 10
433.98781860
 20
35.74350888
  0
VERTEX
  8
0
 10
433.72409323
 20
35.91257997
  0
VERTEX
  8
0
 10
433.45189276
 20
36.06909189
  0
VERTEX
  8
0
 10
433.17162559
 20
36.21263622
  0
VERTEX
  8
0
 10
432.88370013
 20
36.34280457
  0
VERTEX
  8
0
 10
432.58852478
 20
36.45918851
  0
VERTEX
  8
0
 10
432.28650796
 20
36.56137965
  0
VERTEX
  8
0
 10
431.97805806
 20
36.64896958
  0
VERTEX
  8
0
 10
431.66358350
 20
36.72154989
  0
VERTEX
  8
0
 10
431.34349269
 20
36.77871217
  0
VERTEX
  8
0
 10
431.01819403
 20
36.82004802
  0
VERTEX
  8
0
 10
430.68809593
 20
36.84514903
  0
VERTEX
  8
0
 10
430.35360679
 20
36.85360679
  0
VERTEX
  8
0
 10
430.01911765
 20
36.84514903
  0
VERTEX
  8
0
 10
429.68901955
 20
36.82004802
  0
VERTEX
  8
0
 10
429.36372089
 20
36.77871217
  0
VERTEX
  8
0
 10
429.04363007
 20
36.72154989
  0
VERTEX
  8
0
 10
428.72915552
 20
36.64896958
  0
VERTEX
  8
0
 10
428.42070562
 20
36.56137965
  0
VERTEX
  8
0
 10
428.11868880
 20
36.45918851
  0
VERTEX
  8
0
 10
427.82351345
 20
36.34280457
  0
VERTEX
  8
0
 10
427.53558799
 20
36.21263622
  0
VERTEX
  8
0
 10
427.25532082
 20
36.06909189
  0
VERTEX
  8
0
 10
426.98312035
 20
35.91257997
  0
VERTEX
  8
0
 10
426.71939498
 20
35.74350888
  0
VERTEX
  8
0
 10
426.21900319
 20
35.36932278
  0
VERTEX
  8
0
 10
425.75741271
 20
34.94980087
  0
VERTEX
  8
0
 10
425.33789080
 20
34.48821039
  0
VERTEX
  8
0
 10
424.96370470
 20
33.98781860
  0
VERTEX
  8
0
 10
424.79463361
 20
33.72409323
  0
VERTEX
  8
0
 10
424.63812169
 20
33.45189276
  0
VERTEX
  8
0
 10
424.49457735
 20
33.17162559
  0
VERTEX
  8
0
 10
424.36440901
 20
32.88370013
  0
VERTEX
  8
0
 10
424.24802506
 20
32.58852478
  0
VERTEX
  8
0
 10
424.14583392
 20
32.28650796
  0
VERTEX
  8
0
 10
424.05824400
 20
31.97805806
  0
VERTEX
  8
0
 10
423.98566369
 20
31.66358350
  0
VERTEX
  8
0
 10
423.92850140
 20
31.34349269
  0
VERTEX
  8
0
 10
423.88716556
 20
31.01819403
  0
VERTEX
  8
0
 10
423.86206455
 20
30.68809593
  0
VERTEX
  8
0
 10
423.85360679
 20
30.35360679
  0
SEQEND
  0
POLYLINE
  8
Default Layer
 66
   1
 39
0.000000
 70
    1
  0
VERTEX
  8
0
 10
621.85360679
 20
35.35360679
  0
VERTEX
  8
0
 10
621.86206455
 20
35.01911765
  0
VERTEX
  8
0
 10
621.88716556
 20
34.68901955
  0
VERTEX
  8
0
 10
621.92850140
 20
34.36372089
  0
VERTEX
  8
0
 10
621.98566369
 20
34.04363007
  0
VERTEX
  8
0
 10
622.05824400
 20
33.72915552
  0
VERTEX
  8
0
 10
622.14583392
 20
33.42070562
  0
VERTEX
  8
0
 10
622.24802506
 20
33.11868880
  0
VERTEX
  8
0
 10
622.36440901
 20
32.82351345
  0
VERTEX
  8
0
 10
622.49457735
 20
32.53558799
  0
VERTEX
  8
0
 10
622.63812169
 20
32.25532082
  0
VERTEX
  8
0
 10
622.79463361
 20
31.98312035
  0
VERTEX
  8
0
 10
622.96370470
 20
31.71939498
  0
VERTEX
  8
0
 10
623.33789080
 20
31.21900319
  0
VERTEX
  8
0
 10
623.75741271
 20
30.75741271
  0
VERTEX
  8
0
 10
624.21900319
 20
30.33789080
  0
VERTEX
  8
0
 10
624.71939498
 20
29.96370470
  0
VERTEX
  8
0
 10
624.98312035
 20
29.79463361
  0
VERTEX
  8
0
 10
625.25532082
 20
29.63812169
  0
VERTEX
  8
0
 10
625.53558799
 20
29.49457735
  0
VERTEX
  8
0
 10
625.82351345
 20
29.36440901
  0
VERTEX
  8
0
 10
626.11868880
 20
29.24802506
  0
VERTEX
  8
0
 10
626.42070562
 20
29.14583392
  0
VERTEX
  8
0
 10
626.72915552
 20
29.05824400
  0
VERTEX
  8
0
 10
627.04363007
 20
28.98566369
  0
VERTEX
  8
0
 10
627.36372089
 20
28.92850140
  0
VERTEX
  8
0
 10
627.68901955
 20
28.88716556
  0
VERTEX
  8
0
 10
628.01911765
 20
28.86206455
  0
VERTEX
  8
0
 10
628.35360679
 20
28.85360679
  0
VERTEX
  8
0
 10
628.68809593
 20
28.86206455
  0
VERTEX
  8
0
 10
629.01819403
 20
28.88716556
  0
VERTEX
  8
0
 10
629.34349269
 20
28.92850140
  0
VERTEX
  8
0
 10
629.66358350
 20
28.98566369
  0
VERTEX
  8
0
 10
629.97805806
 20
29.05824400
  0
VERTEX
  8
0
 10
630.28650796
 20
29.14583392
  0
VERTEX
  8
0
 10
630.58852478
 20
29.24802506
  0
VERTEX
  8
0
 10
630.88370013
 20
29.36440901
  0
VERTEX
  8
0
 10
631.17162559
 20
29.49457735
  0
VERTEX
  8
0
 10
631.45189276
 20
29.63812169
  0
VERTEX
  8
0
 10
631.72409323
 20
29.79463361
  0
VERTEX
  8
0
 10
631.98781860
 20
29.96370470
  0
VERTEX
  8
0
 10
632.48821039
 20
30.33789080
  0
VERTEX
  8
0
 10
632.94980087
 20
30.75741271
  0
VERTEX
  8
0
 10
633.36932278
 20
31.21900319
  0
VERTEX
  8
0
 10
633.74350888
 20
31.71939498
  0
VERTEX
  8
0
 10
633.91257997
 20
31.98312035
  0
VERTEX
  8
0
 10
634.06909189
 20
32.25532082
  0
VERTEX
  8
0
 10
634.21263622
 20
32.53558799
  0
VERTEX
  8
0
 10
634.34280457
 20
32.82351345
  0
VERTEX
  8
0
 10
634.45918851
 20
33.11868880
  0
VERTEX
  8
0
 10
634.56137965
 20
33.42070562
  0
VERTEX
  8
0
 10
634.64896958
 20
33.72915552
  0
VERTEX
  8
0
 10
634.72154989
 20
34.04363007
  0
VERTEX
  8
0
 10
634.77871217
 20
34.36372089
  0
VERTEX
  8
0
 10
634.82004802
 20
34.68901955
  0
VERTEX
  8
0
 10
634.84514903
 20
35.01911765
  0
VERTEX
  8
0
 10
634.85360679
 20
35.35360679
  0
VERTEX
  8
0
 10
634.84514903
 20
35.68809593
  0
VERTEX
  8
0
 10
634.82004802
 20
36.01819403
  0
VERTEX
  8
0
 10
634.77871217
 20
36.34349269
  0
VERTEX
  8
0
 10
634.72154989
 20
36.66358350
  0
VERTEX
  8
0
 10
634.64896958
 20
36.97805806
  0
VERTEX
  8
0
 10
634.56137965
 20
37.28650796
  0
VERTEX
  8
0
 10
634.45918851
 20
37.58852478
  0
VERTEX
  8
0
 10
634.34280457
 20
37.88370013
  0
VERTEX
  8
0
 10
634.21263622
 20
38.17162559
  0
VERTEX
  8
0
 10
634.06909189
 20
38.45189276
  0
VERTEX
  8
0
 10
633.91257997
 20
38.72409323
  0
VERTEX
  8
0
 10
633.74350888
 20
38.98781860
  0
VERTEX
  8
0
 10
633.36932278
 20
39.48821039
  0
VERTEX
  8
0
 10
632.94980087
 20
39.94980087
  0
VERTEX
  8
0
 10
632.48821039
 20
40.36932278
  0
VERTEX
  8
0
 10
631.98781860
 20
40.74350888
  0
VERTEX
  8
0
 10
631.72409323
 20
40.91257997
  0
VERTEX
  8
0
 10
631.45189276
 20
41.06909189
  0
VERTEX
  8
0
 10
631.17162559
 20
41.21263622
  0
VERTEX
  8
0
 10
630.88370013
 20
41.34280457
  0
VERTEX
  8
0
 10
630.58852478
 20
41.45918851
  0
VERTEX
  8
0
 10
630.28650796
 20
41.56137965
  0
VERTEX
  8
0
 10
629.97805806
 20
41.64896958
  0
VERTEX
  8
0
 10
629.66358350
 20
41.72154989
  0
VERTEX
  8
0
 10
629.34349269
 20
41.77871217
  0
VERTEX
  8
0
 10
629.01819403
 20
41.82004802
  0
VERTEX
  8
0
 10
628.68809593
 20
41.84514903
  0
VERTEX
  8
0
 10
628.35360679
 20
41.85360679
  0
VERTEX
  8
0
 10
628.01911765
 20
41.84514903
  0
VERTEX
  8
0
 10
627.68901955
 20
41.82004802
  0
VERTEX
  8
0
 10
627.36372089
 20
41.77871217
  0
VERTEX
  8
0
 10
627.04363007
 20
41.72154989
  0
VERTEX
  8
0
 10
626.72915552
 20
41.64896958
  0
VERTEX
  8
0
 10
626.42070562
 20
41.56137965
  0
VERTEX
  8
0
 10
626.11868880
 20
41.45918851
  0
VERTEX
  8
0
 10
625.82351345
 20
41.34280457
  0
VERTEX
  8
0
 10
625.53558799
 20
41.21263622
  0
VERTEX
  8
0
 10
625.25532082
 20
41.06909189
  0
VERTEX
  8
0
 10
624.98312035
 20
40.91257997
  0
VERTEX
  8
0
 10
624.71939498
 20
40.74350888
  0
VERTEX
  8
0
 10
624.21900319
 20
40.36932278
  0
VERTEX
  8
0
 10
623.75741271
 20
39.94980087
  0
VERTEX
  8
0
 10
623.33789080
 20
39.48821039
  0
VERTEX
  8
0
 10
622.96370470
 20
38.98781860
  0
VERTEX
  8
0
 10
622.79463361
 20
38.72409323
  0
VERTEX
  8
0
 10
622.63812169
 20
38.45189276
  0
VERTEX
  8
0
 10
622.49457735
 20
38.17162559
  0
VERTEX
  8
0
 10
622.36440901
 20
37.88370013
  0
VERTEX
  8
0
 10
622.24802506
 20
37.58852478
  0
VERTEX
  8
0
 10
622.14583392
 20
37.28650796
  0
VERTEX
  8
0
 10
622.05824400
 20
36.97805806
  0
VERTEX
  8
0
 10
621.98566369
 20
36.66358350
  0
VERTEX
  8
0
 10
621.92850140
 20
36.34349269
  0
VERTEX
  8
0
 10
621.88716556
 20
36.01819403
  0
VERTEX
  8
0
 10
621.86206455
 20
35.68809593
  0
VERTEX
  8
0
 10
621.85360679
 20
35.35360679
  0
SEQEND
  0
POLYLINE
  8
Default Layer
 66
   1
 39
0.000000
 70
    1
  0
VERTEX
  8
0
 10
819.85360679
 20
43.35360679
  0
VERTEX
  8
0
 10
819.86206455
 20
43.01911765
  0
VERTEX
  8
0
 10
819.88716556
 20
42.68901955
  0
VERTEX
  8
0
 10
819.92850140
 20
42.36372089
  0
VERTEX
  8
0
 10
819.98566369
 20
42.04363007
  0
VERTEX
  8
0
 10
820.05824400
 20
41.72915552
  0
VERTEX
  8
0
 10
820.14583392
 20
41.42070562
  0
VERTEX
  8
0
 10
820.24802506
 20
41.11868880
  0
VERTEX
  8
0
 10
820.36440901
 20
40.82351345
  0
VERTEX
  8
0
 10
820.49457735
 20
40.53558799
  0
VERTEX
  8
0
 10
820.63812169
 20
40.25532082
  0
VERTEX
  8
0
 10
820.79463361
 20
39.98312035
  0
VERTEX
  8
0
 10
820.96370470
 20
39.71939498
  0
VERTEX
  8
0
 10
821.33789080
 20
39.21900319
  0
VERTEX
  8
0
 10
821.75741271
 20
38.75741271
  0
VERTEX
  8
0
 10
822.21900319
 20
38.33789080
  0
VERTEX
  8
0
 10
822.71939498
 20
37.96370470
  0
VERTEX
  8
0
 10
822.98312035
 20
37.79463361
  0
VERTEX
  8
0
 10
823.25532082
 20
37.63812169
  0
VERTEX
  8
0
 10
823.53558799
 20
37.49457735
  0
VERTEX
  8
0
 10
823.82351345
 20
37.36440901
  0
VERTEX
  8
0
 10
824.11868880
 20
37.24802506
  0
VERTEX
  8
0
 10
824.42070562
 20
37.14583392
  0
VERTEX
  8
0
 10
824.72915552
 20
37.05824400
  0
VERTEX
  8
0
 10
825.04363007
 20
36.98566369
  0
VERTEX
  8
0
 10
825.36372089
 20
36.92850140
  0
VERTEX
  8
0
 10
825.68901955
 20
36.88716556
  0
VERTEX
  8
0
 10
826.01911765
 20
36.86206455
  0
VERTEX
  8
0
 10
826.35360679
 20
36.85360679
  0
VERTEX
  8
0
 10
826.68809593
 20
36.86206455
  0
VERTEX
  8
0
 10
827.01819403
 20
36.88716556
  0
VERTEX
  8
0
 10
827.34349269
 20
36.92850140
  0
VERTEX
  8
0
 10
827.66358350
 20
36.98566369
  0
VERTEX
  8
0
 10
827.97805806
 20
37.05824400
  0
VERTEX
  8
0
 10
828.28650796
 20
37.14583392
  0
VERTEX
  8
0
 10
828.58852478
 20
37.24802506
  0
VERTEX
  8
0
 10
828.88370013
 20
37.36440901
  0
VERTEX
  8
0
 10
829.17162559
 20
37.49457735
  0
VERTEX
  8
0
 10
829.45189276
 20
37.63812169
  0
VERTEX
  8
0
 10
829.72409323
 20
37.79463361
  0
VERTEX
  8
0
 10
829.98781860
 20
37.96370470
  0
VERTEX
  8
0
 10
830.48821039
 20
38.33789080
  0
VERTEX
  8
0
 10
830.94980087
 20
38.75741271
  0
VERTEX
  8
0
 10
831.36932278
 20
39.21900319
  0
VERTEX
  8
0
 10
831.74350888
 20
39.71939498
  0
VERTEX
  8
0
 10
831.91257997
 20
39.98312035
  0
VERTEX
  8
0
 10
832.06909189
 20
40.25532082
  0
VERTEX
  8
0
 10
832.21263622
 20
40.53558799
  0
VERTEX
  8
0
 10
832.34280457
 20
40.82351345
  0
VERTEX
  8
0
 10
832.45918851
 20
41.11868880
  0
VERTEX
  8
0
 10
832.56137965
 20
41.42070562
  0
VERTEX
  8
0
 10
832.64896958
 20
41.72915552
  0
VERTEX
  8
0
 10
832.72154989
 20
42.04363007
  0
VERTEX
  8
0
 10
832.77871217
 20
42.36372089
  0
VERTEX
  8
0
 10
832.82004802
 20
42.68901955
  0
VERTEX
  8
0
 10
832.84514903
 20
43.01911765
  0
VERTEX
  8
0
 10
832.85360679
 20
43.35360679
  0
VERTEX
  8
0
 10
832.84514903
 20
43.68809593
  0
VERTEX
  8
0
 10
832.82004802
 20
44.01819403
  0
VERTEX
  8
0
 10
832.77871217
 20
44.34349269
  0
VERTEX
  8
0
 10
832.72154989
 20
44.66358350
  0
VERTEX
  8
0
 10
832.64896958
 20
44.97805806
  0
VERTEX
  8
0
 10
832.56137965
 20
45.28650796
  0
VERTEX
  8
0
 10
832.45918851
 20
45.58852478
  0
VERTEX
  8
0
 10
832.34280457
 20
45.88370013
  0
VERTEX
  8
0
 10
832.21263622
 20
46.17162559
  0
VERTEX
  8
0
 10
832.06909189
 20
46.45189276
  0
VERTEX
  8
0
 10
831.91257997
 20
46.72409323
  0
VERTEX
  8
0
 10
831.74350888
 20
46.98781860
  0
VERTEX
  8
0
 10
831.36932278
 20
47.48821039
  0
VERTEX
  8
0
 10
830.94980087
 20
47.94980087
  0
VERTEX
  8
0
 10
830.48821039
 20
48.36932278
  0
VERTEX
  8
0
 10
829.98781860
 20
48.74350888
  0
VERTEX
  8
0
 10
829.72409323
 20
48.91257997
  0
VERTEX
  8
0
 10
829.45189276
 20
49.06909189
  0
VERTEX
  8
0
 10
829.17162559
 20
49.21263622
  0
VERTEX
  8
0
 10
828.88370013
 20
49.34280457
  0
VERTEX
  8
0
 10
828.58852478
 20
49.45918851
  0
VERTEX
  8
0
 10
828.28650796
 20
49.56137965
  0
VERTEX
  8
0
 10
827.97805806
 20
49.64896958
  0
VERTEX
  8
0
 10
827.66358350
 20
49.72154989
  0
VERTEX
  8
0
 10
827.34349269
 20
49.77871217
  0
VERTEX
  8
0
 10
827.01819403
 20
49.82004802
  0
VERTEX
  8
0
 10
826.68809593
 20
49.84514903
  0
VERTEX
  8
0
 10
826.35360679
 20
49.85360679
  0
VERTEX
  8
0
 10
826.01911765
 20
49.84514903
  0
VERTEX
  8
0
 10
825.68901955
 20
49.82004802
  0
VERTEX
  8
0
 10
825.36372089
 20
49.77871217
  0
VERTEX
  8
0
 10
825.04363007
 20
49.72154989
  0
VERTEX
  8
0
 10
824.72915552
 20
49.64896958
  0
VERTEX
  8
0
 10
824.42070562
 20
49.56137965
  0
VERTEX
  8
0
 10
824.11868880
 20
49.45918851
  0
VERTEX
  8
0
 10
823.82351345
 20
49.34280457
  0
VERTEX
  8
0
 10
823.53558799
 20
49.21263622
  0
VERTEX
  8
0
 10
823.25532082
 20
49.06909189
  0
VERTEX
  8
0
 10
822.98312035
 20
48.91257997
  0
VERTEX
  8
0
 10
822.71939498
 20
48.74350888
  0
VERTEX
  8
0
 10
822.21900319
 20
48.36932278
  0
VERTEX
  8
0
 10
821.75741271
 20
47.94980087
  0
VERTEX
  8
0
 10
821.33789080
 20
47.48821039
  0
VERTEX
  8
0
 10
820.96370470
 20
46.98781860
  0
VERTEX
  8
0
 10
820.79463361
 20
46.72409323
  0
VERTEX
  8
0
 10
820.63812169
 20
46.45189276
  0
VERTEX
  8
0
 10
820.49457735
 20
46.17162559
  0
VERTEX
  8
0
 10
820.36440901
 20
45.88370013
  0
VERTEX
  8
0
 10
820.24802506
 20
45.58852478
  0
VERTEX
  8
0
 10
820.14583392
 20
45.28650796
  0
VERTEX
  8
0
 10
820.05824400
 20
44.97805806
  0
VERTEX
  8
0
 10
819.98566369
 20
44.66358350
  0
VERTEX
  8
0
 10
819.92850140
 20
44.34349269
  0
VERTEX
  8
0
 10
819.88716556
 20
44.01819403
  0
VERTEX
  8
0
 10
819.86206455
 20
43.68809593
  0
VERTEX
  8
0
 10
819.85360679
 20
43.35360679
  0
SEQEND
  0
POLYLINE
  8
Default Layer
 66
   1
 39
0.000000
 70
    1
  0
VERTEX
  8
0
 10
1027.85360679
 20
50.35360679
  0
VERTEX
  8
0
 10
1027.86206455
 20
50.01911765
  0
VERTEX
  8
0
 10
1027.88716556
 20
49.68901955
  0
VERTEX
  8
0
 10
1027.92850140
 20
49.36372089
  0
VERTEX
  8
0
 10
1027.98566369
 20
49.04363007
  0
VERTEX
  8
0
 10
1028.05824400
 20
48.72915552
  0
VERTEX
  8
0
 10
1028.14583392
 20
48.42070562
  0
VERTEX
  8
0
 10
1028.24802506
 20
48.11868880
  0
VERTEX
  8
0
 10
1028.36440901
 20
47.82351345
  0
VERTEX
  8
0
 10
1028.49457735
 20
47.53558799
  0
VERTEX
  8
0
 10
1028.63812169
 20
47.25532082
  0
VERTEX
  8
0
 10
1028.79463361
 20
46.98312035
  0
VERTEX
  8
0
 10
1028.96370470
 20
46.71939498
  0
VERTEX
  8
0
 10
1029.33789080
 20
46.21900319
  0
VERTEX
  8
0
 10
1029.75741271
 20
45.75741271
  0
VERTEX
  8
0
 10
1030.21900319
 20
45.33789080
  0
VERTEX
  8
0
 10
1030.71939498
 20
44.96370470
  0
VERTEX
  8
0
 10
1030.98312035
 20
44.79463361
  0
VERTEX
  8
0
 10
1031.25532082
 20
44.63812169
  0
VERTEX
  8
0
 10
1031.53558799
 20
44.49457735
  0
VERTEX
  8
0
 10
1031.82351345
 20
44.36440901
  0
VERTEX
  8
0
 10
1032.11868880
 20
44.24802506
  0
VERTEX
  8
0
 10
1032.42070562
 20
44.14583392
  0
VERTEX
  8
0
 10
1032.72915552
 20
44.05824400
  0
VERTEX
  8
0
 10
1033.04363007
 20
43.98566369
  0
VERTEX
  8
0
 10
1033.36372089
 20
43.92850140
  0
VERTEX
  8
0
 10
1033.68901955
 20
43.88716556
  0
VERTEX
  8
0
 10
1034.01911765
 20
43.86206455
  0
VERTEX
  8
0
 10
1034.35360679
 20
43.85360679
  0
VERTEX
  8
0
 10
1034.68809593
 20
43.86206455
  0
VERTEX
  8
0
 10
1035.01819403
 20
43.88716556
  0
VERTEX
  8
0
 10
1035.34349269
 20
43.92850140
  0
VERTEX
  8
0
 10
1035.66358350
 20
43.98566369
  0
VERTEX
  8
0
 10
1035.97805806
 20
44.05824400
  0
VERTEX
  8
0
 10
1036.28650796
 20
44.14583392
  0
VERTEX
  8
0
 10
1036.58852478
 20
44.24802506
  0
VERTEX
  8
0
 10
1036.88370013
 20
44.36440901
  0
VERTEX
  8
0
 10
1037.17162559
 20
44.49457735
  0
VERTEX
  8
0
 10
1037.45189276
 20
44.63812169
  0
VERTEX
  8
0
 10
1037.72409323
 20
44.79463361
  0
VERTEX
  8
0
 10
1037.98781860
 20
44.96370470
  0
VERTEX
  8
0
 10
1038.48821039
 20
45.33789080
  0
VERTEX
  8
0
 10
1038.94980087
 20
45.75741271
  0
VERTEX
  8
0
 10
1039.36932278
 20
46.21900319
  0
VERTEX
  8
0
 10
1039.74350888
 20
46.71939498
  0
VERTEX
  8
0
 10
1039.91257997
 20
46.98312035
  0
VERTEX
  8
0
 10
1040.06909189
 20
47.25532082
  0
VERTEX
  8
0
 10
1040.21263622
 20
47.53558799
  0
VERTEX
  8
0
 10
1040.34280457
 20
47.82351345
  0
VERTEX
  8
0
 10
1040.45918851
 20
48.11868880
  0
VERTEX
  8
0
 10
1040.56137965
 20
48.42070562
  0
VERTEX
  8
0
 10
1040.64896958
 20
48.72915552
  0
VERTEX
  8
0
 10
1040.72154989
 20
49.04363007
  0
VERTEX
  8
0
 10
1040.77871217
 20
49.36372089
  0
VERTEX
  8
0
 10
1040.82004802
 20
49.68901955
  0
VERTEX
  8
0
 10
1040.84514903
 20
50.01911765
  0
VERTEX
  8
0
 10
1040.85360679
 20
50.35360679
  0
VERTEX
  8
0
 10
1040.84514903
 20
50.68809593
  0
VERTEX
  8
0
 10
1040.82004802
 20
51.01819403
  0
VERTEX
  8
0
 10
1040.77871217
 20
51.34349269
  0
VERTEX
  8
0
 10
1040.72154989
 20
51.66358350
  0
VERTEX
  8
0
 10
1040.64896958
 20
51.97805806
  0
VERTEX
  8
0
 10
1040.56137965
 20
52.28650796
  0
VERTEX
  8
0
 10
1040.45918851
 20
52.58852478
  0
VERTEX
  8
0
 10
1040.34280457
 20
52.88370013
  0
VERTEX
  8
0
 10
1040.21263622
 20
53.17162559
  0
VERTEX
  8
0
 10
1040.06909189
 20
53.45189276
  0
VERTEX
  8
0
 10
1039.91257997
 20
53.72409323
  0
VERTEX
  8
0
 10
1039.74350888
 20
53.98781860
  0
VERTEX
  8
0
 10
1039.36932278
 20
54.48821039
  0
VERTEX
  8
0
 10
1038.94980087
 20
54.94980087
  0
VERTEX
  8
0
 10
1038.48821039
 20
55.36932278
  0
VERTEX
  8
0
 10
1037.98781860
 20
55.74350888
  0
VERTEX
  8
0
 10
1037.72409323
 20
55.91257997
  0
VERTEX
  8
0
 10
1037.45189276
 20
56.06909189
  0
VERTEX
  8
0
 10
1037.17162559
 20
56.21263622
  0
VERTEX
  8
0
 10
1036.88370013
 20
56.34280457
  0
VERTEX
  8
0
 10
1036.58852478
 20
56.45918851
  0
VERTEX
  8
0
 10
1036.28650796
 20
56.56137965
  0
VERTEX
  8
0
 10
1035.97805806
 20
56.64896958
  0
VERTEX
  8
0
 10
1035.66358350
 20
56.72154989
  0
VERTEX
  8
0
 10
1035.34349269
 20
56.77871217
  0
VERTEX
  8
0
 10
1035.01819403
 20
56.82004802
  0
VERTEX
  8
0
 10
1034.68809593
 20
56.84514903
  0
VERTEX
  8
0
 10
1034.35360679
 20
56.85360679
  0
VERTEX
  8
0
 10
1034.01911765
 20
56.84514903
  0
VERTEX
  8
0
 10
1033.68901955
 20
56.82004802
  0
VERTEX
  8
0
 10
1033.36372089
 20
56.77871217
  0
VERTEX
  8
0
 10
1033.04363007
 20
56.72154989
  0
VERTEX
  8
0
 10
1032.72915552
 20
56.64896958
  0
VERTEX
  8
0
 10
1032.42070562
 20
56.56137965
  0
VERTEX
  8
0
 10
1032.11868880
 20
56.45918851
  0
VERTEX
  8
0
 10
1031.82351345
 20
56.34280457
  0
VERTEX
  8
0
 10
1031.53558799
 20
56.21263622
  0
VERTEX
  8
0
 10
1031.25532082
 20
56.06909189
  0
VERTEX
  8
0
 10
1030.98312035
 20
55.91257997
  0
VERTEX
  8
0
 10
1030.71939498
 20
55.74350888
  0
VERTEX
  8
0
 10
1030.21900319
 20
55.36932278
  0
VERTEX
  8
0
 10
1029.75741271
 20
54.94980087
  0
VERTEX
  8
0
 10
1029.33789080
 20
54.48821039
  0
VERTEX
  8
0
 10
1028.96370470
 20
53.98781860
  0
VERTEX
  8
0
 10
1028.79463361
 20
53.72409323
  0
VERTEX
  8
0
 10
1028.63812169
 20
53.45189276
  0
VERTEX
  8
0
 10
1028.49457735
 20
53.17162559
  0
VERTEX
  8
0
 10
1028.36440901
 20
52.88370013
  0
VERTEX
  8
0
 10
1028.24802506
 20
52.58852478
  0
VERTEX
  8
0
 10
1028.14583392
 20
52.28650796
  0
VERTEX
  8
0
 10
1028.05824400
 20
51.97805806
  0
VERTEX
  8
0
 10
1027.98566369
 20
51.66358350
  0
VERTEX
  8
0
 10
1027.92850140
 20
51.34349269
  0
VERTEX
  8
0
 10
1027.88716556
 20
51.01819403
  0
VERTEX
  8
0
 10
1027.86206455
 20
50.68809593
  0
VERTEX
  8
0
 10
1027.85360679
 20
50.35360679
  0
SEQEND
  0
POLYLINE
  8
Default Layer
 66
   1
 39
0.000000
 70
    1
  0
VERTEX
  8
0
 10
1235.85360679
 20
59.35360679
  0
VERTEX
  8
0
 10
1235.86206455
 20
59.01911765
  0
VERTEX
  8
0
 10
1235.88716556
 20
58.68901955
  0
VERTEX
  8
0
 10
1235.92850140
 20
58.36372089
  0
VERTEX
  8
0
 10
1235.98566369
 20
58.04363007
  0
VERTEX
  8
0
 10
1236.05824400
 20
57.72915552
  0
VERTEX
  8
0
 10
1236.14583392
 20
57.42070562
  0
VERTEX
  8
0
 10
1236.24802506
 20
57.11868880
  0
VERTEX
  8
0
 10
1236.36440901
 20
56.82351345
  0
VERTEX
  8
0
 10
1236.49457735
 20
56.53558799
  0
VERTEX
  8
0
 10
1236.63812169
 20
56.25532082
  0
VERTEX
  8
0
 10
1236.79463361
 20
55.98312035
  0
VERTEX
  8
0
 10
1236.96370470
 20
55.71939498
  0
VERTEX
  8
0
 10
1237.33789080
 20
55.21900319
  0
VERTEX
  8
0
 10
1237.75741271
 20
54.75741271
  0
VERTEX
  8
0
 10
1238.21900319
 20
54.33789080
  0
VERTEX
  8
0
 10
1238.71939498
 20
53.96370470
  0
VERTEX
  8
0
 10
1238.98312035
 20
53.79463361
  0
VERTEX
  8
0
 10
1239.25532082
 20
53.63812169
  0
VERTEX
  8
0
 10
1239.53558799
 20
53.49457735
  0
VERTEX
  8
0
 10
1239.82351345
 20
53.36440901
  0
VERTEX
  8
0
 10
1240.11868880
 20
53.24802506
  0
VERTEX
  8
0
 10
1240.42070562
 20
53.14583392
  0
VERTEX
  8
0
 10
1240.72915552
 20
53.05824400
  0
VERTEX
  8
0
 10
1241.04363007
 20
52.98566369
  0
VERTEX
  8
0
 10
1241.36372089
 20
52.92850140
  0
VERTEX
  8
0
 10
1241.68901955
 20
52.88716556
  0
VERTEX
  8
0
 10
1242.01911765
 20
52.86206455
  0
VERTEX
  8
0
 10
1242.35360679
 20
52.85360679
  0
VERTEX
  8
0
 10
1242.68809593
 20
52.86206455
  0
VERTEX
  8
0
 10
1243.01819403
 20
52.88716556
  0
VERTEX
  8
0
 10
1243.34349269
 20
52.92850140
  0
VERTEX
  8
0
 10
1243.66358350
 20
52.98566369
  0
VERTEX
  8
0
 10
1243.97805806
 20
53.05824400
  0
VERTEX
  8
0
 10
1244.28650796
 20
53.14583392
  0
VERTEX
  8
0
 10
1244.58852478
 20
53.24802506
  0
VERTEX
  8
0
 10
1244.88370013
 20
53.36440901
  0
VERTEX
  8
0
 10
1245.17162559
 20
53.49457735
  0
VERTEX
  8
0
 10
1245.45189276
 20
53.63812169
  0
VERTEX
  8
0
 10
1245.72409323
 20
53.79463361
  0
VERTEX
  8
0
 10
1245.98781860
 20
53.96370470
  0
VERTEX
  8
0
 10
1246.48821039
 20
54.33789080
  0
VERTEX
  8
0
 10
1246.94980087
 20
54.75741271
  0
VERTEX
  8
0
 10
1247.36932278
 20
55.21900319
  0
VERTEX
  8
0
 10
1247.74350888
 20
55.71939498
  0
VERTEX
  8
0
 10
1247.91257997
 20
55.98312035
  0
VERTEX
  8
0
 10
1248.06909189
 20
56.25532082
  0
VERTEX
  8
0
 10
1248.21263622
 20
56.53558799
  0
VERTEX
  8
0
 10
1248.34280457
 20
56.82351345
  0
VERTEX
  8
0
 10
1248.45918851
 20
57.11868880
  0
VERTEX
  8
0
 10
1248.56137965
 20
57.42070562
  0
VERTEX
  8
0
 10
1248.64896958
 20
57.72915552
  0
VERTEX
  8
0
 10
1248.72154989
 20
58.04363007
  0
VERTEX
  8
0
 10
1248.77871217
 20
58.36372089
  0
VERTEX
  8
0
 10
1248.82004802
 20
58.68901955
  0
VERTEX
  8
0
 10
1248.84514903
 20
59.01911765
  0
VERTEX
  8
0
 10
1248.85360679
 20
59.35360679
  0
VERTEX
  8
0
 10
1248.84514903
 20
59.68809593
  0
VERTEX
  8
0
 10
1248.82004802
 20
60.01819403
  0
VERTEX
  8
0
 10
1248.77871217
 20
60.34349269
  0
VERTEX
  8
0
 10
1248.72154989
 20
60.66358350
  0
VERTEX
  8
0
 10
1248.64896958
 20
60.97805806
  0
VERTEX
  8
0
 10
1248.56137965
 20
61.28650796
  0
VERTEX
  8
0
 10
1248.45918851
 20
61.58852478
  0
VERTEX
  8
0
 10
1248.34280457
 20
61.88370013
  0
VERTEX
  8
0
 10
1248.21263622
 20
62.17162559
  0
VERTEX
  8
0
 10
1248.06909189
 20
62.45189276
  0
VERTEX
  8
0
 10
1247.91257997
 20
62.72409323
  0
VERTEX
  8
0
 10
1247.74350888
 20
62.98781860
  0
VERTEX
  8
0
 10
1247.36932278
 20
63.48821039
  0
VERTEX
  8
0
 10
1246.94980087
 20
63.94980087
  0
VERTEX
  8
0
 10
1246.48821039
 20
64.36932278
  0
VERTEX
  8
0
 10
1245.98781860
 20
64.74350888
  0
VERTEX
  8
0
 10
1245.72409323
 20
64.91257997
  0
VERTEX
  8
0
 10
1245.45189276
 20
65.06909189
  0
VERTEX
  8
0
 10
1245.17162559
 20
65.21263622
  0
VERTEX
  8
0
 10
1244.88370013
 20
65.34280457
  0
VERTEX
  8
0
 10
1244.58852478
 20
65.45918851
  0
VERTEX
  8
0
 10
1244.28650796
 20
65.56137965
  0
VERTEX
  8
0
 10
1243.97805806
 20
65.64896958
  0
VERTEX
  8
0
 10
1243.66358350
 20
65.72154989
  0
VERTEX
  8
0
 10
1243.34349269
 20
65.77871217
  0
VERTEX
  8
0
 10
1243.01819403
 20
65.82004802
  0
VERTEX
  8
0
 10
1242.68809593
 20
65.84514903
  0
VERTEX
  8
0
 10
1242.35360679
 20
65.85360679
  0
VERTEX
  8
0
 10
1242.01911765
 20
65.84514903
  0
VERTEX
  8
0
 10
1241.68901955
 20
65.82004802
  0
VERTEX
  8
0
 10
1241.36372089
 20
65.77871217
  0
VERTEX
  8
0
 10
1241.04363007
 20
65.72154989
  0
VERTEX
  8
0
 10
1240.72915552
 20
65.64896958
  0
VERTEX
  8
0
 10
1240.42070562
 20
65.56137965
  0
VERTEX
  8
0
 10
1240.11868880
 20
65.45918851
  0
VERTEX
  8
0
 10
1239.82351345
 20
65.34280457
  0
VERTEX
  8
0
 10
1239.53558799
 20
65.21263622
  0
VERTEX
  8
0
 10
1239.25532082
 20
65.06909189
  0
VERTEX
  8
0
 10
1238.98312035
 20
64.91257997
  0
VERTEX
  8
0
 10
1238.71939498
 20
64.74350888
  0
VERTEX
  8
0
 10
1238.21900319
 20
64.36932278
  0
VERTEX
  8
0
 10
1237.75741271
 20
63.94980087
  0
VERTEX
  8
0
 10
1237.33789080
 20
63.48821039
  0
VERTEX
  8
0
 10
1236.96370470
 20
62.98781860
  0
VERTEX
  8
0
 10
1236.79463361
 20
62.72409323
  0
VERTEX
  8
0
 10
1236.63812169
 20
62.45189276
  0
VERTEX
  8
0
 10
1236.49457735
 20
62.17162559
  0
VERTEX
  8
0
 10
1236.36440901
 20
61.88370013
  0
VERTEX
  8
0
 10
1236.24802506
 20
61.58852478
  0
VERTEX
  8
0
 10
1236.14583392
 20
61.28650796
  0
VERTEX
  8
0
 10
1236.05824400
 20
60.97805806
  0
VERTEX
  8
0
 10
1235.98566369
 20
60.66358350
  0
VERTEX
  8
0
 10
1235.92850140
 20
60.34349269
  0
VERTEX
  8
0
 10
1235.88716556
 20
60.01819403
  0
VERTEX
  8
0
 10
1235.86206455
 20
59.68809593
  0
VERTEX
  8
0
 10
1235.85360679
 20
59.35360679
  0
SEQEND
  0
POLYLINE
  8
Default Layer
 66
   1
 39
0.000000
 70
    1
  0
VERTEX
  8
0
 10
1440.85360679
 20
73.35360679
  0
VERTEX
  8
0
 10
1440.86206455
 20
73.01911765
  0
VERTEX
  8
0
 10
1440.88716556
 20
72.68901955
  0
VERTEX
  8
0
 10
1440.92850140
 20
72.36372089
  0
VERTEX
  8
0
 10
1440.98566369
 20
72.04363007
  0
VERTEX
  8
0
 10
1441.05824400
 20
71.72915552
  0
VERTEX
  8
0
 10
1441.14583392
 20
71.42070562
  0
VERTEX
  8
0
 10
1441.24802506
 20
71.11868880
  0
VERTEX
  8
0
 10
1441.36440901
 20
70.82351345
  0
VERTEX
  8
0
 10
1441.49457735
 20
70.53558799
  0
VERTEX
  8
0
 10
1441.63812169
 20
70.25532082
  0
VERTEX
  8
0
 10
1441.79463361
 20
69.98312035
  0
VERTEX
  8
0
 10
1441.96370470
 20
69.71939498
  0
VERTEX
  8
0
 10
1442.33789080
 20
69.21900319
  0
VERTEX
  8
0
 10
1442.75741271
 20
68.75741271
  0
VERTEX
  8
0
 10
1443.21900319
 20
68.33789080
  0
VERTEX
  8
0
 10
1443.71939498
 20
67.96370470
  0
VERTEX
  8
0
 10
1443.98312035
 20
67.79463361
  0
VERTEX
  8
0
 10
1444.25532082
 20
67.63812169
  0
VERTEX
  8
0
 10
1444.53558799
 20
67.49457735
  0
VERTEX
  8
0
 10
1444.82351345
 20
67.36440901
  0
VERTEX
  8
0
 10
1445.11868880
 20
67.24802506
  0
VERTEX
  8
0
 10
1445.42070562
 20
67.14583392
  0
VERTEX
  8
0
 10
1445.72915552
 20
67.05824400
  0
VERTEX
  8
0
 10
1446.04363007
 20
66.98566369
  0
VERTEX
  8
0
 10
1446.36372089
 20
66.92850140
  0
VERTEX
  8
0
 10
1446.68901955
 20
66.88716556
  0
VERTEX
  8
0
 10
1447.01911765
 20
66.86206455
  0
VERTEX
  8
0
 10
1447.35360679
 20
66.85360679
  0
VERTEX
  8
0
 10
1447.68809593
 20
66.86206455
  0
VERTEX
  8
0
 10
1448.01819403
 20
66.88716556
  0
VERTEX
  8
0
 10
1448.34349269
 20
66.92850140
  0
VERTEX
  8
0
 10
1448.66358350
 20
66.98566369
  0
VERTEX
  8
0
 10
1448.97805806
 20
67.05824400
  0
VERTEX
  8
0
 10
1449.28650796
 20
67.14583392
  0
VERTEX
  8
0
 10
1449.58852478
 20
67.24802506
  0
VERTEX
  8
0
 10
1449.88370013
 20
67.36440901
  0
VERTEX
  8
0
 10
1450.17162559
 20
67.49457735
  0
VERTEX
  8
0
 10
1450.45189276
 20
67.63812169
  0
VERTEX
  8
0
 10
1450.72409323
 20
67.79463361
  0
VERTEX
  8
0
 10
1450.98781860
 20
67.96370470
  0
VERTEX
  8
0
 10
1451.48821039
 20
68.33789080
  0
VERTEX
  8
0
 10
1451.94980087
 20
68.75741271
  0
VERTEX
  8
0
 10
1452.36932278
 20
69.21900319
  0
VERTEX
  8
0
 10
1452.74350888
 20
69.71939498
  0
VERTEX
  8
0
 10
1452.91257997
 20
69.98312035
  0
VERTEX
  8
0
 10
1453.06909189
 20
70.25532082
  0
VERTEX
  8
0
 10
1453.21263622
 20
70.53558799
  0
VERTEX
  8
0
 10
1453.34280457
 20
70.82351345
  0
VERTEX
  8
0
 10
1453.45918851
 20
71.11868880
  0
VERTEX
  8
0
 10
1453.56137965
 20
71.42070562
  0
VERTEX
  8
0
 10
1453.64896958
 20
71.72915552
  0
VERTEX
  8
0
 10
1453.72154989
 20
72.04363007
  0
VERTEX
  8
0
 10
1453.77871217
 20
72.36372089
  0
VERTEX
  8
0
 10
1453.82004802
 20
72.68901955
  0
VERTEX
  8
0
 10
1453.84514903
 20
73.01911765
  0
VERTEX
  8
0
 10
1453.85360679
 20
73.35360679
  0
VERTEX
  8
0
 10
1453.84514903
 20
73.68809593
  0
VERTEX
  8
0
 10
1453.82004802
 20
74.01819403
  0
VERTEX
  8
0
 10
1453.77871217
 20
74.34349269
  0
VERTEX
  8
0
 10
1453.72154989
 20
74.66358350
  0
VERTEX
  8
0
 10
1453.64896958
 20
74.97805806
  0
VERTEX
  8
0
 10
1453.56137965
 20
75.28650796
  0
VERTEX
  8
0
 10
1453.45918851
 20
75.58852478
  0
VERTEX
  8
0
 10
1453.34280457
 20
75.88370013
  0
VERTEX
  8
0
 10
1453.21263622
 20
76.17162559
  0
VERTEX
  8
0
 10
1453.06909189
 20
76.45189276
  0
VERTEX
  8
0
 10
1452.91257997
 20
76.72409323
  0
VERTEX
  8
0
 10
1452.74350888
 20
76.98781860
  0
VERTEX
  8
0
 10
1452.36932278
 20
77.48821039
  0
VERTEX
  8
0
 10
1451.94980087
 20
77.94980087
  0
VERTEX
  8
0
 10
1451.48821039
 20
78.36932278
  0
VERTEX
  8
0
 10
1450.98781860
 20
78.74350888
  0
VERTEX
  8
0
 10
1450.72409323
 20
78.91257997
  0
VERTEX
  8
0
 10
1450.45189276
 20
79.06909189
  0
VERTEX
  8
0
 10
1450.17162559
 20
79.21263622
  0
VERTEX
  8
0
 10
1449.88370013
 20
79.34280457
  0
VERTEX
  8
0
 10
1449.58852478
 20
79.45918851
  0
VERTEX
  8
0
 10
1449.28650796
 20
79.56137965
  0
VERTEX
  8
0
 10
1448.97805806
 20
79.64896958
  0
VERTEX
  8
0
 10
1448.66358350
 20
79.72154989
  0
VERTEX
  8
0
 10
1448.34349269
 20
79.77871217
  0
VERTEX
  8
0
 10
1448.01819403
 20
79.82004802
  0
VERTEX
  8
0
 10
1447.68809593
 20
79.84514903
  0
VERTEX
  8
0
 10
1447.35360679
 20
79.85360679
  0
VERTEX
  8
0
 10
1447.01911765
 20
79.84514903
  0
VERTEX
  8
0
 10
1446.68901955
 20
79.82004802
  0
VERTEX
  8
0
 10
1446.36372089
 20
79.77871217
  0
VERTEX
  8
0
 10
1446.04363007
 20
79.72154989
  0
VERTEX
  8
0
 10
1445.72915552
 20
79.64896958
  0
VERTEX
  8
0
 10
1445.42070562
 20
79.56137965
  0
VERTEX
  8
0
 10
1445.11868880
 20
79.45918851
  0
VERTEX
  8
0
 10
1444.82351345
 20
79.34280457
  0
VERTEX
  8
0
 10
1444.53558799
 20
79.21263622
  0
VERTEX
  8
0
 10
1444.25532082
 20
79.06909189
  0
VERTEX
  8
0
 10
1443.98312035
 20
78.91257997
  0
VERTEX
  8
0
 10
1443.71939498
 20
78.74350888
  0
VERTEX
  8
0
 10
1443.21900319
 20
78.36932278
  0
VERTEX
  8
0
 10
1442.75741271
 20
77.94980087
  0
VERTEX
  8
0
 10
1442.33789080
 20
77.48821039
  0
VERTEX
  8
0
 10
1441.96370470
 20
76.98781860
  0
VERTEX
  8
0
 10
1441.79463361
 20
76.72409323
  0
VERTEX
  8
0
 10
1441.63812169
 20
76.45189276
  0
VERTEX
  8
0
 10
1441.49457735
 20
76.17162559
  0
VERTEX
  8
0
 10
1441.36440901
 20
75.88370013
  0
VERTEX
  8
0
 10
1441.24802506
 20
75.58852478
  0
VERTEX
  8
0
 10
1441.14583392
 20
75.28650796
  0
VERTEX
  8
0
 10
1441.05824400
 20
74.97805806
  0
VERTEX
  8
0
 10
1440.98566369
 20
74.66358350
  0
VERTEX
  8
0
 10
1440.92850140
 20
74.34349269
  0
VERTEX
  8
0
 10
1440.88716556
 20
74.01819403
  0
VERTEX
  8
0
 10
1440.86206455
 20
73.68809593
  0
VERTEX
  8
0
 10
1440.85360679
 20
73.35360679
  0
SEQEND
  0
POLYLINE
  8
Default Layer
 66
   1
 39
0.000000
 70
    1
  0
VERTEX
  8
0
 10
19.85360679
 20
125.35360679
  0
VERTEX
  8
0
 10
19.86206455
 20
125.01911765
  0
VERTEX
  8
0
 10
19.88716556
 20
124.68901955
  0
VERTEX
  8
0
 10
19.92850140
 20
124.36372089
  0
VERTEX
  8
0
 10
19.98566369
 20
124.04363007
  0
VERTEX
  8
0
 10
20.05824400
 20
123.72915552
  0
VERTEX
  8
0
 10
20.14583392
 20
123.42070562
  0
VERTEX
  8
0
 10
20.24802506
 20
123.11868880
  0
VERTEX
  8
0
 10
20.36440901
 20
122.82351345
  0
VERTEX
  8
0
 10
20.49457735
 20
122.53558799
  0
VERTEX
  8
0
 10
20.63812169
 20
122.25532082
  0
VERTEX
  8
0
 10
20.79463361
 20
121.98312035
  0
VERTEX
  8
0
 10
20.96370470
 20
121.71939498
  0
VERTEX
  8
0
 10
21.33789080
 20
121.21900319
  0
VERTEX
  8
0
 10
21.75741271
 20
120.75741271
  0
VERTEX
  8
0
 10
22.21900319
 20
120.33789080
  0
VERTEX
  8
0
 10
22.71939498
 20
119.96370470
  0
VERTEX
  8
0
 10
22.98312035
 20
119.79463361
  0
VERTEX
  8
0
 10
23.25532082
 20
119.63812169
  0
VERTEX
  8
0
 10
23.53558799
 20
119.49457735
  0
VERTEX
  8
0
 10
23.82351345
 20
119.36440901
  0
VERTEX
  8
0
 10
24.11868880
 20
119.24802506
  0
VERTEX
  8
0
 10
24.42070562
 20
119.14583392
  0
VERTEX
  8
0
 10
24.72915552
 20
119.05824400
  0
VERTEX
  8
0
 10
25.04363007
 20
118.98566369
  0
VERTEX
  8
0
 10
25.36372089
 20
118.92850140
  0
VERTEX
  8
0
 10
25.68901955
 20
118.88716556
  0
VERTEX
  8
0
 10
26.01911765
 20
118.86206455
  0
VERTEX
  8
0
 10
26.35360679
 20
118.85360679
  0
VERTEX
  8
0
 10
26.68809593
 20
118.86206455
  0
VERTEX
  8
0
 10
27.01819403
 20
118.88716556
  0
VERTEX
  8
0
 10
27.34349269
 20
118.92850140
  0
VERTEX
  8
0
 10
27.66358350
 20
118.98566369
  0
VERTEX
  8
0
 10
27.97805806
 20
119.05824400
  0
VERTEX
  8
0
 10
28.28650796
 20
119.14583392
  0
VERTEX
  8
0
 10
28.58852478
 20
119.24802506
  0
VERTEX
  8
0
 10
28.88370013
 20
119.36440901
  0
VERTEX
  8
0
 10
29.17162559
 20
119.49457735
  0
VERTEX
  8
0
 10
29.45189276
 20
119.63812169
  0
VERTEX
  8
0
 10
29.72409323
 20
119.79463361
  0
VERTEX
  8
0
 10
29.98781860
 20
119.96370470
  0
VERTEX
  8
0
 10
30.48821039
 20
120.33789080
  0
VERTEX
  8
0
 10
30.94980087
 20
120.75741271
  0
VERTEX
  8
0
 10
31.36932278
 20
121.21900319
  0
VERTEX
  8
0
 10
31.74350888
 20
121.71939498
  0
VERTEX
  8
0
 10
31.91257997
 20
121.98312035
  0
VERTEX
  8
0
 10
32.06909189
 20
122.25532082
  0
VERTEX
  8
0
 10
32.21263622
 20
122.53558799
  0
VERTEX
  8
0
 10
32.34280457
 20
122.82351345
  0
VERTEX
  8
0
 10
32.45918851
 20
123.11868880
  0
VERTEX
  8
0
 10
32.56137965
 20
123.42070562
  0
VERTEX
  8
0
 10
32.64896958
 20
123.72915552
  0
VERTEX
  8
0
 10
32.72154989
 20
124.04363007
  0
VERTEX
  8
0
 10
32.77871217
 20
124.36372089
  0
VERTEX
  8
0
 10
32.82004802
 20
124.68901955
  0
VERTEX
  8
0
 10
32.84514903
 20
125.01911765
  0
VERTEX
  8
0
 10
32.85360679
 20
125.35360679
  0
VERTEX
  8
0
 10
32.84514903
 20
125.68809593
  0
VERTEX
  8
0
 10
32.82004802
 20
126.01819403
  0
VERTEX
  8
0
 10
32.77871217
 20
126.34349269
  0
VERTEX
  8
0
 10
32.72154989
 20
126.66358350
  0
VERTEX
  8
0
 10
32.64896958
 20
126.97805806
  0
VERTEX
  8
0
 10
32.56137965
 20
127.28650796
  0
VERTEX
  8
0
 10
32.45918851
 20
127.58852478
  0
VERTEX
  8
0
 10
32.34280457
 20
127.88370013
  0
VERTEX
  8
0
 10
32.21263622
 20
128.17162559
  0
VERTEX
  8
0
 10
32.06909189
 20
128.45189276
  0
VERTEX
  8
0
 10
31.91257997
 20
128.72409323
  0
VERTEX
  8
0
 10
31.74350888
 20
128.98781860
  0
VERTEX
  8
0
 10
31.36932278
 20
129.48821039
  0
VERTEX
  8
0
 10
30.94980087
 20
129.94980087
  0
VERTEX
  8
0
 10
30.48821039
 20
130.36932278
  0
VERTEX
  8
0
 10
29.98781860
 20
130.74350888
  0
VERTEX
  8
0
 10
29.72409323
 20
130.91257997
  0
VERTEX
  8
0
 10
29.45189276
 20
131.06909189
  0
VERTEX
  8
0
 10
29.17162559
 20
131.21263622
  0
VERTEX
  8
0
 10
28.88370013
 20
131.34280457
  0
VERTEX
  8
0
 10
28.58852478
 20
131.45918851
  0
VERTEX
  8
0
 10
28.28650796
 20
131.56137965
  0
VERTEX
  8
0
 10
27.97805806
 20
131.64896958
  0
VERTEX
  8
0
 10
27.66358350
 20
131.72154989
  0
VERTEX
  8
0
 10
27.34349269
 20
131.77871217
  0
VERTEX
  8
0
 10
27.01819403
 20
131.82004802
  0
VERTEX
  8
0
 10
26.68809593
 20
131.84514903
  0
VERTEX
  8
0
 10
26.35360679
 20
131.85360679
  0
VERTEX
  8
0
 10
26.01911765
 20
131.84514903
  0
VERTEX
  8
0
 10
25.68901955
 20
131.82004802
  0
VERTEX
  8
0
 10
25.36372089
 20
131.77871217
  0
VERTEX
  8
0
 10
25.04363007
 20
131.72154989
  0
VERTEX
  8
0
 10
24.72915552
 20
131.64896958
  0
VERTEX
  8
0
 10
24.42070562
 20
131.56137965
  0
VERTEX
  8
0
 10
24.11868880
 20
131.45918851
  0
VERTEX
  8
0
 10
23.82351345
 20
131.34280457
  0
VERTEX
  8
0
 10
23.53558799
 20
131.21263622
  0
VERTEX
  8
0
 10
23.25532082
 20
131.06909189
  0
VERTEX
  8
0
 10
22.98312035
 20
130.91257997
  0
VERTEX
  8
0
 10
22.71939498
 20
130.74350888
  0
VERTEX
  8
0
 10
22.21900319
 20
130.36932278
  0
VERTEX
  8
0
 10
21.75741271
 20
129.94980087
  0
VERTEX
  8
0
 10
21.33789080
 20
129.48821039
  0
VERTEX
  8
0
 10
20.96370470
 20
128.98781860
  0
VERTEX
  8
0
 10
20.79463361
 20
128.72409323
  0
VERTEX
  8
0
 10
20.63812169
 20
128.45189276
  0
VERTEX
  8
0
 10
20.49457735
 20
128.17162559
  0
VERTEX
  8
0
 10
20.36440901
 20
127.88370013
  0
VERTEX
  8
0
 10
20.24802506
 20
127.58852478
  0
VERTEX
  8
0
 10
20.14583392
 20
127.28650796
  0
VERTEX
  8
0
 10
20.05824400
 20
126.97805806
  0
VERTEX
  8
0
 10
19.98566369
 20
126.66358350
  0
VERTEX
  8
0
 10
19.92850140
 20
126.34349269
  0
VERTEX
  8
0
 10
19.88716556
 20
126.01819403
  0
VERTEX
  8
0
 10
19.86206455
 20
125.68809593
  0
VERTEX
  8
0
 10
19.85360679
 20
125.35360679
  0
SEQEND
  0
POLYLINE
  8
Default Layer
 66
   1
 39
0.000000
 70
    1
  0
VERTEX
  8
0
 10
19.85360679
 20
342.35360679
  0
VERTEX
  8
0
 10
19.86206455
 20
342.01911765
  0
VERTEX
  8
0
 10
19.88716556
 20
341.68901955
  0
VERTEX
  8
0
 10
19.92850140
 20
341.36372089
  0
VERTEX
  8
0
 10
19.98566369
 20
341.04363007
  0
VERTEX
  8
0
 10
20.05824400
 20
340.72915552
  0
VERTEX
  8
0
 10
20.14583392
 20
340.42070562
  0
VERTEX
  8
0
 10
20.24802506
 20
340.11868880
  0
VERTEX
  8
0
 10
20.36440901
 20
339.82351345
  0
VERTEX
  8
0
 10
20.49457735
 20
339.53558799
  0
VERTEX
  8
0
 10
20.63812169
 20
339.25532082
  0
VERTEX
  8
0
 10
20.79463361
 20
338.98312035
  0
VERTEX
  8
0
 10
20.96370470
 20
338.71939498
  0
VERTEX
  8
0
 10
21.33789080
 20
338.21900319
  0
VERTEX
  8
0
 10
21.75741271
 20
337.75741271
  0
VERTEX
  8
0
 10
22.21900319
 20
337.33789080
  0
VERTEX
  8
0
 10
22.71939498
 20
336.96370470
  0
VERTEX
  8
0
 10
22.98312035
 20
336.79463361
  0
VERTEX
  8
0
 10
23.25532082
 20
336.63812169
  0
VERTEX
  8
0
 10
23.53558799
 20
336.49457735
  0
VERTEX
  8
0
 10
23.82351345
 20
336.36440901
  0
VERTEX
  8
0
 10
24.11868880
 20
336.24802506
  0
VERTEX
  8
0
 10
24.42070562
 20
336.14583392
  0
VERTEX
  8
0
 10
24.72915552
 20
336.05824400
  0
VERTEX
  8
0
 10
25.04363007
 20
335.98566369
  0
VERTEX
  8
0
 10
25.36372089
 20
335.92850140
  0
VERTEX
  8
0
 10
25.68901955
 20
335.88716556
  0
VERTEX
  8
0
 10
26.01911765
 20
335.86206455
  0
VERTEX
  8
0
 10
26.35360679
 20
335.85360679
  0
VERTEX
  8
0
 10
26.68809593
 20
335.86206455
  0
VERTEX
  8
0
 10
27.01819403
 20
335.88716556
  0
VERTEX
  8
0
 10
27.34349269
 20
335.92850140
  0
VERTEX
  8
0
 10
27.66358350
 20
335.98566369
  0
VERTEX
  8
0
 10
27.97805806
 20
336.05824400
  0
VERTEX
  8
0
 10
28.28650796
 20
336.14583392
  0
VERTEX
  8
0
 10
28.58852478
 20
336.24802506
  0
VERTEX
  8
0
 10
28.88370013
 20
336.36440901
  0
VERTEX
  8
0
 10
29.17162559
 20
336.49457735
  0
VERTEX
  8
0
 10
29.45189276
 20
336.63812169
  0
VERTEX
  8
0
 10
29.72409323
 20
336.79463361
  0
VERTEX
  8
0
 10
29.98781860
 20
336.96370470
  0
VERTEX
  8
0
 10
30.48821039
 20
337.33789080
  0
VERTEX
  8
0
 10
30.94980087
 20
337.75741271
  0
VERTEX
  8
0
 10
31.36932278
 20
338.21900319
  0
VERTEX
  8
0
 10
31.74350888
 20
338.71939498
  0
VERTEX
  8
0
 10
31.91257997
 20
338.98312035
  0
VERTEX
  8
0
 10
32.06909189
 20
339.25532082
  0
VERTEX
  8
0
 10
32.21263622
 20
339.53558799
  0
VERTEX
  8
0
 10
32.34280457
 20
339.82351345
  0
VERTEX
  8
0
 10
32.45918851
 20
340.11868880
  0
VERTEX
  8
0
 10
32.56137965
 20
340.42070562
  0
VERTEX
  8
0
 10
32.64896958
 20
340.72915552
  0
VERTEX
  8
0
 10
32.72154989
 20
341.04363007
  0
VERTEX
  8
0
 10
32.77871217
 20
341.36372089
  0
VERTEX
  8
0
 10
32.82004802
 20
341.68901955
  0
VERTEX
  8
0
 10
32.84514903
 20
342.01911765
  0
VERTEX
  8
0
 10
32.85360679
 20
342.35360679
  0
VERTEX
  8
0
 10
32.84514903
 20
342.68809593
  0
VERTEX
  8
0
 10
32.82004802
 20
343.01819403
  0
VERTEX
  8
0
 10
32.77871217
 20
343.34349269
  0
VERTEX
  8
0
 10
32.72154989
 20
343.66358350
  0
VERTEX
  8
0
 10
32.64896958
 20
343.97805806
  0
VERTEX
  8
0
 10
32.56137965
 20
344.28650796
  0
VERTEX
  8
0
 10
32.45918851
 20
344.58852478
  0
VERTEX
  8
0
 10
32.34280457
 20
344.88370013
  0
VERTEX
  8
0
 10
32.21263622
 20
345.17162559
  0
VERTEX
  8
0
 10
32.06909189
 20
345.45189276
  0
VERTEX
  8
0
 10
31.91257997
 20
345.72409323
  0
VERTEX
  8
0
 10
31.74350888
 20
345.98781860
  0
VERTEX
  8
0
 10
31.36932278
 20
346.48821039
  0
VERTEX
  8
0
 10
30.94980087
 20
346.94980087
  0
VERTEX
  8
0
 10
30.48821039
 20
347.36932278
  0
VERTEX
  8
0
 10
29.98781860
 20
347.74350888
  0
VERTEX
  8
0
 10
29.72409323
 20
347.91257997
  0
VERTEX
  8
0
 10
29.45189276
 20
348.06909189
  0
VERTEX
  8
0
 10
29.17162559
 20
348.21263622
  0
VERTEX
  8
0
 10
28.88370013
 20
348.34280457
  0
VERTEX
  8
0
 10
28.58852478
 20
348.45918851
  0
VERTEX
  8
0
 10
28.28650796
 20
348.56137965
  0
VERTEX
  8
0
 10
27.97805806
 20
348.64896958
  0
VERTEX
  8
0
 10
27.66358350
 20
348.72154989
  0
VERTEX
  8
0
 10
27.34349269
 20
348.77871217
  0
VERTEX
  8
0
 10
27.01819403
 20
348.82004802
  0
VERTEX
  8
0
 10
26.68809593
 20
348.84514903
  0
VERTEX
  8
0
 10
26.35360679
 20
348.85360679
  0
VERTEX
  8
0
 10
26.01911765
 20
348.84514903
  0
VERTEX
  8
0
 10
25.68901955
 20
348.82004802
  0
VERTEX
  8
0
 10
25.36372089
 20
348.77871217
  0
VERTEX
  8
0
 10
25.04363007
 20
348.72154989
  0
VERTEX
  8
0
 10
24.72915552
 20
348.64896958
  0
VERTEX
  8
0
 10
24.42070562
 20
348.56137965
  0
VERTEX
  8
0
 10
24.11868880
 20
348.45918851
  0
VERTEX
  8
0
 10
23.82351345
 20
348.34280457
  0
VERTEX
  8
0
 10
23.53558799
 20
348.21263622
  0
VERTEX
  8
0
 10
23.25532082
 20
348.06909189
  0
VERTEX
  8
0
 10
22.98312035
 20
347.91257997
  0
VERTEX
  8
0
 10
22.71939498
 20
347.74350888
  0
VERTEX
  8
0
 10
22.21900319
 20
347.36932278
  0
VERTEX
  8
0
 10
21.75741271
 20
346.94980087
  0
VERTEX
  8
0
 10
21.33789080
 20
346.48821039
  0
VERTEX
  8
0
 10
20.96370470
 20
345.98781860
  0
VERTEX
  8
0
 10
20.79463361
 20
345.72409323
  0
VERTEX
  8
0
 10
20.63812169
 20
345.45189276
  0
VERTEX
  8
0
 10
20.49457735
 20
345.17162559
  0
VERTEX
  8
0
 10
20.36440901
 20
344.88370013
  0
VERTEX
  8
0
 10
20.24802506
 20
344.58852478
  0
VERTEX
  8
0
 10
20.14583392
 20
344.28650796
  0
VERTEX
  8
0
 10
20.05824400
 20
343.97805806
  0
VERTEX
  8
0
 10
19.98566369
 20
343.66358350
  0
VERTEX
  8
0
 10
19.92850140
 20
343.34349269
  0
VERTEX
  8
0
 10
19.88716556
 20
343.01819403
  0
VERTEX
  8
0
 10
19.86206455
 20
342.68809593
  0
VERTEX
  8
0
 10
19.85360679
 20
342.35360679
  0
SEQEND
  0
POLYLINE
  8
Default Layer
 66
   1
 39
0.000000
 70
    1
  0
VERTEX
  8
0
 10
19.85360679
 20
557.35360679
  0
VERTEX
  8
0
 10
19.86206455
 20
557.01911765
  0
VERTEX
  8
0
 10
19.88716556
 20
556.68901955
  0
VERTEX
  8
0
 10
19.92850140
 20
556.36372089
  0
VERTEX
  8
0
 10
19.98566369
 20
556.04363007
  0
VERTEX
  8
0
 10
20.05824400
 20
555.72915552
  0
VERTEX
  8
0
 10
20.14583392
 20
555.42070562
  0
VERTEX
  8
0
 10
20.24802506
 20
555.11868880
  0
VERTEX
  8
0
 10
20.36440901
 20
554.82351345
  0
VERTEX
  8
0
 10
20.49457735
 20
554.53558799
  0
VERTEX
  8
0
 10
20.63812169
 20
554.25532082
  0
VERTEX
  8
0
 10
20.79463361
 20
553.98312035
  0
VERTEX
  8
0
 10
20.96370470
 20
553.71939498
  0
VERTEX
  8
0
 10
21.33789080
 20
553.21900319
  0
VERTEX
  8
0
 10
21.75741271
 20
552.75741271
  0
VERTEX
  8
0
 10
22.21900319
 20
552.33789080
  0
VERTEX
  8
0
 10
22.71939498
 20
551.96370470
  0
VERTEX
  8
0
 10
22.98312035
 20
551.79463361
  0
VERTEX
  8
0
 10
23.25532082
 20
551.63812169
  0
VERTEX
  8
0
 10
23.53558799
 20
551.49457735
  0
VERTEX
  8
0
 10
23.82351345
 20
551.36440901
  0
VERTEX
  8
0
 10
24.11868880
 20
551.24802506
  0
VERTEX
  8
0
 10
24.42070562
 20
551.14583392
  0
VERTEX
  8
0
 10
24.72915552
 20
551.05824400
  0
VERTEX
  8
0
 10
25.04363007
 20
550.98566369
  0
VERTEX
  8
0
 10
25.36372089
 20
550.92850140
  0
VERTEX
  8
0
 10
25.68901955
 20
550.88716556
  0
VERTEX
  8
0
 10
26.01911765
 20
550.86206455
  0
VERTEX
  8
0
 10
26.35360679
 20
550.85360679
  0
VERTEX
  8
0
 10
26.68809593
 20
550.86206455
  0
VERTEX
  8
0
 10
27.01819403
 20
550.88716556
  0
VERTEX
  8
0
 10
27.34349269
 20
550.92850140
  0
VERTEX
  8
0
 10
27.66358350
 20
550.98566369
  0
VERTEX
  8
0
 10
27.97805806
 20
551.05824400
  0
VERTEX
  8
0
 10
28.28650796
 20
551.14583392
  0
VERTEX
  8
0
 10
28.58852478
 20
551.24802506
  0
VERTEX
  8
0
 10
28.88370013
 20
551.36440901
  0
VERTEX
  8
0
 10
29.17162559
 20
551.49457735
  0
VERTEX
  8
0
 10
29.45189276
 20
551.63812169
  0
VERTEX
  8
0
 10
29.72409323
 20
551.79463361
  0
VERTEX
  8
0
 10
29.98781860
 20
551.96370470
  0
VERTEX
  8
0
 10
30.48821039
 20
552.33789080
  0
VERTEX
  8
0
 10
30.94980087
 20
552.75741271
  0
VERTEX
  8
0
 10
31.36932278
 20
553.21900319
  0
VERTEX
  8
0
 10
31.74350888
 20
553.71939498
  0
VERTEX
  8
0
 10
31.91257997
 20
553.98312035
  0
VERTEX
  8
0
 10
32.06909189
 20
554.25532082
  0
VERTEX
  8
0
 10
32.21263622
 20
554.53558799
  0
VERTEX
  8
0
 10
32.34280457
 20
554.82351345
  0
VERTEX
  8
0
 10
32.45918851
 20
555.11868880
  0
VERTEX
  8
0
 10
32.56137965
 20
555.42070562
  0
VERTEX
  8
0
 10
32.64896958
 20
555.72915552
  0
VERTEX
  8
0
 10
32.72154989
 20
556.04363007
  0
VERTEX
  8
0
 10
32.77871217
 20
556.36372089
  0
VERTEX
  8
0
 10
32.82004802
 20
556.68901955
  0
VERTEX
  8
0
 10
32.84514903
 20
557.01911765
  0
VERTEX
  8
0
 10
32.85360679
 20
557.35360679
  0
VERTEX
  8
0
 10
32.84514903
 20
557.68809593
  0
VERTEX
  8
0
 10
32.82004802
 20
558.01819403
  0
VERTEX
  8
0
 10
32.77871217
 20
558.34349269
  0
VERTEX
  8
0
 10
32.72154989
 20
558.66358350
  0
VERTEX
  8
0
 10
32.64896958
 20
558.97805806
  0
VERTEX
  8
0
 10
32.56137965
 20
559.28650796
  0
VERTEX
  8
0
 10
32.45918851
 20
559.58852478
  0
VERTEX
  8
0
 10
32.34280457
 20
559.88370013
  0
VERTEX
  8
0
 10
32.21263622
 20
560.17162559
  0
VERTEX
  8
0
 10
32.06909189
 20
560.45189276
  0
VERTEX
  8
0
 10
31.91257997
 20
560.72409323
  0
VERTEX
  8
0
 10
31.74350888
 20
560.98781860
  0
VERTEX
  8
0
 10
31.36932278
 20
561.48821039
  0
VERTEX
  8
0
 10
30.94980087
 20
561.94980087
  0
VERTEX
  8
0
 10
30.48821039
 20
562.36932278
  0
VERTEX
  8
0
 10
29.98781860
 20
562.74350888
  0
VERTEX
  8
0
 10
29.72409323
 20
562.91257997
  0
VERTEX
  8
0
 10
29.45189276
 20
563.06909189
  0
VERTEX
  8
0
 10
29.17162559
 20
563.21263622
  0
VERTEX
  8
0
 10
28.88370013
 20
563.34280457
  0
VERTEX
  8
0
 10
28.58852478
 20
563.45918851
  0
VERTEX
  8
0
 10
28.28650796
 20
563.56137965
  0
VERTEX
  8
0
 10
27.97805806
 20
563.64896958
  0
VERTEX
  8
0
 10
27.66358350
 20
563.72154989
  0
VERTEX
  8
0
 10
27.34349269
 20
563.77871217
  0
VERTEX
  8
0
 10
27.01819403
 20
563.82004802
  0
VERTEX
  8
0
 10
26.68809593
 20
563.84514903
  0
VERTEX
  8
0
 10
26.35360679
 20
563.85360679
  0
VERTEX
  8
0
 10
26.01911765
 20
563.84514903
  0
VERTEX
  8
0
 10
25.68901955
 20
563.82004802
  0
VERTEX
  8
0
 10
25.36372089
 20
563.77871217
  0
VERTEX
  8
0
 10
25.04363007
 20
563.72154989
  0
VERTEX
  8
0
 10
24.72915552
 20
563.64896958
  0
VERTEX
  8
0
 10
24.42070562
 20
563.56137965
  0
VERTEX
  8
0
 10
24.11868880
 20
563.45918851
  0
VERTEX
  8
0
 10
23.82351345
 20
563.34280457
  0
VERTEX
  8
0
 10
23.53558799
 20
563.21263622
  0
VERTEX
  8
0
 10
23.25532082
 20
563.06909189
  0
VERTEX
  8
0
 10
22.98312035
 20
562.91257997
  0
VERTEX
  8
0
 10
22.71939498
 20
562.74350888
  0
VERTEX
  8
0
 10
22.21900319
 20
562.36932278
  0
VERTEX
  8
0
 10
21.75741271
 20
561.94980087
  0
VERTEX
  8
0
 10
21.33789080
 20
561.48821039
  0
VERTEX
  8
0
 10
20.96370470
 20
560.98781860
  0
VERTEX
  8
0
 10
20.79463361
 20
560.72409323
  0
VERTEX
  8
0
 10
20.63812169
 20
560.45189276
  0
VERTEX
  8
0
 10
20.49457735
 20
560.17162559
  0
VERTEX
  8
0
 10
20.36440901
 20
559.88370013
  0
VERTEX
  8
0
 10
20.24802506
 20
559.58852478
  0
VERTEX
  8
0
 10
20.14583392
 20
559.28650796
  0
VERTEX
  8
0
 10
20.05824400
 20
558.97805806
  0
VERTEX
  8
0
 10
19.98566369
 20
558.66358350
  0
VERTEX
  8
0
 10
19.92850140
 20
558.34349269
  0
VERTEX
  8
0
 10
19.88716556
 20
558.01819403
  0
VERTEX
  8
0
 10
19.86206455
 20
557.68809593
  0
VERTEX
  8
0
 10
19.85360679
 20
557.35360679
  0
SEQEND
  0
POLYLINE
  8
Default Layer
 66
   1
 39
0.000000
 70
    1
  0
VERTEX
  8
0
 10
19.85360679
 20
772.35360679
  0
VERTEX
  8
0
 10
19.86206455
 20
772.01911765
  0
VERTEX
  8
0
 10
19.88716556
 20
771.68901955
  0
VERTEX
  8
0
 10
19.92850140
 20
771.36372089
  0
VERTEX
  8
0
 10
19.98566369
 20
771.04363007
  0
VERTEX
  8
0
 10
20.05824400
 20
770.72915552
  0
VERTEX
  8
0
 10
20.14583392
 20
770.42070562
  0
VERTEX
  8
0
 10
20.24802506
 20
770.11868880
  0
VERTEX
  8
0
 10
20.36440901
 20
769.82351345
  0
VERTEX
  8
0
 10
20.49457735
 20
769.53558799
  0
VERTEX
  8
0
 10
20.63812169
 20
769.25532082
  0
VERTEX
  8
0
 10
20.79463361
 20
768.98312035
  0
VERTEX
  8
0
 10
20.96370470
 20
768.71939498
  0
VERTEX
  8
0
 10
21.33789080
 20
768.21900319
  0
VERTEX
  8
0
 10
21.75741271
 20
767.75741271
  0
VERTEX
  8
0
 10
22.21900319
 20
767.33789080
  0
VERTEX
  8
0
 10
22.71939498
 20
766.96370470
  0
VERTEX
  8
0
 10
22.98312035
 20
766.79463361
  0
VERTEX
  8
0
 10
23.25532082
 20
766.63812169
  0
VERTEX
  8
0
 10
23.53558799
 20
766.49457735
  0
VERTEX
  8
0
 10
23.82351345
 20
766.36440901
  0
VERTEX
  8
0
 10
24.11868880
 20
766.24802506
  0
VERTEX
  8
0
 10
24.42070562
 20
766.14583392
  0
VERTEX
  8
0
 10
24.72915552
 20
766.05824400
  0
VERTEX
  8
0
 10
25.04363007
 20
765.98566369
  0
VERTEX
  8
0
 10
25.36372089
 20
765.92850140
  0
VERTEX
  8
0
 10
25.68901955
 20
765.88716556
  0
VERTEX
  8
0
 10
26.01911765
 20
765.86206455
  0
VERTEX
  8
0
 10
26.35360679
 20
765.85360679
  0
VERTEX
  8
0
 10
26.68809593
 20
765.86206455
  0
VERTEX
  8
0
 10
27.01819403
 20
765.88716556
  0
VERTEX
  8
0
 10
27.34349269
 20
765.92850140
  0
VERTEX
  8
0
 10
27.66358350
 20
765.98566369
  0
VERTEX
  8
0
 10
27.97805806
 20
766.05824400
  0
VERTEX
  8
0
 10
28.28650796
 20
766.14583392
  0
VERTEX
  8
0
 10
28.58852478
 20
766.24802506
  0
VERTEX
  8
0
 10
28.88370013
 20
766.36440901
  0
VERTEX
  8
0
 10
29.17162559
 20
766.49457735
  0
VERTEX
  8
0
 10
29.45189276
 20
766.63812169
  0
VERTEX
  8
0
 10
29.72409323
 20
766.79463361
  0
VERTEX
  8
0
 10
29.98781860
 20
766.96370470
  0
VERTEX
  8
0
 10
30.48821039
 20
767.33789080
  0
VERTEX
  8
0
 10
30.94980087
 20
767.75741271
  0
VERTEX
  8
0
 10
31.36932278
 20
768.21900319
  0
VERTEX
  8
0
 10
31.74350888
 20
768.71939498
  0
VERTEX
  8
0
 10
31.91257997
 20
768.98312035
  0
VERTEX
  8
0
 10
32.06909189
 20
769.25532082
  0
VERTEX
  8
0
 10
32.21263622
 20
769.53558799
  0
VERTEX
  8
0
 10
32.34280457
 20
769.82351345
  0
VERTEX
  8
0
 10
32.45918851
 20
770.11868880
  0
VERTEX
  8
0
 10
32.56137965
 20
770.42070562
  0
VERTEX
  8
0
 10
32.64896958
 20
770.72915552
  0
VERTEX
  8
0
 10
32.72154989
 20
771.04363007
  0
VERTEX
  8
0
 10
32.77871217
 20
771.36372089
  0
VERTEX
  8
0
 10
32.82004802
 20
771.68901955
  0
VERTEX
  8
0
 10
32.84514903
 20
772.01911765
  0
VERTEX
  8
0
 10
32.85360679
 20
772.35360679
  0
VERTEX
  8
0
 10
32.84514903
 20
772.68809593
  0
VERTEX
  8
0
 10
32.82004802
 20
773.01819403
  0
VERTEX
  8
0
 10
32.77871217
 20
773.34349269
  0
VERTEX
  8
0
 10
32.72154989
 20
773.66358350
  0
VERTEX
  8
0
 10
32.64896958
 20
773.97805806
  0
VERTEX
  8
0
 10
32.56137965
 20
774.28650796
  0
VERTEX
  8
0
 10
32.45918851
 20
774.58852478
  0
VERTEX
  8
0
 10
32.34280457
 20
774.88370013
  0
VERTEX
  8
0
 10
32.21263622
 20
775.17162559
  0
VERTEX
  8
0
 10
32.06909189
 20
775.45189276
  0
VERTEX
  8
0
 10
31.91257997
 20
775.72409323
  0
VERTEX
  8
0
 10
31.74350888
 20
775.98781860
  0
VERTEX
  8
0
 10
31.36932278
 20
776.48821039
  0
VERTEX
  8
0
 10
30.94980087
 20
776.94980087
  0
VERTEX
  8
0
 10
30.48821039
 20
777.36932278
  0
VERTEX
  8
0
 10
29.98781860
 20
777.74350888
  0
VERTEX
  8
0
 10
29.72409323
 20
777.91257997
  0
VERTEX
  8
0
 10
29.45189276
 20
778.06909189
  0
VERTEX
  8
0
 10
29.17162559
 20
778.21263622
  0
VERTEX
  8
0
 10
28.88370013
 20
778.34280457
  0
VERTEX
  8
0
 10
28.58852478
 20
778.45918851
  0
VERTEX
  8
0
 10
28.28650796
 20
778.56137965
  0
VERTEX
  8
0
 10
27.97805806
 20
778.64896958
  0
VERTEX
  8
0
 10
27.66358350
 20
778.72154989
  0
VERTEX
  8
0
 10
27.34349269
 20
778.77871217
  0
VERTEX
  8
0
 10
27.01819403
 20
778.82004802
  0
VERTEX
  8
0
 10
26.68809593
 20
778.84514903
  0
VERTEX
  8
0
 10
26.35360679
 20
778.85360679
  0
VERTEX
  8
0
 10
26.01911765
 20
778.84514903
  0
VERTEX
  8
0
 10
25.68901955
 20
778.82004802
  0
VERTEX
  8
0
 10
25.36372089
 20
778.77871217
  0
VERTEX
  8
0
 10
25.04363007
 20
778.72154989
  0
VERTEX
  8
0
 10
24.72915552
 20
778.64896958
  0
VERTEX
  8
0
 10
24.42070562
 20
778.56137965
  0
VERTEX
  8
0
 10
24.11868880
 20
778.45918851
  0
VERTEX
  8
0
 10
23.82351345
 20
778.34280457
  0
VERTEX
  8
0
 10
23.53558799
 20
778.21263622
  0
VERTEX
  8
0
 10
23.25532082
 20
778.06909189
  0
VERTEX
  8
0
 10
22.98312035
 20
777.91257997
  0
VERTEX
  8
0
 10
22.71939498
 20
777.74350888
  0
VERTEX
  8
0
 10
22.21900319
 20
777.36932278
  0
VERTEX
  8
0
 10
21.75741271
 20
776.94980087
  0
VERTEX
  8
0
 10
21.33789080
 20
776.48821039
  0
VERTEX
  8
0
 10
20.96370470
 20
775.98781860
  0
VERTEX
  8
0
 10
20.79463361
 20
775.72409323
  0
VERTEX
  8
0
 10
20.63812169
 20
775.45189276
  0
VERTEX
  8
0
 10
20.49457735
 20
775.17162559
  0
VERTEX
  8
0
 10
20.36440901
 20
774.88370013
  0
VERTEX
  8
0
 10
20.24802506
 20
774.58852478
  0
VERTEX
  8
0
 10
20.14583392
 20
774.28650796
  0
VERTEX
  8
0
 10
20.05824400
 20
773.97805806
  0
VERTEX
  8
0
 10
19.98566369
 20
773.66358350
  0
VERTEX
  8
0
 10
19.92850140
 20
773.34349269
  0
VERTEX
  8
0
 10
19.88716556
 20
773.01819403
  0
VERTEX
  8
0
 10
19.86206455
 20
772.68809593
  0
VERTEX
  8
0
 10
19.85360679
 20
772.35360679
  0
SEQEND
  0
POLYLINE
  8
Default Layer
 66
   1
 39
0.000000
 70
    1
  0
VERTEX
  8
0
 10
19.85360679
 20
987.35360679
  0
VERTEX
  8
0
 10
19.86206455
 20
987.01911765
  0
VERTEX
  8
0
 10
19.88716556
 20
986.68901955
  0
VERTEX
  8
0
 10
19.92850140
 20
986.36372089
  0
VERTEX
  8
0
 10
19.98566369
 20
986.04363007
  0
VERTEX
  8
0
 10
20.05824400
 20
985.72915552
  0
VERTEX
  8
0
 10
20.14583392
 20
985.42070562
  0
VERTEX
  8
0
 10
20.24802506
 20
985.11868880
  0
VERTEX
  8
0
 10
20.36440901
 20
984.82351345
  0
VERTEX
  8
0
 10
20.49457735
 20
984.53558799
  0
VERTEX
  8
0
 10
20.63812169
 20
984.25532082
  0
VERTEX
  8
0
 10
20.79463361
 20
983.98312035
  0
VERTEX
  8
0
 10
20.96370470
 20
983.71939498
  0
VERTEX
  8
0
 10
21.33789080
 20
983.21900319
  0
VERTEX
  8
0
 10
21.75741271
 20
982.75741271
  0
VERTEX
  8
0
 10
22.21900319
 20
982.33789080
  0
VERTEX
  8
0
 10
22.71939498
 20
981.96370470
  0
VERTEX
  8
0
 10
22.98312035
 20
981.79463361
  0
VERTEX
  8
0
 10
23.25532082
 20
981.63812169
  0
VERTEX
  8
0
 10
23.53558799
 20
981.49457735
  0
VERTEX
  8
0
 10
23.82351345
 20
981.36440901
  0
VERTEX
  8
0
 10
24.11868880
 20
981.24802506
  0
VERTEX
  8
0
 10
24.42070562
 20
981.14583392
  0
VERTEX
  8
0
 10
24.72915552
 20
981.05824400
  0
VERTEX
  8
0
 10
25.04363007
 20
980.98566369
  0
VERTEX
  8
0
 10
25.36372089
 20
980.92850140
  0
VERTEX
  8
0
 10
25.68901955
 20
980.88716556
  0
VERTEX
  8
0
 10
26.01911765
 20
980.86206455
  0
VERTEX
  8
0
 10
26.35360679
 20
980.85360679
  0
VERTEX
  8
0
 10
26.68809593
 20
980.86206455
  0
VERTEX
  8
0
 10
27.01819403
 20
980.88716556
  0
VERTEX
  8
0
 10
27.34349269
 20
980.92850140
  0
VERTEX
  8
0
 10
27.66358350
 20
980.98566369
  0
VERTEX
  8
0
 10
27.97805806
 20
981.05824400
  0
VERTEX
  8
0
 10
28.28650796
 20
981.14583392
  0
VERTEX
  8
0
 10
28.58852478
 20
981.24802506
  0
VERTEX
  8
0
 10
28.88370013
 20
981.36440901
  0
VERTEX
  8
0
 10
29.17162559
 20
981.49457735
  0
VERTEX
  8
0
 10
29.45189276
 20
981.63812169
  0
VERTEX
  8
0
 10
29.72409323
 20
981.79463361
  0
VERTEX
  8
0
 10
29.98781860
 20
981.96370470
  0
VERTEX
  8
0
 10
30.48821039
 20
982.33789080
  0
VERTEX
  8
0
 10
30.94980087
 20
982.75741271
  0
VERTEX
  8
0
 10
31.36932278
 20
983.21900319
  0
VERTEX
  8
0
 10
31.74350888
 20
983.71939498
  0
VERTEX
  8
0
 10
31.91257997
 20
983.98312035
  0
VERTEX
  8
0
 10
32.06909189
 20
984.25532082
  0
VERTEX
  8
0
 10
32.21263622
 20
984.53558799
  0
VERTEX
  8
0
 10
32.34280457
 20
984.82351345
  0
VERTEX
  8
0
 10
32.45918851
 20
985.11868880
  0
VERTEX
  8
0
 10
32.56137965
 20
985.42070562
  0
VERTEX
  8
0
 10
32.64896958
 20
985.72915552
  0
VERTEX
  8
0
 10
32.72154989
 20
986.04363007
  0
VERTEX
  8
0
 10
32.77871217
 20
986.36372089
  0
VERTEX
  8
0
 10
32.82004802
 20
986.68901955
  0
VERTEX
  8
0
 10
32.84514903
 20
987.01911765
  0
VERTEX
  8
0
 10
32.85360679
 20
987.35360679
  0
VERTEX
  8
0
 10
32.84514903
 20
987.68809593
  0
VERTEX
  8
0
 10
32.82004802
 20
988.01819403
  0
VERTEX
  8
0
 10
32.77871217
 20
988.34349269
  0
VERTEX
  8
0
 10
32.72154989
 20
988.66358350
  0
VERTEX
  8
0
 10
32.64896958
 20
988.97805806
  0
VERTEX
  8
0
 10
32.56137965
 20
989.28650796
  0
VERTEX
  8
0
 10
32.45918851
 20
989.58852478
  0
VERTEX
  8
0
 10
32.34280457
 20
989.88370013
  0
VERTEX
  8
0
 10
32.21263622
 20
990.17162559
  0
VERTEX
  8
0
 10
32.06909189
 20
990.45189276
  0
VERTEX
  8
0
 10
31.91257997
 20
990.72409323
  0
VERTEX
  8
0
 10
31.74350888
 20
990.98781860
  0
VERTEX
  8
0
 10
31.36932278
 20
991.48821039
  0
VERTEX
  8
0
 10
30.94980087
 20
991.94980087
  0
VERTEX
  8
0
 10
30.48821039
 20
992.36932278
  0
VERTEX
  8
0
 10
29.98781860
 20
992.74350888
  0
VERTEX
  8
0
 10
29.72409323
 20
992.91257997
  0
VERTEX
  8
0
 10
29.45189276
 20
993.06909189
  0
VERTEX
  8
0
 10
29.17162559
 20
993.21263622
  0
VERTEX
  8
0
 10
28.88370013
 20
993.34280457
  0
VERTEX
  8
0
 10
28.58852478
 20
993.45918851
  0
VERTEX
  8
0
 10
28.28650796
 20
993.56137965
  0
VERTEX
  8
0
 10
27.97805806
 20
993.64896958
  0
VERTEX
  8
0
 10
27.66358350
 20
993.72154989
  0
VERTEX
  8
0
 10
27.34349269
 20
993.77871217
  0
VERTEX
  8
0
 10
27.01819403
 20
993.82004802
  0
VERTEX
  8
0
 10
26.68809593
 20
993.84514903
  0
VERTEX
  8
0
 10
26.35360679
 20
993.85360679
  0
VERTEX
  8
0
 10
26.01911765
 20
993.84514903
  0
VERTEX
  8
0
 10
25.68901955
 20
993.82004802
  0
VERTEX
  8
0
 10
25.36372089
 20
993.77871217
  0
VERTEX
  8
0
 10
25.04363007
 20
993.72154989
  0
VERTEX
  8
0
 10
24.72915552
 20
993.64896958
  0
VERTEX
  8
0
 10
24.42070562
 20
993.56137965
  0
VERTEX
  8
0
 10
24.11868880
 20
993.45918851
  0
VERTEX
  8
0
 10
23.82351345
 20
993.34280457
  0
VERTEX
  8
0
 10
23.53558799
 20
993.21263622
  0
VERTEX
  8
0
 10
23.25532082
 20
993.06909189
  0
VERTEX
  8
0
 10
22.98312035
 20
992.91257997
  0
VERTEX
  8
0
 10
22.71939498
 20
992.74350888
  0
VERTEX
  8
0
 10
22.21900319
 20
992.36932278
  0
VERTEX
  8
0
 10
21.75741271
 20
991.94980087
  0
VERTEX
  8
0
 10
21.33789080
 20
991.48821039
  0
VERTEX
  8
0
 10
20.96370470
 20
990.98781860
  0
VERTEX
  8
0
 10
20.79463361
 20
990.72409323
  0
VERTEX
  8
0
 10
20.63812169
 20
990.45189276
  0
VERTEX
  8
0
 10
20.49457735
 20
990.17162559
  0
VERTEX
  8
0
 10
20.36440901
 20
989.88370013
  0
VERTEX
  8
0
 10
20.24802506
 20
989.58852478
  0
VERTEX
  8
0
 10
20.14583392
 20
989.28650796
  0
VERTEX
  8
0
 10
20.05824400
 20
988.97805806
  0
VERTEX
  8
0
 10
19.98566369
 20
988.66358350
  0
VERTEX
  8
0
 10
19.92850140
 20
988.34349269
  0
VERTEX
  8
0
 10
19.88716556
 20
988.01819403
  0
VERTEX
  8
0
 10
19.86206455
 20
987.68809593
  0
VERTEX
  8
0
 10
19.85360679
 20
987.35360679
  0
SEQEND
  0
POLYLINE
  8
Default Layer
 66
   1
 39
0.000000
 70
    1
  0
VERTEX
  8
0
 10
225.85360679
 20
1088.35360679
  0
VERTEX
  8
0
 10
225.86206455
 20
1088.01911765
  0
VERTEX
  8
0
 10
225.88716556
 20
1087.68901955
  0
VERTEX
  8
0
 10
225.92850140
 20
1087.36372089
  0
VERTEX
  8
0
 10
225.98566369
 20
1087.04363007
  0
VERTEX
  8
0
 10
226.05824400
 20
1086.72915552
  0
VERTEX
  8
0
 10
226.14583392
 20
1086.42070562
  0
VERTEX
  8
0
 10
226.24802506
 20
1086.11868880
  0
VERTEX
  8
0
 10
226.36440901
 20
1085.82351345
  0
VERTEX
  8
0
 10
226.49457735
 20
1085.53558799
  0
VERTEX
  8
0
 10
226.63812169
 20
1085.25532082
  0
VERTEX
  8
0
 10
226.79463361
 20
1084.98312035
  0
VERTEX
  8
0
 10
226.96370470
 20
1084.71939498
  0
VERTEX
  8
0
 10
227.33789080
 20
1084.21900319
  0
VERTEX
  8
0
 10
227.75741271
 20
1083.75741271
  0
VERTEX
  8
0
 10
228.21900319
 20
1083.33789080
  0
VERTEX
  8
0
 10
228.71939498
 20
1082.96370470
  0
VERTEX
  8
0
 10
228.98312035
 20
1082.79463361
  0
VERTEX
  8
0
 10
229.25532082
 20
1082.63812169
  0
VERTEX
  8
0
 10
229.53558799
 20
1082.49457735
  0
VERTEX
  8
0
 10
229.82351345
 20
1082.36440901
  0
VERTEX
  8
0
 10
230.11868880
 20
1082.24802506
  0
VERTEX
  8
0
 10
230.42070562
 20
1082.14583392
  0
VERTEX
  8
0
 10
230.72915552
 20
1082.05824400
  0
VERTEX
  8
0
 10
231.04363007
 20
1081.98566369
  0
VERTEX
  8
0
 10
231.36372089
 20
1081.92850140
  0
VERTEX
  8
0
 10
231.68901955
 20
1081.88716556
  0
VERTEX
  8
0
 10
232.01911765
 20
1081.86206455
  0
VERTEX
  8
0
 10
232.35360679
 20
1081.85360679
  0
VERTEX
  8
0
 10
232.68809593
 20
1081.86206455
  0
VERTEX
  8
0
 10
233.01819403
 20
1081.88716556
  0
VERTEX
  8
0
 10
233.34349269
 20
1081.92850140
  0
VERTEX
  8
0
 10
233.66358350
 20
1081.98566369
  0
VERTEX
  8
0
 10
233.97805806
 20
1082.05824400
  0
VERTEX
  8
0
 10
234.28650796
 20
1082.14583392
  0
VERTEX
  8
0
 10
234.58852478
 20
1082.24802506
  0
VERTEX
  8
0
 10
234.88370013
 20
1082.36440901
  0
VERTEX
  8
0
 10
235.17162559
 20
1082.49457735
  0
VERTEX
  8
0
 10
235.45189276
 20
1082.63812169
  0
VERTEX
  8
0
 10
235.72409323
 20
1082.79463361
  0
VERTEX
  8
0
 10
235.98781860
 20
1082.96370470
  0
VERTEX
  8
0
 10
236.48821039
 20
1083.33789080
  0
VERTEX
  8
0
 10
236.94980087
 20
1083.75741271
  0
VERTEX
  8
0
 10
237.36932278
 20
1084.21900319
  0
VERTEX
  8
0
 10
237.74350888
 20
1084.71939498
  0
VERTEX
  8
0
 10
237.91257997
 20
1084.98312035
  0
VERTEX
  8
0
 10
238.06909189
 20
1085.25532082
  0
VERTEX
  8
0
 10
238.21263622
 20
1085.53558799
  0
VERTEX
  8
0
 10
238.34280457
 20
1085.82351345
  0
VERTEX
  8
0
 10
238.45918851
 20
1086.11868880
  0
VERTEX
  8
0
 10
238.56137965
 20
1086.42070562
  0
VERTEX
  8
0
 10
238.64896958
 20
1086.72915552
  0
VERTEX
  8
0
 10
238.72154989
 20
1087.04363007
  0
VERTEX
  8
0
 10
238.77871217
 20
1087.36372089
  0
VERTEX
  8
0
 10
238.82004802
 20
1087.68901955
  0
VERTEX
  8
0
 10
238.84514903
 20
1088.01911765
  0
VERTEX
  8
0
 10
238.85360679
 20
1088.35360679
  0
VERTEX
  8
0
 10
238.84514903
 20
1088.68809593
  0
VERTEX
  8
0
 10
238.82004802
 20
1089.01819403
  0
VERTEX
  8
0
 10
238.77871217
 20
1089.34349269
  0
VERTEX
  8
0
 10
238.72154989
 20
1089.66358350
  0
VERTEX
  8
0
 10
238.64896958
 20
1089.97805806
  0
VERTEX
  8
0
 10
238.56137965
 20
1090.28650796
  0
VERTEX
  8
0
 10
238.45918851
 20
1090.58852478
  0
VERTEX
  8
0
 10
238.34280457
 20
1090.88370013
  0
VERTEX
  8
0
 10
238.21263622
 20
1091.17162559
  0
VERTEX
  8
0
 10
238.06909189
 20
1091.45189276
  0
VERTEX
  8
0
 10
237.91257997
 20
1091.72409323
  0
VERTEX
  8
0
 10
237.74350888
 20
1091.98781860
  0
VERTEX
  8
0
 10
237.36932278
 20
1092.48821039
  0
VERTEX
  8
0
 10
236.94980087
 20
1092.94980087
  0
VERTEX
  8
0
 10
236.48821039
 20
1093.36932278
  0
VERTEX
  8
0
 10
235.98781860
 20
1093.74350888
  0
VERTEX
  8
0
 10
235.72409323
 20
1093.91257997
  0
VERTEX
  8
0
 10
235.45189276
 20
1094.06909189
  0
VERTEX
  8
0
 10
235.17162559
 20
1094.21263622
  0
VERTEX
  8
0
 10
234.88370013
 20
1094.34280457
  0
VERTEX
  8
0
 10
234.58852478
 20
1094.45918851
  0
VERTEX
  8
0
 10
234.28650796
 20
1094.56137965
  0
VERTEX
  8
0
 10
233.97805806
 20
1094.64896958
  0
VERTEX
  8
0
 10
233.66358350
 20
1094.72154989
  0
VERTEX
  8
0
 10
233.34349269
 20
1094.77871217
  0
VERTEX
  8
0
 10
233.01819403
 20
1094.82004802
  0
VERTEX
  8
0
 10
232.68809593
 20
1094.84514903
  0
VERTEX
  8
0
 10
232.35360679
 20
1094.85360679
  0
VERTEX
  8
0
 10
232.01911765
 20
1094.84514903
  0
VERTEX
  8
0
 10
231.68901955
 20
1094.82004802
  0
VERTEX
  8
0
 10
231.36372089
 20
1094.77871217
  0
VERTEX
  8
0
 10
231.04363007
 20
1094.72154989
  0
VERTEX
  8
0
 10
230.72915552
 20
1094.64896958
  0
VERTEX
  8
0
 10
230.42070562
 20
1094.56137965
  0
VERTEX
  8
0
 10
230.11868880
 20
1094.45918851
  0
VERTEX
  8
0
 10
229.82351345
 20
1094.34280457
  0
VERTEX
  8
0
 10
229.53558799
 20
1094.21263622
  0
VERTEX
  8
0
 10
229.25532082
 20
1094.06909189
  0
VERTEX
  8
0
 10
228.98312035
 20
1093.91257997
  0
VERTEX
  8
0
 10
228.71939498
 20
1093.74350888
  0
VERTEX
  8
0
 10
228.21900319
 20
1093.36932278
  0
VERTEX
  8
0
 10
227.75741271
 20
1092.94980087
  0
VERTEX
  8
0
 10
227.33789080
 20
1092.48821039
  0
VERTEX
  8
0
 10
226.96370470
 20
1091.98781860
  0
VERTEX
  8
0
 10
226.79463361
 20
1091.72409323
  0
VERTEX
  8
0
 10
226.63812169
 20
1091.45189276
  0
VERTEX
  8
0
 10
226.49457735
 20
1091.17162559
  0
VERTEX
  8
0
 10
226.36440901
 20
1090.88370013
  0
VERTEX
  8
0
 10
226.24802506
 20
1090.58852478
  0
VERTEX
  8
0
 10
226.14583392
 20
1090.28650796
  0
VERTEX
  8
0
 10
226.05824400
 20
1089.97805806
  0
VERTEX
  8
0
 10
225.98566369
 20
1089.66358350
  0
VERTEX
  8
0
 10
225.92850140
 20
1089.34349269
  0
VERTEX
  8
0
 10
225.88716556
 20
1089.01819403
  0
VERTEX
  8
0
 10
225.86206455
 20
1088.68809593
  0
VERTEX
  8
0
 10
225.85360679
 20
1088.35360679
  0
SEQEND
  0
POLYLINE
  8
Default Layer
 66
   1
 39
0.000000
 70
    1
  0
VERTEX
  8
0
 10
425.85360679
 20
1083.35360679
  0
VERTEX
  8
0
 10
425.86206455
 20
1083.01911765
  0
VERTEX
  8
0
 10
425.88716556
 20
1082.68901955
  0
VERTEX
  8
0
 10
425.92850140
 20
1082.36372089
  0
VERTEX
  8
0
 10
425.98566369
 20
1082.04363007
  0
VERTEX
  8
0
 10
426.05824400
 20
1081.72915552
  0
VERTEX
  8
0
 10
426.14583392
 20
1081.42070562
  0
VERTEX
  8
0
 10
426.24802506
 20
1081.11868880
  0
VERTEX
  8
0
 10
426.36440901
 20
1080.82351345
  0
VERTEX
  8
0
 10
426.49457735
 20
1080.53558799
  0
VERTEX
  8
0
 10
426.63812169
 20
1080.25532082
  0
VERTEX
  8
0
 10
426.79463361
 20
1079.98312035
  0
VERTEX
  8
0
 10
426.96370470
 20
1079.71939498
  0
VERTEX
  8
0
 10
427.33789080
 20
1079.21900319
  0
VERTEX
  8
0
 10
427.75741271
 20
1078.75741271
  0
VERTEX
  8
0
 10
428.21900319
 20
1078.33789080
  0
VERTEX
  8
0
 10
428.71939498
 20
1077.96370470
  0
VERTEX
  8
0
 10
428.98312035
 20
1077.79463361
  0
VERTEX
  8
0
 10
429.25532082
 20
1077.63812169
  0
VERTEX
  8
0
 10
429.53558799
 20
1077.49457735
  0
VERTEX
  8
0
 10
429.82351345
 20
1077.36440901
  0
VERTEX
  8
0
 10
430.11868880
 20
1077.24802506
  0
VERTEX
  8
0
 10
430.42070562
 20
1077.14583392
  0
VERTEX
  8
0
 10
430.72915552
 20
1077.05824400
  0
VERTEX
  8
0
 10
431.04363007
 20
1076.98566369
  0
VERTEX
  8
0
 10
431.36372089
 20
1076.92850140
  0
VERTEX
  8
0
 10
431.68901955
 20
1076.88716556
  0
VERTEX
  8
0
 10
432.01911765
 20
1076.86206455
  0
VERTEX
  8
0
 10
432.35360679
 20
1076.85360679
  0
VERTEX
  8
0
 10
432.68809593
 20
1076.86206455
  0
VERTEX
  8
0
 10
433.01819403
 20
1076.88716556
  0
VERTEX
  8
0
 10
433.34349269
 20
1076.92850140
  0
VERTEX
  8
0
 10
433.66358350
 20
1076.98566369
  0
VERTEX
  8
0
 10
433.97805806
 20
1077.05824400
  0
VERTEX
  8
0
 10
434.28650796
 20
1077.14583392
  0
VERTEX
  8
0
 10
434.58852478
 20
1077.24802506
  0
VERTEX
  8
0
 10
434.88370013
 20
1077.36440901
  0
VERTEX
  8
0
 10
435.17162559
 20
1077.49457735
  0
VERTEX
  8
0
 10
435.45189276
 20
1077.63812169
  0
VERTEX
  8
0
 10
435.72409323
 20
1077.79463361
  0
VERTEX
  8
0
 10
435.98781860
 20
1077.96370470
  0
VERTEX
  8
0
 10
436.48821039
 20
1078.33789080
  0
VERTEX
  8
0
 10
436.94980087
 20
1078.75741271
  0
VERTEX
  8
0
 10
437.36932278
 20
1079.21900319
  0
VERTEX
  8
0
 10
437.74350888
 20
1079.71939498
  0
VERTEX
  8
0
 10
437.91257997
 20
1079.98312035
  0
VERTEX
  8
0
 10
438.06909189
 20
1080.25532082
  0
VERTEX
  8
0
 10
438.21263622
 20
1080.53558799
  0
VERTEX
  8
0
 10
438.34280457
 20
1080.82351345
  0
VERTEX
  8
0
 10
438.45918851
 20
1081.11868880
  0
VERTEX
  8
0
 10
438.56137965
 20
1081.42070562
  0
VERTEX
  8
0
 10
438.64896958
 20
1081.72915552
  0
VERTEX
  8
0
 10
438.72154989
 20
1082.04363007
  0
VERTEX
  8
0
 10
438.77871217
 20
1082.36372089
  0
VERTEX
  8
0
 10
438.82004802
 20
1082.68901955
  0
VERTEX
  8
0
 10
438.84514903
 20
1083.01911765
  0
VERTEX
  8
0
 10
438.85360679
 20
1083.35360679
  0
VERTEX
  8
0
 10
438.84514903
 20
1083.68809593
  0
VERTEX
  8
0
 10
438.82004802
 20
1084.01819403
  0
VERTEX
  8
0
 10
438.77871217
 20
1084.34349269
  0
VERTEX
  8
0
 10
438.72154989
 20
1084.66358350
  0
VERTEX
  8
0
 10
438.64896958
 20
1084.97805806
  0
VERTEX
  8
0
 10
438.56137965
 20
1085.28650796
  0
VERTEX
  8
0
 10
438.45918851
 20
1085.58852478
  0
VERTEX
  8
0
 10
438.34280457
 20
1085.88370013
  0
VERTEX
  8
0
 10
438.21263622
 20
1086.17162559
  0
VERTEX
  8
0
 10
438.06909189
 20
1086.45189276
  0
VERTEX
  8
0
 10
437.91257997
 20
1086.72409323
  0
VERTEX
  8
0
 10
437.74350888
 20
1086.98781860
  0
VERTEX
  8
0
 10
437.36932278
 20
1087.48821039
  0
VERTEX
  8
0
 10
436.94980087
 20
1087.94980087
  0
VERTEX
  8
0
 10
436.48821039
 20
1088.36932278
  0
VERTEX
  8
0
 10
435.98781860
 20
1088.74350888
  0
VERTEX
  8
0
 10
435.72409323
 20
1088.91257997
  0
VERTEX
  8
0
 10
435.45189276
 20
1089.06909189
  0
VERTEX
  8
0
 10
435.17162559
 20
1089.21263622
  0
VERTEX
  8
0
 10
434.88370013
 20
1089.34280457
  0
VERTEX
  8
0
 10
434.58852478
 20
1089.45918851
  0
VERTEX
  8
0
 10
434.28650796
 20
1089.56137965
  0
VERTEX
  8
0
 10
433.97805806
 20
1089.64896958
  0
VERTEX
  8
0
 10
433.66358350
 20
1089.72154989
  0
VERTEX
  8
0
 10
433.34349269
 20
1089.77871217
  0
VERTEX
  8
0
 10
433.01819403
 20
1089.82004802
  0
VERTEX
  8
0
 10
432.68809593
 20
1089.84514903
  0
VERTEX
  8
0
 10
432.35360679
 20
1089.85360679
  0
VERTEX
  8
0
 10
432.01911765
 20
1089.84514903
  0
VERTEX
  8
0
 10
431.68901955
 20
1089.82004802
  0
VERTEX
  8
0
 10
431.36372089
 20
1089.77871217
  0
VERTEX
  8
0
 10
431.04363007
 20
1089.72154989
  0
VERTEX
  8
0
 10
430.72915552
 20
1089.64896958
  0
VERTEX
  8
0
 10
430.42070562
 20
1089.56137965
  0
VERTEX
  8
0
 10
430.11868880
 20
1089.45918851
  0
VERTEX
  8
0
 10
429.82351345
 20
1089.34280457
  0
VERTEX
  8
0
 10
429.53558799
 20
1089.21263622
  0
VERTEX
  8
0
 10
429.25532082
 20
1089.06909189
  0
VERTEX
  8
0
 10
428.98312035
 20
1088.91257997
  0
VERTEX
  8
0
 10
428.71939498
 20
1088.74350888
  0
VERTEX
  8
0
 10
428.21900319
 20
1088.36932278
  0
VERTEX
  8
0
 10
427.75741271
 20
1087.94980087
  0
VERTEX
  8
0
 10
427.33789080
 20
1087.48821039
  0
VERTEX
  8
0
 10
426.96370470
 20
1086.98781860
  0
VERTEX
  8
0
 10
426.79463361
 20
1086.72409323
  0
VERTEX
  8
0
 10
426.63812169
 20
1086.45189276
  0
VERTEX
  8
0
 10
426.49457735
 20
1086.17162559
  0
VERTEX
  8
0
 10
426.36440901
 20
1085.88370013
  0
VERTEX
  8
0
 10
426.24802506
 20
1085.58852478
  0
VERTEX
  8
0
 10
426.14583392
 20
1085.28650796
  0
VERTEX
  8
0
 10
426.05824400
 20
1084.97805806
  0
VERTEX
  8
0
 10
425.98566369
 20
1084.66358350
  0
VERTEX
  8
0
 10
425.92850140
 20
1084.34349269
  0
VERTEX
  8
0
 10
425.88716556
 20
1084.01819403
  0
VERTEX
  8
0
 10
425.86206455
 20
1083.68809593
  0
VERTEX
  8
0
 10
425.85360679
 20
1083.35360679
  0
SEQEND
  0
POLYLINE
  8
Default Layer
 66
   1
 39
0.000000
 70
    1
  0
VERTEX
  8
0
 10
621.85360679
 20
1076.35360679
  0
VERTEX
  8
0
 10
621.86206455
 20
1076.01911765
  0
VERTEX
  8
0
 10
621.88716556
 20
1075.68901955
  0
VERTEX
  8
0
 10
621.92850140
 20
1075.36372089
  0
VERTEX
  8
0
 10
621.98566369
 20
1075.04363007
  0
VERTEX
  8
0
 10
622.05824400
 20
1074.72915552
  0
VERTEX
  8
0
 10
622.14583392
 20
1074.42070562
  0
VERTEX
  8
0
 10
622.24802506
 20
1074.11868880
  0
VERTEX
  8
0
 10
622.36440901
 20
1073.82351345
  0
VERTEX
  8
0
 10
622.49457735
 20
1073.53558799
  0
VERTEX
  8
0
 10
622.63812169
 20
1073.25532082
  0
VERTEX
  8
0
 10
622.79463361
 20
1072.98312035
  0
VERTEX
  8
0
 10
622.96370470
 20
1072.71939498
  0
VERTEX
  8
0
 10
623.33789080
 20
1072.21900319
  0
VERTEX
  8
0
 10
623.75741271
 20
1071.75741271
  0
VERTEX
  8
0
 10
624.21900319
 20
1071.33789080
  0
VERTEX
  8
0
 10
624.71939498
 20
1070.96370470
  0
VERTEX
  8
0
 10
624.98312035
 20
1070.79463361
  0
VERTEX
  8
0
 10
625.25532082
 20
1070.63812169
  0
VERTEX
  8
0
 10
625.53558799
 20
1070.49457735
  0
VERTEX
  8
0
 10
625.82351345
 20
1070.36440901
  0
VERTEX
  8
0
 10
626.11868880
 20
1070.24802506
  0
VERTEX
  8
0
 10
626.42070562
 20
1070.14583392
  0
VERTEX
  8
0
 10
626.72915552
 20
1070.05824400
  0
VERTEX
  8
0
 10
627.04363007
 20
1069.98566369
  0
VERTEX
  8
0
 10
627.36372089
 20
1069.92850140
  0
VERTEX
  8
0
 10
627.68901955
 20
1069.88716556
  0
VERTEX
  8
0
 10
628.01911765
 20
1069.86206455
  0
VERTEX
  8
0
 10
628.35360679
 20
1069.85360679
  0
VERTEX
  8
0
 10
628.68809593
 20
1069.86206455
  0
VERTEX
  8
0
 10
629.01819403
 20
1069.88716556
  0
VERTEX
  8
0
 10
629.34349269
 20
1069.92850140
  0
VERTEX
  8
0
 10
629.66358350
 20
1069.98566369
  0
VERTEX
  8
0
 10
629.97805806
 20
1070.05824400
  0
VERTEX
  8
0
 10
630.28650796
 20
1070.14583392
  0
VERTEX
  8
0
 10
630.58852478
 20
1070.24802506
  0
VERTEX
  8
0
 10
630.88370013
 20
1070.36440901
  0
VERTEX
  8
0
 10
631.17162559
 20
1070.49457735
  0
VERTEX
  8
0
 10
631.45189276
 20
1070.63812169
  0
VERTEX
  8
0
 10
631.72409323
 20
1070.79463361
  0
VERTEX
  8
0
 10
631.98781860
 20
1070.96370470
  0
VERTEX
  8
0
 10
632.48821039
 20
1071.33789080
  0
VERTEX
  8
0
 10
632.94980087
 20
1071.75741271
  0
VERTEX
  8
0
 10
633.36932278
 20
1072.21900319
  0
VERTEX
  8
0
 10
633.74350888
 20
1072.71939498
  0
VERTEX
  8
0
 10
633.91257997
 20
1072.98312035
  0
VERTEX
  8
0
 10
634.06909189
 20
1073.25532082
  0
VERTEX
  8
0
 10
634.21263622
 20
1073.53558799
  0
VERTEX
  8
0
 10
634.34280457
 20
1073.82351345
  0
VERTEX
  8
0
 10
634.45918851
 20
1074.11868880
  0
VERTEX
  8
0
 10
634.56137965
 20
1074.42070562
  0
VERTEX
  8
0
 10
634.64896958
 20
1074.72915552
  0
VERTEX
  8
0
 10
634.72154989
 20
1075.04363007
  0
VERTEX
  8
0
 10
634.77871217
 20
1075.36372089
  0
VERTEX
  8
0
 10
634.82004802
 20
1075.68901955
  0
VERTEX
  8
0
 10
634.84514903
 20
1076.01911765
  0
VERTEX
  8
0
 10
634.85360679
 20
1076.35360679
  0
VERTEX
  8
0
 10
634.84514903
 20
1076.68809593
  0
VERTEX
  8
0
 10
634.82004802
 20
1077.01819403
  0
VERTEX
  8
0
 10
634.77871217
 20
1077.34349269
  0
VERTEX
  8
0
 10
634.72154989
 20
1077.66358350
  0
VERTEX
  8
0
 10
634.64896958
 20
1077.97805806
  0
VERTEX
  8
0
 10
634.56137965
 20
1078.28650796
  0
VERTEX
  8
0
 10
634.45918851
 20
1078.58852478
  0
VERTEX
  8
0
 10
634.34280457
 20
1078.88370013
  0
VERTEX
  8
0
 10
634.21263622
 20
1079.17162559
  0
VERTEX
  8
0
 10
634.06909189
 20
1079.45189276
  0
VERTEX
  8
0
 10
633.91257997
 20
1079.72409323
  0
VERTEX
  8
0
 10
633.74350888
 20
1079.98781860
  0
VERTEX
  8
0
 10
633.36932278
 20
1080.48821039
  0
VERTEX
  8
0
 10
632.94980087
 20
1080.94980087
  0
VERTEX
  8
0
 10
632.48821039
 20
1081.36932278
  0
VERTEX
  8
0
 10
631.98781860
 20
1081.74350888
  0
VERTEX
  8
0
 10
631.72409323
 20
1081.91257997
  0
VERTEX
  8
0
 10
631.45189276
 20
1082.06909189
  0
VERTEX
  8
0
 10
631.17162559
 20
1082.21263622
  0
VERTEX
  8
0
 10
630.88370013
 20
1082.34280457
  0
VERTEX
  8
0
 10
630.58852478
 20
1082.45918851
  0
VERTEX
  8
0
 10
630.28650796
 20
1082.56137965
  0
VERTEX
  8
0
 10
629.97805806
 20
1082.64896958
  0
VERTEX
  8
0
 10
629.66358350
 20
1082.72154989
  0
VERTEX
  8
0
 10
629.34349269
 20
1082.77871217
  0
VERTEX
  8
0
 10
629.01819403
 20
1082.82004802
  0
VERTEX
  8
0
 10
628.68809593
 20
1082.84514903
  0
VERTEX
  8
0
 10
628.35360679
 20
1082.85360679
  0
VERTEX
  8
0
 10
628.01911765
 20
1082.84514903
  0
VERTEX
  8
0
 10
627.68901955
 20
1082.82004802
  0
VERTEX
  8
0
 10
627.36372089
 20
1082.77871217
  0
VERTEX
  8
0
 10
627.04363007
 20
1082.72154989
  0
VERTEX
  8
0
 10
626.72915552
 20
1082.64896958
  0
VERTEX
  8
0
 10
626.42070562
 20
1082.56137965
  0
VERTEX
  8
0
 10
626.11868880
 20
1082.45918851
  0
VERTEX
  8
0
 10
625.82351345
 20
1082.34280457
  0
VERTEX
  8
0
 10
625.53558799
 20
1082.21263622
  0
VERTEX
  8
0
 10
625.25532082
 20
1082.06909189
  0
VERTEX
  8
0
 10
624.98312035
 20
1081.91257997
  0
VERTEX
  8
0
 10
624.71939498
 20
1081.74350888
  0
VERTEX
  8
0
 10
624.21900319
 20
1081.36932278
  0
VERTEX
  8
0
 10
623.75741271
 20
1080.94980087
  0
VERTEX
  8
0
 10
623.33789080
 20
1080.48821039
  0
VERTEX
  8
0
 10
622.96370470
 20
1079.98781860
  0
VERTEX
  8
0
 10
622.79463361
 20
1079.72409323
  0
VERTEX
  8
0
 10
622.63812169
 20
1079.45189276
  0
VERTEX
  8
0
 10
622.49457735
 20
1079.17162559
  0
VERTEX
  8
0
 10
622.36440901
 20
1078.88370013
  0
VERTEX
  8
0
 10
622.24802506
 20
1078.58852478
  0
VERTEX
  8
0
 10
622.14583392
 20
1078.28650796
  0
VERTEX
  8
0
 10
622.05824400
 20
1077.97805806
  0
VERTEX
  8
0
 10
621.98566369
 20
1077.66358350
  0
VERTEX
  8
0
 10
621.92850140
 20
1077.34349269
  0
VERTEX
  8
0
 10
621.88716556
 20
1077.01819403
  0
VERTEX
  8
0
 10
621.86206455
 20
1076.68809593
  0
VERTEX
  8
0
 10
621.85360679
 20
1076.35360679
  0
SEQEND
  0
POLYLINE
  8
Default Layer
 66
   1
 39
0.000000
 70
    1
  0
VERTEX
  8
0
 10
821.85360679
 20
1070.35360679
  0
VERTEX
  8
0
 10
821.86206455
 20
1070.01911765
  0
VERTEX
  8
0
 10
821.88716556
 20
1069.68901955
  0
VERTEX
  8
0
 10
821.92850140
 20
1069.36372089
  0
VERTEX
  8
0
 10
821.98566369
 20
1069.04363007
  0
VERTEX
  8
0
 10
822.05824400
 20
1068.72915552
  0
VERTEX
  8
0
 10
822.14583392
 20
1068.42070562
  0
VERTEX
  8
0
 10
822.24802506
 20
1068.11868880
  0
VERTEX
  8
0
 10
822.36440901
 20
1067.82351345
  0
VERTEX
  8
0
 10
822.49457735
 20
1067.53558799
  0
VERTEX
  8
0
 10
822.63812169
 20
1067.25532082
  0
VERTEX
  8
0
 10
822.79463361
 20
1066.98312035
  0
VERTEX
  8
0
 10
822.96370470
 20
1066.71939498
  0
VERTEX
  8
0
 10
823.33789080
 20
1066.21900319
  0
VERTEX
  8
0
 10
823.75741271
 20
1065.75741271
  0
VERTEX
  8
0
 10
824.21900319
 20
1065.33789080
  0
VERTEX
  8
0
 10
824.71939498
 20
1064.96370470
  0
VERTEX
  8
0
 10
824.98312035
 20
1064.79463361
  0
VERTEX
  8
0
 10
825.25532082
 20
1064.63812169
  0
VERTEX
  8
0
 10
825.53558799
 20
1064.49457735
  0
VERTEX
  8
0
 10
825.82351345
 20
1064.36440901
  0
VERTEX
  8
0
 10
826.11868880
 20
1064.24802506
  0
VERTEX
  8
0
 10
826.42070562
 20
1064.14583392
  0
VERTEX
  8
0
 10
826.72915552
 20
1064.05824400
  0
VERTEX
  8
0
 10
827.04363007
 20
1063.98566369
  0
VERTEX
  8
0
 10
827.36372089
 20
1063.92850140
  0
VERTEX
  8
0
 10
827.68901955
 20
1063.88716556
  0
VERTEX
  8
0
 10
828.01911765
 20
1063.86206455
  0
VERTEX
  8
0
 10
828.35360679
 20
1063.85360679
  0
VERTEX
  8
0
 10
828.68809593
 20
1063.86206455
  0
VERTEX
  8
0
 10
829.01819403
 20
1063.88716556
  0
VERTEX
  8
0
 10
829.34349269
 20
1063.92850140
  0
VERTEX
  8
0
 10
829.66358350
 20
1063.98566369
  0
VERTEX
  8
0
 10
829.97805806
 20
1064.05824400
  0
VERTEX
  8
0
 10
830.28650796
 20
1064.14583392
  0
VERTEX
  8
0
 10
830.58852478
 20
1064.24802506
  0
VERTEX
  8
0
 10
830.88370013
 20
1064.36440901
  0
VERTEX
  8
0
 10
831.17162559
 20
1064.49457735
  0
VERTEX
  8
0
 10
831.45189276
 20
1064.63812169
  0
VERTEX
  8
0
 10
831.72409323
 20
1064.79463361
  0
VERTEX
  8
0
 10
831.98781860
 20
1064.96370470
  0
VERTEX
  8
0
 10
832.48821039
 20
1065.33789080
  0
VERTEX
  8
0
 10
832.94980087
 20
1065.75741271
  0
VERTEX
  8
0
 10
833.36932278
 20
1066.21900319
  0
VERTEX
  8
0
 10
833.74350888
 20
1066.71939498
  0
VERTEX
  8
0
 10
833.91257997
 20
1066.98312035
  0
VERTEX
  8
0
 10
834.06909189
 20
1067.25532082
  0
VERTEX
  8
0
 10
834.21263622
 20
1067.53558799
  0
VERTEX
  8
0
 10
834.34280457
 20
1067.82351345
  0
VERTEX
  8
0
 10
834.45918851
 20
1068.11868880
  0
VERTEX
  8
0
 10
834.56137965
 20
1068.42070562
  0
VERTEX
  8
0
 10
834.64896958
 20
1068.72915552
  0
VERTEX
  8
0
 10
834.72154989
 20
1069.04363007
  0
VERTEX
  8
0
 10
834.77871217
 20
1069.36372089
  0
VERTEX
  8
0
 10
834.82004802
 20
1069.68901955
  0
VERTEX
  8
0
 10
834.84514903
 20
1070.01911765
  0
VERTEX
  8
0
 10
834.85360679
 20
1070.35360679
  0
VERTEX
  8
0
 10
834.84514903
 20
1070.68809593
  0
VERTEX
  8
0
 10
834.82004802
 20
1071.01819403
  0
VERTEX
  8
0
 10
834.77871217
 20
1071.34349269
  0
VERTEX
  8
0
 10
834.72154989
 20
1071.66358350
  0
VERTEX
  8
0
 10
834.64896958
 20
1071.97805806
  0
VERTEX
  8
0
 10
834.56137965
 20
1072.28650796
  0
VERTEX
  8
0
 10
834.45918851
 20
1072.58852478
  0
VERTEX
  8
0
 10
834.34280457
 20
1072.88370013
  0
VERTEX
  8
0
 10
834.21263622
 20
1073.17162559
  0
VERTEX
  8
0
 10
834.06909189
 20
1073.45189276
  0
VERTEX
  8
0
 10
833.91257997
 20
1073.72409323
  0
VERTEX
  8
0
 10
833.74350888
 20
1073.98781860
  0
VERTEX
  8
0
 10
833.36932278
 20
1074.48821039
  0
VERTEX
  8
0
 10
832.94980087
 20
1074.94980087
  0
VERTEX
  8
0
 10
832.48821039
 20
1075.36932278
  0
VERTEX
  8
0
 10
831.98781860
 20
1075.74350888
  0
VERTEX
  8
0
 10
831.72409323
 20
1075.91257997
  0
VERTEX
  8
0
 10
831.45189276
 20
1076.06909189
  0
VERTEX
  8
0
 10
831.17162559
 20
1076.21263622
  0
VERTEX
  8
0
 10
830.88370013
 20
1076.34280457
  0
VERTEX
  8
0
 10
830.58852478
 20
1076.45918851
  0
VERTEX
  8
0
 10
830.28650796
 20
1076.56137965
  0
VERTEX
  8
0
 10
829.97805806
 20
1076.64896958
  0
VERTEX
  8
0
 10
829.66358350
 20
1076.72154989
  0
VERTEX
  8
0
 10
829.34349269
 20
1076.77871217
  0
VERTEX
  8
0
 10
829.01819403
 20
1076.82004802
  0
VERTEX
  8
0
 10
828.68809593
 20
1076.84514903
  0
VERTEX
  8
0
 10
828.35360679
 20
1076.85360679
  0
VERTEX
  8
0
 10
828.01911765
 20
1076.84514903
  0
VERTEX
  8
0
 10
827.68901955
 20
1076.82004802
  0
VERTEX
  8
0
 10
827.36372089
 20
1076.77871217
  0
VERTEX
  8
0
 10
827.04363007
 20
1076.72154989
  0
VERTEX
  8
0
 10
826.72915552
 20
1076.64896958
  0
VERTEX
  8
0
 10
826.42070562
 20
1076.56137965
  0
VERTEX
  8
0
 10
826.11868880
 20
1076.45918851
  0
VERTEX
  8
0
 10
825.82351345
 20
1076.34280457
  0
VERTEX
  8
0
 10
825.53558799
 20
1076.21263622
  0
VERTEX
  8
0
 10
825.25532082
 20
1076.06909189
  0
VERTEX
  8
0
 10
824.98312035
 20
1075.91257997
  0
VERTEX
  8
0
 10
824.71939498
 20
1075.74350888
  0
VERTEX
  8
0
 10
824.21900319
 20
1075.36932278
  0
VERTEX
  8
0
 10
823.75741271
 20
1074.94980087
  0
VERTEX
  8
0
 10
823.33789080
 20
1074.48821039
  0
VERTEX
  8
0
 10
822.96370470
 20
1073.98781860
  0
VERTEX
  8
0
 10
822.79463361
 20
1073.72409323
  0
VERTEX
  8
0
 10
822.63812169
 20
1073.45189276
  0
VERTEX
  8
0
 10
822.49457735
 20
1073.17162559
  0
VERTEX
  8
0
 10
822.36440901
 20
1072.88370013
  0
VERTEX
  8
0
 10
822.24802506
 20
1072.58852478
  0
VERTEX
  8
0
 10
822.14583392
 20
1072.28650796
  0
VERTEX
  8
0
 10
822.05824400
 20
1071.97805806
  0
VERTEX
  8
0
 10
821.98566369
 20
1071.66358350
  0
VERTEX
  8
0
 10
821.92850140
 20
1071.34349269
  0
VERTEX
  8
0
 10
821.88716556
 20
1071.01819403
  0
VERTEX
  8
0
 10
821.86206455
 20
1070.68809593
  0
VERTEX
  8
0
 10
821.85360679
 20
1070.35360679
  0
SEQEND
  0
POLYLINE
  8
Default Layer
 66
   1
 39
0.000000
 70
    1
  0
VERTEX
  8
0
 10
1029.85360679
 20
1061.35360679
  0
VERTEX
  8
0
 10
1029.86206455
 20
1061.01911765
  0
VERTEX
  8
0
 10
1029.88716556
 20
1060.68901955
  0
VERTEX
  8
0
 10
1029.92850140
 20
1060.36372089
  0
VERTEX
  8
0
 10
1029.98566369
 20
1060.04363007
  0
VERTEX
  8
0
 10
1030.05824400
 20
1059.72915552
  0
VERTEX
  8
0
 10
1030.14583392
 20
1059.42070562
  0
VERTEX
  8
0
 10
1030.24802506
 20
1059.11868880
  0
VERTEX
  8
0
 10
1030.36440901
 20
1058.82351345
  0
VERTEX
  8
0
 10
1030.49457735
 20
1058.53558799
  0
VERTEX
  8
0
 10
1030.63812169
 20
1058.25532082
  0
VERTEX
  8
0
 10
1030.79463361
 20
1057.98312035
  0
VERTEX
  8
0
 10
1030.96370470
 20
1057.71939498
  0
VERTEX
  8
0
 10
1031.33789080
 20
1057.21900319
  0
VERTEX
  8
0
 10
1031.75741271
 20
1056.75741271
  0
VERTEX
  8
0
 10
1032.21900319
 20
1056.33789080
  0
VERTEX
  8
0
 10
1032.71939498
 20
1055.96370470
  0
VERTEX
  8
0
 10
1032.98312035
 20
1055.79463361
  0
VERTEX
  8
0
 10
1033.25532082
 20
1055.63812169
  0
VERTEX
  8
0
 10
1033.53558799
 20
1055.49457735
  0
VERTEX
  8
0
 10
1033.82351345
 20
1055.36440901
  0
VERTEX
  8
0
 10
1034.11868880
 20
1055.24802506
  0
VERTEX
  8
0
 10
1034.42070562
 20
1055.14583392
  0
VERTEX
  8
0
 10
1034.72915552
 20
1055.05824400
  0
VERTEX
  8
0
 10
1035.04363007
 20
1054.98566369
  0
VERTEX
  8
0
 10
1035.36372089
 20
1054.92850140
  0
VERTEX
  8
0
 10
1035.68901955
 20
1054.88716556
  0
VERTEX
  8
0
 10
1036.01911765
 20
1054.86206455
  0
VERTEX
  8
0
 10
1036.35360679
 20
1054.85360679
  0
VERTEX
  8
0
 10
1036.68809593
 20
1054.86206455
  0
VERTEX
  8
0
 10
1037.01819403
 20
1054.88716556
  0
VERTEX
  8
0
 10
1037.34349269
 20
1054.92850140
  0
VERTEX
  8
0
 10
1037.66358350
 20
1054.98566369
  0
VERTEX
  8
0
 10
1037.97805806
 20
1055.05824400
  0
VERTEX
  8
0
 10
1038.28650796
 20
1055.14583392
  0
VERTEX
  8
0
 10
1038.58852478
 20
1055.24802506
  0
VERTEX
  8
0
 10
1038.88370013
 20
1055.36440901
  0
VERTEX
  8
0
 10
1039.17162559
 20
1055.49457735
  0
VERTEX
  8
0
 10
1039.45189276
 20
1055.63812169
  0
VERTEX
  8
0
 10
1039.72409323
 20
1055.79463361
  0
VERTEX
  8
0
 10
1039.98781860
 20
1055.96370470
  0
VERTEX
  8
0
 10
1040.48821039
 20
1056.33789080
  0
VERTEX
  8
0
 10
1040.94980087
 20
1056.75741271
  0
VERTEX
  8
0
 10
1041.36932278
 20
1057.21900319
  0
VERTEX
  8
0
 10
1041.74350888
 20
1057.71939498
  0
VERTEX
  8
0
 10
1041.91257997
 20
1057.98312035
  0
VERTEX
  8
0
 10
1042.06909189
 20
1058.25532082
  0
VERTEX
  8
0
 10
1042.21263622
 20
1058.53558799
  0
VERTEX
  8
0
 10
1042.34280457
 20
1058.82351345
  0
VERTEX
  8
0
 10
1042.45918851
 20
1059.11868880
  0
VERTEX
  8
0
 10
1042.56137965
 20
1059.42070562
  0
VERTEX
  8
0
 10
1042.64896958
 20
1059.72915552
  0
VERTEX
  8
0
 10
1042.72154989
 20
1060.04363007
  0
VERTEX
  8
0
 10
1042.77871217
 20
1060.36372089
  0
VERTEX
  8
0
 10
1042.82004802
 20
1060.68901955
  0
VERTEX
  8
0
 10
1042.84514903
 20
1061.01911765
  0
VERTEX
  8
0
 10
1042.85360679
 20
1061.35360679
  0
VERTEX
  8
0
 10
1042.84514903
 20
1061.68809593
  0
VERTEX
  8
0
 10
1042.82004802
 20
1062.01819403
  0
VERTEX
  8
0
 10
1042.77871217
 20
1062.34349269
  0
VERTEX
  8
0
 10
1042.72154989
 20
1062.66358350
  0
VERTEX
  8
0
 10
1042.64896958
 20
1062.97805806
  0
VERTEX
  8
0
 10
1042.56137965
 20
1063.28650796
  0
VERTEX
  8
0
 10
1042.45918851
 20
1063.58852478
  0
VERTEX
  8
0
 10
1042.34280457
 20
1063.88370013
  0
VERTEX
  8
0
 10
1042.21263622
 20
1064.17162559
  0
VERTEX
  8
0
 10
1042.06909189
 20
1064.45189276
  0
VERTEX
  8
0
 10
1041.91257997
 20
1064.72409323
  0
VERTEX
  8
0
 10
1041.74350888
 20
1064.98781860
  0
VERTEX
  8
0
 10
1041.36932278
 20
1065.48821039
  0
VERTEX
  8
0
 10
1040.94980087
 20
1065.94980087
  0
VERTEX
  8
0
 10
1040.48821039
 20
1066.36932278
  0
VERTEX
  8
0
 10
1039.98781860
 20
1066.74350888
  0
VERTEX
  8
0
 10
1039.72409323
 20
1066.91257997
  0
VERTEX
  8
0
 10
1039.45189276
 20
1067.06909189
  0
VERTEX
  8
0
 10
1039.17162559
 20
1067.21263622
  0
VERTEX
  8
0
 10
1038.88370013
 20
1067.34280457
  0
VERTEX
  8
0
 10
1038.58852478
 20
1067.45918851
  0
VERTEX
  8
0
 10
1038.28650796
 20
1067.56137965
  0
VERTEX
  8
0
 10
1037.97805806
 20
1067.64896958
  0
VERTEX
  8
0
 10
1037.66358350
 20
1067.72154989
  0
VERTEX
  8
0
 10
1037.34349269
 20
1067.77871217
  0
VERTEX
  8
0
 10
1037.01819403
 20
1067.82004802
  0
VERTEX
  8
0
 10
1036.68809593
 20
1067.84514903
  0
VERTEX
  8
0
 10
1036.35360679
 20
1067.85360679
  0
VERTEX
  8
0
 10
1036.01911765
 20
1067.84514903
  0
VERTEX
  8
0
 10
1035.68901955
 20
1067.82004802
  0
VERTEX
  8
0
 10
1035.36372089
 20
1067.77871217
  0
VERTEX
  8
0
 10
1035.04363007
 20
1067.72154989
  0
VERTEX
  8
0
 10
1034.72915552
 20
1067.64896958
  0
VERTEX
  8
0
 10
1034.42070562
 20
1067.56137965
  0
VERTEX
  8
0
 10
1034.11868880
 20
1067.45918851
  0
VERTEX
  8
0
 10
1033.82351345
 20
1067.34280457
  0
VERTEX
  8
0
 10
1033.53558799
 20
1067.21263622
  0
VERTEX
  8
0
 10
1033.25532082
 20
1067.06909189
  0
VERTEX
  8
0
 10
1032.98312035
 20
1066.91257997
  0
VERTEX
  8
0
 10
1032.71939498
 20
1066.74350888
  0
VERTEX
  8
0
 10
1032.21900319
 20
1066.36932278
  0
VERTEX
  8
0
 10
1031.75741271
 20
1065.94980087
  0
VERTEX
  8
0
 10
1031.33789080
 20
1065.48821039
  0
VERTEX
  8
0
 10
1030.96370470
 20
1064.98781860
  0
VERTEX
  8
0
 10
1030.79463361
 20
1064.72409323
  0
VERTEX
  8
0
 10
1030.63812169
 20
1064.45189276
  0
VERTEX
  8
0
 10
1030.49457735
 20
1064.17162559
  0
VERTEX
  8
0
 10
1030.36440901
 20
1063.88370013
  0
VERTEX
  8
0
 10
1030.24802506
 20
1063.58852478
  0
VERTEX
  8
0
 10
1030.14583392
 20
1063.28650796
  0
VERTEX
  8
0
 10
1030.05824400
 20
1062.97805806
  0
VERTEX
  8
0
 10
1029.98566369
 20
1062.66358350
  0
VERTEX
  8
0
 10
1029.92850140
 20
1062.34349269
  0
VERTEX
  8
0
 10
1029.88716556
 20
1062.01819403
  0
VERTEX
  8
0
 10
1029.86206455
 20
1061.68809593
  0
VERTEX
  8
0
 10
1029.85360679
 20
1061.35360679
  0
SEQEND
  0
POLYLINE
  8
Default Layer
 66
   1
 39
0.000000
 70
    1
  0
VERTEX
  8
0
 10
1237.85360679
 20
1053.35360679
  0
VERTEX
  8
0
 10
1237.86206455
 20
1053.01911765
  0
VERTEX
  8
0
 10
1237.88716556
 20
1052.68901955
  0
VERTEX
  8
0
 10
1237.92850140
 20
1052.36372089
  0
VERTEX
  8
0
 10
1237.98566369
 20
1052.04363007
  0
VERTEX
  8
0
 10
1238.05824400
 20
1051.72915552
  0
VERTEX
  8
0
 10
1238.14583392
 20
1051.42070562
  0
VERTEX
  8
0
 10
1238.24802506
 20
1051.11868880
  0
VERTEX
  8
0
 10
1238.36440901
 20
1050.82351345
  0
VERTEX
  8
0
 10
1238.49457735
 20
1050.53558799
  0
VERTEX
  8
0
 10
1238.63812169
 20
1050.25532082
  0
VERTEX
  8
0
 10
1238.79463361
 20
1049.98312035
  0
VERTEX
  8
0
 10
1238.96370470
 20
1049.71939498
  0
VERTEX
  8
0
 10
1239.33789080
 20
1049.21900319
  0
VERTEX
  8
0
 10
1239.75741271
 20
1048.75741271
  0
VERTEX
  8
0
 10
1240.21900319
 20
1048.33789080
  0
VERTEX
  8
0
 10
1240.71939498
 20
1047.96370470
  0
VERTEX
  8
0
 10
1240.98312035
 20
1047.79463361
  0
VERTEX
  8
0
 10
1241.25532082
 20
1047.63812169
  0
VERTEX
  8
0
 10
1241.53558799
 20
1047.49457735
  0
VERTEX
  8
0
 10
1241.82351345
 20
1047.36440901
  0
VERTEX
  8
0
 10
1242.11868880
 20
1047.24802506
  0
VERTEX
  8
0
 10
1242.42070562
 20
1047.14583392
  0
VERTEX
  8
0
 10
1242.72915552
 20
1047.05824400
  0
VERTEX
  8
0
 10
1243.04363007
 20
1046.98566369
  0
VERTEX
  8
0
 10
1243.36372089
 20
1046.92850140
  0
VERTEX
  8
0
 10
1243.68901955
 20
1046.88716556
  0
VERTEX
  8
0
 10
1244.01911765
 20
1046.86206455
  0
VERTEX
  8
0
 10
1244.35360679
 20
1046.85360679
  0
VERTEX
  8
0
 10
1244.68809593
 20
1046.86206455
  0
VERTEX
  8
0
 10
1245.01819403
 20
1046.88716556
  0
VERTEX
  8
0
 10
1245.34349269
 20
1046.92850140
  0
VERTEX
  8
0
 10
1245.66358350
 20
1046.98566369
  0
VERTEX
  8
0
 10
1245.97805806
 20
1047.05824400
  0
VERTEX
  8
0
 10
1246.28650796
 20
1047.14583392
  0
VERTEX
  8
0
 10
1246.58852478
 20
1047.24802506
  0
VERTEX
  8
0
 10
1246.88370013
 20
1047.36440901
  0
VERTEX
  8
0
 10
1247.17162559
 20
1047.49457735
  0
VERTEX
  8
0
 10
1247.45189276
 20
1047.63812169
  0
VERTEX
  8
0
 10
1247.72409323
 20
1047.79463361
  0
VERTEX
  8
0
 10
1247.98781860
 20
1047.96370470
  0
VERTEX
  8
0
 10
1248.48821039
 20
1048.33789080
  0
VERTEX
  8
0
 10
1248.94980087
 20
1048.75741271
  0
VERTEX
  8
0
 10
1249.36932278
 20
1049.21900319
  0
VERTEX
  8
0
 10
1249.74350888
 20
1049.71939498
  0
VERTEX
  8
0
 10
1249.91257997
 20
1049.98312035
  0
VERTEX
  8
0
 10
1250.06909189
 20
1050.25532082
  0
VERTEX
  8
0
 10
1250.21263622
 20
1050.53558799
  0
VERTEX
  8
0
 10
1250.34280457
 20
1050.82351345
  0
VERTEX
  8
0
 10
1250.45918851
 20
1051.11868880
  0
VERTEX
  8
0
 10
1250.56137965
 20
1051.42070562
  0
VERTEX
  8
0
 10
1250.64896958
 20
1051.72915552
  0
VERTEX
  8
0
 10
1250.72154989
 20
1052.04363007
  0
VERTEX
  8
0
 10
1250.77871217
 20
1052.36372089
  0
VERTEX
  8
0
 10
1250.82004802
 20
1052.68901955
  0
VERTEX
  8
0
 10
1250.84514903
 20
1053.01911765
  0
VERTEX
  8
0
 10
1250.85360679
 20
1053.35360679
  0
VERTEX
  8
0
 10
1250.84514903
 20
1053.68809593
  0
VERTEX
  8
0
 10
1250.82004802
 20
1054.01819403
  0
VERTEX
  8
0
 10
1250.77871217
 20
1054.34349269
  0
VERTEX
  8
0
 10
1250.72154989
 20
1054.66358350
  0
VERTEX
  8
0
 10
1250.64896958
 20
1054.97805806
  0
VERTEX
  8
0
 10
1250.56137965
 20
1055.28650796
  0
VERTEX
  8
0
 10
1250.45918851
 20
1055.58852478
  0
VERTEX
  8
0
 10
1250.34280457
 20
1055.88370013
  0
VERTEX
  8
0
 10
1250.21263622
 20
1056.17162559
  0
VERTEX
  8
0
 10
1250.06909189
 20
1056.45189276
  0
VERTEX
  8
0
 10
1249.91257997
 20
1056.72409323
  0
VERTEX
  8
0
 10
1249.74350888
 20
1056.98781860
  0
VERTEX
  8
0
 10
1249.36932278
 20
1057.48821039
  0
VERTEX
  8
0
 10
1248.94980087
 20
1057.94980087
  0
VERTEX
  8
0
 10
1248.48821039
 20
1058.36932278
  0
VERTEX
  8
0
 10
1247.98781860
 20
1058.74350888
  0
VERTEX
  8
0
 10
1247.72409323
 20
1058.91257997
  0
VERTEX
  8
0
 10
1247.45189276
 20
1059.06909189
  0
VERTEX
  8
0
 10
1247.17162559
 20
1059.21263622
  0
VERTEX
  8
0
 10
1246.88370013
 20
1059.34280457
  0
VERTEX
  8
0
 10
1246.58852478
 20
1059.45918851
  0
VERTEX
  8
0
 10
1246.28650796
 20
1059.56137965
  0
VERTEX
  8
0
 10
1245.97805806
 20
1059.64896958
  0
VERTEX
  8
0
 10
1245.66358350
 20
1059.72154989
  0
VERTEX
  8
0
 10
1245.34349269
 20
1059.77871217
  0
VERTEX
  8
0
 10
1245.01819403
 20
1059.82004802
  0
VERTEX
  8
0
 10
1244.68809593
 20
1059.84514903
  0
VERTEX
  8
0
 10
1244.35360679
 20
1059.85360679
  0
VERTEX
  8
0
 10
1244.01911765
 20
1059.84514903
  0
VERTEX
  8
0
 10
1243.68901955
 20
1059.82004802
  0
VERTEX
  8
0
 10
1243.36372089
 20
1059.77871217
  0
VERTEX
  8
0
 10
1243.04363007
 20
1059.72154989
  0
VERTEX
  8
0
 10
1242.72915552
 20
1059.64896958
  0
VERTEX
  8
0
 10
1242.42070562
 20
1059.56137965
  0
VERTEX
  8
0
 10
1242.11868880
 20
1059.45918851
  0
VERTEX
  8
0
 10
1241.82351345
 20
1059.34280457
  0
VERTEX
  8
0
 10
1241.53558799
 20
1059.21263622
  0
VERTEX
  8
0
 10
1241.25532082
 20
1059.06909189
  0
VERTEX
  8
0
 10
1240.98312035
 20
1058.91257997
  0
VERTEX
  8
0
 10
1240.71939498
 20
1058.74350888
  0
VERTEX
  8
0
 10
1240.21900319
 20
1058.36932278
  0
VERTEX
  8
0
 10
1239.75741271
 20
1057.94980087
  0
VERTEX
  8
0
 10
1239.33789080
 20
1057.48821039
  0
VERTEX
  8
0
 10
1238.96370470
 20
1056.98781860
  0
VERTEX
  8
0
 10
1238.79463361
 20
1056.72409323
  0
VERTEX
  8
0
 10
1238.63812169
 20
1056.45189276
  0
VERTEX
  8
0
 10
1238.49457735
 20
1056.17162559
  0
VERTEX
  8
0
 10
1238.36440901
 20
1055.88370013
  0
VERTEX
  8
0
 10
1238.24802506
 20
1055.58852478
  0
VERTEX
  8
0
 10
1238.14583392
 20
1055.28650796
  0
VERTEX
  8
0
 10
1238.05824400
 20
1054.97805806
  0
VERTEX
  8
0
 10
1237.98566369
 20
1054.66358350
  0
VERTEX
  8
0
 10
1237.92850140
 20
1054.34349269
  0
VERTEX
  8
0
 10
1237.88716556
 20
1054.01819403
  0
VERTEX
  8
0
 10
1237.86206455
 20
1053.68809593
  0
VERTEX
  8
0
 10
1237.85360679
 20
1053.35360679
  0
SEQEND
  0
POLYLINE
  8
Default Layer
 66
   1
 39
0.000000
 70
    1
  0
VERTEX
  8
0
 10
1441.85360679
 20
1037.35360679
  0
VERTEX
  8
0
 10
1441.86206455
 20
1037.01911765
  0
VERTEX
  8
0
 10
1441.88716556
 20
1036.68901955
  0
VERTEX
  8
0
 10
1441.92850140
 20
1036.36372089
  0
VERTEX
  8
0
 10
1441.98566369
 20
1036.04363007
  0
VERTEX
  8
0
 10
1442.05824400
 20
1035.72915552
  0
VERTEX
  8
0
 10
1442.14583392
 20
1035.42070562
  0
VERTEX
  8
0
 10
1442.24802506
 20
1035.11868880
  0
VERTEX
  8
0
 10
1442.36440901
 20
1034.82351345
  0
VERTEX
  8
0
 10
1442.49457735
 20
1034.53558799
  0
VERTEX
  8
0
 10
1442.63812169
 20
1034.25532082
  0
VERTEX
  8
0
 10
1442.79463361
 20
1033.98312035
  0
VERTEX
  8
0
 10
1442.96370470
 20
1033.71939498
  0
VERTEX
  8
0
 10
1443.33789080
 20
1033.21900319
  0
VERTEX
  8
0
 10
1443.75741271
 20
1032.75741271
  0
VERTEX
  8
0
 10
1444.21900319
 20
1032.33789080
  0
VERTEX
  8
0
 10
1444.71939498
 20
1031.96370470
  0
VERTEX
  8
0
 10
1444.98312035
 20
1031.79463361
  0
VERTEX
  8
0
 10
1445.25532082
 20
1031.63812169
  0
VERTEX
  8
0
 10
1445.53558799
 20
1031.49457735
  0
VERTEX
  8
0
 10
1445.82351345
 20
1031.36440901
  0
VERTEX
  8
0
 10
1446.11868880
 20
1031.24802506
  0
VERTEX
  8
0
 10
1446.42070562
 20
1031.14583392
  0
VERTEX
  8
0
 10
1446.72915552
 20
1031.05824400
  0
VERTEX
  8
0
 10
1447.04363007
 20
1030.98566369
  0
VERTEX
  8
0
 10
1447.36372089
 20
1030.92850140
  0
VERTEX
  8
0
 10
1447.68901955
 20
1030.88716556
  0
VERTEX
  8
0
 10
1448.01911765
 20
1030.86206455
  0
VERTEX
  8
0
 10
1448.35360679
 20
1030.85360679
  0
VERTEX
  8
0
 10
1448.68809593
 20
1030.86206455
  0
VERTEX
  8
0
 10
1449.01819403
 20
1030.88716556
  0
VERTEX
  8
0
 10
1449.34349269
 20
1030.92850140
  0
VERTEX
  8
0
 10
1449.66358350
 20
1030.98566369
  0
VERTEX
  8
0
 10
1449.97805806
 20
1031.05824400
  0
VERTEX
  8
0
 10
1450.28650796
 20
1031.14583392
  0
VERTEX
  8
0
 10
1450.58852478
 20
1031.24802506
  0
VERTEX
  8
0
 10
1450.88370013
 20
1031.36440901
  0
VERTEX
  8
0
 10
1451.17162559
 20
1031.49457735
  0
VERTEX
  8
0
 10
1451.45189276
 20
1031.63812169
  0
VERTEX
  8
0
 10
1451.72409323
 20
1031.79463361
  0
VERTEX
  8
0
 10
1451.98781860
 20
1031.96370470
  0
VERTEX
  8
0
 10
1452.48821039
 20
1032.33789080
  0
VERTEX
  8
0
 10
1452.94980087
 20
1032.75741271
  0
VERTEX
  8
0
 10
1453.36932278
 20
1033.21900319
  0
VERTEX
  8
0
 10
1453.74350888
 20
1033.71939498
  0
VERTEX
  8
0
 10
1453.91257997
 20
1033.98312035
  0
VERTEX
  8
0
 10
1454.06909189
 20
1034.25532082
  0
VERTEX
  8
0
 10
1454.21263622
 20
1034.53558799
  0
VERTEX
  8
0
 10
1454.34280457
 20
1034.82351345
  0
VERTEX
  8
0
 10
1454.45918851
 20
1035.11868880
  0
VERTEX
  8
0
 10
1454.56137965
 20
1035.42070562
  0
VERTEX
  8
0
 10
1454.64896958
 20
1035.72915552
  0
VERTEX
  8
0
 10
1454.72154989
 20
1036.04363007
  0
VERTEX
  8
0
 10
1454.77871217
 20
1036.36372089
  0
VERTEX
  8
0
 10
1454.82004802
 20
1036.68901955
  0
VERTEX
  8
0
 10
1454.84514903
 20
1037.01911765
  0
VERTEX
  8
0
 10
1454.85360679
 20
1037.35360679
  0
VERTEX
  8
0
 10
1454.84514903
 20
1037.68809593
  0
VERTEX
  8
0
 10
1454.82004802
 20
1038.01819403
  0
VERTEX
  8
0
 10
1454.77871217
 20
1038.34349269
  0
VERTEX
  8
0
 10
1454.72154989
 20
1038.66358350
  0
VERTEX
  8
0
 10
1454.64896958
 20
1038.97805806
  0
VERTEX
  8
0
 10
1454.56137965
 20
1039.28650796
  0
VERTEX
  8
0
 10
1454.45918851
 20
1039.58852478
  0
VERTEX
  8
0
 10
1454.34280457
 20
1039.88370013
  0
VERTEX
  8
0
 10
1454.21263622
 20
1040.17162559
  0
VERTEX
  8
0
 10
1454.06909189
 20
1040.45189276
  0
VERTEX
  8
0
 10
1453.91257997
 20
1040.72409323
  0
VERTEX
  8
0
 10
1453.74350888
 20
1040.98781860
  0
VERTEX
  8
0
 10
1453.36932278
 20
1041.48821039
  0
VERTEX
  8
0
 10
1452.94980087
 20
1041.94980087
  0
VERTEX
  8
0
 10
1452.48821039
 20
1042.36932278
  0
VERTEX
  8
0
 10
1451.98781860
 20
1042.74350888
  0
VERTEX
  8
0
 10
1451.72409323
 20
1042.91257997
  0
VERTEX
  8
0
 10
1451.45189276
 20
1043.06909189
  0
VERTEX
  8
0
 10
1451.17162559
 20
1043.21263622
  0
VERTEX
  8
0
 10
1450.88370013
 20
1043.34280457
  0
VERTEX
  8
0
 10
1450.58852478
 20
1043.45918851
  0
VERTEX
  8
0
 10
1450.28650796
 20
1043.56137965
  0
VERTEX
  8
0
 10
1449.97805806
 20
1043.64896958
  0
VERTEX
  8
0
 10
1449.66358350
 20
1043.72154989
  0
VERTEX
  8
0
 10
1449.34349269
 20
1043.77871217
  0
VERTEX
  8
0
 10
1449.01819403
 20
1043.82004802
  0
VERTEX
  8
0
 10
1448.68809593
 20
1043.84514903
  0
VERTEX
  8
0
 10
1448.35360679
 20
1043.85360679
  0
VERTEX
  8
0
 10
1448.01911765
 20
1043.84514903
  0
VERTEX
  8
0
 10
1447.68901955
 20
1043.82004802
  0
VERTEX
  8
0
 10
1447.36372089
 20
1043.77871217
  0
VERTEX
  8
0
 10
1447.04363007
 20
1043.72154989
  0
VERTEX
  8
0
 10
1446.72915552
 20
1043.64896958
  0
VERTEX
  8
0
 10
1446.42070562
 20
1043.56137965
  0
VERTEX
  8
0
 10
1446.11868880
 20
1043.45918851
  0
VERTEX
  8
0
 10
1445.82351345
 20
1043.34280457
  0
VERTEX
  8
0
 10
1445.53558799
 20
1043.21263622
  0
VERTEX
  8
0
 10
1445.25532082
 20
1043.06909189
  0
VERTEX
  8
0
 10
1444.98312035
 20
1042.91257997
  0
VERTEX
  8
0
 10
1444.71939498
 20
1042.74350888
  0
VERTEX
  8
0
 10
1444.21900319
 20
1042.36932278
  0
VERTEX
  8
0
 10
1443.75741271
 20
1041.94980087
  0
VERTEX
  8
0
 10
1443.33789080
 20
1041.48821039
  0
VERTEX
  8
0
 10
1442.96370470
 20
1040.98781860
  0
VERTEX
  8
0
 10
1442.79463361
 20
1040.72409323
  0
VERTEX
  8
0
 10
1442.63812169
 20
1040.45189276
  0
VERTEX
  8
0
 10
1442.49457735
 20
1040.17162559
  0
VERTEX
  8
0
 10
1442.36440901
 20
1039.88370013
  0
VERTEX
  8
0
 10
1442.24802506
 20
1039.58852478
  0
VERTEX
  8
0
 10
1442.14583392
 20
1039.28650796
  0
VERTEX
  8
0
 10
1442.05824400
 20
1038.97805806
  0
VERTEX
  8
0
 10
1441.98566369
 20
1038.66358350
  0
VERTEX
  8
0
 10
1441.92850140
 20
1038.34349269
  0
VERTEX
  8
0
 10
1441.88716556
 20
1038.01819403
  0
VERTEX
  8
0
 10
1441.86206455
 20
1037.68809593
  0
VERTEX
  8
0
 10
1441.85360679
 20
1037.35360679
  0
SEQEND
  0
POLYLINE
  8
Default Layer
 66
   1
 39
0.000000
 70
    1
  0
VERTEX
  8
0
 10
1464.85360679
 20
796.35360679
  0
VERTEX
  8
0
 10
1464.86206455
 20
796.01911765
  0
VERTEX
  8
0
 10
1464.88716556
 20
795.68901955
  0
VERTEX
  8
0
 10
1464.92850140
 20
795.36372089
  0
VERTEX
  8
0
 10
1464.98566369
 20
795.04363007
  0
VERTEX
  8
0
 10
1465.05824400
 20
794.72915552
  0
VERTEX
  8
0
 10
1465.14583392
 20
794.42070562
  0
VERTEX
  8
0
 10
1465.24802506
 20
794.11868880
  0
VERTEX
  8
0
 10
1465.36440901
 20
793.82351345
  0
VERTEX
  8
0
 10
1465.49457735
 20
793.53558799
  0
VERTEX
  8
0
 10
1465.63812169
 20
793.25532082
  0
VERTEX
  8
0
 10
1465.79463361
 20
792.98312035
  0
VERTEX
  8
0
 10
1465.96370470
 20
792.71939498
  0
VERTEX
  8
0
 10
1466.33789080
 20
792.21900319
  0
VERTEX
  8
0
 10
1466.75741271
 20
791.75741271
  0
VERTEX
  8
0
 10
1467.21900319
 20
791.33789080
  0
VERTEX
  8
0
 10
1467.71939498
 20
790.96370470
  0
VERTEX
  8
0
 10
1467.98312035
 20
790.79463361
  0
VERTEX
  8
0
 10
1468.25532082
 20
790.63812169
  0
VERTEX
  8
0
 10
1468.53558799
 20
790.49457735
  0
VERTEX
  8
0
 10
1468.82351345
 20
790.36440901
  0
VERTEX
  8
0
 10
1469.11868880
 20
790.24802506
  0
VERTEX
  8
0
 10
1469.42070562
 20
790.14583392
  0
VERTEX
  8
0
 10
1469.72915552
 20
790.05824400
  0
VERTEX
  8
0
 10
1470.04363007
 20
789.98566369
  0
VERTEX
  8
0
 10
1470.36372089
 20
789.92850140
  0
VERTEX
  8
0
 10
1470.68901955
 20
789.88716556
  0
VERTEX
  8
0
 10
1471.01911765
 20
789.86206455
  0
VERTEX
  8
0
 10
1471.35360679
 20
789.85360679
  0
VERTEX
  8
0
 10
1471.68809593
 20
789.86206455
  0
VERTEX
  8
0
 10
1472.01819403
 20
789.88716556
  0
VERTEX
  8
0
 10
1472.34349269
 20
789.92850140
  0
VERTEX
  8
0
 10
1472.66358350
 20
789.98566369
  0
VERTEX
  8
0
 10
1472.97805806
 20
790.05824400
  0
VERTEX
  8
0
 10
1473.28650796
 20
790.14583392
  0
VERTEX
  8
0
 10
1473.58852478
 20
790.24802506
  0
VERTEX
  8
0
 10
1473.88370013
 20
790.36440901
  0
VERTEX
  8
0
 10
1474.17162559
 20
790.49457735
  0
VERTEX
  8
0
 10
1474.45189276
 20
790.63812169
  0
VERTEX
  8
0
 10
1474.72409323
 20
790.79463361
  0
VERTEX
  8
0
 10
1474.98781860
 20
790.96370470
  0
VERTEX
  8
0
 10
1475.48821039
 20
791.33789080
  0
VERTEX
  8
0
 10
1475.94980087
 20
791.75741271
  0
VERTEX
  8
0
 10
1476.36932278
 20
792.21900319
  0
VERTEX
  8
0
 10
1476.74350888
 20
792.71939498
  0
VERTEX
  8
0
 10
1476.91257997
 20
792.98312035
  0
VERTEX
  8
0
 10
1477.06909189
 20
793.25532082
  0
VERTEX
  8
0
 10
1477.21263622
 20
793.53558799
  0
VERTEX
  8
0
 10
1477.34280457
 20
793.82351345
  0
VERTEX
  8
0
 10
1477.45918851
 20
794.11868880
  0
VERTEX
  8
0
 10
1477.56137965
 20
794.42070562
  0
VERTEX
  8
0
 10
1477.64896958
 20
794.72915552
  0
VERTEX
  8
0
 10
1477.72154989
 20
795.04363007
  0
VERTEX
  8
0
 10
1477.77871217
 20
795.36372089
  0
VERTEX
  8
0
 10
1477.82004802
 20
795.68901955
  0
VERTEX
  8
0
 10
1477.84514903
 20
796.01911765
  0
VERTEX
  8
0
 10
1477.85360679
 20
796.35360679
  0
VERTEX
  8
0
 10
1477.84514903
 20
796.68809593
  0
VERTEX
  8
0
 10
1477.82004802
 20
797.01819403
  0
VERTEX
  8
0
 10
1477.77871217
 20
797.34349269
  0
VERTEX
  8
0
 10
1477.72154989
 20
797.66358350
  0
VERTEX
  8
0
 10
1477.64896958
 20
797.97805806
  0
VERTEX
  8
0
 10
1477.56137965
 20
798.28650796
  0
VERTEX
  8
0
 10
1477.45918851
 20
798.58852478
  0
VERTEX
  8
0
 10
1477.34280457
 20
798.88370013
  0
VERTEX
  8
0
 10
1477.21263622
 20
799.17162559
  0
VERTEX
  8
0
 10
1477.06909189
 20
799.45189276
  0
VERTEX
  8
0
 10
1476.91257997
 20
799.72409323
  0
VERTEX
  8
0
 10
1476.74350888
 20
799.98781860
  0
VERTEX
  8
0
 10
1476.36932278
 20
800.48821039
  0
VERTEX
  8
0
 10
1475.94980087
 20
800.94980087
  0
VERTEX
  8
0
 10
1475.48821039
 20
801.36932278
  0
VERTEX
  8
0
 10
1474.98781860
 20
801.74350888
  0
VERTEX
  8
0
 10
1474.72409323
 20
801.91257997
  0
VERTEX
  8
0
 10
1474.45189276
 20
802.06909189
  0
VERTEX
  8
0
 10
1474.17162559
 20
802.21263622
  0
VERTEX
  8
0
 10
1473.88370013
 20
802.34280457
  0
VERTEX
  8
0
 10
1473.58852478
 20
802.45918851
  0
VERTEX
  8
0
 10
1473.28650796
 20
802.56137965
  0
VERTEX
  8
0
 10
1472.97805806
 20
802.64896958
  0
VERTEX
  8
0
 10
1472.66358350
 20
802.72154989
  0
VERTEX
  8
0
 10
1472.34349269
 20
802.77871217
  0
VERTEX
  8
0
 10
1472.01819403
 20
802.82004802
  0
VERTEX
  8
0
 10
1471.68809593
 20
802.84514903
  0
VERTEX
  8
0
 10
1471.35360679
 20
802.85360679
  0
VERTEX
  8
0
 10
1471.01911765
 20
802.84514903
  0
VERTEX
  8
0
 10
1470.68901955
 20
802.82004802
  0
VERTEX
  8
0
 10
1470.36372089
 20
802.77871217
  0
VERTEX
  8
0
 10
1470.04363007
 20
802.72154989
  0
VERTEX
  8
0
 10
1469.72915552
 20
802.64896958
  0
VERTEX
  8
0
 10
1469.42070562
 20
802.56137965
  0
VERTEX
  8
0
 10
1469.11868880
 20
802.45918851
  0
VERTEX
  8
0
 10
1468.82351345
 20
802.34280457
  0
VERTEX
  8
0
 10
1468.53558799
 20
802.21263622
  0
VERTEX
  8
0
 10
1468.25532082
 20
802.06909189
  0
VERTEX
  8
0
 10
1467.98312035
 20
801.91257997
  0
VERTEX
  8
0
 10
1467.71939498
 20
801.74350888
  0
VERTEX
  8
0
 10
1467.21900319
 20
801.36932278
  0
VERTEX
  8
0
 10
1466.75741271
 20
800.94980087
  0
VERTEX
  8
0
 10
1466.33789080
 20
800.48821039
  0
VERTEX
  8
0
 10
1465.96370470
 20
799.98781860
  0
VERTEX
  8
0
 10
1465.79463361
 20
799.72409323
  0
VERTEX
  8
0
 10
1465.63812169
 20
799.45189276
  0
VERTEX
  8
0
 10
1465.49457735
 20
799.17162559
  0
VERTEX
  8
0
 10
1465.36440901
 20
798.88370013
  0
VERTEX
  8
0
 10
1465.24802506
 20
798.58852478
  0
VERTEX
  8
0
 10
1465.14583392
 20
798.28650796
  0
VERTEX
  8
0
 10
1465.05824400
 20
797.97805806
  0
VERTEX
  8
0
 10
1464.98566369
 20
797.66358350
  0
VERTEX
  8
0
 10
1464.92850140
 20
797.34349269
  0
VERTEX
  8
0
 10
1464.88716556
 20
797.01819403
  0
VERTEX
  8
0
 10
1464.86206455
 20
796.68809593
  0
VERTEX
  8
0
 10
1464.85360679
 20
796.35360679
  0
SEQEND
  0
POLYLINE
  8
Default Layer
 66
   1
 39
0.000000
 70
    1
  0
VERTEX
  8
0
 10
1467.85360679
 20
554.35360679
  0
VERTEX
  8
0
 10
1467.86206455
 20
554.01911765
  0
VERTEX
  8
0
 10
1467.88716556
 20
553.68901955
  0
VERTEX
  8
0
 10
1467.92850140
 20
553.36372089
  0
VERTEX
  8
0
 10
1467.98566369
 20
553.04363007
  0
VERTEX
  8
0
 10
1468.05824400
 20
552.72915552
  0
VERTEX
  8
0
 10
1468.14583392
 20
552.42070562
  0
VERTEX
  8
0
 10
1468.24802506
 20
552.11868880
  0
VERTEX
  8
0
 10
1468.36440901
 20
551.82351345
  0
VERTEX
  8
0
 10
1468.49457735
 20
551.53558799
  0
VERTEX
  8
0
 10
1468.63812169
 20
551.25532082
  0
VERTEX
  8
0
 10
1468.79463361
 20
550.98312035
  0
VERTEX
  8
0
 10
1468.96370470
 20
550.71939498
  0
VERTEX
  8
0
 10
1469.33789080
 20
550.21900319
  0
VERTEX
  8
0
 10
1469.75741271
 20
549.75741271
  0
VERTEX
  8
0
 10
1470.21900319
 20
549.33789080
  0
VERTEX
  8
0
 10
1470.71939498
 20
548.96370470
  0
VERTEX
  8
0
 10
1470.98312035
 20
548.79463361
  0
VERTEX
  8
0
 10
1471.25532082
 20
548.63812169
  0
VERTEX
  8
0
 10
1471.53558799
 20
548.49457735
  0
VERTEX
  8
0
 10
1471.82351345
 20
548.36440901
  0
VERTEX
  8
0
 10
1472.11868880
 20
548.24802506
  0
VERTEX
  8
0
 10
1472.42070562
 20
548.14583392
  0
VERTEX
  8
0
 10
1472.72915552
 20
548.05824400
  0
VERTEX
  8
0
 10
1473.04363007
 20
547.98566369
  0
VERTEX
  8
0
 10
1473.36372089
 20
547.92850140
  0
VERTEX
  8
0
 10
1473.68901955
 20
547.88716556
  0
VERTEX
  8
0
 10
1474.01911765
 20
547.86206455
  0
VERTEX
  8
0
 10
1474.35360679
 20
547.85360679
  0
VERTEX
  8
0
 10
1474.68809593
 20
547.86206455
  0
VERTEX
  8
0
 10
1475.01819403
 20
547.88716556
  0
VERTEX
  8
0
 10
1475.34349269
 20
547.92850140
  0
VERTEX
  8
0
 10
1475.66358350
 20
547.98566369
  0
VERTEX
  8
0
 10
1475.97805806
 20
548.05824400
  0
VERTEX
  8
0
 10
1476.28650796
 20
548.14583392
  0
VERTEX
  8
0
 10
1476.58852478
 20
548.24802506
  0
VERTEX
  8
0
 10
1476.88370013
 20
548.36440901
  0
VERTEX
  8
0
 10
1477.17162559
 20
548.49457735
  0
VERTEX
  8
0
 10
1477.45189276
 20
548.63812169
  0
VERTEX
  8
0
 10
1477.72409323
 20
548.79463361
  0
VERTEX
  8
0
 10
1477.98781860
 20
548.96370470
  0
VERTEX
  8
0
 10
1478.48821039
 20
549.33789080
  0
VERTEX
  8
0
 10
1478.94980087
 20
549.75741271
  0
VERTEX
  8
0
 10
1479.36932278
 20
550.21900319
  0
VERTEX
  8
0
 10
1479.74350888
 20
550.71939498
  0
VERTEX
  8
0
 10
1479.91257997
 20
550.98312035
  0
VERTEX
  8
0
 10
1480.06909189
 20
551.25532082
  0
VERTEX
  8
0
 10
1480.21263622
 20
551.53558799
  0
VERTEX
  8
0
 10
1480.34280457
 20
551.82351345
  0
VERTEX
  8
0
 10
1480.45918851
 20
552.11868880
  0
VERTEX
  8
0
 10
1480.56137965
 20
552.42070562
  0
VERTEX
  8
0
 10
1480.64896958
 20
552.72915552
  0
VERTEX
  8
0
 10
1480.72154989
 20
553.04363007
  0
VERTEX
  8
0
 10
1480.77871217
 20
553.36372089
  0
VERTEX
  8
0
 10
1480.82004802
 20
553.68901955
  0
VERTEX
  8
0
 10
1480.84514903
 20
554.01911765
  0
VERTEX
  8
0
 10
1480.85360679
 20
554.35360679
  0
VERTEX
  8
0
 10
1480.84514903
 20
554.68809593
  0
VERTEX
  8
0
 10
1480.82004802
 20
555.01819403
  0
VERTEX
  8
0
 10
1480.77871217
 20
555.34349269
  0
VERTEX
  8
0
 10
1480.72154989
 20
555.66358350
  0
VERTEX
  8
0
 10
1480.64896958
 20
555.97805806
  0
VERTEX
  8
0
 10
1480.56137965
 20
556.28650796
  0
VERTEX
  8
0
 10
1480.45918851
 20
556.58852478
  0
VERTEX
  8
0
 10
1480.34280457
 20
556.88370013
  0
VERTEX
  8
0
 10
1480.21263622
 20
557.17162559
  0
VERTEX
  8
0
 10
1480.06909189
 20
557.45189276
  0
VERTEX
  8
0
 10
1479.91257997
 20
557.72409323
  0
VERTEX
  8
0
 10
1479.74350888
 20
557.98781860
  0
VERTEX
  8
0
 10
1479.36932278
 20
558.48821039
  0
VERTEX
  8
0
 10
1478.94980087
 20
558.94980087
  0
VERTEX
  8
0
 10
1478.48821039
 20
559.36932278
  0
VERTEX
  8
0
 10
1477.98781860
 20
559.74350888
  0
VERTEX
  8
0
 10
1477.72409323
 20
559.91257997
  0
VERTEX
  8
0
 10
1477.45189276
 20
560.06909189
  0
VERTEX
  8
0
 10
1477.17162559
 20
560.21263622
  0
VERTEX
  8
0
 10
1476.88370013
 20
560.34280457
  0
VERTEX
  8
0
 10
1476.58852478
 20
560.45918851
  0
VERTEX
  8
0
 10
1476.28650796
 20
560.56137965
  0
VERTEX
  8
0
 10
1475.97805806
 20
560.64896958
  0
VERTEX
  8
0
 10
1475.66358350
 20
560.72154989
  0
VERTEX
  8
0
 10
1475.34349269
 20
560.77871217
  0
VERTEX
  8
0
 10
1475.01819403
 20
560.82004802
  0
VERTEX
  8
0
 10
1474.68809593
 20
560.84514903
  0
VERTEX
  8
0
 10
1474.35360679
 20
560.85360679
  0
VERTEX
  8
0
 10
1474.01911765
 20
560.84514903
  0
VERTEX
  8
0
 10
1473.68901955
 20
560.82004802
  0
VERTEX
  8
0
 10
1473.36372089
 20
560.77871217
  0
VERTEX
  8
0
 10
1473.04363007
 20
560.72154989
  0
VERTEX
  8
0
 10
1472.72915552
 20
560.64896958
  0
VERTEX
  8
0
 10
1472.42070562
 20
560.56137965
  0
VERTEX
  8
0
 10
1472.11868880
 20
560.45918851
  0
VERTEX
  8
0
 10
1471.82351345
 20
560.34280457
  0
VERTEX
  8
0
 10
1471.53558799
 20
560.21263622
  0
VERTEX
  8
0
 10
1471.25532082
 20
560.06909189
  0
VERTEX
  8
0
 10
1470.98312035
 20
559.91257997
  0
VERTEX
  8
0
 10
1470.71939498
 20
559.74350888
  0
VERTEX
  8
0
 10
1470.21900319
 20
559.36932278
  0
VERTEX
  8
0
 10
1469.75741271
 20
558.94980087
  0
VERTEX
  8
0
 10
1469.33789080
 20
558.48821039
  0
VERTEX
  8
0
 10
1468.96370470
 20
557.98781860
  0
VERTEX
  8
0
 10
1468.79463361
 20
557.72409323
  0
VERTEX
  8
0
 10
1468.63812169
 20
557.45189276
  0
VERTEX
  8
0
 10
1468.49457735
 20
557.17162559
  0
VERTEX
  8
0
 10
1468.36440901
 20
556.88370013
  0
VERTEX
  8
0
 10
1468.24802506
 20
556.58852478
  0
VERTEX
  8
0
 10
1468.14583392
 20
556.28650796
  0
VERTEX
  8
0
 10
1468.05824400
 20
555.97805806
  0
VERTEX
  8
0
 10
1467.98566369
 20
555.66358350
  0
VERTEX
  8
0
 10
1467.92850140
 20
555.34349269
  0
VERTEX
  8
0
 10
1467.88716556
 20
555.01819403
  0
VERTEX
  8
0
 10
1467.86206455
 20
554.68809593
  0
VERTEX
  8
0
 10
1467.85360679
 20
554.35360679
  0
SEQEND
  0
POLYLINE
  8
Default Layer
 66
   1
 39
0.000000
 70
    1
  0
VERTEX
  8
0
 10
1463.85360679
 20
314.35360679
  0
VERTEX
  8
0
 10
1463.86206455
 20
314.01911765
  0
VERTEX
  8
0
 10
1463.88716556
 20
313.68901955
  0
VERTEX
  8
0
 10
1463.92850140
 20
313.36372089
  0
VERTEX
  8
0
 10
1463.98566369
 20
313.04363007
  0
VERTEX
  8
0
 10
1464.05824400
 20
312.72915552
  0
VERTEX
  8
0
 10
1464.14583392
 20
312.42070562
  0
VERTEX
  8
0
 10
1464.24802506
 20
312.11868880
  0
VERTEX
  8
0
 10
1464.36440901
 20
311.82351345
  0
VERTEX
  8
0
 10
1464.49457735
 20
311.53558799
  0
VERTEX
  8
0
 10
1464.63812169
 20
311.25532082
  0
VERTEX
  8
0
 10
1464.79463361
 20
310.98312035
  0
VERTEX
  8
0
 10
1464.96370470
 20
310.71939498
  0
VERTEX
  8
0
 10
1465.33789080
 20
310.21900319
  0
VERTEX
  8
0
 10
1465.75741271
 20
309.75741271
  0
VERTEX
  8
0
 10
1466.21900319
 20
309.33789080
  0
VERTEX
  8
0
 10
1466.71939498
 20
308.96370470
  0
VERTEX
  8
0
 10
1466.98312035
 20
308.79463361
  0
VERTEX
  8
0
 10
1467.25532082
 20
308.63812169
  0
VERTEX
  8
0
 10
1467.53558799
 20
308.49457735
  0
VERTEX
  8
0
 10
1467.82351345
 20
308.36440901
  0
VERTEX
  8
0
 10
1468.11868880
 20
308.24802506
  0
VERTEX
  8
0
 10
1468.42070562
 20
308.14583392
  0
VERTEX
  8
0
 10
1468.72915552
 20
308.05824400
  0
VERTEX
  8
0
 10
1469.04363007
 20
307.98566369
  0
VERTEX
  8
0
 10
1469.36372089
 20
307.92850140
  0
VERTEX
  8
0
 10
1469.68901955
 20
307.88716556
  0
VERTEX
  8
0
 10
1470.01911765
 20
307.86206455
  0
VERTEX
  8
0
 10
1470.35360679
 20
307.85360679
  0
VERTEX
  8
0
 10
1470.68809593
 20
307.86206455
  0
VERTEX
  8
0
 10
1471.01819403
 20
307.88716556
  0
VERTEX
  8
0
 10
1471.34349269
 20
307.92850140
  0
VERTEX
  8
0
 10
1471.66358350
 20
307.98566369
  0
VERTEX
  8
0
 10
1471.97805806
 20
308.05824400
  0
VERTEX
  8
0
 10
1472.28650796
 20
308.14583392
  0
VERTEX
  8
0
 10
1472.58852478
 20
308.24802506
  0
VERTEX
  8
0
 10
1472.88370013
 20
308.36440901
  0
VERTEX
  8
0
 10
1473.17162559
 20
308.49457735
  0
VERTEX
  8
0
 10
1473.45189276
 20
308.63812169
  0
VERTEX
  8
0
 10
1473.72409323
 20
308.79463361
  0
VERTEX
  8
0
 10
1473.98781860
 20
308.96370470
  0
VERTEX
  8
0
 10
1474.48821039
 20
309.33789080
  0
VERTEX
  8
0
 10
1474.94980087
 20
309.75741271
  0
VERTEX
  8
0
 10
1475.36932278
 20
310.21900319
  0
VERTEX
  8
0
 10
1475.74350888
 20
310.71939498
  0
VERTEX
  8
0
 10
1475.91257997
 20
310.98312035
  0
VERTEX
  8
0
 10
1476.06909189
 20
311.25532082
  0
VERTEX
  8
0
 10
1476.21263622
 20
311.53558799
  0
VERTEX
  8
0
 10
1476.34280457
 20
311.82351345
  0
VERTEX
  8
0
 10
1476.45918851
 20
312.11868880
  0
VERTEX
  8
0
 10
1476.56137965
 20
312.42070562
  0
VERTEX
  8
0
 10
1476.64896958
 20
312.72915552
  0
VERTEX
  8
0
 10
1476.72154989
 20
313.04363007
  0
VERTEX
  8
0
 10
1476.77871217
 20
313.36372089
  0
VERTEX
  8
0
 10
1476.82004802
 20
313.68901955
  0
VERTEX
  8
0
 10
1476.84514903
 20
314.01911765
  0
VERTEX
  8
0
 10
1476.85360679
 20
314.35360679
  0
VERTEX
  8
0
 10
1476.84514903
 20
314.68809593
  0
VERTEX
  8
0
 10
1476.82004802
 20
315.01819403
  0
VERTEX
  8
0
 10
1476.77871217
 20
315.34349269
  0
VERTEX
  8
0
 10
1476.72154989
 20
315.66358350
  0
VERTEX
  8
0
 10
1476.64896958
 20
315.97805806
  0
VERTEX
  8
0
 10
1476.56137965
 20
316.28650796
  0
VERTEX
  8
0
 10
1476.45918851
 20
316.58852478
  0
VERTEX
  8
0
 10
1476.34280457
 20
316.88370013
  0
VERTEX
  8
0
 10
1476.21263622
 20
317.17162559
  0
VERTEX
  8
0
 10
1476.06909189
 20
317.45189276
  0
VERTEX
  8
0
 10
1475.91257997
 20
317.72409323
  0
VERTEX
  8
0
 10
1475.74350888
 20
317.98781860
  0
VERTEX
  8
0
 10
1475.36932278
 20
318.48821039
  0
VERTEX
  8
0
 10
1474.94980087
 20
318.94980087
  0
VERTEX
  8
0
 10
1474.48821039
 20
319.36932278
  0
VERTEX
  8
0
 10
1473.98781860
 20
319.74350888
  0
VERTEX
  8
0
 10
1473.72409323
 20
319.91257997
  0
VERTEX
  8
0
 10
1473.45189276
 20
320.06909189
  0
VERTEX
  8
0
 10
1473.17162559
 20
320.21263622
  0
VERTEX
  8
0
 10
1472.88370013
 20
320.34280457
  0
VERTEX
  8
0
 10
1472.58852478
 20
320.45918851
  0
VERTEX
  8
0
 10
1472.28650796
 20
320.56137965
  0
VERTEX
  8
0
 10
1471.97805806
 20
320.64896958
  0
VERTEX
  8
0
 10
1471.66358350
 20
320.72154989
  0
VERTEX
  8
0
 10
1471.34349269
 20
320.77871217
  0
VERTEX
  8
0
 10
1471.01819403
 20
320.82004802
  0
VERTEX
  8
0
 10
1470.68809593
 20
320.84514903
  0
VERTEX
  8
0
 10
1470.35360679
 20
320.85360679
  0
VERTEX
  8
0
 10
1470.01911765
 20
320.84514903
  0
VERTEX
  8
0
 10
1469.68901955
 20
320.82004802
  0
VERTEX
  8
0
 10
1469.36372089
 20
320.77871217
  0
VERTEX
  8
0
 10
1469.04363007
 20
320.72154989
  0
VERTEX
  8
0
 10
1468.72915552
 20
320.64896958
  0
VERTEX
  8
0
 10
1468.42070562
 20
320.56137965
  0
VERTEX
  8
0
 10
1468.11868880
 20
320.45918851
  0
VERTEX
  8
0
 10
1467.82351345
 20
320.34280457
  0
VERTEX
  8
0
 10
1467.53558799
 20
320.21263622
  0
VERTEX
  8
0
 10
1467.25532082
 20
320.06909189
  0
VERTEX
  8
0
 10
1466.98312035
 20
319.91257997
  0
VERTEX
  8
0
 10
1466.71939498
 20
319.74350888
  0
VERTEX
  8
0
 10
1466.21900319
 20
319.36932278
  0
VERTEX
  8
0
 10
1465.75741271
 20
318.94980087
  0
VERTEX
  8
0
 10
1465.33789080
 20
318.48821039
  0
VERTEX
  8
0
 10
1464.96370470
 20
317.98781860
  0
VERTEX
  8
0
 10
1464.79463361
 20
317.72409323
  0
VERTEX
  8
0
 10
1464.63812169
 20
317.45189276
  0
VERTEX
  8
0
 10
1464.49457735
 20
317.17162559
  0
VERTEX
  8
0
 10
1464.36440901
 20
316.88370013
  0
VERTEX
  8
0
 10
1464.24802506
 20
316.58852478
  0
VERTEX
  8
0
 10
1464.14583392
 20
316.28650796
  0
VERTEX
  8
0
 10
1464.05824400
 20
315.97805806
  0
VERTEX
  8
0
 10
1463.98566369
 20
315.66358350
  0
VERTEX
  8
0
 10
1463.92850140
 20
315.34349269
  0
VERTEX
  8
0
 10
1463.88716556
 20
315.01819403
  0
VERTEX
  8
0
 10
1463.86206455
 20
314.68809593
  0
VERTEX
  8
0
 10
1463.85360679
 20
314.35360679
  0
SEQEND
  0
POLYLINE
  8
Default Layer
 66
   1
 39
0.000000
 70
    1
  0
VERTEX
  8
0
 10
822.85360679
 20
557.35360679
  0
VERTEX
  8
0
 10
822.86206455
 20
557.01911765
  0
VERTEX
  8
0
 10
822.88716556
 20
556.68901955
  0
VERTEX
  8
0
 10
822.92850140
 20
556.36372089
  0
VERTEX
  8
0
 10
822.98566369
 20
556.04363007
  0
VERTEX
  8
0
 10
823.05824400
 20
555.72915552
  0
VERTEX
  8
0
 10
823.14583392
 20
555.42070562
  0
VERTEX
  8
0
 10
823.24802506
 20
555.11868880
  0
VERTEX
  8
0
 10
823.36440901
 20
554.82351345
  0
VERTEX
  8
0
 10
823.49457735
 20
554.53558799
  0
VERTEX
  8
0
 10
823.63812169
 20
554.25532082
  0
VERTEX
  8
0
 10
823.79463361
 20
553.98312035
  0
VERTEX
  8
0
 10
823.96370470
 20
553.71939498
  0
VERTEX
  8
0
 10
824.33789080
 20
553.21900319
  0
VERTEX
  8
0
 10
824.75741271
 20
552.75741271
  0
VERTEX
  8
0
 10
825.21900319
 20
552.33789080
  0
VERTEX
  8
0
 10
825.71939498
 20
551.96370470
  0
VERTEX
  8
0
 10
825.98312035
 20
551.79463361
  0
VERTEX
  8
0
 10
826.25532082
 20
551.63812169
  0
VERTEX
  8
0
 10
826.53558799
 20
551.49457735
  0
VERTEX
  8
0
 10
826.82351345
 20
551.36440901
  0
VERTEX
  8
0
 10
827.11868880
 20
551.24802506
  0
VERTEX
  8
0
 10
827.42070562
 20
551.14583392
  0
VERTEX
  8
0
 10
827.72915552
 20
551.05824400
  0
VERTEX
  8
0
 10
828.04363007
 20
550.98566369
  0
VERTEX
  8
0
 10
828.36372089
 20
550.92850140
  0
VERTEX
  8
0
 10
828.68901955
 20
550.88716556
  0
VERTEX
  8
0
 10
829.01911765
 20
550.86206455
  0
VERTEX
  8
0
 10
829.35360679
 20
550.85360679
  0
VERTEX
  8
0
 10
829.68809593
 20
550.86206455
  0
VERTEX
  8
0
 10
830.01819403
 20
550.88716556
  0
VERTEX
  8
0
 10
830.34349269
 20
550.92850140
  0
VERTEX
  8
0
 10
830.66358350
 20
550.98566369
  0
VERTEX
  8
0
 10
830.97805806
 20
551.05824400
  0
VERTEX
  8
0
 10
831.28650796
 20
551.14583392
  0
VERTEX
  8
0
 10
831.58852478
 20
551.24802506
  0
VERTEX
  8
0
 10
831.88370013
 20
551.36440901
  0
VERTEX
  8
0
 10
832.17162559
 20
551.49457735
  0
VERTEX
  8
0
 10
832.45189276
 20
551.63812169
  0
VERTEX
  8
0
 10
832.72409323
 20
551.79463361
  0
VERTEX
  8
0
 10
832.98781860
 20
551.96370470
  0
VERTEX
  8
0
 10
833.48821039
 20
552.33789080
  0
VERTEX
  8
0
 10
833.94980087
 20
552.75741271
  0
VERTEX
  8
0
 10
834.36932278
 20
553.21900319
  0
VERTEX
  8
0
 10
834.74350888
 20
553.71939498
  0
VERTEX
  8
0
 10
834.91257997
 20
553.98312035
  0
VERTEX
  8
0
 10
835.06909189
 20
554.25532082
  0
VERTEX
  8
0
 10
835.21263622
 20
554.53558799
  0
VERTEX
  8
0
 10
835.34280457
 20
554.82351345
  0
VERTEX
  8
0
 10
835.45918851
 20
555.11868880
  0
VERTEX
  8
0
 10
835.56137965
 20
555.42070562
  0
VERTEX
  8
0
 10
835.64896958
 20
555.72915552
  0
VERTEX
  8
0
 10
835.72154989
 20
556.04363007
  0
VERTEX
  8
0
 10
835.77871217
 20
556.36372089
  0
VERTEX
  8
0
 10
835.82004802
 20
556.68901955
  0
VERTEX
  8
0
 10
835.84514903
 20
557.01911765
  0
VERTEX
  8
0
 10
835.85360679
 20
557.35360679
  0
VERTEX
  8
0
 10
835.84514903
 20
557.68809593
  0
VERTEX
  8
0
 10
835.82004802
 20
558.01819403
  0
VERTEX
  8
0
 10
835.77871217
 20
558.34349269
  0
VERTEX
  8
0
 10
835.72154989
 20
558.66358350
  0
VERTEX
  8
0
 10
835.64896958
 20
558.97805806
  0
VERTEX
  8
0
 10
835.56137965
 20
559.28650796
  0
VERTEX
  8
0
 10
835.45918851
 20
559.58852478
  0
VERTEX
  8
0
 10
835.34280457
 20
559.88370013
  0
VERTEX
  8
0
 10
835.21263622
 20
560.17162559
  0
VERTEX
  8
0
 10
835.06909189
 20
560.45189276
  0
VERTEX
  8
0
 10
834.91257997
 20
560.72409323
  0
VERTEX
  8
0
 10
834.74350888
 20
560.98781860
  0
VERTEX
  8
0
 10
834.36932278
 20
561.48821039
  0
VERTEX
  8
0
 10
833.94980087
 20
561.94980087
  0
VERTEX
  8
0
 10
833.48821039
 20
562.36932278
  0
VERTEX
  8
0
 10
832.98781860
 20
562.74350888
  0
VERTEX
  8
0
 10
832.72409323
 20
562.91257997
  0
VERTEX
  8
0
 10
832.45189276
 20
563.06909189
  0
VERTEX
  8
0
 10
832.17162559
 20
563.21263622
  0
VERTEX
  8
0
 10
831.88370013
 20
563.34280457
  0
VERTEX
  8
0
 10
831.58852478
 20
563.45918851
  0
VERTEX
  8
0
 10
831.28650796
 20
563.56137965
  0
VERTEX
  8
0
 10
830.97805806
 20
563.64896958
  0
VERTEX
  8
0
 10
830.66358350
 20
563.72154989
  0
VERTEX
  8
0
 10
830.34349269
 20
563.77871217
  0
VERTEX
  8
0
 10
830.01819403
 20
563.82004802
  0
VERTEX
  8
0
 10
829.68809593
 20
563.84514903
  0
VERTEX
  8
0
 10
829.35360679
 20
563.85360679
  0
VERTEX
  8
0
 10
829.01911765
 20
563.84514903
  0
VERTEX
  8
0
 10
828.68901955
 20
563.82004802
  0
VERTEX
  8
0
 10
828.36372089
 20
563.77871217
  0
VERTEX
  8
0
 10
828.04363007
 20
563.72154989
  0
VERTEX
  8
0
 10
827.72915552
 20
563.64896958
  0
VERTEX
  8
0
 10
827.42070562
 20
563.56137965
  0
VERTEX
  8
0
 10
827.11868880
 20
563.45918851
  0
VERTEX
  8
0
 10
826.82351345
 20
563.34280457
  0
VERTEX
  8
0
 10
826.53558799
 20
563.21263622
  0
VERTEX
  8
0
 10
826.25532082
 20
563.06909189
  0
VERTEX
  8
0
 10
825.98312035
 20
562.91257997
  0
VERTEX
  8
0
 10
825.71939498
 20
562.74350888
  0
VERTEX
  8
0
 10
825.21900319
 20
562.36932278
  0
VERTEX
  8
0
 10
824.75741271
 20
561.94980087
  0
VERTEX
  8
0
 10
824.33789080
 20
561.48821039
  0
VERTEX
  8
0
 10
823.96370470
 20
560.98781860
  0
VERTEX
  8
0
 10
823.79463361
 20
560.72409323
  0
VERTEX
  8
0
 10
823.63812169
 20
560.45189276
  0
VERTEX
  8
0
 10
823.49457735
 20
560.17162559
  0
VERTEX
  8
0
 10
823.36440901
 20
559.88370013
  0
VERTEX
  8
0
 10
823.24802506
 20
559.58852478
  0
VERTEX
  8
0
 10
823.14583392
 20
559.28650796
  0
VERTEX
  8
0
 10
823.05824400
 20
558.97805806
  0
VERTEX
  8
0
 10
822.98566369
 20
558.66358350
  0
VERTEX
  8
0
 10
822.92850140
 20
558.34349269
  0
VERTEX
  8
0
 10
822.88716556
 20
558.01819403
  0
VERTEX
  8
0
 10
822.86206455
 20
557.68809593
  0
VERTEX
  8
0
 10
822.85360679
 20
557.35360679
  0
SEQEND
  0
POLYLINE
  8
Default Layer
 66
   1
 39
0.000000
 70
    1
  0
VERTEX
  8
0
 10
973.20883140
 20
553.93812475
  0
VERTEX
  8
0
 10
973.20883140
 20
593.14892475
  0
VERTEX
  8
0
 10
971.44933140
 20
617.60182475
  0
VERTEX
  8
0
 10
971.10827909
 20
618.17623382
  0
VERTEX
  8
0
 10
970.74498564
 20
618.73600707
  0
VERTEX
  8
0
 10
970.36017565
 20
619.28053283
  0
VERTEX
  8
0
 10
969.95457372
 20
619.80919940
  0
VERTEX
  8
0
 10
969.52890444
 20
620.32139508
  0
VERTEX
  8
0
 10
969.08389241
 20
620.81650818
  0
VERTEX
  8
0
 10
968.62026222
 20
621.29392700
  0
VERTEX
  8
0
 10
968.13873846
 20
621.75303986
  0
VERTEX
  8
0
 10
967.64004573
 20
622.19323506
  0
VERTEX
  8
0
 10
967.12490862
 20
622.61390091
  0
VERTEX
  8
0
 10
966.59405174
 20
623.01442571
  0
VERTEX
  8
0
 10
966.04819967
 20
623.39419777
  0
VERTEX
  8
0
 10
965.48807700
 20
623.75260540
  0
VERTEX
  8
0
 10
964.91440834
 20
624.08903690
  0
VERTEX
  8
0
 10
964.32791827
 20
624.40288058
  0
VERTEX
  8
0
 10
963.72933140
 20
624.69352475
  0
VERTEX
  8
0
 10
929.49163140
 20
624.69352475
  0
VERTEX
  8
0
 10
929.00581067
 20
624.66582171
  0
VERTEX
  8
0
 10
928.52486241
 20
624.61541173
  0
VERTEX
  8
0
 10
928.04932341
 20
624.54286559
  0
VERTEX
  8
0
 10
927.57973049
 20
624.44875409
  0
VERTEX
  8
0
 10
927.11662043
 20
624.33364803
  0
VERTEX
  8
0
 10
926.66053003
 20
624.19811820
  0
VERTEX
  8
0
 10
926.21199609
 20
624.04273539
  0
VERTEX
  8
0
 10
925.77155542
 20
623.86807041
  0
VERTEX
  8
0
 10
925.33974480
 20
623.67469405
  0
VERTEX
  8
0
 10
924.91710103
 20
623.46317709
  0
VERTEX
  8
0
 10
924.50416092
 20
623.23409035
  0
VERTEX
  8
0
 10
924.10146125
 20
622.98800461
  0
VERTEX
  8
0
 10
923.70953884
 20
622.72549066
  0
VERTEX
  8
0
 10
923.32893047
 20
622.44711931
  0
VERTEX
  8
0
 10
922.96017295
 20
622.15346135
  0
VERTEX
  8
0
 10
922.60380306
 20
621.84508757
  0
VERTEX
  8
0
 10
922.26035762
 20
621.52256876
  0
VERTEX
  8
0
 10
921.93037342
 20
621.18647573
  0
VERTEX
  8
0
 10
921.61438725
 20
620.83737927
  0
VERTEX
  8
0
 10
921.31293592
 20
620.47585017
  0
VERTEX
  8
0
 10
921.02655621
 20
620.10245923
  0
VERTEX
  8
0
 10
920.75578494
 20
619.71777724
  0
VERTEX
  8
0
 10
920.50115890
 20
619.32237501
  0
VERTEX
  8
0
 10
920.26321488
 20
618.91682331
  0
VERTEX
  8
0
 10
920.04248968
 20
618.50169296
  0
VERTEX
  8
0
 10
919.83952011
 20
618.07755474
  0
VERTEX
  8
0
 10
919.65484295
 20
617.64497944
  0
VERTEX
  8
0
 10
919.48899502
 20
617.20453788
  0
VERTEX
  8
0
 10
919.34251310
 20
616.75680083
  0
VERTEX
  8
0
 10
919.21593399
 20
616.30233910
  0
VERTEX
  8
0
 10
919.10979449
 20
615.84172347
  0
VERTEX
  8
0
 10
919.02463140
 20
615.37552475
  0
VERTEX
  8
0
 10
918.06209557
 20
593.08111662
  0
VERTEX
  8
0
 10
918.01801379
 20
560.55603483
  0
VERTEX
  8
0
 10
918.01923140
 20
528.03092475
  0
VERTEX
  8
0
 10
919.04263140
 20
503.59602475
  0
VERTEX
  8
0
 10
919.13222292
 20
503.14699653
  0
VERTEX
  8
0
 10
919.24310013
 20
502.70405231
  0
VERTEX
  8
0
 10
919.37468123
 20
502.26779748
  0
VERTEX
  8
0
 10
919.52638437
 20
501.83883743
  0
VERTEX
  8
0
 10
919.69762775
 20
501.41777755
  0
VERTEX
  8
0
 10
919.88782955
 20
501.00522323
  0
VERTEX
  8
0
 10
920.09640793
 20
500.60177986
  0
VERTEX
  8
0
 10
920.32278108
 20
500.20805284
  0
VERTEX
  8
0
 10
920.56636718
 20
499.82464755
  0
VERTEX
  8
0
 10
920.82658440
 20
499.45216939
  0
VERTEX
  8
0
 10
921.10285093
 20
499.09122375
  0
VERTEX
  8
0
 10
921.39458494
 20
498.74241602
  0
VERTEX
  8
0
 10
921.70120462
 20
498.40635159
  0
VERTEX
  8
0
 10
922.02212813
 20
498.08363585
  0
VERTEX
  8
0
 10
922.35677366
 20
497.77487420
  0
VERTEX
  8
0
 10
922.70455939
 20
497.48067201
  0
VERTEX
  8
0
 10
923.06490349
 20
497.20163470
  0
VERTEX
  8
0
 10
923.43722414
 20
496.93836764
  0
VERTEX
  8
0
 10
923.82093953
 20
496.69147622
  0
VERTEX
  8
0
 10
924.21546783
 20
496.46156585
  0
VERTEX
  8
0
 10
924.62022722
 20
496.24924190
  0
VERTEX
  8
0
 10
925.03463587
 20
496.05510978
  0
VERTEX
  8
0
 10
925.45811197
 20
495.87977487
  0
VERTEX
  8
0
 10
925.89007370
 20
495.72384256
  0
VERTEX
  8
0
 10
926.32993923
 20
495.58791825
  0
VERTEX
  8
0
 10
926.77712674
 20
495.47260732
  0
VERTEX
  8
0
 10
927.23105441
 20
495.37851517
  0
VERTEX
  8
0
 10
927.69114041
 20
495.30624718
  0
VERTEX
  8
0
 10
928.15680294
 20
495.25640876
  0
VERTEX
  8
0
 10
928.62746016
 20
495.22960528
  0
VERTEX
  8
0
 10
929.10253025
 20
495.22644215
  0
VERTEX
  8
0
 10
929.58143140
 20
495.24752475
  0
VERTEX
  8
0
 10
962.88543140
 20
495.24752475
  0
VERTEX
  8
0
 10
963.34578099
 20
495.23938345
  0
VERTEX
  8
0
 10
963.80387389
 20
495.25689117
  0
VERTEX
  8
0
 10
964.25884439
 20
495.29940693
  0
VERTEX
  8
0
 10
964.70982681
 20
495.36628974
  0
VERTEX
  8
0
 10
965.15595544
 20
495.45689861
  0
VERTEX
  8
0
 10
965.59636458
 20
495.57059256
  0
VERTEX
  8
0
 10
966.03018854
 20
495.70673061
  0
VERTEX
  8
0
 10
966.45656160
 20
495.86467175
  0
VERTEX
  8
0
 10
966.87461809
 20
496.04377502
  0
VERTEX
  8
0
 10
967.28349228
 20
496.24339941
  0
VERTEX
  8
0
 10
967.68231850
 20
496.46290395
  0
VERTEX
  8
0
 10
968.07023103
 20
496.70164765
  0
VERTEX
  8
0
 10
968.44636417
 20
496.95898951
  0
VERTEX
  8
0
 10
968.80985224
 20
497.23428856
  0
VERTEX
  8
0
 10
969.15982952
 20
497.52690380
  0
VERTEX
  8
0
 10
969.49543033
 20
497.83619426
  0
VERTEX
  8
0
 10
969.81578895
 20
498.16151893
  0
VERTEX
  8
0
 10
970.12003970
 20
498.50223685
  0
VERTEX
  8
0
 10
970.40731687
 20
498.85770701
  0
VERTEX
  8
0
 10
970.67675477
 20
499.22728843
  0
VERTEX
  8
0
 10
970.92748768
 20
499.61034013
  0
VERTEX
  8
0
 10
971.15864993
 20
500.00622112
  0
VERTEX
  8
0
 10
971.36937579
 20
500.41429040
  0
VERTEX
  8
0
 10
971.55879959
 20
500.83390701
  0
VERTEX
  8
0
 10
971.72605561
 20
501.26442994
  0
VERTEX
  8
0
 10
971.87027816
 20
501.70521821
  0
VERTEX
  8
0
 10
971.99060154
 20
502.15563084
  0
VERTEX
  8
0
 10
972.08616005
 20
502.61502683
  0
VERTEX
  8
0
 10
972.15608799
 20
503.08276521
  0
VERTEX
  8
0
 10
972.19951966
 20
503.55820498
  0
VERTEX
  8
0
 10
972.21558936
 20
504.04070516
  0
VERTEX
  8
0
 10
972.20343140
 20
504.52962475
  0
VERTEX
  8
0
 10
973.20883140
 20
553.93812475
  0
SEQEND
  0
POLYLINE
  8
Default Layer
 66
   1
 39
0.000000
 70
    1
  0
VERTEX
  8
0
 10
10.26323466
 20
915.00000000
  0
VERTEX
  8
0
 10
70.38879066
 20
915.00000000
  0
VERTEX
  8
0
 10
70.38879066
 20
970.00000000
  0
VERTEX
  8
0
 10
10.25840478
 20
970.00000000
  0
VERTEX
  8
0
 10
10.25814799
 20
972.92414924
  0
VERTEX
  8
0
 10
10.35360679
 20
1004.80738830
  0
VERTEX
  8
0
 10
12.95252834
 20
1004.83089062
  0
VERTEX
  8
0
 10
15.60614139
 20
1004.89542760
  0
VERTEX
  8
0
 10
18.28163103
 20
1004.97637845
  0
VERTEX
  8
0
 10
20.94618238
 20
1005.04912237
  0
VERTEX
  8
0
 10
23.56698053
 20
1005.08903855
  0
VERTEX
  8
0
 10
24.85071750
 20
1005.08899225
  0
VERTEX
  8
0
 10
26.11121058
 20
1005.07150621
  0
VERTEX
  8
0
 10
27.34435791
 20
1005.03350284
  0
VERTEX
  8
0
 10
28.54605763
 20
1004.97190454
  0
VERTEX
  8
0
 10
29.71220788
 20
1004.88363370
  0
VERTEX
  8
0
 10
30.83870679
 20
1004.76561274
  0
VERTEX
  8
0
 10
31.93945654
 20
1004.60504725
  0
VERTEX
  8
0
 10
33.03191565
 20
1004.39613666
  0
VERTEX
  8
0
 10
34.11731677
 20
1004.14629412
  0
VERTEX
  8
0
 10
35.19689253
 20
1003.86293277
  0
VERTEX
  8
0
 10
36.27187558
 20
1003.55346575
  0
VERTEX
  8
0
 10
37.34349857
 20
1003.22530620
  0
VERTEX
  8
0
 10
39.48159494
 20
1002.54256208
  0
VERTEX
  8
0
 10
41.62104279
 20
1001.87400555
  0
VERTEX
  8
0
 10
42.69435513
 20
1001.56358047
  0
VERTEX
  8
0
 10
43.77170328
 20
1001.27894172
  0
VERTEX
  8
0
 10
44.85431987
 20
1001.02750243
  0
VERTEX
  8
0
 10
45.94343756
 20
1000.81667574
  0
VERTEX
  8
0
 10
47.04028898
 20
1000.65387480
  0
VERTEX
  8
0
 10
47.59200005
 20
1000.59280059
  0
VERTEX
  8
0
 10
48.14610679
 20
1000.54651274
  0
VERTEX
  8
0
 10
48.52875309
 20
1000.54717604
  0
VERTEX
  8
0
 10
49.11712673
 20
1000.58808660
  0
VERTEX
  8
0
 10
49.90491370
 20
1000.66974671
  0
VERTEX
  8
0
 10
50.88579998
 20
1000.79265866
  0
VERTEX
  8
0
 10
52.05347157
 20
1000.95732476
  0
VERTEX
  8
0
 10
53.40161446
 20
1001.16424729
  0
VERTEX
  8
0
 10
54.92391465
 20
1001.41392857
  0
VERTEX
  8
0
 10
56.61405812
 20
1001.70687087
  0
VERTEX
  8
0
 10
58.46573087
 20
1002.04357650
  0
VERTEX
  8
0
 10
60.47261890
 20
1002.42454776
  0
VERTEX
  8
0
 10
62.62840819
 20
1002.85028693
  0
VERTEX
  8
0
 10
64.92678474
 20
1003.32129633
  0
VERTEX
  8
0
 10
67.36143453
 20
1003.83807823
  0
VERTEX
  8
0
 10
69.92604357
 20
1004.40113495
  0
VERTEX
  8
0
 10
72.61429784
 20
1005.01096877
  0
VERTEX
  8
0
 10
75.41988333
 20
1005.66808199
  0
VERTEX
  8
0
 10
78.33648605
 20
1006.37297691
  0
VERTEX
  8
0
 10
81.35779198
 20
1007.12615582
  0
VERTEX
  8
0
 10
84.47748710
 20
1007.92812103
  0
VERTEX
  8
0
 10
87.68925743
 20
1008.77937482
  0
VERTEX
  8
0
 10
90.98678894
 20
1009.68041949
  0
VERTEX
  8
0
 10
94.36376763
 20
1010.63175735
  0
VERTEX
  8
0
 10
97.81387950
 20
1011.63389067
  0
VERTEX
  8
0
 10
101.33081053
 20
1012.68732177
  0
VERTEX
  8
0
 10
104.90824671
 20
1013.79255294
  0
VERTEX
  8
0
 10
108.53987405
 20
1014.95008647
  0
VERTEX
  8
0
 10
112.21937853
 20
1016.16042466
  0
VERTEX
  8
0
 10
115.94044615
 20
1017.42406981
  0
VERTEX
  8
0
 10
119.69676289
 20
1018.74152421
  0
VERTEX
  8
0
 10
123.48201475
 20
1020.11329016
  0
VERTEX
  8
0
 10
127.28988772
 20
1021.53986995
  0
VERTEX
  8
0
 10
131.11406779
 20
1023.02176589
  0
VERTEX
  8
0
 10
134.94824097
 20
1024.55948026
  0
VERTEX
  8
0
 10
138.78609323
 20
1026.15351536
  0
VERTEX
  8
0
 10
142.62131057
 20
1027.80437350
  0
VERTEX
  8
0
 10
146.44757899
 20
1029.51255696
  0
VERTEX
  8
0
 10
148.35538422
 20
1030.38830266
  0
VERTEX
  8
0
 10
150.25858447
 20
1031.27856805
  0
VERTEX
  8
0
 10
152.15639048
 20
1032.18341592
  0
VERTEX
  8
0
 10
154.04801301
 20
1033.10290905
  0
VERTEX
  8
0
 10
155.93266280
 20
1034.03711024
  0
VERTEX
  8
0
 10
157.80955060
 20
1034.98608227
  0
VERTEX
  8
0
 10
159.67788716
 20
1035.94988793
  0
VERTEX
  8
0
 10
161.53688323
 20
1036.92859000
  0
VERTEX
  8
0
 10
163.38574956
 20
1037.92225128
  0
VERTEX
  8
0
 10
165.22369690
 20
1038.93093454
  0
VERTEX
  8
0
 10
167.04993599
 20
1039.95470258
  0
VERTEX
  8
0
 10
168.86367760
 20
1040.99361818
  0
VERTEX
  8
0
 10
170.66413245
 20
1042.04774413
  0
VERTEX
  8
0
 10
172.45051131
 20
1043.11714322
  0
VERTEX
  8
0
 10
174.22202493
 20
1044.20187824
  0
VERTEX
  8
0
 10
175.97788404
 20
1045.30201196
  0
VERTEX
  8
0
 10
177.71729941
 20
1046.41760718
  0
VERTEX
  8
0
 10
179.43948178
 20
1047.54872669
  0
VERTEX
  8
0
 10
181.14364189
 20
1048.69543327
  0
VERTEX
  8
0
 10
182.82899051
 20
1049.85778971
  0
VERTEX
  8
0
 10
184.49473837
 20
1051.03585879
  0
VERTEX
  8
0
 10
186.14009623
 20
1052.22970331
  0
VERTEX
  8
0
 10
187.76427483
 20
1053.43938605
  0
VERTEX
  8
0
 10
189.36648493
 20
1054.66496980
  0
VERTEX
  8
0
 10
190.94593728
 20
1055.90651734
  0
VERTEX
  8
0
 10
192.50184261
 20
1057.16409146
  0
VERTEX
  8
0
 10
194.03341169
 20
1058.43775495
  0
VERTEX
  8
0
 10
195.53985525
 20
1059.72757059
  0
VERTEX
  8
0
 10
197.02038406
 20
1061.03360118
  0
VERTEX
  8
0
 10
198.47420886
 20
1062.35590950
  0
VERTEX
  8
0
 10
199.90054039
 20
1063.69455833
  0
VERTEX
  8
0
 10
201.29858941
 20
1065.04961047
  0
VERTEX
  8
0
 10
202.66756667
 20
1066.42112870
  0
VERTEX
  8
0
 10
204.00668291
 20
1067.80917580
  0
VERTEX
  8
0
 10
205.31514889
 20
1069.21381457
  0
VERTEX
  8
0
 10
206.59217535
 20
1070.63510780
  0
VERTEX
  8
0
 10
207.83697304
 20
1072.07311826
  0
VERTEX
  8
0
 10
209.04875271
 20
1073.52790874
  0
VERTEX
  8
0
 10
210.22672511
 20
1074.99954204
  0
VERTEX
  8
0
 10
211.37010100
 20
1076.48808094
  0
VERTEX
  8
0
 10
212.47809111
 20
1077.99358822
  0
VERTEX
  8
0
 10
213.54990619
 20
1079.51612668
  0
VERTEX
  8
0
 10
214.58475701
 20
1081.05575910
  0
VERTEX
  8
0
 10
215.58185430
 20
1082.61254827
  0
VERTEX
  8
0
 10
216.54040881
 20
1084.18655697
  0
VERTEX
  8
0
 10
217.45963130
 20
1085.77784800
  0
VERTEX
  8
0
 10
218.33873251
 20
1087.38648413
  0
VERTEX
  8
0
 10
219.17692319
 20
1089.01252816
  0
VERTEX
  8
0
 10
219.97341410
 20
1090.65604288
  0
VERTEX
  8
0
 10
220.72741597
 20
1092.31709106
  0
VERTEX
  8
0
 10
221.43813956
 20
1093.99573550
  0
VERTEX
  8
0
 10
222.10479562
 20
1095.69203898
  0
VERTEX
  8
0
 10
222.72659490
 20
1097.40606430
  0
VERTEX
  8
0
 10
223.30274814
 20
1099.13787423
  0
VERTEX
  8
0
 10
223.83246610
 20
1100.88753157
  0
VERTEX
  8
0
 10
224.31495952
 20
1102.65509910
  0
VERTEX
  8
0
 10
274.93690679
 20
1102.68501274
  0
VERTEX
  8
0
 10
344.44748571
 20
1100.46541110
  0
VERTEX
  8
0
 10
413.96037674
 20
1098.28861629
  0
VERTEX
  8
0
 10
552.99012137
 20
1093.99270033
  0
VERTEX
  8
0
 10
622.50548808
 20
1091.83820576
  0
VERTEX
  8
0
 10
692.02019313
 20
1089.65577119
  0
VERTEX
  8
0
 10
761.53349308
 20
1087.42770989
  0
VERTEX
  8
0
 10
796.28938382
 20
1086.29104213
  0
VERTEX
  8
0
 10
831.04464449
 20
1085.13633517
  0
VERTEX
  8
0
 10
865.79918217
 20
1083.96137818
  0
VERTEX
  8
0
 10
900.55290392
 20
1082.76396032
  0
VERTEX
  8
0
 10
935.30571681
 20
1081.54187074
  0
VERTEX
  8
0
 10
970.05752792
 20
1080.29289862
  0
VERTEX
  8
0
 10
1004.80824431
 20
1079.01483310
  0
VERTEX
  8
0
 10
1039.55777305
 20
1077.70546336
  0
VERTEX
  8
0
 10
1074.30602121
 20
1076.36257855
  0
VERTEX
  8
0
 10
1109.05289587
 20
1074.98396783
  0
VERTEX
  8
0
 10
1143.79830409
 20
1073.56742037
  0
VERTEX
  8
0
 10
1178.54215294
 20
1072.11072533
  0
VERTEX
  8
0
 10
1213.28434949
 20
1070.61167186
  0
VERTEX
  8
0
 10
1248.02480081
 20
1069.06804914
  0
VERTEX
  8
0
 10
1282.76341398
 20
1067.47764631
  0
VERTEX
  8
0
 10
1317.50009605
 20
1065.83825255
  0
VERTEX
  8
0
 10
1352.23475411
 20
1064.14765701
  0
VERTEX
  8
0
 10
1386.96729521
 20
1062.40364886
  0
VERTEX
  8
0
 10
1395.14841391
 20
1061.96517156
  0
VERTEX
  8
0
 10
1404.13841438
 20
1061.52346529
  0
VERTEX
  8
0
 10
1422.60374441
 20
1060.63811536
  0
VERTEX
  8
0
 10
1431.10841582
 20
1060.19834648
  0
VERTEX
  8
0
 10
1434.96642165
 20
1059.98003616
  0
VERTEX
  8
0
 10
1438.48065273
 20
1059.76309815
  0
VERTEX
  8
0
 10
1441.59044292
 20
1059.54777464
  0
VERTEX
  8
0
 10
1444.23512608
 20
1059.33430778
  0
VERTEX
  8
0
 10
1446.35403608
 20
1059.12293976
  0
VERTEX
  8
0
 10
1447.19736798
 20
1059.01811849
  0
VERTEX
  8
0
 10
1447.88650679
 20
1058.91391274
  0
VERTEX
  8
0
 10
1450.41700701
 20
1058.46267323
  0
VERTEX
  8
0
 10
1453.07517852
 20
1057.94124125
  0
VERTEX
  8
0
 10
1454.42532239
 20
1057.65475780
  0
VERTEX
  8
0
 10
1455.77520172
 20
1057.35139189
  0
VERTEX
  8
0
 10
1457.11408908
 20
1057.03136542
  0
VERTEX
  8
0
 10
1458.43125700
 20
1056.69490026
  0
VERTEX
  8
0
 10
1459.71597805
 20
1056.34221830
  0
VERTEX
  8
0
 10
1460.95752476
 20
1055.97354143
  0
VERTEX
  8
0
 10
1462.14516968
 20
1055.58909154
  0
VERTEX
  8
0
 10
1463.26818538
 20
1055.18909051
  0
VERTEX
  8
0
 10
1464.31584438
 20
1054.77376022
  0
VERTEX
  8
0
 10
1465.27741926
 20
1054.34332258
  0
VERTEX
  8
0
 10
1465.72257281
 20
1054.12250783
  0
VERTEX
  8
0
 10
1466.14218254
 20
1053.89799945
  0
VERTEX
  8
0
 10
1466.53490751
 20
1053.66982518
  0
VERTEX
  8
0
 10
1466.89940679
 20
1053.43801274
  0
VERTEX
  8
0
 10
1467.58967340
 20
1052.95460107
  0
VERTEX
  8
0
 10
1468.26036642
 20
1052.43999464
  0
VERTEX
  8
0
 10
1468.91096240
 20
1051.89590266
  0
VERTEX
  8
0
 10
1469.54093789
 20
1051.32403433
  0
VERTEX
  8
0
 10
1470.14976942
 20
1050.72609888
  0
VERTEX
  8
0
 10
1470.73693354
 20
1050.10380551
  0
VERTEX
  8
0
 10
1471.30190680
 20
1049.45886343
  0
VERTEX
  8
0
 10
1471.84416574
 20
1048.79298186
  0
VERTEX
  8
0
 10
1472.36318689
 20
1048.10787000
  0
VERTEX
  8
0
 10
1472.85844681
 20
1047.40523706
  0
VERTEX
  8
0
 10
1473.32942203
 20
1046.68679227
  0
VERTEX
  8
0
 10
1473.77558911
 20
1045.95424482
  0
VERTEX
  8
0
 10
1474.19642458
 20
1045.20930393
  0
VERTEX
  8
0
 10
1474.59140499
 20
1044.45367882
  0
VERTEX
  8
0
 10
1474.96000688
 20
1043.68907868
  0
VERTEX
  8
0
 10
1475.30170679
 20
1042.91721274
  0
VERTEX
  8
0
 10
1475.46237710
 20
1042.50801522
  0
VERTEX
  8
0
 10
1475.61646891
 20
1042.05672536
  0
VERTEX
  8
0
 10
1475.76421523
 20
1041.56540353
  0
VERTEX
  8
0
 10
1475.90584906
 20
1041.03611008
  0
VERTEX
  8
0
 10
1476.17171124
 20
1039.87184983
  0
VERTEX
  8
0
 10
1476.41591946
 20
1038.58042756
  0
VERTEX
  8
0
 10
1476.64033772
 20
1037.17832620
  0
VERTEX
  8
0
 10
1476.84683003
 20
1035.68202870
  0
VERTEX
  8
0
 10
1477.03726039
 20
1034.10801800
  0
VERTEX
  8
0
 10
1477.21349281
 20
1032.47277703
  0
VERTEX
  8
0
 10
1477.53081984
 20
1029.08453607
  0
VERTEX
  8
0
 10
1477.81372315
 20
1025.64916935
  0
VERTEX
  8
0
 10
1478.07711479
 20
1022.29854040
  0
VERTEX
  8
0
 10
1478.33590679
 20
1019.16451274
  0
VERTEX
  8
0
 10
1478.48273912
 20
1017.18767257
  0
VERTEX
  8
0
 10
1478.65969573
 20
1014.30162832
  0
VERTEX
  8
0
 10
1478.86366032
 20
1010.60043557
  0
VERTEX
  8
0
 10
1479.09151657
 20
1006.17814992
  0
VERTEX
  8
0
 10
1479.60643885
 20
995.54652230
  0
VERTEX
  8
0
 10
1480.17953215
 20
983.15919023
  0
VERTEX
  8
0
 10
1481.40051005
 20
956.12719180
  0
VERTEX
  8
0
 10
1481.99853378
 20
942.98741496
  0
VERTEX
  8
0
 10
1482.55500679
 20
931.10171274
  0
VERTEX
  8
0
 10
1487.06140679
 20
783.12751274
  0
VERTEX
  8
0
 10
1487.39242028
 20
761.82576637
  0
VERTEX
  8
0
 10
1487.70346587
 20
740.52376598
  0
VERTEX
  8
0
 10
1487.99262343
 20
719.22157639
  0
VERTEX
  8
0
 10
1488.25797282
 20
697.91926245
  0
VERTEX
  8
0
 10
1488.49759389
 20
676.61688899
  0
VERTEX
  8
0
 10
1488.70956651
 20
655.31452086
  0
VERTEX
  8
0
 10
1488.89197054
 20
634.01222289
  0
VERTEX
  8
0
 10
1489.04288583
 20
612.71005992
  0
VERTEX
  8
0
 10
1489.16039225
 20
591.40809678
  0
VERTEX
  8
0
 10
1489.24256967
 20
570.10639832
  0
VERTEX
  8
0
 10
1489.28749793
 20
548.80502938
  0
VERTEX
  8
0
 10
1489.29325690
 20
527.50405479
  0
VERTEX
  8
0
 10
1489.25792644
 20
506.20353939
  0
VERTEX
  8
0
 10
1489.17958642
 20
484.90354802
  0
VERTEX
  8
0
 10
1489.05631668
 20
463.60414551
  0
VERTEX
  8
0
 10
1488.88619710
 20
442.30539671
  0
VERTEX
  8
0
 10
1488.66730754
 20
421.00736646
  0
VERTEX
  8
0
 10
1488.39772784
 20
399.71011958
  0
VERTEX
  8
0
 10
1488.07553788
 20
378.41372093
  0
VERTEX
  8
0
 10
1487.69881752
 20
357.11823533
  0
VERTEX
  8
0
 10
1487.26564661
 20
335.82372763
  0
VERTEX
  8
0
 10
1486.77410501
 20
314.53026266
  0
VERTEX
  8
0
 10
1486.50584517
 20
303.88394147
  0
VERTEX
  8
0
 10
1486.22227259
 20
293.23790527
  0
VERTEX
  8
0
 10
1485.92314728
 20
282.59216217
  0
VERTEX
  8
0
 10
1485.60822921
 20
271.94672029
  0
VERTEX
  8
0
 10
1485.27727837
 20
261.30158771
  0
VERTEX
  8
0
 10
1484.93005473
 20
250.65677255
  0
VERTEX
  8
0
 10
1484.56631828
 20
240.01228292
  0
VERTEX
  8
0
 10
1484.18582901
 20
229.36812691
  0
VERTEX
  8
0
 10
1483.78834688
 20
218.72431263
  0
VERTEX
  8
0
 10
1483.37363190
 20
208.08084818
  0
VERTEX
  8
0
 10
1482.94144404
 20
197.43774168
  0
VERTEX
  8
0
 10
1482.49154327
 20
186.79500123
  0
VERTEX
  8
0
 10
1482.02368960
 20
176.15263492
  0
VERTEX
  8
0
 10
1481.53764299
 20
165.51065087
  0
VERTEX
  8
0
 10
1481.03316343
 20
154.86905718
  0
VERTEX
  8
0
 10
1480.51001090
 20
144.22786196
  0
VERTEX
  8
0
 10
1479.96794539
 20
133.58707330
  0
VERTEX
  8
0
 10
1479.40672687
 20
122.94669932
  0
VERTEX
  8
0
 10
1478.82611534
 20
112.30674812
  0
VERTEX
  8
0
 10
1478.22587077
 20
101.66722780
  0
VERTEX
  8
0
 10
1478.03062800
 20
99.67409685
  0
VERTEX
  8
0
 10
1477.84292304
 20
97.56848555
  0
VERTEX
  8
0
 10
1477.48316855
 20
93.12364994
  0
VERTEX
  8
0
 10
1477.13269135
 20
88.54037697
  0
VERTEX
  8
0
 10
1476.77757551
 20
84.02632268
  0
VERTEX
  8
0
 10
1476.59392936
 20
81.86014504
  0
VERTEX
  8
0
 10
1476.40390508
 20
79.78914308
  0
VERTEX
  8
0
 10
1476.20576316
 20
77.83927381
  0
VERTEX
  8
0
 10
1475.99776411
 20
76.03649421
  0
VERTEX
  8
0
 10
1475.77816844
 20
74.40676131
  0
VERTEX
  8
0
 10
1475.54523666
 20
72.97603209
  0
VERTEX
  8
0
 10
1475.42322614
 20
72.34340543
  0
VERTEX
  8
0
 10
1475.29722927
 20
71.77026357
  0
VERTEX
  8
0
 10
1475.16702864
 20
71.25985113
  0
VERTEX
  8
0
 10
1475.03240679
 20
70.81541274
  0
VERTEX
  8
0
 10
1474.74947734
 20
69.99459857
  0
VERTEX
  8
0
 10
1474.44787953
 20
69.17497234
  0
VERTEX
  8
0
 10
1474.12696955
 20
68.35853955
  0
VERTEX
  8
0
 10
1473.78610362
 20
67.54730568
  0
VERTEX
  8
0
 10
1473.42463794
 20
66.74327622
  0
VERTEX
  8
0
 10
1473.04192872
 20
65.94845666
  0
VERTEX
  8
0
 10
1472.63733216
 20
65.16485248
  0
VERTEX
  8
0
 10
1472.21020446
 20
64.39446918
  0
VERTEX
  8
0
 10
1471.75990184
 20
63.63931223
  0
VERTEX
  8
0
 10
1471.28578050
 20
62.90138714
  0
VERTEX
  8
0
 10
1470.78719664
 20
62.18269938
  0
VERTEX
  8
0
 10
1470.26350647
 20
61.48525445
  0
VERTEX
  8
0
 10
1469.71406619
 20
60.81105783
  0
VERTEX
  8
0
 10
1469.13823202
 20
60.16211501
  0
VERTEX
  8
0
 10
1468.53536015
 20
59.54043149
  0
VERTEX
  8
0
 10
1467.90480679
 20
58.94801274
  0
VERTEX
  8
0
 10
1467.23836246
 20
58.38374742
  0
VERTEX
  8
0
 10
1466.53059987
 20
57.84485151
  0
VERTEX
  8
0
 10
1465.78504848
 20
57.33082146
  0
VERTEX
  8
0
 10
1465.00523775
 20
56.84115373
  0
VERTEX
  8
0
 10
1464.19469715
 20
56.37534477
  0
VERTEX
  8
0
 10
1463.35695616
 20
55.93289105
  0
VERTEX
  8
0
 10
1462.49554422
 20
55.51328903
  0
VERTEX
  8
0
 10
1461.61399082
 20
55.11603516
  0
VERTEX
  8
0
 10
1460.71582542
 20
54.74062591
  0
VERTEX
  8
0
 10
1459.80457749
 20
54.38655772
  0
VERTEX
  8
0
 10
1458.88377648
 20
54.05332706
  0
VERTEX
  8
0
 10
1457.95695188
 20
53.74043039
  0
VERTEX
  8
0
 10
1457.02763314
 20
53.44736416
  0
VERTEX
  8
0
 10
1456.09934974
 20
53.17362484
  0
VERTEX
  8
0
 10
1455.17563113
 20
52.91870888
  0
VERTEX
  8
0
 10
1454.26000679
 20
52.68211274
  0
VERTEX
  8
0
 10
1453.75977226
 20
52.57096306
  0
VERTEX
  8
0
 10
1453.17232869
 20
52.46494971
  0
VERTEX
  8
0
 10
1452.50196506
 20
52.36382007
  0
VERTEX
  8
0
 10
1451.75297034
 20
52.26732153
  0
VERTEX
  8
0
 10
1450.03624348
 20
52.08720737
  0
VERTEX
  8
0
 10
1448.05645986
 20
51.92258638
  0
VERTEX
  8
0
 10
1445.84793124
 20
51.77143770
  0
VERTEX
  8
0
 10
1443.44496936
 20
51.63174049
  0
VERTEX
  8
0
 10
1438.19299285
 20
51.37861708
  0
VERTEX
  8
0
 10
1432.57502433
 20
51.14704939
  0
VERTEX
  8
0
 10
1426.86555781
 20
50.92087062
  0
VERTEX
  8
0
 10
1421.33908730
 20
50.68391399
  0
VERTEX
  8
0
 10
1418.73025492
 20
50.55634187
  0
VERTEX
  8
0
 10
1416.27010679
 20
50.42001274
  0
VERTEX
  8
0
 10
1363.24115792
 20
48.24775861
  0
VERTEX
  8
0
 10
1310.21396299
 20
46.03084381
  0
VERTEX
  8
0
 10
1257.18793331
 20
43.78475568
  0
VERTEX
  8
0
 10
1204.16248024
 20
41.52498158
  0
VERTEX
  8
0
 10
1151.13701512
 20
39.26700885
  0
VERTEX
  8
0
 10
1098.11094928
 20
37.02632484
  0
VERTEX
  8
0
 10
1045.08369405
 20
34.81841690
  0
VERTEX
  8
0
 10
992.05466079
 20
32.65877239
  0
VERTEX
  8
0
 10
965.53929344
 20
31.60188871
  0
VERTEX
  8
0
 10
939.02326083
 20
30.56287864
  0
VERTEX
  8
0
 10
912.50648937
 20
29.54367810
  0
VERTEX
  8
0
 10
885.98890550
 20
28.54622301
  0
VERTEX
  8
0
 10
859.47043561
 20
27.57244929
  0
VERTEX
  8
0
 10
832.95100614
 20
26.62429285
  0
VERTEX
  8
0
 10
806.43054350
 20
25.70368961
  0
VERTEX
  8
0
 10
779.90897410
 20
24.81257550
  0
VERTEX
  8
0
 10
753.38622437
 20
23.95288643
  0
VERTEX
  8
0
 10
726.86222072
 20
23.12655832
  0
VERTEX
  8
0
 10
700.33688956
 20
22.33552709
  0
VERTEX
  8
0
 10
673.81015732
 20
21.58172865
  0
VERTEX
  8
0
 10
647.28195041
 20
20.86709893
  0
VERTEX
  8
0
 10
620.75219526
 20
20.19357385
  0
VERTEX
  8
0
 10
594.22081826
 20
19.56308932
  0
VERTEX
  8
0
 10
567.68774586
 20
18.97758126
  0
VERTEX
  8
0
 10
482.75070679
 20
17.02611274
  0
VERTEX
  8
0
 10
399.19430679
 20
15.50011274
  0
VERTEX
  8
0
 10
286.80430679
 20
11.98121274
  0
VERTEX
  8
0
 10
284.77399947
 20
11.92369066
  0
VERTEX
  8
0
 10
282.65158591
 20
11.84777426
  0
VERTEX
  8
0
 10
278.16855299
 20
11.64836991
  0
VERTEX
  8
0
 10
273.43143390
 20
11.39822260
  0
VERTEX
  8
0
 10
268.51645448
 20
11.11255520
  0
VERTEX
  8
0
 10
258.45781808
 20
10.49555172
  0
VERTEX
  8
0
 10
253.46661281
 20
10.19466143
  0
VERTEX
  8
0
 10
248.60245063
 20
9.91914262
  0
VERTEX
  8
0
 10
243.94155739
 20
9.68421820
  0
VERTEX
  8
0
 10
239.56015894
 20
9.50511104
  0
VERTEX
  8
0
 10
237.49809085
 20
9.44124609
  0
VERTEX
  8
0
 10
235.53448115
 20
9.39704405
  0
VERTEX
  8
0
 10
233.67885807
 20
9.37440777
  0
VERTEX
  8
0
 10
231.94074986
 20
9.37524011
  0
VERTEX
  8
0
 10
230.32968473
 20
9.40144394
  0
VERTEX
  8
0
 10
228.85519092
 20
9.45492212
  0
VERTEX
  8
0
 10
227.52679667
 20
9.53757751
  0
VERTEX
  8
0
 10
226.35403020
 20
9.65131296
  0
VERTEX
  8
0
 10
225.34641974
 20
9.79803135
  0
VERTEX
  8
0
 10
224.90752559
 20
9.88435379
  0
VERTEX
  8
0
 10
224.51349353
 20
9.97963554
  0
VERTEX
  8
0
 10
224.16551460
 20
10.08411445
  0
VERTEX
  8
0
 10
223.86477981
 20
10.19802838
  0
VERTEX
  8
0
 10
223.61248019
 20
10.32161519
  0
VERTEX
  8
0
 10
223.40980679
 20
10.45511274
  0
VERTEX
  8
0
 10
223.07227416
 20
10.74263434
  0
VERTEX
  8
0
 10
222.76831804
 20
11.05037522
  0
VERTEX
  8
0
 10
222.49612137
 20
11.37729269
  0
VERTEX
  8
0
 10
222.25386706
 20
11.72234404
  0
VERTEX
  8
0
 10
222.03973803
 20
12.08448660
  0
VERTEX
  8
0
 10
221.85191720
 20
12.46267766
  0
VERTEX
  8
0
 10
221.68858750
 20
12.85587454
  0
VERTEX
  8
0
 10
221.54793185
 20
13.26303454
  0
VERTEX
  8
0
 10
221.42813317
 20
13.68311498
  0
VERTEX
  8
0
 10
221.32737438
 20
14.11507315
  0
VERTEX
  8
0
 10
221.24383840
 20
14.55786638
  0
VERTEX
  8
0
 10
221.17570816
 20
15.01045195
  0
VERTEX
  8
0
 10
221.07839656
 20
15.94082941
  0
VERTEX
  8
0
 10
221.02090296
 20
16.89786399
  0
VERTEX
  8
0
 10
220.98869073
 20
17.87321416
  0
VERTEX
  8
0
 10
220.96722324
 20
18.85853837
  0
VERTEX
  8
0
 10
220.94196386
 20
19.84549510
  0
VERTEX
  8
0
 10
220.89837598
 20
20.82574281
  0
VERTEX
  8
0
 10
220.82192296
 20
21.79093997
  0
VERTEX
  8
0
 10
220.76682932
 20
22.26528786
  0
VERTEX
  8
0
 10
220.69806817
 20
22.73274503
  0
VERTEX
  8
0
 10
220.61382242
 20
23.19226880
  0
VERTEX
  8
0
 10
220.51227499
 20
23.64281647
  0
VERTEX
  8
0
 10
220.39160881
 20
24.08334534
  0
VERTEX
  8
0
 10
220.25000679
 20
24.51281274
  0
VERTEX
  8
0
 10
219.92622701
 20
25.38261681
  0
VERTEX
  8
0
 10
219.56708437
 20
26.29423883
  0
VERTEX
  8
0
 10
219.17482015
 20
27.24252806
  0
VERTEX
  8
0
 10
218.75167564
 20
28.22233374
  0
VERTEX
  8
0
 10
218.29989213
 20
29.22850512
  0
VERTEX
  8
0
 10
217.82171089
 20
30.25589147
  0
VERTEX
  8
0
 10
216.79512041
 20
32.35370602
  0
VERTEX
  8
0
 10
216.25119372
 20
33.41383274
  0
VERTEX
  8
0
 10
215.68983447
 20
34.47457142
  0
VERTEX
  8
0
 10
215.11328392
 20
35.53077131
  0
VERTEX
  8
0
 10
214.52378336
 20
36.57728166
  0
VERTEX
  8
0
 10
213.92357408
 20
37.60895173
  0
VERTEX
  8
0
 10
213.31489737
 20
38.62063077
  0
VERTEX
  8
0
 10
212.69999451
 20
39.60716802
  0
VERTEX
  8
0
 10
212.08110679
 20
40.56341274
  0
VERTEX
  8
0
 10
211.43994683
 20
41.51424793
  0
VERTEX
  8
0
 10
210.75878039
 20
42.48590559
  0
VERTEX
  8
0
 10
210.04067841
 20
43.47525847
  0
VERTEX
  8
0
 10
209.28871188
 20
44.47917932
  0
VERTEX
  8
0
 10
208.50595173
 20
45.49454090
  0
VERTEX
  8
0
 10
207.69546894
 20
46.51821595
  0
VERTEX
  8
0
 10
206.86033446
 20
47.54707723
  0
VERTEX
  8
0
 10
206.00361926
 20
48.57799748
  0
VERTEX
  8
0
 10
204.23773052
 20
50.63350592
  0
VERTEX
  8
0
 10
202.42237041
 20
52.65972327
  0
VERTEX
  8
0
 10
200.58210661
 20
54.63163154
  0
VERTEX
  8
0
 10
198.74150679
 20
56.52421274
  0
VERTEX
  8
0
 10
197.79128665
 20
57.46848633
  0
VERTEX
  8
0
 10
196.77687779
 20
58.45298091
  0
VERTEX
  8
0
 10
195.70378959
 20
59.47207471
  0
VERTEX
  8
0
 10
194.57753149
 20
60.52014595
  0
VERTEX
  8
0
 10
193.40361288
 20
61.59157284
  0
VERTEX
  8
0
 10
192.18754319
 20
62.68073360
  0
VERTEX
  8
0
 10
190.93483181
 20
63.78200646
  0
VERTEX
  8
0
 10
189.65098817
 20
64.88976963
  0
VERTEX
  8
0
 10
188.34152168
 20
65.99840134
  0
VERTEX
  8
0
 10
187.01194174
 20
67.10227980
  0
VERTEX
  8
0
 10
185.66775776
 20
68.19578324
  0
VERTEX
  8
0
 10
184.31447917
 20
69.27328987
  0
VERTEX
  8
0
 10
182.95761536
 20
70.32917792
  0
VERTEX
  8
0
 10
181.60267575
 20
71.35782560
  0
VERTEX
  8
0
 10
180.25516976
 20
72.35361113
  0
VERTEX
  8
0
 10
178.92060679
 20
73.31091274
  0
VERTEX
  8
0
 10
177.56611247
 20
74.25332939
  0
VERTEX
  8
0
 10
176.15823653
 20
75.20637219
  0
VERTEX
  8
0
 10
174.70162451
 20
76.16728757
  0
VERTEX
  8
0
 10
173.20092195
 20
77.13332193
  0
VERTEX
  8
0
 10
171.66077439
 20
78.10172171
  0
VERTEX
  8
0
 10
170.08582738
 20
79.06973332
  0
VERTEX
  8
0
 10
168.48072646
 20
80.03460318
  0
VERTEX
  8
0
 10
166.85011717
 20
80.99357772
  0
VERTEX
  8
0
 10
165.19864506
 20
81.94390335
  0
VERTEX
  8
0
 10
163.53095566
 20
82.88282649
  0
VERTEX
  8
0
 10
161.85169453
 20
83.80759357
  0
VERTEX
  8
0
 10
160.16550720
 20
84.71545101
  0
VERTEX
  8
0
 10
158.47703922
 20
85.60364523
  0
VERTEX
  8
0
 10
156.79093613
 20
86.46942264
  0
VERTEX
  8
0
 10
155.11184347
 20
87.31002967
  0
VERTEX
  8
0
 10
153.44440679
 20
88.12271274
  0
VERTEX
  8
0
 10
151.74592927
 20
88.92600459
  0
VERTEX
  8
0
 10
149.97538988
 20
89.73834270
  0
VERTEX
  8
0
 10
148.13994785
 20
90.55683061
  0
VERTEX
  8
0
 10
146.24676239
 20
91.37857185
  0
VERTEX
  8
0
 10
144.30299274
 20
92.20066995
  0
VERTEX
  8
0
 10
142.31579810
 20
93.02022846
  0
VERTEX
  8
0
 10
140.29233771
 20
93.83435089
  0
VERTEX
  8
0
 10
138.23977078
 20
94.64014079
  0
VERTEX
  8
0
 10
136.16525654
 20
95.43470169
  0
VERTEX
  8
0
 10
134.07595422
 20
96.21513711
  0
VERTEX
  8
0
 10
131.97902302
 20
96.97855061
  0
VERTEX
  8
0
 10
129.88162218
 20
97.72204570
  0
VERTEX
  8
0
 10
127.79091091
 20
98.44272593
  0
VERTEX
  8
0
 10
125.71404844
 20
99.13769482
  0
VERTEX
  8
0
 10
123.65819399
 20
99.80405591
  0
VERTEX
  8
0
 10
121.63050679
 20
100.43891274
  0
VERTEX
  8
0
 10
119.61544127
 20
101.04356287
  0
VERTEX
  8
0
 10
117.59305746
 20
101.62242180
  0
VERTEX
  8
0
 10
115.56392293
 20
102.17726997
  0
VERTEX
  8
0
 10
113.52860526
 20
102.70988781
  0
VERTEX
  8
0
 10
111.48767203
 20
103.22205574
  0
VERTEX
  8
0
 10
109.44169081
 20
103.71555420
  0
VERTEX
  8
0
 10
107.39122919
 20
104.19216363
  0
VERTEX
  8
0
 10
105.33685474
 20
104.65366444
  0
VERTEX
  8
0
 10
101.21863768
 20
105.53846196
  0
VERTEX
  8
0
 10
97.09158025
 20
106.38419022
  0
VERTEX
  8
0
 10
92.96022308
 20
107.20509266
  0
VERTEX
  8
0
 10
88.82910679
 20
108.01541274
  0
VERTEX
  8
0
 10
86.74711703
 20
108.41448092
  0
VERTEX
  8
0
 10
84.63285569
 20
108.80265975
  0
VERTEX
  8
0
 10
80.32087201
 20
109.55085528
  0
VERTEX
  8
0
 10
75.91986327
 20
110.26901122
  0
VERTEX
  8
0
 10
71.45653699
 20
110.96613944
  0
VERTEX
  8
0
 10
62.44976186
 20
112.33336025
  0
VERTEX
  8
0
 10
57.95972806
 20
113.02147660
  0
VERTEX
  8
0
 10
53.51420679
 20
113.72461274
  0
VERTEX
  8
0
 10
52.88875519
 20
113.82930928
  0
VERTEX
  8
0
 10
52.26428344
 20
113.95212589
  0
VERTEX
  8
0
 10
51.01592785
 20
114.20863115
  0
VERTEX
  8
0
 10
50.39086818
 20
114.32057572
  0
VERTEX
  8
0
 10
49.76443673
 20
114.40715220
  0
VERTEX
  8
0
 10
49.13604557
 20
114.45748855
  0
VERTEX
  8
0
 10
48.50510679
 20
114.46071274
  0
VERTEX
  8
0
 10
48.09752992
 20
114.41361009
  0
VERTEX
  8
0
 10
47.51883417
 20
114.30176603
  0
VERTEX
  8
0
 10
46.78645899
 20
114.13344256
  0
VERTEX
  8
0
 10
45.91784385
 20
113.91690166
  0
VERTEX
  8
0
 10
41.42977272
 20
112.73380335
  0
VERTEX
  8
0
 10
38.82172322
 20
112.06776115
  0
VERTEX
  8
0
 10
37.48773309
 20
111.74503373
  0
VERTEX
  8
0
 10
36.15701863
 20
111.44018474
  0
VERTEX
  8
0
 10
34.84701932
 20
111.16147616
  0
VERTEX
  8
0
 10
33.57517460
 20
110.91716998
  0
VERTEX
  8
0
 10
32.35892394
 20
110.71552818
  0
VERTEX
  8
0
 10
31.21570679
 20
110.56481274
  0
VERTEX
  8
0
 10
30.22124249
 20
110.46806306
  0
VERTEX
  8
0
 10
29.18871582
 20
110.39330922
  0
VERTEX
  8
0
 10
28.12157048
 20
110.33856115
  0
VERTEX
  8
0
 10
27.02325018
 20
110.30182875
  0
VERTEX
  8
0
 10
25.89719864
 20
110.28112195
  0
VERTEX
  8
0
 10
24.74685955
 20
110.27445066
  0
VERTEX
  8
0
 10
22.38709359
 20
110.29525430
  0
VERTEX
  8
0
 10
19.97150194
 20
110.34831901
  0
VERTEX
  8
0
 10
17.52763428
 20
110.41772413
  0
VERTEX
  8
0
 10
15.08304026
 20
110.48754901
  0
VERTEX
  8
0
 10
12.66526955
 20
110.54187298
  0
VERTEX
  8
0
 10
10.89649254
 20
110.55480508
  0
VERTEX
  8
0
 10
10.33421801
 20
110.57419386
  0
VERTEX
  8
0
 10
10.33386871
 20
110.65935885
  0
VERTEX
  8
0
 10
10.33085739
 20
144.95049505
  0
VERTEX
  8
0
 10
70.38879066
 20
144.95049505
  0
VERTEX
  8
0
 10
70.38879066
 20
199.95049505
  0
VERTEX
  8
0
 10
10.32602751
 20
199.95049505
  0
VERTEX
  8
0
 10
10.30375148
 20
453.61739745
  0
VERTEX
  8
0
 10
70.38879066
 20
453.61739745
  0
VERTEX
  8
0
 10
70.38879066
 20
513.79420085
  0
VERTEX
  8
0
 10
10.29846698
 20
513.79420085
  0
VERTEX
  8
0
 10
10.29130662
 20
595.33239038
  0
VERTEX
  8
0
 10
70.38879066
 20
595.33239038
  0
VERTEX
  8
0
 10
70.38879066
 20
655.50919378
  0
VERTEX
  8
0
 10
10.28602213
 20
655.50919378
  0
VERTEX
  8
0
 10
10.26323466
 20
915.00000000
  0
SEQEND
  0
ENDSEC
  0
EOF
