  0
SECTION
  2
HEADER
  9
$ACADVER
  1
AC1009
  9
$EXTMIN
 10
-1434.95963693
 20
-2084.52616690
 30
0.0
  9
$EXTMAX
 10
2829.41020325
 20
2425.77425743
 30
0.0
  0
ENDSEC
  0
SECTION
  2
TABLES
  0
TABLE
  2
LAYER
 70
1
 0
LAYER
 2
0
 70
0
 62
1
 6
CONTINUOUS
 0
ENDTAB
 0
ENDSEC
  0
SECTION
  2
ENTITIES
  0
POLYLINE
  8
0
 66
   1
 39
0.000000
 70
    1
  0
VERTEX
  8
0
 10
1224.44388668
 20
446.08767970
  0
VERTEX
  8
0
 10
1224.62310000
 20
448.84775000
 42
-0.35849161
  0
VERTEX
  8
0
 10
1261.75130000
 20
497.95115000
  0
VERTEX
  8
0
 10
1281.33742425
 20
501.81484415
 42
-0.04873007
  0
VERTEX
  8
0
 10
1284.24048181
 20
502.09845000
  0
VERTEX
  8
0
 10
1329.53895150
 20
502.09845000
 42
0.13586955
  0
VERTEX
  8
0
 10
1337.25318443
 20
504.23413461
  0
VERTEX
  8
0
 10
1338.29509236
 20
504.85892655
 42
0.22856140
  0
VERTEX
  8
0
 10
1345.45072553
 20
515.75167346
  0
VERTEX
  8
0
 10
1345.55910000
 20
516.56905000
  0
VERTEX
  8
0
 10
1345.89982750
 20
517.36704316
  0
VERTEX
  8
0
 10
1346.23653498
 20
518.20048814
  0
VERTEX
  8
0
 10
1346.56928627
 20
519.06882222
  0
VERTEX
  8
0
 10
1346.89814517
 20
519.97148267
  0
VERTEX
  8
0
 10
1347.54444104
 20
521.87753176
  0
VERTEX
  8
0
 10
1348.17593306
 20
523.91413361
  0
VERTEX
  8
0
 10
1348.79313171
 20
526.07678638
  0
VERTEX
  8
0
 10
1349.39654747
 20
528.36098826
  0
VERTEX
  8
0
 10
1349.98669083
 20
530.76223744
  0
VERTEX
  8
0
 10
1350.56407225
 20
533.27603209
  0
VERTEX
  8
0
 10
1351.12920221
 20
535.89787039
  0
VERTEX
  8
0
 10
1351.68259119
 20
538.62325053
  0
VERTEX
  8
0
 10
1352.22474967
 20
541.44767068
  0
VERTEX
  8
0
 10
1352.75618812
 20
544.36662903
  0
VERTEX
  8
0
 10
1353.27741703
 20
547.37562376
  0
VERTEX
  8
0
 10
1353.78894687
 20
550.47015305
  0
VERTEX
  8
0
 10
1354.29128811
 20
553.64571507
  0
VERTEX
  8
0
 10
1354.78495124
 20
556.89780802
  0
VERTEX
  8
0
 10
1355.27044673
 20
560.22193008
  0
VERTEX
  8
0
 10
1355.74828506
 20
563.61357941
  0
VERTEX
  8
0
 10
1356.68303214
 20
570.58145266
  0
VERTEX
  8
0
 10
1357.59327632
 20
577.76541322
  0
VERTEX
  8
0
 10
1358.48310139
 20
585.12944653
  0
VERTEX
  8
0
 10
1359.35659119
 20
592.63753804
  0
VERTEX
  8
0
 10
1360.21782954
 20
600.25367321
  0
VERTEX
  8
0
 10
1361.91988713
 20
615.66601631
  0
VERTEX
  8
0
 10
1363.60963457
 20
639.24034971
  0
VERTEX
  8
0
 10
1365.13311265
 20
660.71068354
  0
VERTEX
  8
0
 10
1367.80961615
 20
698.58229206
  0
VERTEX
  8
0
 10
1369.02681924
 20
715.60503658
  0
VERTEX
  8
0
 10
1370.20610835
 20
731.76672114
  0
VERTEX
  8
0
 10
1371.37957232
 20
747.37808064
  0
VERTEX
  8
0
 10
1372.57930000
 20
762.74985000
  0
VERTEX
  8
0
 10
1373.17746894
 20
770.57961864
  0
VERTEX
  8
0
 10
1373.74925864
 20
778.69379984
  0
VERTEX
  8
0
 10
1374.29592714
 20
787.06303536
  0
VERTEX
  8
0
 10
1374.81873250
 20
795.65796698
  0
VERTEX
  8
0
 10
1375.31893276
 20
804.44923650
  0
VERTEX
  8
0
 10
1375.79778596
 20
813.40748567
  0
VERTEX
  8
0
 10
1376.25655015
 20
822.50335628
  0
VERTEX
  8
0
 10
1376.69648337
 20
831.70749012
  0
VERTEX
  8
0
 10
1377.11884368
 20
840.99052895
  0
VERTEX
  8
0
 10
1377.52488912
 20
850.32311455
  0
VERTEX
  8
0
 10
1378.29306756
 20
869.01949319
  0
VERTEX
  8
0
 10
1379.01108307
 20
887.56176027
  0
VERTEX
  8
0
 10
1379.68900000
 20
905.71505000
  0
VERTEX
  8
0
 10
1380.05514683
 20
916.36083065
  0
VERTEX
  8
0
 10
1380.48377228
 20
930.07759798
  0
VERTEX
  8
0
 10
1380.96198746
 20
946.35525872
  0
VERTEX
  8
0
 10
1381.47690345
 20
964.68371962
  0
VERTEX
  8
0
 10
1382.01563137
 20
984.55288744
  0
VERTEX
  8
0
 10
1382.56528231
 20
1005.45266892
  0
VERTEX
  8
0
 10
1383.11296738
 20
1026.87297082
  0
VERTEX
  8
0
 10
1383.64579767
 20
1048.30369988
  0
VERTEX
  8
0
 10
1384.15088428
 20
1069.23476284
  0
VERTEX
  8
0
 10
1384.61533831
 20
1089.15606646
  0
VERTEX
  8
0
 10
1385.02627087
 20
1107.55751749
  0
VERTEX
  8
0
 10
1385.37079305
 20
1123.92902268
  0
VERTEX
  8
0
 10
1385.63601595
 20
1137.76048877
  0
VERTEX
  8
0
 10
1385.80905068
 20
1148.54182251
  0
VERTEX
  8
0
 10
1385.85696969
 20
1152.62928561
  0
VERTEX
  8
0
 10
1385.87700833
 20
1155.76293065
  0
VERTEX
  8
0
 10
1385.86755547
 20
1157.87899598
  0
VERTEX
  8
0
 10
1385.85126625
 20
1158.53551074
  0
VERTEX
  8
0
 10
1385.82700000
 20
1158.91371994
  0
VERTEX
  8
0
 10
1385.76007991
 20
1159.38236273
  0
VERTEX
  8
0
 10
1385.67308651
 20
1159.84284096
  0
VERTEX
  8
0
 10
1385.56673868
 20
1160.29537760
  0
VERTEX
  8
0
 10
1385.44175527
 20
1160.74019562
  0
VERTEX
  8
0
 10
1385.29885518
 20
1161.17751801
  0
VERTEX
  8
0
 10
1385.13875727
 20
1161.60756773
  0
VERTEX
  8
0
 10
1384.96218042
 20
1162.03056777
  0
VERTEX
  8
0
 10
1384.76984349
 20
1162.44674108
  0
VERTEX
  8
0
 10
1384.56246537
 20
1162.85631065
  0
VERTEX
  8
0
 10
1384.34076493
 20
1163.25949946
  0
VERTEX
  8
0
 10
1383.85727258
 20
1164.04762665
  0
VERTEX
  8
0
 10
1383.32511742
 20
1164.81290644
  0
VERTEX
  8
0
 10
1382.75005044
 20
1165.55712264
  0
VERTEX
  8
0
 10
1382.13782264
 20
1166.28205903
  0
VERTEX
  8
0
 10
1381.49418501
 20
1166.98949939
  0
VERTEX
  8
0
 10
1380.82488853
 20
1167.68122753
  0
VERTEX
  8
0
 10
1380.13568419
 20
1168.35902723
  0
VERTEX
  8
0
 10
1379.43232299
 20
1169.02468228
  0
VERTEX
  8
0
 10
1378.72055591
 20
1169.67997648
  0
VERTEX
  8
0
 10
1377.29480808
 20
1170.96661747
  0
VERTEX
  8
0
 10
1376.88947902
 20
1171.35130149
  0
VERTEX
  8
0
 10
1376.38461608
 20
1171.86403345
  0
VERTEX
  8
0
 10
1375.09586899
 20
1173.24845142
  0
VERTEX
  8
0
 10
1373.46772766
 20
1175.06949186
  0
VERTEX
  8
0
 10
1371.53935297
 20
1177.27677526
  0
VERTEX
  8
0
 10
1369.34990579
 20
1179.81992210
  0
VERTEX
  8
0
 10
1366.93854700
 20
1182.64855286
  0
VERTEX
  8
0
 10
1361.60673807
 20
1188.96074809
  0
VERTEX
  8
0
 10
1350.00325926
 20
1202.79424694
  0
VERTEX
  8
0
 10
1344.35816335
 20
1209.50947831
  0
VERTEX
  8
0
 10
1339.23521241
 20
1215.55298279
  0
VERTEX
  8
0
 10
1338.86884792
 20
1215.95916468
  0
VERTEX
  8
0
 10
1338.48294127
 20
1216.34272872
  0
VERTEX
  8
0
 10
1338.07856582
 20
1216.70317990
  0
VERTEX
  8
0
 10
1337.65679494
 20
1217.04002324
  0
VERTEX
  8
0
 10
1337.21870198
 20
1217.35276372
  0
VERTEX
  8
0
 10
1336.76536032
 20
1217.64090635
  0
VERTEX
  8
0
 10
1336.29784330
 20
1217.90395611
  0
VERTEX
  8
0
 10
1335.81722430
 20
1218.14141802
  0
VERTEX
  8
0
 10
1335.32457668
 20
1218.35279706
  0
VERTEX
  8
0
 10
1334.82097380
 20
1218.53759823
  0
VERTEX
  8
0
 10
1334.30748902
 20
1218.69532654
  0
VERTEX
  8
0
 10
1333.78519570
 20
1218.82548698
  0
VERTEX
  8
0
 10
1333.25516721
 20
1218.92758455
  0
VERTEX
  8
0
 10
1332.71847691
 20
1219.00112424
  0
VERTEX
  8
0
 10
1332.17619817
 20
1219.04561106
  0
VERTEX
  8
0
 10
1331.62940434
 20
1219.06055000
  0
VERTEX
  8
0
 10
1150.58210000
 20
1219.06055000
  0
VERTEX
  8
0
 10
1150.58210000
 20
1187.47995000
  0
VERTEX
  8
0
 10
1079.98830000
 20
1187.47995000
  0
VERTEX
  8
0
 10
1079.98830000
 20
1219.02465000
  0
VERTEX
  8
0
 10
621.43340000
 20
1219.72485000
  0
VERTEX
  8
0
 10
162.87860000
 20
1220.40705000
  0
VERTEX
  8
0
 10
162.87860000
 20
1185.90005000
  0
VERTEX
  8
0
 10
88.31700000
 20
1185.90005000
  0
VERTEX
  8
0
 10
88.31700000
 20
1219.76075000
  0
VERTEX
  8
0
 10
38.47760000
 20
1219.76075000
  0
VERTEX
  8
0
 10
38.47760000
 20
855.24725000
  0
VERTEX
  8
0
 10
38.47760000
 20
490.73375000
  0
VERTEX
  8
0
 10
38.47760000
 20
490.66195000
  0
VERTEX
  8
0
 10
12.33700000
 20
490.66195000
  0
VERTEX
  8
0
 10
12.33700000
 20
460.17576446
  0
VERTEX
  8
0
 10
20.90037782
 20
444.09919502
 42
-0.05117768
  0
VERTEX
  8
0
 10
21.01684593
 20
443.70780461
 42
-0.01260945
  0
VERTEX
  8
0
 10
31.03996583
 20
382.28129674
 42
-0.03862617
  0
VERTEX
  8
0
 10
42.32707380
 20
192.21532224
  0
VERTEX
  8
0
 10
45.51272984
 20
0.21570014
  0
VERTEX
  8
0
 10
1202.52828854
 20
0.00000000
  0
VERTEX
  8
0
 10
1208.29675983
 20
228.24852018
 42
-0.00978826
  0
VERTEX
  8
0
 10
1208.30030271
 20
228.32673853
  0
VERTEX
  8
0
 10
1224.44388668
 20
446.08767970
  0
SEQEND
  0
POLYLINE
  8
0
 66
   1
 39
0.000000
 70
    1
  0
VERTEX
  8
0
 10
1029.12879294
 20
-52.69163909
 42
-0.41421356
  0
VERTEX
  8
0
 10
1031.12879294
 20
-50.69163909
 42
-0.41421356
  0
VERTEX
  8
0
 10
1033.12879294
 20
-52.69163909
 42
-0.41421356
  0
VERTEX
  8
0
 10
1031.12879294
 20
-54.69163909
 42
-0.41421356
  0
VERTEX
  8
0
 10
1029.12879294
 20
-52.69163909
  0
SEQEND
  0
POLYLINE
  8
0
 66
   1
 39
0.000000
 70
    1
  0
VERTEX
  8
0
 10
199.12879294
 20
-52.69163909
 42
-0.41421356
  0
VERTEX
  8
0
 10
201.12879294
 20
-50.69163909
 42
-0.41421356
  0
VERTEX
  8
0
 10
203.12879294
 20
-52.69163909
 42
-0.41421356
  0
VERTEX
  8
0
 10
201.12879294
 20
-54.69163909
 42
-0.41421356
  0
VERTEX
  8
0
 10
199.12879294
 20
-52.69163909
  0
SEQEND
  0
POLYLINE
  8
0
 66
   1
 39
0.000000
 70
    1
  0
VERTEX
  8
0
 10
137.12879294
 20
-287.69163909
 42
-0.41421356
  0
VERTEX
  8
0
 10
139.12879294
 20
-285.69163909
 42
-0.41421356
  0
VERTEX
  8
0
 10
141.12879294
 20
-287.69163909
 42
-0.41421356
  0
VERTEX
  8
0
 10
139.12879294
 20
-289.69163909
 42
-0.41421356
  0
VERTEX
  8
0
 10
137.12879294
 20
-287.69163909
  0
SEQEND
  0
POLYLINE
  8
0
 66
   1
 39
0.000000
 70
    1
  0
VERTEX
  8
0
 10
619.12879294
 20
-287.69163909
 42
-0.41421356
  0
VERTEX
  8
0
 10
621.12879294
 20
-285.69163909
 42
-0.41421356
  0
VERTEX
  8
0
 10
623.12879294
 20
-287.69163909
 42
-0.41421356
  0
VERTEX
  8
0
 10
621.12879294
 20
-289.69163909
 42
-0.41421356
  0
VERTEX
  8
0
 10
619.12879294
 20
-287.69163909
  0
SEQEND
  0
POLYLINE
  8
0
 66
   1
 39
0.000000
 70
    1
  0
VERTEX
  8
0
 10
1089.16804329
 20
-287.71815959
 42
-0.41421356
  0
VERTEX
  8
0
 10
1091.16804329
 20
-285.71815959
 42
-0.41421356
  0
VERTEX
  8
0
 10
1093.16804329
 20
-287.71815959
 42
-0.41421356
  0
VERTEX
  8
0
 10
1091.16804329
 20
-289.71815959
 42
-0.41421356
  0
VERTEX
  8
0
 10
1089.16804329
 20
-287.71815959
  0
SEQEND
  0
POLYLINE
  8
0
 66
   1
 39
0.000000
 70
    1
  0
VERTEX
  8
0
 10
218.00000000
 20
33.00000000
 42
0.41421356
  0
VERTEX
  8
0
 10
216.00000000
 20
35.00000000
 42
0.41421356
  0
VERTEX
  8
0
 10
214.00000000
 20
33.00000000
 42
0.41421356
  0
VERTEX
  8
0
 10
216.00000000
 20
31.00000000
 42
0.41421356
  0
VERTEX
  8
0
 10
218.00000000
 20
33.00000000
 42
-0.41421356
  0
VERTEX
  8
0
 10
216.00000000
 20
31.00000000
 42
-0.41421356
  0
VERTEX
  8
0
 10
214.00000000
 20
33.00000000
 42
-0.41421356
  0
VERTEX
  8
0
 10
216.00000000
 20
35.00000000
 42
-0.41421356
  0
VERTEX
  8
0
 10
218.00000000
 20
33.00000000
  0
SEQEND
  0
POLYLINE
  8
0
 66
   1
 39
0.000000
 70
    1
  0
VERTEX
  8
0
 10
1042.00000000
 20
33.00000000
 42
-0.41421356
  0
VERTEX
  8
0
 10
1040.00000000
 20
31.00000000
 42
-0.41421356
  0
VERTEX
  8
0
 10
1038.00000000
 20
33.00000000
 42
-0.41421356
  0
VERTEX
  8
0
 10
1040.00000000
 20
35.00000000
 42
-0.41421356
  0
VERTEX
  8
0
 10
1042.00000000
 20
33.00000000
  0
SEQEND
  0
POLYLINE
  8
0
 66
   1
 39
0.000000
 70
    1
  0
VERTEX
  8
0
 10
640.00000000
 20
190.00000000
 42
0.41421356
  0
VERTEX
  8
0
 10
638.00000000
 20
192.00000000
 42
0.41421356
  0
VERTEX
  8
0
 10
636.00000000
 20
190.00000000
 42
0.41421356
  0
VERTEX
  8
0
 10
638.00000000
 20
188.00000000
 42
0.41421356
  0
VERTEX
  8
0
 10
640.00000000
 20
190.00000000
 42
-0.41421356
  0
VERTEX
  8
0
 10
638.00000000
 20
188.00000000
 42
-0.41421356
  0
VERTEX
  8
0
 10
636.00000000
 20
190.00000000
 42
-0.41421356
  0
VERTEX
  8
0
 10
638.00000000
 20
192.00000000
 42
-0.41421356
  0
VERTEX
  8
0
 10
640.00000000
 20
190.00000000
  0
SEQEND
  0
POLYLINE
  8
0
 66
   1
 39
0.000000
 70
    1
  0
VERTEX
  8
0
 10
1062.82319661
 20
956.00000000
 42
0.41421356
  0
VERTEX
  8
0
 10
1060.82319661
 20
958.00000000
 42
0.41421356
  0
VERTEX
  8
0
 10
1058.82319661
 20
956.00000000
 42
0.41421356
  0
VERTEX
  8
0
 10
1060.82319661
 20
954.00000000
 42
0.41421356
  0
VERTEX
  8
0
 10
1062.82319661
 20
956.00000000
 42
-0.41421356
  0
VERTEX
  8
0
 10
1060.82319661
 20
954.00000000
 42
-0.41421356
  0
VERTEX
  8
0
 10
1058.82319661
 20
956.00000000
 42
-0.41421356
  0
VERTEX
  8
0
 10
1060.82319661
 20
958.00000000
 42
-0.41421356
  0
VERTEX
  8
0
 10
1062.82319661
 20
956.00000000
  0
SEQEND
  0
POLYLINE
  8
0
 66
   1
 39
0.000000
 70
    1
  0
VERTEX
  8
0
 10
197.17680339
 20
956.00000000
 42
0.41421356
  0
VERTEX
  8
0
 10
195.17680339
 20
958.00000000
 42
0.41421356
  0
VERTEX
  8
0
 10
193.17680339
 20
956.00000000
 42
0.41421356
  0
VERTEX
  8
0
 10
195.17680339
 20
954.00000000
 42
0.41421356
  0
VERTEX
  8
0
 10
197.17680339
 20
956.00000000
 42
-0.41421356
  0
VERTEX
  8
0
 10
195.17680339
 20
954.00000000
 42
-0.41421356
  0
VERTEX
  8
0
 10
193.17680339
 20
956.00000000
 42
-0.41421356
  0
VERTEX
  8
0
 10
195.17680339
 20
958.00000000
 42
-0.41421356
  0
VERTEX
  8
0
 10
197.17680339
 20
956.00000000
  0
SEQEND
  0
POLYLINE
  8
0
 66
   1
 39
0.000000
 70
    1
  0
VERTEX
  8
0
 10
40.19810698
 20
-27.93004864
  0
VERTEX
  8
0
 10
40.19810698
 20
-429.12787327
 42
0.10009273
  0
VERTEX
  8
0
 10
1198.63474896
 20
-429.12787327
  0
VERTEX
  8
0
 10
1197.61741874
 20
-27.73831518
  0
VERTEX
  8
0
 10
40.19810698
 20
-27.93004864
  0
SEQEND
  0
POLYLINE
  8
0
 66
   1
 39
0.000000
 70
    1
  0
VERTEX
  8
0
 10
1197.94390000
 20
373.35255000
  0
VERTEX
  8
0
 10
1123.27460000
 20
373.35255000
  0
VERTEX
  8
0
 10
1123.27460000
 20
439.18875000
  0
VERTEX
  8
0
 10
1197.97980000
 20
439.18875000
  0
VERTEX
  8
0
 10
1197.94390000
 20
373.35255000
  0
SEQEND
  0
POLYLINE
  8
0
 66
   1
 39
0.000000
 70
    1
  0
VERTEX
  8
0
 10
50.51080236
 20
373.35255000
  0
VERTEX
  8
0
 10
127.13710236
 20
373.35255000
  0
VERTEX
  8
0
 10
127.13710236
 20
440.05045000
  0
VERTEX
  8
0
 10
50.51080236
 20
440.05045000
  0
VERTEX
  8
0
 10
50.51080236
 20
373.35255000
  0
SEQEND
  0
POLYLINE
  8
0
 66
   1
 39
0.000000
 70
    1
  0
VERTEX
  8
0
 10
2095.39910716
 20
-1456.54649388
 42
0.01916210
  0
VERTEX
  8
0
 10
2092.32415527
 20
-1611.81271600
  0
VERTEX
  8
0
 10
2092.46268557
 20
-1926.79053650
  0
VERTEX
  8
0
 10
1936.57232181
 20
-1926.79053650
  0
VERTEX
  8
0
 10
1936.47692704
 20
-1535.31565201
  0
VERTEX
  8
0
 10
1936.47692704
 20
-1144.75459590
  0
VERTEX
  8
0
 10
2107.55660644
 20
-1144.79797167
  0
VERTEX
  8
0
 10
2095.39910716
 20
-1456.54649388
  0
SEQEND
  0
POLYLINE
  8
0
 66
   1
 39
0.000000
 70
    1
  0
VERTEX
  8
0
 10
1939.52616690
 20
-1939.52616690
  0
VERTEX
  8
0
 10
1939.52616690
 20
-2084.52616690
  0
VERTEX
  8
0
 10
2084.52616690
 20
-2084.52616690
  0
VERTEX
  8
0
 10
2084.52616690
 20
-1939.52616690
  0
VERTEX
  8
0
 10
1939.52616690
 20
-1939.52616690
  0
SEQEND
  0
POLYLINE
  8
0
 66
   1
 39
0.000000
 70
    1
  0
VERTEX
  8
0
 10
1917.29165294
 20
-939.15545283
  0
VERTEX
  8
0
 10
1917.24726393
 20
-1100.81628814
  0
VERTEX
  8
0
 10
1617.24768260
 20
-1100.82511860
  0
VERTEX
  8
0
 10
1617.24768260
 20
-962.93984995
 42
-0.03870464
  0
VERTEX
  8
0
 10
1917.29165294
 20
-939.15545283
  0
SEQEND
  0
POLYLINE
  8
0
 66
   1
 39
0.000000
 70
    1
  0
VERTEX
  8
0
 10
1211.35857248
 20
-422.51572546
  0
VERTEX
  8
0
 10
1211.37199434
 20
-422.51297485
  0
VERTEX
  8
0
 10
1211.35857248
 20
-422.51572546
  0
SEQEND
  0
POLYLINE
  8
0
 66
   1
 39
0.000000
 70
    1
  0
VERTEX
  8
0
 10
1623.96000408
 20
-1145.18104030
  0
VERTEX
  8
0
 10
1624.21460097
 20
-1927.18104030
  0
VERTEX
  8
0
 10
1924.21460097
 20
-1927.18104030
  0
VERTEX
  8
0
 10
1924.21460097
 20
-1145.18104030
  0
VERTEX
  8
0
 10
1623.96000408
 20
-1145.18104030
  0
SEQEND
  0
POLYLINE
  8
0
 66
   1
 39
0.000000
 70
    1
  0
VERTEX
  8
0
 10
-610.35097241
 20
-1898.16124470
  0
VERTEX
  8
0
 10
-459.86873910
 20
-1898.16124470
  0
VERTEX
  8
0
 10
-459.86873910
 20
-1444.06613861
  0
VERTEX
  8
0
 10
-459.86873910
 20
-992.58375594
  0
VERTEX
  8
0
 10
-610.35097241
 20
-992.13847915
  0
VERTEX
  8
0
 10
-610.01805459
 20
-997.35987123
  0
VERTEX
  8
0
 10
-609.67054731
 20
-1002.59653655
  0
VERTEX
  8
0
 10
-608.95663877
 20
-1013.10366261
  0
VERTEX
  8
0
 10
-608.25899561
 20
-1023.63580863
  0
VERTEX
  8
0
 10
-607.93182007
 20
-1028.90374891
  0
VERTEX
  8
0
 10
-607.62736669
 20
-1034.16892593
  0
VERTEX
  8
0
 10
-607.35185407
 20
-1039.42833359
  0
VERTEX
  8
0
 10
-607.11150083
 20
-1044.67896581
  0
VERTEX
  8
0
 10
-606.91252557
 20
-1049.91781650
  0
VERTEX
  8
0
 10
-606.76114688
 20
-1055.14187958
  0
VERTEX
  8
0
 10
-606.66358338
 20
-1060.34814896
  0
VERTEX
  8
0
 10
-606.63692564
 20
-1062.94367161
  0
VERTEX
  8
0
 10
-606.62605367
 20
-1065.53361855
  0
VERTEX
  8
0
 10
-606.63174480
 20
-1068.11761403
  0
VERTEX
  8
0
 10
-606.65477636
 20
-1070.69528227
  0
VERTEX
  8
0
 10
-606.69592567
 20
-1073.26624753
  0
VERTEX
  8
0
 10
-606.75597005
 20
-1075.83013403
  0
VERTEX
  8
0
 10
-606.94262005
 20
-1085.96431269
  0
VERTEX
  8
0
 10
-607.15073723
 20
-1096.10046946
  0
VERTEX
  8
0
 10
-607.57422452
 20
-1116.37689141
  0
VERTEX
  8
0
 10
-607.76102035
 20
-1126.51624361
  0
VERTEX
  8
0
 10
-607.91213478
 20
-1136.65574796
  0
VERTEX
  8
0
 10
-608.01328068
 20
-1146.79494800
  0
VERTEX
  8
0
 10
-608.04065069
 20
-1151.86429124
  0
VERTEX
  8
0
 10
-608.05017090
 20
-1156.93338722
  0
VERTEX
  8
0
 10
-608.25576009
 20
-1191.44540985
  0
VERTEX
  8
0
 10
-608.42764614
 20
-1226.71238297
  0
VERTEX
  8
0
 10
-608.58942125
 20
-1265.21485822
  0
VERTEX
  8
0
 10
-608.69715755
 20
-1268.13229881
  0
VERTEX
  8
0
 10
-608.80068791
 20
-1271.39144480
  0
VERTEX
  8
0
 10
-608.99545205
 20
-1278.89403463
  0
VERTEX
  8
0
 10
-609.17435606
 20
-1287.64099105
  0
VERTEX
  8
0
 10
-609.33804232
 20
-1297.55067742
  0
VERTEX
  8
0
 10
-609.48715325
 20
-1308.54145708
  0
VERTEX
  8
0
 10
-609.62233121
 20
-1320.53169338
  0
VERTEX
  8
0
 10
-609.74421863
 20
-1333.43974966
  0
VERTEX
  8
0
 10
-609.85345787
 20
-1347.18398928
  0
VERTEX
  8
0
 10
-609.95069134
 20
-1361.68277558
  0
VERTEX
  8
0
 10
-610.03656144
 20
-1376.85447191
  0
VERTEX
  8
0
 10
-610.17678106
 20
-1408.89004805
  0
VERTEX
  8
0
 10
-610.27925588
 20
-1442.63762448
  0
VERTEX
  8
0
 10
-610.34912505
 20
-1477.44410798
  0
VERTEX
  8
0
 10
-610.39152772
 20
-1512.65640533
  0
VERTEX
  8
0
 10
-610.41160302
 20
-1547.62142332
  0
VERTEX
  8
0
 10
-610.40532812
 20
-1614.19724832
  0
VERTEX
  8
0
 10
-610.37141353
 20
-1671.94683724
  0
VERTEX
  8
0
 10
-610.35097241
 20
-1715.64544432
  0
VERTEX
  8
0
 10
-610.35097241
 20
-1898.16124470
  0
SEQEND
  0
POLYLINE
  8
0
 66
   1
 39
0.000000
 70
    1
  0
VERTEX
  8
0
 10
-194.13938041
 20
-810.23658843
  0
VERTEX
  8
0
 10
-185.18679758
 20
-825.38977624
 42
0.19019234
  0
VERTEX
  8
0
 10
-175.18197457
 20
-829.99338409
  0
VERTEX
  8
0
 10
-62.13089384
 20
-835.26128612
  0
VERTEX
  8
0
 10
-62.13089384
 20
-959.21348612
  0
VERTEX
  8
0
 10
-390.84469384
 20
-959.43422914
  0
VERTEX
  8
0
 10
-390.84469384
 20
-819.39018612
 42
-0.06143300
  0
VERTEX
  8
0
 10
-194.13938041
 20
-810.23658843
  0
SEQEND
  0
POLYLINE
  8
0
 66
   1
 39
0.000000
 70
    1
  0
VERTEX
  8
0
 10
-51.34992517
 20
-1886.68833559
 42
0.08635088
  0
VERTEX
  8
0
 10
-57.27676100
 20
-1887.64728640
 42
0.13345118
  0
VERTEX
  8
0
 10
-64.86089083
 20
-1892.83253036
 42
0.13435893
  0
VERTEX
  8
0
 10
-68.78181150
 20
-1901.14727893
 42
0.05568841
  0
VERTEX
  8
0
 10
-69.02404526
 20
-1905.06364922
  0
VERTEX
  8
0
 10
-381.34992517
 20
-1905.06364922
  0
VERTEX
  8
0
 10
-381.34992517
 20
-1000.06364922
  0
VERTEX
  8
0
 10
-56.92512554
 20
-1000.06364922
  0
VERTEX
  8
0
 10
-51.34992517
 20
-1000.06364922
  0
VERTEX
  8
0
 10
-51.34992517
 20
-1005.03052124
  0
VERTEX
  8
0
 10
-51.34992517
 20
-1886.68833559
  0
SEQEND
  0
POLYLINE
  8
0
 66
   1
 39
0.000000
 70
    1
  0
VERTEX
  8
0
 10
2167.32425804
 20
939.18062139
  0
VERTEX
  8
0
 10
2167.11976966
 20
939.17029561
  0
VERTEX
  8
0
 10
2166.92118828
 20
939.13998850
  0
VERTEX
  8
0
 10
2166.72951922
 20
939.09070535
  0
VERTEX
  8
0
 10
2166.54576778
 20
939.02345147
  0
VERTEX
  8
0
 10
2166.37093928
 20
938.93923219
  0
VERTEX
  8
0
 10
2166.20603902
 20
938.83905280
  0
VERTEX
  8
0
 10
2166.05207232
 20
938.72391862
  0
VERTEX
  8
0
 10
2165.91004448
 20
938.59483495
  0
VERTEX
  8
0
 10
2165.78096081
 20
938.45280711
  0
VERTEX
  8
0
 10
2165.66582663
 20
938.29884041
  0
VERTEX
  8
0
 10
2165.56564724
 20
938.13394015
  0
VERTEX
  8
0
 10
2165.48142795
 20
937.95911165
  0
VERTEX
  8
0
 10
2165.41417408
 20
937.77536021
  0
VERTEX
  8
0
 10
2165.36489093
 20
937.58369115
  0
VERTEX
  8
0
 10
2165.33458381
 20
937.38510977
  0
VERTEX
  8
0
 10
2165.32425804
 20
937.18062139
  0
VERTEX
  8
0
 10
2165.33458381
 20
936.97613301
  0
VERTEX
  8
0
 10
2165.36489093
 20
936.77755163
  0
VERTEX
  8
0
 10
2165.41417408
 20
936.58588257
  0
VERTEX
  8
0
 10
2165.48142795
 20
936.40213113
  0
VERTEX
  8
0
 10
2165.56564724
 20
936.22730263
  0
VERTEX
  8
0
 10
2165.66582663
 20
936.06240237
  0
VERTEX
  8
0
 10
2165.78096081
 20
935.90843567
  0
VERTEX
  8
0
 10
2165.91004448
 20
935.76640783
  0
VERTEX
  8
0
 10
2166.05207232
 20
935.63732416
  0
VERTEX
  8
0
 10
2166.20603902
 20
935.52218998
  0
VERTEX
  8
0
 10
2166.37093928
 20
935.42201059
  0
VERTEX
  8
0
 10
2166.54576778
 20
935.33779130
  0
VERTEX
  8
0
 10
2166.72951922
 20
935.27053743
  0
VERTEX
  8
0
 10
2166.92118828
 20
935.22125428
  0
VERTEX
  8
0
 10
2167.11976966
 20
935.19094716
  0
VERTEX
  8
0
 10
2167.32425804
 20
935.18062139
  0
VERTEX
  8
0
 10
2167.52874642
 20
935.19094716
  0
VERTEX
  8
0
 10
2167.72732780
 20
935.22125428
  0
VERTEX
  8
0
 10
2167.91899686
 20
935.27053743
  0
VERTEX
  8
0
 10
2168.10274830
 20
935.33779130
  0
VERTEX
  8
0
 10
2168.27757680
 20
935.42201059
  0
VERTEX
  8
0
 10
2168.44247706
 20
935.52218998
  0
VERTEX
  8
0
 10
2168.59644376
 20
935.63732416
  0
VERTEX
  8
0
 10
2168.73847160
 20
935.76640783
  0
VERTEX
  8
0
 10
2168.86755527
 20
935.90843567
  0
VERTEX
  8
0
 10
2168.98268945
 20
936.06240237
  0
VERTEX
  8
0
 10
2169.08286884
 20
936.22730263
  0
VERTEX
  8
0
 10
2169.16708813
 20
936.40213113
  0
VERTEX
  8
0
 10
2169.23434200
 20
936.58588257
  0
VERTEX
  8
0
 10
2169.28362515
 20
936.77755163
  0
VERTEX
  8
0
 10
2169.31393226
 20
936.97613301
  0
VERTEX
  8
0
 10
2169.32425804
 20
937.18062139
  0
VERTEX
  8
0
 10
2169.31393226
 20
937.38510977
  0
VERTEX
  8
0
 10
2169.28362515
 20
937.58369115
  0
VERTEX
  8
0
 10
2169.23434200
 20
937.77536021
  0
VERTEX
  8
0
 10
2169.16708813
 20
937.95911165
  0
VERTEX
  8
0
 10
2169.08286884
 20
938.13394015
  0
VERTEX
  8
0
 10
2168.98268945
 20
938.29884041
  0
VERTEX
  8
0
 10
2168.86755527
 20
938.45280711
  0
VERTEX
  8
0
 10
2168.73847160
 20
938.59483495
  0
VERTEX
  8
0
 10
2168.59644376
 20
938.72391862
  0
VERTEX
  8
0
 10
2168.44247706
 20
938.83905280
  0
VERTEX
  8
0
 10
2168.27757680
 20
938.93923219
  0
VERTEX
  8
0
 10
2168.10274830
 20
939.02345147
  0
VERTEX
  8
0
 10
2167.91899686
 20
939.09070535
  0
VERTEX
  8
0
 10
2167.72732780
 20
939.13998850
  0
VERTEX
  8
0
 10
2167.52874642
 20
939.17029561
  0
VERTEX
  8
0
 10
2167.32425804
 20
939.18062139
  0
SEQEND
  0
POLYLINE
  8
0
 66
   1
 39
0.000000
 70
    1
  0
VERTEX
  8
0
 10
2244.32425804
 20
332.18062139
  0
VERTEX
  8
0
 10
2244.11976966
 20
332.17029561
  0
VERTEX
  8
0
 10
2243.92118828
 20
332.13998850
  0
VERTEX
  8
0
 10
2243.72951922
 20
332.09070535
  0
VERTEX
  8
0
 10
2243.54576778
 20
332.02345147
  0
VERTEX
  8
0
 10
2243.37093928
 20
331.93923219
  0
VERTEX
  8
0
 10
2243.20603902
 20
331.83905280
  0
VERTEX
  8
0
 10
2243.05207232
 20
331.72391862
  0
VERTEX
  8
0
 10
2242.91004448
 20
331.59483495
  0
VERTEX
  8
0
 10
2242.78096081
 20
331.45280711
  0
VERTEX
  8
0
 10
2242.66582663
 20
331.29884041
  0
VERTEX
  8
0
 10
2242.56564724
 20
331.13394015
  0
VERTEX
  8
0
 10
2242.48142795
 20
330.95911165
  0
VERTEX
  8
0
 10
2242.41417408
 20
330.77536021
  0
VERTEX
  8
0
 10
2242.36489093
 20
330.58369115
  0
VERTEX
  8
0
 10
2242.33458381
 20
330.38510977
  0
VERTEX
  8
0
 10
2242.32425804
 20
330.18062139
  0
VERTEX
  8
0
 10
2242.33458381
 20
329.97613301
  0
VERTEX
  8
0
 10
2242.36489093
 20
329.77755163
  0
VERTEX
  8
0
 10
2242.41417408
 20
329.58588257
  0
VERTEX
  8
0
 10
2242.48142795
 20
329.40213113
  0
VERTEX
  8
0
 10
2242.56564724
 20
329.22730263
  0
VERTEX
  8
0
 10
2242.66582663
 20
329.06240237
  0
VERTEX
  8
0
 10
2242.78096081
 20
328.90843567
  0
VERTEX
  8
0
 10
2242.91004448
 20
328.76640783
  0
VERTEX
  8
0
 10
2243.05207232
 20
328.63732416
  0
VERTEX
  8
0
 10
2243.20603902
 20
328.52218998
  0
VERTEX
  8
0
 10
2243.37093928
 20
328.42201059
  0
VERTEX
  8
0
 10
2243.54576778
 20
328.33779130
  0
VERTEX
  8
0
 10
2243.72951922
 20
328.27053743
  0
VERTEX
  8
0
 10
2243.92118828
 20
328.22125428
  0
VERTEX
  8
0
 10
2244.11976966
 20
328.19094716
  0
VERTEX
  8
0
 10
2244.32425804
 20
328.18062139
  0
VERTEX
  8
0
 10
2244.52874642
 20
328.19094716
  0
VERTEX
  8
0
 10
2244.72732780
 20
328.22125428
  0
VERTEX
  8
0
 10
2244.91899686
 20
328.27053743
  0
VERTEX
  8
0
 10
2245.10274830
 20
328.33779130
  0
VERTEX
  8
0
 10
2245.27757680
 20
328.42201059
  0
VERTEX
  8
0
 10
2245.44247706
 20
328.52218998
  0
VERTEX
  8
0
 10
2245.59644376
 20
328.63732416
  0
VERTEX
  8
0
 10
2245.73847160
 20
328.76640783
  0
VERTEX
  8
0
 10
2245.86755527
 20
328.90843567
  0
VERTEX
  8
0
 10
2245.98268945
 20
329.06240237
  0
VERTEX
  8
0
 10
2246.08286884
 20
329.22730263
  0
VERTEX
  8
0
 10
2246.16708813
 20
329.40213113
  0
VERTEX
  8
0
 10
2246.23434200
 20
329.58588257
  0
VERTEX
  8
0
 10
2246.28362515
 20
329.77755163
  0
VERTEX
  8
0
 10
2246.31393226
 20
329.97613301
  0
VERTEX
  8
0
 10
2246.32425804
 20
330.18062139
  0
VERTEX
  8
0
 10
2246.31393226
 20
330.38510977
  0
VERTEX
  8
0
 10
2246.28362515
 20
330.58369115
  0
VERTEX
  8
0
 10
2246.23434200
 20
330.77536021
  0
VERTEX
  8
0
 10
2246.16708813
 20
330.95911165
  0
VERTEX
  8
0
 10
2246.08286884
 20
331.13394015
  0
VERTEX
  8
0
 10
2245.98268945
 20
331.29884041
  0
VERTEX
  8
0
 10
2245.86755527
 20
331.45280711
  0
VERTEX
  8
0
 10
2245.73847160
 20
331.59483495
  0
VERTEX
  8
0
 10
2245.59644376
 20
331.72391862
  0
VERTEX
  8
0
 10
2245.44247706
 20
331.83905280
  0
VERTEX
  8
0
 10
2245.27757680
 20
331.93923219
  0
VERTEX
  8
0
 10
2245.10274830
 20
332.02345147
  0
VERTEX
  8
0
 10
2244.91899686
 20
332.09070535
  0
VERTEX
  8
0
 10
2244.72732780
 20
332.13998850
  0
VERTEX
  8
0
 10
2244.52874642
 20
332.17029561
  0
VERTEX
  8
0
 10
2244.32425804
 20
332.18062139
  0
SEQEND
  0
POLYLINE
  8
0
 66
   1
 39
0.000000
 70
    1
  0
VERTEX
  8
0
 10
2794.32425804
 20
852.18062139
  0
VERTEX
  8
0
 10
2794.11976966
 20
852.17029561
  0
VERTEX
  8
0
 10
2793.92118828
 20
852.13998850
  0
VERTEX
  8
0
 10
2793.72951922
 20
852.09070535
  0
VERTEX
  8
0
 10
2793.54576778
 20
852.02345147
  0
VERTEX
  8
0
 10
2793.37093928
 20
851.93923219
  0
VERTEX
  8
0
 10
2793.20603902
 20
851.83905280
  0
VERTEX
  8
0
 10
2793.05207232
 20
851.72391862
  0
VERTEX
  8
0
 10
2792.91004448
 20
851.59483495
  0
VERTEX
  8
0
 10
2792.78096081
 20
851.45280711
  0
VERTEX
  8
0
 10
2792.66582663
 20
851.29884041
  0
VERTEX
  8
0
 10
2792.56564724
 20
851.13394015
  0
VERTEX
  8
0
 10
2792.48142795
 20
850.95911165
  0
VERTEX
  8
0
 10
2792.41417408
 20
850.77536021
  0
VERTEX
  8
0
 10
2792.36489093
 20
850.58369115
  0
VERTEX
  8
0
 10
2792.33458381
 20
850.38510977
  0
VERTEX
  8
0
 10
2792.32425804
 20
850.18062139
  0
VERTEX
  8
0
 10
2792.33458381
 20
849.97613301
  0
VERTEX
  8
0
 10
2792.36489093
 20
849.77755163
  0
VERTEX
  8
0
 10
2792.41417408
 20
849.58588257
  0
VERTEX
  8
0
 10
2792.48142795
 20
849.40213113
  0
VERTEX
  8
0
 10
2792.56564724
 20
849.22730263
  0
VERTEX
  8
0
 10
2792.66582663
 20
849.06240237
  0
VERTEX
  8
0
 10
2792.78096081
 20
848.90843567
  0
VERTEX
  8
0
 10
2792.91004448
 20
848.76640783
  0
VERTEX
  8
0
 10
2793.05207232
 20
848.63732416
  0
VERTEX
  8
0
 10
2793.20603902
 20
848.52218998
  0
VERTEX
  8
0
 10
2793.37093928
 20
848.42201059
  0
VERTEX
  8
0
 10
2793.54576778
 20
848.33779130
  0
VERTEX
  8
0
 10
2793.72951922
 20
848.27053743
  0
VERTEX
  8
0
 10
2793.92118828
 20
848.22125428
  0
VERTEX
  8
0
 10
2794.11976966
 20
848.19094716
  0
VERTEX
  8
0
 10
2794.32425804
 20
848.18062139
  0
VERTEX
  8
0
 10
2794.52874642
 20
848.19094716
  0
VERTEX
  8
0
 10
2794.72732780
 20
848.22125428
  0
VERTEX
  8
0
 10
2794.91899686
 20
848.27053743
  0
VERTEX
  8
0
 10
2795.10274830
 20
848.33779130
  0
VERTEX
  8
0
 10
2795.27757680
 20
848.42201059
  0
VERTEX
  8
0
 10
2795.44247706
 20
848.52218998
  0
VERTEX
  8
0
 10
2795.59644376
 20
848.63732416
  0
VERTEX
  8
0
 10
2795.73847160
 20
848.76640783
  0
VERTEX
  8
0
 10
2795.86755527
 20
848.90843567
  0
VERTEX
  8
0
 10
2795.98268945
 20
849.06240237
  0
VERTEX
  8
0
 10
2796.08286884
 20
849.22730263
  0
VERTEX
  8
0
 10
2796.16708813
 20
849.40213113
  0
VERTEX
  8
0
 10
2796.23434200
 20
849.58588257
  0
VERTEX
  8
0
 10
2796.28362515
 20
849.77755163
  0
VERTEX
  8
0
 10
2796.31393226
 20
849.97613301
  0
VERTEX
  8
0
 10
2796.32425804
 20
850.18062139
  0
VERTEX
  8
0
 10
2796.31393226
 20
850.38510977
  0
VERTEX
  8
0
 10
2796.28362515
 20
850.58369115
  0
VERTEX
  8
0
 10
2796.23434200
 20
850.77536021
  0
VERTEX
  8
0
 10
2796.16708813
 20
850.95911165
  0
VERTEX
  8
0
 10
2796.08286884
 20
851.13394015
  0
VERTEX
  8
0
 10
2795.98268945
 20
851.29884041
  0
VERTEX
  8
0
 10
2795.86755527
 20
851.45280711
  0
VERTEX
  8
0
 10
2795.73847160
 20
851.59483495
  0
VERTEX
  8
0
 10
2795.59644376
 20
851.72391862
  0
VERTEX
  8
0
 10
2795.44247706
 20
851.83905280
  0
VERTEX
  8
0
 10
2795.27757680
 20
851.93923219
  0
VERTEX
  8
0
 10
2795.10274830
 20
852.02345147
  0
VERTEX
  8
0
 10
2794.91899686
 20
852.09070535
  0
VERTEX
  8
0
 10
2794.72732780
 20
852.13998850
  0
VERTEX
  8
0
 10
2794.52874642
 20
852.17029561
  0
VERTEX
  8
0
 10
2794.32425804
 20
852.18062139
  0
SEQEND
  0
POLYLINE
  8
0
 66
   1
 39
0.000000
 70
    1
  0
VERTEX
  8
0
 10
2776.32425804
 20
310.18062139
  0
VERTEX
  8
0
 10
2776.11976966
 20
310.17029561
  0
VERTEX
  8
0
 10
2775.92118828
 20
310.13998850
  0
VERTEX
  8
0
 10
2775.72951922
 20
310.09070535
  0
VERTEX
  8
0
 10
2775.54576778
 20
310.02345147
  0
VERTEX
  8
0
 10
2775.37093928
 20
309.93923219
  0
VERTEX
  8
0
 10
2775.20603902
 20
309.83905280
  0
VERTEX
  8
0
 10
2775.05207232
 20
309.72391862
  0
VERTEX
  8
0
 10
2774.91004448
 20
309.59483495
  0
VERTEX
  8
0
 10
2774.78096081
 20
309.45280711
  0
VERTEX
  8
0
 10
2774.66582663
 20
309.29884041
  0
VERTEX
  8
0
 10
2774.56564724
 20
309.13394015
  0
VERTEX
  8
0
 10
2774.48142795
 20
308.95911165
  0
VERTEX
  8
0
 10
2774.41417408
 20
308.77536021
  0
VERTEX
  8
0
 10
2774.36489093
 20
308.58369115
  0
VERTEX
  8
0
 10
2774.33458381
 20
308.38510977
  0
VERTEX
  8
0
 10
2774.32425804
 20
308.18062139
  0
VERTEX
  8
0
 10
2774.33458381
 20
307.97613301
  0
VERTEX
  8
0
 10
2774.36489093
 20
307.77755163
  0
VERTEX
  8
0
 10
2774.41417408
 20
307.58588257
  0
VERTEX
  8
0
 10
2774.48142795
 20
307.40213113
  0
VERTEX
  8
0
 10
2774.56564724
 20
307.22730263
  0
VERTEX
  8
0
 10
2774.66582663
 20
307.06240237
  0
VERTEX
  8
0
 10
2774.78096081
 20
306.90843567
  0
VERTEX
  8
0
 10
2774.91004448
 20
306.76640783
  0
VERTEX
  8
0
 10
2775.05207232
 20
306.63732416
  0
VERTEX
  8
0
 10
2775.20603902
 20
306.52218998
  0
VERTEX
  8
0
 10
2775.37093928
 20
306.42201059
  0
VERTEX
  8
0
 10
2775.54576778
 20
306.33779130
  0
VERTEX
  8
0
 10
2775.72951922
 20
306.27053743
  0
VERTEX
  8
0
 10
2775.92118828
 20
306.22125428
  0
VERTEX
  8
0
 10
2776.11976966
 20
306.19094716
  0
VERTEX
  8
0
 10
2776.32425804
 20
306.18062139
  0
VERTEX
  8
0
 10
2776.52874642
 20
306.19094716
  0
VERTEX
  8
0
 10
2776.72732780
 20
306.22125428
  0
VERTEX
  8
0
 10
2776.91899686
 20
306.27053743
  0
VERTEX
  8
0
 10
2777.10274830
 20
306.33779130
  0
VERTEX
  8
0
 10
2777.27757680
 20
306.42201059
  0
VERTEX
  8
0
 10
2777.44247706
 20
306.52218998
  0
VERTEX
  8
0
 10
2777.59644376
 20
306.63732416
  0
VERTEX
  8
0
 10
2777.73847160
 20
306.76640783
  0
VERTEX
  8
0
 10
2777.86755527
 20
306.90843567
  0
VERTEX
  8
0
 10
2777.98268945
 20
307.06240237
  0
VERTEX
  8
0
 10
2778.08286884
 20
307.22730263
  0
VERTEX
  8
0
 10
2778.16708813
 20
307.40213113
  0
VERTEX
  8
0
 10
2778.23434200
 20
307.58588257
  0
VERTEX
  8
0
 10
2778.28362515
 20
307.77755163
  0
VERTEX
  8
0
 10
2778.31393226
 20
307.97613301
  0
VERTEX
  8
0
 10
2778.32425804
 20
308.18062139
  0
VERTEX
  8
0
 10
2778.31393226
 20
308.38510977
  0
VERTEX
  8
0
 10
2778.28362515
 20
308.58369115
  0
VERTEX
  8
0
 10
2778.23434200
 20
308.77536021
  0
VERTEX
  8
0
 10
2778.16708813
 20
308.95911165
  0
VERTEX
  8
0
 10
2778.08286884
 20
309.13394015
  0
VERTEX
  8
0
 10
2777.98268945
 20
309.29884041
  0
VERTEX
  8
0
 10
2777.86755527
 20
309.45280711
  0
VERTEX
  8
0
 10
2777.73847160
 20
309.59483495
  0
VERTEX
  8
0
 10
2777.59644376
 20
309.72391862
  0
VERTEX
  8
0
 10
2777.44247706
 20
309.83905280
  0
VERTEX
  8
0
 10
2777.27757680
 20
309.93923219
  0
VERTEX
  8
0
 10
2777.10274830
 20
310.02345147
  0
VERTEX
  8
0
 10
2776.91899686
 20
310.09070535
  0
VERTEX
  8
0
 10
2776.72732780
 20
310.13998850
  0
VERTEX
  8
0
 10
2776.52874642
 20
310.17029561
  0
VERTEX
  8
0
 10
2776.32425804
 20
310.18062139
  0
SEQEND
  0
POLYLINE
  8
0
 66
   1
 39
0.000000
 70
    1
  0
VERTEX
  8
0
 10
2754.32425804
 20
-235.81937861
  0
VERTEX
  8
0
 10
2754.11976966
 20
-235.82970439
  0
VERTEX
  8
0
 10
2753.92118828
 20
-235.86001150
  0
VERTEX
  8
0
 10
2753.72951922
 20
-235.90929465
  0
VERTEX
  8
0
 10
2753.54576778
 20
-235.97654853
  0
VERTEX
  8
0
 10
2753.37093928
 20
-236.06076781
  0
VERTEX
  8
0
 10
2753.20603902
 20
-236.16094720
  0
VERTEX
  8
0
 10
2753.05207232
 20
-236.27608138
  0
VERTEX
  8
0
 10
2752.91004448
 20
-236.40516505
  0
VERTEX
  8
0
 10
2752.78096081
 20
-236.54719289
  0
VERTEX
  8
0
 10
2752.66582663
 20
-236.70115959
  0
VERTEX
  8
0
 10
2752.56564724
 20
-236.86605985
  0
VERTEX
  8
0
 10
2752.48142795
 20
-237.04088835
  0
VERTEX
  8
0
 10
2752.41417408
 20
-237.22463979
  0
VERTEX
  8
0
 10
2752.36489093
 20
-237.41630885
  0
VERTEX
  8
0
 10
2752.33458381
 20
-237.61489023
  0
VERTEX
  8
0
 10
2752.32425804
 20
-237.81937861
  0
VERTEX
  8
0
 10
2752.33458381
 20
-238.02386699
  0
VERTEX
  8
0
 10
2752.36489093
 20
-238.22244837
  0
VERTEX
  8
0
 10
2752.41417408
 20
-238.41411743
  0
VERTEX
  8
0
 10
2752.48142795
 20
-238.59786887
  0
VERTEX
  8
0
 10
2752.56564724
 20
-238.77269737
  0
VERTEX
  8
0
 10
2752.66582663
 20
-238.93759763
  0
VERTEX
  8
0
 10
2752.78096081
 20
-239.09156433
  0
VERTEX
  8
0
 10
2752.91004448
 20
-239.23359217
  0
VERTEX
  8
0
 10
2753.05207232
 20
-239.36267584
  0
VERTEX
  8
0
 10
2753.20603902
 20
-239.47781002
  0
VERTEX
  8
0
 10
2753.37093928
 20
-239.57798941
  0
VERTEX
  8
0
 10
2753.54576778
 20
-239.66220870
  0
VERTEX
  8
0
 10
2753.72951922
 20
-239.72946257
  0
VERTEX
  8
0
 10
2753.92118828
 20
-239.77874572
  0
VERTEX
  8
0
 10
2754.11976966
 20
-239.80905284
  0
VERTEX
  8
0
 10
2754.32425804
 20
-239.81937861
  0
VERTEX
  8
0
 10
2754.52874642
 20
-239.80905284
  0
VERTEX
  8
0
 10
2754.72732780
 20
-239.77874572
  0
VERTEX
  8
0
 10
2754.91899686
 20
-239.72946257
  0
VERTEX
  8
0
 10
2755.10274830
 20
-239.66220870
  0
VERTEX
  8
0
 10
2755.27757680
 20
-239.57798941
  0
VERTEX
  8
0
 10
2755.44247706
 20
-239.47781002
  0
VERTEX
  8
0
 10
2755.59644376
 20
-239.36267584
  0
VERTEX
  8
0
 10
2755.73847160
 20
-239.23359217
  0
VERTEX
  8
0
 10
2755.86755527
 20
-239.09156433
  0
VERTEX
  8
0
 10
2755.98268945
 20
-238.93759763
  0
VERTEX
  8
0
 10
2756.08286884
 20
-238.77269737
  0
VERTEX
  8
0
 10
2756.16708813
 20
-238.59786887
  0
VERTEX
  8
0
 10
2756.23434200
 20
-238.41411743
  0
VERTEX
  8
0
 10
2756.28362515
 20
-238.22244837
  0
VERTEX
  8
0
 10
2756.31393226
 20
-238.02386699
  0
VERTEX
  8
0
 10
2756.32425804
 20
-237.81937861
  0
VERTEX
  8
0
 10
2756.31393226
 20
-237.61489023
  0
VERTEX
  8
0
 10
2756.28362515
 20
-237.41630885
  0
VERTEX
  8
0
 10
2756.23434200
 20
-237.22463979
  0
VERTEX
  8
0
 10
2756.16708813
 20
-237.04088835
  0
VERTEX
  8
0
 10
2756.08286884
 20
-236.86605985
  0
VERTEX
  8
0
 10
2755.98268945
 20
-236.70115959
  0
VERTEX
  8
0
 10
2755.86755527
 20
-236.54719289
  0
VERTEX
  8
0
 10
2755.73847160
 20
-236.40516505
  0
VERTEX
  8
0
 10
2755.59644376
 20
-236.27608138
  0
VERTEX
  8
0
 10
2755.44247706
 20
-236.16094720
  0
VERTEX
  8
0
 10
2755.27757680
 20
-236.06076781
  0
VERTEX
  8
0
 10
2755.10274830
 20
-235.97654853
  0
VERTEX
  8
0
 10
2754.91899686
 20
-235.90929465
  0
VERTEX
  8
0
 10
2754.72732780
 20
-235.86001150
  0
VERTEX
  8
0
 10
2754.52874642
 20
-235.82970439
  0
VERTEX
  8
0
 10
2754.32425804
 20
-235.81937861
  0
SEQEND
  0
POLYLINE
  8
0
 66
   1
 39
0.000000
 70
    1
  0
VERTEX
  8
0
 10
-550.80057824
 20
1171.78780799
  0
VERTEX
  8
0
 10
-551.00506663
 20
1171.77748222
  0
VERTEX
  8
0
 10
-551.20364800
 20
1171.74717510
  0
VERTEX
  8
0
 10
-551.39531706
 20
1171.69789195
  0
VERTEX
  8
0
 10
-551.57906850
 20
1171.63063808
  0
VERTEX
  8
0
 10
-551.75389700
 20
1171.54641879
  0
VERTEX
  8
0
 10
-551.91879726
 20
1171.44623940
  0
VERTEX
  8
0
 10
-552.07276397
 20
1171.33110522
  0
VERTEX
  8
0
 10
-552.21479181
 20
1171.20202155
  0
VERTEX
  8
0
 10
-552.34387547
 20
1171.05999371
  0
VERTEX
  8
0
 10
-552.45900965
 20
1170.90602701
  0
VERTEX
  8
0
 10
-552.55918904
 20
1170.74112675
  0
VERTEX
  8
0
 10
-552.64340833
 20
1170.56629825
  0
VERTEX
  8
0
 10
-552.71066220
 20
1170.38254681
  0
VERTEX
  8
0
 10
-552.75994535
 20
1170.19087775
  0
VERTEX
  8
0
 10
-552.79025247
 20
1169.99229637
  0
VERTEX
  8
0
 10
-552.80057824
 20
1169.78780799
  0
VERTEX
  8
0
 10
-552.79025247
 20
1169.58331961
  0
VERTEX
  8
0
 10
-552.75994535
 20
1169.38473823
  0
VERTEX
  8
0
 10
-552.71066220
 20
1169.19306917
  0
VERTEX
  8
0
 10
-552.64340833
 20
1169.00931773
  0
VERTEX
  8
0
 10
-552.55918904
 20
1168.83448923
  0
VERTEX
  8
0
 10
-552.45900965
 20
1168.66958897
  0
VERTEX
  8
0
 10
-552.34387547
 20
1168.51562227
  0
VERTEX
  8
0
 10
-552.21479181
 20
1168.37359443
  0
VERTEX
  8
0
 10
-552.07276397
 20
1168.24451076
  0
VERTEX
  8
0
 10
-551.91879726
 20
1168.12937658
  0
VERTEX
  8
0
 10
-551.75389700
 20
1168.02919719
  0
VERTEX
  8
0
 10
-551.57906850
 20
1167.94497791
  0
VERTEX
  8
0
 10
-551.39531706
 20
1167.87772403
  0
VERTEX
  8
0
 10
-551.20364800
 20
1167.82844088
  0
VERTEX
  8
0
 10
-551.00506663
 20
1167.79813377
  0
VERTEX
  8
0
 10
-550.80057824
 20
1167.78780799
  0
VERTEX
  8
0
 10
-550.59608986
 20
1167.79813377
  0
VERTEX
  8
0
 10
-550.39750849
 20
1167.82844088
  0
VERTEX
  8
0
 10
-550.20583942
 20
1167.87772403
  0
VERTEX
  8
0
 10
-550.02208799
 20
1167.94497791
  0
VERTEX
  8
0
 10
-549.84725948
 20
1168.02919719
  0
VERTEX
  8
0
 10
-549.68235923
 20
1168.12937658
  0
VERTEX
  8
0
 10
-549.52839252
 20
1168.24451076
  0
VERTEX
  8
0
 10
-549.38636468
 20
1168.37359443
  0
VERTEX
  8
0
 10
-549.25728102
 20
1168.51562227
  0
VERTEX
  8
0
 10
-549.14214683
 20
1168.66958897
  0
VERTEX
  8
0
 10
-549.04196744
 20
1168.83448923
  0
VERTEX
  8
0
 10
-548.95774816
 20
1169.00931773
  0
VERTEX
  8
0
 10
-548.89049429
 20
1169.19306917
  0
VERTEX
  8
0
 10
-548.84121114
 20
1169.38473823
  0
VERTEX
  8
0
 10
-548.81090402
 20
1169.58331961
  0
VERTEX
  8
0
 10
-548.80057824
 20
1169.78780799
  0
VERTEX
  8
0
 10
-548.81090402
 20
1169.99229637
  0
VERTEX
  8
0
 10
-548.84121114
 20
1170.19087775
  0
VERTEX
  8
0
 10
-548.89049429
 20
1170.38254681
  0
VERTEX
  8
0
 10
-548.95774816
 20
1170.56629825
  0
VERTEX
  8
0
 10
-549.04196744
 20
1170.74112675
  0
VERTEX
  8
0
 10
-549.14214683
 20
1170.90602701
  0
VERTEX
  8
0
 10
-549.25728102
 20
1171.05999371
  0
VERTEX
  8
0
 10
-549.38636468
 20
1171.20202155
  0
VERTEX
  8
0
 10
-549.52839252
 20
1171.33110522
  0
VERTEX
  8
0
 10
-549.68235923
 20
1171.44623940
  0
VERTEX
  8
0
 10
-549.84725948
 20
1171.54641879
  0
VERTEX
  8
0
 10
-550.02208799
 20
1171.63063808
  0
VERTEX
  8
0
 10
-550.20583942
 20
1171.69789195
  0
VERTEX
  8
0
 10
-550.39750849
 20
1171.74717510
  0
VERTEX
  8
0
 10
-550.59608986
 20
1171.77748222
  0
VERTEX
  8
0
 10
-550.80057824
 20
1171.78780799
  0
SEQEND
  0
POLYLINE
  8
0
 66
   1
 39
0.000000
 70
    1
  0
VERTEX
  8
0
 10
-339.80057824
 20
1196.78780799
  0
VERTEX
  8
0
 10
-340.00506663
 20
1196.77748222
  0
VERTEX
  8
0
 10
-340.20364800
 20
1196.74717510
  0
VERTEX
  8
0
 10
-340.39531706
 20
1196.69789195
  0
VERTEX
  8
0
 10
-340.57906850
 20
1196.63063808
  0
VERTEX
  8
0
 10
-340.75389700
 20
1196.54641879
  0
VERTEX
  8
0
 10
-340.91879726
 20
1196.44623940
  0
VERTEX
  8
0
 10
-341.07276397
 20
1196.33110522
  0
VERTEX
  8
0
 10
-341.21479181
 20
1196.20202155
  0
VERTEX
  8
0
 10
-341.34387547
 20
1196.05999371
  0
VERTEX
  8
0
 10
-341.45900965
 20
1195.90602701
  0
VERTEX
  8
0
 10
-341.55918904
 20
1195.74112675
  0
VERTEX
  8
0
 10
-341.64340833
 20
1195.56629825
  0
VERTEX
  8
0
 10
-341.71066220
 20
1195.38254681
  0
VERTEX
  8
0
 10
-341.75994535
 20
1195.19087775
  0
VERTEX
  8
0
 10
-341.79025247
 20
1194.99229637
  0
VERTEX
  8
0
 10
-341.80057824
 20
1194.78780799
  0
VERTEX
  8
0
 10
-341.79025247
 20
1194.58331961
  0
VERTEX
  8
0
 10
-341.75994535
 20
1194.38473823
  0
VERTEX
  8
0
 10
-341.71066220
 20
1194.19306917
  0
VERTEX
  8
0
 10
-341.64340833
 20
1194.00931773
  0
VERTEX
  8
0
 10
-341.55918904
 20
1193.83448923
  0
VERTEX
  8
0
 10
-341.45900965
 20
1193.66958897
  0
VERTEX
  8
0
 10
-341.34387547
 20
1193.51562227
  0
VERTEX
  8
0
 10
-341.21479181
 20
1193.37359443
  0
VERTEX
  8
0
 10
-341.07276397
 20
1193.24451076
  0
VERTEX
  8
0
 10
-340.91879726
 20
1193.12937658
  0
VERTEX
  8
0
 10
-340.75389700
 20
1193.02919719
  0
VERTEX
  8
0
 10
-340.57906850
 20
1192.94497791
  0
VERTEX
  8
0
 10
-340.39531706
 20
1192.87772403
  0
VERTEX
  8
0
 10
-340.20364800
 20
1192.82844088
  0
VERTEX
  8
0
 10
-340.00506663
 20
1192.79813377
  0
VERTEX
  8
0
 10
-339.80057824
 20
1192.78780799
  0
VERTEX
  8
0
 10
-339.59608986
 20
1192.79813377
  0
VERTEX
  8
0
 10
-339.39750849
 20
1192.82844088
  0
VERTEX
  8
0
 10
-339.20583942
 20
1192.87772403
  0
VERTEX
  8
0
 10
-339.02208799
 20
1192.94497791
  0
VERTEX
  8
0
 10
-338.84725948
 20
1193.02919719
  0
VERTEX
  8
0
 10
-338.68235923
 20
1193.12937658
  0
VERTEX
  8
0
 10
-338.52839252
 20
1193.24451076
  0
VERTEX
  8
0
 10
-338.38636468
 20
1193.37359443
  0
VERTEX
  8
0
 10
-338.25728102
 20
1193.51562227
  0
VERTEX
  8
0
 10
-338.14214683
 20
1193.66958897
  0
VERTEX
  8
0
 10
-338.04196744
 20
1193.83448923
  0
VERTEX
  8
0
 10
-337.95774816
 20
1194.00931773
  0
VERTEX
  8
0
 10
-337.89049429
 20
1194.19306917
  0
VERTEX
  8
0
 10
-337.84121114
 20
1194.38473823
  0
VERTEX
  8
0
 10
-337.81090402
 20
1194.58331961
  0
VERTEX
  8
0
 10
-337.80057824
 20
1194.78780799
  0
VERTEX
  8
0
 10
-337.81090402
 20
1194.99229637
  0
VERTEX
  8
0
 10
-337.84121114
 20
1195.19087775
  0
VERTEX
  8
0
 10
-337.89049429
 20
1195.38254681
  0
VERTEX
  8
0
 10
-337.95774816
 20
1195.56629825
  0
VERTEX
  8
0
 10
-338.04196744
 20
1195.74112675
  0
VERTEX
  8
0
 10
-338.14214683
 20
1195.90602701
  0
VERTEX
  8
0
 10
-338.25728102
 20
1196.05999371
  0
VERTEX
  8
0
 10
-338.38636468
 20
1196.20202155
  0
VERTEX
  8
0
 10
-338.52839252
 20
1196.33110522
  0
VERTEX
  8
0
 10
-338.68235923
 20
1196.44623940
  0
VERTEX
  8
0
 10
-338.84725948
 20
1196.54641879
  0
VERTEX
  8
0
 10
-339.02208799
 20
1196.63063808
  0
VERTEX
  8
0
 10
-339.20583942
 20
1196.69789195
  0
VERTEX
  8
0
 10
-339.39750849
 20
1196.74717510
  0
VERTEX
  8
0
 10
-339.59608986
 20
1196.77748222
  0
VERTEX
  8
0
 10
-339.80057824
 20
1196.78780799
  0
SEQEND
  0
POLYLINE
  8
0
 66
   1
 39
0.000000
 70
    1
  0
VERTEX
  8
0
 10
-832.07057824
 20
825.50209371
  0
VERTEX
  8
0
 10
-832.27506663
 20
825.49176793
  0
VERTEX
  8
0
 10
-832.47364800
 20
825.46146081
  0
VERTEX
  8
0
 10
-832.66531706
 20
825.41217766
  0
VERTEX
  8
0
 10
-832.84906850
 20
825.34492379
  0
VERTEX
  8
0
 10
-833.02389700
 20
825.26070451
  0
VERTEX
  8
0
 10
-833.18879726
 20
825.16052512
  0
VERTEX
  8
0
 10
-833.34276397
 20
825.04539093
  0
VERTEX
  8
0
 10
-833.48479181
 20
824.91630727
  0
VERTEX
  8
0
 10
-833.61387547
 20
824.77427943
  0
VERTEX
  8
0
 10
-833.72900965
 20
824.62031272
  0
VERTEX
  8
0
 10
-833.82918904
 20
824.45541247
  0
VERTEX
  8
0
 10
-833.91340833
 20
824.28058396
  0
VERTEX
  8
0
 10
-833.98066220
 20
824.09683253
  0
VERTEX
  8
0
 10
-834.02994535
 20
823.90516346
  0
VERTEX
  8
0
 10
-834.06025247
 20
823.70658209
  0
VERTEX
  8
0
 10
-834.07057824
 20
823.50209371
  0
VERTEX
  8
0
 10
-834.06025247
 20
823.29760532
  0
VERTEX
  8
0
 10
-834.02994535
 20
823.09902395
  0
VERTEX
  8
0
 10
-833.98066220
 20
822.90735489
  0
VERTEX
  8
0
 10
-833.91340833
 20
822.72360345
  0
VERTEX
  8
0
 10
-833.82918904
 20
822.54877495
  0
VERTEX
  8
0
 10
-833.72900965
 20
822.38387469
  0
VERTEX
  8
0
 10
-833.61387547
 20
822.22990798
  0
VERTEX
  8
0
 10
-833.48479181
 20
822.08788014
  0
VERTEX
  8
0
 10
-833.34276397
 20
821.95879648
  0
VERTEX
  8
0
 10
-833.18879726
 20
821.84366229
  0
VERTEX
  8
0
 10
-833.02389700
 20
821.74348291
  0
VERTEX
  8
0
 10
-832.84906850
 20
821.65926362
  0
VERTEX
  8
0
 10
-832.66531706
 20
821.59200975
  0
VERTEX
  8
0
 10
-832.47364800
 20
821.54272660
  0
VERTEX
  8
0
 10
-832.27506663
 20
821.51241948
  0
VERTEX
  8
0
 10
-832.07057824
 20
821.50209371
  0
VERTEX
  8
0
 10
-831.86608986
 20
821.51241948
  0
VERTEX
  8
0
 10
-831.66750849
 20
821.54272660
  0
VERTEX
  8
0
 10
-831.47583942
 20
821.59200975
  0
VERTEX
  8
0
 10
-831.29208799
 20
821.65926362
  0
VERTEX
  8
0
 10
-831.11725948
 20
821.74348291
  0
VERTEX
  8
0
 10
-830.95235923
 20
821.84366229
  0
VERTEX
  8
0
 10
-830.79839252
 20
821.95879648
  0
VERTEX
  8
0
 10
-830.65636468
 20
822.08788014
  0
VERTEX
  8
0
 10
-830.52728102
 20
822.22990798
  0
VERTEX
  8
0
 10
-830.41214683
 20
822.38387469
  0
VERTEX
  8
0
 10
-830.31196744
 20
822.54877495
  0
VERTEX
  8
0
 10
-830.22774816
 20
822.72360345
  0
VERTEX
  8
0
 10
-830.16049429
 20
822.90735489
  0
VERTEX
  8
0
 10
-830.11121114
 20
823.09902395
  0
VERTEX
  8
0
 10
-830.08090402
 20
823.29760532
  0
VERTEX
  8
0
 10
-830.07057824
 20
823.50209371
  0
VERTEX
  8
0
 10
-830.08090402
 20
823.70658209
  0
VERTEX
  8
0
 10
-830.11121114
 20
823.90516346
  0
VERTEX
  8
0
 10
-830.16049429
 20
824.09683253
  0
VERTEX
  8
0
 10
-830.22774816
 20
824.28058396
  0
VERTEX
  8
0
 10
-830.31196744
 20
824.45541247
  0
VERTEX
  8
0
 10
-830.41214683
 20
824.62031272
  0
VERTEX
  8
0
 10
-830.52728102
 20
824.77427943
  0
VERTEX
  8
0
 10
-830.65636468
 20
824.91630727
  0
VERTEX
  8
0
 10
-830.79839252
 20
825.04539093
  0
VERTEX
  8
0
 10
-830.95235923
 20
825.16052512
  0
VERTEX
  8
0
 10
-831.11725948
 20
825.26070451
  0
VERTEX
  8
0
 10
-831.29208799
 20
825.34492379
  0
VERTEX
  8
0
 10
-831.47583942
 20
825.41217766
  0
VERTEX
  8
0
 10
-831.66750849
 20
825.46146081
  0
VERTEX
  8
0
 10
-831.86608986
 20
825.49176793
  0
VERTEX
  8
0
 10
-832.07057824
 20
825.50209371
  0
SEQEND
  0
POLYLINE
  8
0
 66
   1
 39
0.000000
 70
    1
  0
VERTEX
  8
0
 10
-864.80057824
 20
1165.78780799
  0
VERTEX
  8
0
 10
-865.00506663
 20
1165.77748222
  0
VERTEX
  8
0
 10
-865.20364800
 20
1165.74717510
  0
VERTEX
  8
0
 10
-865.39531706
 20
1165.69789195
  0
VERTEX
  8
0
 10
-865.57906850
 20
1165.63063808
  0
VERTEX
  8
0
 10
-865.75389700
 20
1165.54641879
  0
VERTEX
  8
0
 10
-865.91879726
 20
1165.44623940
  0
VERTEX
  8
0
 10
-866.07276397
 20
1165.33110522
  0
VERTEX
  8
0
 10
-866.21479181
 20
1165.20202155
  0
VERTEX
  8
0
 10
-866.34387547
 20
1165.05999371
  0
VERTEX
  8
0
 10
-866.45900965
 20
1164.90602701
  0
VERTEX
  8
0
 10
-866.55918904
 20
1164.74112675
  0
VERTEX
  8
0
 10
-866.64340833
 20
1164.56629825
  0
VERTEX
  8
0
 10
-866.71066220
 20
1164.38254681
  0
VERTEX
  8
0
 10
-866.75994535
 20
1164.19087775
  0
VERTEX
  8
0
 10
-866.79025247
 20
1163.99229637
  0
VERTEX
  8
0
 10
-866.80057824
 20
1163.78780799
  0
VERTEX
  8
0
 10
-866.79025247
 20
1163.58331961
  0
VERTEX
  8
0
 10
-866.75994535
 20
1163.38473823
  0
VERTEX
  8
0
 10
-866.71066220
 20
1163.19306917
  0
VERTEX
  8
0
 10
-866.64340833
 20
1163.00931773
  0
VERTEX
  8
0
 10
-866.55918904
 20
1162.83448923
  0
VERTEX
  8
0
 10
-866.45900965
 20
1162.66958897
  0
VERTEX
  8
0
 10
-866.34387547
 20
1162.51562227
  0
VERTEX
  8
0
 10
-866.21479181
 20
1162.37359443
  0
VERTEX
  8
0
 10
-866.07276397
 20
1162.24451076
  0
VERTEX
  8
0
 10
-865.91879726
 20
1162.12937658
  0
VERTEX
  8
0
 10
-865.75389700
 20
1162.02919719
  0
VERTEX
  8
0
 10
-865.57906850
 20
1161.94497791
  0
VERTEX
  8
0
 10
-865.39531706
 20
1161.87772403
  0
VERTEX
  8
0
 10
-865.20364800
 20
1161.82844088
  0
VERTEX
  8
0
 10
-865.00506663
 20
1161.79813377
  0
VERTEX
  8
0
 10
-864.80057824
 20
1161.78780799
  0
VERTEX
  8
0
 10
-864.59608986
 20
1161.79813377
  0
VERTEX
  8
0
 10
-864.39750849
 20
1161.82844088
  0
VERTEX
  8
0
 10
-864.20583942
 20
1161.87772403
  0
VERTEX
  8
0
 10
-864.02208799
 20
1161.94497791
  0
VERTEX
  8
0
 10
-863.84725948
 20
1162.02919719
  0
VERTEX
  8
0
 10
-863.68235923
 20
1162.12937658
  0
VERTEX
  8
0
 10
-863.52839252
 20
1162.24451076
  0
VERTEX
  8
0
 10
-863.38636468
 20
1162.37359443
  0
VERTEX
  8
0
 10
-863.25728102
 20
1162.51562227
  0
VERTEX
  8
0
 10
-863.14214683
 20
1162.66958897
  0
VERTEX
  8
0
 10
-863.04196744
 20
1162.83448923
  0
VERTEX
  8
0
 10
-862.95774816
 20
1163.00931773
  0
VERTEX
  8
0
 10
-862.89049429
 20
1163.19306917
  0
VERTEX
  8
0
 10
-862.84121114
 20
1163.38473823
  0
VERTEX
  8
0
 10
-862.81090402
 20
1163.58331961
  0
VERTEX
  8
0
 10
-862.80057824
 20
1163.78780799
  0
VERTEX
  8
0
 10
-862.81090402
 20
1163.99229637
  0
VERTEX
  8
0
 10
-862.84121114
 20
1164.19087775
  0
VERTEX
  8
0
 10
-862.89049429
 20
1164.38254681
  0
VERTEX
  8
0
 10
-862.95774816
 20
1164.56629825
  0
VERTEX
  8
0
 10
-863.04196744
 20
1164.74112675
  0
VERTEX
  8
0
 10
-863.14214683
 20
1164.90602701
  0
VERTEX
  8
0
 10
-863.25728102
 20
1165.05999371
  0
VERTEX
  8
0
 10
-863.38636468
 20
1165.20202155
  0
VERTEX
  8
0
 10
-863.52839252
 20
1165.33110522
  0
VERTEX
  8
0
 10
-863.68235923
 20
1165.44623940
  0
VERTEX
  8
0
 10
-863.84725948
 20
1165.54641879
  0
VERTEX
  8
0
 10
-864.02208799
 20
1165.63063808
  0
VERTEX
  8
0
 10
-864.20583942
 20
1165.69789195
  0
VERTEX
  8
0
 10
-864.39750849
 20
1165.74717510
  0
VERTEX
  8
0
 10
-864.59608986
 20
1165.77748222
  0
VERTEX
  8
0
 10
-864.80057824
 20
1165.78780799
  0
SEQEND
  0
POLYLINE
  8
0
 66
   1
 39
0.000000
 70
    1
  0
VERTEX
  8
0
 10
-839.80057824
 20
491.78780799
  0
VERTEX
  8
0
 10
-840.00506663
 20
491.77748222
  0
VERTEX
  8
0
 10
-840.20364800
 20
491.74717510
  0
VERTEX
  8
0
 10
-840.39531706
 20
491.69789195
  0
VERTEX
  8
0
 10
-840.57906850
 20
491.63063808
  0
VERTEX
  8
0
 10
-840.75389700
 20
491.54641879
  0
VERTEX
  8
0
 10
-840.91879726
 20
491.44623940
  0
VERTEX
  8
0
 10
-841.07276397
 20
491.33110522
  0
VERTEX
  8
0
 10
-841.21479181
 20
491.20202155
  0
VERTEX
  8
0
 10
-841.34387547
 20
491.05999371
  0
VERTEX
  8
0
 10
-841.45900965
 20
490.90602701
  0
VERTEX
  8
0
 10
-841.55918904
 20
490.74112675
  0
VERTEX
  8
0
 10
-841.64340833
 20
490.56629825
  0
VERTEX
  8
0
 10
-841.71066220
 20
490.38254681
  0
VERTEX
  8
0
 10
-841.75994535
 20
490.19087775
  0
VERTEX
  8
0
 10
-841.79025247
 20
489.99229637
  0
VERTEX
  8
0
 10
-841.80057824
 20
489.78780799
  0
VERTEX
  8
0
 10
-841.79025247
 20
489.58331961
  0
VERTEX
  8
0
 10
-841.75994535
 20
489.38473823
  0
VERTEX
  8
0
 10
-841.71066220
 20
489.19306917
  0
VERTEX
  8
0
 10
-841.64340833
 20
489.00931773
  0
VERTEX
  8
0
 10
-841.55918904
 20
488.83448923
  0
VERTEX
  8
0
 10
-841.45900965
 20
488.66958897
  0
VERTEX
  8
0
 10
-841.34387547
 20
488.51562227
  0
VERTEX
  8
0
 10
-841.21479181
 20
488.37359443
  0
VERTEX
  8
0
 10
-841.07276397
 20
488.24451076
  0
VERTEX
  8
0
 10
-840.91879726
 20
488.12937658
  0
VERTEX
  8
0
 10
-840.75389700
 20
488.02919719
  0
VERTEX
  8
0
 10
-840.57906850
 20
487.94497791
  0
VERTEX
  8
0
 10
-840.39531706
 20
487.87772403
  0
VERTEX
  8
0
 10
-840.20364800
 20
487.82844088
  0
VERTEX
  8
0
 10
-840.00506663
 20
487.79813377
  0
VERTEX
  8
0
 10
-839.80057824
 20
487.78780799
  0
VERTEX
  8
0
 10
-839.59608986
 20
487.79813377
  0
VERTEX
  8
0
 10
-839.39750849
 20
487.82844088
  0
VERTEX
  8
0
 10
-839.20583942
 20
487.87772403
  0
VERTEX
  8
0
 10
-839.02208799
 20
487.94497791
  0
VERTEX
  8
0
 10
-838.84725948
 20
488.02919719
  0
VERTEX
  8
0
 10
-838.68235923
 20
488.12937658
  0
VERTEX
  8
0
 10
-838.52839252
 20
488.24451076
  0
VERTEX
  8
0
 10
-838.38636468
 20
488.37359443
  0
VERTEX
  8
0
 10
-838.25728102
 20
488.51562227
  0
VERTEX
  8
0
 10
-838.14214683
 20
488.66958897
  0
VERTEX
  8
0
 10
-838.04196744
 20
488.83448923
  0
VERTEX
  8
0
 10
-837.95774816
 20
489.00931773
  0
VERTEX
  8
0
 10
-837.89049429
 20
489.19306917
  0
VERTEX
  8
0
 10
-837.84121114
 20
489.38473823
  0
VERTEX
  8
0
 10
-837.81090402
 20
489.58331961
  0
VERTEX
  8
0
 10
-837.80057824
 20
489.78780799
  0
VERTEX
  8
0
 10
-837.81090402
 20
489.99229637
  0
VERTEX
  8
0
 10
-837.84121114
 20
490.19087775
  0
VERTEX
  8
0
 10
-837.89049429
 20
490.38254681
  0
VERTEX
  8
0
 10
-837.95774816
 20
490.56629825
  0
VERTEX
  8
0
 10
-838.04196744
 20
490.74112675
  0
VERTEX
  8
0
 10
-838.14214683
 20
490.90602701
  0
VERTEX
  8
0
 10
-838.25728102
 20
491.05999371
  0
VERTEX
  8
0
 10
-838.38636468
 20
491.20202155
  0
VERTEX
  8
0
 10
-838.52839252
 20
491.33110522
  0
VERTEX
  8
0
 10
-838.68235923
 20
491.44623940
  0
VERTEX
  8
0
 10
-838.84725948
 20
491.54641879
  0
VERTEX
  8
0
 10
-839.02208799
 20
491.63063808
  0
VERTEX
  8
0
 10
-839.20583942
 20
491.69789195
  0
VERTEX
  8
0
 10
-839.39750849
 20
491.74717510
  0
VERTEX
  8
0
 10
-839.59608986
 20
491.77748222
  0
VERTEX
  8
0
 10
-839.80057824
 20
491.78780799
  0
SEQEND
  0
POLYLINE
  8
0
 66
   1
 39
0.000000
 70
    1
  0
VERTEX
  8
0
 10
-1271.80057824
 20
407.78780799
  0
VERTEX
  8
0
 10
-1272.00506663
 20
407.77748222
  0
VERTEX
  8
0
 10
-1272.20364800
 20
407.74717510
  0
VERTEX
  8
0
 10
-1272.39531706
 20
407.69789195
  0
VERTEX
  8
0
 10
-1272.57906850
 20
407.63063808
  0
VERTEX
  8
0
 10
-1272.75389700
 20
407.54641879
  0
VERTEX
  8
0
 10
-1272.91879726
 20
407.44623940
  0
VERTEX
  8
0
 10
-1273.07276397
 20
407.33110522
  0
VERTEX
  8
0
 10
-1273.21479181
 20
407.20202155
  0
VERTEX
  8
0
 10
-1273.34387547
 20
407.05999371
  0
VERTEX
  8
0
 10
-1273.45900965
 20
406.90602701
  0
VERTEX
  8
0
 10
-1273.55918904
 20
406.74112675
  0
VERTEX
  8
0
 10
-1273.64340833
 20
406.56629825
  0
VERTEX
  8
0
 10
-1273.71066220
 20
406.38254681
  0
VERTEX
  8
0
 10
-1273.75994535
 20
406.19087775
  0
VERTEX
  8
0
 10
-1273.79025247
 20
405.99229637
  0
VERTEX
  8
0
 10
-1273.80057824
 20
405.78780799
  0
VERTEX
  8
0
 10
-1273.79025247
 20
405.58331961
  0
VERTEX
  8
0
 10
-1273.75994535
 20
405.38473823
  0
VERTEX
  8
0
 10
-1273.71066220
 20
405.19306917
  0
VERTEX
  8
0
 10
-1273.64340833
 20
405.00931773
  0
VERTEX
  8
0
 10
-1273.55918904
 20
404.83448923
  0
VERTEX
  8
0
 10
-1273.45900965
 20
404.66958897
  0
VERTEX
  8
0
 10
-1273.34387547
 20
404.51562227
  0
VERTEX
  8
0
 10
-1273.21479181
 20
404.37359443
  0
VERTEX
  8
0
 10
-1273.07276397
 20
404.24451076
  0
VERTEX
  8
0
 10
-1272.91879726
 20
404.12937658
  0
VERTEX
  8
0
 10
-1272.75389700
 20
404.02919719
  0
VERTEX
  8
0
 10
-1272.57906850
 20
403.94497791
  0
VERTEX
  8
0
 10
-1272.39531706
 20
403.87772403
  0
VERTEX
  8
0
 10
-1272.20364800
 20
403.82844088
  0
VERTEX
  8
0
 10
-1272.00506663
 20
403.79813377
  0
VERTEX
  8
0
 10
-1271.80057824
 20
403.78780799
  0
VERTEX
  8
0
 10
-1271.59608986
 20
403.79813377
  0
VERTEX
  8
0
 10
-1271.39750849
 20
403.82844088
  0
VERTEX
  8
0
 10
-1271.20583942
 20
403.87772403
  0
VERTEX
  8
0
 10
-1271.02208799
 20
403.94497791
  0
VERTEX
  8
0
 10
-1270.84725948
 20
404.02919719
  0
VERTEX
  8
0
 10
-1270.68235923
 20
404.12937658
  0
VERTEX
  8
0
 10
-1270.52839252
 20
404.24451076
  0
VERTEX
  8
0
 10
-1270.38636468
 20
404.37359443
  0
VERTEX
  8
0
 10
-1270.25728102
 20
404.51562227
  0
VERTEX
  8
0
 10
-1270.14214683
 20
404.66958897
  0
VERTEX
  8
0
 10
-1270.04196744
 20
404.83448923
  0
VERTEX
  8
0
 10
-1269.95774816
 20
405.00931773
  0
VERTEX
  8
0
 10
-1269.89049429
 20
405.19306917
  0
VERTEX
  8
0
 10
-1269.84121114
 20
405.38473823
  0
VERTEX
  8
0
 10
-1269.81090402
 20
405.58331961
  0
VERTEX
  8
0
 10
-1269.80057824
 20
405.78780799
  0
VERTEX
  8
0
 10
-1269.81090402
 20
405.99229637
  0
VERTEX
  8
0
 10
-1269.84121114
 20
406.19087775
  0
VERTEX
  8
0
 10
-1269.89049429
 20
406.38254681
  0
VERTEX
  8
0
 10
-1269.95774816
 20
406.56629825
  0
VERTEX
  8
0
 10
-1270.04196744
 20
406.74112675
  0
VERTEX
  8
0
 10
-1270.14214683
 20
406.90602701
  0
VERTEX
  8
0
 10
-1270.25728102
 20
407.05999371
  0
VERTEX
  8
0
 10
-1270.38636468
 20
407.20202155
  0
VERTEX
  8
0
 10
-1270.52839252
 20
407.33110522
  0
VERTEX
  8
0
 10
-1270.68235923
 20
407.44623940
  0
VERTEX
  8
0
 10
-1270.84725948
 20
407.54641879
  0
VERTEX
  8
0
 10
-1271.02208799
 20
407.63063808
  0
VERTEX
  8
0
 10
-1271.20583942
 20
407.69789195
  0
VERTEX
  8
0
 10
-1271.39750849
 20
407.74717510
  0
VERTEX
  8
0
 10
-1271.59608986
 20
407.77748222
  0
VERTEX
  8
0
 10
-1271.80057824
 20
407.78780799
  0
SEQEND
  0
POLYLINE
  8
0
 66
   1
 39
0.000000
 70
    1
  0
VERTEX
  8
0
 10
-1084.80057824
 20
409.78780799
  0
VERTEX
  8
0
 10
-1085.00506663
 20
409.77748222
  0
VERTEX
  8
0
 10
-1085.20364800
 20
409.74717510
  0
VERTEX
  8
0
 10
-1085.39531706
 20
409.69789195
  0
VERTEX
  8
0
 10
-1085.57906850
 20
409.63063808
  0
VERTEX
  8
0
 10
-1085.75389700
 20
409.54641879
  0
VERTEX
  8
0
 10
-1085.91879726
 20
409.44623940
  0
VERTEX
  8
0
 10
-1086.07276397
 20
409.33110522
  0
VERTEX
  8
0
 10
-1086.21479181
 20
409.20202155
  0
VERTEX
  8
0
 10
-1086.34387547
 20
409.05999371
  0
VERTEX
  8
0
 10
-1086.45900965
 20
408.90602701
  0
VERTEX
  8
0
 10
-1086.55918904
 20
408.74112675
  0
VERTEX
  8
0
 10
-1086.64340833
 20
408.56629825
  0
VERTEX
  8
0
 10
-1086.71066220
 20
408.38254681
  0
VERTEX
  8
0
 10
-1086.75994535
 20
408.19087775
  0
VERTEX
  8
0
 10
-1086.79025247
 20
407.99229637
  0
VERTEX
  8
0
 10
-1086.80057824
 20
407.78780799
  0
VERTEX
  8
0
 10
-1086.79025247
 20
407.58331961
  0
VERTEX
  8
0
 10
-1086.75994535
 20
407.38473823
  0
VERTEX
  8
0
 10
-1086.71066220
 20
407.19306917
  0
VERTEX
  8
0
 10
-1086.64340833
 20
407.00931773
  0
VERTEX
  8
0
 10
-1086.55918904
 20
406.83448923
  0
VERTEX
  8
0
 10
-1086.45900965
 20
406.66958897
  0
VERTEX
  8
0
 10
-1086.34387547
 20
406.51562227
  0
VERTEX
  8
0
 10
-1086.21479181
 20
406.37359443
  0
VERTEX
  8
0
 10
-1086.07276397
 20
406.24451076
  0
VERTEX
  8
0
 10
-1085.91879726
 20
406.12937658
  0
VERTEX
  8
0
 10
-1085.75389700
 20
406.02919719
  0
VERTEX
  8
0
 10
-1085.57906850
 20
405.94497791
  0
VERTEX
  8
0
 10
-1085.39531706
 20
405.87772403
  0
VERTEX
  8
0
 10
-1085.20364800
 20
405.82844088
  0
VERTEX
  8
0
 10
-1085.00506663
 20
405.79813377
  0
VERTEX
  8
0
 10
-1084.80057824
 20
405.78780799
  0
VERTEX
  8
0
 10
-1084.59608986
 20
405.79813377
  0
VERTEX
  8
0
 10
-1084.39750849
 20
405.82844088
  0
VERTEX
  8
0
 10
-1084.20583942
 20
405.87772403
  0
VERTEX
  8
0
 10
-1084.02208799
 20
405.94497791
  0
VERTEX
  8
0
 10
-1083.84725948
 20
406.02919719
  0
VERTEX
  8
0
 10
-1083.68235923
 20
406.12937658
  0
VERTEX
  8
0
 10
-1083.52839252
 20
406.24451076
  0
VERTEX
  8
0
 10
-1083.38636468
 20
406.37359443
  0
VERTEX
  8
0
 10
-1083.25728102
 20
406.51562227
  0
VERTEX
  8
0
 10
-1083.14214683
 20
406.66958897
  0
VERTEX
  8
0
 10
-1083.04196744
 20
406.83448923
  0
VERTEX
  8
0
 10
-1082.95774816
 20
407.00931773
  0
VERTEX
  8
0
 10
-1082.89049429
 20
407.19306917
  0
VERTEX
  8
0
 10
-1082.84121114
 20
407.38473823
  0
VERTEX
  8
0
 10
-1082.81090402
 20
407.58331961
  0
VERTEX
  8
0
 10
-1082.80057824
 20
407.78780799
  0
VERTEX
  8
0
 10
-1082.81090402
 20
407.99229637
  0
VERTEX
  8
0
 10
-1082.84121114
 20
408.19087775
  0
VERTEX
  8
0
 10
-1082.89049429
 20
408.38254681
  0
VERTEX
  8
0
 10
-1082.95774816
 20
408.56629825
  0
VERTEX
  8
0
 10
-1083.04196744
 20
408.74112675
  0
VERTEX
  8
0
 10
-1083.14214683
 20
408.90602701
  0
VERTEX
  8
0
 10
-1083.25728102
 20
409.05999371
  0
VERTEX
  8
0
 10
-1083.38636468
 20
409.20202155
  0
VERTEX
  8
0
 10
-1083.52839252
 20
409.33110522
  0
VERTEX
  8
0
 10
-1083.68235923
 20
409.44623940
  0
VERTEX
  8
0
 10
-1083.84725948
 20
409.54641879
  0
VERTEX
  8
0
 10
-1084.02208799
 20
409.63063808
  0
VERTEX
  8
0
 10
-1084.20583942
 20
409.69789195
  0
VERTEX
  8
0
 10
-1084.39750849
 20
409.74717510
  0
VERTEX
  8
0
 10
-1084.59608986
 20
409.77748222
  0
VERTEX
  8
0
 10
-1084.80057824
 20
409.78780799
  0
SEQEND
  0
POLYLINE
  8
0
 66
   1
 39
0.000000
 70
    1
  0
VERTEX
  8
0
 10
-1422.80057824
 20
561.78780799
  0
VERTEX
  8
0
 10
-1423.00506663
 20
561.77748222
  0
VERTEX
  8
0
 10
-1423.20364800
 20
561.74717510
  0
VERTEX
  8
0
 10
-1423.39531706
 20
561.69789195
  0
VERTEX
  8
0
 10
-1423.57906850
 20
561.63063808
  0
VERTEX
  8
0
 10
-1423.75389700
 20
561.54641879
  0
VERTEX
  8
0
 10
-1423.91879726
 20
561.44623940
  0
VERTEX
  8
0
 10
-1424.07276397
 20
561.33110522
  0
VERTEX
  8
0
 10
-1424.21479181
 20
561.20202155
  0
VERTEX
  8
0
 10
-1424.34387547
 20
561.05999371
  0
VERTEX
  8
0
 10
-1424.45900965
 20
560.90602701
  0
VERTEX
  8
0
 10
-1424.55918904
 20
560.74112675
  0
VERTEX
  8
0
 10
-1424.64340833
 20
560.56629825
  0
VERTEX
  8
0
 10
-1424.71066220
 20
560.38254681
  0
VERTEX
  8
0
 10
-1424.75994535
 20
560.19087775
  0
VERTEX
  8
0
 10
-1424.79025247
 20
559.99229637
  0
VERTEX
  8
0
 10
-1424.80057824
 20
559.78780799
  0
VERTEX
  8
0
 10
-1424.79025247
 20
559.58331961
  0
VERTEX
  8
0
 10
-1424.75994535
 20
559.38473823
  0
VERTEX
  8
0
 10
-1424.71066220
 20
559.19306917
  0
VERTEX
  8
0
 10
-1424.64340833
 20
559.00931773
  0
VERTEX
  8
0
 10
-1424.55918904
 20
558.83448923
  0
VERTEX
  8
0
 10
-1424.45900965
 20
558.66958897
  0
VERTEX
  8
0
 10
-1424.34387547
 20
558.51562227
  0
VERTEX
  8
0
 10
-1424.21479181
 20
558.37359443
  0
VERTEX
  8
0
 10
-1424.07276397
 20
558.24451076
  0
VERTEX
  8
0
 10
-1423.91879726
 20
558.12937658
  0
VERTEX
  8
0
 10
-1423.75389700
 20
558.02919719
  0
VERTEX
  8
0
 10
-1423.57906850
 20
557.94497791
  0
VERTEX
  8
0
 10
-1423.39531706
 20
557.87772403
  0
VERTEX
  8
0
 10
-1423.20364800
 20
557.82844088
  0
VERTEX
  8
0
 10
-1423.00506663
 20
557.79813377
  0
VERTEX
  8
0
 10
-1422.80057824
 20
557.78780799
  0
VERTEX
  8
0
 10
-1422.59608986
 20
557.79813377
  0
VERTEX
  8
0
 10
-1422.39750849
 20
557.82844088
  0
VERTEX
  8
0
 10
-1422.20583942
 20
557.87772403
  0
VERTEX
  8
0
 10
-1422.02208799
 20
557.94497791
  0
VERTEX
  8
0
 10
-1421.84725948
 20
558.02919719
  0
VERTEX
  8
0
 10
-1421.68235923
 20
558.12937658
  0
VERTEX
  8
0
 10
-1421.52839252
 20
558.24451076
  0
VERTEX
  8
0
 10
-1421.38636468
 20
558.37359443
  0
VERTEX
  8
0
 10
-1421.25728102
 20
558.51562227
  0
VERTEX
  8
0
 10
-1421.14214683
 20
558.66958897
  0
VERTEX
  8
0
 10
-1421.04196744
 20
558.83448923
  0
VERTEX
  8
0
 10
-1420.95774816
 20
559.00931773
  0
VERTEX
  8
0
 10
-1420.89049429
 20
559.19306917
  0
VERTEX
  8
0
 10
-1420.84121114
 20
559.38473823
  0
VERTEX
  8
0
 10
-1420.81090402
 20
559.58331961
  0
VERTEX
  8
0
 10
-1420.80057824
 20
559.78780799
  0
VERTEX
  8
0
 10
-1420.81090402
 20
559.99229637
  0
VERTEX
  8
0
 10
-1420.84121114
 20
560.19087775
  0
VERTEX
  8
0
 10
-1420.89049429
 20
560.38254681
  0
VERTEX
  8
0
 10
-1420.95774816
 20
560.56629825
  0
VERTEX
  8
0
 10
-1421.04196744
 20
560.74112675
  0
VERTEX
  8
0
 10
-1421.14214683
 20
560.90602701
  0
VERTEX
  8
0
 10
-1421.25728102
 20
561.05999371
  0
VERTEX
  8
0
 10
-1421.38636468
 20
561.20202155
  0
VERTEX
  8
0
 10
-1421.52839252
 20
561.33110522
  0
VERTEX
  8
0
 10
-1421.68235923
 20
561.44623940
  0
VERTEX
  8
0
 10
-1421.84725948
 20
561.54641879
  0
VERTEX
  8
0
 10
-1422.02208799
 20
561.63063808
  0
VERTEX
  8
0
 10
-1422.20583942
 20
561.69789195
  0
VERTEX
  8
0
 10
-1422.39750849
 20
561.74717510
  0
VERTEX
  8
0
 10
-1422.59608986
 20
561.77748222
  0
VERTEX
  8
0
 10
-1422.80057824
 20
561.78780799
  0
SEQEND
  0
POLYLINE
  8
0
 66
   1
 39
0.000000
 70
    1
  0
VERTEX
  8
0
 10
-1422.80057824
 20
975.78780799
  0
VERTEX
  8
0
 10
-1423.00506663
 20
975.77748222
  0
VERTEX
  8
0
 10
-1423.20364800
 20
975.74717510
  0
VERTEX
  8
0
 10
-1423.39531706
 20
975.69789195
  0
VERTEX
  8
0
 10
-1423.57906850
 20
975.63063808
  0
VERTEX
  8
0
 10
-1423.75389700
 20
975.54641879
  0
VERTEX
  8
0
 10
-1423.91879726
 20
975.44623940
  0
VERTEX
  8
0
 10
-1424.07276397
 20
975.33110522
  0
VERTEX
  8
0
 10
-1424.21479181
 20
975.20202155
  0
VERTEX
  8
0
 10
-1424.34387547
 20
975.05999371
  0
VERTEX
  8
0
 10
-1424.45900965
 20
974.90602701
  0
VERTEX
  8
0
 10
-1424.55918904
 20
974.74112675
  0
VERTEX
  8
0
 10
-1424.64340833
 20
974.56629825
  0
VERTEX
  8
0
 10
-1424.71066220
 20
974.38254681
  0
VERTEX
  8
0
 10
-1424.75994535
 20
974.19087775
  0
VERTEX
  8
0
 10
-1424.79025247
 20
973.99229637
  0
VERTEX
  8
0
 10
-1424.80057824
 20
973.78780799
  0
VERTEX
  8
0
 10
-1424.79025247
 20
973.58331961
  0
VERTEX
  8
0
 10
-1424.75994535
 20
973.38473823
  0
VERTEX
  8
0
 10
-1424.71066220
 20
973.19306917
  0
VERTEX
  8
0
 10
-1424.64340833
 20
973.00931773
  0
VERTEX
  8
0
 10
-1424.55918904
 20
972.83448923
  0
VERTEX
  8
0
 10
-1424.45900965
 20
972.66958897
  0
VERTEX
  8
0
 10
-1424.34387547
 20
972.51562227
  0
VERTEX
  8
0
 10
-1424.21479181
 20
972.37359443
  0
VERTEX
  8
0
 10
-1424.07276397
 20
972.24451076
  0
VERTEX
  8
0
 10
-1423.91879726
 20
972.12937658
  0
VERTEX
  8
0
 10
-1423.75389700
 20
972.02919719
  0
VERTEX
  8
0
 10
-1423.57906850
 20
971.94497791
  0
VERTEX
  8
0
 10
-1423.39531706
 20
971.87772403
  0
VERTEX
  8
0
 10
-1423.20364800
 20
971.82844088
  0
VERTEX
  8
0
 10
-1423.00506663
 20
971.79813377
  0
VERTEX
  8
0
 10
-1422.80057824
 20
971.78780799
  0
VERTEX
  8
0
 10
-1422.59608986
 20
971.79813377
  0
VERTEX
  8
0
 10
-1422.39750849
 20
971.82844088
  0
VERTEX
  8
0
 10
-1422.20583942
 20
971.87772403
  0
VERTEX
  8
0
 10
-1422.02208799
 20
971.94497791
  0
VERTEX
  8
0
 10
-1421.84725948
 20
972.02919719
  0
VERTEX
  8
0
 10
-1421.68235923
 20
972.12937658
  0
VERTEX
  8
0
 10
-1421.52839252
 20
972.24451076
  0
VERTEX
  8
0
 10
-1421.38636468
 20
972.37359443
  0
VERTEX
  8
0
 10
-1421.25728102
 20
972.51562227
  0
VERTEX
  8
0
 10
-1421.14214683
 20
972.66958897
  0
VERTEX
  8
0
 10
-1421.04196744
 20
972.83448923
  0
VERTEX
  8
0
 10
-1420.95774816
 20
973.00931773
  0
VERTEX
  8
0
 10
-1420.89049429
 20
973.19306917
  0
VERTEX
  8
0
 10
-1420.84121114
 20
973.38473823
  0
VERTEX
  8
0
 10
-1420.81090402
 20
973.58331961
  0
VERTEX
  8
0
 10
-1420.80057824
 20
973.78780799
  0
VERTEX
  8
0
 10
-1420.81090402
 20
973.99229637
  0
VERTEX
  8
0
 10
-1420.84121114
 20
974.19087775
  0
VERTEX
  8
0
 10
-1420.89049429
 20
974.38254681
  0
VERTEX
  8
0
 10
-1420.95774816
 20
974.56629825
  0
VERTEX
  8
0
 10
-1421.04196744
 20
974.74112675
  0
VERTEX
  8
0
 10
-1421.14214683
 20
974.90602701
  0
VERTEX
  8
0
 10
-1421.25728102
 20
975.05999371
  0
VERTEX
  8
0
 10
-1421.38636468
 20
975.20202155
  0
VERTEX
  8
0
 10
-1421.52839252
 20
975.33110522
  0
VERTEX
  8
0
 10
-1421.68235923
 20
975.44623940
  0
VERTEX
  8
0
 10
-1421.84725948
 20
975.54641879
  0
VERTEX
  8
0
 10
-1422.02208799
 20
975.63063808
  0
VERTEX
  8
0
 10
-1422.20583942
 20
975.69789195
  0
VERTEX
  8
0
 10
-1422.39750849
 20
975.74717510
  0
VERTEX
  8
0
 10
-1422.59608986
 20
975.77748222
  0
VERTEX
  8
0
 10
-1422.80057824
 20
975.78780799
  0
SEQEND
  0
POLYLINE
  8
0
 66
   1
 39
0.000000
 70
    1
  0
VERTEX
  8
0
 10
-1199.80057824
 20
1113.78780799
  0
VERTEX
  8
0
 10
-1200.00506663
 20
1113.77748222
  0
VERTEX
  8
0
 10
-1200.20364800
 20
1113.74717510
  0
VERTEX
  8
0
 10
-1200.39531706
 20
1113.69789195
  0
VERTEX
  8
0
 10
-1200.57906850
 20
1113.63063808
  0
VERTEX
  8
0
 10
-1200.75389700
 20
1113.54641879
  0
VERTEX
  8
0
 10
-1200.91879726
 20
1113.44623940
  0
VERTEX
  8
0
 10
-1201.07276397
 20
1113.33110522
  0
VERTEX
  8
0
 10
-1201.21479181
 20
1113.20202155
  0
VERTEX
  8
0
 10
-1201.34387547
 20
1113.05999371
  0
VERTEX
  8
0
 10
-1201.45900965
 20
1112.90602701
  0
VERTEX
  8
0
 10
-1201.55918904
 20
1112.74112675
  0
VERTEX
  8
0
 10
-1201.64340833
 20
1112.56629825
  0
VERTEX
  8
0
 10
-1201.71066220
 20
1112.38254681
  0
VERTEX
  8
0
 10
-1201.75994535
 20
1112.19087775
  0
VERTEX
  8
0
 10
-1201.79025247
 20
1111.99229637
  0
VERTEX
  8
0
 10
-1201.80057824
 20
1111.78780799
  0
VERTEX
  8
0
 10
-1201.79025247
 20
1111.58331961
  0
VERTEX
  8
0
 10
-1201.75994535
 20
1111.38473823
  0
VERTEX
  8
0
 10
-1201.71066220
 20
1111.19306917
  0
VERTEX
  8
0
 10
-1201.64340833
 20
1111.00931773
  0
VERTEX
  8
0
 10
-1201.55918904
 20
1110.83448923
  0
VERTEX
  8
0
 10
-1201.45900965
 20
1110.66958897
  0
VERTEX
  8
0
 10
-1201.34387547
 20
1110.51562227
  0
VERTEX
  8
0
 10
-1201.21479181
 20
1110.37359443
  0
VERTEX
  8
0
 10
-1201.07276397
 20
1110.24451076
  0
VERTEX
  8
0
 10
-1200.91879726
 20
1110.12937658
  0
VERTEX
  8
0
 10
-1200.75389700
 20
1110.02919719
  0
VERTEX
  8
0
 10
-1200.57906850
 20
1109.94497791
  0
VERTEX
  8
0
 10
-1200.39531706
 20
1109.87772403
  0
VERTEX
  8
0
 10
-1200.20364800
 20
1109.82844088
  0
VERTEX
  8
0
 10
-1200.00506663
 20
1109.79813377
  0
VERTEX
  8
0
 10
-1199.80057824
 20
1109.78780799
  0
VERTEX
  8
0
 10
-1199.59608986
 20
1109.79813377
  0
VERTEX
  8
0
 10
-1199.39750849
 20
1109.82844088
  0
VERTEX
  8
0
 10
-1199.20583942
 20
1109.87772403
  0
VERTEX
  8
0
 10
-1199.02208799
 20
1109.94497791
  0
VERTEX
  8
0
 10
-1198.84725948
 20
1110.02919719
  0
VERTEX
  8
0
 10
-1198.68235923
 20
1110.12937658
  0
VERTEX
  8
0
 10
-1198.52839252
 20
1110.24451076
  0
VERTEX
  8
0
 10
-1198.38636468
 20
1110.37359443
  0
VERTEX
  8
0
 10
-1198.25728102
 20
1110.51562227
  0
VERTEX
  8
0
 10
-1198.14214683
 20
1110.66958897
  0
VERTEX
  8
0
 10
-1198.04196744
 20
1110.83448923
  0
VERTEX
  8
0
 10
-1197.95774816
 20
1111.00931773
  0
VERTEX
  8
0
 10
-1197.89049429
 20
1111.19306917
  0
VERTEX
  8
0
 10
-1197.84121114
 20
1111.38473823
  0
VERTEX
  8
0
 10
-1197.81090402
 20
1111.58331961
  0
VERTEX
  8
0
 10
-1197.80057824
 20
1111.78780799
  0
VERTEX
  8
0
 10
-1197.81090402
 20
1111.99229637
  0
VERTEX
  8
0
 10
-1197.84121114
 20
1112.19087775
  0
VERTEX
  8
0
 10
-1197.89049429
 20
1112.38254681
  0
VERTEX
  8
0
 10
-1197.95774816
 20
1112.56629825
  0
VERTEX
  8
0
 10
-1198.04196744
 20
1112.74112675
  0
VERTEX
  8
0
 10
-1198.14214683
 20
1112.90602701
  0
VERTEX
  8
0
 10
-1198.25728102
 20
1113.05999371
  0
VERTEX
  8
0
 10
-1198.38636468
 20
1113.20202155
  0
VERTEX
  8
0
 10
-1198.52839252
 20
1113.33110522
  0
VERTEX
  8
0
 10
-1198.68235923
 20
1113.44623940
  0
VERTEX
  8
0
 10
-1198.84725948
 20
1113.54641879
  0
VERTEX
  8
0
 10
-1199.02208799
 20
1113.63063808
  0
VERTEX
  8
0
 10
-1199.20583942
 20
1113.69789195
  0
VERTEX
  8
0
 10
-1199.39750849
 20
1113.74717510
  0
VERTEX
  8
0
 10
-1199.59608986
 20
1113.77748222
  0
VERTEX
  8
0
 10
-1199.80057824
 20
1113.78780799
  0
SEQEND
  0
POLYLINE
  8
0
 66
   1
 39
0.000000
 70
    1
  0
VERTEX
  8
0
 10
2219.28653998
 20
-413.44037861
 42
0.02760432
  0
VERTEX
  8
0
 10
2255.95733206
 20
-409.44278738
  0
VERTEX
  8
0
 10
2455.45300325
 20
-384.91718995
  0
VERTEX
  8
0
 10
2829.41020325
 20
-323.04888995
  0
VERTEX
  8
0
 10
2829.41020325
 20
92.83011005
  0
VERTEX
  8
0
 10
2829.41020325
 20
508.70911005
  0
VERTEX
  8
0
 10
2829.32425804
 20
910.67802827
 42
-0.07300550
  0
VERTEX
  8
0
 10
2794.23703503
 20
922.18203582
 42
-0.01389759
  0
VERTEX
  8
0
 10
2785.60902937
 20
929.08444034
 42
-0.01031424
  0
VERTEX
  8
0
 10
2778.13142447
 20
934.26124374
 42
-0.20766985
  0
VERTEX
  8
0
 10
2764.90181580
 20
960.72046109
  0
VERTEX
  8
0
 10
2743.64419908
 20
1109.70830819
 42
0.36352355
  0
VERTEX
  8
0
 10
2704.20120325
 20
1136.02851005
  0
VERTEX
  8
0
 10
2197.99730325
 20
1167.84241005
  0
VERTEX
  8
0
 10
1691.77540325
 20
1199.63831005
 42
-0.32530620
  0
VERTEX
  8
0
 10
1673.96540325
 20
1173.53371005
 42
0.16700486
  0
VERTEX
  8
0
 10
1643.21080325
 20
1148.90131005
 42
0.11326475
  0
VERTEX
  8
0
 10
1632.27700325
 20
1113.56841005
 42
-0.24149158
  0
VERTEX
  8
0
 10
1623.35400325
 20
1096.74581005
  0
VERTEX
  8
0
 10
1609.74510325
 20
1083.67561005
  0
VERTEX
  8
0
 10
1609.99650325
 20
509.57081005
 42
0.32960705
  0
VERTEX
  8
0
 10
1648.62961715
 20
464.89773596
 42
-0.14551429
  0
VERTEX
  8
0
 10
1847.31134754
 20
322.77186320
 42
-0.00055382
  0
VERTEX
  8
0
 10
1847.89370343
 20
322.02028719
 42
-0.00039612
  0
VERTEX
  8
0
 10
1848.27257298
 20
321.55738251
 42
-0.07817785
  0
VERTEX
  8
0
 10
1907.49774487
 20
220.25950452
 42
-0.00052316
  0
VERTEX
  8
0
 10
1907.78489024
 20
219.52350751
 42
-0.08200717
  0
VERTEX
  8
0
 10
1933.10180343
 20
99.14338719
 42
-0.22150251
  0
VERTEX
  8
0
 10
1809.74210343
 20
-220.73731281
 42
0.08602509
  0
VERTEX
  8
0
 10
1790.16269189
 20
-250.64669636
 42
0.00303255
  0
VERTEX
  8
0
 10
1789.66607268
 20
-251.81503086
 42
0.05806871
  0
VERTEX
  8
0
 10
1782.97404169
 20
-275.10003772
 42
0.00134896
  0
VERTEX
  8
0
 10
1782.88343224
 20
-275.65743247
  0
VERTEX
  8
0
 10
1784.23690325
 20
-300.66058995
 42
-0.05505683
  0
VERTEX
  8
0
 10
1863.56282475
 20
-308.35337861
  0
VERTEX
  8
0
 10
2141.95980731
 20
-308.35337861
 42
-0.32110369
  0
VERTEX
  8
0
 10
2168.53530325
 20
-331.77428995
  0
VERTEX
  8
0
 10
2175.91271908
 20
-413.44037861
 42
0.03245704
  0
VERTEX
  8
0
 10
2219.28653998
 20
-413.44037861
  0
SEQEND
  0
POLYLINE
  8
0
 66
   1
 39
0.000000
 70
    0
  0
VERTEX
  8
0
 10
1782.88340343
 20
-275.65761281
  0
VERTEX
  8
0
 10
1782.88343224
 20
-275.65743247
  0
SEQEND
  0
POLYLINE
  8
0
 66
   1
 39
0.000000
 70
    1
  0
VERTEX
  8
0
 10
-604.80057824
 20
502.78780799
  0
VERTEX
  8
0
 10
-605.00506663
 20
502.77748222
  0
VERTEX
  8
0
 10
-605.20364800
 20
502.74717510
  0
VERTEX
  8
0
 10
-605.39531706
 20
502.69789195
  0
VERTEX
  8
0
 10
-605.57906850
 20
502.63063808
  0
VERTEX
  8
0
 10
-605.75389700
 20
502.54641879
  0
VERTEX
  8
0
 10
-605.91879726
 20
502.44623940
  0
VERTEX
  8
0
 10
-606.07276397
 20
502.33110522
  0
VERTEX
  8
0
 10
-606.21479181
 20
502.20202155
  0
VERTEX
  8
0
 10
-606.34387547
 20
502.05999371
  0
VERTEX
  8
0
 10
-606.45900965
 20
501.90602701
  0
VERTEX
  8
0
 10
-606.55918904
 20
501.74112675
  0
VERTEX
  8
0
 10
-606.64340833
 20
501.56629825
  0
VERTEX
  8
0
 10
-606.71066220
 20
501.38254681
  0
VERTEX
  8
0
 10
-606.75994535
 20
501.19087775
  0
VERTEX
  8
0
 10
-606.79025247
 20
500.99229637
  0
VERTEX
  8
0
 10
-606.80057824
 20
500.78780799
  0
VERTEX
  8
0
 10
-606.79025247
 20
500.58331961
  0
VERTEX
  8
0
 10
-606.75994535
 20
500.38473823
  0
VERTEX
  8
0
 10
-606.71066220
 20
500.19306917
  0
VERTEX
  8
0
 10
-606.64340833
 20
500.00931773
  0
VERTEX
  8
0
 10
-606.55918904
 20
499.83448923
  0
VERTEX
  8
0
 10
-606.45900965
 20
499.66958897
  0
VERTEX
  8
0
 10
-606.34387547
 20
499.51562227
  0
VERTEX
  8
0
 10
-606.21479181
 20
499.37359443
  0
VERTEX
  8
0
 10
-606.07276397
 20
499.24451076
  0
VERTEX
  8
0
 10
-605.91879726
 20
499.12937658
  0
VERTEX
  8
0
 10
-605.75389700
 20
499.02919719
  0
VERTEX
  8
0
 10
-605.57906850
 20
498.94497791
  0
VERTEX
  8
0
 10
-605.39531706
 20
498.87772403
  0
VERTEX
  8
0
 10
-605.20364800
 20
498.82844088
  0
VERTEX
  8
0
 10
-605.00506663
 20
498.79813377
  0
VERTEX
  8
0
 10
-604.80057824
 20
498.78780799
  0
VERTEX
  8
0
 10
-604.59608986
 20
498.79813377
  0
VERTEX
  8
0
 10
-604.39750849
 20
498.82844088
  0
VERTEX
  8
0
 10
-604.20583942
 20
498.87772403
  0
VERTEX
  8
0
 10
-604.02208799
 20
498.94497791
  0
VERTEX
  8
0
 10
-603.84725948
 20
499.02919719
  0
VERTEX
  8
0
 10
-603.68235923
 20
499.12937658
  0
VERTEX
  8
0
 10
-603.52839252
 20
499.24451076
  0
VERTEX
  8
0
 10
-603.38636468
 20
499.37359443
  0
VERTEX
  8
0
 10
-603.25728102
 20
499.51562227
  0
VERTEX
  8
0
 10
-603.14214683
 20
499.66958897
  0
VERTEX
  8
0
 10
-603.04196744
 20
499.83448923
  0
VERTEX
  8
0
 10
-602.95774816
 20
500.00931773
  0
VERTEX
  8
0
 10
-602.89049429
 20
500.19306917
  0
VERTEX
  8
0
 10
-602.84121114
 20
500.38473823
  0
VERTEX
  8
0
 10
-602.81090402
 20
500.58331961
  0
VERTEX
  8
0
 10
-602.80057824
 20
500.78780799
  0
VERTEX
  8
0
 10
-602.81090402
 20
500.99229637
  0
VERTEX
  8
0
 10
-602.84121114
 20
501.19087775
  0
VERTEX
  8
0
 10
-602.89049429
 20
501.38254681
  0
VERTEX
  8
0
 10
-602.95774816
 20
501.56629825
  0
VERTEX
  8
0
 10
-603.04196744
 20
501.74112675
  0
VERTEX
  8
0
 10
-603.14214683
 20
501.90602701
  0
VERTEX
  8
0
 10
-603.25728102
 20
502.05999371
  0
VERTEX
  8
0
 10
-603.38636468
 20
502.20202155
  0
VERTEX
  8
0
 10
-603.52839252
 20
502.33110522
  0
VERTEX
  8
0
 10
-603.68235923
 20
502.44623940
  0
VERTEX
  8
0
 10
-603.84725948
 20
502.54641879
  0
VERTEX
  8
0
 10
-604.02208799
 20
502.63063808
  0
VERTEX
  8
0
 10
-604.20583942
 20
502.69789195
  0
VERTEX
  8
0
 10
-604.39750849
 20
502.74717510
  0
VERTEX
  8
0
 10
-604.59608986
 20
502.77748222
  0
VERTEX
  8
0
 10
-604.80057824
 20
502.78780799
  0
SEQEND
  0
POLYLINE
  8
0
 66
   1
 39
0.000000
 70
    1
  0
VERTEX
  8
0
 10
-333.00425575
 20
579.32953359
  0
VERTEX
  8
0
 10
-333.20874414
 20
579.31920782
  0
VERTEX
  8
0
 10
-333.40732551
 20
579.28890070
  0
VERTEX
  8
0
 10
-333.59899457
 20
579.23961755
  0
VERTEX
  8
0
 10
-333.78274601
 20
579.17236368
  0
VERTEX
  8
0
 10
-333.95757451
 20
579.08814439
  0
VERTEX
  8
0
 10
-334.12247477
 20
578.98796500
  0
VERTEX
  8
0
 10
-334.27644148
 20
578.87283082
  0
VERTEX
  8
0
 10
-334.41846932
 20
578.74374716
  0
VERTEX
  8
0
 10
-334.54755298
 20
578.60171932
  0
VERTEX
  8
0
 10
-334.66268717
 20
578.44775261
  0
VERTEX
  8
0
 10
-334.76286655
 20
578.28285235
  0
VERTEX
  8
0
 10
-334.84708584
 20
578.10802385
  0
VERTEX
  8
0
 10
-334.91433971
 20
577.92427241
  0
VERTEX
  8
0
 10
-334.96362286
 20
577.73260335
  0
VERTEX
  8
0
 10
-334.99392998
 20
577.53402197
  0
VERTEX
  8
0
 10
-335.00425575
 20
577.32953359
  0
VERTEX
  8
0
 10
-334.99392998
 20
577.12504521
  0
VERTEX
  8
0
 10
-334.96362286
 20
576.92646383
  0
VERTEX
  8
0
 10
-334.91433971
 20
576.73479477
  0
VERTEX
  8
0
 10
-334.84708584
 20
576.55104333
  0
VERTEX
  8
0
 10
-334.76286655
 20
576.37621483
  0
VERTEX
  8
0
 10
-334.66268717
 20
576.21131457
  0
VERTEX
  8
0
 10
-334.54755298
 20
576.05734787
  0
VERTEX
  8
0
 10
-334.41846932
 20
575.91532003
  0
VERTEX
  8
0
 10
-334.27644148
 20
575.78623636
  0
VERTEX
  8
0
 10
-334.12247477
 20
575.67110218
  0
VERTEX
  8
0
 10
-333.95757451
 20
575.57092279
  0
VERTEX
  8
0
 10
-333.78274601
 20
575.48670351
  0
VERTEX
  8
0
 10
-333.59899457
 20
575.41944963
  0
VERTEX
  8
0
 10
-333.40732551
 20
575.37016648
  0
VERTEX
  8
0
 10
-333.20874414
 20
575.33985937
  0
VERTEX
  8
0
 10
-333.00425575
 20
575.32953359
  0
VERTEX
  8
0
 10
-332.79976737
 20
575.33985937
  0
VERTEX
  8
0
 10
-332.60118600
 20
575.37016648
  0
VERTEX
  8
0
 10
-332.40951693
 20
575.41944963
  0
VERTEX
  8
0
 10
-332.22576550
 20
575.48670351
  0
VERTEX
  8
0
 10
-332.05093699
 20
575.57092279
  0
VERTEX
  8
0
 10
-331.88603674
 20
575.67110218
  0
VERTEX
  8
0
 10
-331.73207003
 20
575.78623636
  0
VERTEX
  8
0
 10
-331.59004219
 20
575.91532003
  0
VERTEX
  8
0
 10
-331.46095853
 20
576.05734787
  0
VERTEX
  8
0
 10
-331.34582434
 20
576.21131457
  0
VERTEX
  8
0
 10
-331.24564495
 20
576.37621483
  0
VERTEX
  8
0
 10
-331.16142567
 20
576.55104333
  0
VERTEX
  8
0
 10
-331.09417180
 20
576.73479477
  0
VERTEX
  8
0
 10
-331.04488865
 20
576.92646383
  0
VERTEX
  8
0
 10
-331.01458153
 20
577.12504521
  0
VERTEX
  8
0
 10
-331.00425575
 20
577.32953359
  0
VERTEX
  8
0
 10
-331.01458153
 20
577.53402197
  0
VERTEX
  8
0
 10
-331.04488865
 20
577.73260335
  0
VERTEX
  8
0
 10
-331.09417180
 20
577.92427241
  0
VERTEX
  8
0
 10
-331.16142567
 20
578.10802385
  0
VERTEX
  8
0
 10
-331.24564495
 20
578.28285235
  0
VERTEX
  8
0
 10
-331.34582434
 20
578.44775261
  0
VERTEX
  8
0
 10
-331.46095853
 20
578.60171932
  0
VERTEX
  8
0
 10
-331.59004219
 20
578.74374716
  0
VERTEX
  8
0
 10
-331.73207003
 20
578.87283082
  0
VERTEX
  8
0
 10
-331.88603674
 20
578.98796500
  0
VERTEX
  8
0
 10
-332.05093699
 20
579.08814439
  0
VERTEX
  8
0
 10
-332.22576550
 20
579.17236368
  0
VERTEX
  8
0
 10
-332.40951693
 20
579.23961755
  0
VERTEX
  8
0
 10
-332.60118600
 20
579.28890070
  0
VERTEX
  8
0
 10
-332.79976737
 20
579.31920782
  0
VERTEX
  8
0
 10
-333.00425575
 20
579.32953359
  0
SEQEND
  0
POLYLINE
  8
0
 66
   1
 39
0.000000
 70
    1
  0
VERTEX
  8
0
 10
-339.80057824
 20
886.78780799
  0
VERTEX
  8
0
 10
-340.00506663
 20
886.77748222
  0
VERTEX
  8
0
 10
-340.20364800
 20
886.74717510
  0
VERTEX
  8
0
 10
-340.39531706
 20
886.69789195
  0
VERTEX
  8
0
 10
-340.57906850
 20
886.63063808
  0
VERTEX
  8
0
 10
-340.75389700
 20
886.54641879
  0
VERTEX
  8
0
 10
-340.91879726
 20
886.44623940
  0
VERTEX
  8
0
 10
-341.07276397
 20
886.33110522
  0
VERTEX
  8
0
 10
-341.21479181
 20
886.20202155
  0
VERTEX
  8
0
 10
-341.34387547
 20
886.05999371
  0
VERTEX
  8
0
 10
-341.45900965
 20
885.90602701
  0
VERTEX
  8
0
 10
-341.55918904
 20
885.74112675
  0
VERTEX
  8
0
 10
-341.64340833
 20
885.56629825
  0
VERTEX
  8
0
 10
-341.71066220
 20
885.38254681
  0
VERTEX
  8
0
 10
-341.75994535
 20
885.19087775
  0
VERTEX
  8
0
 10
-341.79025247
 20
884.99229637
  0
VERTEX
  8
0
 10
-341.80057824
 20
884.78780799
  0
VERTEX
  8
0
 10
-341.79025247
 20
884.58331961
  0
VERTEX
  8
0
 10
-341.75994535
 20
884.38473823
  0
VERTEX
  8
0
 10
-341.71066220
 20
884.19306917
  0
VERTEX
  8
0
 10
-341.64340833
 20
884.00931773
  0
VERTEX
  8
0
 10
-341.55918904
 20
883.83448923
  0
VERTEX
  8
0
 10
-341.45900965
 20
883.66958897
  0
VERTEX
  8
0
 10
-341.34387547
 20
883.51562227
  0
VERTEX
  8
0
 10
-341.21479181
 20
883.37359443
  0
VERTEX
  8
0
 10
-341.07276397
 20
883.24451076
  0
VERTEX
  8
0
 10
-340.91879726
 20
883.12937658
  0
VERTEX
  8
0
 10
-340.75389700
 20
883.02919719
  0
VERTEX
  8
0
 10
-340.57906850
 20
882.94497791
  0
VERTEX
  8
0
 10
-340.39531706
 20
882.87772403
  0
VERTEX
  8
0
 10
-340.20364800
 20
882.82844088
  0
VERTEX
  8
0
 10
-340.00506663
 20
882.79813377
  0
VERTEX
  8
0
 10
-339.80057824
 20
882.78780799
  0
VERTEX
  8
0
 10
-339.59608986
 20
882.79813377
  0
VERTEX
  8
0
 10
-339.39750849
 20
882.82844088
  0
VERTEX
  8
0
 10
-339.20583942
 20
882.87772403
  0
VERTEX
  8
0
 10
-339.02208799
 20
882.94497791
  0
VERTEX
  8
0
 10
-338.84725948
 20
883.02919719
  0
VERTEX
  8
0
 10
-338.68235923
 20
883.12937658
  0
VERTEX
  8
0
 10
-338.52839252
 20
883.24451076
  0
VERTEX
  8
0
 10
-338.38636468
 20
883.37359443
  0
VERTEX
  8
0
 10
-338.25728102
 20
883.51562227
  0
VERTEX
  8
0
 10
-338.14214683
 20
883.66958897
  0
VERTEX
  8
0
 10
-338.04196744
 20
883.83448923
  0
VERTEX
  8
0
 10
-337.95774816
 20
884.00931773
  0
VERTEX
  8
0
 10
-337.89049429
 20
884.19306917
  0
VERTEX
  8
0
 10
-337.84121114
 20
884.38473823
  0
VERTEX
  8
0
 10
-337.81090402
 20
884.58331961
  0
VERTEX
  8
0
 10
-337.80057824
 20
884.78780799
  0
VERTEX
  8
0
 10
-337.81090402
 20
884.99229637
  0
VERTEX
  8
0
 10
-337.84121114
 20
885.19087775
  0
VERTEX
  8
0
 10
-337.89049429
 20
885.38254681
  0
VERTEX
  8
0
 10
-337.95774816
 20
885.56629825
  0
VERTEX
  8
0
 10
-338.04196744
 20
885.74112675
  0
VERTEX
  8
0
 10
-338.14214683
 20
885.90602701
  0
VERTEX
  8
0
 10
-338.25728102
 20
886.05999371
  0
VERTEX
  8
0
 10
-338.38636468
 20
886.20202155
  0
VERTEX
  8
0
 10
-338.52839252
 20
886.33110522
  0
VERTEX
  8
0
 10
-338.68235923
 20
886.44623940
  0
VERTEX
  8
0
 10
-338.84725948
 20
886.54641879
  0
VERTEX
  8
0
 10
-339.02208799
 20
886.63063808
  0
VERTEX
  8
0
 10
-339.20583942
 20
886.69789195
  0
VERTEX
  8
0
 10
-339.39750849
 20
886.74717510
  0
VERTEX
  8
0
 10
-339.59608986
 20
886.77748222
  0
VERTEX
  8
0
 10
-339.80057824
 20
886.78780799
  0
SEQEND
  0
POLYLINE
  8
0
 66
   1
 39
0.000000
 70
    1
  0
VERTEX
  8
0
 10
2169.32425804
 20
-127.81937861
  0
VERTEX
  8
0
 10
2169.11976966
 20
-127.82970439
  0
VERTEX
  8
0
 10
2168.92118828
 20
-127.86001150
  0
VERTEX
  8
0
 10
2168.72951922
 20
-127.90929465
  0
VERTEX
  8
0
 10
2168.54576778
 20
-127.97654853
  0
VERTEX
  8
0
 10
2168.37093928
 20
-128.06076781
  0
VERTEX
  8
0
 10
2168.20603902
 20
-128.16094720
  0
VERTEX
  8
0
 10
2168.05207232
 20
-128.27608138
  0
VERTEX
  8
0
 10
2167.91004448
 20
-128.40516505
  0
VERTEX
  8
0
 10
2167.78096081
 20
-128.54719289
  0
VERTEX
  8
0
 10
2167.66582663
 20
-128.70115959
  0
VERTEX
  8
0
 10
2167.56564724
 20
-128.86605985
  0
VERTEX
  8
0
 10
2167.48142795
 20
-129.04088835
  0
VERTEX
  8
0
 10
2167.41417408
 20
-129.22463979
  0
VERTEX
  8
0
 10
2167.36489093
 20
-129.41630885
  0
VERTEX
  8
0
 10
2167.33458381
 20
-129.61489023
  0
VERTEX
  8
0
 10
2167.32425804
 20
-129.81937861
  0
VERTEX
  8
0
 10
2167.33458381
 20
-130.02386699
  0
VERTEX
  8
0
 10
2167.36489093
 20
-130.22244837
  0
VERTEX
  8
0
 10
2167.41417408
 20
-130.41411743
  0
VERTEX
  8
0
 10
2167.48142795
 20
-130.59786887
  0
VERTEX
  8
0
 10
2167.56564724
 20
-130.77269737
  0
VERTEX
  8
0
 10
2167.66582663
 20
-130.93759763
  0
VERTEX
  8
0
 10
2167.78096081
 20
-131.09156433
  0
VERTEX
  8
0
 10
2167.91004448
 20
-131.23359217
  0
VERTEX
  8
0
 10
2168.05207232
 20
-131.36267584
  0
VERTEX
  8
0
 10
2168.20603902
 20
-131.47781002
  0
VERTEX
  8
0
 10
2168.37093928
 20
-131.57798941
  0
VERTEX
  8
0
 10
2168.54576778
 20
-131.66220870
  0
VERTEX
  8
0
 10
2168.72951922
 20
-131.72946257
  0
VERTEX
  8
0
 10
2168.92118828
 20
-131.77874572
  0
VERTEX
  8
0
 10
2169.11976966
 20
-131.80905284
  0
VERTEX
  8
0
 10
2169.32425804
 20
-131.81937861
  0
VERTEX
  8
0
 10
2169.52874642
 20
-131.80905284
  0
VERTEX
  8
0
 10
2169.72732780
 20
-131.77874572
  0
VERTEX
  8
0
 10
2169.91899686
 20
-131.72946257
  0
VERTEX
  8
0
 10
2170.10274830
 20
-131.66220870
  0
VERTEX
  8
0
 10
2170.27757680
 20
-131.57798941
  0
VERTEX
  8
0
 10
2170.44247706
 20
-131.47781002
  0
VERTEX
  8
0
 10
2170.59644376
 20
-131.36267584
  0
VERTEX
  8
0
 10
2170.73847160
 20
-131.23359217
  0
VERTEX
  8
0
 10
2170.86755527
 20
-131.09156433
  0
VERTEX
  8
0
 10
2170.98268945
 20
-130.93759763
  0
VERTEX
  8
0
 10
2171.08286884
 20
-130.77269737
  0
VERTEX
  8
0
 10
2171.16708813
 20
-130.59786887
  0
VERTEX
  8
0
 10
2171.23434200
 20
-130.41411743
  0
VERTEX
  8
0
 10
2171.28362515
 20
-130.22244837
  0
VERTEX
  8
0
 10
2171.31393226
 20
-130.02386699
  0
VERTEX
  8
0
 10
2171.32425804
 20
-129.81937861
  0
VERTEX
  8
0
 10
2171.31393226
 20
-129.61489023
  0
VERTEX
  8
0
 10
2171.28362515
 20
-129.41630885
  0
VERTEX
  8
0
 10
2171.23434200
 20
-129.22463979
  0
VERTEX
  8
0
 10
2171.16708813
 20
-129.04088835
  0
VERTEX
  8
0
 10
2171.08286884
 20
-128.86605985
  0
VERTEX
  8
0
 10
2170.98268945
 20
-128.70115959
  0
VERTEX
  8
0
 10
2170.86755527
 20
-128.54719289
  0
VERTEX
  8
0
 10
2170.73847160
 20
-128.40516505
  0
VERTEX
  8
0
 10
2170.59644376
 20
-128.27608138
  0
VERTEX
  8
0
 10
2170.44247706
 20
-128.16094720
  0
VERTEX
  8
0
 10
2170.27757680
 20
-128.06076781
  0
VERTEX
  8
0
 10
2170.10274830
 20
-127.97654853
  0
VERTEX
  8
0
 10
2169.91899686
 20
-127.90929465
  0
VERTEX
  8
0
 10
2169.72732780
 20
-127.86001150
  0
VERTEX
  8
0
 10
2169.52874642
 20
-127.82970439
  0
VERTEX
  8
0
 10
2169.32425804
 20
-127.81937861
  0
SEQEND
  0
POLYLINE
  8
0
 66
   1
 39
0.000000
 70
    0
  0
VERTEX
  8
0
 10
2138.68373080
 20
-1132.50215470
  0
VERTEX
  8
0
 10
2139.23231951
 20
-1133.05074341
  0
VERTEX
  8
0
 10
2139.73064522
 20
-1133.27399639
  0
SEQEND
  0
POLYLINE
  8
0
 66
   1
 39
0.000000
 70
    0
  0
VERTEX
  8
0
 10
1789.66607268
 20
-251.81503086
  0
VERTEX
  8
0
 10
1789.87430325
 20
-251.09048995
  0
VERTEX
  8
0
 10
1790.16269189
 20
-250.64669636
  0
SEQEND
  0
POLYLINE
  8
0
 66
   1
 39
0.000000
 70
    0
  0
VERTEX
  8
0
 10
1847.89370343
 20
322.02028719
 42
0.00044959
  0
VERTEX
  8
0
 10
1847.42107856
 20
322.63050940
  0
VERTEX
  8
0
 10
1847.31134754
 20
322.77186320
  0
VERTEX
  8
0
 10
1847.88270325
 20
322.22421005
  0
VERTEX
  8
0
 10
1848.27257298
 20
321.55738251
  0
SEQEND
  0
POLYLINE
  8
0
 66
   1
 39
0.000000
 70
    0
  0
VERTEX
  8
0
 10
1907.49774487
 20
220.25950452
  0
VERTEX
  8
0
 10
1907.70430325
 20
219.90621005
  0
VERTEX
  8
0
 10
1907.78489024
 20
219.52350751
  0
SEQEND
  0
POLYLINE
  8
0
 66
   1
 39
0.000000
 70
    0
  0
VERTEX
  8
0
 10
2743.62402534
 20
1109.81158161
  0
VERTEX
  8
0
 10
2743.64445487
 20
1109.70743509
  0
VERTEX
  8
0
 10
2743.64419908
 20
1109.70830819
  0
SEQEND
  0
POLYLINE
  8
0
 66
   1
 39
0.000000
 70
    1
  0
VERTEX
  8
0
 10
-963.92362824
 20
1177.43825799
  0
VERTEX
  8
0
 10
-387.07202824
 20
1223.13035799
 42
-0.13819812
  0
VERTEX
  8
0
 10
-314.19802824
 20
1205.44595799
 42
-0.28851359
  0
VERTEX
  8
0
 10
-271.62982824
 20
1126.77295799
  0
VERTEX
  8
0
 10
-262.34782824
 20
651.23385799
 42
-0.31529361
  0
VERTEX
  8
0
 10
-312.20522824
 20
573.26105799
  0
VERTEX
  8
0
 10
-471.81332824
 20
495.59345799
 42
-0.07639765
  0
VERTEX
  8
0
 10
-493.10642824
 20
489.88425799
  0
VERTEX
  8
0
 10
-794.97952824
 20
477.80135799
 42
0.16734019
  0
VERTEX
  8
0
 10
-848.71492824
 20
461.55335799
  0
VERTEX
  8
0
 10
-906.86682824
 20
421.87565799
 42
-0.09718372
  0
VERTEX
  8
0
 10
-961.17672824
 20
404.40675799
  0
VERTEX
  8
0
 10
-1338.65272824
 20
393.43705799
 42
-0.43046002
  0
VERTEX
  8
0
 10
-1432.94552824
 20
490.78185799
  0
VERTEX
  8
0
 10
-1434.63312824
 20
1052.67815799
 42
-0.39859266
  0
VERTEX
  8
0
 10
-1374.45242824
 20
1130.63295799
  0
VERTEX
  8
0
 10
-1195.95692824
 20
1151.06425799
  0
VERTEX
  8
0
 10
-1178.64467694
 20
1152.42084272
  0
VERTEX
  8
0
 10
-1178.86502824
 20
1136.93475799
  0
VERTEX
  8
0
 10
-1181.50422824
 20
1068.19005799
 42
0.35512474
  0
VERTEX
  8
0
 10
-1161.12682824
 20
1040.97235799
  0
VERTEX
  8
0
 10
-1067.98312824
 20
1040.97235799
 42
0.00000000
  0
VERTEX
  8
0
 10
-1047.35432824
 20
1051.60085799
 42
-0.19189786
  0
VERTEX
  8
0
 10
-1023.63752824
 20
1062.57055799
  0
VERTEX
  8
0
 10
-998.86152824
 20
1064.00685799
 42
0.34553726
  0
VERTEX
  8
0
 10
-988.01742824
 20
1070.73955799
 42
-0.22417807
  0
VERTEX
  8
0
 10
-976.56302824
 20
1082.69665799
  0
VERTEX
  8
0
 10
-973.92362824
 20
1082.69665799
 42
0.41421356
  0
VERTEX
  8
0
 10
-963.92362824
 20
1092.69665799
  0
VERTEX
  8
0
 10
-963.92362824
 20
1177.43825799
  0
SEQEND
  0
POLYLINE
  8
0
 66
   1
 39
0.000000
 70
    1
  0
VERTEX
  8
0
 10
-424.53515417
 20
192.02901980
  0
VERTEX
  8
0
 10
-424.73964255
 20
192.03934557
  0
VERTEX
  8
0
 10
-424.93822393
 20
192.06965269
  0
VERTEX
  8
0
 10
-425.12989299
 20
192.11893584
  0
VERTEX
  8
0
 10
-425.31364443
 20
192.18618971
  0
VERTEX
  8
0
 10
-425.48847293
 20
192.27040900
  0
VERTEX
  8
0
 10
-425.65337319
 20
192.37058839
  0
VERTEX
  8
0
 10
-425.80733989
 20
192.48572257
  0
VERTEX
  8
0
 10
-425.94936773
 20
192.61480623
  0
VERTEX
  8
0
 10
-426.07845140
 20
192.75683407
  0
VERTEX
  8
0
 10
-426.19358558
 20
192.91080078
  0
VERTEX
  8
0
 10
-426.29376497
 20
193.07570104
  0
VERTEX
  8
0
 10
-426.37798426
 20
193.25052954
  0
VERTEX
  8
0
 10
-426.44523813
 20
193.43428098
  0
VERTEX
  8
0
 10
-426.49452128
 20
193.62595004
  0
VERTEX
  8
0
 10
-426.52482840
 20
193.82453141
  0
VERTEX
  8
0
 10
-426.53515417
 20
194.02901980
  0
VERTEX
  8
0
 10
-426.52482840
 20
194.23350818
  0
VERTEX
  8
0
 10
-426.49452128
 20
194.43208956
  0
VERTEX
  8
0
 10
-426.44523813
 20
194.62375862
  0
VERTEX
  8
0
 10
-426.37798426
 20
194.80751005
  0
VERTEX
  8
0
 10
-426.29376497
 20
194.98233856
  0
VERTEX
  8
0
 10
-426.19358558
 20
195.14723881
  0
VERTEX
  8
0
 10
-426.07845140
 20
195.30120552
  0
VERTEX
  8
0
 10
-425.94936773
 20
195.44323336
  0
VERTEX
  8
0
 10
-425.80733989
 20
195.57231703
  0
VERTEX
  8
0
 10
-425.65337319
 20
195.68745121
  0
VERTEX
  8
0
 10
-425.48847293
 20
195.78763060
  0
VERTEX
  8
0
 10
-425.31364443
 20
195.87184988
  0
VERTEX
  8
0
 10
-425.12989299
 20
195.93910376
  0
VERTEX
  8
0
 10
-424.93822393
 20
195.98838690
  0
VERTEX
  8
0
 10
-424.73964255
 20
196.01869402
  0
VERTEX
  8
0
 10
-424.53515417
 20
196.02901980
  0
VERTEX
  8
0
 10
-424.33066579
 20
196.01869402
  0
VERTEX
  8
0
 10
-424.13208441
 20
195.98838690
  0
VERTEX
  8
0
 10
-423.94041535
 20
195.93910376
  0
VERTEX
  8
0
 10
-423.75666391
 20
195.87184988
  0
VERTEX
  8
0
 10
-423.58183541
 20
195.78763060
  0
VERTEX
  8
0
 10
-423.41693515
 20
195.68745121
  0
VERTEX
  8
0
 10
-423.26296845
 20
195.57231703
  0
VERTEX
  8
0
 10
-423.12094061
 20
195.44323336
  0
VERTEX
  8
0
 10
-422.99185694
 20
195.30120552
  0
VERTEX
  8
0
 10
-422.87672276
 20
195.14723881
  0
VERTEX
  8
0
 10
-422.77654337
 20
194.98233856
  0
VERTEX
  8
0
 10
-422.69232409
 20
194.80751005
  0
VERTEX
  8
0
 10
-422.62507021
 20
194.62375862
  0
VERTEX
  8
0
 10
-422.57578706
 20
194.43208956
  0
VERTEX
  8
0
 10
-422.54547995
 20
194.23350818
  0
VERTEX
  8
0
 10
-422.53515417
 20
194.02901980
  0
VERTEX
  8
0
 10
-422.54547995
 20
193.82453141
  0
VERTEX
  8
0
 10
-422.57578706
 20
193.62595004
  0
VERTEX
  8
0
 10
-422.62507021
 20
193.43428098
  0
VERTEX
  8
0
 10
-422.69232409
 20
193.25052954
  0
VERTEX
  8
0
 10
-422.77654337
 20
193.07570104
  0
VERTEX
  8
0
 10
-422.87672276
 20
192.91080078
  0
VERTEX
  8
0
 10
-422.99185694
 20
192.75683407
  0
VERTEX
  8
0
 10
-423.12094061
 20
192.61480623
  0
VERTEX
  8
0
 10
-423.26296845
 20
192.48572257
  0
VERTEX
  8
0
 10
-423.41693515
 20
192.37058839
  0
VERTEX
  8
0
 10
-423.58183541
 20
192.27040900
  0
VERTEX
  8
0
 10
-423.75666391
 20
192.18618971
  0
VERTEX
  8
0
 10
-423.94041535
 20
192.11893584
  0
VERTEX
  8
0
 10
-424.13208441
 20
192.06965269
  0
VERTEX
  8
0
 10
-424.33066579
 20
192.03934557
  0
VERTEX
  8
0
 10
-424.53515417
 20
192.02901980
  0
SEQEND
  0
POLYLINE
  8
0
 66
   1
 39
0.000000
 70
    1
  0
VERTEX
  8
0
 10
-686.53515417
 20
-389.97098020
  0
VERTEX
  8
0
 10
-686.73964255
 20
-389.96065443
  0
VERTEX
  8
0
 10
-686.93822393
 20
-389.93034731
  0
VERTEX
  8
0
 10
-687.12989299
 20
-389.88106416
  0
VERTEX
  8
0
 10
-687.31364443
 20
-389.81381029
  0
VERTEX
  8
0
 10
-687.48847293
 20
-389.72959100
  0
VERTEX
  8
0
 10
-687.65337319
 20
-389.62941161
  0
VERTEX
  8
0
 10
-687.80733989
 20
-389.51427743
  0
VERTEX
  8
0
 10
-687.94936773
 20
-389.38519377
  0
VERTEX
  8
0
 10
-688.07845140
 20
-389.24316593
  0
VERTEX
  8
0
 10
-688.19358558
 20
-389.08919922
  0
VERTEX
  8
0
 10
-688.29376497
 20
-388.92429896
  0
VERTEX
  8
0
 10
-688.37798426
 20
-388.74947046
  0
VERTEX
  8
0
 10
-688.44523813
 20
-388.56571902
  0
VERTEX
  8
0
 10
-688.49452128
 20
-388.37404996
  0
VERTEX
  8
0
 10
-688.52482840
 20
-388.17546859
  0
VERTEX
  8
0
 10
-688.53515417
 20
-387.97098020
  0
VERTEX
  8
0
 10
-688.52482840
 20
-387.76649182
  0
VERTEX
  8
0
 10
-688.49452128
 20
-387.56791044
  0
VERTEX
  8
0
 10
-688.44523813
 20
-387.37624138
  0
VERTEX
  8
0
 10
-688.37798426
 20
-387.19248995
  0
VERTEX
  8
0
 10
-688.29376497
 20
-387.01766144
  0
VERTEX
  8
0
 10
-688.19358558
 20
-386.85276119
  0
VERTEX
  8
0
 10
-688.07845140
 20
-386.69879448
  0
VERTEX
  8
0
 10
-687.94936773
 20
-386.55676664
  0
VERTEX
  8
0
 10
-687.80733989
 20
-386.42768297
  0
VERTEX
  8
0
 10
-687.65337319
 20
-386.31254879
  0
VERTEX
  8
0
 10
-687.48847293
 20
-386.21236940
  0
VERTEX
  8
0
 10
-687.31364443
 20
-386.12815012
  0
VERTEX
  8
0
 10
-687.12989299
 20
-386.06089624
  0
VERTEX
  8
0
 10
-686.93822393
 20
-386.01161310
  0
VERTEX
  8
0
 10
-686.73964255
 20
-385.98130598
  0
VERTEX
  8
0
 10
-686.53515417
 20
-385.97098020
  0
VERTEX
  8
0
 10
-686.33066579
 20
-385.98130598
  0
VERTEX
  8
0
 10
-686.13208441
 20
-386.01161310
  0
VERTEX
  8
0
 10
-685.94041535
 20
-386.06089624
  0
VERTEX
  8
0
 10
-685.75666391
 20
-386.12815012
  0
VERTEX
  8
0
 10
-685.58183541
 20
-386.21236940
  0
VERTEX
  8
0
 10
-685.41693515
 20
-386.31254879
  0
VERTEX
  8
0
 10
-685.26296845
 20
-386.42768297
  0
VERTEX
  8
0
 10
-685.12094061
 20
-386.55676664
  0
VERTEX
  8
0
 10
-684.99185694
 20
-386.69879448
  0
VERTEX
  8
0
 10
-684.87672276
 20
-386.85276119
  0
VERTEX
  8
0
 10
-684.77654337
 20
-387.01766144
  0
VERTEX
  8
0
 10
-684.69232409
 20
-387.19248995
  0
VERTEX
  8
0
 10
-684.62507021
 20
-387.37624138
  0
VERTEX
  8
0
 10
-684.57578706
 20
-387.56791044
  0
VERTEX
  8
0
 10
-684.54547995
 20
-387.76649182
  0
VERTEX
  8
0
 10
-684.53515417
 20
-387.97098020
  0
VERTEX
  8
0
 10
-684.54547995
 20
-388.17546859
  0
VERTEX
  8
0
 10
-684.57578706
 20
-388.37404996
  0
VERTEX
  8
0
 10
-684.62507021
 20
-388.56571902
  0
VERTEX
  8
0
 10
-684.69232409
 20
-388.74947046
  0
VERTEX
  8
0
 10
-684.77654337
 20
-388.92429896
  0
VERTEX
  8
0
 10
-684.87672276
 20
-389.08919922
  0
VERTEX
  8
0
 10
-684.99185694
 20
-389.24316593
  0
VERTEX
  8
0
 10
-685.12094061
 20
-389.38519377
  0
VERTEX
  8
0
 10
-685.26296845
 20
-389.51427743
  0
VERTEX
  8
0
 10
-685.41693515
 20
-389.62941161
  0
VERTEX
  8
0
 10
-685.58183541
 20
-389.72959100
  0
VERTEX
  8
0
 10
-685.75666391
 20
-389.81381029
  0
VERTEX
  8
0
 10
-685.94041535
 20
-389.88106416
  0
VERTEX
  8
0
 10
-686.13208441
 20
-389.93034731
  0
VERTEX
  8
0
 10
-686.33066579
 20
-389.96065443
  0
VERTEX
  8
0
 10
-686.53515417
 20
-389.97098020
  0
SEQEND
  0
POLYLINE
  8
0
 66
   1
 39
0.000000
 70
    1
  0
VERTEX
  8
0
 10
-754.53515417
 20
70.02901980
  0
VERTEX
  8
0
 10
-754.73964255
 20
70.03934557
  0
VERTEX
  8
0
 10
-754.93822393
 20
70.06965269
  0
VERTEX
  8
0
 10
-755.12989299
 20
70.11893584
  0
VERTEX
  8
0
 10
-755.31364443
 20
70.18618971
  0
VERTEX
  8
0
 10
-755.48847293
 20
70.27040900
  0
VERTEX
  8
0
 10
-755.65337319
 20
70.37058839
  0
VERTEX
  8
0
 10
-755.80733989
 20
70.48572257
  0
VERTEX
  8
0
 10
-755.94936773
 20
70.61480623
  0
VERTEX
  8
0
 10
-756.07845140
 20
70.75683407
  0
VERTEX
  8
0
 10
-756.19358558
 20
70.91080078
  0
VERTEX
  8
0
 10
-756.29376497
 20
71.07570104
  0
VERTEX
  8
0
 10
-756.37798426
 20
71.25052954
  0
VERTEX
  8
0
 10
-756.44523813
 20
71.43428098
  0
VERTEX
  8
0
 10
-756.49452128
 20
71.62595004
  0
VERTEX
  8
0
 10
-756.52482840
 20
71.82453141
  0
VERTEX
  8
0
 10
-756.53515417
 20
72.02901980
  0
VERTEX
  8
0
 10
-756.52482840
 20
72.23350818
  0
VERTEX
  8
0
 10
-756.49452128
 20
72.43208956
  0
VERTEX
  8
0
 10
-756.44523813
 20
72.62375862
  0
VERTEX
  8
0
 10
-756.37798426
 20
72.80751005
  0
VERTEX
  8
0
 10
-756.29376497
 20
72.98233856
  0
VERTEX
  8
0
 10
-756.19358558
 20
73.14723881
  0
VERTEX
  8
0
 10
-756.07845140
 20
73.30120552
  0
VERTEX
  8
0
 10
-755.94936773
 20
73.44323336
  0
VERTEX
  8
0
 10
-755.80733989
 20
73.57231703
  0
VERTEX
  8
0
 10
-755.65337319
 20
73.68745121
  0
VERTEX
  8
0
 10
-755.48847293
 20
73.78763060
  0
VERTEX
  8
0
 10
-755.31364443
 20
73.87184988
  0
VERTEX
  8
0
 10
-755.12989299
 20
73.93910376
  0
VERTEX
  8
0
 10
-754.93822393
 20
73.98838690
  0
VERTEX
  8
0
 10
-754.73964255
 20
74.01869402
  0
VERTEX
  8
0
 10
-754.53515417
 20
74.02901980
  0
VERTEX
  8
0
 10
-754.33066579
 20
74.01869402
  0
VERTEX
  8
0
 10
-754.13208441
 20
73.98838690
  0
VERTEX
  8
0
 10
-753.94041535
 20
73.93910376
  0
VERTEX
  8
0
 10
-753.75666391
 20
73.87184988
  0
VERTEX
  8
0
 10
-753.58183541
 20
73.78763060
  0
VERTEX
  8
0
 10
-753.41693515
 20
73.68745121
  0
VERTEX
  8
0
 10
-753.26296845
 20
73.57231703
  0
VERTEX
  8
0
 10
-753.12094061
 20
73.44323336
  0
VERTEX
  8
0
 10
-752.99185694
 20
73.30120552
  0
VERTEX
  8
0
 10
-752.87672276
 20
73.14723881
  0
VERTEX
  8
0
 10
-752.77654337
 20
72.98233856
  0
VERTEX
  8
0
 10
-752.69232409
 20
72.80751005
  0
VERTEX
  8
0
 10
-752.62507021
 20
72.62375862
  0
VERTEX
  8
0
 10
-752.57578706
 20
72.43208956
  0
VERTEX
  8
0
 10
-752.54547995
 20
72.23350818
  0
VERTEX
  8
0
 10
-752.53515417
 20
72.02901980
  0
VERTEX
  8
0
 10
-752.54547995
 20
71.82453141
  0
VERTEX
  8
0
 10
-752.57578706
 20
71.62595004
  0
VERTEX
  8
0
 10
-752.62507021
 20
71.43428098
  0
VERTEX
  8
0
 10
-752.69232409
 20
71.25052954
  0
VERTEX
  8
0
 10
-752.77654337
 20
71.07570104
  0
VERTEX
  8
0
 10
-752.87672276
 20
70.91080078
  0
VERTEX
  8
0
 10
-752.99185694
 20
70.75683407
  0
VERTEX
  8
0
 10
-753.12094061
 20
70.61480623
  0
VERTEX
  8
0
 10
-753.26296845
 20
70.48572257
  0
VERTEX
  8
0
 10
-753.41693515
 20
70.37058839
  0
VERTEX
  8
0
 10
-753.58183541
 20
70.27040900
  0
VERTEX
  8
0
 10
-753.75666391
 20
70.18618971
  0
VERTEX
  8
0
 10
-753.94041535
 20
70.11893584
  0
VERTEX
  8
0
 10
-754.13208441
 20
70.06965269
  0
VERTEX
  8
0
 10
-754.33066579
 20
70.03934557
  0
VERTEX
  8
0
 10
-754.53515417
 20
70.02901980
  0
SEQEND
  0
POLYLINE
  8
0
 66
   1
 39
0.000000
 70
    1
  0
VERTEX
  8
0
 10
-1174.53515417
 20
71.02901980
  0
VERTEX
  8
0
 10
-1174.73964255
 20
71.03934557
  0
VERTEX
  8
0
 10
-1174.93822393
 20
71.06965269
  0
VERTEX
  8
0
 10
-1175.12989299
 20
71.11893584
  0
VERTEX
  8
0
 10
-1175.31364443
 20
71.18618971
  0
VERTEX
  8
0
 10
-1175.48847293
 20
71.27040900
  0
VERTEX
  8
0
 10
-1175.65337319
 20
71.37058839
  0
VERTEX
  8
0
 10
-1175.80733989
 20
71.48572257
  0
VERTEX
  8
0
 10
-1175.94936773
 20
71.61480623
  0
VERTEX
  8
0
 10
-1176.07845140
 20
71.75683407
  0
VERTEX
  8
0
 10
-1176.19358558
 20
71.91080078
  0
VERTEX
  8
0
 10
-1176.29376497
 20
72.07570104
  0
VERTEX
  8
0
 10
-1176.37798426
 20
72.25052954
  0
VERTEX
  8
0
 10
-1176.44523813
 20
72.43428098
  0
VERTEX
  8
0
 10
-1176.49452128
 20
72.62595004
  0
VERTEX
  8
0
 10
-1176.52482840
 20
72.82453141
  0
VERTEX
  8
0
 10
-1176.53515417
 20
73.02901980
  0
VERTEX
  8
0
 10
-1176.52482840
 20
73.23350818
  0
VERTEX
  8
0
 10
-1176.49452128
 20
73.43208956
  0
VERTEX
  8
0
 10
-1176.44523813
 20
73.62375862
  0
VERTEX
  8
0
 10
-1176.37798426
 20
73.80751005
  0
VERTEX
  8
0
 10
-1176.29376497
 20
73.98233856
  0
VERTEX
  8
0
 10
-1176.19358558
 20
74.14723881
  0
VERTEX
  8
0
 10
-1176.07845140
 20
74.30120552
  0
VERTEX
  8
0
 10
-1175.94936773
 20
74.44323336
  0
VERTEX
  8
0
 10
-1175.80733989
 20
74.57231703
  0
VERTEX
  8
0
 10
-1175.65337319
 20
74.68745121
  0
VERTEX
  8
0
 10
-1175.48847293
 20
74.78763060
  0
VERTEX
  8
0
 10
-1175.31364443
 20
74.87184988
  0
VERTEX
  8
0
 10
-1175.12989299
 20
74.93910376
  0
VERTEX
  8
0
 10
-1174.93822393
 20
74.98838690
  0
VERTEX
  8
0
 10
-1174.73964255
 20
75.01869402
  0
VERTEX
  8
0
 10
-1174.53515417
 20
75.02901980
  0
VERTEX
  8
0
 10
-1174.33066579
 20
75.01869402
  0
VERTEX
  8
0
 10
-1174.13208441
 20
74.98838690
  0
VERTEX
  8
0
 10
-1173.94041535
 20
74.93910376
  0
VERTEX
  8
0
 10
-1173.75666391
 20
74.87184988
  0
VERTEX
  8
0
 10
-1173.58183541
 20
74.78763060
  0
VERTEX
  8
0
 10
-1173.41693515
 20
74.68745121
  0
VERTEX
  8
0
 10
-1173.26296845
 20
74.57231703
  0
VERTEX
  8
0
 10
-1173.12094061
 20
74.44323336
  0
VERTEX
  8
0
 10
-1172.99185694
 20
74.30120552
  0
VERTEX
  8
0
 10
-1172.87672276
 20
74.14723881
  0
VERTEX
  8
0
 10
-1172.77654337
 20
73.98233856
  0
VERTEX
  8
0
 10
-1172.69232409
 20
73.80751005
  0
VERTEX
  8
0
 10
-1172.62507021
 20
73.62375862
  0
VERTEX
  8
0
 10
-1172.57578706
 20
73.43208956
  0
VERTEX
  8
0
 10
-1172.54547995
 20
73.23350818
  0
VERTEX
  8
0
 10
-1172.53515417
 20
73.02901980
  0
VERTEX
  8
0
 10
-1172.54547995
 20
72.82453141
  0
VERTEX
  8
0
 10
-1172.57578706
 20
72.62595004
  0
VERTEX
  8
0
 10
-1172.62507021
 20
72.43428098
  0
VERTEX
  8
0
 10
-1172.69232409
 20
72.25052954
  0
VERTEX
  8
0
 10
-1172.77654337
 20
72.07570104
  0
VERTEX
  8
0
 10
-1172.87672276
 20
71.91080078
  0
VERTEX
  8
0
 10
-1172.99185694
 20
71.75683407
  0
VERTEX
  8
0
 10
-1173.12094061
 20
71.61480623
  0
VERTEX
  8
0
 10
-1173.26296845
 20
71.48572257
  0
VERTEX
  8
0
 10
-1173.41693515
 20
71.37058839
  0
VERTEX
  8
0
 10
-1173.58183541
 20
71.27040900
  0
VERTEX
  8
0
 10
-1173.75666391
 20
71.18618971
  0
VERTEX
  8
0
 10
-1173.94041535
 20
71.11893584
  0
VERTEX
  8
0
 10
-1174.13208441
 20
71.06965269
  0
VERTEX
  8
0
 10
-1174.33066579
 20
71.03934557
  0
VERTEX
  8
0
 10
-1174.53515417
 20
71.02901980
  0
SEQEND
  0
POLYLINE
  8
0
 66
   1
 39
0.000000
 70
    1
  0
VERTEX
  8
0
 10
-1289.53515417
 20
-492.97098020
  0
VERTEX
  8
0
 10
-1289.73964255
 20
-492.96065443
  0
VERTEX
  8
0
 10
-1289.93822393
 20
-492.93034731
  0
VERTEX
  8
0
 10
-1290.12989299
 20
-492.88106416
  0
VERTEX
  8
0
 10
-1290.31364443
 20
-492.81381029
  0
VERTEX
  8
0
 10
-1290.48847293
 20
-492.72959100
  0
VERTEX
  8
0
 10
-1290.65337319
 20
-492.62941161
  0
VERTEX
  8
0
 10
-1290.80733989
 20
-492.51427743
  0
VERTEX
  8
0
 10
-1290.94936773
 20
-492.38519377
  0
VERTEX
  8
0
 10
-1291.07845140
 20
-492.24316593
  0
VERTEX
  8
0
 10
-1291.19358558
 20
-492.08919922
  0
VERTEX
  8
0
 10
-1291.29376497
 20
-491.92429896
  0
VERTEX
  8
0
 10
-1291.37798426
 20
-491.74947046
  0
VERTEX
  8
0
 10
-1291.44523813
 20
-491.56571902
  0
VERTEX
  8
0
 10
-1291.49452128
 20
-491.37404996
  0
VERTEX
  8
0
 10
-1291.52482840
 20
-491.17546859
  0
VERTEX
  8
0
 10
-1291.53515417
 20
-490.97098020
  0
VERTEX
  8
0
 10
-1291.52482840
 20
-490.76649182
  0
VERTEX
  8
0
 10
-1291.49452128
 20
-490.56791044
  0
VERTEX
  8
0
 10
-1291.44523813
 20
-490.37624138
  0
VERTEX
  8
0
 10
-1291.37798426
 20
-490.19248995
  0
VERTEX
  8
0
 10
-1291.29376497
 20
-490.01766144
  0
VERTEX
  8
0
 10
-1291.19358558
 20
-489.85276119
  0
VERTEX
  8
0
 10
-1291.07845140
 20
-489.69879448
  0
VERTEX
  8
0
 10
-1290.94936773
 20
-489.55676664
  0
VERTEX
  8
0
 10
-1290.80733989
 20
-489.42768297
  0
VERTEX
  8
0
 10
-1290.65337319
 20
-489.31254879
  0
VERTEX
  8
0
 10
-1290.48847293
 20
-489.21236940
  0
VERTEX
  8
0
 10
-1290.31364443
 20
-489.12815012
  0
VERTEX
  8
0
 10
-1290.12989299
 20
-489.06089624
  0
VERTEX
  8
0
 10
-1289.93822393
 20
-489.01161310
  0
VERTEX
  8
0
 10
-1289.73964255
 20
-488.98130598
  0
VERTEX
  8
0
 10
-1289.53515417
 20
-488.97098020
  0
VERTEX
  8
0
 10
-1289.33066579
 20
-488.98130598
  0
VERTEX
  8
0
 10
-1289.13208441
 20
-489.01161310
  0
VERTEX
  8
0
 10
-1288.94041535
 20
-489.06089624
  0
VERTEX
  8
0
 10
-1288.75666391
 20
-489.12815012
  0
VERTEX
  8
0
 10
-1288.58183541
 20
-489.21236940
  0
VERTEX
  8
0
 10
-1288.41693515
 20
-489.31254879
  0
VERTEX
  8
0
 10
-1288.26296845
 20
-489.42768297
  0
VERTEX
  8
0
 10
-1288.12094061
 20
-489.55676664
  0
VERTEX
  8
0
 10
-1287.99185694
 20
-489.69879448
  0
VERTEX
  8
0
 10
-1287.87672276
 20
-489.85276119
  0
VERTEX
  8
0
 10
-1287.77654337
 20
-490.01766144
  0
VERTEX
  8
0
 10
-1287.69232409
 20
-490.19248995
  0
VERTEX
  8
0
 10
-1287.62507021
 20
-490.37624138
  0
VERTEX
  8
0
 10
-1287.57578706
 20
-490.56791044
  0
VERTEX
  8
0
 10
-1287.54547995
 20
-490.76649182
  0
VERTEX
  8
0
 10
-1287.53515417
 20
-490.97098020
  0
VERTEX
  8
0
 10
-1287.54547995
 20
-491.17546859
  0
VERTEX
  8
0
 10
-1287.57578706
 20
-491.37404996
  0
VERTEX
  8
0
 10
-1287.62507021
 20
-491.56571902
  0
VERTEX
  8
0
 10
-1287.69232409
 20
-491.74947046
  0
VERTEX
  8
0
 10
-1287.77654337
 20
-491.92429896
  0
VERTEX
  8
0
 10
-1287.87672276
 20
-492.08919922
  0
VERTEX
  8
0
 10
-1287.99185694
 20
-492.24316593
  0
VERTEX
  8
0
 10
-1288.12094061
 20
-492.38519377
  0
VERTEX
  8
0
 10
-1288.26296845
 20
-492.51427743
  0
VERTEX
  8
0
 10
-1288.41693515
 20
-492.62941161
  0
VERTEX
  8
0
 10
-1288.58183541
 20
-492.72959100
  0
VERTEX
  8
0
 10
-1288.75666391
 20
-492.81381029
  0
VERTEX
  8
0
 10
-1288.94041535
 20
-492.88106416
  0
VERTEX
  8
0
 10
-1289.13208441
 20
-492.93034731
  0
VERTEX
  8
0
 10
-1289.33066579
 20
-492.96065443
  0
VERTEX
  8
0
 10
-1289.53515417
 20
-492.97098020
  0
SEQEND
  0
POLYLINE
  8
0
 66
   1
 39
0.000000
 70
    1
  0
VERTEX
  8
0
 10
-1284.53515417
 20
51.02901980
  0
VERTEX
  8
0
 10
-1284.73964255
 20
51.03934557
  0
VERTEX
  8
0
 10
-1284.93822393
 20
51.06965269
  0
VERTEX
  8
0
 10
-1285.12989299
 20
51.11893584
  0
VERTEX
  8
0
 10
-1285.31364443
 20
51.18618971
  0
VERTEX
  8
0
 10
-1285.48847293
 20
51.27040900
  0
VERTEX
  8
0
 10
-1285.65337319
 20
51.37058839
  0
VERTEX
  8
0
 10
-1285.80733989
 20
51.48572257
  0
VERTEX
  8
0
 10
-1285.94936773
 20
51.61480623
  0
VERTEX
  8
0
 10
-1286.07845140
 20
51.75683407
  0
VERTEX
  8
0
 10
-1286.19358558
 20
51.91080078
  0
VERTEX
  8
0
 10
-1286.29376497
 20
52.07570104
  0
VERTEX
  8
0
 10
-1286.37798426
 20
52.25052954
  0
VERTEX
  8
0
 10
-1286.44523813
 20
52.43428098
  0
VERTEX
  8
0
 10
-1286.49452128
 20
52.62595004
  0
VERTEX
  8
0
 10
-1286.52482840
 20
52.82453141
  0
VERTEX
  8
0
 10
-1286.53515417
 20
53.02901980
  0
VERTEX
  8
0
 10
-1286.52482840
 20
53.23350818
  0
VERTEX
  8
0
 10
-1286.49452128
 20
53.43208956
  0
VERTEX
  8
0
 10
-1286.44523813
 20
53.62375862
  0
VERTEX
  8
0
 10
-1286.37798426
 20
53.80751005
  0
VERTEX
  8
0
 10
-1286.29376497
 20
53.98233856
  0
VERTEX
  8
0
 10
-1286.19358558
 20
54.14723881
  0
VERTEX
  8
0
 10
-1286.07845140
 20
54.30120552
  0
VERTEX
  8
0
 10
-1285.94936773
 20
54.44323336
  0
VERTEX
  8
0
 10
-1285.80733989
 20
54.57231703
  0
VERTEX
  8
0
 10
-1285.65337319
 20
54.68745121
  0
VERTEX
  8
0
 10
-1285.48847293
 20
54.78763060
  0
VERTEX
  8
0
 10
-1285.31364443
 20
54.87184988
  0
VERTEX
  8
0
 10
-1285.12989299
 20
54.93910376
  0
VERTEX
  8
0
 10
-1284.93822393
 20
54.98838690
  0
VERTEX
  8
0
 10
-1284.73964255
 20
55.01869402
  0
VERTEX
  8
0
 10
-1284.53515417
 20
55.02901980
  0
VERTEX
  8
0
 10
-1284.33066579
 20
55.01869402
  0
VERTEX
  8
0
 10
-1284.13208441
 20
54.98838690
  0
VERTEX
  8
0
 10
-1283.94041535
 20
54.93910376
  0
VERTEX
  8
0
 10
-1283.75666391
 20
54.87184988
  0
VERTEX
  8
0
 10
-1283.58183541
 20
54.78763060
  0
VERTEX
  8
0
 10
-1283.41693515
 20
54.68745121
  0
VERTEX
  8
0
 10
-1283.26296845
 20
54.57231703
  0
VERTEX
  8
0
 10
-1283.12094061
 20
54.44323336
  0
VERTEX
  8
0
 10
-1282.99185694
 20
54.30120552
  0
VERTEX
  8
0
 10
-1282.87672276
 20
54.14723881
  0
VERTEX
  8
0
 10
-1282.77654337
 20
53.98233856
  0
VERTEX
  8
0
 10
-1282.69232409
 20
53.80751005
  0
VERTEX
  8
0
 10
-1282.62507021
 20
53.62375862
  0
VERTEX
  8
0
 10
-1282.57578706
 20
53.43208956
  0
VERTEX
  8
0
 10
-1282.54547995
 20
53.23350818
  0
VERTEX
  8
0
 10
-1282.53515417
 20
53.02901980
  0
VERTEX
  8
0
 10
-1282.54547995
 20
52.82453141
  0
VERTEX
  8
0
 10
-1282.57578706
 20
52.62595004
  0
VERTEX
  8
0
 10
-1282.62507021
 20
52.43428098
  0
VERTEX
  8
0
 10
-1282.69232409
 20
52.25052954
  0
VERTEX
  8
0
 10
-1282.77654337
 20
52.07570104
  0
VERTEX
  8
0
 10
-1282.87672276
 20
51.91080078
  0
VERTEX
  8
0
 10
-1282.99185694
 20
51.75683407
  0
VERTEX
  8
0
 10
-1283.12094061
 20
51.61480623
  0
VERTEX
  8
0
 10
-1283.26296845
 20
51.48572257
  0
VERTEX
  8
0
 10
-1283.41693515
 20
51.37058839
  0
VERTEX
  8
0
 10
-1283.58183541
 20
51.27040900
  0
VERTEX
  8
0
 10
-1283.75666391
 20
51.18618971
  0
VERTEX
  8
0
 10
-1283.94041535
 20
51.11893584
  0
VERTEX
  8
0
 10
-1284.13208441
 20
51.06965269
  0
VERTEX
  8
0
 10
-1284.33066579
 20
51.03934557
  0
VERTEX
  8
0
 10
-1284.53515417
 20
51.02901980
  0
SEQEND
  0
POLYLINE
  8
0
 66
   1
 39
0.000000
 70
    1
  0
VERTEX
  8
0
 10
1452.74388182
 20
-1035.64622637
  0
VERTEX
  8
0
 10
1452.73355604
 20
-1035.85071475
  0
VERTEX
  8
0
 10
1452.70324893
 20
-1036.04929612
  0
VERTEX
  8
0
 10
1452.65396578
 20
-1036.24096519
  0
VERTEX
  8
0
 10
1452.58671190
 20
-1036.42471662
  0
VERTEX
  8
0
 10
1452.50249262
 20
-1036.59954513
  0
VERTEX
  8
0
 10
1452.40231323
 20
-1036.76444538
  0
VERTEX
  8
0
 10
1452.28717905
 20
-1036.91841209
  0
VERTEX
  8
0
 10
1452.15809538
 20
-1037.06043993
  0
VERTEX
  8
0
 10
1452.01606754
 20
-1037.18952359
  0
VERTEX
  8
0
 10
1451.86210084
 20
-1037.30465778
  0
VERTEX
  8
0
 10
1451.69720058
 20
-1037.40483717
  0
VERTEX
  8
0
 10
1451.52237208
 20
-1037.48905645
  0
VERTEX
  8
0
 10
1451.33862064
 20
-1037.55631032
  0
VERTEX
  8
0
 10
1451.14695158
 20
-1037.60559347
  0
VERTEX
  8
0
 10
1450.94837020
 20
-1037.63590059
  0
VERTEX
  8
0
 10
1450.74388182
 20
-1037.64622637
  0
VERTEX
  8
0
 10
1450.53939344
 20
-1037.63590059
  0
VERTEX
  8
0
 10
1450.34081206
 20
-1037.60559347
  0
VERTEX
  8
0
 10
1450.14914300
 20
-1037.55631032
  0
VERTEX
  8
0
 10
1449.96539156
 20
-1037.48905645
  0
VERTEX
  8
0
 10
1449.79056306
 20
-1037.40483717
  0
VERTEX
  8
0
 10
1449.62566280
 20
-1037.30465778
  0
VERTEX
  8
0
 10
1449.47169610
 20
-1037.18952359
  0
VERTEX
  8
0
 10
1449.32966826
 20
-1037.06043993
  0
VERTEX
  8
0
 10
1449.20058459
 20
-1036.91841209
  0
VERTEX
  8
0
 10
1449.08545041
 20
-1036.76444538
  0
VERTEX
  8
0
 10
1448.98527102
 20
-1036.59954513
  0
VERTEX
  8
0
 10
1448.90105173
 20
-1036.42471662
  0
VERTEX
  8
0
 10
1448.83379786
 20
-1036.24096519
  0
VERTEX
  8
0
 10
1448.78451471
 20
-1036.04929612
  0
VERTEX
  8
0
 10
1448.75420759
 20
-1035.85071475
  0
VERTEX
  8
0
 10
1448.74388182
 20
-1035.64622637
  0
VERTEX
  8
0
 10
1448.75420759
 20
-1035.44173798
  0
VERTEX
  8
0
 10
1448.78451471
 20
-1035.24315661
  0
VERTEX
  8
0
 10
1448.83379786
 20
-1035.05148754
  0
VERTEX
  8
0
 10
1448.90105173
 20
-1034.86773611
  0
VERTEX
  8
0
 10
1448.98527102
 20
-1034.69290760
  0
VERTEX
  8
0
 10
1449.08545041
 20
-1034.52800735
  0
VERTEX
  8
0
 10
1449.20058459
 20
-1034.37404064
  0
VERTEX
  8
0
 10
1449.32966826
 20
-1034.23201280
  0
VERTEX
  8
0
 10
1449.47169610
 20
-1034.10292914
  0
VERTEX
  8
0
 10
1449.62566280
 20
-1033.98779495
  0
VERTEX
  8
0
 10
1449.79056306
 20
-1033.88761557
  0
VERTEX
  8
0
 10
1449.96539156
 20
-1033.80339628
  0
VERTEX
  8
0
 10
1450.14914300
 20
-1033.73614241
  0
VERTEX
  8
0
 10
1450.34081206
 20
-1033.68685926
  0
VERTEX
  8
0
 10
1450.53939344
 20
-1033.65655214
  0
VERTEX
  8
0
 10
1450.74388182
 20
-1033.64622637
  0
VERTEX
  8
0
 10
1450.94837020
 20
-1033.65655214
  0
VERTEX
  8
0
 10
1451.14695158
 20
-1033.68685926
  0
VERTEX
  8
0
 10
1451.33862064
 20
-1033.73614241
  0
VERTEX
  8
0
 10
1451.52237208
 20
-1033.80339628
  0
VERTEX
  8
0
 10
1451.69720058
 20
-1033.88761557
  0
VERTEX
  8
0
 10
1451.86210084
 20
-1033.98779495
  0
VERTEX
  8
0
 10
1452.01606754
 20
-1034.10292914
  0
VERTEX
  8
0
 10
1452.15809538
 20
-1034.23201280
  0
VERTEX
  8
0
 10
1452.28717905
 20
-1034.37404064
  0
VERTEX
  8
0
 10
1452.40231323
 20
-1034.52800735
  0
VERTEX
  8
0
 10
1452.50249262
 20
-1034.69290760
  0
VERTEX
  8
0
 10
1452.58671190
 20
-1034.86773611
  0
VERTEX
  8
0
 10
1452.65396578
 20
-1035.05148754
  0
VERTEX
  8
0
 10
1452.70324893
 20
-1035.24315661
  0
VERTEX
  8
0
 10
1452.73355604
 20
-1035.44173798
  0
VERTEX
  8
0
 10
1452.74388182
 20
-1035.64622637
  0
SEQEND
  0
POLYLINE
  8
0
 66
   1
 39
0.000000
 70
    1
  0
VERTEX
  8
0
 10
1467.74388182
 20
-1239.64622637
  0
VERTEX
  8
0
 10
1467.73355604
 20
-1239.85071475
  0
VERTEX
  8
0
 10
1467.70324893
 20
-1240.04929612
  0
VERTEX
  8
0
 10
1467.65396578
 20
-1240.24096519
  0
VERTEX
  8
0
 10
1467.58671190
 20
-1240.42471662
  0
VERTEX
  8
0
 10
1467.50249262
 20
-1240.59954513
  0
VERTEX
  8
0
 10
1467.40231323
 20
-1240.76444538
  0
VERTEX
  8
0
 10
1467.28717905
 20
-1240.91841209
  0
VERTEX
  8
0
 10
1467.15809538
 20
-1241.06043993
  0
VERTEX
  8
0
 10
1467.01606754
 20
-1241.18952359
  0
VERTEX
  8
0
 10
1466.86210084
 20
-1241.30465778
  0
VERTEX
  8
0
 10
1466.69720058
 20
-1241.40483717
  0
VERTEX
  8
0
 10
1466.52237208
 20
-1241.48905645
  0
VERTEX
  8
0
 10
1466.33862064
 20
-1241.55631032
  0
VERTEX
  8
0
 10
1466.14695158
 20
-1241.60559347
  0
VERTEX
  8
0
 10
1465.94837020
 20
-1241.63590059
  0
VERTEX
  8
0
 10
1465.74388182
 20
-1241.64622637
  0
VERTEX
  8
0
 10
1465.53939344
 20
-1241.63590059
  0
VERTEX
  8
0
 10
1465.34081206
 20
-1241.60559347
  0
VERTEX
  8
0
 10
1465.14914300
 20
-1241.55631032
  0
VERTEX
  8
0
 10
1464.96539156
 20
-1241.48905645
  0
VERTEX
  8
0
 10
1464.79056306
 20
-1241.40483717
  0
VERTEX
  8
0
 10
1464.62566280
 20
-1241.30465778
  0
VERTEX
  8
0
 10
1464.47169610
 20
-1241.18952359
  0
VERTEX
  8
0
 10
1464.32966826
 20
-1241.06043993
  0
VERTEX
  8
0
 10
1464.20058459
 20
-1240.91841209
  0
VERTEX
  8
0
 10
1464.08545041
 20
-1240.76444538
  0
VERTEX
  8
0
 10
1463.98527102
 20
-1240.59954513
  0
VERTEX
  8
0
 10
1463.90105173
 20
-1240.42471662
  0
VERTEX
  8
0
 10
1463.83379786
 20
-1240.24096519
  0
VERTEX
  8
0
 10
1463.78451471
 20
-1240.04929612
  0
VERTEX
  8
0
 10
1463.75420759
 20
-1239.85071475
  0
VERTEX
  8
0
 10
1463.74388182
 20
-1239.64622637
  0
VERTEX
  8
0
 10
1463.75420759
 20
-1239.44173798
  0
VERTEX
  8
0
 10
1463.78451471
 20
-1239.24315661
  0
VERTEX
  8
0
 10
1463.83379786
 20
-1239.05148754
  0
VERTEX
  8
0
 10
1463.90105173
 20
-1238.86773611
  0
VERTEX
  8
0
 10
1463.98527102
 20
-1238.69290760
  0
VERTEX
  8
0
 10
1464.08545041
 20
-1238.52800735
  0
VERTEX
  8
0
 10
1464.20058459
 20
-1238.37404064
  0
VERTEX
  8
0
 10
1464.32966826
 20
-1238.23201280
  0
VERTEX
  8
0
 10
1464.47169610
 20
-1238.10292914
  0
VERTEX
  8
0
 10
1464.62566280
 20
-1237.98779495
  0
VERTEX
  8
0
 10
1464.79056306
 20
-1237.88761557
  0
VERTEX
  8
0
 10
1464.96539156
 20
-1237.80339628
  0
VERTEX
  8
0
 10
1465.14914300
 20
-1237.73614241
  0
VERTEX
  8
0
 10
1465.34081206
 20
-1237.68685926
  0
VERTEX
  8
0
 10
1465.53939344
 20
-1237.65655214
  0
VERTEX
  8
0
 10
1465.74388182
 20
-1237.64622637
  0
VERTEX
  8
0
 10
1465.94837020
 20
-1237.65655214
  0
VERTEX
  8
0
 10
1466.14695158
 20
-1237.68685926
  0
VERTEX
  8
0
 10
1466.33862064
 20
-1237.73614241
  0
VERTEX
  8
0
 10
1466.52237208
 20
-1237.80339628
  0
VERTEX
  8
0
 10
1466.69720058
 20
-1237.88761557
  0
VERTEX
  8
0
 10
1466.86210084
 20
-1237.98779495
  0
VERTEX
  8
0
 10
1467.01606754
 20
-1238.10292914
  0
VERTEX
  8
0
 10
1467.15809538
 20
-1238.23201280
  0
VERTEX
  8
0
 10
1467.28717905
 20
-1238.37404064
  0
VERTEX
  8
0
 10
1467.40231323
 20
-1238.52800735
  0
VERTEX
  8
0
 10
1467.50249262
 20
-1238.69290760
  0
VERTEX
  8
0
 10
1467.58671190
 20
-1238.86773611
  0
VERTEX
  8
0
 10
1467.65396578
 20
-1239.05148754
  0
VERTEX
  8
0
 10
1467.70324893
 20
-1239.24315661
  0
VERTEX
  8
0
 10
1467.73355604
 20
-1239.44173798
  0
VERTEX
  8
0
 10
1467.74388182
 20
-1239.64622637
  0
SEQEND
  0
POLYLINE
  8
0
 66
   1
 39
0.000000
 70
    1
  0
VERTEX
  8
0
 10
1115.74388182
 20
-1259.64622637
  0
VERTEX
  8
0
 10
1115.73355604
 20
-1259.85071475
  0
VERTEX
  8
0
 10
1115.70324893
 20
-1260.04929612
  0
VERTEX
  8
0
 10
1115.65396578
 20
-1260.24096519
  0
VERTEX
  8
0
 10
1115.58671190
 20
-1260.42471662
  0
VERTEX
  8
0
 10
1115.50249262
 20
-1260.59954513
  0
VERTEX
  8
0
 10
1115.40231323
 20
-1260.76444538
  0
VERTEX
  8
0
 10
1115.28717905
 20
-1260.91841209
  0
VERTEX
  8
0
 10
1115.15809538
 20
-1261.06043993
  0
VERTEX
  8
0
 10
1115.01606754
 20
-1261.18952359
  0
VERTEX
  8
0
 10
1114.86210084
 20
-1261.30465778
  0
VERTEX
  8
0
 10
1114.69720058
 20
-1261.40483717
  0
VERTEX
  8
0
 10
1114.52237208
 20
-1261.48905645
  0
VERTEX
  8
0
 10
1114.33862064
 20
-1261.55631032
  0
VERTEX
  8
0
 10
1114.14695158
 20
-1261.60559347
  0
VERTEX
  8
0
 10
1113.94837020
 20
-1261.63590059
  0
VERTEX
  8
0
 10
1113.74388182
 20
-1261.64622637
  0
VERTEX
  8
0
 10
1113.53939344
 20
-1261.63590059
  0
VERTEX
  8
0
 10
1113.34081206
 20
-1261.60559347
  0
VERTEX
  8
0
 10
1113.14914300
 20
-1261.55631032
  0
VERTEX
  8
0
 10
1112.96539156
 20
-1261.48905645
  0
VERTEX
  8
0
 10
1112.79056306
 20
-1261.40483717
  0
VERTEX
  8
0
 10
1112.62566280
 20
-1261.30465778
  0
VERTEX
  8
0
 10
1112.47169610
 20
-1261.18952359
  0
VERTEX
  8
0
 10
1112.32966826
 20
-1261.06043993
  0
VERTEX
  8
0
 10
1112.20058459
 20
-1260.91841209
  0
VERTEX
  8
0
 10
1112.08545041
 20
-1260.76444538
  0
VERTEX
  8
0
 10
1111.98527102
 20
-1260.59954513
  0
VERTEX
  8
0
 10
1111.90105173
 20
-1260.42471662
  0
VERTEX
  8
0
 10
1111.83379786
 20
-1260.24096519
  0
VERTEX
  8
0
 10
1111.78451471
 20
-1260.04929612
  0
VERTEX
  8
0
 10
1111.75420759
 20
-1259.85071475
  0
VERTEX
  8
0
 10
1111.74388182
 20
-1259.64622637
  0
VERTEX
  8
0
 10
1111.75420759
 20
-1259.44173798
  0
VERTEX
  8
0
 10
1111.78451471
 20
-1259.24315661
  0
VERTEX
  8
0
 10
1111.83379786
 20
-1259.05148754
  0
VERTEX
  8
0
 10
1111.90105173
 20
-1258.86773611
  0
VERTEX
  8
0
 10
1111.98527102
 20
-1258.69290760
  0
VERTEX
  8
0
 10
1112.08545041
 20
-1258.52800735
  0
VERTEX
  8
0
 10
1112.20058459
 20
-1258.37404064
  0
VERTEX
  8
0
 10
1112.32966826
 20
-1258.23201280
  0
VERTEX
  8
0
 10
1112.47169610
 20
-1258.10292914
  0
VERTEX
  8
0
 10
1112.62566280
 20
-1257.98779495
  0
VERTEX
  8
0
 10
1112.79056306
 20
-1257.88761557
  0
VERTEX
  8
0
 10
1112.96539156
 20
-1257.80339628
  0
VERTEX
  8
0
 10
1113.14914300
 20
-1257.73614241
  0
VERTEX
  8
0
 10
1113.34081206
 20
-1257.68685926
  0
VERTEX
  8
0
 10
1113.53939344
 20
-1257.65655214
  0
VERTEX
  8
0
 10
1113.74388182
 20
-1257.64622637
  0
VERTEX
  8
0
 10
1113.94837020
 20
-1257.65655214
  0
VERTEX
  8
0
 10
1114.14695158
 20
-1257.68685926
  0
VERTEX
  8
0
 10
1114.33862064
 20
-1257.73614241
  0
VERTEX
  8
0
 10
1114.52237208
 20
-1257.80339628
  0
VERTEX
  8
0
 10
1114.69720058
 20
-1257.88761557
  0
VERTEX
  8
0
 10
1114.86210084
 20
-1257.98779495
  0
VERTEX
  8
0
 10
1115.01606754
 20
-1258.10292914
  0
VERTEX
  8
0
 10
1115.15809538
 20
-1258.23201280
  0
VERTEX
  8
0
 10
1115.28717905
 20
-1258.37404064
  0
VERTEX
  8
0
 10
1115.40231323
 20
-1258.52800735
  0
VERTEX
  8
0
 10
1115.50249262
 20
-1258.69290760
  0
VERTEX
  8
0
 10
1115.58671190
 20
-1258.86773611
  0
VERTEX
  8
0
 10
1115.65396578
 20
-1259.05148754
  0
VERTEX
  8
0
 10
1115.70324893
 20
-1259.24315661
  0
VERTEX
  8
0
 10
1115.73355604
 20
-1259.44173798
  0
VERTEX
  8
0
 10
1115.74388182
 20
-1259.64622637
  0
SEQEND
  0
POLYLINE
  8
0
 66
   1
 39
0.000000
 70
    1
  0
VERTEX
  8
0
 10
1468.74388182
 20
-1435.64622637
  0
VERTEX
  8
0
 10
1468.73355604
 20
-1435.85071475
  0
VERTEX
  8
0
 10
1468.70324893
 20
-1436.04929612
  0
VERTEX
  8
0
 10
1468.65396578
 20
-1436.24096519
  0
VERTEX
  8
0
 10
1468.58671190
 20
-1436.42471662
  0
VERTEX
  8
0
 10
1468.50249262
 20
-1436.59954513
  0
VERTEX
  8
0
 10
1468.40231323
 20
-1436.76444538
  0
VERTEX
  8
0
 10
1468.28717905
 20
-1436.91841209
  0
VERTEX
  8
0
 10
1468.15809538
 20
-1437.06043993
  0
VERTEX
  8
0
 10
1468.01606754
 20
-1437.18952359
  0
VERTEX
  8
0
 10
1467.86210084
 20
-1437.30465778
  0
VERTEX
  8
0
 10
1467.69720058
 20
-1437.40483717
  0
VERTEX
  8
0
 10
1467.52237208
 20
-1437.48905645
  0
VERTEX
  8
0
 10
1467.33862064
 20
-1437.55631032
  0
VERTEX
  8
0
 10
1467.14695158
 20
-1437.60559347
  0
VERTEX
  8
0
 10
1466.94837020
 20
-1437.63590059
  0
VERTEX
  8
0
 10
1466.74388182
 20
-1437.64622637
  0
VERTEX
  8
0
 10
1466.53939344
 20
-1437.63590059
  0
VERTEX
  8
0
 10
1466.34081206
 20
-1437.60559347
  0
VERTEX
  8
0
 10
1466.14914300
 20
-1437.55631032
  0
VERTEX
  8
0
 10
1465.96539156
 20
-1437.48905645
  0
VERTEX
  8
0
 10
1465.79056306
 20
-1437.40483717
  0
VERTEX
  8
0
 10
1465.62566280
 20
-1437.30465778
  0
VERTEX
  8
0
 10
1465.47169610
 20
-1437.18952359
  0
VERTEX
  8
0
 10
1465.32966826
 20
-1437.06043993
  0
VERTEX
  8
0
 10
1465.20058459
 20
-1436.91841209
  0
VERTEX
  8
0
 10
1465.08545041
 20
-1436.76444538
  0
VERTEX
  8
0
 10
1464.98527102
 20
-1436.59954513
  0
VERTEX
  8
0
 10
1464.90105173
 20
-1436.42471662
  0
VERTEX
  8
0
 10
1464.83379786
 20
-1436.24096519
  0
VERTEX
  8
0
 10
1464.78451471
 20
-1436.04929612
  0
VERTEX
  8
0
 10
1464.75420759
 20
-1435.85071475
  0
VERTEX
  8
0
 10
1464.74388182
 20
-1435.64622637
  0
VERTEX
  8
0
 10
1464.75420759
 20
-1435.44173798
  0
VERTEX
  8
0
 10
1464.78451471
 20
-1435.24315661
  0
VERTEX
  8
0
 10
1464.83379786
 20
-1435.05148754
  0
VERTEX
  8
0
 10
1464.90105173
 20
-1434.86773611
  0
VERTEX
  8
0
 10
1464.98527102
 20
-1434.69290760
  0
VERTEX
  8
0
 10
1465.08545041
 20
-1434.52800735
  0
VERTEX
  8
0
 10
1465.20058459
 20
-1434.37404064
  0
VERTEX
  8
0
 10
1465.32966826
 20
-1434.23201280
  0
VERTEX
  8
0
 10
1465.47169610
 20
-1434.10292914
  0
VERTEX
  8
0
 10
1465.62566280
 20
-1433.98779495
  0
VERTEX
  8
0
 10
1465.79056306
 20
-1433.88761557
  0
VERTEX
  8
0
 10
1465.96539156
 20
-1433.80339628
  0
VERTEX
  8
0
 10
1466.14914300
 20
-1433.73614241
  0
VERTEX
  8
0
 10
1466.34081206
 20
-1433.68685926
  0
VERTEX
  8
0
 10
1466.53939344
 20
-1433.65655214
  0
VERTEX
  8
0
 10
1466.74388182
 20
-1433.64622637
  0
VERTEX
  8
0
 10
1466.94837020
 20
-1433.65655214
  0
VERTEX
  8
0
 10
1467.14695158
 20
-1433.68685926
  0
VERTEX
  8
0
 10
1467.33862064
 20
-1433.73614241
  0
VERTEX
  8
0
 10
1467.52237208
 20
-1433.80339628
  0
VERTEX
  8
0
 10
1467.69720058
 20
-1433.88761557
  0
VERTEX
  8
0
 10
1467.86210084
 20
-1433.98779495
  0
VERTEX
  8
0
 10
1468.01606754
 20
-1434.10292914
  0
VERTEX
  8
0
 10
1468.15809538
 20
-1434.23201280
  0
VERTEX
  8
0
 10
1468.28717905
 20
-1434.37404064
  0
VERTEX
  8
0
 10
1468.40231323
 20
-1434.52800735
  0
VERTEX
  8
0
 10
1468.50249262
 20
-1434.69290760
  0
VERTEX
  8
0
 10
1468.58671190
 20
-1434.86773611
  0
VERTEX
  8
0
 10
1468.65396578
 20
-1435.05148754
  0
VERTEX
  8
0
 10
1468.70324893
 20
-1435.24315661
  0
VERTEX
  8
0
 10
1468.73355604
 20
-1435.44173798
  0
VERTEX
  8
0
 10
1468.74388182
 20
-1435.64622637
  0
SEQEND
  0
POLYLINE
  8
0
 66
   1
 39
0.000000
 70
    1
  0
VERTEX
  8
0
 10
1290.74388182
 20
-1479.64622637
  0
VERTEX
  8
0
 10
1290.73355604
 20
-1479.85071475
  0
VERTEX
  8
0
 10
1290.70324893
 20
-1480.04929612
  0
VERTEX
  8
0
 10
1290.65396578
 20
-1480.24096519
  0
VERTEX
  8
0
 10
1290.58671190
 20
-1480.42471662
  0
VERTEX
  8
0
 10
1290.50249262
 20
-1480.59954513
  0
VERTEX
  8
0
 10
1290.40231323
 20
-1480.76444538
  0
VERTEX
  8
0
 10
1290.28717905
 20
-1480.91841209
  0
VERTEX
  8
0
 10
1290.15809538
 20
-1481.06043993
  0
VERTEX
  8
0
 10
1290.01606754
 20
-1481.18952359
  0
VERTEX
  8
0
 10
1289.86210084
 20
-1481.30465778
  0
VERTEX
  8
0
 10
1289.69720058
 20
-1481.40483717
  0
VERTEX
  8
0
 10
1289.52237208
 20
-1481.48905645
  0
VERTEX
  8
0
 10
1289.33862064
 20
-1481.55631032
  0
VERTEX
  8
0
 10
1289.14695158
 20
-1481.60559347
  0
VERTEX
  8
0
 10
1288.94837020
 20
-1481.63590059
  0
VERTEX
  8
0
 10
1288.74388182
 20
-1481.64622637
  0
VERTEX
  8
0
 10
1288.53939344
 20
-1481.63590059
  0
VERTEX
  8
0
 10
1288.34081206
 20
-1481.60559347
  0
VERTEX
  8
0
 10
1288.14914300
 20
-1481.55631032
  0
VERTEX
  8
0
 10
1287.96539156
 20
-1481.48905645
  0
VERTEX
  8
0
 10
1287.79056306
 20
-1481.40483717
  0
VERTEX
  8
0
 10
1287.62566280
 20
-1481.30465778
  0
VERTEX
  8
0
 10
1287.47169610
 20
-1481.18952359
  0
VERTEX
  8
0
 10
1287.32966826
 20
-1481.06043993
  0
VERTEX
  8
0
 10
1287.20058459
 20
-1480.91841209
  0
VERTEX
  8
0
 10
1287.08545041
 20
-1480.76444538
  0
VERTEX
  8
0
 10
1286.98527102
 20
-1480.59954513
  0
VERTEX
  8
0
 10
1286.90105173
 20
-1480.42471662
  0
VERTEX
  8
0
 10
1286.83379786
 20
-1480.24096519
  0
VERTEX
  8
0
 10
1286.78451471
 20
-1480.04929612
  0
VERTEX
  8
0
 10
1286.75420759
 20
-1479.85071475
  0
VERTEX
  8
0
 10
1286.74388182
 20
-1479.64622637
  0
VERTEX
  8
0
 10
1286.75420759
 20
-1479.44173798
  0
VERTEX
  8
0
 10
1286.78451471
 20
-1479.24315661
  0
VERTEX
  8
0
 10
1286.83379786
 20
-1479.05148754
  0
VERTEX
  8
0
 10
1286.90105173
 20
-1478.86773611
  0
VERTEX
  8
0
 10
1286.98527102
 20
-1478.69290760
  0
VERTEX
  8
0
 10
1287.08545041
 20
-1478.52800735
  0
VERTEX
  8
0
 10
1287.20058459
 20
-1478.37404064
  0
VERTEX
  8
0
 10
1287.32966826
 20
-1478.23201280
  0
VERTEX
  8
0
 10
1287.47169610
 20
-1478.10292914
  0
VERTEX
  8
0
 10
1287.62566280
 20
-1477.98779495
  0
VERTEX
  8
0
 10
1287.79056306
 20
-1477.88761557
  0
VERTEX
  8
0
 10
1287.96539156
 20
-1477.80339628
  0
VERTEX
  8
0
 10
1288.14914300
 20
-1477.73614241
  0
VERTEX
  8
0
 10
1288.34081206
 20
-1477.68685926
  0
VERTEX
  8
0
 10
1288.53939344
 20
-1477.65655214
  0
VERTEX
  8
0
 10
1288.74388182
 20
-1477.64622637
  0
VERTEX
  8
0
 10
1288.94837020
 20
-1477.65655214
  0
VERTEX
  8
0
 10
1289.14695158
 20
-1477.68685926
  0
VERTEX
  8
0
 10
1289.33862064
 20
-1477.73614241
  0
VERTEX
  8
0
 10
1289.52237208
 20
-1477.80339628
  0
VERTEX
  8
0
 10
1289.69720058
 20
-1477.88761557
  0
VERTEX
  8
0
 10
1289.86210084
 20
-1477.98779495
  0
VERTEX
  8
0
 10
1290.01606754
 20
-1478.10292914
  0
VERTEX
  8
0
 10
1290.15809538
 20
-1478.23201280
  0
VERTEX
  8
0
 10
1290.28717905
 20
-1478.37404064
  0
VERTEX
  8
0
 10
1290.40231323
 20
-1478.52800735
  0
VERTEX
  8
0
 10
1290.50249262
 20
-1478.69290760
  0
VERTEX
  8
0
 10
1290.58671190
 20
-1478.86773611
  0
VERTEX
  8
0
 10
1290.65396578
 20
-1479.05148754
  0
VERTEX
  8
0
 10
1290.70324893
 20
-1479.24315661
  0
VERTEX
  8
0
 10
1290.73355604
 20
-1479.44173798
  0
VERTEX
  8
0
 10
1290.74388182
 20
-1479.64622637
  0
SEQEND
  0
POLYLINE
  8
0
 66
   1
 39
0.000000
 70
    0
  0
VERTEX
  8
0
 10
880.31393854
 20
-1012.61411855
 42
-0.00095232
  0
VERTEX
  8
0
 10
880.55729233
 20
-1012.62770314
  0
SEQEND
  0
POLYLINE
  8
0
 66
   1
 39
0.000000
 70
    1
  0
VERTEX
  8
0
 10
1209.69324438
 20
-1035.08359168
  0
VERTEX
  8
0
 10
1209.68291861
 20
-1035.28808006
  0
VERTEX
  8
0
 10
1209.65261149
 20
-1035.48666143
  0
VERTEX
  8
0
 10
1209.60332834
 20
-1035.67833050
  0
VERTEX
  8
0
 10
1209.53607447
 20
-1035.86208193
  0
VERTEX
  8
0
 10
1209.45185518
 20
-1036.03691044
  0
VERTEX
  8
0
 10
1209.35167579
 20
-1036.20181069
  0
VERTEX
  8
0
 10
1209.23654161
 20
-1036.35577740
  0
VERTEX
  8
0
 10
1209.10745794
 20
-1036.49780524
  0
VERTEX
  8
0
 10
1208.96543010
 20
-1036.62688890
  0
VERTEX
  8
0
 10
1208.81146340
 20
-1036.74202309
  0
VERTEX
  8
0
 10
1208.64656314
 20
-1036.84220248
  0
VERTEX
  8
0
 10
1208.47173464
 20
-1036.92642176
  0
VERTEX
  8
0
 10
1208.28798320
 20
-1036.99367563
  0
VERTEX
  8
0
 10
1208.09631414
 20
-1037.04295878
  0
VERTEX
  8
0
 10
1207.89773276
 20
-1037.07326590
  0
VERTEX
  8
0
 10
1207.69324438
 20
-1037.08359168
  0
VERTEX
  8
0
 10
1207.48875600
 20
-1037.07326590
  0
VERTEX
  8
0
 10
1207.29017462
 20
-1037.04295878
  0
VERTEX
  8
0
 10
1207.09850556
 20
-1036.99367563
  0
VERTEX
  8
0
 10
1206.91475412
 20
-1036.92642176
  0
VERTEX
  8
0
 10
1206.73992562
 20
-1036.84220248
  0
VERTEX
  8
0
 10
1206.57502536
 20
-1036.74202309
  0
VERTEX
  8
0
 10
1206.42105866
 20
-1036.62688890
  0
VERTEX
  8
0
 10
1206.27903082
 20
-1036.49780524
  0
VERTEX
  8
0
 10
1206.14994715
 20
-1036.35577740
  0
VERTEX
  8
0
 10
1206.03481297
 20
-1036.20181069
  0
VERTEX
  8
0
 10
1205.93463358
 20
-1036.03691044
  0
VERTEX
  8
0
 10
1205.85041429
 20
-1035.86208193
  0
VERTEX
  8
0
 10
1205.78316042
 20
-1035.67833050
  0
VERTEX
  8
0
 10
1205.73387727
 20
-1035.48666143
  0
VERTEX
  8
0
 10
1205.70357016
 20
-1035.28808006
  0
VERTEX
  8
0
 10
1205.69324438
 20
-1035.08359168
  0
VERTEX
  8
0
 10
1205.70357016
 20
-1034.87910329
  0
VERTEX
  8
0
 10
1205.73387727
 20
-1034.68052192
  0
VERTEX
  8
0
 10
1205.78316042
 20
-1034.48885285
  0
VERTEX
  8
0
 10
1205.85041429
 20
-1034.30510142
  0
VERTEX
  8
0
 10
1205.93463358
 20
-1034.13027292
  0
VERTEX
  8
0
 10
1206.03481297
 20
-1033.96537266
  0
VERTEX
  8
0
 10
1206.14994715
 20
-1033.81140595
  0
VERTEX
  8
0
 10
1206.27903082
 20
-1033.66937811
  0
VERTEX
  8
0
 10
1206.42105866
 20
-1033.54029445
  0
VERTEX
  8
0
 10
1206.57502536
 20
-1033.42516026
  0
VERTEX
  8
0
 10
1206.73992562
 20
-1033.32498088
  0
VERTEX
  8
0
 10
1206.91475412
 20
-1033.24076159
  0
VERTEX
  8
0
 10
1207.09850556
 20
-1033.17350772
  0
VERTEX
  8
0
 10
1207.29017462
 20
-1033.12422457
  0
VERTEX
  8
0
 10
1207.48875600
 20
-1033.09391745
  0
VERTEX
  8
0
 10
1207.69324438
 20
-1033.08359168
  0
VERTEX
  8
0
 10
1207.89773276
 20
-1033.09391745
  0
VERTEX
  8
0
 10
1208.09631414
 20
-1033.12422457
  0
VERTEX
  8
0
 10
1208.28798320
 20
-1033.17350772
  0
VERTEX
  8
0
 10
1208.47173464
 20
-1033.24076159
  0
VERTEX
  8
0
 10
1208.64656314
 20
-1033.32498088
  0
VERTEX
  8
0
 10
1208.81146340
 20
-1033.42516026
  0
VERTEX
  8
0
 10
1208.96543010
 20
-1033.54029445
  0
VERTEX
  8
0
 10
1209.10745794
 20
-1033.66937811
  0
VERTEX
  8
0
 10
1209.23654161
 20
-1033.81140595
  0
VERTEX
  8
0
 10
1209.35167579
 20
-1033.96537266
  0
VERTEX
  8
0
 10
1209.45185518
 20
-1034.13027292
  0
VERTEX
  8
0
 10
1209.53607447
 20
-1034.30510142
  0
VERTEX
  8
0
 10
1209.60332834
 20
-1034.48885285
  0
VERTEX
  8
0
 10
1209.65261149
 20
-1034.68052192
  0
VERTEX
  8
0
 10
1209.68291861
 20
-1034.87910329
  0
VERTEX
  8
0
 10
1209.69324438
 20
-1035.08359168
  0
SEQEND
  0
POLYLINE
  8
0
 66
   1
 39
0.000000
 70
    1
  0
VERTEX
  8
0
 10
-278.38734046
 20
217.64459295
  0
VERTEX
  8
0
 10
-276.55795474
 20
217.68384299
  0
VERTEX
  8
0
 10
-278.38734046
 20
217.64459295
  0
SEQEND
  0
POLYLINE
  8
0
 66
   1
 39
0.000000
 70
    0
  0
VERTEX
  8
0
 10
-278.38734046
 20
217.64459295
  0
VERTEX
  8
0
 10
-326.04141756
 20
216.62215977
  0
VERTEX
  8
0
 10
-353.09518405
 20
215.53999988
  0
VERTEX
  8
0
 10
-363.20018639
 20
215.01775275
  0
VERTEX
  8
0
 10
-373.29995138
 20
214.44087340
  0
VERTEX
  8
0
 10
-383.39150596
 20
213.80974059
  0
VERTEX
  8
0
 10
-393.47187706
 20
213.12473305
  0
VERTEX
  8
0
 10
-403.53809160
 20
212.38622954
  0
VERTEX
  8
0
 10
-413.58717651
 20
211.59460880
  0
VERTEX
  8
0
 10
-423.61615871
 20
210.75024957
  0
VERTEX
  8
0
 10
-433.62206514
 20
209.85353060
  0
VERTEX
  8
0
 10
-443.60192271
 20
208.90483063
  0
VERTEX
  8
0
 10
-453.55275836
 20
207.90452841
  0
VERTEX
  8
0
 10
-463.47159902
 20
206.85300268
  0
VERTEX
  8
0
 10
-473.35547160
 20
205.75063218
  0
VERTEX
  8
0
 10
-483.20140305
 20
204.59779567
  0
VERTEX
  8
0
 10
-493.00642027
 20
203.39487188
  0
VERTEX
  8
0
 10
-502.76755021
 20
202.14223956
  0
VERTEX
  8
0
 10
-512.48181979
 20
200.84027746
  0
VERTEX
  8
0
 10
-597.52939210
 20
194.57834984
  0
VERTEX
  8
0
 10
-598.84609640
 20
194.43114068
  0
VERTEX
  8
0
 10
-600.15960014
 20
194.26522842
  0
VERTEX
  8
0
 10
-601.46971627
 20
194.08067761
  0
VERTEX
  8
0
 10
-602.77625772
 20
193.87755277
  0
VERTEX
  8
0
 10
-604.07903744
 20
193.65591842
  0
VERTEX
  8
0
 10
-605.37786837
 20
193.41583911
  0
VERTEX
  8
0
 10
-606.67256345
 20
193.15737935
  0
VERTEX
  8
0
 10
-607.96293561
 20
192.88060368
  0
VERTEX
  8
0
 10
-609.24879781
 20
192.58557663
  0
VERTEX
  8
0
 10
-610.52996297
 20
192.27236273
  0
VERTEX
  8
0
 10
-611.80624405
 20
191.94102650
  0
VERTEX
  8
0
 10
-613.07745399
 20
191.59163247
  0
VERTEX
  8
0
 10
-614.34340571
 20
191.22424518
  0
VERTEX
  8
0
 10
-615.60391217
 20
190.83892916
  0
VERTEX
  8
0
 10
-616.85878631
 20
190.43574892
  0
VERTEX
  8
0
 10
-618.10784106
 20
190.01476901
  0
VERTEX
  8
0
 10
-619.35088938
 20
189.57605395
  0
VERTEX
  8
0
 10
-620.58774419
 20
189.11966827
  0
VERTEX
  8
0
 10
-621.81821844
 20
188.64567651
  0
VERTEX
  8
0
 10
-623.04212507
 20
188.15414318
  0
VERTEX
  8
0
 10
-624.25927702
 20
187.64513282
  0
VERTEX
  8
0
 10
-625.46948724
 20
187.11870996
  0
VERTEX
  8
0
 10
-626.67256865
 20
186.57493912
  0
VERTEX
  8
0
 10
-627.86833422
 20
186.01388485
  0
VERTEX
  8
0
 10
-629.05659687
 20
185.43561166
  0
VERTEX
  8
0
 10
-630.23716954
 20
184.84018408
  0
VERTEX
  8
0
 10
-631.40986518
 20
184.22766665
  0
VERTEX
  8
0
 10
-632.57449673
 20
183.59812390
  0
VERTEX
  8
0
 10
-633.73087713
 20
182.95162034
  0
VERTEX
  8
0
 10
-634.87881932
 20
182.28822052
  0
VERTEX
  8
0
 10
-636.01813624
 20
181.60798897
  0
VERTEX
  8
0
 10
-637.14864084
 20
180.91099020
  0
VERTEX
  8
0
 10
-696.65850161
 20
142.88550047
  0
VERTEX
  8
0
 10
-697.61214330
 20
142.16749828
  0
VERTEX
  8
0
 10
-698.58037190
 20
141.47419411
  0
VERTEX
  8
0
 10
-699.56271227
 20
140.80572219
  0
VERTEX
  8
0
 10
-700.55868922
 20
140.16221677
  0
VERTEX
  8
0
 10
-701.56782761
 20
139.54381206
  0
VERTEX
  8
0
 10
-702.58965225
 20
138.95064230
  0
VERTEX
  8
0
 10
-703.62368799
 20
138.38284172
  0
VERTEX
  8
0
 10
-704.66945965
 20
137.84054455
  0
VERTEX
  8
0
 10
-705.72649208
 20
137.32388502
  0
VERTEX
  8
0
 10
-706.79431011
 20
136.83299736
  0
VERTEX
  8
0
 10
-707.87243857
 20
136.36801580
  0
VERTEX
  8
0
 10
-708.96040230
 20
135.92907458
  0
VERTEX
  8
0
 10
-710.05772613
 20
135.51630792
  0
VERTEX
  8
0
 10
-711.16393489
 20
135.12985005
  0
VERTEX
  8
0
 10
-712.27855343
 20
134.76983522
  0
VERTEX
  8
0
 10
-713.40110657
 20
134.43639763
  0
VERTEX
  8
0
 10
-714.53111915
 20
134.12967153
  0
VERTEX
  8
0
 10
-715.66811600
 20
133.84979115
  0
VERTEX
  8
0
 10
-716.81162196
 20
133.59689072
  0
VERTEX
  8
0
 10
-717.96116186
 20
133.37110447
  0
VERTEX
  8
0
 10
-719.11626054
 20
133.17256662
  0
VERTEX
  8
0
 10
-720.27644283
 20
133.00141142
  0
VERTEX
  8
0
 10
-721.44123356
 20
132.85777309
  0
VERTEX
  8
0
 10
-722.61015758
 20
132.74178586
  0
VERTEX
  8
0
 10
-723.78273971
 20
132.65358396
  0
VERTEX
  8
0
 10
-724.95850479
 20
132.59330162
  0
VERTEX
  8
0
 10
-726.13697765
 20
132.56107308
  0
VERTEX
  8
0
 10
-727.31768313
 20
132.55703256
  0
VERTEX
  8
0
 10
-728.50014606
 20
132.58131430
  0
VERTEX
  8
0
 10
-729.68389128
 20
132.63405252
  0
VERTEX
  8
0
 10
-730.86844362
 20
132.71538146
  0
VERTEX
  8
0
 10
-732.05332791
 20
132.82543535
 42
0.00295083
  0
VERTEX
  8
0
 10
-1305.38000274
 20
128.61885127
 42
0.41128473
  0
VERTEX
  8
0
 10
-1335.07970785
 20
98.62035425
  0
VERTEX
  8
0
 10
-1335.07970785
 20
-226.47905262
  0
VERTEX
  8
0
 10
-1335.07970785
 20
-555.75244173
 42
0.36807220
  0
VERTEX
  8
0
 10
-1309.86113610
 20
-585.36895644
  0
VERTEX
  8
0
 10
-884.69380785
 20
-654.00995262
  0
VERTEX
  8
0
 10
-708.22710785
 20
-678.04995262
  0
VERTEX
  8
0
 10
-485.02010602
 20
-690.17354151
  0
VERTEX
  8
0
 10
-483.78820785
 20
-690.24045262
 42
-0.02135589
  0
VERTEX
  8
0
 10
-463.78780785
 20
-235.86885262
 42
-0.09270683
  0
VERTEX
  8
0
 10
-411.34510785
 20
-27.57025262
 42
-0.14888118
  0
VERTEX
  8
0
 10
-272.79660785
 20
150.51224738
  0
VERTEX
  8
0
 10
-276.55795474
 20
217.68384299
  0
SEQEND
  0
POLYLINE
  8
0
 66
   1
 39
0.000000
 70
    1
  0
VERTEX
  8
0
 10
344.19094767
 20
-1457.11456860
 42
0.41421356
  0
VERTEX
  8
0
 10
364.19094767
 20
-1477.11456860
  0
VERTEX
  8
0
 10
835.19094767
 20
-1477.11456860
 42
0.41421356
  0
VERTEX
  8
0
 10
945.19094767
 20
-1367.11456860
  0
VERTEX
  8
0
 10
945.19094767
 20
-1071.11456860
 42
0.41421356
  0
VERTEX
  8
0
 10
877.19094767
 20
-1003.11456860
  0
VERTEX
  8
0
 10
359.19094767
 20
-1003.11456860
 42
0.41421356
  0
VERTEX
  8
0
 10
344.19094767
 20
-1018.11456860
  0
VERTEX
  8
0
 10
344.19094767
 20
-1457.11456860
  0
SEQEND
  0
POLYLINE
  8
0
 66
   1
 39
0.000000
 70
    1
  0
VERTEX
  8
0
 10
375.52545969
 20
-1458.50783027
  0
VERTEX
  8
0
 10
375.53578546
 20
-1458.30334189
  0
VERTEX
  8
0
 10
375.56609258
 20
-1458.10476051
  0
VERTEX
  8
0
 10
375.61537573
 20
-1457.91309145
  0
VERTEX
  8
0
 10
375.68262960
 20
-1457.72934001
  0
VERTEX
  8
0
 10
375.76684889
 20
-1457.55451151
  0
VERTEX
  8
0
 10
375.86702828
 20
-1457.38961125
  0
VERTEX
  8
0
 10
375.98216246
 20
-1457.23564455
  0
VERTEX
  8
0
 10
376.11124613
 20
-1457.09361671
  0
VERTEX
  8
0
 10
376.25327397
 20
-1456.96453304
  0
VERTEX
  8
0
 10
376.40724067
 20
-1456.84939886
  0
VERTEX
  8
0
 10
376.57214093
 20
-1456.74921947
  0
VERTEX
  8
0
 10
376.74696943
 20
-1456.66500018
  0
VERTEX
  8
0
 10
376.93072087
 20
-1456.59774631
  0
VERTEX
  8
0
 10
377.12238993
 20
-1456.54846316
  0
VERTEX
  8
0
 10
377.32097131
 20
-1456.51815604
  0
VERTEX
  8
0
 10
377.52545969
 20
-1456.50783027
  0
VERTEX
  8
0
 10
377.72994807
 20
-1456.51815604
  0
VERTEX
  8
0
 10
377.92852945
 20
-1456.54846316
  0
VERTEX
  8
0
 10
378.12019851
 20
-1456.59774631
  0
VERTEX
  8
0
 10
378.30394995
 20
-1456.66500018
  0
VERTEX
  8
0
 10
378.47877845
 20
-1456.74921947
  0
VERTEX
  8
0
 10
378.64367871
 20
-1456.84939886
  0
VERTEX
  8
0
 10
378.79764541
 20
-1456.96453304
  0
VERTEX
  8
0
 10
378.93967325
 20
-1457.09361671
  0
VERTEX
  8
0
 10
379.06875692
 20
-1457.23564455
  0
VERTEX
  8
0
 10
379.18389110
 20
-1457.38961125
  0
VERTEX
  8
0
 10
379.28407049
 20
-1457.55451151
  0
VERTEX
  8
0
 10
379.36828977
 20
-1457.72934001
  0
VERTEX
  8
0
 10
379.43554365
 20
-1457.91309145
  0
VERTEX
  8
0
 10
379.48482680
 20
-1458.10476051
  0
VERTEX
  8
0
 10
379.51513391
 20
-1458.30334189
  0
VERTEX
  8
0
 10
379.52545969
 20
-1458.50783027
  0
VERTEX
  8
0
 10
379.51513391
 20
-1458.71231865
  0
VERTEX
  8
0
 10
379.48482680
 20
-1458.91090003
  0
VERTEX
  8
0
 10
379.43554365
 20
-1459.10256909
  0
VERTEX
  8
0
 10
379.36828977
 20
-1459.28632053
  0
VERTEX
  8
0
 10
379.28407049
 20
-1459.46114903
  0
VERTEX
  8
0
 10
379.18389110
 20
-1459.62604929
  0
VERTEX
  8
0
 10
379.06875692
 20
-1459.78001599
  0
VERTEX
  8
0
 10
378.93967325
 20
-1459.92204383
  0
VERTEX
  8
0
 10
378.79764541
 20
-1460.05112750
  0
VERTEX
  8
0
 10
378.64367871
 20
-1460.16626168
  0
VERTEX
  8
0
 10
378.47877845
 20
-1460.26644107
  0
VERTEX
  8
0
 10
378.30394995
 20
-1460.35066035
  0
VERTEX
  8
0
 10
378.12019851
 20
-1460.41791423
  0
VERTEX
  8
0
 10
377.92852945
 20
-1460.46719738
  0
VERTEX
  8
0
 10
377.72994807
 20
-1460.49750449
  0
VERTEX
  8
0
 10
377.52545969
 20
-1460.50783027
  0
VERTEX
  8
0
 10
377.32097131
 20
-1460.49750449
  0
VERTEX
  8
0
 10
377.12238993
 20
-1460.46719738
  0
VERTEX
  8
0
 10
376.93072087
 20
-1460.41791423
  0
VERTEX
  8
0
 10
376.74696943
 20
-1460.35066035
  0
VERTEX
  8
0
 10
376.57214093
 20
-1460.26644107
  0
VERTEX
  8
0
 10
376.40724067
 20
-1460.16626168
  0
VERTEX
  8
0
 10
376.25327397
 20
-1460.05112750
  0
VERTEX
  8
0
 10
376.11124613
 20
-1459.92204383
  0
VERTEX
  8
0
 10
375.98216246
 20
-1459.78001599
  0
VERTEX
  8
0
 10
375.86702828
 20
-1459.62604929
  0
VERTEX
  8
0
 10
375.76684889
 20
-1459.46114903
  0
VERTEX
  8
0
 10
375.68262960
 20
-1459.28632053
  0
VERTEX
  8
0
 10
375.61537573
 20
-1459.10256909
  0
VERTEX
  8
0
 10
375.56609258
 20
-1458.91090003
  0
VERTEX
  8
0
 10
375.53578546
 20
-1458.71231865
  0
VERTEX
  8
0
 10
375.52545969
 20
-1458.50783027
  0
SEQEND
  0
POLYLINE
  8
0
 66
   1
 39
0.000000
 70
    1
  0
VERTEX
  8
0
 10
726.43578501
 20
-1458.50783027
  0
VERTEX
  8
0
 10
726.44611078
 20
-1458.30334189
  0
VERTEX
  8
0
 10
726.47641790
 20
-1458.10476051
  0
VERTEX
  8
0
 10
726.52570105
 20
-1457.91309145
  0
VERTEX
  8
0
 10
726.59295492
 20
-1457.72934001
  0
VERTEX
  8
0
 10
726.67717421
 20
-1457.55451151
  0
VERTEX
  8
0
 10
726.77735360
 20
-1457.38961125
  0
VERTEX
  8
0
 10
726.89248778
 20
-1457.23564455
  0
VERTEX
  8
0
 10
727.02157144
 20
-1457.09361671
  0
VERTEX
  8
0
 10
727.16359928
 20
-1456.96453304
  0
VERTEX
  8
0
 10
727.31756599
 20
-1456.84939886
  0
VERTEX
  8
0
 10
727.48246625
 20
-1456.74921947
  0
VERTEX
  8
0
 10
727.65729475
 20
-1456.66500018
  0
VERTEX
  8
0
 10
727.84104619
 20
-1456.59774631
  0
VERTEX
  8
0
 10
728.03271525
 20
-1456.54846316
  0
VERTEX
  8
0
 10
728.23129663
 20
-1456.51815604
  0
VERTEX
  8
0
 10
728.43578501
 20
-1456.50783027
  0
VERTEX
  8
0
 10
728.64027339
 20
-1456.51815604
  0
VERTEX
  8
0
 10
728.83885477
 20
-1456.54846316
  0
VERTEX
  8
0
 10
729.03052383
 20
-1456.59774631
  0
VERTEX
  8
0
 10
729.21427526
 20
-1456.66500018
  0
VERTEX
  8
0
 10
729.38910377
 20
-1456.74921947
  0
VERTEX
  8
0
 10
729.55400403
 20
-1456.84939886
  0
VERTEX
  8
0
 10
729.70797073
 20
-1456.96453304
  0
VERTEX
  8
0
 10
729.84999857
 20
-1457.09361671
  0
VERTEX
  8
0
 10
729.97908224
 20
-1457.23564455
  0
VERTEX
  8
0
 10
730.09421642
 20
-1457.38961125
  0
VERTEX
  8
0
 10
730.19439581
 20
-1457.55451151
  0
VERTEX
  8
0
 10
730.27861509
 20
-1457.72934001
  0
VERTEX
  8
0
 10
730.34586897
 20
-1457.91309145
  0
VERTEX
  8
0
 10
730.39515212
 20
-1458.10476051
  0
VERTEX
  8
0
 10
730.42545923
 20
-1458.30334189
  0
VERTEX
  8
0
 10
730.43578501
 20
-1458.50783027
  0
VERTEX
  8
0
 10
730.42545923
 20
-1458.71231865
  0
VERTEX
  8
0
 10
730.39515212
 20
-1458.91090003
  0
VERTEX
  8
0
 10
730.34586897
 20
-1459.10256909
  0
VERTEX
  8
0
 10
730.27861509
 20
-1459.28632053
  0
VERTEX
  8
0
 10
730.19439581
 20
-1459.46114903
  0
VERTEX
  8
0
 10
730.09421642
 20
-1459.62604929
  0
VERTEX
  8
0
 10
729.97908224
 20
-1459.78001599
  0
VERTEX
  8
0
 10
729.84999857
 20
-1459.92204383
  0
VERTEX
  8
0
 10
729.70797073
 20
-1460.05112750
  0
VERTEX
  8
0
 10
729.55400403
 20
-1460.16626168
  0
VERTEX
  8
0
 10
729.38910377
 20
-1460.26644107
  0
VERTEX
  8
0
 10
729.21427526
 20
-1460.35066035
  0
VERTEX
  8
0
 10
729.03052383
 20
-1460.41791423
  0
VERTEX
  8
0
 10
728.83885477
 20
-1460.46719738
  0
VERTEX
  8
0
 10
728.64027339
 20
-1460.49750449
  0
VERTEX
  8
0
 10
728.43578501
 20
-1460.50783027
  0
VERTEX
  8
0
 10
728.23129663
 20
-1460.49750449
  0
VERTEX
  8
0
 10
728.03271525
 20
-1460.46719738
  0
VERTEX
  8
0
 10
727.84104619
 20
-1460.41791423
  0
VERTEX
  8
0
 10
727.65729475
 20
-1460.35066035
  0
VERTEX
  8
0
 10
727.48246625
 20
-1460.26644107
  0
VERTEX
  8
0
 10
727.31756599
 20
-1460.16626168
  0
VERTEX
  8
0
 10
727.16359928
 20
-1460.05112750
  0
VERTEX
  8
0
 10
727.02157144
 20
-1459.92204383
  0
VERTEX
  8
0
 10
726.89248778
 20
-1459.78001599
  0
VERTEX
  8
0
 10
726.77735360
 20
-1459.62604929
  0
VERTEX
  8
0
 10
726.67717421
 20
-1459.46114903
  0
VERTEX
  8
0
 10
726.59295492
 20
-1459.28632053
  0
VERTEX
  8
0
 10
726.52570105
 20
-1459.10256909
  0
VERTEX
  8
0
 10
726.47641790
 20
-1458.91090003
  0
VERTEX
  8
0
 10
726.44611078
 20
-1458.71231865
  0
VERTEX
  8
0
 10
726.43578501
 20
-1458.50783027
  0
SEQEND
  0
POLYLINE
  8
0
 66
   1
 39
0.000000
 70
    1
  0
VERTEX
  8
0
 10
373.52545969
 20
-1222.64483027
  0
VERTEX
  8
0
 10
373.53578546
 20
-1222.44034189
  0
VERTEX
  8
0
 10
373.56609258
 20
-1222.24176051
  0
VERTEX
  8
0
 10
373.61537573
 20
-1222.05009145
  0
VERTEX
  8
0
 10
373.68262960
 20
-1221.86634001
  0
VERTEX
  8
0
 10
373.76684889
 20
-1221.69151151
  0
VERTEX
  8
0
 10
373.86702828
 20
-1221.52661125
  0
VERTEX
  8
0
 10
373.98216246
 20
-1221.37264455
  0
VERTEX
  8
0
 10
374.11124613
 20
-1221.23061671
  0
VERTEX
  8
0
 10
374.25327397
 20
-1221.10153304
  0
VERTEX
  8
0
 10
374.40724067
 20
-1220.98639886
  0
VERTEX
  8
0
 10
374.57214093
 20
-1220.88621947
  0
VERTEX
  8
0
 10
374.74696943
 20
-1220.80200018
  0
VERTEX
  8
0
 10
374.93072087
 20
-1220.73474631
  0
VERTEX
  8
0
 10
375.12238993
 20
-1220.68546316
  0
VERTEX
  8
0
 10
375.32097131
 20
-1220.65515604
  0
VERTEX
  8
0
 10
375.52545969
 20
-1220.64483027
  0
VERTEX
  8
0
 10
375.72994807
 20
-1220.65515604
  0
VERTEX
  8
0
 10
375.92852945
 20
-1220.68546316
  0
VERTEX
  8
0
 10
376.12019851
 20
-1220.73474631
  0
VERTEX
  8
0
 10
376.30394995
 20
-1220.80200018
  0
VERTEX
  8
0
 10
376.47877845
 20
-1220.88621947
  0
VERTEX
  8
0
 10
376.64367871
 20
-1220.98639886
  0
VERTEX
  8
0
 10
376.79764541
 20
-1221.10153304
  0
VERTEX
  8
0
 10
376.93967325
 20
-1221.23061671
  0
VERTEX
  8
0
 10
377.06875692
 20
-1221.37264455
  0
VERTEX
  8
0
 10
377.18389110
 20
-1221.52661125
  0
VERTEX
  8
0
 10
377.28407049
 20
-1221.69151151
  0
VERTEX
  8
0
 10
377.36828977
 20
-1221.86634001
  0
VERTEX
  8
0
 10
377.43554365
 20
-1222.05009145
  0
VERTEX
  8
0
 10
377.48482680
 20
-1222.24176051
  0
VERTEX
  8
0
 10
377.51513391
 20
-1222.44034189
  0
VERTEX
  8
0
 10
377.52545969
 20
-1222.64483027
  0
VERTEX
  8
0
 10
377.51513391
 20
-1222.84931865
  0
VERTEX
  8
0
 10
377.48482680
 20
-1223.04790003
  0
VERTEX
  8
0
 10
377.43554365
 20
-1223.23956909
  0
VERTEX
  8
0
 10
377.36828977
 20
-1223.42332053
  0
VERTEX
  8
0
 10
377.28407049
 20
-1223.59814903
  0
VERTEX
  8
0
 10
377.18389110
 20
-1223.76304929
  0
VERTEX
  8
0
 10
377.06875692
 20
-1223.91701599
  0
VERTEX
  8
0
 10
376.93967325
 20
-1224.05904383
  0
VERTEX
  8
0
 10
376.79764541
 20
-1224.18812750
  0
VERTEX
  8
0
 10
376.64367871
 20
-1224.30326168
  0
VERTEX
  8
0
 10
376.47877845
 20
-1224.40344107
  0
VERTEX
  8
0
 10
376.30394995
 20
-1224.48766035
  0
VERTEX
  8
0
 10
376.12019851
 20
-1224.55491423
  0
VERTEX
  8
0
 10
375.92852945
 20
-1224.60419738
  0
VERTEX
  8
0
 10
375.72994807
 20
-1224.63450449
  0
VERTEX
  8
0
 10
375.52545969
 20
-1224.64483027
  0
VERTEX
  8
0
 10
375.32097131
 20
-1224.63450449
  0
VERTEX
  8
0
 10
375.12238993
 20
-1224.60419738
  0
VERTEX
  8
0
 10
374.93072087
 20
-1224.55491423
  0
VERTEX
  8
0
 10
374.74696943
 20
-1224.48766035
  0
VERTEX
  8
0
 10
374.57214093
 20
-1224.40344107
  0
VERTEX
  8
0
 10
374.40724067
 20
-1224.30326168
  0
VERTEX
  8
0
 10
374.25327397
 20
-1224.18812750
  0
VERTEX
  8
0
 10
374.11124613
 20
-1224.05904383
  0
VERTEX
  8
0
 10
373.98216246
 20
-1223.91701599
  0
VERTEX
  8
0
 10
373.86702828
 20
-1223.76304929
  0
VERTEX
  8
0
 10
373.76684889
 20
-1223.59814903
  0
VERTEX
  8
0
 10
373.68262960
 20
-1223.42332053
  0
VERTEX
  8
0
 10
373.61537573
 20
-1223.23956909
  0
VERTEX
  8
0
 10
373.56609258
 20
-1223.04790003
  0
VERTEX
  8
0
 10
373.53578546
 20
-1222.84931865
  0
VERTEX
  8
0
 10
373.52545969
 20
-1222.64483027
  0
SEQEND
  0
POLYLINE
  8
0
 66
   1
 39
0.000000
 70
    1
  0
VERTEX
  8
0
 10
928.11078501
 20
-1220.64483027
  0
VERTEX
  8
0
 10
928.12111078
 20
-1220.44034189
  0
VERTEX
  8
0
 10
928.15141790
 20
-1220.24176051
  0
VERTEX
  8
0
 10
928.20070105
 20
-1220.05009145
  0
VERTEX
  8
0
 10
928.26795492
 20
-1219.86634001
  0
VERTEX
  8
0
 10
928.35217421
 20
-1219.69151151
  0
VERTEX
  8
0
 10
928.45235360
 20
-1219.52661125
  0
VERTEX
  8
0
 10
928.56748778
 20
-1219.37264455
  0
VERTEX
  8
0
 10
928.69657144
 20
-1219.23061671
  0
VERTEX
  8
0
 10
928.83859928
 20
-1219.10153304
  0
VERTEX
  8
0
 10
928.99256599
 20
-1218.98639886
  0
VERTEX
  8
0
 10
929.15746625
 20
-1218.88621947
  0
VERTEX
  8
0
 10
929.33229475
 20
-1218.80200018
  0
VERTEX
  8
0
 10
929.51604619
 20
-1218.73474631
  0
VERTEX
  8
0
 10
929.70771525
 20
-1218.68546316
  0
VERTEX
  8
0
 10
929.90629663
 20
-1218.65515604
  0
VERTEX
  8
0
 10
930.11078501
 20
-1218.64483027
  0
VERTEX
  8
0
 10
930.31527339
 20
-1218.65515604
  0
VERTEX
  8
0
 10
930.51385477
 20
-1218.68546316
  0
VERTEX
  8
0
 10
930.70552383
 20
-1218.73474631
  0
VERTEX
  8
0
 10
930.88927526
 20
-1218.80200018
  0
VERTEX
  8
0
 10
931.06410377
 20
-1218.88621947
  0
VERTEX
  8
0
 10
931.22900403
 20
-1218.98639886
  0
VERTEX
  8
0
 10
931.38297073
 20
-1219.10153304
  0
VERTEX
  8
0
 10
931.52499857
 20
-1219.23061671
  0
VERTEX
  8
0
 10
931.65408224
 20
-1219.37264455
  0
VERTEX
  8
0
 10
931.76921642
 20
-1219.52661125
  0
VERTEX
  8
0
 10
931.86939581
 20
-1219.69151151
  0
VERTEX
  8
0
 10
931.95361509
 20
-1219.86634001
  0
VERTEX
  8
0
 10
932.02086897
 20
-1220.05009145
  0
VERTEX
  8
0
 10
932.07015212
 20
-1220.24176051
  0
VERTEX
  8
0
 10
932.10045923
 20
-1220.44034189
  0
VERTEX
  8
0
 10
932.11078501
 20
-1220.64483027
  0
VERTEX
  8
0
 10
932.10045923
 20
-1220.84931865
  0
VERTEX
  8
0
 10
932.07015212
 20
-1221.04790003
  0
VERTEX
  8
0
 10
932.02086897
 20
-1221.23956909
  0
VERTEX
  8
0
 10
931.95361509
 20
-1221.42332053
  0
VERTEX
  8
0
 10
931.86939581
 20
-1221.59814903
  0
VERTEX
  8
0
 10
931.76921642
 20
-1221.76304929
  0
VERTEX
  8
0
 10
931.65408224
 20
-1221.91701599
  0
VERTEX
  8
0
 10
931.52499857
 20
-1222.05904383
  0
VERTEX
  8
0
 10
931.38297073
 20
-1222.18812750
  0
VERTEX
  8
0
 10
931.22900403
 20
-1222.30326168
  0
VERTEX
  8
0
 10
931.06410377
 20
-1222.40344107
  0
VERTEX
  8
0
 10
930.88927526
 20
-1222.48766035
  0
VERTEX
  8
0
 10
930.70552383
 20
-1222.55491423
  0
VERTEX
  8
0
 10
930.51385477
 20
-1222.60419738
  0
VERTEX
  8
0
 10
930.31527339
 20
-1222.63450449
  0
VERTEX
  8
0
 10
930.11078501
 20
-1222.64483027
  0
VERTEX
  8
0
 10
929.90629663
 20
-1222.63450449
  0
VERTEX
  8
0
 10
929.70771525
 20
-1222.60419738
  0
VERTEX
  8
0
 10
929.51604619
 20
-1222.55491423
  0
VERTEX
  8
0
 10
929.33229475
 20
-1222.48766035
  0
VERTEX
  8
0
 10
929.15746625
 20
-1222.40344107
  0
VERTEX
  8
0
 10
928.99256599
 20
-1222.30326168
  0
VERTEX
  8
0
 10
928.83859928
 20
-1222.18812750
  0
VERTEX
  8
0
 10
928.69657144
 20
-1222.05904383
  0
VERTEX
  8
0
 10
928.56748778
 20
-1221.91701599
  0
VERTEX
  8
0
 10
928.45235360
 20
-1221.76304929
  0
VERTEX
  8
0
 10
928.35217421
 20
-1221.59814903
  0
VERTEX
  8
0
 10
928.26795492
 20
-1221.42332053
  0
VERTEX
  8
0
 10
928.20070105
 20
-1221.23956909
  0
VERTEX
  8
0
 10
928.15141790
 20
-1221.04790003
  0
VERTEX
  8
0
 10
928.12111078
 20
-1220.84931865
  0
VERTEX
  8
0
 10
928.11078501
 20
-1220.64483027
  0
SEQEND
  0
POLYLINE
  8
0
 66
   1
 39
0.000000
 70
    1
  0
VERTEX
  8
0
 10
804.03465347
 20
-1019.22347949
  0
VERTEX
  8
0
 10
804.04497924
 20
-1019.01899111
  0
VERTEX
  8
0
 10
804.07528636
 20
-1018.82040973
  0
VERTEX
  8
0
 10
804.12456951
 20
-1018.62874067
  0
VERTEX
  8
0
 10
804.19182338
 20
-1018.44498923
  0
VERTEX
  8
0
 10
804.27604267
 20
-1018.27016073
  0
VERTEX
  8
0
 10
804.37622205
 20
-1018.10526047
  0
VERTEX
  8
0
 10
804.49135624
 20
-1017.95129377
  0
VERTEX
  8
0
 10
804.62043990
 20
-1017.80926593
  0
VERTEX
  8
0
 10
804.76246774
 20
-1017.68018226
  0
VERTEX
  8
0
 10
804.91643445
 20
-1017.56504808
  0
VERTEX
  8
0
 10
805.08133471
 20
-1017.46486869
  0
VERTEX
  8
0
 10
805.25616321
 20
-1017.38064940
  0
VERTEX
  8
0
 10
805.43991464
 20
-1017.31339553
  0
VERTEX
  8
0
 10
805.63158371
 20
-1017.26411238
  0
VERTEX
  8
0
 10
805.83016508
 20
-1017.23380527
  0
VERTEX
  8
0
 10
806.03465347
 20
-1017.22347949
  0
VERTEX
  8
0
 10
806.23914185
 20
-1017.23380527
  0
VERTEX
  8
0
 10
806.43772322
 20
-1017.26411238
  0
VERTEX
  8
0
 10
806.62939229
 20
-1017.31339553
  0
VERTEX
  8
0
 10
806.81314372
 20
-1017.38064940
  0
VERTEX
  8
0
 10
806.98797223
 20
-1017.46486869
  0
VERTEX
  8
0
 10
807.15287248
 20
-1017.56504808
  0
VERTEX
  8
0
 10
807.30683919
 20
-1017.68018226
  0
VERTEX
  8
0
 10
807.44886703
 20
-1017.80926593
  0
VERTEX
  8
0
 10
807.57795069
 20
-1017.95129377
  0
VERTEX
  8
0
 10
807.69308488
 20
-1018.10526047
  0
VERTEX
  8
0
 10
807.79326427
 20
-1018.27016073
  0
VERTEX
  8
0
 10
807.87748355
 20
-1018.44498923
  0
VERTEX
  8
0
 10
807.94473742
 20
-1018.62874067
  0
VERTEX
  8
0
 10
807.99402057
 20
-1018.82040973
  0
VERTEX
  8
0
 10
808.02432769
 20
-1019.01899111
  0
VERTEX
  8
0
 10
808.03465347
 20
-1019.22347949
  0
VERTEX
  8
0
 10
808.02432769
 20
-1019.42796787
  0
VERTEX
  8
0
 10
807.99402057
 20
-1019.62654925
  0
VERTEX
  8
0
 10
807.94473742
 20
-1019.81821831
  0
VERTEX
  8
0
 10
807.87748355
 20
-1020.00196975
  0
VERTEX
  8
0
 10
807.79326427
 20
-1020.17679825
  0
VERTEX
  8
0
 10
807.69308488
 20
-1020.34169851
  0
VERTEX
  8
0
 10
807.57795069
 20
-1020.49566521
  0
VERTEX
  8
0
 10
807.44886703
 20
-1020.63769305
  0
VERTEX
  8
0
 10
807.30683919
 20
-1020.76677672
  0
VERTEX
  8
0
 10
807.15287248
 20
-1020.88191090
  0
VERTEX
  8
0
 10
806.98797223
 20
-1020.98209029
  0
VERTEX
  8
0
 10
806.81314372
 20
-1021.06630958
  0
VERTEX
  8
0
 10
806.62939229
 20
-1021.13356345
  0
VERTEX
  8
0
 10
806.43772322
 20
-1021.18284660
  0
VERTEX
  8
0
 10
806.23914185
 20
-1021.21315372
  0
VERTEX
  8
0
 10
806.03465347
 20
-1021.22347949
  0
VERTEX
  8
0
 10
805.83016508
 20
-1021.21315372
  0
VERTEX
  8
0
 10
805.63158371
 20
-1021.18284660
  0
VERTEX
  8
0
 10
805.43991464
 20
-1021.13356345
  0
VERTEX
  8
0
 10
805.25616321
 20
-1021.06630958
  0
VERTEX
  8
0
 10
805.08133471
 20
-1020.98209029
  0
VERTEX
  8
0
 10
804.91643445
 20
-1020.88191090
  0
VERTEX
  8
0
 10
804.76246774
 20
-1020.76677672
  0
VERTEX
  8
0
 10
804.62043990
 20
-1020.63769305
  0
VERTEX
  8
0
 10
804.49135624
 20
-1020.49566521
  0
VERTEX
  8
0
 10
804.37622205
 20
-1020.34169851
  0
VERTEX
  8
0
 10
804.27604267
 20
-1020.17679825
  0
VERTEX
  8
0
 10
804.19182338
 20
-1020.00196975
  0
VERTEX
  8
0
 10
804.12456951
 20
-1019.81821831
  0
VERTEX
  8
0
 10
804.07528636
 20
-1019.62654925
  0
VERTEX
  8
0
 10
804.04497924
 20
-1019.42796787
  0
VERTEX
  8
0
 10
804.03465347
 20
-1019.22347949
  0
SEQEND
  0
POLYLINE
  8
0
 66
   1
 39
0.000000
 70
    1
  0
VERTEX
  8
0
 10
642.69094767
 20
-1019.22347949
  0
VERTEX
  8
0
 10
642.70127344
 20
-1019.01899111
  0
VERTEX
  8
0
 10
642.73158056
 20
-1018.82040973
  0
VERTEX
  8
0
 10
642.78086371
 20
-1018.62874067
  0
VERTEX
  8
0
 10
642.84811758
 20
-1018.44498923
  0
VERTEX
  8
0
 10
642.93233687
 20
-1018.27016073
  0
VERTEX
  8
0
 10
643.03251626
 20
-1018.10526047
  0
VERTEX
  8
0
 10
643.14765044
 20
-1017.95129377
  0
VERTEX
  8
0
 10
643.27673410
 20
-1017.80926593
  0
VERTEX
  8
0
 10
643.41876194
 20
-1017.68018226
  0
VERTEX
  8
0
 10
643.57272865
 20
-1017.56504808
  0
VERTEX
  8
0
 10
643.73762891
 20
-1017.46486869
  0
VERTEX
  8
0
 10
643.91245741
 20
-1017.38064940
  0
VERTEX
  8
0
 10
644.09620885
 20
-1017.31339553
  0
VERTEX
  8
0
 10
644.28787791
 20
-1017.26411238
  0
VERTEX
  8
0
 10
644.48645928
 20
-1017.23380527
  0
VERTEX
  8
0
 10
644.69094767
 20
-1017.22347949
  0
VERTEX
  8
0
 10
644.89543605
 20
-1017.23380527
  0
VERTEX
  8
0
 10
645.09401742
 20
-1017.26411238
  0
VERTEX
  8
0
 10
645.28568649
 20
-1017.31339553
  0
VERTEX
  8
0
 10
645.46943792
 20
-1017.38064940
  0
VERTEX
  8
0
 10
645.64426643
 20
-1017.46486869
  0
VERTEX
  8
0
 10
645.80916668
 20
-1017.56504808
  0
VERTEX
  8
0
 10
645.96313339
 20
-1017.68018226
  0
VERTEX
  8
0
 10
646.10516123
 20
-1017.80926593
  0
VERTEX
  8
0
 10
646.23424489
 20
-1017.95129377
  0
VERTEX
  8
0
 10
646.34937908
 20
-1018.10526047
  0
VERTEX
  8
0
 10
646.44955847
 20
-1018.27016073
  0
VERTEX
  8
0
 10
646.53377775
 20
-1018.44498923
  0
VERTEX
  8
0
 10
646.60103162
 20
-1018.62874067
  0
VERTEX
  8
0
 10
646.65031477
 20
-1018.82040973
  0
VERTEX
  8
0
 10
646.68062189
 20
-1019.01899111
  0
VERTEX
  8
0
 10
646.69094767
 20
-1019.22347949
  0
VERTEX
  8
0
 10
646.68062189
 20
-1019.42796787
  0
VERTEX
  8
0
 10
646.65031477
 20
-1019.62654925
  0
VERTEX
  8
0
 10
646.60103162
 20
-1019.81821831
  0
VERTEX
  8
0
 10
646.53377775
 20
-1020.00196975
  0
VERTEX
  8
0
 10
646.44955847
 20
-1020.17679825
  0
VERTEX
  8
0
 10
646.34937908
 20
-1020.34169851
  0
VERTEX
  8
0
 10
646.23424489
 20
-1020.49566521
  0
VERTEX
  8
0
 10
646.10516123
 20
-1020.63769305
  0
VERTEX
  8
0
 10
645.96313339
 20
-1020.76677672
  0
VERTEX
  8
0
 10
645.80916668
 20
-1020.88191090
  0
VERTEX
  8
0
 10
645.64426643
 20
-1020.98209029
  0
VERTEX
  8
0
 10
645.46943792
 20
-1021.06630958
  0
VERTEX
  8
0
 10
645.28568649
 20
-1021.13356345
  0
VERTEX
  8
0
 10
645.09401742
 20
-1021.18284660
  0
VERTEX
  8
0
 10
644.89543605
 20
-1021.21315372
  0
VERTEX
  8
0
 10
644.69094767
 20
-1021.22347949
  0
VERTEX
  8
0
 10
644.48645928
 20
-1021.21315372
  0
VERTEX
  8
0
 10
644.28787791
 20
-1021.18284660
  0
VERTEX
  8
0
 10
644.09620885
 20
-1021.13356345
  0
VERTEX
  8
0
 10
643.91245741
 20
-1021.06630958
  0
VERTEX
  8
0
 10
643.73762891
 20
-1020.98209029
  0
VERTEX
  8
0
 10
643.57272865
 20
-1020.88191090
  0
VERTEX
  8
0
 10
643.41876194
 20
-1020.76677672
  0
VERTEX
  8
0
 10
643.27673410
 20
-1020.63769305
  0
VERTEX
  8
0
 10
643.14765044
 20
-1020.49566521
  0
VERTEX
  8
0
 10
643.03251626
 20
-1020.34169851
  0
VERTEX
  8
0
 10
642.93233687
 20
-1020.17679825
  0
VERTEX
  8
0
 10
642.84811758
 20
-1020.00196975
  0
VERTEX
  8
0
 10
642.78086371
 20
-1019.81821831
  0
VERTEX
  8
0
 10
642.73158056
 20
-1019.62654925
  0
VERTEX
  8
0
 10
642.70127344
 20
-1019.42796787
  0
VERTEX
  8
0
 10
642.69094767
 20
-1019.22347949
  0
SEQEND
  0
POLYLINE
  8
0
 66
   1
 39
0.000000
 70
    1
  0
VERTEX
  8
0
 10
373.77157001
 20
-1018.10466761
  0
VERTEX
  8
0
 10
373.78189579
 20
-1017.90017923
  0
VERTEX
  8
0
 10
373.81220291
 20
-1017.70159785
  0
VERTEX
  8
0
 10
373.86148606
 20
-1017.50992879
  0
VERTEX
  8
0
 10
373.92873993
 20
-1017.32617735
  0
VERTEX
  8
0
 10
374.01295921
 20
-1017.15134885
  0
VERTEX
  8
0
 10
374.11313860
 20
-1016.98644859
  0
VERTEX
  8
0
 10
374.22827279
 20
-1016.83248189
  0
VERTEX
  8
0
 10
374.35735645
 20
-1016.69045405
  0
VERTEX
  8
0
 10
374.49938429
 20
-1016.56137038
  0
VERTEX
  8
0
 10
374.65335100
 20
-1016.44623620
  0
VERTEX
  8
0
 10
374.81825125
 20
-1016.34605681
  0
VERTEX
  8
0
 10
374.99307976
 20
-1016.26183752
  0
VERTEX
  8
0
 10
375.17683119
 20
-1016.19458365
  0
VERTEX
  8
0
 10
375.36850026
 20
-1016.14530050
  0
VERTEX
  8
0
 10
375.56708163
 20
-1016.11499338
  0
VERTEX
  8
0
 10
375.77157001
 20
-1016.10466761
  0
VERTEX
  8
0
 10
375.97605840
 20
-1016.11499338
  0
VERTEX
  8
0
 10
376.17463977
 20
-1016.14530050
  0
VERTEX
  8
0
 10
376.36630883
 20
-1016.19458365
  0
VERTEX
  8
0
 10
376.55006027
 20
-1016.26183752
  0
VERTEX
  8
0
 10
376.72488877
 20
-1016.34605681
  0
VERTEX
  8
0
 10
376.88978903
 20
-1016.44623620
  0
VERTEX
  8
0
 10
377.04375574
 20
-1016.56137038
  0
VERTEX
  8
0
 10
377.18578358
 20
-1016.69045405
  0
VERTEX
  8
0
 10
377.31486724
 20
-1016.83248189
  0
VERTEX
  8
0
 10
377.43000143
 20
-1016.98644859
  0
VERTEX
  8
0
 10
377.53018081
 20
-1017.15134885
  0
VERTEX
  8
0
 10
377.61440010
 20
-1017.32617735
  0
VERTEX
  8
0
 10
377.68165397
 20
-1017.50992879
  0
VERTEX
  8
0
 10
377.73093712
 20
-1017.70159785
  0
VERTEX
  8
0
 10
377.76124424
 20
-1017.90017923
  0
VERTEX
  8
0
 10
377.77157001
 20
-1018.10466761
  0
VERTEX
  8
0
 10
377.76124424
 20
-1018.30915599
  0
VERTEX
  8
0
 10
377.73093712
 20
-1018.50773737
  0
VERTEX
  8
0
 10
377.68165397
 20
-1018.69940643
  0
VERTEX
  8
0
 10
377.61440010
 20
-1018.88315787
  0
VERTEX
  8
0
 10
377.53018081
 20
-1019.05798637
  0
VERTEX
  8
0
 10
377.43000143
 20
-1019.22288663
  0
VERTEX
  8
0
 10
377.31486724
 20
-1019.37685333
  0
VERTEX
  8
0
 10
377.18578358
 20
-1019.51888117
  0
VERTEX
  8
0
 10
377.04375574
 20
-1019.64796484
  0
VERTEX
  8
0
 10
376.88978903
 20
-1019.76309902
  0
VERTEX
  8
0
 10
376.72488877
 20
-1019.86327841
  0
VERTEX
  8
0
 10
376.55006027
 20
-1019.94749770
  0
VERTEX
  8
0
 10
376.36630883
 20
-1020.01475157
  0
VERTEX
  8
0
 10
376.17463977
 20
-1020.06403472
  0
VERTEX
  8
0
 10
375.97605840
 20
-1020.09434184
  0
VERTEX
  8
0
 10
375.77157001
 20
-1020.10466761
  0
VERTEX
  8
0
 10
375.56708163
 20
-1020.09434184
  0
VERTEX
  8
0
 10
375.36850026
 20
-1020.06403472
  0
VERTEX
  8
0
 10
375.17683119
 20
-1020.01475157
  0
VERTEX
  8
0
 10
374.99307976
 20
-1019.94749770
  0
VERTEX
  8
0
 10
374.81825125
 20
-1019.86327841
  0
VERTEX
  8
0
 10
374.65335100
 20
-1019.76309902
  0
VERTEX
  8
0
 10
374.49938429
 20
-1019.64796484
  0
VERTEX
  8
0
 10
374.35735645
 20
-1019.51888117
  0
VERTEX
  8
0
 10
374.22827279
 20
-1019.37685333
  0
VERTEX
  8
0
 10
374.11313860
 20
-1019.22288663
  0
VERTEX
  8
0
 10
374.01295921
 20
-1019.05798637
  0
VERTEX
  8
0
 10
373.92873993
 20
-1018.88315787
  0
VERTEX
  8
0
 10
373.86148606
 20
-1018.69940643
  0
VERTEX
  8
0
 10
373.81220291
 20
-1018.50773737
  0
VERTEX
  8
0
 10
373.78189579
 20
-1018.30915599
  0
VERTEX
  8
0
 10
373.77157001
 20
-1018.10466761
  0
SEQEND
  0
POLYLINE
  8
0
 66
   1
 39
0.000000
 70
    1
  0
VERTEX
  8
0
 10
1127.99266773
 20
-1470.79787739
 42
-0.12656853
  0
VERTEX
  8
0
 10
1108.37289785
 20
-1451.22294631
 42
-0.12690090
  0
VERTEX
  8
0
 10
1089.57539785
 20
-1385.08164631
  0
VERTEX
  8
0
 10
1089.57539785
 20
-1088.34324631
 42
-0.44405497
  0
VERTEX
  8
0
 10
1159.91789785
 20
-1017.76734631
  0
VERTEX
  8
0
 10
1442.77809785
 20
-1017.15694631
 42
-0.15353844
  0
VERTEX
  8
0
 10
1467.41049785
 20
-1023.49454631
 42
-0.19347395
  0
VERTEX
  8
0
 10
1476.97979785
 20
-1040.17354631
  0
VERTEX
  8
0
 10
1476.97979785
 20
-1466.21434631
 42
-0.40519359
  0
VERTEX
  8
0
 10
1457.89509785
 20
-1490.91854631
  0
VERTEX
  8
0
 10
1175.53759785
 20
-1488.74614631
 42
-0.08496566
  0
VERTEX
  8
0
 10
1127.99266773
 20
-1470.79787739
  0
SEQEND
  0
POLYLINE
  8
0
 66
   1
 39
0.000000
 70
    0
  0
VERTEX
  8
0
 10
-855.89816124
 20
2425.77425743
  0
VERTEX
  8
0
 10
-754.29816124
 20
2222.57425743
  0
VERTEX
  8
0
 10
-652.69816124
 20
2425.77425743
  0
SEQEND
  0
POLYLINE
  8
0
 66
   1
 39
0.000000
 70
    0
  0
VERTEX
  8
0
 10
-584.96482791
 20
2425.77425743
  0
VERTEX
  8
0
 10
-517.23149458
 20
2222.57425743
  0
VERTEX
  8
0
 10
-483.36482791
 20
2324.17425743
  0
VERTEX
  8
0
 10
-449.49816124
 20
2222.57425743
  0
VERTEX
  8
0
 10
-381.76482791
 20
2425.77425743
  0
SEQEND
  0
POLYLINE
  8
0
 66
   1
 39
0.000000
 70
    0
  0
VERTEX
  8
0
 10
24.63517209
 20
2256.44092409
  0
VERTEX
  8
0
 10
-9.23149458
 20
2222.57425743
  0
VERTEX
  8
0
 10
-76.96482791
 20
2222.57425743
  0
VERTEX
  8
0
 10
-110.83149458
 20
2256.44092409
  0
VERTEX
  8
0
 10
-110.83149458
 20
2391.90759076
  0
VERTEX
  8
0
 10
-76.96482791
 20
2425.77425743
  0
VERTEX
  8
0
 10
-9.23149458
 20
2425.77425743
  0
VERTEX
  8
0
 10
24.63517209
 20
2391.90759076
  0
SEQEND
  0
POLYLINE
  8
0
 66
   1
 39
0.000000
 70
    0
  0
VERTEX
  8
0
 10
92.36850542
 20
2222.57425743
  0
VERTEX
  8
0
 10
92.36850542
 20
2290.30759076
  0
VERTEX
  8
0
 10
160.10183876
 20
2425.77425743
  0
VERTEX
  8
0
 10
227.83517209
 20
2290.30759076
  0
VERTEX
  8
0
 10
227.83517209
 20
2222.57425743
  0
SEQEND
  0
POLYLINE
  8
0
 66
   1
 39
0.000000
 70
    0
  0
VERTEX
  8
0
 10
92.36850542
 20
2290.30759076
  0
VERTEX
  8
0
 10
227.83517209
 20
2290.30759076
  0
SEQEND
  0
POLYLINE
  8
0
 66
   1
 39
0.000000
 70
    0
  0
VERTEX
  8
0
 10
295.56850542
 20
2222.57425743
  0
VERTEX
  8
0
 10
397.16850542
 20
2222.57425743
  0
VERTEX
  8
0
 10
431.03517209
 20
2256.44092409
  0
VERTEX
  8
0
 10
431.03517209
 20
2391.90759076
  0
VERTEX
  8
0
 10
397.16850542
 20
2425.77425743
  0
VERTEX
  8
0
 10
295.56850542
 20
2425.77425743
  0
SEQEND
  0
POLYLINE
  8
0
 66
   1
 39
0.000000
 70
    0
  0
VERTEX
  8
0
 10
329.43517209
 20
2425.77425743
  0
VERTEX
  8
0
 10
329.43517209
 20
2222.57425743
  0
SEQEND
  0
POLYLINE
  8
0
 66
   1
 39
0.000000
 70
    0
  0
VERTEX
  8
0
 10
498.76850542
 20
2222.57425743
  0
VERTEX
  8
0
 10
600.36850542
 20
2222.57425743
  0
VERTEX
  8
0
 10
634.23517209
 20
2256.44092409
  0
VERTEX
  8
0
 10
634.23517209
 20
2391.90759076
  0
VERTEX
  8
0
 10
600.36850542
 20
2425.77425743
  0
VERTEX
  8
0
 10
498.76850542
 20
2425.77425743
  0
SEQEND
  0
POLYLINE
  8
0
 66
   1
 39
0.000000
 70
    0
  0
VERTEX
  8
0
 10
532.63517209
 20
2425.77425743
  0
VERTEX
  8
0
 10
532.63517209
 20
2222.57425743
  0
SEQEND
  0
POLYLINE
  8
0
 66
   1
 39
0.000000
 70
    0
  0
VERTEX
  8
0
 10
701.96850542
 20
2425.77425743
  0
VERTEX
  8
0
 10
769.70183876
 20
2324.17425743
  0
VERTEX
  8
0
 10
769.70183876
 20
2222.57425743
  0
SEQEND
  0
POLYLINE
  8
0
 66
   1
 39
0.000000
 70
    0
  0
VERTEX
  8
0
 10
769.70183876
 20
2324.17425743
  0
VERTEX
  8
0
 10
837.43517209
 20
2425.77425743
  0
SEQEND
  0
POLYLINE
  8
0
 66
   1
 39
0.000000
 70
    0
  0
VERTEX
  8
0
 10
-855.89816124
 20
2029.05044790
  0
VERTEX
  8
0
 10
-822.03149458
 20
2062.91711457
  0
VERTEX
  8
0
 10
-822.03149458
 20
1859.71711457
  0
SEQEND
  0
POLYLINE
  8
0
 66
   1
 39
0.000000
 70
    0
  0
VERTEX
  8
0
 10
-855.89816124
 20
1859.71711457
  0
VERTEX
  8
0
 10
-788.16482791
 20
1859.71711457
  0
SEQEND
  0
POLYLINE
  8
0
 66
   1
 39
0.000000
 70
    0
  0
VERTEX
  8
0
 10
-517.23149458
 20
1893.58378124
  0
VERTEX
  8
0
 10
-483.36482791
 20
1859.71711457
  0
VERTEX
  8
0
 10
-415.63149458
 20
1859.71711457
  0
VERTEX
  8
0
 10
-381.76482791
 20
1893.58378124
  0
VERTEX
  8
0
 10
-517.23149458
 20
2029.05044790
  0
VERTEX
  8
0
 10
-483.36482791
 20
2062.91711457
  0
VERTEX
  8
0
 10
-415.63149458
 20
2062.91711457
  0
VERTEX
  8
0
 10
-381.76482791
 20
2029.05044790
  0
SEQEND
  0
POLYLINE
  8
0
 66
   1
 39
0.000000
 70
    0
  0
VERTEX
  8
0
 10
-314.03149458
 20
2062.91711457
  0
VERTEX
  8
0
 10
-314.03149458
 20
1859.71711457
  0
VERTEX
  8
0
 10
-178.56482791
 20
1859.71711457
  0
SEQEND
  0
POLYLINE
  8
0
 66
   1
 39
0.000000
 70
    0
  0
VERTEX
  8
0
 10
-110.83149458
 20
1859.71711457
  0
VERTEX
  8
0
 10
-9.23149458
 20
1859.71711457
  0
VERTEX
  8
0
 10
24.63517209
 20
1893.58378124
  0
VERTEX
  8
0
 10
24.63517209
 20
2029.05044790
  0
VERTEX
  8
0
 10
-9.23149458
 20
2062.91711457
  0
VERTEX
  8
0
 10
-110.83149458
 20
2062.91711457
  0
SEQEND
  0
POLYLINE
  8
0
 66
   1
 39
0.000000
 70
    0
  0
VERTEX
  8
0
 10
-76.96482791
 20
2062.91711457
  0
VERTEX
  8
0
 10
-76.96482791
 20
1859.71711457
  0
SEQEND
  0
ENDSEC
  0
EOF
