  0
SECTION
  2
HEADER
  9
$ACADVER
  1
AC1009
  9
$EXTMIN
 10
-468.16713814
 20
-515.86159003
 30
0.0
  9
$EXTMAX
 10
2368.16619519
 20
1682.53606789
 30
0.0
  0
ENDSEC
  0
SECTION
  2
TABLES
  0
TABLE
  2
LAYER
 70
2
 0
LAYER
 2
0
 70
0
 62
1
 6
CONTINUOUS
 0
LAYER
 2
Default Layer
 70
0
 62
1
 6
CONTINUOUS
 0
ENDTAB
 0
ENDSEC
  0
SECTION
  2
ENTITIES
  0
POLYLINE
  8
0
 66
   1
 39
0.000000
 70
    1
  0
VERTEX
  8
0
 10
1340.84626640
 20
-515.86159003
  0
VERTEX
  8
0
 10
1345.84507746
 20
-440.36593762
  0
VERTEX
  8
0
 10
1349.28397060
 20
-386.22402435
  0
VERTEX
  8
0
 10
1350.13125822
 20
-374.70974280
  0
VERTEX
  8
0
 10
1350.99528404
 20
-363.19655855
  0
VERTEX
  8
0
 10
1351.41788172
 20
-357.43934920
  0
VERTEX
  8
0
 10
1351.82583348
 20
-351.68117971
  0
VERTEX
  8
0
 10
1352.21286249
 20
-345.92163862
  0
VERTEX
  8
0
 10
1352.57269194
 20
-340.16031442
  0
VERTEX
  8
0
 10
1352.98731163
 20
-332.86382102
  0
VERTEX
  8
0
 10
1353.51752062
 20
-322.96586707
  0
VERTEX
  8
0
 10
1354.12525589
 20
-311.16668326
  0
VERTEX
  8
0
 10
1354.77245445
 20
-298.16650027
  0
VERTEX
  8
0
 10
1355.42105331
 20
-284.66554879
  0
VERTEX
  8
0
 10
1356.03298946
 20
-271.36405950
  0
VERTEX
  8
0
 10
1356.57019991
 20
-258.96226307
  0
VERTEX
  8
0
 10
1356.99462166
 20
-248.16039019
  0
VERTEX
  8
0
 10
1357.73877547
 20
-227.35273681
  0
VERTEX
  8
0
 10
1358.10203109
 20
-216.47176309
  0
VERTEX
  8
0
 10
1358.42924852
 20
-205.69566172
  0
VERTEX
  8
0
 10
1358.69780973
 20
-195.34166051
  0
VERTEX
  8
0
 10
1358.80302612
 20
-190.42208114
  0
VERTEX
  8
0
 10
1358.88509671
 20
-185.72698723
  0
VERTEX
  8
0
 10
1358.94119424
 20
-181.29603226
  0
VERTEX
  8
0
 10
1358.96849145
 20
-177.16886969
  0
VERTEX
  8
0
 10
1358.96416110
 20
-173.38515300
  0
VERTEX
  8
0
 10
1358.92537594
 20
-169.98453566
  0
VERTEX
  8
0
 10
1358.84299142
 20
-166.68953434
  0
VERTEX
  8
0
 10
1358.71426622
 20
-163.22275893
  0
VERTEX
  8
0
 10
1358.54597789
 20
-159.62400271
  0
VERTEX
  8
0
 10
1358.34490399
 20
-155.93305898
  0
VERTEX
  8
0
 10
1358.11782206
 20
-152.18972103
  0
VERTEX
  8
0
 10
1357.87150966
 20
-148.43378215
  0
VERTEX
  8
0
 10
1357.34830366
 20
-141.04327479
  0
VERTEX
  8
0
 10
1356.36933835
 20
-127.86195381
  0
VERTEX
  8
0
 10
1356.17818414
 20
-125.13202064
  0
VERTEX
  8
0
 10
1356.02201988
 20
-122.70783288
  0
VERTEX
  8
0
 10
1355.90762313
 20
-120.62918383
  0
VERTEX
  8
0
 10
1355.84177145
 20
-118.93586678
  0
VERTEX
  8
0
 10
1355.81029808
 20
-117.44841793
  0
VERTEX
  8
0
 10
1355.79326616
 20
-115.96085322
  0
VERTEX
  8
0
 10
1355.79501595
 20
-112.98542804
  0
VERTEX
  8
0
 10
1355.83199945
 20
-110.00969478
  0
VERTEX
  8
0
 10
1355.88919531
 20
-107.03375699
  0
VERTEX
  8
0
 10
1356.00413864
 20
-101.08168203
  0
VERTEX
  8
0
 10
1356.03184339
 20
-98.10575194
  0
VERTEX
  8
0
 10
1356.01967505
 20
-95.13003152
  0
VERTEX
  8
0
 10
1355.96479950
 20
-91.76243863
  0
VERTEX
  8
0
 10
1355.87807835
 20
-87.76612741
  0
VERTEX
  8
0
 10
1355.76503381
 20
-83.37405577
  0
VERTEX
  8
0
 10
1355.63118805
 20
-78.81918165
  0
VERTEX
  8
0
 10
1355.48206330
 20
-74.33446297
  0
VERTEX
  8
0
 10
1355.32318174
 20
-70.15285767
  0
VERTEX
  8
0
 10
1355.16006557
 20
-66.50732366
  0
VERTEX
  8
0
 10
1354.99823700
 20
-63.63081888
  0
VERTEX
  8
0
 10
1354.81996822
 20
-61.21804900
  0
VERTEX
  8
0
 10
1354.60889656
 20
-58.80799638
  0
VERTEX
  8
0
 10
1354.37259193
 20
-56.40003396
  0
VERTEX
  8
0
 10
1354.11862420
 20
-53.99353468
  0
VERTEX
  8
0
 10
1353.58797907
 20
-49.18241728
  0
VERTEX
  8
0
 10
1353.32644145
 20
-46.77654506
  0
VERTEX
  8
0
 10
1353.07752033
 20
-44.36962773
  0
VERTEX
  8
0
 10
1353.28427007
 20
-16.70380026
  0
VERTEX
  8
0
 10
902.65062447
 20
-14.66480304
  0
VERTEX
  8
0
 10
452.01684511
 20
-12.64370532
  0
VERTEX
  8
0
 10
1.38306499
 20
-10.62270760
  0
VERTEX
  8
0
 10
-5.00620396
 20
-507.61723857
  0
VERTEX
  8
0
 10
443.59306297
 20
-510.39515371
  0
VERTEX
  8
0
 10
892.21046317
 20
-513.15530386
  0
VERTEX
  8
0
 10
1340.84626640
 20
-515.86159003
  0
SEQEND
  0
POLYLINE
  8
0
 66
   1
 39
0.000000
 70
    1
  0
VERTEX
  8
0
 10
1354.59902359
 20
0.56701107
  0
VERTEX
  8
0
 10
1353.71468368
 20
8.81166487
  0
VERTEX
  8
0
 10
1352.85596242
 20
17.05951121
  0
VERTEX
  8
0
 10
1352.01694782
 20
25.30981335
  0
VERTEX
  8
0
 10
1351.19172788
 20
33.56183456
  0
VERTEX
  8
0
 10
1349.55902399
 20
50.06808718
  0
VERTEX
  8
0
 10
1347.91055477
 20
66.57237516
  0
VERTEX
  8
0
 10
1347.06562817
 20
74.82194056
  0
VERTEX
  8
0
 10
1346.19902425
 20
83.06880458
  0
VERTEX
  8
0
 10
1345.30483101
 20
91.31223048
  0
VERTEX
  8
0
 10
1344.37713645
 20
99.55148152
  0
VERTEX
  8
0
 10
1343.41002858
 20
107.78582096
  0
VERTEX
  8
0
 10
1342.39759539
 20
116.01451206
  0
VERTEX
  8
0
 10
1341.33392490
 20
124.23681807
  0
VERTEX
  8
0
 10
1340.78102816
 20
128.34534644
  0
VERTEX
  8
0
 10
1340.21310510
 20
132.45200227
  0
VERTEX
  8
0
 10
1339.61284162
 20
136.67063227
  0
VERTEX
  8
0
 10
1338.96549429
 20
141.10391497
  0
VERTEX
  8
0
 10
1337.54201613
 20
150.54706066
  0
VERTEX
  8
0
 10
1335.96760668
 20
160.64668382
  0
VERTEX
  8
0
 10
1334.26720201
 20
171.26802893
  0
VERTEX
  8
0
 10
1332.46573816
 20
182.27634047
  0
VERTEX
  8
0
 10
1330.58815120
 20
193.53686294
  0
VERTEX
  8
0
 10
1328.65937718
 20
204.91484081
  0
VERTEX
  8
0
 10
1326.70435217
 20
216.27551857
  0
VERTEX
  8
0
 10
1324.74801222
 20
227.48414069
  0
VERTEX
  8
0
 10
1322.81529339
 20
238.40595167
  0
VERTEX
  8
0
 10
1320.93113174
 20
248.90619599
  0
VERTEX
  8
0
 10
1319.12046333
 20
258.85011813
  0
VERTEX
  8
0
 10
1317.40822422
 20
268.10296256
  0
VERTEX
  8
0
 10
1315.81935046
 20
276.52997379
  0
VERTEX
  8
0
 10
1314.37877811
 20
283.99639629
  0
VERTEX
  8
0
 10
1313.11144324
 20
290.36747454
  0
VERTEX
  8
0
 10
1311.89792676
 20
296.24243589
  0
VERTEX
  8
0
 10
1310.61024891
 20
302.28398425
  0
VERTEX
  8
0
 10
1309.26050468
 20
308.45257893
  0
VERTEX
  8
0
 10
1307.86078906
 20
314.70867925
  0
VERTEX
  8
0
 10
1306.42319706
 20
321.01274454
  0
VERTEX
  8
0
 10
1304.95982366
 20
327.32523412
  0
VERTEX
  8
0
 10
1303.48276387
 20
333.60660731
  0
VERTEX
  8
0
 10
1302.00411268
 20
339.81732342
  0
VERTEX
  8
0
 10
1299.09041611
 20
351.86862170
  0
VERTEX
  8
0
 10
1296.31549392
 20
363.16280352
  0
VERTEX
  8
0
 10
1293.77610608
 20
373.38354346
  0
VERTEX
  8
0
 10
1291.56901258
 20
382.21451607
  0
VERTEX
  8
0
 10
1289.53267132
 20
390.23803102
  0
VERTEX
  8
0
 10
1287.44840646
 20
398.24918350
  0
VERTEX
  8
0
 10
1285.32727727
 20
406.25082638
  0
VERTEX
  8
0
 10
1283.18034306
 20
414.24581256
  0
VERTEX
  8
0
 10
1278.85329676
 20
430.22722628
  0
VERTEX
  8
0
 10
1276.69530325
 20
438.21935958
  0
VERTEX
  8
0
 10
1274.55574191
 20
446.21624767
  0
VERTEX
  8
0
 10
1259.12405705
 20
500.55915516
  0
VERTEX
  8
0
 10
1236.09278294
 20
585.20653674
  0
VERTEX
  8
0
 10
1229.15803293
 20
611.84852680
  0
VERTEX
  8
0
 10
1228.82639649
 20
614.62898917
  0
VERTEX
  8
0
 10
1228.46283336
 20
617.54331665
  0
VERTEX
  8
0
 10
1227.65035567
 20
623.71737210
  0
VERTEX
  8
0
 10
1226.74145704
 20
630.25830345
  0
VERTEX
  8
0
 10
1225.75699465
 20
637.05372103
  0
VERTEX
  8
0
 10
1224.71782568
 20
643.99123514
  0
VERTEX
  8
0
 10
1223.64480734
 20
650.95845610
  0
VERTEX
  8
0
 10
1222.55879679
 20
657.84299421
  0
VERTEX
  8
0
 10
1221.48065122
 20
664.53245978
  0
VERTEX
  8
0
 10
1220.43122782
 20
670.91446314
  0
VERTEX
  8
0
 10
1219.43138376
 20
676.87661458
  0
VERTEX
  8
0
 10
1218.50197625
 20
682.30652442
  0
VERTEX
  8
0
 10
1217.66386245
 20
687.09180298
  0
VERTEX
  8
0
 10
1216.93789956
 20
691.12006056
  0
VERTEX
  8
0
 10
1216.34494476
 20
694.27890747
  0
VERTEX
  8
0
 10
1215.90585523
 20
696.45595403
  0
VERTEX
  8
0
 10
1215.75052782
 20
697.14118040
  0
VERTEX
  8
0
 10
1215.64148816
 20
697.53881055
  0
VERTEX
  8
0
 10
1215.46301804
 20
698.03579337
  0
VERTEX
  8
0
 10
1215.26826608
 20
698.52970847
  0
VERTEX
  8
0
 10
1215.05805957
 20
699.01990056
  0
VERTEX
  8
0
 10
1214.83322582
 20
699.50571436
  0
VERTEX
  8
0
 10
1214.34298571
 20
700.46158599
  0
VERTEX
  8
0
 10
1213.80416406
 20
701.39208113
  0
VERTEX
  8
0
 10
1213.22337920
 20
702.29195754
  0
VERTEX
  8
0
 10
1212.60724945
 20
703.15597300
  0
VERTEX
  8
0
 10
1211.96239313
 20
703.97888527
  0
VERTEX
  8
0
 10
1211.29542855
 20
704.75545213
  0
VERTEX
  8
0
 10
1210.95139936
 20
705.12529114
  0
VERTEX
  8
0
 10
1210.59567419
 20
705.48357914
  0
VERTEX
  8
0
 10
1209.85243468
 20
706.16800834
  0
VERTEX
  8
0
 10
1209.07230766
 20
706.81375219
  0
VERTEX
  8
0
 10
1208.26189074
 20
707.42582315
  0
VERTEX
  8
0
 10
1207.42778153
 20
708.00923366
  0
VERTEX
  8
0
 10
1206.57657766
 20
708.56899619
  0
VERTEX
  8
0
 10
1205.71487672
 20
709.11012320
  0
VERTEX
  8
0
 10
1204.84927636
 20
709.63762713
  0
VERTEX
  8
0
 10
1204.39447762
 20
709.92374755
  0
VERTEX
  8
0
 10
1203.89904969
 20
710.25535353
  0
VERTEX
  8
0
 10
1202.80801055
 20
711.02866988
  0
VERTEX
  8
0
 10
1200.37712938
 20
712.83125416
  0
VERTEX
  8
0
 10
1199.12410462
 20
713.75511294
  0
VERTEX
  8
0
 10
1197.90390193
 20
714.62374337
  0
VERTEX
  8
0
 10
1197.31967405
 20
715.02087778
  0
VERTEX
  8
0
 10
1196.75992993
 20
715.38444089
  0
VERTEX
  8
0
 10
1196.23009565
 20
715.70784462
  0
VERTEX
  8
0
 10
1195.73559728
 20
715.98450090
  0
VERTEX
  8
0
 10
1193.82275183
 20
716.97849323
  0
VERTEX
  8
0
 10
1192.86629504
 20
717.48009165
  0
VERTEX
  8
0
 10
1191.91829094
 20
717.99575170
  0
VERTEX
  8
0
 10
1190.98509611
 20
718.53371845
  0
VERTEX
  8
0
 10
1190.07306710
 20
719.10223700
  0
VERTEX
  8
0
 10
1189.18856048
 20
719.70955243
  0
VERTEX
  8
0
 10
1188.75861449
 20
720.03033557
  0
VERTEX
  8
0
 10
1188.33793281
 20
720.36390983
  0
VERTEX
  8
0
 10
1187.87820255
 20
720.76577234
  0
VERTEX
  8
0
 10
1187.32738720
 20
721.28490329
  0
VERTEX
  8
0
 10
1185.93333786
 20
722.63999166
  0
VERTEX
  8
0
 10
1185.08052219
 20
723.45845966
  0
VERTEX
  8
0
 10
1184.11745806
 20
724.35921724
  0
VERTEX
  8
0
 10
1183.03935462
 20
725.33351968
  0
VERTEX
  8
0
 10
1181.84142103
 20
726.37262228
  0
VERTEX
  8
0
 10
1180.51886644
 20
727.46778031
  0
VERTEX
  8
0
 10
1179.06690001
 20
728.61024906
  0
VERTEX
  8
0
 10
1177.48073090
 20
729.79128382
  0
VERTEX
  8
0
 10
1176.63582319
 20
730.39353072
  0
VERTEX
  8
0
 10
1175.75556825
 20
731.00213986
  0
VERTEX
  8
0
 10
1174.83936722
 20
731.61601814
  0
VERTEX
  8
0
 10
1173.88662123
 20
732.23407248
  0
VERTEX
  8
0
 10
1172.89673144
 20
732.85520978
  0
VERTEX
  8
0
 10
1171.86909900
 20
733.47833695
  0
VERTEX
  8
0
 10
1170.80312503
 20
734.10236091
  0
VERTEX
  8
0
 10
1169.69821070
 20
734.72618856
  0
VERTEX
  8
0
 10
1168.55375713
 20
735.34872682
  0
VERTEX
  8
0
 10
1167.36916549
 20
735.96888260
  0
VERTEX
  8
0
 10
1149.82916539
 20
739.27807398
  0
VERTEX
  8
0
 10
1138.85171586
 20
741.36044918
  0
VERTEX
  8
0
 10
1127.54288259
 20
743.52024022
  0
VERTEX
  8
0
 10
1116.75785252
 20
745.60161924
  0
VERTEX
  8
0
 10
1107.35181259
 20
747.44875836
  0
VERTEX
  8
0
 10
1103.43315984
 20
748.23579176
  0
VERTEX
  8
0
 10
1100.17994972
 20
748.90582972
  0
VERTEX
  8
0
 10
1097.69908061
 20
749.43939378
  0
VERTEX
  8
0
 10
1096.09745086
 20
749.81700545
  0
VERTEX
  8
0
 10
1094.96784655
 20
750.12111605
  0
VERTEX
  8
0
 10
1093.83298070
 20
750.44537082
  0
VERTEX
  8
0
 10
1091.55461973
 20
751.14356245
  0
VERTEX
  8
0
 10
1089.27667857
 20
751.89007949
  0
VERTEX
  8
0
 10
1087.01346786
 20
752.66342107
  0
VERTEX
  8
0
 10
1082.58848031
 20
754.20457445
  0
VERTEX
  8
0
 10
1080.45532474
 20
754.92938453
  0
VERTEX
  8
0
 10
1078.39414214
 20
755.59501573
  0
VERTEX
  8
0
 10
1076.37622006
 20
756.23502884
  0
VERTEX
  8
0
 10
1074.36127192
 20
756.88896871
  0
VERTEX
  8
0
 10
1072.34624711
 20
757.54431059
  0
VERTEX
  8
0
 10
1070.32809505
 20
758.18852969
  0
VERTEX
  8
0
 10
1068.30376517
 20
758.80910125
  0
VERTEX
  8
0
 10
1066.27020686
 20
759.39350050
  0
VERTEX
  8
0
 10
1064.22436954
 20
759.92920266
  0
VERTEX
  8
0
 10
1063.19589294
 20
760.17487834
  0
VERTEX
  8
0
 10
1062.16320262
 20
760.40368297
  0
VERTEX
  8
0
 10
1060.01675703
 20
760.84135716
  0
VERTEX
  8
0
 10
1057.73688754
 20
761.26731119
  0
VERTEX
  8
0
 10
1055.35324938
 20
761.67002563
  0
VERTEX
  8
0
 10
1052.89549777
 20
762.03798105
  0
VERTEX
  8
0
 10
1050.39328791
 20
762.35965800
  0
VERTEX
  8
0
 10
1049.13477840
 20
762.49954224
  0
VERTEX
  8
0
 10
1047.87627504
 20
762.62353708
  0
VERTEX
  8
0
 10
1046.62148472
 20
762.73020258
  0
VERTEX
  8
0
 10
1045.37411436
 20
762.81809882
  0
VERTEX
  8
0
 10
1044.13787084
 20
762.88578588
  0
VERTEX
  8
0
 10
1042.91646109
 20
762.93182382
  0
VERTEX
  8
0
 10
1041.64520602
 20
762.94826604
  0
VERTEX
  8
0
 10
1040.27133556
 20
762.93084997
  0
VERTEX
  8
0
 10
1038.81642004
 20
762.88366174
  0
VERTEX
  8
0
 10
1037.30202980
 20
762.81078747
  0
VERTEX
  8
0
 10
1035.74973520
 20
762.71631327
  0
VERTEX
  8
0
 10
1034.18110657
 20
762.60432527
  0
VERTEX
  8
0
 10
1031.08112861
 20
762.34415236
  0
VERTEX
  8
0
 10
1028.17465869
 20
762.06295769
  0
VERTEX
  8
0
 10
1025.63425954
 20
761.79343024
  0
VERTEX
  8
0
 10
1022.34192461
 20
761.42013286
  0
VERTEX
  8
0
 10
1021.46653846
 20
761.30289538
  0
VERTEX
  8
0
 10
1020.59442055
 20
761.15676769
  0
VERTEX
  8
0
 10
1018.85482971
 20
760.82686361
  0
VERTEX
  8
0
 10
1017.98477690
 20
760.66759816
  0
VERTEX
  8
0
 10
1017.11283257
 20
760.52846441
  0
VERTEX
  8
0
 10
1016.23770679
 20
760.42171785
  0
VERTEX
  8
0
 10
1015.35810960
 20
760.35961394
  0
VERTEX
  8
0
 10
1014.66782394
 20
760.36211235
  0
VERTEX
  8
0
 10
1013.51141137
 20
760.40308681
  0
VERTEX
  8
0
 10
1009.99329488
 20
760.58715483
  0
VERTEX
  8
0
 10
1005.18993887
 20
760.88519978
  0
VERTEX
  8
0
 10
999.48752206
 20
761.27060348
  0
VERTEX
  8
0
 10
993.27222318
 20
761.71674774
  0
VERTEX
  8
0
 10
986.93022095
 20
762.19701435
  0
VERTEX
  8
0
 10
980.84769411
 20
762.68478512
  0
VERTEX
  8
0
 10
975.41082138
 20
763.15344186
  0
VERTEX
  8
0
 10
972.70588960
 20
763.41146530
  0
VERTEX
  8
0
 10
969.60375787
 20
763.73062309
  0
VERTEX
  8
0
 10
962.37195943
 20
764.52422839
  0
VERTEX
  8
0
 10
954.04355590
 20
765.47803122
  0
VERTEX
  8
0
 10
944.94667713
 20
766.53580499
  0
VERTEX
  8
0
 10
935.40945295
 20
767.64132316
  0
VERTEX
  8
0
 10
925.76001320
 20
768.73835914
  0
VERTEX
  8
0
 10
916.32648772
 20
769.77068638
  0
VERTEX
  8
0
 10
911.79323341
 20
770.24501342
  0
VERTEX
  8
0
 10
907.43700635
 20
770.68207831
  0
VERTEX
  8
0
 10
898.12946494
 20
771.56519972
  0
VERTEX
  8
0
 10
887.60354796
 20
772.51971991
  0
VERTEX
  8
0
 10
876.43006808
 20
773.49991910
  0
VERTEX
  8
0
 10
865.17983803
 20
774.46007750
  0
VERTEX
  8
0
 10
854.42367049
 20
775.35447533
  0
VERTEX
  8
0
 10
844.73237818
 20
776.13739281
  0
VERTEX
  8
0
 10
836.67677380
 20
776.76311015
  0
VERTEX
  8
0
 10
830.82767005
 20
777.18590756
  0
VERTEX
  8
0
 10
828.49088938
 20
777.32830887
  0
VERTEX
  8
0
 10
826.05182141
 20
777.45158602
  0
VERTEX
  8
0
 10
823.53400337
 20
777.55899510
  0
VERTEX
  8
0
 10
820.96097249
 20
777.65379220
  0
VERTEX
  8
0
 10
815.74342116
 20
777.81857482
  0
VERTEX
  8
0
 10
810.58746530
 20
777.97198262
  0
VERTEX
  8
0
 10
805.68140280
 20
778.14006433
  0
VERTEX
  8
0
 10
803.38092463
 20
778.23774813
  0
VERTEX
  8
0
 10
801.21353151
 20
778.34886868
  0
VERTEX
  8
0
 10
799.20276066
 20
778.47668208
  0
VERTEX
  8
0
 10
797.37214933
 20
778.62444442
  0
VERTEX
  8
0
 10
795.74523474
 20
778.79541178
  0
VERTEX
  8
0
 10
795.01551910
 20
778.89061487
  0
VERTEX
  8
0
 10
794.34555412
 20
778.99284025
  0
VERTEX
  8
0
 10
793.05982986
 20
779.23190252
  0
VERTEX
  8
0
 10
791.76163826
 20
779.52073025
  0
VERTEX
  8
0
 10
790.45479749
 20
779.85201802
  0
VERTEX
  8
0
 10
789.14312572
 20
780.21846044
  0
VERTEX
  8
0
 10
787.83044111
 20
780.61275208
  0
VERTEX
  8
0
 10
786.52056182
 20
781.02758754
  0
VERTEX
  8
0
 10
783.92449188
 20
781.88966828
  0
VERTEX
  8
0
 10
781.38546121
 20
782.74625937
  0
VERTEX
  8
0
 10
780.14688101
 20
783.15423278
  0
VERTEX
  8
0
 10
778.93401513
 20
783.53891754
  0
VERTEX
  8
0
 10
777.75068171
 20
783.89300825
  0
VERTEX
  8
0
 10
776.60069894
 20
784.20919951
  0
VERTEX
  8
0
 10
775.48788497
 20
784.48018589
  0
VERTEX
  8
0
 10
774.41605797
 20
784.69866199
  0
VERTEX
  8
0
 10
773.36452757
 20
784.87984429
  0
VERTEX
  8
0
 10
772.31022148
 20
785.04435025
  0
VERTEX
  8
0
 10
771.25338493
 20
785.19297588
  0
VERTEX
  8
0
 10
770.19426317
 20
785.32651721
  0
VERTEX
  8
0
 10
768.07014497
 20
785.55153108
  0
VERTEX
  8
0
 10
765.93982880
 20
785.72576007
  0
VERTEX
  8
0
 10
763.80527661
 20
785.85557239
  0
VERTEX
  8
0
 10
761.66845033
 20
785.94733625
  0
VERTEX
  8
0
 10
759.53131189
 20
786.00741986
  0
VERTEX
  8
0
 10
757.39582322
 20
786.04219142
  0
VERTEX
  8
0
 10
755.07125989
 20
786.03611673
  0
VERTEX
  8
0
 10
752.44352438
 20
785.97471557
  0
VERTEX
  8
0
 10
749.62951898
 20
785.86593711
  0
VERTEX
  8
0
 10
746.74614600
 20
785.71773054
  0
VERTEX
  8
0
 10
743.91030772
 20
785.53804504
  0
VERTEX
  8
0
 10
741.23890644
 20
785.33482977
  0
VERTEX
  8
0
 10
738.84884446
 20
785.11603394
  0
VERTEX
  8
0
 10
736.85702407
 20
784.88960670
  0
VERTEX
  8
0
 10
735.98227030
 20
784.76257598
  0
VERTEX
  8
0
 10
735.11135511
 20
784.61154533
  0
VERTEX
  8
0
 10
734.24369943
 20
784.44021717
  0
VERTEX
  8
0
 10
733.37872422
 20
784.25229396
  0
VERTEX
  8
0
 10
731.65449893
 20
783.84147209
  0
VERTEX
  8
0
 10
729.93404675
 20
783.40869921
  0
VERTEX
  8
0
 10
728.21273519
 20
782.98359484
  0
VERTEX
  8
0
 10
726.48593177
 20
782.59577846
  0
VERTEX
  8
0
 10
725.61902295
 20
782.42510936
  0
VERTEX
  8
0
 10
724.74900399
 20
782.27486957
  0
VERTEX
  8
0
 10
723.87529582
 20
782.14876154
  0
VERTEX
  8
0
 10
722.99731938
 20
782.05048768
  0
VERTEX
  8
0
 10
722.46039698
 20
782.01318768
  0
VERTEX
  8
0
 10
721.73607756
 20
781.98413973
  0
VERTEX
  8
0
 10
719.76211263
 20
781.94917660
  0
VERTEX
  8
0
 10
717.14915455
 20
781.94235161
  0
VERTEX
  8
0
 10
713.97093331
 20
781.96041804
  0
VERTEX
  8
0
 10
706.21362126
 20
782.05823833
  0
VERTEX
  8
0
 10
697.08001629
 20
782.21666383
  0
VERTEX
  8
0
 10
677.04328689
 20
782.61143579
  0
VERTEX
  8
0
 10
667.31984210
 20
782.79583494
  0
VERTEX
  8
0
 10
658.57946368
 20
782.93694466
  0
VERTEX
  8
0
 10
570.12188984
 20
783.35230591
  0
VERTEX
  8
0
 10
561.89529277
 20
783.32012042
  0
VERTEX
  8
0
 10
552.86493188
 20
783.24386653
  0
VERTEX
  8
0
 10
534.32195179
 20
783.06491772
  0
VERTEX
  8
0
 10
525.77384919
 20
783.01510487
  0
VERTEX
  8
0
 10
521.89163276
 20
783.01168179
  0
VERTEX
  8
0
 10
518.35101595
 20
783.02698778
  0
VERTEX
  8
0
 10
515.21228107
 20
783.06432796
  0
VERTEX
  8
0
 10
512.53571038
 20
783.12700747
  0
VERTEX
  8
0
 10
510.38158619
 20
783.21833144
  0
VERTEX
  8
0
 10
509.51927974
 20
783.27576795
  0
VERTEX
  8
0
 10
508.81019077
 20
783.34160500
  0
VERTEX
  8
0
 10
507.54775288
 20
783.50297371
  0
VERTEX
  8
0
 10
506.28136887
 20
783.70308875
  0
VERTEX
  8
0
 10
505.01262242
 20
783.93701366
  0
VERTEX
  8
0
 10
503.74309720
 20
784.19981201
  0
VERTEX
  8
0
 10
502.47437689
 20
784.48654734
  0
VERTEX
  8
0
 10
501.20804519
 20
784.79228320
  0
VERTEX
  8
0
 10
498.68888230
 20
785.44101071
  0
VERTEX
  8
0
 10
496.19827798
 20
786.10650292
  0
VERTEX
  8
0
 10
493.74890166
 20
786.74926825
  0
VERTEX
  8
0
 10
492.54363320
 20
787.04978720
  0
VERTEX
  8
0
 10
491.35342279
 20
787.32981508
  0
VERTEX
  8
0
 10
490.17985410
 20
787.58441543
  0
VERTEX
  8
0
 10
489.02451082
 20
787.80865181
  0
VERTEX
  8
0
 10
484.43595731
 20
788.65819197
  0
VERTEX
  8
0
 10
482.13658330
 20
789.07190444
  0
VERTEX
  8
0
 10
479.83310873
 20
789.45514650
  0
VERTEX
  8
0
 10
477.52500683
 20
789.79059414
  0
VERTEX
  8
0
 10
476.36905601
 20
789.93498130
  0
VERTEX
  8
0
 10
475.21175081
 20
790.06092336
  0
VERTEX
  8
0
 10
474.05302539
 20
790.16625481
  0
VERTEX
  8
0
 10
472.89281389
 20
790.24881015
  0
VERTEX
  8
0
 10
471.73105047
 20
790.30642389
  0
VERTEX
  8
0
 10
470.56766927
 20
790.33693053
  0
VERTEX
  8
0
 10
469.38212604
 20
790.33961258
  0
VERTEX
  8
0
 10
468.15832859
 20
790.31629096
  0
VERTEX
  8
0
 10
466.90288919
 20
790.26860774
  0
VERTEX
  8
0
 10
465.62242012
 20
790.19820501
  0
VERTEX
  8
0
 10
464.32353365
 20
790.10672482
  0
VERTEX
  8
0
 10
463.01284207
 20
789.99580927
  0
VERTEX
  8
0
 10
461.69695765
 20
789.86710042
  0
VERTEX
  8
0
 10
460.38249266
 20
789.72224035
  0
VERTEX
  8
0
 10
457.78427010
 20
789.39063486
  0
VERTEX
  8
0
 10
455.27107260
 20
789.01412939
  0
VERTEX
  8
0
 10
452.89579836
 20
788.60586054
  0
VERTEX
  8
0
 10
450.71134561
 20
788.17896491
  0
VERTEX
  8
0
 10
449.68061534
 20
787.94347614
  0
VERTEX
  8
0
 10
448.65893841
 20
787.67240015
  0
VERTEX
  8
0
 10
447.64497172
 20
787.37107726
  0
VERTEX
  8
0
 10
446.63737216
 20
787.04484775
  0
VERTEX
  8
0
 10
445.63479665
 20
786.69905191
  0
VERTEX
  8
0
 10
444.63590208
 20
786.33903005
  0
VERTEX
  8
0
 10
442.64378337
 20
785.59766942
  0
VERTEX
  8
0
 10
440.65027124
 20
784.86348823
  0
VERTEX
  8
0
 10
439.64963489
 20
784.51244066
  0
VERTEX
  8
0
 10
438.64462089
 20
784.17920882
  0
VERTEX
  8
0
 10
437.63388613
 20
783.86913303
  0
VERTEX
  8
0
 10
436.61608752
 20
783.58755357
  0
VERTEX
  8
0
 10
435.58988196
 20
783.33981074
  0
VERTEX
  8
0
 10
434.55392636
 20
783.13124483
  0
VERTEX
  8
0
 10
433.93397987
 20
783.03644363
  0
VERTEX
  8
0
 10
433.12172398
 20
782.93931374
  0
VERTEX
  8
0
 10
430.95811532
 20
782.73852595
  0
VERTEX
  8
0
 10
428.13876310
 20
782.52979769
  0
VERTEX
  8
0
 10
424.73933004
 20
782.31404517
  0
VERTEX
  8
0
 10
420.83547886
 20
782.09218458
  0
VERTEX
  8
0
 10
416.50287228
 20
781.86513214
  0
VERTEX
  8
0
 10
406.85404377
 20
781.39911655
  0
VERTEX
  8
0
 10
385.74048150
 20
780.44509634
  0
VERTEX
  8
0
 10
375.48635124
 20
779.97175108
  0
VERTEX
  8
0
 10
366.24105723
 20
779.51062193
  0
VERTEX
  8
0
 10
353.13156934
 20
778.72142508
  0
VERTEX
  8
0
 10
339.04892554
 20
777.90115294
  0
VERTEX
  8
0
 10
310.29974437
 20
776.24196350
  0
VERTEX
  8
0
 10
296.80099411
 20
775.44033654
  0
VERTEX
  8
0
 10
284.66466214
 20
774.68221497
  0
VERTEX
  8
0
 10
279.28986975
 20
774.32529532
  0
VERTEX
  8
0
 10
274.47464201
 20
773.98624396
  0
VERTEX
  8
0
 10
270.29196562
 20
773.66739153
  0
VERTEX
  8
0
 10
266.81482727
 20
773.37106869
  0
VERTEX
  8
0
 10
263.58565561
 20
773.05381670
  0
VERTEX
  8
0
 10
260.13282042
 20
772.67787921
  0
VERTEX
  8
0
 10
256.50822014
 20
772.25414046
  0
VERTEX
  8
0
 10
252.76375320
 20
771.79348464
  0
VERTEX
  8
0
 10
245.12281304
 20
770.80495871
  0
VERTEX
  8
0
 10
237.62518735
 20
769.79937514
  0
VERTEX
  8
0
 10
230.68606355
 20
768.86380766
  0
VERTEX
  8
0
 10
224.72062907
 20
768.08533001
  0
VERTEX
  8
0
 10
222.23279140
 20
767.78221042
  0
VERTEX
  8
0
 10
220.14407133
 20
767.55101592
  0
VERTEX
  8
0
 10
218.50636731
 20
767.40263075
  0
VERTEX
  8
0
 10
217.87286457
 20
767.36289298
  0
VERTEX
  8
0
 10
217.37157775
 20
767.34793912
  0
VERTEX
  8
0
 10
216.50613316
 20
767.35537538
  0
VERTEX
  8
0
 10
215.64179765
 20
767.38468638
  0
VERTEX
  8
0
 10
214.77847007
 20
767.43372506
  0
VERTEX
  8
0
 10
213.91604926
 20
767.50034436
  0
VERTEX
  8
0
 10
212.19352335
 20
767.67773660
  0
VERTEX
  8
0
 10
210.47341071
 20
767.89968664
  0
VERTEX
  8
0
 10
208.75490212
 20
768.14901803
  0
VERTEX
  8
0
 10
207.03718837
 20
768.40855430
  0
VERTEX
  8
0
 10
205.31946023
 20
768.66111902
  0
VERTEX
  8
0
 10
203.60090848
 20
768.88953571
  0
VERTEX
  8
0
 10
201.65901897
 20
769.14986658
  0
VERTEX
  8
0
 10
199.36186743
 20
769.48746550
  0
VERTEX
  8
0
 10
194.24208086
 20
770.26151183
  0
VERTEX
  8
0
 10
191.68959714
 20
770.63148138
  0
VERTEX
  8
0
 10
189.32215398
 20
770.94576328
  0
VERTEX
  8
0
 10
188.25003376
 20
771.07163419
  0
VERTEX
  8
0
 10
187.27482705
 20
771.17111860
  0
VERTEX
  8
0
 10
186.41341831
 20
771.24006163
  0
VERTEX
  8
0
 10
185.68269199
 20
771.27430843
  0
VERTEX
  8
0
 10
184.36318277
 20
771.28057204
  0
VERTEX
  8
0
 10
183.04399693
 20
771.24121096
  0
VERTEX
  8
0
 10
181.72560547
 20
771.16207958
  0
VERTEX
  8
0
 10
180.40847939
 20
771.04903231
  0
VERTEX
  8
0
 10
179.09308968
 20
770.90792353
  0
VERTEX
  8
0
 10
177.77990736
 20
770.74460765
  0
VERTEX
  8
0
 10
175.16204883
 20
770.37477221
  0
VERTEX
  8
0
 10
173.60826231
 20
770.12223272
  0
VERTEX
  8
0
 10
171.62522665
 20
769.76350343
  0
VERTEX
  8
0
 10
169.31355907
 20
769.31652445
  0
VERTEX
  8
0
 10
166.77387679
 20
768.79923590
  0
VERTEX
  8
0
 10
164.10679700
 20
768.22957791
  0
VERTEX
  8
0
 10
161.41293692
 20
767.62549057
  0
VERTEX
  8
0
 10
158.79291377
 20
767.00491402
  0
VERTEX
  8
0
 10
156.34734475
 20
766.38578837
  0
VERTEX
  8
0
 10
154.01148142
 20
765.74112844
  0
VERTEX
  8
0
 10
151.65644664
 20
765.04058625
  0
VERTEX
  8
0
 10
149.28666458
 20
764.29705770
  0
VERTEX
  8
0
 10
146.90655945
 20
763.52343870
  0
VERTEX
  8
0
 10
142.13307663
 20
761.93751298
  0
VERTEX
  8
0
 10
139.74854731
 20
761.15099808
  0
VERTEX
  8
0
 10
137.37139163
 20
760.38597635
  0
VERTEX
  8
0
 10
136.13410057
 20
759.97675509
  0
VERTEX
  8
0
 10
134.90208090
 20
759.54750932
  0
VERTEX
  8
0
 10
132.44120443
 20
758.67700308
  0
VERTEX
  8
0
 10
131.20602192
 20
758.25977202
  0
VERTEX
  8
0
 10
129.96345946
 20
757.87057527
  0
VERTEX
  8
0
 10
128.71035419
 20
757.52142755
  0
VERTEX
  8
0
 10
128.07885962
 20
757.36562667
  0
VERTEX
  8
0
 10
127.44354328
 20
757.22434356
  0
VERTEX
  8
0
 10
126.57033239
 20
757.08133064
  0
VERTEX
  8
0
 10
125.25597717
 20
756.91958039
  0
VERTEX
  8
0
 10
123.54631682
 20
756.73945475
  0
VERTEX
  8
0
 10
121.48719054
 20
756.54131568
  0
VERTEX
  8
0
 10
116.50389696
 20
756.09244498
  0
VERTEX
  8
0
 10
110.67280998
 20
755.57586384
  0
VERTEX
  8
0
 10
104.36064314
 20
754.99446782
  0
VERTEX
  8
0
 10
101.13875277
 20
754.68036909
  0
VERTEX
  8
0
 10
97.93411002
 20
754.35115247
  0
VERTEX
  8
0
 10
94.79255408
 20
754.00717990
  0
VERTEX
  8
0
 10
91.75992414
 20
753.64881334
  0
VERTEX
  8
0
 10
88.88205941
 20
753.27641471
  0
VERTEX
  8
0
 10
86.20479908
 20
752.89034598
  0
VERTEX
  8
0
 10
83.51093240
 20
752.45810976
  0
VERTEX
  8
0
 10
80.58769645
 20
751.95534950
  0
VERTEX
  8
0
 10
77.48760219
 20
751.39463836
  0
VERTEX
  8
0
 10
74.26316058
 20
750.78854950
  0
VERTEX
  8
0
 10
70.96688256
 20
750.14965607
  0
VERTEX
  8
0
 10
67.65127908
 20
749.49053126
  0
VERTEX
  8
0
 10
61.17213957
 20
748.16188007
  0
VERTEX
  8
0
 10
55.24582965
 20
746.90318122
  0
VERTEX
  8
0
 10
50.29243696
 20
745.81502000
  0
VERTEX
  8
0
 10
46.73204909
 20
744.99798170
  0
VERTEX
  8
0
 10
45.60550934
 20
744.72256654
  0
VERTEX
  8
0
 10
44.98475366
 20
744.55265160
  0
VERTEX
  8
0
 10
43.56430789
 20
744.10278384
  0
VERTEX
  8
0
 10
42.85253558
 20
743.86414797
  0
VERTEX
  8
0
 10
42.15102354
 20
743.60284631
  0
VERTEX
  8
0
 10
41.46824172
 20
743.30873050
  0
VERTEX
  8
0
 10
40.81266003
 20
742.97165220
  0
VERTEX
  8
0
 10
40.49771609
 20
742.78383075
  0
VERTEX
  8
0
 10
40.19274840
 20
742.58146305
  0
VERTEX
  8
0
 10
39.89881571
 20
742.36328055
  0
VERTEX
  8
0
 10
39.61697675
 20
742.12801471
  0
VERTEX
  8
0
 10
39.47689672
 20
741.99207602
  0
VERTEX
  8
0
 10
39.33215055
 20
741.82943600
  0
VERTEX
  8
0
 10
39.02898824
 20
741.42972618
  0
VERTEX
  8
0
 10
38.70814679
 20
740.94023360
  0
VERTEX
  8
0
 10
38.37028314
 20
740.37230661
  0
VERTEX
  8
0
 10
37.64611708
 20
739.04654281
  0
VERTEX
  8
0
 10
36.86174569
 20
737.54322162
  0
VERTEX
  8
0
 10
36.02242459
 20
735.95312985
  0
VERTEX
  8
0
 10
35.58380029
 20
735.15391588
  0
VERTEX
  8
0
 10
35.13340942
 20
734.36705433
  0
VERTEX
  8
0
 10
34.67190894
 20
733.60389354
  0
VERTEX
  8
0
 10
34.19995580
 20
732.87578188
  0
VERTEX
  8
0
 10
33.71820696
 20
732.19406770
  0
VERTEX
  8
0
 10
33.22731936
 20
731.57009934
  0
VERTEX
  8
0
 10
32.21702815
 20
730.38796325
  0
VERTEX
  8
0
 10
31.16519330
 20
729.21724712
  0
VERTEX
  8
0
 10
30.06894504
 20
728.07361324
  0
VERTEX
  8
0
 10
29.50326908
 20
727.51684661
  0
VERTEX
  8
0
 10
28.92541360
 20
726.97272389
  0
VERTEX
  8
0
 10
28.33501990
 20
726.44320288
  0
VERTEX
  8
0
 10
27.73172924
 20
725.93024136
  0
VERTEX
  8
0
 10
27.11518290
 20
725.43579712
  0
VERTEX
  8
0
 10
26.48502217
 20
724.96182794
  0
VERTEX
  8
0
 10
25.84088833
 20
724.51029160
  0
VERTEX
  8
0
 10
25.18242265
 20
724.08314589
  0
VERTEX
  8
0
 10
24.50926641
 20
723.68234860
  0
VERTEX
  8
0
 10
23.82106090
 20
723.30985751
  0
VERTEX
  8
0
 10
23.08637230
 20
722.96679288
  0
VERTEX
  8
0
 10
22.27901742
 20
722.65108323
  0
VERTEX
  8
0
 10
21.40651346
 20
722.35989874
  0
VERTEX
  8
0
 10
20.47637762
 20
722.09040957
  0
VERTEX
  8
0
 10
19.49612710
 20
721.83978590
  0
VERTEX
  8
0
 10
18.47327910
 20
721.60519790
  0
VERTEX
  8
0
 10
17.41535083
 20
721.38381576
  0
VERTEX
  8
0
 10
16.32985949
 20
721.17280964
  0
VERTEX
  8
0
 10
14.10625639
 20
720.77060619
  0
VERTEX
  8
0
 10
11.86260743
 20
720.37594893
  0
VERTEX
  8
0
 10
9.65905020
 20
719.96619928
  0
VERTEX
  8
0
 10
8.59109900
 20
719.74859024
  0
VERTEX
  8
0
 10
7.55572233
 20
719.51871862
  0
VERTEX
  8
0
 10
0.06844598
 20
3.18530093
  0
VERTEX
  8
0
 10
1354.59902359
 20
0.56701107
  0
SEQEND
  0
POLYLINE
  8
0
 66
   1
 39
0.000000
 70
    1
  0
VERTEX
  8
0
 10
-304.03698777
 20
578.34952267
  0
VERTEX
  8
0
 10
-357.69035975
 20
578.96925823
  0
VERTEX
  8
0
 10
-358.87830201
 20
576.01527665
  0
VERTEX
  8
0
 10
-360.08555300
 20
573.05684988
  0
VERTEX
  8
0
 10
-362.54015772
 20
567.13076399
  0
VERTEX
  8
0
 10
-365.01852701
 20
561.19920709
  0
VERTEX
  8
0
 10
-367.48501402
 20
555.27038570
  0
VERTEX
  8
0
 10
-369.90397186
 20
549.35250633
  0
VERTEX
  8
0
 10
-371.08448770
 20
546.40023445
  0
VERTEX
  8
0
 10
-372.23975366
 20
543.45377552
  0
VERTEX
  8
0
 10
-373.36531390
 20
540.51415536
  0
VERTEX
  8
0
 10
-374.45671256
 20
537.58239979
  0
VERTEX
  8
0
 10
-375.50949376
 20
534.65953462
  0
VERTEX
  8
0
 10
-376.51920166
 20
531.74658566
  0
VERTEX
  8
0
 10
-377.50139531
 20
528.80605269
  0
VERTEX
  8
0
 10
-378.47324851
 20
525.80772786
  0
VERTEX
  8
0
 10
-379.43272750
 20
522.76357554
  0
VERTEX
  8
0
 10
-380.37779857
 20
519.68556013
  0
VERTEX
  8
0
 10
-381.30642796
 20
516.58564600
  0
VERTEX
  8
0
 10
-382.21658194
 20
513.47579753
  0
VERTEX
  8
0
 10
-383.10622677
 20
510.36797911
  0
VERTEX
  8
0
 10
-383.97332871
 20
507.27415512
  0
VERTEX
  8
0
 10
-384.81585402
 20
504.20628993
  0
VERTEX
  8
0
 10
-385.63176896
 20
501.17634793
  0
VERTEX
  8
0
 10
-387.17563278
 20
495.27809104
  0
VERTEX
  8
0
 10
-388.58865025
 20
489.67509949
  0
VERTEX
  8
0
 10
-389.85455147
 20
484.46308834
  0
VERTEX
  8
0
 10
-390.43870829
 20
481.96866330
  0
VERTEX
  8
0
 10
-391.00502357
 20
479.47019715
  0
VERTEX
  8
0
 10
-391.55464423
 20
476.96797938
  0
VERTEX
  8
0
 10
-392.08871717
 20
474.46229951
  0
VERTEX
  8
0
 10
-393.11480757
 20
469.44171152
  0
VERTEX
  8
0
 10
-394.09247006
 20
464.41074927
  0
VERTEX
  8
0
 10
-395.03087994
 20
459.37172885
  0
VERTEX
  8
0
 10
-395.93921250
 20
454.32696634
  0
VERTEX
  8
0
 10
-397.70234684
 20
444.22947945
  0
VERTEX
  8
0
 10
-398.16266452
 20
441.50214263
  0
VERTEX
  8
0
 10
-398.66763891
 20
438.39538077
  0
VERTEX
  8
0
 10
-399.79307917
 20
431.20058533
  0
VERTEX
  8
0
 10
-401.04171034
 20
422.95910008
  0
VERTEX
  8
0
 10
-402.37657516
 20
413.98493197
  0
VERTEX
  8
0
 10
-405.15717662
 20
395.09457491
  0
VERTEX
  8
0
 10
-406.52899871
 20
385.80639985
  0
VERTEX
  8
0
 10
-407.83922534
 20
377.04156970
  0
VERTEX
  8
0
 10
-415.85815456
 20
326.10891424
  0
VERTEX
  8
0
 10
-417.10034948
 20
317.51883765
  0
VERTEX
  8
0
 10
-418.36391013
 20
308.93163969
  0
VERTEX
  8
0
 10
-420.90385085
 20
291.75897096
  0
VERTEX
  8
0
 10
-422.15459206
 20
283.17004582
  0
VERTEX
  8
0
 10
-423.37542126
 20
274.57709058
  0
VERTEX
  8
0
 10
-424.55351903
 20
265.97837806
  0
VERTEX
  8
0
 10
-425.12253755
 20
261.67632308
  0
VERTEX
  8
0
 10
-425.67606593
 20
257.37218108
  0
VERTEX
  8
0
 10
-426.75067887
 20
248.71424168
  0
VERTEX
  8
0
 10
-427.79432045
 20
239.97374036
  0
VERTEX
  8
0
 10
-428.80818980
 20
231.16910760
  0
VERTEX
  8
0
 10
-429.79348603
 20
222.31877389
  0
VERTEX
  8
0
 10
-430.75140827
 20
213.44116971
  0
VERTEX
  8
0
 10
-431.68315564
 20
204.55472554
  0
VERTEX
  8
0
 10
-432.58992725
 20
195.67787187
  0
VERTEX
  8
0
 10
-433.47292222
 20
186.82903917
  0
VERTEX
  8
0
 10
-435.27146062
 20
168.60105918
  0
VERTEX
  8
0
 10
-436.18280285
 20
159.14929569
  0
VERTEX
  8
0
 10
-437.07590824
 20
149.55252181
  0
VERTEX
  8
0
 10
-437.93106263
 20
139.87086648
  0
VERTEX
  8
0
 10
-438.33824753
 20
135.01699856
  0
VERTEX
  8
0
 10
-438.72855187
 20
130.16445864
  0
VERTEX
  8
0
 10
-439.09951140
 20
125.32076283
  0
VERTEX
  8
0
 10
-439.44866183
 20
120.49342725
  0
VERTEX
  8
0
 10
-439.77353890
 20
115.68996802
  0
VERTEX
  8
0
 10
-440.07167834
 20
110.91790125
  0
VERTEX
  8
0
 10
-440.34109782
 20
106.13104524
  0
VERTEX
  8
0
 10
-440.58333266
 20
101.28246441
  0
VERTEX
  8
0
 10
-440.80119506
 20
96.37854407
  0
VERTEX
  8
0
 10
-440.99749722
 20
91.42566957
  0
VERTEX
  8
0
 10
-441.17505136
 20
86.43022623
  0
VERTEX
  8
0
 10
-441.33666967
 20
81.39859937
  0
VERTEX
  8
0
 10
-441.62334764
 20
71.25233641
  0
VERTEX
  8
0
 10
-441.88002876
 20
61.03796329
  0
VERTEX
  8
0
 10
-442.12921066
 20
50.80656264
  0
VERTEX
  8
0
 10
-442.39339099
 20
40.60921706
  0
VERTEX
  8
0
 10
-442.69506738
 20
30.49700917
  0
VERTEX
  8
0
 10
-442.96450245
 20
20.89250682
  0
VERTEX
  8
0
 10
-443.25892356
 20
11.28845181
  0
VERTEX
  8
0
 10
-443.86275738
 20
-7.91938980
  0
VERTEX
  8
0
 10
-444.14218687
 20
-17.52371321
  0
VERTEX
  8
0
 10
-444.38663590
 20
-27.12866292
  0
VERTEX
  8
0
 10
-444.58111287
 20
-36.73450732
  0
VERTEX
  8
0
 10
-444.65492695
 20
-41.53784890
  0
VERTEX
  8
0
 10
-444.71062615
 20
-46.34151482
  0
VERTEX
  8
0
 10
-444.77724167
 20
-56.22988676
  0
VERTEX
  8
0
 10
-444.79572449
 20
-66.57532872
  0
VERTEX
  8
0
 10
-444.77013175
 20
-77.22136547
  0
VERTEX
  8
0
 10
-444.70452054
 20
-88.01152181
  0
VERTEX
  8
0
 10
-444.60294798
 20
-98.78932251
  0
VERTEX
  8
0
 10
-444.46947119
 20
-109.39829236
  0
VERTEX
  8
0
 10
-444.30814727
 20
-119.68195614
  0
VERTEX
  8
0
 10
-444.12303334
 20
-129.48383864
  0
VERTEX
  8
0
 10
-443.91910083
 20
-139.08703494
  0
VERTEX
  8
0
 10
-443.69417364
 20
-148.82478460
  0
VERTEX
  8
0
 10
-443.44158763
 20
-158.61582915
  0
VERTEX
  8
0
 10
-443.15467862
 20
-168.37891009
  0
VERTEX
  8
0
 10
-442.82678245
 20
-178.03276894
  0
VERTEX
  8
0
 10
-442.64538163
 20
-182.79334680
  0
VERTEX
  8
0
 10
-442.45123497
 20
-187.49614721
  0
VERTEX
  8
0
 10
-442.24350943
 20
-192.13101285
  0
VERTEX
  8
0
 10
-442.02137201
 20
-196.68778642
  0
VERTEX
  8
0
 10
-441.78398967
 20
-201.15631060
  0
VERTEX
  8
0
 10
-441.53052941
 20
-205.52642808
  0
VERTEX
  8
0
 10
-441.25492213
 20
-209.84293397
  0
VERTEX
  8
0
 10
-440.95343866
 20
-214.15752682
  0
VERTEX
  8
0
 10
-440.62875586
 20
-218.47040455
  0
VERTEX
  8
0
 10
-440.28355056
 20
-222.78176505
  0
VERTEX
  8
0
 10
-439.92049962
 20
-227.09180621
  0
VERTEX
  8
0
 10
-439.54227988
 20
-231.40072595
  0
VERTEX
  8
0
 10
-438.75104139
 20
-240.01599274
  0
VERTEX
  8
0
 10
-437.10432009
 20
-257.24177672
  0
VERTEX
  8
0
 10
-436.29166683
 20
-265.85546031
  0
VERTEX
  8
0
 10
-435.51470486
 20
-274.47178256
  0
VERTEX
  8
0
 10
-434.27491035
 20
-290.64497233
  0
VERTEX
  8
0
 10
-432.98431051
 20
-307.60893051
  0
VERTEX
  8
0
 10
-431.79532133
 20
-322.99135187
  0
VERTEX
  8
0
 10
-431.28656075
 20
-329.34814087
  0
VERTEX
  8
0
 10
-430.86035883
 20
-334.41993121
  0
VERTEX
  8
0
 10
-430.47193078
 20
-338.74946628
  0
VERTEX
  8
0
 10
-430.06641878
 20
-343.07742419
  0
VERTEX
  8
0
 10
-429.21991274
 20
-351.73006438
  0
VERTEX
  8
0
 10
-428.35238029
 20
-360.38076346
  0
VERTEX
  8
0
 10
-427.49536104
 20
-369.03243310
  0
VERTEX
  8
0
 10
-425.12406468
 20
-369.23636773
  0
VERTEX
  8
0
 10
-422.58957341
 20
-369.42256837
  0
VERTEX
  8
0
 10
-417.42267394
 20
-369.78432928
  0
VERTEX
  8
0
 10
-414.98609962
 20
-369.98117032
  0
VERTEX
  8
0
 10
-413.84736997
 20
-370.08823615
  0
VERTEX
  8
0
 10
-412.77799815
 20
-370.20283893
  0
VERTEX
  8
0
 10
-411.79022378
 20
-370.32630870
  0
VERTEX
  8
0
 10
-410.89628647
 20
-370.45997551
  0
VERTEX
  8
0
 10
-410.10842585
 20
-370.60516941
  0
VERTEX
  8
0
 10
-409.43888153
 20
-370.76322044
  0
VERTEX
  8
0
 10
-408.83462484
 20
-370.93593731
  0
VERTEX
  8
0
 10
-408.23453163
 20
-371.12383383
  0
VERTEX
  8
0
 10
-407.04722108
 20
-371.54271690
  0
VERTEX
  8
0
 10
-405.87772086
 20
-372.01497173
  0
VERTEX
  8
0
 10
-404.72680195
 20
-372.53570039
  0
VERTEX
  8
0
 10
-403.59523532
 20
-373.10000494
  0
VERTEX
  8
0
 10
-402.48379192
 20
-373.70298747
  0
VERTEX
  8
0
 10
-401.39324275
 20
-374.33975005
  0
VERTEX
  8
0
 10
-400.32435876
 20
-375.00539475
  0
VERTEX
  8
0
 10
-399.17197991
 20
-375.76541781
  0
VERTEX
  8
0
 10
-397.86421292
 20
-376.67503905
  0
VERTEX
  8
0
 10
-396.45172887
 20
-377.71394585
  0
VERTEX
  8
0
 10
-395.72205267
 20
-378.27553365
  0
VERTEX
  8
0
 10
-394.98519887
 20
-378.86182562
  0
VERTEX
  8
0
 10
-394.24750136
 20
-379.47028268
  0
VERTEX
  8
0
 10
-393.51529403
 20
-380.09836575
  0
VERTEX
  8
0
 10
-392.79491076
 20
-380.74353577
  0
VERTEX
  8
0
 10
-392.09268544
 20
-381.40325365
  0
VERTEX
  8
0
 10
-391.41495197
 20
-382.07498033
  0
VERTEX
  8
0
 10
-390.76804422
 20
-382.75617673
  0
VERTEX
  8
0
 10
-390.15829608
 20
-383.44430376
  0
VERTEX
  8
0
 10
-389.59204145
 20
-384.13682236
  0
VERTEX
  8
0
 10
-389.04744591
 20
-384.87080172
  0
VERTEX
  8
0
 10
-388.50051596
 20
-385.67796365
  0
VERTEX
  8
0
 10
-387.95434683
 20
-386.54774801
  0
VERTEX
  8
0
 10
-387.41203375
 20
-387.46959466
  0
VERTEX
  8
0
 10
-386.87667194
 20
-388.43294347
  0
VERTEX
  8
0
 10
-386.35135663
 20
-389.42723429
  0
VERTEX
  8
0
 10
-385.83918307
 20
-390.44190699
  0
VERTEX
  8
0
 10
-385.34324646
 20
-391.46640142
  0
VERTEX
  8
0
 10
-384.86664205
 20
-392.49015746
  0
VERTEX
  8
0
 10
-384.41246507
 20
-393.50261496
  0
VERTEX
  8
0
 10
-383.58377429
 20
-395.45139379
  0
VERTEX
  8
0
 10
-382.88193595
 20
-397.22825680
  0
VERTEX
  8
0
 10
-382.33171191
 20
-398.74872289
  0
VERTEX
  8
0
 10
-382.10973404
 20
-399.43377037
  0
VERTEX
  8
0
 10
-381.90853067
 20
-400.12441925
  0
VERTEX
  8
0
 10
-381.72595271
 20
-400.82009007
  0
VERTEX
  8
0
 10
-381.55985108
 20
-401.52020339
  0
VERTEX
  8
0
 10
-381.26848045
 20
-402.93143968
  0
VERTEX
  8
0
 10
-381.01722609
 20
-404.35349246
  0
VERTEX
  8
0
 10
-380.56629543
 20
-407.21150495
  0
VERTEX
  8
0
 10
-380.33223376
 20
-408.63819338
  0
VERTEX
  8
0
 10
-380.06951761
 20
-410.05715573
  0
VERTEX
  8
0
 10
-303.16862666
 20
-411.00962552
  0
VERTEX
  8
0
 10
-303.57642374
 20
83.63366728
  0
VERTEX
  8
0
 10
-304.03698777
 20
578.34952267
  0
SEQEND
  0
POLYLINE
  8
Default Layer
 66
   1
 39
0.000000
 70
    1
  0
VERTEX
  8
0
 10
-252.88622132
 20
592.22979651
  0
VERTEX
  8
0
 10
-252.71919199
 20
593.27392606
  0
VERTEX
  8
0
 10
-252.50164976
 20
594.53789140
  0
VERTEX
  8
0
 10
-252.26785198
 20
595.79893542
  0
VERTEX
  8
0
 10
-252.01785540
 20
597.05685644
  0
VERTEX
  8
0
 10
-251.75171676
 20
598.31145277
  0
VERTEX
  8
0
 10
-251.46949279
 20
599.56252272
  0
VERTEX
  8
0
 10
-251.17124025
 20
600.80986461
  0
VERTEX
  8
0
 10
-250.85701585
 20
602.05327674
  0
VERTEX
  8
0
 10
-250.52687636
 20
603.29255743
  0
VERTEX
  8
0
 10
-250.18087850
 20
604.52750499
  0
VERTEX
  8
0
 10
-249.81907901
 20
605.75791774
  0
VERTEX
  8
0
 10
-249.44153464
 20
606.98359397
  0
VERTEX
  8
0
 10
-249.04830212
 20
608.20433202
  0
VERTEX
  8
0
 10
-248.63943820
 20
609.41993019
  0
VERTEX
  8
0
 10
-248.21499961
 20
610.63018678
  0
VERTEX
  8
0
 10
-247.77504309
 20
611.83490013
  0
VERTEX
  8
0
 10
-247.31962539
 20
613.03386852
  0
VERTEX
  8
0
 10
-246.85794389
 20
614.20416067
  0
VERTEX
  8
0
 10
-246.38154386
 20
615.36851994
  0
VERTEX
  8
0
 10
-245.89052145
 20
616.52677505
  0
VERTEX
  8
0
 10
-245.38497278
 20
617.67875476
  0
VERTEX
  8
0
 10
-244.86499401
 20
618.82428779
  0
VERTEX
  8
0
 10
-244.33068127
 20
619.96320289
  0
VERTEX
  8
0
 10
-243.78213072
 20
621.09532879
  0
VERTEX
  8
0
 10
-243.21943848
 20
622.22049424
  0
VERTEX
  8
0
 10
-242.64270071
 20
623.33852797
  0
VERTEX
  8
0
 10
-242.05201355
 20
624.44925872
  0
VERTEX
  8
0
 10
-241.44747313
 20
625.55251523
  0
VERTEX
  8
0
 10
-240.82917561
 20
626.64812624
  0
VERTEX
  8
0
 10
-240.19721711
 20
627.73592048
  0
VERTEX
  8
0
 10
-239.55169380
 20
628.81572670
  0
VERTEX
  8
0
 10
-238.89270180
 20
629.88737363
  0
VERTEX
  8
0
 10
-238.22033726
 20
630.95069001
  0
VERTEX
  8
0
 10
-237.54067158
 20
631.99646526
  0
VERTEX
  8
0
 10
-236.84810880
 20
633.03372967
  0
VERTEX
  8
0
 10
-236.14276948
 20
634.06233815
  0
VERTEX
  8
0
 10
-235.42477420
 20
635.08214556
  0
VERTEX
  8
0
 10
-234.69424353
 20
636.09300681
  0
VERTEX
  8
0
 10
-233.95129803
 20
637.09477678
  0
VERTEX
  8
0
 10
-233.19605827
 20
638.08731036
  0
VERTEX
  8
0
 10
-232.42864483
 20
639.07046244
  0
VERTEX
  8
0
 10
-231.64917827
 20
640.04408790
  0
VERTEX
  8
0
 10
-230.85777916
 20
641.00804164
  0
VERTEX
  8
0
 10
-230.05456808
 20
641.96217853
  0
VERTEX
  8
0
 10
-229.23966558
 20
642.90635348
  0
VERTEX
  8
0
 10
-228.41319224
 20
643.84042136
  0
VERTEX
  8
0
 10
-227.57526862
 20
644.76423707
  0
VERTEX
  8
0
 10
-226.72601531
 20
645.67765549
  0
VERTEX
  8
0
 10
-225.86555286
 20
646.58053152
  0
VERTEX
  8
0
 10
-224.16660352
 20
648.29972891
  0
VERTEX
  8
0
 10
-222.42709869
 20
649.97784891
  0
VERTEX
  8
0
 10
-220.64806370
 20
651.61398268
  0
VERTEX
  8
0
 10
-218.83052390
 20
653.20722136
  0
VERTEX
  8
0
 10
-216.97550463
 20
654.75665608
  0
VERTEX
  8
0
 10
-215.08403123
 20
656.26137801
  0
VERTEX
  8
0
 10
-213.15712904
 20
657.72047828
  0
VERTEX
  8
0
 10
-211.19582341
 20
659.13304803
  0
VERTEX
  8
0
 10
-210.16442658
 20
659.84769844
  0
VERTEX
  8
0
 10
-209.12420518
 20
660.54943061
  0
VERTEX
  8
0
 10
-208.07532440
 20
661.23814227
  0
VERTEX
  8
0
 10
-207.01794941
 20
661.91373115
  0
VERTEX
  8
0
 10
-205.95224542
 20
662.57609500
  0
VERTEX
  8
0
 10
-204.87837759
 20
663.22513154
  0
VERTEX
  8
0
 10
-203.79651111
 20
663.86073852
  0
VERTEX
  8
0
 10
-202.70681118
 20
664.48281368
  0
VERTEX
  8
0
 10
-201.60944296
 20
665.09125475
  0
VERTEX
  8
0
 10
-200.50457165
 20
665.68595946
  0
VERTEX
  8
0
 10
-199.39236244
 20
666.26682556
  0
VERTEX
  8
0
 10
-198.27298049
 20
666.83375079
  0
VERTEX
  8
0
 10
-197.14659101
 20
667.38663287
  0
VERTEX
  8
0
 10
-196.01335917
 20
667.92536954
  0
VERTEX
  8
0
 10
-194.87345016
 20
668.44985855
  0
VERTEX
  8
0
 10
-193.72702916
 20
668.95999762
  0
VERTEX
  8
0
 10
-192.55482403
 20
669.46390052
  0
VERTEX
  8
0
 10
-191.37628434
 20
669.95277371
  0
VERTEX
  8
0
 10
-190.19160539
 20
670.42655050
  0
VERTEX
  8
0
 10
-189.00098247
 20
670.88516421
  0
VERTEX
  8
0
 10
-187.80461087
 20
671.32854813
  0
VERTEX
  8
0
 10
-186.60268587
 20
671.75663558
  0
VERTEX
  8
0
 10
-185.39540277
 20
672.16935986
  0
VERTEX
  8
0
 10
-184.18295686
 20
672.56665427
  0
VERTEX
  8
0
 10
-182.96554342
 20
672.94845213
  0
VERTEX
  8
0
 10
-181.74335776
 20
673.31468673
  0
VERTEX
  8
0
 10
-180.51659516
 20
673.66529139
  0
VERTEX
  8
0
 10
-179.28545090
 20
674.00019942
  0
VERTEX
  8
0
 10
-178.05012029
 20
674.31934411
  0
VERTEX
  8
0
 10
-176.81079861
 20
674.62265877
  0
VERTEX
  8
0
 10
-175.56768115
 20
674.91007671
  0
VERTEX
  8
0
 10
-174.32096321
 20
675.18153124
  0
VERTEX
  8
0
 10
-173.08359404
 20
675.43454353
  0
VERTEX
  8
0
 10
-171.84317279
 20
675.67200199
  0
VERTEX
  8
0
 10
-170.59988629
 20
675.89386848
  0
VERTEX
  8
0
 10
-169.35392136
 20
676.10010485
  0
VERTEX
  8
0
 10
-168.10546485
 20
676.29067296
  0
VERTEX
  8
0
 10
-166.85470357
 20
676.46553464
  0
VERTEX
  8
0
 10
-165.60182437
 20
676.62465176
  0
VERTEX
  8
0
 10
-164.34701408
 20
676.76798615
  0
VERTEX
  8
0
 10
-163.07338273
 20
676.89721453
  0
VERTEX
  8
0
 10
-161.79826349
 20
677.01036859
  0
VERTEX
  8
0
 10
-160.52182033
 20
677.10748161
  0
VERTEX
  8
0
 10
-159.24421723
 20
677.18858689
  0
VERTEX
  8
0
 10
-157.95577555
 20
677.25349045
  0
VERTEX
  8
0
 10
-156.66662570
 20
677.30299670
  0
VERTEX
  8
0
 10
-155.04432971
 20
677.34071256
  0
VERTEX
  8
0
 10
-153.42164710
 20
677.35402472
  0
VERTEX
  8
0
 10
-151.75602208
 20
677.34046108
  0
VERTEX
  8
0
 10
-150.09035554
 20
677.29959386
  0
VERTEX
  8
0
 10
-148.41829065
 20
677.23115861
  0
VERTEX
  8
0
 10
-146.73347057
 20
677.13489090
  0
VERTEX
  8
0
 10
-125.39951370
 20
479.99447639
  0
VERTEX
  8
0
 10
-81.10325318
 20
70.66660470
  0
VERTEX
  8
0
 10
-224.46295969
 20
-412.14952690
  0
VERTEX
  8
0
 10
-261.10325318
 20
-412.14775887
  0
VERTEX
  8
0
 10
-261.10325318
 20
587.88229771
  0
VERTEX
  8
0
 10
-253.38313247
 20
591.82870536
  0
VERTEX
  8
0
 10
-252.88622132
 20
592.22979651
  0
SEQEND
  0
POLYLINE
  8
Default Layer
 66
   1
 39
0.000000
 70
    0
  0
VERTEX
  8
0
 10
-468.16713814
 20
1428.53606789
  0
VERTEX
  8
0
 10
-468.16713814
 20
1682.53606789
  0
SEQEND
  0
POLYLINE
  8
Default Layer
 66
   1
 39
0.000000
 70
    0
  0
VERTEX
  8
0
 10
-298.83380481
 20
1682.53606789
  0
VERTEX
  8
0
 10
-425.83380481
 20
1555.53606789
  0
VERTEX
  8
0
 10
-468.16713814
 20
1555.53606789
  0
SEQEND
  0
POLYLINE
  8
Default Layer
 66
   1
 39
0.000000
 70
    0
  0
VERTEX
  8
0
 10
-425.83380481
 20
1555.53606789
  0
VERTEX
  8
0
 10
-298.83380481
 20
1428.53606789
  0
SEQEND
  0
POLYLINE
  8
Default Layer
 66
   1
 39
0.000000
 70
    0
  0
VERTEX
  8
0
 10
-214.16713814
 20
1428.53606789
  0
VERTEX
  8
0
 10
-214.16713814
 20
1513.20273456
  0
VERTEX
  8
0
 10
-129.50047148
 20
1682.53606789
  0
VERTEX
  8
0
 10
-44.83380481
 20
1513.20273456
  0
VERTEX
  8
0
 10
-44.83380481
 20
1428.53606789
  0
SEQEND
  0
POLYLINE
  8
Default Layer
 66
   1
 39
0.000000
 70
    0
  0
VERTEX
  8
0
 10
-214.16713814
 20
1513.20273456
  0
VERTEX
  8
0
 10
-44.83380481
 20
1513.20273456
  0
SEQEND
  0
POLYLINE
  8
Default Layer
 66
   1
 39
0.000000
 70
    0
  0
VERTEX
  8
0
 10
39.83286186
 20
1428.53606789
  0
VERTEX
  8
0
 10
39.83286186
 20
1682.53606789
  0
VERTEX
  8
0
 10
209.16619519
 20
1428.53606789
  0
VERTEX
  8
0
 10
209.16619519
 20
1682.53606789
  0
SEQEND
  0
POLYLINE
  8
Default Layer
 66
   1
 39
0.000000
 70
    0
  0
VERTEX
  8
0
 10
420.83286186
 20
1555.53606789
  0
VERTEX
  8
0
 10
463.16619519
 20
1555.53606789
  0
VERTEX
  8
0
 10
463.16619519
 20
1428.53606789
  0
VERTEX
  8
0
 10
336.16619519
 20
1428.53606789
  0
VERTEX
  8
0
 10
293.83286186
 20
1470.86940123
  0
VERTEX
  8
0
 10
293.83286186
 20
1640.20273456
  0
VERTEX
  8
0
 10
336.16619519
 20
1682.53606789
  0
VERTEX
  8
0
 10
463.16619519
 20
1682.53606789
  0
SEQEND
  0
POLYLINE
  8
Default Layer
 66
   1
 39
0.000000
 70
    1
  0
VERTEX
  8
0
 10
547.83286186
 20
1428.53606789
  0
VERTEX
  8
0
 10
547.83286186
 20
1682.53606789
  0
VERTEX
  8
0
 10
717.16619519
 20
1682.53606789
  0
VERTEX
  8
0
 10
717.16619519
 20
1428.53606789
  0
VERTEX
  8
0
 10
547.83286186
 20
1428.53606789
  0
SEQEND
  0
POLYLINE
  8
Default Layer
 66
   1
 39
0.000000
 70
    1
  0
VERTEX
  8
0
 10
801.83286186
 20
1428.53606789
  0
VERTEX
  8
0
 10
801.83286186
 20
1682.53606789
  0
VERTEX
  8
0
 10
971.16619519
 20
1682.53606789
  0
VERTEX
  8
0
 10
971.16619519
 20
1428.53606789
  0
VERTEX
  8
0
 10
801.83286186
 20
1428.53606789
  0
SEQEND
  0
POLYLINE
  8
Default Layer
 66
   1
 39
0.000000
 70
    0
  0
VERTEX
  8
0
 10
1309.83286186
 20
1640.20273456
  0
VERTEX
  8
0
 10
1352.16619519
 20
1682.53606789
  0
VERTEX
  8
0
 10
1436.83286186
 20
1682.53606789
  0
VERTEX
  8
0
 10
1479.16619519
 20
1640.20273456
  0
VERTEX
  8
0
 10
1479.16619519
 20
1597.86940123
  0
VERTEX
  8
0
 10
1436.83286186
 20
1555.53606789
  0
VERTEX
  8
0
 10
1352.16619519
 20
1555.53606789
  0
VERTEX
  8
0
 10
1309.83286186
 20
1513.20273456
  0
VERTEX
  8
0
 10
1309.83286186
 20
1428.53606789
  0
VERTEX
  8
0
 10
1479.16619519
 20
1428.53606789
  0
SEQEND
  0
POLYLINE
  8
Default Layer
 66
   1
 39
0.000000
 70
    1
  0
VERTEX
  8
0
 10
1606.16619519
 20
1428.53606789
  0
VERTEX
  8
0
 10
1563.83286186
 20
1470.86940123
  0
VERTEX
  8
0
 10
1563.83286186
 20
1640.20273456
  0
VERTEX
  8
0
 10
1606.16619519
 20
1682.53606789
  0
VERTEX
  8
0
 10
1648.49952852
 20
1682.53606789
  0
VERTEX
  8
0
 10
1690.83286186
 20
1640.20273456
  0
VERTEX
  8
0
 10
1690.83286186
 20
1470.86940123
  0
VERTEX
  8
0
 10
1648.49952852
 20
1428.53606789
  0
VERTEX
  8
0
 10
1606.16619519
 20
1428.53606789
  0
SEQEND
  0
POLYLINE
  8
Default Layer
 66
   1
 39
0.000000
 70
    1
  0
VERTEX
  8
0
 10
1817.83286186
 20
1428.53606789
  0
VERTEX
  8
0
 10
1775.49952852
 20
1470.86940123
  0
VERTEX
  8
0
 10
1775.49952852
 20
1640.20273456
  0
VERTEX
  8
0
 10
1817.83286186
 20
1682.53606789
  0
VERTEX
  8
0
 10
1860.16619519
 20
1682.53606789
  0
VERTEX
  8
0
 10
1902.49952852
 20
1640.20273456
  0
VERTEX
  8
0
 10
1902.49952852
 20
1470.86940123
  0
VERTEX
  8
0
 10
1860.16619519
 20
1428.53606789
  0
VERTEX
  8
0
 10
1817.83286186
 20
1428.53606789
  0
SEQEND
  0
POLYLINE
  8
Default Layer
 66
   1
 39
0.000000
 70
    0
  0
VERTEX
  8
0
 10
2029.49952852
 20
1428.53606789
  0
VERTEX
  8
0
 10
1987.16619519
 20
1470.86940123
  0
VERTEX
  8
0
 10
1987.16619519
 20
1513.20273456
  0
VERTEX
  8
0
 10
2029.49952852
 20
1555.53606789
  0
VERTEX
  8
0
 10
2114.16619519
 20
1555.53606789
  0
VERTEX
  8
0
 10
2156.49952852
 20
1597.86940123
  0
VERTEX
  8
0
 10
2156.49952852
 20
1640.20273456
  0
VERTEX
  8
0
 10
2114.16619519
 20
1682.53606789
  0
VERTEX
  8
0
 10
2029.49952852
 20
1682.53606789
  0
VERTEX
  8
0
 10
1987.16619519
 20
1640.20273456
  0
VERTEX
  8
0
 10
1987.16619519
 20
1597.86940123
  0
VERTEX
  8
0
 10
2029.49952852
 20
1555.53606789
  0
SEQEND
  0
POLYLINE
  8
Default Layer
 66
   1
 39
0.000000
 70
    0
  0
VERTEX
  8
0
 10
2114.16619519
 20
1555.53606789
  0
VERTEX
  8
0
 10
2156.49952852
 20
1513.20273456
  0
VERTEX
  8
0
 10
2156.49952852
 20
1470.86940123
  0
VERTEX
  8
0
 10
2114.16619519
 20
1428.53606789
  0
VERTEX
  8
0
 10
2029.49952852
 20
1428.53606789
  0
SEQEND
  0
POLYLINE
  8
Default Layer
 66
   1
 39
0.000000
 70
    0
  0
VERTEX
  8
0
 10
2241.16619519
 20
1682.53606789
  0
VERTEX
  8
0
 10
2368.16619519
 20
1555.53606789
  0
VERTEX
  8
0
 10
2241.16619519
 20
1428.53606789
  0
SEQEND
  0
POLYLINE
  8
Default Layer
 66
   1
 39
0.000000
 70
    0
  0
VERTEX
  8
0
 10
-23.66713814
 20
974.96463932
  0
VERTEX
  8
0
 10
103.33286186
 20
974.96463932
  0
VERTEX
  8
0
 10
145.66619519
 20
1017.29797265
  0
VERTEX
  8
0
 10
145.66619519
 20
1059.63130599
  0
VERTEX
  8
0
 10
103.33286186
 20
1101.96463932
  0
VERTEX
  8
0
 10
18.66619519
 20
1101.96463932
  0
SEQEND
  0
POLYLINE
  8
Default Layer
 66
   1
 39
0.000000
 70
    0
  0
VERTEX
  8
0
 10
103.33286186
 20
1101.96463932
  0
VERTEX
  8
0
 10
145.66619519
 20
1144.29797265
  0
VERTEX
  8
0
 10
145.66619519
 20
1186.63130599
  0
VERTEX
  8
0
 10
103.33286186
 20
1228.96463932
  0
VERTEX
  8
0
 10
-23.66713814
 20
1228.96463932
  0
SEQEND
  0
POLYLINE
  8
Default Layer
 66
   1
 39
0.000000
 70
    0
  0
VERTEX
  8
0
 10
18.66619519
 20
1228.96463932
  0
VERTEX
  8
0
 10
18.66619519
 20
974.96463932
  0
SEQEND
  0
POLYLINE
  8
Default Layer
 66
   1
 39
0.000000
 70
    0
  0
VERTEX
  8
0
 10
230.33286186
 20
1228.96463932
  0
VERTEX
  8
0
 10
230.33286186
 20
1017.29797265
  0
VERTEX
  8
0
 10
272.66619519
 20
974.96463932
  0
VERTEX
  8
0
 10
357.33286186
 20
974.96463932
  0
VERTEX
  8
0
 10
399.66619519
 20
1017.29797265
  0
VERTEX
  8
0
 10
399.66619519
 20
1228.96463932
  0
SEQEND
  0
POLYLINE
  8
Default Layer
 66
   1
 39
0.000000
 70
    0
  0
VERTEX
  8
0
 10
484.33286186
 20
1228.96463932
  0
VERTEX
  8
0
 10
484.33286186
 20
974.96463932
  0
VERTEX
  8
0
 10
653.66619519
 20
974.96463932
  0
SEQEND
  0
POLYLINE
  8
Default Layer
 66
   1
 39
0.000000
 70
    0
  0
VERTEX
  8
0
 10
738.33286186
 20
974.96463932
  0
VERTEX
  8
0
 10
738.33286186
 20
1228.96463932
  0
SEQEND
  0
POLYLINE
  8
Default Layer
 66
   1
 39
0.000000
 70
    0
  0
VERTEX
  8
0
 10
907.66619519
 20
1228.96463932
  0
VERTEX
  8
0
 10
780.66619519
 20
1101.96463932
  0
VERTEX
  8
0
 10
738.33286186
 20
1101.96463932
  0
SEQEND
  0
POLYLINE
  8
Default Layer
 66
   1
 39
0.000000
 70
    0
  0
VERTEX
  8
0
 10
780.66619519
 20
1101.96463932
  0
VERTEX
  8
0
 10
907.66619519
 20
974.96463932
  0
SEQEND
  0
POLYLINE
  8
Default Layer
 66
   1
 39
0.000000
 70
    0
  0
VERTEX
  8
0
 10
992.33286186
 20
974.96463932
  0
VERTEX
  8
0
 10
992.33286186
 20
1228.96463932
  0
SEQEND
  0
POLYLINE
  8
Default Layer
 66
   1
 39
0.000000
 70
    0
  0
VERTEX
  8
0
 10
992.33286186
 20
1101.96463932
  0
VERTEX
  8
0
 10
1161.66619519
 20
1101.96463932
  0
SEQEND
  0
POLYLINE
  8
Default Layer
 66
   1
 39
0.000000
 70
    0
  0
VERTEX
  8
0
 10
1161.66619519
 20
1228.96463932
  0
VERTEX
  8
0
 10
1161.66619519
 20
974.96463932
  0
SEQEND
  0
POLYLINE
  8
Default Layer
 66
   1
 39
0.000000
 70
    0
  0
VERTEX
  8
0
 10
1246.33286186
 20
974.96463932
  0
VERTEX
  8
0
 10
1246.33286186
 20
1228.96463932
  0
VERTEX
  8
0
 10
1415.66619519
 20
1228.96463932
  0
SEQEND
  0
POLYLINE
  8
Default Layer
 66
   1
 39
0.000000
 70
    0
  0
VERTEX
  8
0
 10
1246.33286186
 20
1101.96463932
  0
VERTEX
  8
0
 10
1330.99952852
 20
1101.96463932
  0
SEQEND
  0
POLYLINE
  8
Default Layer
 66
   1
 39
0.000000
 70
    0
  0
VERTEX
  8
0
 10
1246.33286186
 20
974.96463932
  0
VERTEX
  8
0
 10
1415.66619519
 20
974.96463932
  0
SEQEND
  0
POLYLINE
  8
Default Layer
 66
   1
 39
0.000000
 70
    0
  0
VERTEX
  8
0
 10
1500.33286186
 20
974.96463932
  0
VERTEX
  8
0
 10
1500.33286186
 20
1059.63130599
  0
VERTEX
  8
0
 10
1584.99952852
 20
1228.96463932
  0
VERTEX
  8
0
 10
1669.66619519
 20
1059.63130599
  0
VERTEX
  8
0
 10
1669.66619519
 20
974.96463932
  0
SEQEND
  0
POLYLINE
  8
Default Layer
 66
   1
 39
0.000000
 70
    0
  0
VERTEX
  8
0
 10
1500.33286186
 20
1059.63130599
  0
VERTEX
  8
0
 10
1669.66619519
 20
1059.63130599
  0
SEQEND
  0
POLYLINE
  8
Default Layer
 66
   1
 39
0.000000
 70
    0
  0
VERTEX
  8
0
 10
1754.33286186
 20
974.96463932
  0
VERTEX
  8
0
 10
1881.33286186
 20
974.96463932
  0
VERTEX
  8
0
 10
1923.66619519
 20
1017.29797265
  0
VERTEX
  8
0
 10
1923.66619519
 20
1186.63130599
  0
VERTEX
  8
0
 10
1881.33286186
 20
1228.96463932
  0
VERTEX
  8
0
 10
1754.33286186
 20
1228.96463932
  0
SEQEND
  0
POLYLINE
  8
Default Layer
 66
   1
 39
0.000000
 70
    0
  0
VERTEX
  8
0
 10
1796.66619519
 20
1228.96463932
  0
VERTEX
  8
0
 10
1796.66619519
 20
974.96463932
  0
SEQEND
  0
ENDSEC
  0
EOF
