  0
SECTION
  2
HEADER
  9
$ACADVER
  1
AC1009
  9
$DWGCODEPAGE
  3
ansi_1252
  9
$INSBASE
 10
0.0
 20
0.0
 30
0.0
  9
$EXTMIN
 10
6.232420788554265
 20
329.6909845809737
 30
0.0
  9
$EXTMAX
 10
4375.765286840001
 20
5308.77183334
 30
0.0
  9
$LIMMIN
 10
0.0
 20
0.0
  9
$LIMMAX
 10
12.0
 20
9.0
  9
$ORTHOMODE
 70
     0
  9
$REGENMODE
 70
     1
  9
$FILLMODE
 70
     1
  9
$QTEXTMODE
 70
     0
  9
$MIRRTEXT
 70
     1
  9
$DRAGMODE
 70
     2
  9
$LTSCALE
 40
1.0
  9
$OSMODE
 70
    37
  9
$ATTMODE
 70
     1
  9
$TEXTSIZE
 40
0.2
  9
$TRACEWID
 40
0.05
  9
$TEXTSTYLE
  7
STANDARD
  9
$CLAYER
  8
0
  9
$CELTYPE
  6
BYLAYER
  9
$CECOLOR
 62
   256
  9
$DIMSCALE
 40
1.0
  9
$DIMASZ
 40
0.18
  9
$DIMEXO
 40
0.0625
  9
$DIMDLI
 40
0.38
  9
$DIMRND
 40
0.0
  9
$DIMDLE
 40
0.0
  9
$DIMEXE
 40
0.18
  9
$DIMTP
 40
0.0
  9
$DIMTM
 40
0.0
  9
$DIMTXT
 40
0.18
  9
$DIMCEN
 40
0.09
  9
$DIMTSZ
 40
0.0
  9
$DIMTOL
 70
     0
  9
$DIMLIM
 70
     0
  9
$DIMTIH
 70
     1
  9
$DIMTOH
 70
     1
  9
$DIMSE1
 70
     0
  9
$DIMSE2
 70
     0
  9
$DIMTAD
 70
     0
  9
$DIMZIN
 70
     0
  9
$DIMBLK
  1

  9
$DIMASO
 70
     1
  9
$DIMSHO
 70
     1
  9
$DIMPOST
  1

  9
$DIMAPOST
  1

  9
$DIMALT
 70
     0
  9
$DIMALTD
 70
     2
  9
$DIMALTF
 40
25.4
  9
$DIMLFAC
 40
1.0
  9
$DIMTOFL
 70
     0
  9
$DIMTVP
 40
0.0
  9
$DIMTIX
 70
     0
  9
$DIMSOXD
 70
     0
  9
$DIMSAH
 70
     0
  9
$DIMBLK1
  1

  9
$DIMBLK2
  1

  9
$DIMSTYLE
  2
STANDARD
  9
$DIMCLRD
 70
     0
  9
$DIMCLRE
 70
     0
  9
$DIMCLRT
 70
     0
  9
$DIMTFAC
 40
1.0
  9
$DIMGAP
 40
0.09
  9
$LUNITS
 70
     2
  9
$LUPREC
 70
     4
  9
$SKETCHINC
 40
0.1
  9
$FILLETRAD
 40
0.5
  9
$AUNITS
 70
     0
  9
$AUPREC
 70
     0
  9
$MENU
  1
.
  9
$ELEVATION
 40
0.0
  9
$PELEVATION
 40
0.0
  9
$THICKNESS
 40
0.0
  9
$LIMCHECK
 70
     0
  9
$CHAMFERA
 40
0.0
  9
$CHAMFERB
 40
0.0
  9
$SKPOLY
 70
     0
  9
$TDCREATE
 40
2454910.5
  9
$TDUPDATE
 40
2458379.750594109
  9
$TDINDWG
 40
0.0000000116
  9
$TDUSRTIMER
 40
0.0000000116
  9
$USRTIMER
 70
     1
  9
$ANGBASE
 50
0.0
  9
$ANGDIR
 70
     0
  9
$PDMODE
 70
     0
  9
$PDSIZE
 40
0.0
  9
$PLINEWID
 40
0.0
  9
$COORDS
 70
     1
  9
$SPLFRAME
 70
     0
  9
$SPLINETYPE
 70
     6
  9
$SPLINESEGS
 70
     8
  9
$ATTDIA
 70
     0
  9
$ATTREQ
 70
     1
  9
$HANDLING
 70
     1
  9
$HANDSEED
  5
807
  9
$SURFTAB1
 70
     6
  9
$SURFTAB2
 70
     6
  9
$SURFTYPE
 70
     6
  9
$SURFU
 70
     6
  9
$SURFV
 70
     6
  9
$UCSNAME
  2

  9
$UCSORG
 10
0.0
 20
0.0
 30
0.0
  9
$UCSXDIR
 10
1.0
 20
0.0
 30
0.0
  9
$UCSYDIR
 10
0.0
 20
1.0
 30
0.0
  9
$PUCSNAME
  2

  9
$PUCSORG
 10
0.0
 20
0.0
 30
0.0
  9
$PUCSXDIR
 10
1.0
 20
0.0
 30
0.0
  9
$PUCSYDIR
 10
0.0
 20
1.0
 30
0.0
  9
$USERI1
 70
     0
  9
$USERI2
 70
     0
  9
$USERI3
 70
     0
  9
$USERI4
 70
     0
  9
$USERI5
 70
     0
  9
$USERR1
 40
0.0
  9
$USERR2
 40
0.0
  9
$USERR3
 40
0.0
  9
$USERR4
 40
0.0
  9
$USERR5
 40
0.0
  9
$WORLDVIEW
 70
     1
  9
$SHADEDGE
 70
     3
  9
$SHADEDIF
 70
    70
  9
$TILEMODE
 70
     1
  9
$MAXACTVP
 70
    64
  9
$PLIMCHECK
 70
     0
  9
$PEXTMIN
 10
1.000000000000000E+20
 20
1.000000000000000E+20
 30
1.000000000000000E+20
  9
$PEXTMAX
 10
-1.000000000000000E+20
 20
-1.000000000000000E+20
 30
-1.000000000000000E+20
  9
$PLIMMIN
 10
0.0
 20
0.0
  9
$PLIMMAX
 10
12.0
 20
9.0
  9
$UNITMODE
 70
     0
  9
$VISRETAIN
 70
     1
  9
$PLINEGEN
 70
     0
  9
$PSLTSCALE
 70
     1
  0
ENDSEC
  0
SECTION
  2
TABLES
  0
TABLE
  2
VPORT
 70
     1
  0
VPORT
  2
*ACTIVE
 70
     0
 10
0.0
 20
0.0
 11
1.0
 21
1.0
 12
10.42990654205607
 22
4.5
 13
0.0
 23
0.0
 14
0.5
 24
0.5
 15
0.5
 25
0.5
 16
0.0
 26
0.0
 36
1.0
 17
0.0
 27
0.0
 37
0.0
 40
9.0
 41
1.972972972850329
 42
50.0
 43
0.0
 44
0.0
 50
0.0
 51
0.0
 71
     0
 72
   100
 73
     1
 74
     3
 75
     0
 76
     0
 77
     0
 78
     0
  0
ENDTAB
  0
TABLE
  2
LTYPE
 70
     2
  0
LTYPE
  2
CONTINUOUS
 70
     0
  3
Solid line
 72
    65
 73
     0
 40
0.0
  0
LTYPE
  2
CONTINUOUS2
 70
     0
  3
Solid Line
 72
    65
 73
     0
 40
0.0
  0
ENDTAB
  0
TABLE
  2
LAYER
 70
     2
  0
LAYER
  2
0
 70
     0
 62
     7
  6
CONTINUOUS
  0
LAYER
  2
DEFAULT_LAYER
 70
     0
 62
     1
  6
CONTINUOUS
  0
ENDTAB
  0
TABLE
  2
STYLE
 70
     1
  0
STYLE
  2
STANDARD
 70
     0
 40
0.0
 41
1.0
 50
0.0
 71
     0
 42
0.2
  3
txt
  4

  0
ENDTAB
  0
TABLE
  2
VIEW
 70
     0
  0
ENDTAB
  0
TABLE
  2
UCS
 70
     0
  0
ENDTAB
  0
TABLE
  2
APPID
 70
     1
  0
APPID
  2
ACAD
 70
     0
  0
ENDTAB
  0
TABLE
  2
DIMSTYLE
 70
     1
  0
DIMSTYLE
  2
STANDARD
 70
     0
  3

  4

  5

  6

  7

 40
1.0
 41
0.18
 42
0.0625
 43
0.38
 44
0.18
 45
0.0
 46
0.0
 47
0.0
 48
0.0
140
0.18
141
0.09
142
0.0
143
25.4
144
1.0
145
0.0
146
1.0
147
0.09
 71
     0
 72
     0
 73
     1
 74
     1
 75
     0
 76
     0
 77
     0
 78
     0
170
     0
171
     2
172
     0
173
     0
174
     0
175
     0
176
     0
177
     0
178
     0
  0
ENDTAB
  0
ENDSEC
  0
SECTION
  2
BLOCKS
  0
BLOCK
  8
0
  2
$MODEL_SPACE
 70
     0
 10
0.0
 20
0.0
 30
0.0
  3
$MODEL_SPACE
  1

  0
ENDBLK
  5
21
  8
0
  0
BLOCK
 67
     1
  8
0
  2
$PAPER_SPACE
 70
     0
 10
0.0
 20
0.0
 30
0.0
  3
$PAPER_SPACE
  1

  0
ENDBLK
  5
1D
 67
     1
  8
0
  0
ENDSEC
  0
SECTION
  2
ENTITIES
  0
POLYLINE
  5
70
  8
DEFAULT_LAYER
 66
     1
 10
0.0
 20
0.0
 30
0.0
  0
VERTEX
  5
FB
  8
DEFAULT_LAYER
 10
546.39563419
 20
5308.77183334
 30
0.0
  0
VERTEX
  5
FC
  8
DEFAULT_LAYER
 10
698.79563419
 20
5308.77183334
 30
0.0
  0
SEQEND
  5
783
  8
DEFAULT_LAYER
  0
POLYLINE
  5
71
  8
DEFAULT_LAYER
 66
     1
 10
0.0
 20
0.0
 30
0.0
  0
VERTEX
  5
FD
  8
DEFAULT_LAYER
 10
622.5956341899999
 20
5308.77183334
 30
0.0
  0
VERTEX
  5
FE
  8
DEFAULT_LAYER
 10
622.5956341899999
 20
5080.17183334
 30
0.0
  0
SEQEND
  5
784
  8
DEFAULT_LAYER
  0
POLYLINE
  5
72
  8
DEFAULT_LAYER
 66
     1
 10
0.0
 20
0.0
 30
0.0
  0
VERTEX
  5
FF
  8
DEFAULT_LAYER
 10
774.99563419
 20
5080.17183334
 30
0.0
  0
VERTEX
  5
100
  8
DEFAULT_LAYER
 10
774.99563419
 20
5308.77183334
 30
0.0
  0
VERTEX
  5
101
  8
DEFAULT_LAYER
 10
889.29563419
 20
5308.77183334
 30
0.0
  0
VERTEX
  5
102
  8
DEFAULT_LAYER
 10
927.3956341899999
 20
5270.67183334
 30
0.0
  0
VERTEX
  5
103
  8
DEFAULT_LAYER
 10
927.3956341899999
 20
5232.57183334
 30
0.0
  0
VERTEX
  5
104
  8
DEFAULT_LAYER
 10
889.29563419
 20
5194.47183334
 30
0.0
  0
VERTEX
  5
105
  8
DEFAULT_LAYER
 10
774.99563419
 20
5194.47183334
 30
0.0
  0
SEQEND
  5
785
  8
DEFAULT_LAYER
  0
POLYLINE
  5
73
  8
DEFAULT_LAYER
 66
     1
 10
0.0
 20
0.0
 30
0.0
  0
VERTEX
  5
106
  8
DEFAULT_LAYER
 10
813.0956341899999
 20
5194.47183334
 30
0.0
  0
VERTEX
  5
107
  8
DEFAULT_LAYER
 10
927.3956341899999
 20
5080.17183334
 30
0.0
  0
SEQEND
  5
786
  8
DEFAULT_LAYER
  0
POLYLINE
  5
74
  8
DEFAULT_LAYER
 66
     1
 10
0.0
 20
0.0
 30
0.0
  0
VERTEX
  5
108
  8
DEFAULT_LAYER
 10
1003.59563419
 20
5080.17183334
 30
0.0
  0
VERTEX
  5
109
  8
DEFAULT_LAYER
 10
1003.59563419
 20
5156.37183334
 30
0.0
  0
VERTEX
  5
10A
  8
DEFAULT_LAYER
 10
1079.79563419
 20
5308.77183334
 30
0.0
  0
VERTEX
  5
10B
  8
DEFAULT_LAYER
 10
1155.99563419
 20
5156.37183334
 30
0.0
  0
VERTEX
  5
10C
  8
DEFAULT_LAYER
 10
1155.99563419
 20
5080.17183334
 30
0.0
  0
SEQEND
  5
787
  8
DEFAULT_LAYER
  0
POLYLINE
  5
75
  8
DEFAULT_LAYER
 66
     1
 10
0.0
 20
0.0
 30
0.0
  0
VERTEX
  5
10D
  8
DEFAULT_LAYER
 10
1003.59563419
 20
5156.37183334
 30
0.0
  0
VERTEX
  5
10E
  8
DEFAULT_LAYER
 10
1155.99563419
 20
5156.37183334
 30
0.0
  0
SEQEND
  5
788
  8
DEFAULT_LAYER
  0
POLYLINE
  5
76
  8
DEFAULT_LAYER
 66
     1
 10
0.0
 20
0.0
 30
0.0
  0
VERTEX
  5
10F
  8
DEFAULT_LAYER
 10
1232.19563419
 20
5080.17183334
 30
0.0
  0
VERTEX
  5
110
  8
DEFAULT_LAYER
 10
1232.19563419
 20
5308.77183334
 30
0.0
  0
VERTEX
  5
111
  8
DEFAULT_LAYER
 10
1384.59563419
 20
5080.17183334
 30
0.0
  0
VERTEX
  5
112
  8
DEFAULT_LAYER
 10
1384.59563419
 20
5308.77183334
 30
0.0
  0
SEQEND
  5
789
  8
DEFAULT_LAYER
  0
POLYLINE
  5
77
  8
DEFAULT_LAYER
 66
     1
 10
0.0
 20
0.0
 30
0.0
  0
VERTEX
  5
113
  8
DEFAULT_LAYER
 10
1460.79563419
 20
5118.27183334
 30
0.0
  0
VERTEX
  5
114
  8
DEFAULT_LAYER
 10
1498.89563419
 20
5080.17183334
 30
0.0
  0
VERTEX
  5
115
  8
DEFAULT_LAYER
 10
1575.09563419
 20
5080.17183334
 30
0.0
  0
VERTEX
  5
116
  8
DEFAULT_LAYER
 10
1613.19563419
 20
5118.27183334
 30
0.0
  0
VERTEX
  5
117
  8
DEFAULT_LAYER
 10
1460.79563419
 20
5270.67183334
 30
0.0
  0
VERTEX
  5
118
  8
DEFAULT_LAYER
 10
1498.89563419
 20
5308.77183334
 30
0.0
  0
VERTEX
  5
119
  8
DEFAULT_LAYER
 10
1575.09563419
 20
5308.77183334
 30
0.0
  0
VERTEX
  5
11A
  8
DEFAULT_LAYER
 10
1613.19563419
 20
5270.67183334
 30
0.0
  0
SEQEND
  5
78A
  8
DEFAULT_LAYER
  0
POLYLINE
  5
78
  8
DEFAULT_LAYER
 66
     1
 10
0.0
 20
0.0
 30
0.0
  0
VERTEX
  5
11B
  8
DEFAULT_LAYER
 10
1689.39563419
 20
5308.77183334
 30
0.0
  0
VERTEX
  5
11C
  8
DEFAULT_LAYER
 10
1765.59563419
 20
5308.77183334
 30
0.0
  0
SEQEND
  5
78B
  8
DEFAULT_LAYER
  0
POLYLINE
  5
79
  8
DEFAULT_LAYER
 66
     1
 10
0.0
 20
0.0
 30
0.0
  0
VERTEX
  5
11D
  8
DEFAULT_LAYER
 10
1727.49563419
 20
5308.77183334
 30
0.0
  0
VERTEX
  5
11E
  8
DEFAULT_LAYER
 10
1727.49563419
 20
5080.17183334
 30
0.0
  0
SEQEND
  5
78C
  8
DEFAULT_LAYER
  0
POLYLINE
  5
7A
  8
DEFAULT_LAYER
 66
     1
 10
0.0
 20
0.0
 30
0.0
  0
VERTEX
  5
11F
  8
DEFAULT_LAYER
 10
1689.39563419
 20
5080.17183334
 30
0.0
  0
VERTEX
  5
120
  8
DEFAULT_LAYER
 10
1765.59563419
 20
5080.17183334
 30
0.0
  0
SEQEND
  5
78D
  8
DEFAULT_LAYER
  0
POLYLINE
  5
7B
  8
DEFAULT_LAYER
 66
     1
 10
0.0
 20
0.0
 30
0.0
  0
VERTEX
  5
121
  8
DEFAULT_LAYER
 10
1841.79563419
 20
5308.77183334
 30
0.0
  0
VERTEX
  5
122
  8
DEFAULT_LAYER
 10
1994.19563419
 20
5308.77183334
 30
0.0
  0
SEQEND
  5
78E
  8
DEFAULT_LAYER
  0
POLYLINE
  5
7C
  8
DEFAULT_LAYER
 66
     1
 10
0.0
 20
0.0
 30
0.0
  0
VERTEX
  5
123
  8
DEFAULT_LAYER
 10
1917.99563419
 20
5308.77183334
 30
0.0
  0
VERTEX
  5
124
  8
DEFAULT_LAYER
 10
1917.99563419
 20
5080.17183334
 30
0.0
  0
SEQEND
  5
78F
  8
DEFAULT_LAYER
  0
POLYLINE
  5
7D
  8
DEFAULT_LAYER
 66
     1
 10
0.0
 20
0.0
 30
0.0
  0
VERTEX
  5
125
  8
DEFAULT_LAYER
 10
2451.39563419
 20
5118.27183334
 30
0.0
  0
VERTEX
  5
126
  8
DEFAULT_LAYER
 10
2413.29563419
 20
5080.17183334
 30
0.0
  0
VERTEX
  5
127
  8
DEFAULT_LAYER
 10
2337.09563419
 20
5080.17183334
 30
0.0
  0
VERTEX
  5
128
  8
DEFAULT_LAYER
 10
2298.99563419
 20
5118.27183334
 30
0.0
  0
VERTEX
  5
129
  8
DEFAULT_LAYER
 10
2298.99563419
 20
5270.67183334
 30
0.0
  0
VERTEX
  5
12A
  8
DEFAULT_LAYER
 10
2337.09563419
 20
5308.77183334
 30
0.0
  0
VERTEX
  5
12B
  8
DEFAULT_LAYER
 10
2413.29563419
 20
5308.77183334
 30
0.0
  0
VERTEX
  5
12C
  8
DEFAULT_LAYER
 10
2451.39563419
 20
5270.67183334
 30
0.0
  0
SEQEND
  5
790
  8
DEFAULT_LAYER
  0
POLYLINE
  5
7E
  8
DEFAULT_LAYER
 66
     1
 10
0.0
 20
0.0
 30
0.0
  0
VERTEX
  5
12D
  8
DEFAULT_LAYER
 10
2527.59563419
 20
5308.77183334
 30
0.0
  0
VERTEX
  5
12E
  8
DEFAULT_LAYER
 10
2527.59563419
 20
5118.27183334
 30
0.0
  0
VERTEX
  5
12F
  8
DEFAULT_LAYER
 10
2565.69563419
 20
5080.17183334
 30
0.0
  0
VERTEX
  5
130
  8
DEFAULT_LAYER
 10
2641.89563419
 20
5080.17183334
 30
0.0
  0
VERTEX
  5
131
  8
DEFAULT_LAYER
 10
2679.99563419
 20
5118.27183334
 30
0.0
  0
VERTEX
  5
132
  8
DEFAULT_LAYER
 10
2679.99563419
 20
5308.77183334
 30
0.0
  0
SEQEND
  5
791
  8
DEFAULT_LAYER
  0
POLYLINE
  5
7F
  8
DEFAULT_LAYER
 66
     1
 10
0.0
 20
0.0
 30
0.0
  0
VERTEX
  5
133
  8
DEFAULT_LAYER
 10
2756.19563419
 20
5118.27183334
 30
0.0
  0
VERTEX
  5
134
  8
DEFAULT_LAYER
 10
2794.29563419
 20
5080.17183334
 30
0.0
  0
VERTEX
  5
135
  8
DEFAULT_LAYER
 10
2870.49563419
 20
5080.17183334
 30
0.0
  0
VERTEX
  5
136
  8
DEFAULT_LAYER
 10
2908.59563419
 20
5118.27183334
 30
0.0
  0
VERTEX
  5
137
  8
DEFAULT_LAYER
 10
2756.19563419
 20
5270.67183334
 30
0.0
  0
VERTEX
  5
138
  8
DEFAULT_LAYER
 10
2794.29563419
 20
5308.77183334
 30
0.0
  0
VERTEX
  5
139
  8
DEFAULT_LAYER
 10
2870.49563419
 20
5308.77183334
 30
0.0
  0
VERTEX
  5
13A
  8
DEFAULT_LAYER
 10
2908.59563419
 20
5270.67183334
 30
0.0
  0
SEQEND
  5
792
  8
DEFAULT_LAYER
  0
POLYLINE
  5
80
  8
DEFAULT_LAYER
 66
     1
 10
0.0
 20
0.0
 30
0.0
  0
VERTEX
  5
13B
  8
DEFAULT_LAYER
 10
2984.79563419
 20
5308.77183334
 30
0.0
  0
VERTEX
  5
13C
  8
DEFAULT_LAYER
 10
3137.19563419
 20
5308.77183334
 30
0.0
  0
SEQEND
  5
793
  8
DEFAULT_LAYER
  0
POLYLINE
  5
81
  8
DEFAULT_LAYER
 66
     1
 10
0.0
 20
0.0
 30
0.0
  0
VERTEX
  5
13D
  8
DEFAULT_LAYER
 10
3060.99563419
 20
5308.77183334
 30
0.0
  0
VERTEX
  5
13E
  8
DEFAULT_LAYER
 10
3060.99563419
 20
5080.17183334
 30
0.0
  0
SEQEND
  5
794
  8
DEFAULT_LAYER
  0
POLYLINE
  5
82
  8
DEFAULT_LAYER
 66
     1
 10
0.0
 20
0.0
 30
0.0
 70
     1
  0
VERTEX
  5
13F
  8
DEFAULT_LAYER
 10
3213.39563419
 20
5080.17183334
 30
0.0
  0
VERTEX
  5
140
  8
DEFAULT_LAYER
 10
3213.39563419
 20
5308.77183334
 30
0.0
  0
VERTEX
  5
141
  8
DEFAULT_LAYER
 10
3365.79563419
 20
5308.77183334
 30
0.0
  0
VERTEX
  5
142
  8
DEFAULT_LAYER
 10
3365.79563419
 20
5080.17183334
 30
0.0
  0
SEQEND
  5
795
  8
DEFAULT_LAYER
  0
POLYLINE
  5
83
  8
DEFAULT_LAYER
 66
     1
 10
0.0
 20
0.0
 30
0.0
  0
VERTEX
  5
143
  8
DEFAULT_LAYER
 10
3441.99563419
 20
5080.17183334
 30
0.0
  0
VERTEX
  5
144
  8
DEFAULT_LAYER
 10
3441.99563419
 20
5308.77183334
 30
0.0
  0
VERTEX
  5
145
  8
DEFAULT_LAYER
 10
3518.19563419
 20
5156.37183334
 30
0.0
  0
VERTEX
  5
146
  8
DEFAULT_LAYER
 10
3594.39563419
 20
5308.77183334
 30
0.0
  0
VERTEX
  5
147
  8
DEFAULT_LAYER
 10
3594.39563419
 20
5080.17183334
 30
0.0
  0
SEQEND
  5
796
  8
DEFAULT_LAYER
  0
POLYLINE
  5
84
  8
DEFAULT_LAYER
 66
     1
 10
0.0
 20
0.0
 30
0.0
  0
VERTEX
  5
148
  8
DEFAULT_LAYER
 10
698.79563419
 20
4710.05754762
 30
0.0
  0
VERTEX
  5
149
  8
DEFAULT_LAYER
 10
736.89563419
 20
4671.95754762
 30
0.0
  0
VERTEX
  5
14A
  8
DEFAULT_LAYER
 10
813.0956341899999
 20
4671.95754762
 30
0.0
  0
VERTEX
  5
14B
  8
DEFAULT_LAYER
 10
851.1956341900001
 20
4710.05754762
 30
0.0
  0
VERTEX
  5
14C
  8
DEFAULT_LAYER
 10
698.79563419
 20
4862.45754762
 30
0.0
  0
VERTEX
  5
14D
  8
DEFAULT_LAYER
 10
736.89563419
 20
4900.55754762
 30
0.0
  0
VERTEX
  5
14E
  8
DEFAULT_LAYER
 10
813.0956341899999
 20
4900.55754762
 30
0.0
  0
VERTEX
  5
14F
  8
DEFAULT_LAYER
 10
851.1956341900001
 20
4862.45754762
 30
0.0
  0
SEQEND
  5
797
  8
DEFAULT_LAYER
  0
POLYLINE
  5
85
  8
DEFAULT_LAYER
 66
     1
 10
0.0
 20
0.0
 30
0.0
  0
VERTEX
  5
150
  8
DEFAULT_LAYER
 10
927.3956341899999
 20
4900.55754762
 30
0.0
  0
VERTEX
  5
151
  8
DEFAULT_LAYER
 10
1003.59563419
 20
4671.95754762
 30
0.0
  0
VERTEX
  5
152
  8
DEFAULT_LAYER
 10
1041.69563419
 20
4786.25754762
 30
0.0
  0
VERTEX
  5
153
  8
DEFAULT_LAYER
 10
1079.79563419
 20
4671.95754762
 30
0.0
  0
VERTEX
  5
154
  8
DEFAULT_LAYER
 10
1155.99563419
 20
4900.55754762
 30
0.0
  0
SEQEND
  5
798
  8
DEFAULT_LAYER
  0
POLYLINE
  5
86
  8
DEFAULT_LAYER
 66
     1
 10
0.0
 20
0.0
 30
0.0
  0
VERTEX
  5
155
  8
DEFAULT_LAYER
 10
1232.19563419
 20
4671.95754762
 30
0.0
  0
VERTEX
  5
156
  8
DEFAULT_LAYER
 10
1346.49563419
 20
4671.95754762
 30
0.0
  0
VERTEX
  5
157
  8
DEFAULT_LAYER
 10
1384.59563419
 20
4710.05754762
 30
0.0
  0
VERTEX
  5
158
  8
DEFAULT_LAYER
 10
1384.59563419
 20
4748.15754762
 30
0.0
  0
VERTEX
  5
159
  8
DEFAULT_LAYER
 10
1346.49563419
 20
4786.25754762
 30
0.0
  0
VERTEX
  5
15A
  8
DEFAULT_LAYER
 10
1270.29563419
 20
4786.25754762
 30
0.0
  0
SEQEND
  5
799
  8
DEFAULT_LAYER
  0
POLYLINE
  5
87
  8
DEFAULT_LAYER
 66
     1
 10
0.0
 20
0.0
 30
0.0
  0
VERTEX
  5
15B
  8
DEFAULT_LAYER
 10
1346.49563419
 20
4786.25754762
 30
0.0
  0
VERTEX
  5
15C
  8
DEFAULT_LAYER
 10
1384.59563419
 20
4824.35754762
 30
0.0
  0
VERTEX
  5
15D
  8
DEFAULT_LAYER
 10
1384.59563419
 20
4862.45754762
 30
0.0
  0
VERTEX
  5
15E
  8
DEFAULT_LAYER
 10
1346.49563419
 20
4900.55754762
 30
0.0
  0
VERTEX
  5
15F
  8
DEFAULT_LAYER
 10
1232.19563419
 20
4900.55754762
 30
0.0
  0
SEQEND
  5
79A
  8
DEFAULT_LAYER
  0
POLYLINE
  5
88
  8
DEFAULT_LAYER
 66
     1
 10
0.0
 20
0.0
 30
0.0
  0
VERTEX
  5
160
  8
DEFAULT_LAYER
 10
1270.29563419
 20
4900.55754762
 30
0.0
  0
VERTEX
  5
161
  8
DEFAULT_LAYER
 10
1270.29563419
 20
4671.95754762
 30
0.0
  0
SEQEND
  5
79B
  8
DEFAULT_LAYER
  0
POLYLINE
  5
89
  8
DEFAULT_LAYER
 66
     1
 10
0.0
 20
0.0
 30
0.0
  0
VERTEX
  5
162
  8
DEFAULT_LAYER
 10
1689.39563419
 20
4710.05754762
 30
0.0
  0
VERTEX
  5
163
  8
DEFAULT_LAYER
 10
1727.49563419
 20
4671.95754762
 30
0.0
  0
VERTEX
  5
164
  8
DEFAULT_LAYER
 10
1803.69563419
 20
4671.95754762
 30
0.0
  0
VERTEX
  5
165
  8
DEFAULT_LAYER
 10
1841.79563419
 20
4710.05754762
 30
0.0
  0
VERTEX
  5
166
  8
DEFAULT_LAYER
 10
1689.39563419
 20
4862.45754762
 30
0.0
  0
VERTEX
  5
167
  8
DEFAULT_LAYER
 10
1727.49563419
 20
4900.55754762
 30
0.0
  0
VERTEX
  5
168
  8
DEFAULT_LAYER
 10
1803.69563419
 20
4900.55754762
 30
0.0
  0
VERTEX
  5
169
  8
DEFAULT_LAYER
 10
1841.79563419
 20
4862.45754762
 30
0.0
  0
SEQEND
  5
79C
  8
DEFAULT_LAYER
  0
POLYLINE
  5
8A
  8
DEFAULT_LAYER
 66
     1
 10
0.0
 20
0.0
 30
0.0
  0
VERTEX
  5
16A
  8
DEFAULT_LAYER
 10
1917.99563419
 20
4671.95754762
 30
0.0
  0
VERTEX
  5
16B
  8
DEFAULT_LAYER
 10
1917.99563419
 20
4900.55754762
 30
0.0
  0
SEQEND
  5
79D
  8
DEFAULT_LAYER
  0
POLYLINE
  5
8B
  8
DEFAULT_LAYER
 66
     1
 10
0.0
 20
0.0
 30
0.0
  0
VERTEX
  5
16C
  8
DEFAULT_LAYER
 10
1917.99563419
 20
4786.25754762
 30
0.0
  0
VERTEX
  5
16D
  8
DEFAULT_LAYER
 10
2070.39563419
 20
4786.25754762
 30
0.0
  0
SEQEND
  5
79E
  8
DEFAULT_LAYER
  0
POLYLINE
  5
8C
  8
DEFAULT_LAYER
 66
     1
 10
0.0
 20
0.0
 30
0.0
  0
VERTEX
  5
16E
  8
DEFAULT_LAYER
 10
2070.39563419
 20
4900.55754762
 30
0.0
  0
VERTEX
  5
16F
  8
DEFAULT_LAYER
 10
2070.39563419
 20
4671.95754762
 30
0.0
  0
SEQEND
  5
79F
  8
DEFAULT_LAYER
  0
POLYLINE
  5
8D
  8
DEFAULT_LAYER
 66
     1
 10
0.0
 20
0.0
 30
0.0
  0
VERTEX
  5
170
  8
DEFAULT_LAYER
 10
2146.59563419
 20
4671.95754762
 30
0.0
  0
VERTEX
  5
171
  8
DEFAULT_LAYER
 10
2146.59563419
 20
4900.55754762
 30
0.0
  0
VERTEX
  5
172
  8
DEFAULT_LAYER
 10
2298.99563419
 20
4900.55754762
 30
0.0
  0
SEQEND
  5
7A0
  8
DEFAULT_LAYER
  0
POLYLINE
  5
8E
  8
DEFAULT_LAYER
 66
     1
 10
0.0
 20
0.0
 30
0.0
  0
VERTEX
  5
173
  8
DEFAULT_LAYER
 10
2146.59563419
 20
4786.25754762
 30
0.0
  0
VERTEX
  5
174
  8
DEFAULT_LAYER
 10
2222.79563419
 20
4786.25754762
 30
0.0
  0
SEQEND
  5
7A1
  8
DEFAULT_LAYER
  0
POLYLINE
  5
8F
  8
DEFAULT_LAYER
 66
     1
 10
0.0
 20
0.0
 30
0.0
  0
VERTEX
  5
175
  8
DEFAULT_LAYER
 10
2146.59563419
 20
4671.95754762
 30
0.0
  0
VERTEX
  5
176
  8
DEFAULT_LAYER
 10
2298.99563419
 20
4671.95754762
 30
0.0
  0
SEQEND
  5
7A2
  8
DEFAULT_LAYER
  0
POLYLINE
  5
90
  8
DEFAULT_LAYER
 66
     1
 10
0.0
 20
0.0
 30
0.0
  0
VERTEX
  5
177
  8
DEFAULT_LAYER
 10
2375.19563419
 20
4900.55754762
 30
0.0
  0
VERTEX
  5
178
  8
DEFAULT_LAYER
 10
2375.19563419
 20
4671.95754762
 30
0.0
  0
VERTEX
  5
179
  8
DEFAULT_LAYER
 10
2527.59563419
 20
4671.95754762
 30
0.0
  0
SEQEND
  5
7A3
  8
DEFAULT_LAYER
  0
POLYLINE
  5
91
  8
DEFAULT_LAYER
 66
     1
 10
0.0
 20
0.0
 30
0.0
  0
VERTEX
  5
17A
  8
DEFAULT_LAYER
 10
2603.79563419
 20
4900.55754762
 30
0.0
  0
VERTEX
  5
17B
  8
DEFAULT_LAYER
 10
2718.09563419
 20
4671.95754762
 30
0.0
  0
VERTEX
  5
17C
  8
DEFAULT_LAYER
 10
2832.39563419
 20
4900.55754762
 30
0.0
  0
SEQEND
  5
7A4
  8
DEFAULT_LAYER
  0
POLYLINE
  5
92
  8
DEFAULT_LAYER
 66
     1
 10
0.0
 20
0.0
 30
0.0
  0
VERTEX
  5
17D
  8
DEFAULT_LAYER
 10
2908.59563419
 20
4900.55754762
 30
0.0
  0
VERTEX
  5
17E
  8
DEFAULT_LAYER
 10
2984.79563419
 20
4900.55754762
 30
0.0
  0
SEQEND
  5
7A5
  8
DEFAULT_LAYER
  0
POLYLINE
  5
93
  8
DEFAULT_LAYER
 66
     1
 10
0.0
 20
0.0
 30
0.0
  0
VERTEX
  5
17F
  8
DEFAULT_LAYER
 10
2946.69563419
 20
4900.55754762
 30
0.0
  0
VERTEX
  5
180
  8
DEFAULT_LAYER
 10
2946.69563419
 20
4671.95754762
 30
0.0
  0
SEQEND
  5
7A6
  8
DEFAULT_LAYER
  0
POLYLINE
  5
94
  8
DEFAULT_LAYER
 66
     1
 10
0.0
 20
0.0
 30
0.0
  0
VERTEX
  5
181
  8
DEFAULT_LAYER
 10
2908.59563419
 20
4671.95754762
 30
0.0
  0
VERTEX
  5
182
  8
DEFAULT_LAYER
 10
2984.79563419
 20
4671.95754762
 30
0.0
  0
SEQEND
  5
7A7
  8
DEFAULT_LAYER
  0
POLYLINE
  5
95
  8
DEFAULT_LAYER
 66
     1
 10
0.0
 20
0.0
 30
0.0
  0
VERTEX
  5
183
  8
DEFAULT_LAYER
 10
3060.99563419
 20
4671.95754762
 30
0.0
  0
VERTEX
  5
184
  8
DEFAULT_LAYER
 10
3060.99563419
 20
4900.55754762
 30
0.0
  0
VERTEX
  5
185
  8
DEFAULT_LAYER
 10
3213.39563419
 20
4671.95754762
 30
0.0
  0
VERTEX
  5
186
  8
DEFAULT_LAYER
 10
3213.39563419
 20
4900.55754762
 30
0.0
  0
SEQEND
  5
7A8
  8
DEFAULT_LAYER
  0
POLYLINE
  5
96
  8
DEFAULT_LAYER
 66
     1
 10
0.0
 20
0.0
 30
0.0
  0
VERTEX
  5
187
  8
DEFAULT_LAYER
 10
3403.89563419
 20
4786.25754762
 30
0.0
  0
VERTEX
  5
188
  8
DEFAULT_LAYER
 10
3441.99563419
 20
4786.25754762
 30
0.0
  0
VERTEX
  5
189
  8
DEFAULT_LAYER
 10
3441.99563419
 20
4671.95754762
 30
0.0
  0
VERTEX
  5
18A
  8
DEFAULT_LAYER
 10
3327.69563419
 20
4671.95754762
 30
0.0
  0
VERTEX
  5
18B
  8
DEFAULT_LAYER
 10
3289.59563419
 20
4710.05754762
 30
0.0
  0
VERTEX
  5
18C
  8
DEFAULT_LAYER
 10
3289.59563419
 20
4862.45754762
 30
0.0
  0
VERTEX
  5
18D
  8
DEFAULT_LAYER
 10
3327.69563419
 20
4900.55754762
 30
0.0
  0
VERTEX
  5
18E
  8
DEFAULT_LAYER
 10
3441.99563419
 20
4900.55754762
 30
0.0
  0
SEQEND
  5
7A9
  8
DEFAULT_LAYER
  0
POLYLINE
  5
97
  8
DEFAULT_LAYER
 66
     1
 10
0.0
 20
0.0
 30
0.0
 70
     1
  0
VERTEX
  5
18F
  8
DEFAULT_LAYER
 10
3437.242484285
 20
1248.24000007
 30
0.0
  0
VERTEX
  5
190
  8
DEFAULT_LAYER
 10
3458.40915095
 20
1248.24000007
 30
0.0
  0
VERTEX
  5
191
  8
DEFAULT_LAYER
 10
3466.87581762
 20
1256.70666674
 30
0.0
  0
VERTEX
  5
192
  8
DEFAULT_LAYER
 10
3466.87581762
 20
1290.5733334
 30
0.0
  0
VERTEX
  5
193
  8
DEFAULT_LAYER
 10
3458.40915095
 20
1299.04000007
 30
0.0
  0
VERTEX
  5
194
  8
DEFAULT_LAYER
 10
3437.242484285
 20
1299.04000007
 30
0.0
  0
SEQEND
  5
7AA
  8
DEFAULT_LAYER
  0
POLYLINE
  5
98
  8
DEFAULT_LAYER
 66
     1
 10
0.0
 20
0.0
 30
0.0
  0
VERTEX
  5
195
  8
DEFAULT_LAYER
 10
3839.40915095
 20
1273.64000007
 30
0.0
  0
VERTEX
  5
196
  8
DEFAULT_LAYER
 10
3856.34248428
 20
1273.64000007
 30
0.0
  0
SEQEND
  5
7AB
  8
DEFAULT_LAYER
  0
POLYLINE
  5
99
  8
DEFAULT_LAYER
 66
     1
 10
0.0
 20
0.0
 30
0.0
  0
VERTEX
  5
197
  8
DEFAULT_LAYER
 10
3720.87581762
 20
1299.04000007
 30
0.0
  0
VERTEX
  5
198
  8
DEFAULT_LAYER
 10
3720.87581762
 20
1248.24000007
 30
0.0
  0
SEQEND
  5
7AC
  8
DEFAULT_LAYER
  0
POLYLINE
  5
9A
  8
DEFAULT_LAYER
 66
     1
 10
0.0
 20
0.0
 30
0.0
  0
VERTEX
  5
199
  8
DEFAULT_LAYER
 10
3771.67581762
 20
1248.24000007
 30
0.0
  0
VERTEX
  5
19A
  8
DEFAULT_LAYER
 10
3737.80915095
 20
1248.24000007
 30
0.0
  0
VERTEX
  5
19B
  8
DEFAULT_LAYER
 10
3737.80915095
 20
1299.04000007
 30
0.0
  0
VERTEX
  5
19C
  8
DEFAULT_LAYER
 10
3780.142484285
 20
1299.04000007
 30
0.0
  0
VERTEX
  5
19D
  8
DEFAULT_LAYER
 10
3788.60915095
 20
1248.24000007
 30
0.0
  0
VERTEX
  5
19E
  8
DEFAULT_LAYER
 10
3830.942484285
 20
1248.24000007
 30
0.0
  0
VERTEX
  5
19F
  8
DEFAULT_LAYER
 10
3839.40915095
 20
1299.04000007
 30
0.0
  0
VERTEX
  5
1A0
  8
DEFAULT_LAYER
 10
3873.27581762
 20
1299.04000007
 30
0.0
  0
SEQEND
  5
7AD
  8
DEFAULT_LAYER
  0
POLYLINE
  5
9B
  8
DEFAULT_LAYER
 66
     1
 10
0.0
 20
0.0
 30
0.0
  0
VERTEX
  5
1A1
  8
DEFAULT_LAYER
 10
3687.00915095
 20
1273.64000007
 30
0.0
  0
VERTEX
  5
1A2
  8
DEFAULT_LAYER
 10
3729.342484285
 20
1273.64000007
 30
0.0
  0
VERTEX
  5
1A3
  8
DEFAULT_LAYER
 10
3754.74248428
 20
1273.64000007
 30
0.0
  0
SEQEND
  5
7AE
  8
DEFAULT_LAYER
  0
POLYLINE
  5
9C
  8
DEFAULT_LAYER
 66
     1
 10
0.0
 20
0.0
 30
0.0
  0
VERTEX
  5
1A4
  8
DEFAULT_LAYER
 10
3687.00915095
 20
1248.24000007
 30
0.0
  0
VERTEX
  5
1A5
  8
DEFAULT_LAYER
 10
3678.542484285
 20
1294.806666735
 30
0.0
  0
VERTEX
  5
1A6
  8
DEFAULT_LAYER
 10
3661.60915095
 20
1299.04000007
 30
0.0
  0
VERTEX
  5
1A7
  8
DEFAULT_LAYER
 10
3644.67581762
 20
1299.04000007
 30
0.0
  0
VERTEX
  5
1A8
  8
DEFAULT_LAYER
 10
3636.20915095
 20
1290.5733334
 30
0.0
  0
VERTEX
  5
1A9
  8
DEFAULT_LAYER
 10
3670.07581762
 20
1256.70666674
 30
0.0
  0
VERTEX
  5
1AA
  8
DEFAULT_LAYER
 10
3661.60915095
 20
1248.24000007
 30
0.0
  0
VERTEX
  5
1AB
  8
DEFAULT_LAYER
 10
3644.67581762
 20
1248.24000007
 30
0.0
  0
VERTEX
  5
1AC
  8
DEFAULT_LAYER
 10
3636.20915095
 20
1256.70666674
 30
0.0
  0
SEQEND
  5
7AF
  8
DEFAULT_LAYER
  0
POLYLINE
  5
9D
  8
DEFAULT_LAYER
 66
     1
 10
0.0
 20
0.0
 30
0.0
  0
VERTEX
  5
1AD
  8
DEFAULT_LAYER
 10
3568.47581762
 20
1248.24000007
 30
0.0
  0
VERTEX
  5
1AE
  8
DEFAULT_LAYER
 10
3538.842484285
 20
1273.64000007
 30
0.0
  0
VERTEX
  5
1AF
  8
DEFAULT_LAYER
 10
3560.00915095
 20
1273.64000007
 30
0.0
  0
VERTEX
  5
1B0
  8
DEFAULT_LAYER
 10
3568.47581762
 20
1282.10666674
 30
0.0
  0
VERTEX
  5
1B1
  8
DEFAULT_LAYER
 10
3568.47581762
 20
1290.5733334
 30
0.0
  0
VERTEX
  5
1B2
  8
DEFAULT_LAYER
 10
3560.00915095
 20
1299.04000007
 30
0.0
  0
VERTEX
  5
1B3
  8
DEFAULT_LAYER
 10
3534.60915095
 20
1299.04000007
 30
0.0
  0
VERTEX
  5
1B4
  8
DEFAULT_LAYER
 10
3526.142484285
 20
1248.24000007
 30
0.0
  0
VERTEX
  5
1B5
  8
DEFAULT_LAYER
 10
3483.80915095
 20
1248.24000007
 30
0.0
  0
VERTEX
  5
1B6
  8
DEFAULT_LAYER
 10
3483.80915095
 20
1299.04000007
 30
0.0
  0
VERTEX
  5
1B7
  8
DEFAULT_LAYER
 10
3517.67581762
 20
1299.04000007
 30
0.0
  0
SEQEND
  5
7B0
  8
DEFAULT_LAYER
  0
POLYLINE
  5
9E
  8
DEFAULT_LAYER
 66
     1
 10
0.0
 20
0.0
 30
0.0
  0
VERTEX
  5
1B8
  8
DEFAULT_LAYER
 10
3483.80915095
 20
1273.64000007
 30
0.0
  0
VERTEX
  5
1B9
  8
DEFAULT_LAYER
 10
3500.74248428
 20
1273.64000007
 30
0.0
  0
SEQEND
  5
7B1
  8
DEFAULT_LAYER
  0
POLYLINE
  5
9F
  8
DEFAULT_LAYER
 66
     1
 10
0.0
 20
0.0
 30
0.0
  0
VERTEX
  5
1BA
  8
DEFAULT_LAYER
 10
3560.00915095
 20
1208.32571436
 30
0.0
  0
VERTEX
  5
1BB
  8
DEFAULT_LAYER
 10
3560.00915095
 20
1157.52571436
 30
0.0
  0
SEQEND
  5
7B2
  8
DEFAULT_LAYER
  0
POLYLINE
  5
A0
  8
DEFAULT_LAYER
 66
     1
 10
0.0
 20
0.0
 30
0.0
  0
VERTEX
  5
1BC
  8
DEFAULT_LAYER
 10
3331.40915095
 20
1299.04000007
 30
0.0
  0
VERTEX
  5
1BD
  8
DEFAULT_LAYER
 10
3331.40915095
 20
1256.70666674
 30
0.0
  0
VERTEX
  5
1BE
  8
DEFAULT_LAYER
 10
3339.87581762
 20
1248.24000007
 30
0.0
  0
VERTEX
  5
1BF
  8
DEFAULT_LAYER
 10
3356.80915095
 20
1248.24000007
 30
0.0
  0
VERTEX
  5
1C0
  8
DEFAULT_LAYER
 10
3365.27581762
 20
1256.70666674
 30
0.0
  0
VERTEX
  5
1C1
  8
DEFAULT_LAYER
 10
3365.27581762
 20
1299.04000007
 30
0.0
  0
SEQEND
  5
7B3
  8
DEFAULT_LAYER
  0
POLYLINE
  5
A1
  8
DEFAULT_LAYER
 66
     1
 10
0.0
 20
0.0
 30
0.0
  0
VERTEX
  5
1C2
  8
DEFAULT_LAYER
 10
3526.14248428
 20
1182.92571436
 30
0.0
  0
VERTEX
  5
1C3
  8
DEFAULT_LAYER
 10
3560.00915095
 20
1182.92571436
 30
0.0
  0
SEQEND
  5
7B4
  8
DEFAULT_LAYER
  0
POLYLINE
  5
A2
  8
DEFAULT_LAYER
 66
     1
 10
0.0
 20
0.0
 30
0.0
  0
VERTEX
  5
1C4
  8
DEFAULT_LAYER
 10
3382.20915095
 20
1248.24000007
 30
0.0
  0
VERTEX
  5
1C5
  8
DEFAULT_LAYER
 10
3382.20915095
 20
1299.04000007
 30
0.0
  0
VERTEX
  5
1C6
  8
DEFAULT_LAYER
 10
3416.07581762
 20
1248.24000007
 30
0.0
  0
VERTEX
  5
1C7
  8
DEFAULT_LAYER
 10
3416.07581762
 20
1299.04000007
 30
0.0
  0
SEQEND
  5
7B5
  8
DEFAULT_LAYER
  0
POLYLINE
  5
A3
  8
DEFAULT_LAYER
 66
     1
 10
0.0
 20
0.0
 30
0.0
  0
VERTEX
  5
1C8
  8
DEFAULT_LAYER
 10
3229.80915095
 20
1299.04000007
 30
0.0
  0
VERTEX
  5
1C9
  8
DEFAULT_LAYER
 10
3255.20915095
 20
1299.04000007
 30
0.0
  0
VERTEX
  5
1CA
  8
DEFAULT_LAYER
 10
3246.74248428
 20
1248.24000007
 30
0.0
  0
SEQEND
  5
7B6
  8
DEFAULT_LAYER
  0
POLYLINE
  5
A4
  8
DEFAULT_LAYER
 66
     1
 10
0.0
 20
0.0
 30
0.0
  0
VERTEX
  5
1CB
  8
DEFAULT_LAYER
 10
3526.14248428
 20
1157.52571436
 30
0.0
  0
VERTEX
  5
1CC
  8
DEFAULT_LAYER
 10
3517.675817615
 20
1208.32571436
 30
0.0
  0
VERTEX
  5
1CD
  8
DEFAULT_LAYER
 10
3483.80915095
 20
1208.32571436
 30
0.0
  0
VERTEX
  5
1CE
  8
DEFAULT_LAYER
 10
3492.27581762
 20
1157.52571436
 30
0.0
  0
SEQEND
  5
7B7
  8
DEFAULT_LAYER
  0
POLYLINE
  5
A5
  8
DEFAULT_LAYER
 66
     1
 10
0.0
 20
0.0
 30
0.0
  0
VERTEX
  5
1CF
  8
DEFAULT_LAYER
 10
3407.60915095
 20
1208.32571436
 30
0.0
  0
VERTEX
  5
1D0
  8
DEFAULT_LAYER
 10
3407.60915095
 20
1157.52571436
 30
0.0
  0
VERTEX
  5
1D1
  8
DEFAULT_LAYER
 10
3373.74248428
 20
1208.32571436
 30
0.0
  0
VERTEX
  5
1D2
  8
DEFAULT_LAYER
 10
3365.275817615
 20
1157.52571436
 30
0.0
  0
VERTEX
  5
1D3
  8
DEFAULT_LAYER
 10
3322.94248428
 20
1157.52571436
 30
0.0
  0
VERTEX
  5
1D4
  8
DEFAULT_LAYER
 10
3322.94248428
 20
1208.32571436
 30
0.0
  0
VERTEX
  5
1D5
  8
DEFAULT_LAYER
 10
3356.80915095
 20
1208.32571436
 30
0.0
  0
SEQEND
  5
7B8
  8
DEFAULT_LAYER
  0
POLYLINE
  5
A6
  8
DEFAULT_LAYER
 66
     1
 10
0.0
 20
0.0
 30
0.0
  0
VERTEX
  5
1D6
  8
DEFAULT_LAYER
 10
3449.94248428
 20
1182.92571436
 30
0.0
  0
VERTEX
  5
1D7
  8
DEFAULT_LAYER
 10
3458.40915095
 20
1182.92571436
 30
0.0
  0
VERTEX
  5
1D8
  8
DEFAULT_LAYER
 10
3458.40915095
 20
1157.52571436
 30
0.0
  0
VERTEX
  5
1D9
  8
DEFAULT_LAYER
 10
3433.00915095
 20
1157.52571436
 30
0.0
  0
VERTEX
  5
1DA
  8
DEFAULT_LAYER
 10
3424.54248428
 20
1165.99238102
 30
0.0
  0
VERTEX
  5
1DB
  8
DEFAULT_LAYER
 10
3424.54248428
 20
1199.85904769
 30
0.0
  0
VERTEX
  5
1DC
  8
DEFAULT_LAYER
 10
3433.00915095
 20
1208.32571436
 30
0.0
  0
VERTEX
  5
1DD
  8
DEFAULT_LAYER
 10
3458.40915095
 20
1208.32571436
 30
0.0
  0
SEQEND
  5
7B9
  8
DEFAULT_LAYER
  0
POLYLINE
  5
A7
  8
DEFAULT_LAYER
 66
     1
 10
0.0
 20
0.0
 30
0.0
  0
VERTEX
  5
1DE
  8
DEFAULT_LAYER
 10
3179.00915095
 20
1265.1733334
 30
0.0
  0
VERTEX
  5
1DF
  8
DEFAULT_LAYER
 10
3212.87581762
 20
1256.706666735
 30
0.0
  0
VERTEX
  5
1E0
  8
DEFAULT_LAYER
 10
3212.87581762
 20
1265.1733334
 30
0.0
  0
VERTEX
  5
1E1
  8
DEFAULT_LAYER
 10
3195.94248428
 20
1299.04000007
 30
0.0
  0
VERTEX
  5
1E2
  8
DEFAULT_LAYER
 10
3179.00915095
 20
1265.1733334
 30
0.0
  0
VERTEX
  5
1E3
  8
DEFAULT_LAYER
 10
3170.542484285
 20
1248.24000007
 30
0.0
  0
VERTEX
  5
1E4
  8
DEFAULT_LAYER
 10
3128.20915095
 20
1248.24000007
 30
0.0
  0
VERTEX
  5
1E5
  8
DEFAULT_LAYER
 10
3119.742484285
 20
1299.04000007
 30
0.0
  0
VERTEX
  5
1E6
  8
DEFAULT_LAYER
 10
3077.40915095
 20
1299.04000007
 30
0.0
  0
VERTEX
  5
1E7
  8
DEFAULT_LAYER
 10
3077.40915095
 20
1248.24000007
 30
0.0
  0
SEQEND
  5
7BA
  8
DEFAULT_LAYER
  0
POLYLINE
  5
A8
  8
DEFAULT_LAYER
 66
     1
 10
0.0
 20
0.0
 30
0.0
  0
VERTEX
  5
1E8
  8
DEFAULT_LAYER
 10
3272.14248428
 20
1208.32571436
 30
0.0
  0
VERTEX
  5
1E9
  8
DEFAULT_LAYER
 10
3272.14248428
 20
1157.52571436
 30
0.0
  0
VERTEX
  5
1EA
  8
DEFAULT_LAYER
 10
3306.00915095
 20
1157.52571436
 30
0.0
  0
SEQEND
  5
7BB
  8
DEFAULT_LAYER
  0
POLYLINE
  5
A9
  8
DEFAULT_LAYER
 66
     1
 10
0.0
 20
0.0
 30
0.0
  0
VERTEX
  5
1EB
  8
DEFAULT_LAYER
 10
3322.94248428
 20
1182.92571436
 30
0.0
  0
VERTEX
  5
1EC
  8
DEFAULT_LAYER
 10
3339.87581762
 20
1182.92571436
 30
0.0
  0
SEQEND
  5
7BC
  8
DEFAULT_LAYER
  0
POLYLINE
  5
AA
  8
DEFAULT_LAYER
 66
     1
 10
0.0
 20
0.0
 30
0.0
  0
VERTEX
  5
1ED
  8
DEFAULT_LAYER
 10
3077.40915095
 20
1273.64000007
 30
0.0
  0
VERTEX
  5
1EE
  8
DEFAULT_LAYER
 10
3094.34248428
 20
1273.64000007
 30
0.0
  0
SEQEND
  5
7BD
  8
DEFAULT_LAYER
  0
POLYLINE
  5
AB
  8
DEFAULT_LAYER
 66
     1
 10
0.0
 20
0.0
 30
0.0
  0
VERTEX
  5
1EF
  8
DEFAULT_LAYER
 10
3170.54248428
 20
1208.32571436
 30
0.0
  0
VERTEX
  5
1F0
  8
DEFAULT_LAYER
 10
3170.54248428
 20
1157.52571436
 30
0.0
  0
VERTEX
  5
1F1
  8
DEFAULT_LAYER
 10
3204.40915095
 20
1157.52571436
 30
0.0
  0
SEQEND
  5
7BE
  8
DEFAULT_LAYER
  0
POLYLINE
  5
AC
  8
DEFAULT_LAYER
 66
     1
 10
0.0
 20
0.0
 30
0.0
  0
VERTEX
  5
1F2
  8
DEFAULT_LAYER
 10
2941.94248428
 20
1299.04000007
 30
0.0
  0
VERTEX
  5
1F3
  8
DEFAULT_LAYER
 10
2984.275817615
 20
1248.24000007
 30
0.0
  0
VERTEX
  5
1F4
  8
DEFAULT_LAYER
 10
3005.442484285
 20
1248.24000007
 30
0.0
  0
VERTEX
  5
1F5
  8
DEFAULT_LAYER
 10
3001.20915095
 20
1299.04000007
 30
0.0
  0
VERTEX
  5
1F6
  8
DEFAULT_LAYER
 10
2984.275817615
 20
1294.806666735
 30
0.0
  0
VERTEX
  5
1F7
  8
DEFAULT_LAYER
 10
2933.475817615
 20
1248.24000007
 30
0.0
  0
VERTEX
  5
1F8
  8
DEFAULT_LAYER
 10
2891.14248428
 20
1248.24000007
 30
0.0
  0
VERTEX
  5
1F9
  8
DEFAULT_LAYER
 10
2891.14248428
 20
1265.1733334
 30
0.0
  0
VERTEX
  5
1FA
  8
DEFAULT_LAYER
 10
2899.60915095
 20
1273.64000007
 30
0.0
  0
VERTEX
  5
1FB
  8
DEFAULT_LAYER
 10
2916.54248428
 20
1273.64000007
 30
0.0
  0
VERTEX
  5
1FC
  8
DEFAULT_LAYER
 10
2925.00915095
 20
1282.10666674
 30
0.0
  0
VERTEX
  5
1FD
  8
DEFAULT_LAYER
 10
2925.00915095
 20
1290.5733334
 30
0.0
  0
VERTEX
  5
1FE
  8
DEFAULT_LAYER
 10
2916.54248428
 20
1299.04000007
 30
0.0
  0
VERTEX
  5
1FF
  8
DEFAULT_LAYER
 10
2899.60915095
 20
1299.04000007
 30
0.0
  0
VERTEX
  5
200
  8
DEFAULT_LAYER
 10
2891.14248428
 20
1290.5733334
 30
0.0
  0
SEQEND
  5
7BF
  8
DEFAULT_LAYER
  0
POLYLINE
  5
AD
  8
DEFAULT_LAYER
 66
     1
 10
0.0
 20
0.0
 30
0.0
  0
VERTEX
  5
201
  8
DEFAULT_LAYER
 10
3119.74248428
 20
1208.32571436
 30
0.0
  0
VERTEX
  5
202
  8
DEFAULT_LAYER
 10
3119.74248428
 20
1157.52571436
 30
0.0
  0
VERTEX
  5
203
  8
DEFAULT_LAYER
 10
3153.60915095
 20
1157.52571436
 30
0.0
  0
SEQEND
  5
7C0
  8
DEFAULT_LAYER
  0
POLYLINE
  5
AE
  8
DEFAULT_LAYER
 66
     1
 10
0.0
 20
0.0
 30
0.0
  0
VERTEX
  5
204
  8
DEFAULT_LAYER
 10
3018.14248428
 20
1182.92571436
 30
0.0
  0
VERTEX
  5
205
  8
DEFAULT_LAYER
 10
3035.07581762
 20
1182.92571436
 30
0.0
  0
SEQEND
  5
7C1
  8
DEFAULT_LAYER
  0
POLYLINE
  5
AF
  8
DEFAULT_LAYER
 66
     1
 10
0.0
 20
0.0
 30
0.0
  0
VERTEX
  5
206
  8
DEFAULT_LAYER
 10
3018.14248428
 20
1157.52571436
 30
0.0
  0
VERTEX
  5
207
  8
DEFAULT_LAYER
 10
3018.14248428
 20
1208.32571436
 30
0.0
  0
VERTEX
  5
208
  8
DEFAULT_LAYER
 10
3060.475817615
 20
1208.32571436
 30
0.0
  0
VERTEX
  5
209
  8
DEFAULT_LAYER
 10
3068.94248428
 20
1165.99238102
 30
0.0
  0
VERTEX
  5
20A
  8
DEFAULT_LAYER
 10
3077.40915095
 20
1157.52571436
 30
0.0
  0
VERTEX
  5
20B
  8
DEFAULT_LAYER
 10
3094.34248428
 20
1157.52571436
 30
0.0
  0
VERTEX
  5
20C
  8
DEFAULT_LAYER
 10
3102.80915095
 20
1165.99238102
 30
0.0
  0
VERTEX
  5
20D
  8
DEFAULT_LAYER
 10
3102.80915095
 20
1208.32571436
 30
0.0
  0
SEQEND
  5
7C2
  8
DEFAULT_LAYER
  0
POLYLINE
  5
B0
  8
DEFAULT_LAYER
 66
     1
 10
0.0
 20
0.0
 30
0.0
  0
VERTEX
  5
20E
  8
DEFAULT_LAYER
 10
2823.40915095
 20
1248.24000007
 30
0.0
  0
VERTEX
  5
20F
  8
DEFAULT_LAYER
 10
2781.075817615
 20
1299.04000007
 30
0.0
  0
VERTEX
  5
210
  8
DEFAULT_LAYER
 10
2759.90915095
 20
1299.04000007
 30
0.0
  0
VERTEX
  5
211
  8
DEFAULT_LAYER
 10
2759.90915095
 20
1248.24000007
 30
0.0
  0
VERTEX
  5
212
  8
DEFAULT_LAYER
 10
2781.075817615
 20
1248.24000007
 30
0.0
  0
VERTEX
  5
213
  8
DEFAULT_LAYER
 10
2823.40915095
 20
1299.04000007
 30
0.0
  0
SEQEND
  5
7C3
  8
DEFAULT_LAYER
  0
POLYLINE
  5
B1
  8
DEFAULT_LAYER
 66
     1
 10
0.0
 20
0.0
 30
0.0
  0
VERTEX
  5
214
  8
DEFAULT_LAYER
 10
2704.87581762
 20
1273.64000007
 30
0.0
  0
VERTEX
  5
215
  8
DEFAULT_LAYER
 10
2721.80915095
 20
1273.64000007
 30
0.0
  0
SEQEND
  5
7C4
  8
DEFAULT_LAYER
  0
POLYLINE
  5
B2
  8
DEFAULT_LAYER
 66
     1
 10
0.0
 20
0.0
 30
0.0
  0
VERTEX
  5
216
  8
DEFAULT_LAYER
 10
2704.87581762
 20
1248.24000007
 30
0.0
  0
VERTEX
  5
217
  8
DEFAULT_LAYER
 10
2704.87581762
 20
1299.04000007
 30
0.0
  0
VERTEX
  5
218
  8
DEFAULT_LAYER
 10
2738.74248428
 20
1299.04000007
 30
0.0
  0
SEQEND
  5
7C5
  8
DEFAULT_LAYER
  0
POLYLINE
  5
B3
  8
DEFAULT_LAYER
 66
     1
 10
0.0
 20
0.0
 30
0.0
 70
     1
  0
VERTEX
  5
219
  8
DEFAULT_LAYER
 10
2368.833459986502
 20
373.195632900974
 30
0.0
  0
VERTEX
  5
21A
  8
DEFAULT_LAYER
 10
2368.833459986502
 20
423.9956329009742
 30
0.0
  0
VERTEX
  5
21B
  8
DEFAULT_LAYER
 10
2402.700126646502
 20
423.9956329009742
 30
0.0
  0
VERTEX
  5
21C
  8
DEFAULT_LAYER
 10
2402.700126646502
 20
373.195632900974
 30
0.0
  0
SEQEND
  5
7C6
  8
DEFAULT_LAYER
  0
POLYLINE
  5
B4
  8
DEFAULT_LAYER
 66
     1
 10
0.0
 20
0.0
 30
0.0
 70
     1
  0
VERTEX
  5
21D
  8
DEFAULT_LAYER
 10
1876.284660505534
 20
485.9901207945054
 30
0.0
  0
VERTEX
  5
21E
  8
DEFAULT_LAYER
 10
3927.284660505534
 20
485.9901207945054
 30
0.0
  0
VERTEX
  5
21F
  8
DEFAULT_LAYER
 10
3927.284660505534
 20
605.9901207945059
 30
0.0
  0
VERTEX
  5
220
  8
DEFAULT_LAYER
 10
1876.284660505534
 20
605.9901207945059
 30
0.0
  0
SEQEND
  5
7C7
  8
DEFAULT_LAYER
  0
POLYLINE
  5
B5
  8
DEFAULT_LAYER
 66
     1
 10
0.0
 20
0.0
 30
0.0
 70
     1
  0
VERTEX
  5
221
  8
DEFAULT_LAYER
 10
1910.119018168702
 20
655.161909110348
 30
0.0
  0
VERTEX
  5
222
  8
DEFAULT_LAYER
 10
3961.119018168702
 20
655.161909110348
 30
0.0
  0
VERTEX
  5
223
  8
DEFAULT_LAYER
 10
3961.119018168702
 20
775.161909110348
 30
0.0
  0
VERTEX
  5
224
  8
DEFAULT_LAYER
 10
1910.119018168702
 20
775.161909110348
 30
0.0
  0
SEQEND
  5
7C8
  8
DEFAULT_LAYER
  0
POLYLINE
  5
B6
  8
DEFAULT_LAYER
 66
     1
 10
0.0
 20
0.0
 30
0.0
 70
     1
  0
VERTEX
  5
225
  8
DEFAULT_LAYER
 10
1911.816595266502
 20
329.6909845809737
 30
0.0
  0
VERTEX
  5
226
  8
DEFAULT_LAYER
 10
3962.816595266502
 20
329.6909845809737
 30
0.0
  0
VERTEX
  5
227
  8
DEFAULT_LAYER
 10
3962.816595266502
 20
449.6909845809741
 30
0.0
  0
VERTEX
  5
228
  8
DEFAULT_LAYER
 10
1911.816595266502
 20
449.6909845809741
 30
0.0
  0
SEQEND
  5
7C9
  8
DEFAULT_LAYER
  0
POLYLINE
  5
B7
  8
DEFAULT_LAYER
 66
     1
 10
0.0
 20
0.0
 30
0.0
 70
     1
  0
VERTEX
  5
229
  8
DEFAULT_LAYER
 10
2724.433459986502
 20
381.6622995659741
 30
0.0
  0
VERTEX
  5
22A
  8
DEFAULT_LAYER
 10
2758.300126646502
 20
381.6622995659741
 30
0.0
  0
VERTEX
  5
22B
  8
DEFAULT_LAYER
 10
2758.300126646502
 20
390.1289662309741
 30
0.0
  0
VERTEX
  5
22C
  8
DEFAULT_LAYER
 10
2741.366793316502
 20
423.9956329009742
 30
0.0
  0
VERTEX
  5
22D
  8
DEFAULT_LAYER
 10
2724.433459986502
 20
390.1289662309741
 30
0.0
  0
SEQEND
  5
7CA
  8
DEFAULT_LAYER
  0
POLYLINE
  5
B8
  8
DEFAULT_LAYER
 66
     1
 10
0.0
 20
0.0
 30
0.0
  0
VERTEX
  5
22E
  8
DEFAULT_LAYER
 10
2995.366793316502
 20
415.5289662309742
 30
0.0
  0
VERTEX
  5
22F
  8
DEFAULT_LAYER
 10
2986.900126646502
 20
423.9956329009742
 30
0.0
  0
VERTEX
  5
230
  8
DEFAULT_LAYER
 10
2969.966793316502
 20
423.9956329009742
 30
0.0
  0
VERTEX
  5
231
  8
DEFAULT_LAYER
 10
2961.500126646502
 20
415.5289662309742
 30
0.0
  0
VERTEX
  5
232
  8
DEFAULT_LAYER
 10
2995.366793316502
 20
381.6622995609741
 30
0.0
  0
VERTEX
  5
233
  8
DEFAULT_LAYER
 10
2986.900126646502
 20
373.195632900974
 30
0.0
  0
VERTEX
  5
234
  8
DEFAULT_LAYER
 10
2969.966793316502
 20
373.195632900974
 30
0.0
  0
VERTEX
  5
235
  8
DEFAULT_LAYER
 10
2953.033459981502
 20
377.4289662309743
 30
0.0
  0
VERTEX
  5
236
  8
DEFAULT_LAYER
 10
2914.933459981502
 20
398.5956329009741
 30
0.0
  0
VERTEX
  5
237
  8
DEFAULT_LAYER
 10
2936.100126646502
 20
398.5956329009741
 30
0.0
  0
VERTEX
  5
238
  8
DEFAULT_LAYER
 10
2944.566793316502
 20
407.0622995609742
 30
0.0
  0
VERTEX
  5
239
  8
DEFAULT_LAYER
 10
2944.566793316502
 20
415.5289662309742
 30
0.0
  0
VERTEX
  5
23A
  8
DEFAULT_LAYER
 10
2936.100126646502
 20
423.9956329009742
 30
0.0
  0
VERTEX
  5
23B
  8
DEFAULT_LAYER
 10
2910.700126646502
 20
423.9956329009742
 30
0.0
  0
VERTEX
  5
23C
  8
DEFAULT_LAYER
 10
2902.233459981502
 20
373.195632900974
 30
0.0
  0
VERTEX
  5
23D
  8
DEFAULT_LAYER
 10
2859.900126646502
 20
373.195632900974
 30
0.0
  0
VERTEX
  5
23E
  8
DEFAULT_LAYER
 10
2859.900126646502
 20
423.9956329009742
 30
0.0
  0
VERTEX
  5
23F
  8
DEFAULT_LAYER
 10
2893.766793316502
 20
423.9956329009742
 30
0.0
  0
SEQEND
  5
7CB
  8
DEFAULT_LAYER
  0
POLYLINE
  5
B9
  8
DEFAULT_LAYER
 66
     1
 10
0.0
 20
0.0
 30
0.0
  0
VERTEX
  5
240
  8
DEFAULT_LAYER
 10
2859.900126646502
 20
398.5956329009741
 30
0.0
  0
VERTEX
  5
241
  8
DEFAULT_LAYER
 10
2876.833459986502
 20
398.5956329009741
 30
0.0
  0
SEQEND
  5
7CC
  8
DEFAULT_LAYER
  0
POLYLINE
  5
BA
  8
DEFAULT_LAYER
 66
     1
 10
0.0
 20
0.0
 30
0.0
  0
VERTEX
  5
242
  8
DEFAULT_LAYER
 10
2775.233459986502
 20
423.9956329009742
 30
0.0
  0
VERTEX
  5
243
  8
DEFAULT_LAYER
 10
2787.933459981502
 20
423.9956329009742
 30
0.0
  0
VERTEX
  5
244
  8
DEFAULT_LAYER
 10
2779.466793316502
 20
373.195632900974
 30
0.0
  0
VERTEX
  5
245
  8
DEFAULT_LAYER
 10
2800.633459981502
 20
373.195632900974
 30
0.0
  0
VERTEX
  5
246
  8
DEFAULT_LAYER
 10
2809.100126646502
 20
423.9956329009742
 30
0.0
  0
VERTEX
  5
247
  8
DEFAULT_LAYER
 10
2842.966793316502
 20
373.195632900974
 30
0.0
  0
VERTEX
  5
248
  8
DEFAULT_LAYER
 10
2842.966793316502
 20
423.9956329009742
 30
0.0
  0
SEQEND
  5
7CD
  8
DEFAULT_LAYER
  0
POLYLINE
  5
BB
  8
DEFAULT_LAYER
 66
     1
 10
0.0
 20
0.0
 30
0.0
  0
VERTEX
  5
249
  8
DEFAULT_LAYER
 10
2622.833459986502
 20
398.5956329009741
 30
0.0
  0
VERTEX
  5
24A
  8
DEFAULT_LAYER
 10
2639.766793316502
 20
398.5956329009741
 30
0.0
  0
SEQEND
  5
7CE
  8
DEFAULT_LAYER
  0
POLYLINE
  5
BC
  8
DEFAULT_LAYER
 66
     1
 10
0.0
 20
0.0
 30
0.0
  0
VERTEX
  5
24B
  8
DEFAULT_LAYER
 10
2656.700126646502
 20
373.195632900974
 30
0.0
  0
VERTEX
  5
24C
  8
DEFAULT_LAYER
 10
2622.833459986502
 20
373.195632900974
 30
0.0
  0
VERTEX
  5
24D
  8
DEFAULT_LAYER
 10
2622.833459986502
 20
423.9956329009742
 30
0.0
  0
VERTEX
  5
24E
  8
DEFAULT_LAYER
 10
2665.166793316502
 20
423.9956329009742
 30
0.0
  0
VERTEX
  5
24F
  8
DEFAULT_LAYER
 10
2699.033459981502
 20
423.9956329009742
 30
0.0
  0
VERTEX
  5
250
  8
DEFAULT_LAYER
 10
2690.566793316502
 20
373.195632900974
 30
0.0
  0
SEQEND
  5
7CF
  8
DEFAULT_LAYER
  0
POLYLINE
  5
BD
  8
DEFAULT_LAYER
 66
     1
 10
0.0
 20
0.0
 30
0.0
  0
VERTEX
  5
251
  8
DEFAULT_LAYER
 10
2572.033459986502
 20
373.195632900974
 30
0.0
  0
VERTEX
  5
252
  8
DEFAULT_LAYER
 10
2572.033459986502
 20
423.9956329009742
 30
0.0
  0
VERTEX
  5
253
  8
DEFAULT_LAYER
 10
2597.433459986502
 20
423.9956329009742
 30
0.0
  0
VERTEX
  5
254
  8
DEFAULT_LAYER
 10
2605.900126646502
 20
415.5289662309742
 30
0.0
  0
VERTEX
  5
255
  8
DEFAULT_LAYER
 10
2605.900126646502
 20
407.0622995609742
 30
0.0
  0
VERTEX
  5
256
  8
DEFAULT_LAYER
 10
2597.433459986502
 20
398.5956329009741
 30
0.0
  0
VERTEX
  5
257
  8
DEFAULT_LAYER
 10
2576.266793316502
 20
398.5956329009741
 30
0.0
  0
VERTEX
  5
258
  8
DEFAULT_LAYER
 10
2605.900126646502
 20
373.195632900974
 30
0.0
  0
SEQEND
  5
7D0
  8
DEFAULT_LAYER
  0
POLYLINE
  5
BE
  8
DEFAULT_LAYER
 66
     1
 10
0.0
 20
0.0
 30
0.0
  0
VERTEX
  5
259
  8
DEFAULT_LAYER
 10
2419.633459986502
 20
373.195632900974
 30
0.0
  0
VERTEX
  5
25A
  8
DEFAULT_LAYER
 10
2419.633459986502
 20
423.9956329009742
 30
0.0
  0
VERTEX
  5
25B
  8
DEFAULT_LAYER
 10
2453.500126646502
 20
373.195632900974
 30
0.0
  0
VERTEX
  5
25C
  8
DEFAULT_LAYER
 10
2461.966793316502
 20
423.9956329009742
 30
0.0
  0
VERTEX
  5
25D
  8
DEFAULT_LAYER
 10
2495.833459981502
 20
423.9956329009742
 30
0.0
  0
VERTEX
  5
25E
  8
DEFAULT_LAYER
 10
2487.366793316502
 20
373.195632900974
 30
0.0
  0
SEQEND
  5
7D1
  8
DEFAULT_LAYER
  0
POLYLINE
  5
BF
  8
DEFAULT_LAYER
 66
     1
 10
0.0
 20
0.0
 30
0.0
  0
VERTEX
  5
25F
  8
DEFAULT_LAYER
 10
2318.033459986502
 20
373.195632900974
 30
0.0
  0
VERTEX
  5
260
  8
DEFAULT_LAYER
 10
2318.033459986502
 20
423.9956329009742
 30
0.0
  0
VERTEX
  5
261
  8
DEFAULT_LAYER
 10
2343.433459986502
 20
423.9956329009742
 30
0.0
  0
VERTEX
  5
262
  8
DEFAULT_LAYER
 10
2351.900126646502
 20
415.5289662309742
 30
0.0
  0
VERTEX
  5
263
  8
DEFAULT_LAYER
 10
2351.900126646502
 20
407.0622995609742
 30
0.0
  0
VERTEX
  5
264
  8
DEFAULT_LAYER
 10
2343.433459986502
 20
398.5956329009741
 30
0.0
  0
VERTEX
  5
265
  8
DEFAULT_LAYER
 10
2322.266793316502
 20
398.5956329009741
 30
0.0
  0
VERTEX
  5
266
  8
DEFAULT_LAYER
 10
2351.900126646502
 20
373.195632900974
 30
0.0
  0
SEQEND
  5
7D2
  8
DEFAULT_LAYER
  0
POLYLINE
  5
C0
  8
DEFAULT_LAYER
 66
     1
 10
0.0
 20
0.0
 30
0.0
  0
VERTEX
  5
267
  8
DEFAULT_LAYER
 10
2267.233459986502
 20
398.5956329009741
 30
0.0
  0
VERTEX
  5
268
  8
DEFAULT_LAYER
 10
2284.166793316502
 20
398.5956329009741
 30
0.0
  0
SEQEND
  5
7D3
  8
DEFAULT_LAYER
  0
POLYLINE
  5
C1
  8
DEFAULT_LAYER
 66
     1
 10
0.0
 20
0.0
 30
0.0
  0
VERTEX
  5
269
  8
DEFAULT_LAYER
 10
2267.233459986502
 20
373.195632900974
 30
0.0
  0
VERTEX
  5
26A
  8
DEFAULT_LAYER
 10
2267.233459986502
 20
423.9956329009742
 30
0.0
  0
VERTEX
  5
26B
  8
DEFAULT_LAYER
 10
2301.100126646502
 20
423.9956329009742
 30
0.0
  0
SEQEND
  5
7D4
  8
DEFAULT_LAYER
  0
POLYLINE
  5
C2
  8
DEFAULT_LAYER
 66
     1
 10
0.0
 20
0.0
 30
0.0
 70
     1
  0
VERTEX
  5
26C
  8
DEFAULT_LAYER
 10
2059.772558172844
 20
3731.40513442
 30
0.0
  0
VERTEX
  5
26D
  8
DEFAULT_LAYER
 10
2047.96665081
 20
3731.40513442
 30
0.0
  0
VERTEX
  5
26E
  8
DEFAULT_LAYER
 10
2047.96665081
 20
3694.63710048
 30
0.0
  0
VERTEX
  5
26F
  8
DEFAULT_LAYER
 10
17.95125830999999
 20
3694.63710048
 30
0.0
  0
VERTEX
  5
270
  8
DEFAULT_LAYER
 10
17.95125830999999
 20
3731.40513442
 30
0.0
  0
VERTEX
  5
271
  8
DEFAULT_LAYER
 10
6.232420788554293
 20
3731.40513442
 30
0.0
  0
VERTEX
  5
272
  8
DEFAULT_LAYER
 10
6.232420788554293
 20
3761.40513442
 30
0.0
  0
VERTEX
  5
273
  8
DEFAULT_LAYER
 10
17.95125830999999
 20
3761.40513442
 30
0.0
  0
VERTEX
  5
274
  8
DEFAULT_LAYER
 10
17.95125830999999
 20
3774.63710048
 30
0.0
  0
VERTEX
  5
275
  8
DEFAULT_LAYER
 10
2047.96665081
 20
3774.63710048
 30
0.0
  0
VERTEX
  5
276
  8
DEFAULT_LAYER
 10
2047.96665081
 20
3761.40513442
 30
0.0
  0
VERTEX
  5
277
  8
DEFAULT_LAYER
 10
2059.772558172844
 20
3761.405134420002
 30
0.0
  0
SEQEND
  5
7D5
  8
DEFAULT_LAYER
  0
POLYLINE
  5
C3
  8
DEFAULT_LAYER
 66
     1
 10
0.0
 20
0.0
 30
0.0
 70
     1
  0
VERTEX
  5
278
  8
DEFAULT_LAYER
 10
2060.65419469
 20
3611.00276694
 30
0.0
  0
VERTEX
  5
279
  8
DEFAULT_LAYER
 10
2060.65419469
 20
3641.00276694
 30
0.0
  0
VERTEX
  5
27A
  8
DEFAULT_LAYER
 10
2048.52864228
 20
3641.00276694
 30
0.0
  0
VERTEX
  5
27B
  8
DEFAULT_LAYER
 10
2048.65419469
 20
3656.04605785
 30
0.0
  0
VERTEX
  5
27C
  8
DEFAULT_LAYER
 10
18.53421247
 20
3656.04605785
 30
0.0
  0
VERTEX
  5
27D
  8
DEFAULT_LAYER
 10
18.53421247
 20
3641.11467578
 30
0.0
  0
VERTEX
  5
27E
  8
DEFAULT_LAYER
 10
6.232420788554293
 20
3641.11467578
 30
0.0
  0
VERTEX
  5
27F
  8
DEFAULT_LAYER
 10
6.232420788554322
 20
3611.11467578
 30
0.0
  0
VERTEX
  5
280
  8
DEFAULT_LAYER
 10
18.53421247
 20
3611.11467578
 30
0.0
  0
VERTEX
  5
281
  8
DEFAULT_LAYER
 10
18.53421247
 20
3531.04605785
 30
0.0
  0
VERTEX
  5
282
  8
DEFAULT_LAYER
 10
2048.52864228
 20
3531.04605785
 30
0.0
  0
VERTEX
  5
283
  8
DEFAULT_LAYER
 10
2048.52864228
 20
3611.00276694
 30
0.0
  0
SEQEND
  5
7D6
  8
DEFAULT_LAYER
  0
POLYLINE
  5
C4
  8
DEFAULT_LAYER
 66
     1
 10
0.0
 20
0.0
 30
0.0
 70
     1
  0
VERTEX
  5
284
  8
DEFAULT_LAYER
 10
2075.814227880898
 20
3286.41669663
 30
0.0
  0
VERTEX
  5
285
  8
DEFAULT_LAYER
 10
2075.814227880898
 20
3316.416696630001
 30
0.0
  0
VERTEX
  5
286
  8
DEFAULT_LAYER
 10
2063.80007112
 20
3316.41669663
 30
0.0
  0
VERTEX
  5
287
  8
DEFAULT_LAYER
 10
2063.92562353
 20
3331.45998754
 30
0.0
  0
VERTEX
  5
288
  8
DEFAULT_LAYER
 10
33.80564131
 20
3331.45998754
 30
0.0
  0
VERTEX
  5
289
  8
DEFAULT_LAYER
 10
33.80564131
 20
3316.52860547
 30
0.0
  0
VERTEX
  5
28A
  8
DEFAULT_LAYER
 10
21.67447966160657
 20
3316.52860547
 30
0.0
  0
VERTEX
  5
28B
  8
DEFAULT_LAYER
 10
21.67447966160657
 20
3286.52860547
 30
0.0
  0
VERTEX
  5
28C
  8
DEFAULT_LAYER
 10
33.80564131
 20
3286.52860547
 30
0.0
  0
VERTEX
  5
28D
  8
DEFAULT_LAYER
 10
33.80564131
 20
3206.45998754
 30
0.0
  0
VERTEX
  5
28E
  8
DEFAULT_LAYER
 10
2063.80007112
 20
3206.45998754
 30
0.0
  0
VERTEX
  5
28F
  8
DEFAULT_LAYER
 10
2063.80007112
 20
3286.41669663
 30
0.0
  0
SEQEND
  5
7D7
  8
DEFAULT_LAYER
  0
POLYLINE
  5
C5
  8
DEFAULT_LAYER
 66
     1
 10
0.0
 20
0.0
 30
0.0
 70
     1
  0
VERTEX
  5
290
  8
DEFAULT_LAYER
 10
137.875873835
 20
3242.26946945
 30
0.0
  0
VERTEX
  5
291
  8
DEFAULT_LAYER
 10
159.0425405
 20
3242.26946945
 30
0.0
  0
VERTEX
  5
292
  8
DEFAULT_LAYER
 10
167.50920717
 20
3250.73613611
 30
0.0
  0
VERTEX
  5
293
  8
DEFAULT_LAYER
 10
167.50920717
 20
3259.20280278
 30
0.0
  0
VERTEX
  5
294
  8
DEFAULT_LAYER
 10
159.0425405
 20
3267.66946945
 30
0.0
  0
VERTEX
  5
295
  8
DEFAULT_LAYER
 10
150.575873835
 20
3267.66946945
 30
0.0
  0
VERTEX
  5
296
  8
DEFAULT_LAYER
 10
167.50920717
 20
3276.13613611
 30
0.0
  0
VERTEX
  5
297
  8
DEFAULT_LAYER
 10
167.50920717
 20
3284.60280278
 30
0.0
  0
VERTEX
  5
298
  8
DEFAULT_LAYER
 10
159.0425405
 20
3293.06946945
 30
0.0
  0
VERTEX
  5
299
  8
DEFAULT_LAYER
 10
137.875873835
 20
3293.06946945
 30
0.0
  0
SEQEND
  5
7D8
  8
DEFAULT_LAYER
  0
POLYLINE
  5
C6
  8
DEFAULT_LAYER
 66
     1
 10
0.0
 20
0.0
 30
0.0
  0
VERTEX
  5
29A
  8
DEFAULT_LAYER
 10
2048.65419469
 20
3656.04605785
 30
0.0
  0
VERTEX
  5
29B
  8
DEFAULT_LAYER
 10
2048.65419469
 20
3641.00276694
 30
0.0
  0
SEQEND
  5
7D9
  8
DEFAULT_LAYER
  0
POLYLINE
  5
C7
  8
DEFAULT_LAYER
 66
     1
 10
0.0
 20
0.0
 30
0.0
  0
VERTEX
  5
29C
  8
DEFAULT_LAYER
 10
2063.814227880898
 20
3316.416696630002
 30
0.0
  0
VERTEX
  5
29D
  8
DEFAULT_LAYER
 10
2063.814227880898
 20
3331.45998754
 30
0.0
  0
SEQEND
  5
7DA
  8
DEFAULT_LAYER
  0
POLYLINE
  5
C8
  8
DEFAULT_LAYER
 66
     1
 10
0.0
 20
0.0
 30
0.0
  0
VERTEX
  5
29E
  8
DEFAULT_LAYER
 10
162.27281289
 20
3763.38031669
 30
0.0
  0
VERTEX
  5
29F
  8
DEFAULT_LAYER
 10
187.672812895
 20
3763.38031669
 30
0.0
  0
VERTEX
  5
2A0
  8
DEFAULT_LAYER
 10
179.20614623
 20
3712.58031669
 30
0.0
  0
SEQEND
  5
7DB
  8
DEFAULT_LAYER
  0
POLYLINE
  5
C9
  8
DEFAULT_LAYER
 66
     1
 10
0.0
 20
0.0
 30
0.0
  0
VERTEX
  5
2A1
  8
DEFAULT_LAYER
 10
147.9576767
 20
3576.49130059
 30
0.0
  0
VERTEX
  5
2A2
  8
DEFAULT_LAYER
 10
147.9576767
 20
3627.29130059
 30
0.0
  0
VERTEX
  5
2A3
  8
DEFAULT_LAYER
 10
164.89101003
 20
3593.42463392
 30
0.0
  0
VERTEX
  5
2A4
  8
DEFAULT_LAYER
 10
181.82434336
 20
3627.29130059
 30
0.0
  0
VERTEX
  5
2A5
  8
DEFAULT_LAYER
 10
181.82434336
 20
3576.49130059
 30
0.0
  0
SEQEND
  5
7DC
  8
DEFAULT_LAYER
  0
POLYLINE
  5
CA
  8
DEFAULT_LAYER
 66
     1
 10
0.0
 20
0.0
 30
0.0
 70
     1
  0
VERTEX
  5
2A6
  8
DEFAULT_LAYER
 10
2949.482641403494
 20
3009.303058853741
 30
0.0
  0
VERTEX
  5
2A7
  8
DEFAULT_LAYER
 10
2506.641328643494
 20
3009.303058853741
 30
0.0
  0
VERTEX
  5
2A8
  8
DEFAULT_LAYER
 10
2506.641328643494
 20
4304.652024553741
 30
0.0
 42
-0.41421356
  0
VERTEX
  5
2A9
  8
DEFAULT_LAYER
 10
2556.641328643494
 20
4354.652024553741
 30
0.0
  0
VERTEX
  5
2AA
  8
DEFAULT_LAYER
 10
2731.482641403494
 20
4354.652024553741
 30
0.0
  0
VERTEX
  5
2AB
  8
DEFAULT_LAYER
 10
2731.482641403494
 20
4334.296428723741
 30
0.0
  0
VERTEX
  5
2AC
  8
DEFAULT_LAYER
 10
2792.056234533494
 20
4334.296428723741
 30
0.0
 42
-0.19891237
  0
VERTEX
  5
2AD
  8
DEFAULT_LAYER
 10
2813.269437973494
 20
4325.509632163741
 30
0.0
  0
VERTEX
  5
2AE
  8
DEFAULT_LAYER
 10
2814.298100283494
 20
4324.508426293741
 30
0.0
  0
VERTEX
  5
2AF
  8
DEFAULT_LAYER
 10
2815.353346893494
 20
4323.528227283741
 30
0.0
  0
VERTEX
  5
2B0
  8
DEFAULT_LAYER
 10
2816.429042973494
 20
4322.564187403741
 30
0.0
  0
VERTEX
  5
2B1
  8
DEFAULT_LAYER
 10
2817.519053673494
 20
4321.611458913741
 30
0.0
  0
VERTEX
  5
2B2
  8
DEFAULT_LAYER
 10
2819.717479583494
 20
4319.720545133741
 30
0.0
  0
VERTEX
  5
2B3
  8
DEFAULT_LAYER
 10
2820.813625123494
 20
4318.772664383741
 30
0.0
  0
VERTEX
  5
2B4
  8
DEFAULT_LAYER
 10
2821.899545933494
 20
4317.816704063741
 30
0.0
  0
VERTEX
  5
2B5
  8
DEFAULT_LAYER
 10
2822.969107173494
 20
4316.84781644374
 30
0.0
  0
VERTEX
  5
2B6
  8
DEFAULT_LAYER
 10
2824.016174003494
 20
4315.861153793741
 30
0.0
  0
VERTEX
  5
2B7
  8
DEFAULT_LAYER
 10
2825.034611583494
 20
4314.85186835374
 30
0.0
  0
VERTEX
  5
2B8
  8
DEFAULT_LAYER
 10
2826.018285073494
 20
4313.81511241374
 30
0.0
  0
VERTEX
  5
2B9
  8
DEFAULT_LAYER
 10
2826.961059643494
 20
4312.746038213741
 30
0.0
  0
VERTEX
  5
2BA
  8
DEFAULT_LAYER
 10
2827.415192693494
 20
4312.197866853741
 30
0.0
  0
VERTEX
  5
2BB
  8
DEFAULT_LAYER
 10
2827.856800443494
 20
4311.639798023741
 30
0.0
  0
VERTEX
  5
2BC
  8
DEFAULT_LAYER
 10
2828.285116053494
 20
4311.071225763741
 30
0.0
  0
VERTEX
  5
2BD
  8
DEFAULT_LAYER
 10
2828.699372643494
 20
4310.491544103741
 30
0.0
  0
VERTEX
  5
2BE
  8
DEFAULT_LAYER
 10
2829.098803383494
 20
4309.900147083741
 30
0.0
  0
VERTEX
  5
2BF
  8
DEFAULT_LAYER
 10
2829.482641403494
 20
4309.296428723741
 30
0.0
  0
VERTEX
  5
2C0
  8
DEFAULT_LAYER
 10
2829.681991973494
 20
4308.952117753741
 30
0.0
  0
VERTEX
  5
2C1
  8
DEFAULT_LAYER
 10
2829.903855293494
 20
4308.530511753741
 30
0.0
  0
VERTEX
  5
2C2
  8
DEFAULT_LAYER
 10
2830.412706193494
 20
4307.462889913741
 30
0.0
  0
VERTEX
  5
2C3
  8
DEFAULT_LAYER
 10
2831.004366133494
 20
4306.108513813741
 30
0.0
  0
VERTEX
  5
2C4
  8
DEFAULT_LAYER
 10
2831.674007123494
 20
4304.48233405374
 30
0.0
  0
VERTEX
  5
2C5
  8
DEFAULT_LAYER
 10
2832.416801183494
 20
4302.599301213741
 30
0.0
  0
VERTEX
  5
2C6
  8
DEFAULT_LAYER
 10
2833.227920313494
 20
4300.47436589374
 30
0.0
  0
VERTEX
  5
2C7
  8
DEFAULT_LAYER
 10
2834.102536543494
 20
4298.122478693741
 30
0.0
  0
VERTEX
  5
2C8
  8
DEFAULT_LAYER
 10
2835.035821883494
 20
4295.558590203741
 30
0.0
  0
VERTEX
  5
2C9
  8
DEFAULT_LAYER
 10
2837.059087953494
 20
4289.854611753741
 30
0.0
  0
VERTEX
  5
2CA
  8
DEFAULT_LAYER
 10
2839.259094633494
 20
4283.482035303741
 30
0.0
  0
VERTEX
  5
2CB
  8
DEFAULT_LAYER
 10
2841.597218053494
 20
4276.56046561374
 30
0.0
  0
VERTEX
  5
2CC
  8
DEFAULT_LAYER
 10
2844.034834323494
 20
4269.209507453741
 30
0.0
  0
VERTEX
  5
2CD
  8
DEFAULT_LAYER
 10
2846.533319563494
 20
4261.548765583741
 30
0.0
  0
VERTEX
  5
2CE
  8
DEFAULT_LAYER
 10
2849.054049893494
 20
4253.697844763741
 30
0.0
  0
VERTEX
  5
2CF
  8
DEFAULT_LAYER
 10
2851.558401433494
 20
4245.776349753741
 30
0.0
  0
VERTEX
  5
2D0
  8
DEFAULT_LAYER
 10
2854.007750293494
 20
4237.903885333741
 30
0.0
  0
VERTEX
  5
2D1
  8
DEFAULT_LAYER
 10
2856.363472613494
 20
4230.200056253741
 30
0.0
  0
VERTEX
  5
2D2
  8
DEFAULT_LAYER
 10
2858.586944483494
 20
4222.784467283741
 30
0.0
  0
VERTEX
  5
2D3
  8
DEFAULT_LAYER
 10
2860.639542043494
 20
4215.776723183741
 30
0.0
  0
VERTEX
  5
2D4
  8
DEFAULT_LAYER
 10
2861.589692993494
 20
4212.46316945374
 30
0.0
  0
VERTEX
  5
2D5
  8
DEFAULT_LAYER
 10
2862.482641403494
 20
4209.296428723741
 30
0.0
  0
VERTEX
  5
2D6
  8
DEFAULT_LAYER
 10
2863.336520593494
 20
4206.20582323374
 30
0.0
  0
VERTEX
  5
2D7
  8
DEFAULT_LAYER
 10
2864.173244993494
 20
4203.110851323741
 30
0.0
  0
VERTEX
  5
2D8
  8
DEFAULT_LAYER
 10
2864.993658263494
 20
4200.01172774374
 30
0.0
  0
VERTEX
  5
2D9
  8
DEFAULT_LAYER
 10
2865.798604093494
 20
4196.908667213741
 30
0.0
  0
VERTEX
  5
2DA
  8
DEFAULT_LAYER
 10
2867.365468153494
 20
4190.691594323741
 30
0.0
  0
VERTEX
  5
2DB
  8
DEFAULT_LAYER
 10
2868.880586583494
 20
4184.461350593741
 30
0.0
  0
VERTEX
  5
2DC
  8
DEFAULT_LAYER
 10
2870.350708823494
 20
4178.219653953741
 30
0.0
  0
VERTEX
  5
2DD
  8
DEFAULT_LAYER
 10
2871.782584303494
 20
4171.96822233374
 30
0.0
  0
VERTEX
  5
2DE
  8
DEFAULT_LAYER
 10
2873.182962443494
 20
4165.70877368374
 30
0.0
  0
VERTEX
  5
2DF
  8
DEFAULT_LAYER
 10
2874.558592673494
 20
4159.443025943741
 30
0.0
  0
VERTEX
  5
2E0
  8
DEFAULT_LAYER
 10
2877.262607143494
 20
4146.899504893741
 30
0.0
  0
VERTEX
  5
2E1
  8
DEFAULT_LAYER
 10
2879.948623133494
 20
4134.35140268374
 30
0.0
  0
VERTEX
  5
2E2
  8
DEFAULT_LAYER
 10
2881.301755273494
 20
4128.07992847374
 30
0.0
  0
VERTEX
  5
2E3
  8
DEFAULT_LAYER
 10
2882.670636073494
 20
4121.812462793741
 30
0.0
  0
VERTEX
  5
2E4
  8
DEFAULT_LAYER
 10
2884.062014973494
 20
4115.550723563741
 30
0.0
  0
VERTEX
  5
2E5
  8
DEFAULT_LAYER
 10
2885.482641403494
 20
4109.296428723741
 30
0.0
  0
VERTEX
  5
2E6
  8
DEFAULT_LAYER
 10
2887.632305533494
 20
4099.917725043741
 30
0.0
  0
VERTEX
  5
2E7
  8
DEFAULT_LAYER
 10
2889.824720803494
 20
4090.532601633741
 30
0.0
  0
VERTEX
  5
2E8
  8
DEFAULT_LAYER
 10
2892.050021583494
 20
4081.142539993741
 30
0.0
  0
VERTEX
  5
2E9
  8
DEFAULT_LAYER
 10
2894.298342203494
 20
4071.749021573741
 30
0.0
  0
VERTEX
  5
2EA
  8
DEFAULT_LAYER
 10
2898.824580403494
 20
4052.957540313741
 30
0.0
  0
VERTEX
  5
2EB
  8
DEFAULT_LAYER
 10
2901.082766683494
 20
4043.562540423741
 30
0.0
  0
VERTEX
  5
2EC
  8
DEFAULT_LAYER
 10
2903.324510203494
 20
4034.170009653741
 30
0.0
  0
VERTEX
  5
2ED
  8
DEFAULT_LAYER
 10
2905.539945333494
 20
4024.781429483741
 30
0.0
  0
VERTEX
  5
2EE
  8
DEFAULT_LAYER
 10
2907.719206403494
 20
4015.398281373741
 30
0.0
  0
VERTEX
  5
2EF
  8
DEFAULT_LAYER
 10
2909.852427783494
 20
4006.022046813741
 30
0.0
  0
VERTEX
  5
2F0
  8
DEFAULT_LAYER
 10
2911.929743803494
 20
3996.654207273741
 30
0.0
  0
VERTEX
  5
2F1
  8
DEFAULT_LAYER
 10
2912.944354293494
 20
3991.973898593741
 30
0.0
  0
VERTEX
  5
2F2
  8
DEFAULT_LAYER
 10
2913.941288833494
 20
3987.296244213741
 30
0.0
  0
VERTEX
  5
2F3
  8
DEFAULT_LAYER
 10
2914.919314203494
 20
3982.621429333741
 30
0.0
  0
VERTEX
  5
2F4
  8
DEFAULT_LAYER
 10
2915.877197203494
 20
3977.949639123741
 30
0.0
  0
VERTEX
  5
2F5
  8
DEFAULT_LAYER
 10
2916.813704633494
 20
3973.281058773741
 30
0.0
  0
VERTEX
  5
2F6
  8
DEFAULT_LAYER
 10
2917.727603283494
 20
3968.615873473741
 30
0.0
  0
VERTEX
  5
2F7
  8
DEFAULT_LAYER
 10
2918.617659943494
 20
3963.954268393741
 30
0.0
  0
VERTEX
  5
2F8
  8
DEFAULT_LAYER
 10
2919.482641403494
 20
3959.296428723741
 30
0.0
  0
VERTEX
  5
2F9
  8
DEFAULT_LAYER
 10
2920.331650553494
 20
3954.591048003741
 30
0.0
  0
VERTEX
  5
2FA
  8
DEFAULT_LAYER
 10
2921.174213103494
 20
3949.792954103741
 30
0.0
  0
VERTEX
  5
2FB
  8
DEFAULT_LAYER
 10
2922.009730093494
 20
3944.911533703741
 30
0.0
  0
VERTEX
  5
2FC
  8
DEFAULT_LAYER
 10
2922.837602603494
 20
3939.956173473741
 30
0.0
  0
VERTEX
  5
2FD
  8
DEFAULT_LAYER
 10
2923.657231663494
 20
3934.936260083741
 30
0.0
  0
VERTEX
  5
2FE
  8
DEFAULT_LAYER
 10
2924.468018323494
 20
3929.861180233741
 30
0.0
  0
VERTEX
  5
2FF
  8
DEFAULT_LAYER
 10
2925.269363653494
 20
3924.740320583741
 30
0.0
  0
VERTEX
  5
300
  8
DEFAULT_LAYER
 10
2926.060668703494
 20
3919.583067823741
 30
0.0
  0
VERTEX
  5
301
  8
DEFAULT_LAYER
 10
2927.610762143494
 20
3909.196929653741
 30
0.0
  0
VERTEX
  5
302
  8
DEFAULT_LAYER
 10
2929.113507083494
 20
3898.777859153741
 30
0.0
  0
VERTEX
  5
303
  8
DEFAULT_LAYER
 10
2930.564111943494
 20
3888.400949743741
 30
0.0
  0
VERTEX
  5
304
  8
DEFAULT_LAYER
 10
2931.957785133494
 20
3878.141294843741
 30
0.0
  0
VERTEX
  5
305
  8
DEFAULT_LAYER
 10
2933.289735073494
 20
3868.073987883741
 30
0.0
  0
VERTEX
  5
306
  8
DEFAULT_LAYER
 10
2934.555170203494
 20
3858.27412227374
 30
0.0
  0
VERTEX
  5
307
  8
DEFAULT_LAYER
 10
2935.749298933494
 20
3848.816791443741
 30
0.0
  0
VERTEX
  5
308
  8
DEFAULT_LAYER
 10
2936.867329693494
 20
3839.777088803741
 30
0.0
  0
VERTEX
  5
309
  8
DEFAULT_LAYER
 10
2937.904470893494
 20
3831.230107803741
 30
0.0
  0
VERTEX
  5
30A
  8
DEFAULT_LAYER
 10
2938.855930973494
 20
3823.250941833741
 30
0.0
  0
VERTEX
  5
30B
  8
DEFAULT_LAYER
 10
2940.482641403494
 20
3809.296428723741
 30
0.0
  0
VERTEX
  5
30C
  8
DEFAULT_LAYER
 10
2941.898322223494
 20
3796.818954353741
 30
0.0
  0
VERTEX
  5
30D
  8
DEFAULT_LAYER
 10
2943.267280133494
 20
3784.326330043741
 30
0.0
  0
VERTEX
  5
30E
  8
DEFAULT_LAYER
 10
2943.928561623494
 20
3778.075698233741
 30
0.0
  0
VERTEX
  5
30F
  8
DEFAULT_LAYER
 10
2944.571350753494
 20
3771.822912813741
 30
0.0
  0
VERTEX
  5
310
  8
DEFAULT_LAYER
 10
2945.193376963494
 20
3765.568518423741
 30
0.0
  0
VERTEX
  5
311
  8
DEFAULT_LAYER
 10
2945.792369713494
 20
3759.313059683741
 30
0.0
  0
VERTEX
  5
312
  8
DEFAULT_LAYER
 10
2946.366058453494
 20
3753.057081233741
 30
0.0
  0
VERTEX
  5
313
  8
DEFAULT_LAYER
 10
2946.912172633494
 20
3746.801127683741
 30
0.0
  0
VERTEX
  5
314
  8
DEFAULT_LAYER
 10
2947.428441713494
 20
3740.545743683741
 30
0.0
  0
VERTEX
  5
315
  8
DEFAULT_LAYER
 10
2947.912595143494
 20
3734.291473843741
 30
0.0
  0
VERTEX
  5
316
  8
DEFAULT_LAYER
 10
2948.362362373494
 20
3728.038862803741
 30
0.0
  0
VERTEX
  5
317
  8
DEFAULT_LAYER
 10
2948.775472863494
 20
3721.788455183741
 30
0.0
  0
VERTEX
  5
318
  8
DEFAULT_LAYER
 10
2949.149656053494
 20
3715.540795613741
 30
0.0
  0
VERTEX
  5
319
  8
DEFAULT_LAYER
 10
2949.482641403494
 20
3709.296428723741
 30
0.0
  0
VERTEX
  5
31A
  8
DEFAULT_LAYER
 10
2949.630792543494
 20
3706.17492970374
 30
0.0
  0
VERTEX
  5
31B
  8
DEFAULT_LAYER
 10
2949.764102953494
 20
3703.052986233741
 30
0.0
  0
VERTEX
  5
31C
  8
DEFAULT_LAYER
 10
2949.989121083494
 20
3696.807853373741
 30
0.0
  0
VERTEX
  5
31D
  8
DEFAULT_LAYER
 10
2950.163534763494
 20
3690.561204983741
 30
0.0
  0
VERTEX
  5
31E
  8
DEFAULT_LAYER
 10
2950.293182973494
 20
3684.313215953741
 30
0.0
  0
VERTEX
  5
31F
  8
DEFAULT_LAYER
 10
2950.383904683494
 20
3678.064061153741
 30
0.0
  0
VERTEX
  5
320
  8
DEFAULT_LAYER
 10
2950.441538873494
 20
3671.813915423741
 30
0.0
  0
VERTEX
  5
321
  8
DEFAULT_LAYER
 10
2950.471924513494
 20
3665.562953653741
 30
0.0
  0
VERTEX
  5
322
  8
DEFAULT_LAYER
 10
2950.480900573494
 20
3659.31135071374
 30
0.0
  0
VERTEX
  5
323
  8
DEFAULT_LAYER
 10
2950.457979883494
 20
3646.806920743741
 30
0.0
  0
VERTEX
  5
324
  8
DEFAULT_LAYER
 10
2950.419488593494
 20
3634.302024463741
 30
0.0
  0
VERTEX
  5
325
  8
DEFAULT_LAYER
 10
2950.409001413494
 20
3628.049838633741
 30
0.0
  0
VERTEX
  5
326
  8
DEFAULT_LAYER
 10
2950.412138503494
 20
3621.79806081374
 30
0.0
  0
VERTEX
  5
327
  8
DEFAULT_LAYER
 10
2950.434738843494
 20
3615.546865893741
 30
0.0
  0
VERTEX
  5
328
  8
DEFAULT_LAYER
 10
2950.482641403494
 20
3609.296428723741
 30
0.0
  0
VERTEX
  5
329
  8
DEFAULT_LAYER
 10
2950.621313283494
 20
3596.796497083741
 30
0.0
  0
VERTEX
  5
32A
  8
DEFAULT_LAYER
 10
2950.779516403494
 20
3584.296663093741
 30
0.0
  0
VERTEX
  5
32B
  8
DEFAULT_LAYER
 10
2951.107641403494
 20
3559.297053703741
 30
0.0
  0
VERTEX
  5
32C
  8
DEFAULT_LAYER
 10
2951.254125783494
 20
3546.797161123741
 30
0.0
  0
VERTEX
  5
32D
  8
DEFAULT_LAYER
 10
2951.373266403494
 20
3534.29713183374
 30
0.0
  0
VERTEX
  5
32E
  8
DEFAULT_LAYER
 10
2951.453344533494
 20
3521.796907223741
 30
0.0
  0
VERTEX
  5
32F
  8
DEFAULT_LAYER
 10
2951.482641403494
 20
3509.296428723741
 30
0.0
  0
VERTEX
  5
330
  8
DEFAULT_LAYER
 10
2951.467504683494
 20
3502.289318133741
 30
0.0
  0
VERTEX
  5
331
  8
DEFAULT_LAYER
 10
2951.424047653494
 20
3493.866262723741
 30
0.0
  0
VERTEX
  5
332
  8
DEFAULT_LAYER
 10
2951.263891403494
 20
3473.358225613741
 30
0.0
  0
VERTEX
  5
333
  8
DEFAULT_LAYER
 10
2951.025610153494
 20
3448.944133823741
 30
0.0
  0
VERTEX
  5
334
  8
DEFAULT_LAYER
 10
2950.732641403494
 20
3421.795803743741
 30
0.0
  0
VERTEX
  5
335
  8
DEFAULT_LAYER
 10
2950.076391403494
 20
3363.983694353741
 30
0.0
  0
VERTEX
  5
336
  8
DEFAULT_LAYER
 10
2949.759985153494
 20
3335.663547863741
 30
0.0
  0
VERTEX
  5
337
  8
DEFAULT_LAYER
 10
2949.482641403494
 20
3309.296428723741
 30
0.0
  0
SEQEND
  5
7DD
  8
DEFAULT_LAYER
  0
POLYLINE
  5
CB
  8
DEFAULT_LAYER
 66
     1
 10
0.0
 20
0.0
 30
0.0
 70
     1
  0
VERTEX
  5
338
  8
DEFAULT_LAYER
 10
2549.116666863494
 20
4156.865196373741
 30
0.0
  0
VERTEX
  5
339
  8
DEFAULT_LAYER
 10
2549.126992643494
 20
4156.66070799374
 30
0.0
  0
VERTEX
  5
33A
  8
DEFAULT_LAYER
 10
2549.157299753494
 20
4156.462126613741
 30
0.0
  0
VERTEX
  5
33B
  8
DEFAULT_LAYER
 10
2549.206582903494
 20
4156.270457553741
 30
0.0
  0
VERTEX
  5
33C
  8
DEFAULT_LAYER
 10
2549.273836783494
 20
4156.086706113741
 30
0.0
  0
VERTEX
  5
33D
  8
DEFAULT_LAYER
 10
2549.358056063494
 20
4155.91187761374
 30
0.0
  0
VERTEX
  5
33E
  8
DEFAULT_LAYER
 10
2549.458235453494
 20
4155.74697735374
 30
0.0
  0
VERTEX
  5
33F
  8
DEFAULT_LAYER
 10
2549.573369633494
 20
4155.593010653741
 30
0.0
  0
VERTEX
  5
340
  8
DEFAULT_LAYER
 10
2549.702453303494
 20
4155.450982813741
 30
0.0
  0
VERTEX
  5
341
  8
DEFAULT_LAYER
 10
2549.844481143494
 20
4155.321899143741
 30
0.0
  0
VERTEX
  5
342
  8
DEFAULT_LAYER
 10
2549.998447843494
 20
4155.206764963741
 30
0.0
  0
VERTEX
  5
343
  8
DEFAULT_LAYER
 10
2550.163348103494
 20
4155.106585573741
 30
0.0
  0
VERTEX
  5
344
  8
DEFAULT_LAYER
 10
2550.338176603494
 20
4155.022366293741
 30
0.0
  0
VERTEX
  5
345
  8
DEFAULT_LAYER
 10
2550.521928043494
 20
4154.955112413741
 30
0.0
  0
VERTEX
  5
346
  8
DEFAULT_LAYER
 10
2550.713597103494
 20
4154.905829263741
 30
0.0
  0
VERTEX
  5
347
  8
DEFAULT_LAYER
 10
2550.912178483494
 20
4154.875522153741
 30
0.0
  0
VERTEX
  5
348
  8
DEFAULT_LAYER
 10
2551.116666863494
 20
4154.865196373741
 30
0.0
  0
VERTEX
  5
349
  8
DEFAULT_LAYER
 10
2551.321155243494
 20
4154.875522153741
 30
0.0
  0
VERTEX
  5
34A
  8
DEFAULT_LAYER
 10
2551.519736623494
 20
4154.905829263741
 30
0.0
  0
VERTEX
  5
34B
  8
DEFAULT_LAYER
 10
2551.711405683494
 20
4154.955112413741
 30
0.0
  0
VERTEX
  5
34C
  8
DEFAULT_LAYER
 10
2551.895157123494
 20
4155.022366293741
 30
0.0
  0
VERTEX
  5
34D
  8
DEFAULT_LAYER
 10
2552.069985623494
 20
4155.106585573741
 30
0.0
  0
VERTEX
  5
34E
  8
DEFAULT_LAYER
 10
2552.234885883494
 20
4155.206764963741
 30
0.0
  0
VERTEX
  5
34F
  8
DEFAULT_LAYER
 10
2552.388852583494
 20
4155.321899143741
 30
0.0
  0
VERTEX
  5
350
  8
DEFAULT_LAYER
 10
2552.530880423494
 20
4155.450982813741
 30
0.0
  0
VERTEX
  5
351
  8
DEFAULT_LAYER
 10
2552.659964093494
 20
4155.593010653741
 30
0.0
  0
VERTEX
  5
352
  8
DEFAULT_LAYER
 10
2552.775098273494
 20
4155.74697735374
 30
0.0
  0
VERTEX
  5
353
  8
DEFAULT_LAYER
 10
2552.875277663494
 20
4155.91187761374
 30
0.0
  0
VERTEX
  5
354
  8
DEFAULT_LAYER
 10
2552.959496953494
 20
4156.086706113741
 30
0.0
  0
VERTEX
  5
355
  8
DEFAULT_LAYER
 10
2553.026750823494
 20
4156.270457553741
 30
0.0
  0
VERTEX
  5
356
  8
DEFAULT_LAYER
 10
2553.076033973494
 20
4156.462126613741
 30
0.0
  0
VERTEX
  5
357
  8
DEFAULT_LAYER
 10
2553.106341093494
 20
4156.66070799374
 30
0.0
  0
VERTEX
  5
358
  8
DEFAULT_LAYER
 10
2553.116666863494
 20
4156.865196373741
 30
0.0
  0
VERTEX
  5
359
  8
DEFAULT_LAYER
 10
2553.106341093494
 20
4157.06968475374
 30
0.0
  0
VERTEX
  5
35A
  8
DEFAULT_LAYER
 10
2553.076033973494
 20
4157.26826613374
 30
0.0
  0
VERTEX
  5
35B
  8
DEFAULT_LAYER
 10
2553.026750823494
 20
4157.459935193741
 30
0.0
  0
VERTEX
  5
35C
  8
DEFAULT_LAYER
 10
2552.959496953494
 20
4157.643686633741
 30
0.0
  0
VERTEX
  5
35D
  8
DEFAULT_LAYER
 10
2552.875277663494
 20
4157.81851513374
 30
0.0
  0
VERTEX
  5
35E
  8
DEFAULT_LAYER
 10
2552.775098273494
 20
4157.983415393741
 30
0.0
  0
VERTEX
  5
35F
  8
DEFAULT_LAYER
 10
2552.659964093494
 20
4158.137382093741
 30
0.0
  0
VERTEX
  5
360
  8
DEFAULT_LAYER
 10
2552.530880423494
 20
4158.279409933741
 30
0.0
  0
VERTEX
  5
361
  8
DEFAULT_LAYER
 10
2552.388852583494
 20
4158.408493603741
 30
0.0
  0
VERTEX
  5
362
  8
DEFAULT_LAYER
 10
2552.234885883494
 20
4158.523627783741
 30
0.0
  0
VERTEX
  5
363
  8
DEFAULT_LAYER
 10
2552.069985623494
 20
4158.623807173741
 30
0.0
  0
VERTEX
  5
364
  8
DEFAULT_LAYER
 10
2551.895157123494
 20
4158.708026463741
 30
0.0
  0
VERTEX
  5
365
  8
DEFAULT_LAYER
 10
2551.711405683494
 20
4158.775280333741
 30
0.0
  0
VERTEX
  5
366
  8
DEFAULT_LAYER
 10
2551.519736623494
 20
4158.82456348374
 30
0.0
  0
VERTEX
  5
367
  8
DEFAULT_LAYER
 10
2551.321155243494
 20
4158.854870603741
 30
0.0
  0
VERTEX
  5
368
  8
DEFAULT_LAYER
 10
2551.116666863494
 20
4158.865196373741
 30
0.0
  0
VERTEX
  5
369
  8
DEFAULT_LAYER
 10
2550.912178483494
 20
4158.854870603741
 30
0.0
  0
VERTEX
  5
36A
  8
DEFAULT_LAYER
 10
2550.713597103494
 20
4158.82456348374
 30
0.0
  0
VERTEX
  5
36B
  8
DEFAULT_LAYER
 10
2550.521928043494
 20
4158.775280333741
 30
0.0
  0
VERTEX
  5
36C
  8
DEFAULT_LAYER
 10
2550.338176603494
 20
4158.708026463741
 30
0.0
  0
VERTEX
  5
36D
  8
DEFAULT_LAYER
 10
2550.163348103494
 20
4158.623807173741
 30
0.0
  0
VERTEX
  5
36E
  8
DEFAULT_LAYER
 10
2549.998447843494
 20
4158.523627783741
 30
0.0
  0
VERTEX
  5
36F
  8
DEFAULT_LAYER
 10
2549.844481143494
 20
4158.408493603741
 30
0.0
  0
VERTEX
  5
370
  8
DEFAULT_LAYER
 10
2549.702453303494
 20
4158.279409933741
 30
0.0
  0
VERTEX
  5
371
  8
DEFAULT_LAYER
 10
2549.573369633494
 20
4158.137382093741
 30
0.0
  0
VERTEX
  5
372
  8
DEFAULT_LAYER
 10
2549.458235453494
 20
4157.983415393741
 30
0.0
  0
VERTEX
  5
373
  8
DEFAULT_LAYER
 10
2549.358056063494
 20
4157.81851513374
 30
0.0
  0
VERTEX
  5
374
  8
DEFAULT_LAYER
 10
2549.273836783494
 20
4157.643686633741
 30
0.0
  0
VERTEX
  5
375
  8
DEFAULT_LAYER
 10
2549.206582903494
 20
4157.459935193741
 30
0.0
  0
VERTEX
  5
376
  8
DEFAULT_LAYER
 10
2549.157299753494
 20
4157.26826613374
 30
0.0
  0
VERTEX
  5
377
  8
DEFAULT_LAYER
 10
2549.126992643494
 20
4157.06968475374
 30
0.0
  0
SEQEND
  5
7DE
  8
DEFAULT_LAYER
  0
POLYLINE
  5
CC
  8
DEFAULT_LAYER
 66
     1
 10
0.0
 20
0.0
 30
0.0
 70
     1
  0
VERTEX
  5
378
  8
DEFAULT_LAYER
 10
2549.116666863494
 20
3365.882750113741
 30
0.0
  0
VERTEX
  5
379
  8
DEFAULT_LAYER
 10
2549.126992643494
 20
3365.678261733741
 30
0.0
  0
VERTEX
  5
37A
  8
DEFAULT_LAYER
 10
2549.157299753494
 20
3365.479680353741
 30
0.0
  0
VERTEX
  5
37B
  8
DEFAULT_LAYER
 10
2549.206582903494
 20
3365.288011293741
 30
0.0
  0
VERTEX
  5
37C
  8
DEFAULT_LAYER
 10
2549.273836783494
 20
3365.104259853741
 30
0.0
  0
VERTEX
  5
37D
  8
DEFAULT_LAYER
 10
2549.358056063494
 20
3364.929431353741
 30
0.0
  0
VERTEX
  5
37E
  8
DEFAULT_LAYER
 10
2549.458235453494
 20
3364.764531093741
 30
0.0
  0
VERTEX
  5
37F
  8
DEFAULT_LAYER
 10
2549.573369633494
 20
3364.610564393741
 30
0.0
  0
VERTEX
  5
380
  8
DEFAULT_LAYER
 10
2549.702453303494
 20
3364.468536553741
 30
0.0
  0
VERTEX
  5
381
  8
DEFAULT_LAYER
 10
2549.844481143494
 20
3364.339452883741
 30
0.0
  0
VERTEX
  5
382
  8
DEFAULT_LAYER
 10
2549.998447843494
 20
3364.224318703741
 30
0.0
  0
VERTEX
  5
383
  8
DEFAULT_LAYER
 10
2550.163348103494
 20
3364.124139313741
 30
0.0
  0
VERTEX
  5
384
  8
DEFAULT_LAYER
 10
2550.338176603494
 20
3364.039920033741
 30
0.0
  0
VERTEX
  5
385
  8
DEFAULT_LAYER
 10
2550.521928043494
 20
3363.972666153741
 30
0.0
  0
VERTEX
  5
386
  8
DEFAULT_LAYER
 10
2550.713597103494
 20
3363.923383003741
 30
0.0
  0
VERTEX
  5
387
  8
DEFAULT_LAYER
 10
2550.912178483494
 20
3363.893075893741
 30
0.0
  0
VERTEX
  5
388
  8
DEFAULT_LAYER
 10
2551.116666863494
 20
3363.882750113741
 30
0.0
  0
VERTEX
  5
389
  8
DEFAULT_LAYER
 10
2551.321155243494
 20
3363.893075893741
 30
0.0
  0
VERTEX
  5
38A
  8
DEFAULT_LAYER
 10
2551.519736623494
 20
3363.923383003741
 30
0.0
  0
VERTEX
  5
38B
  8
DEFAULT_LAYER
 10
2551.711405683494
 20
3363.972666153741
 30
0.0
  0
VERTEX
  5
38C
  8
DEFAULT_LAYER
 10
2551.895157123494
 20
3364.039920033741
 30
0.0
  0
VERTEX
  5
38D
  8
DEFAULT_LAYER
 10
2552.069985623494
 20
3364.124139313741
 30
0.0
  0
VERTEX
  5
38E
  8
DEFAULT_LAYER
 10
2552.234885883494
 20
3364.224318703741
 30
0.0
  0
VERTEX
  5
38F
  8
DEFAULT_LAYER
 10
2552.388852583494
 20
3364.339452883741
 30
0.0
  0
VERTEX
  5
390
  8
DEFAULT_LAYER
 10
2552.530880423494
 20
3364.468536553741
 30
0.0
  0
VERTEX
  5
391
  8
DEFAULT_LAYER
 10
2552.659964093494
 20
3364.610564393741
 30
0.0
  0
VERTEX
  5
392
  8
DEFAULT_LAYER
 10
2552.775098273494
 20
3364.764531093741
 30
0.0
  0
VERTEX
  5
393
  8
DEFAULT_LAYER
 10
2552.875277663494
 20
3364.929431353741
 30
0.0
  0
VERTEX
  5
394
  8
DEFAULT_LAYER
 10
2552.959496953494
 20
3365.104259853741
 30
0.0
  0
VERTEX
  5
395
  8
DEFAULT_LAYER
 10
2553.026750823494
 20
3365.288011293741
 30
0.0
  0
VERTEX
  5
396
  8
DEFAULT_LAYER
 10
2553.076033973494
 20
3365.479680353741
 30
0.0
  0
VERTEX
  5
397
  8
DEFAULT_LAYER
 10
2553.106341093494
 20
3365.678261733741
 30
0.0
  0
VERTEX
  5
398
  8
DEFAULT_LAYER
 10
2553.116666863494
 20
3365.882750113741
 30
0.0
  0
VERTEX
  5
399
  8
DEFAULT_LAYER
 10
2553.106341093494
 20
3366.087238493741
 30
0.0
  0
VERTEX
  5
39A
  8
DEFAULT_LAYER
 10
2553.076033973494
 20
3366.285819873741
 30
0.0
  0
VERTEX
  5
39B
  8
DEFAULT_LAYER
 10
2553.026750823494
 20
3366.47748893374
 30
0.0
  0
VERTEX
  5
39C
  8
DEFAULT_LAYER
 10
2552.959496953494
 20
3366.661240373741
 30
0.0
  0
VERTEX
  5
39D
  8
DEFAULT_LAYER
 10
2552.875277663494
 20
3366.836068873741
 30
0.0
  0
VERTEX
  5
39E
  8
DEFAULT_LAYER
 10
2552.775098273494
 20
3367.000969133741
 30
0.0
  0
VERTEX
  5
39F
  8
DEFAULT_LAYER
 10
2552.659964093494
 20
3367.154935833741
 30
0.0
  0
VERTEX
  5
3A0
  8
DEFAULT_LAYER
 10
2552.530880423494
 20
3367.296963673741
 30
0.0
  0
VERTEX
  5
3A1
  8
DEFAULT_LAYER
 10
2552.388852583494
 20
3367.426047343741
 30
0.0
  0
VERTEX
  5
3A2
  8
DEFAULT_LAYER
 10
2552.234885883494
 20
3367.541181523741
 30
0.0
  0
VERTEX
  5
3A3
  8
DEFAULT_LAYER
 10
2552.069985623494
 20
3367.641360913741
 30
0.0
  0
VERTEX
  5
3A4
  8
DEFAULT_LAYER
 10
2551.895157123494
 20
3367.725580203741
 30
0.0
  0
VERTEX
  5
3A5
  8
DEFAULT_LAYER
 10
2551.711405683494
 20
3367.792834073741
 30
0.0
  0
VERTEX
  5
3A6
  8
DEFAULT_LAYER
 10
2551.519736623494
 20
3367.842117223741
 30
0.0
  0
VERTEX
  5
3A7
  8
DEFAULT_LAYER
 10
2551.321155243494
 20
3367.872424343741
 30
0.0
  0
VERTEX
  5
3A8
  8
DEFAULT_LAYER
 10
2551.116666863494
 20
3367.882750113741
 30
0.0
  0
VERTEX
  5
3A9
  8
DEFAULT_LAYER
 10
2550.912178483494
 20
3367.872424343741
 30
0.0
  0
VERTEX
  5
3AA
  8
DEFAULT_LAYER
 10
2550.713597103494
 20
3367.842117223741
 30
0.0
  0
VERTEX
  5
3AB
  8
DEFAULT_LAYER
 10
2550.521928043494
 20
3367.792834073741
 30
0.0
  0
VERTEX
  5
3AC
  8
DEFAULT_LAYER
 10
2550.338176603494
 20
3367.725580203741
 30
0.0
  0
VERTEX
  5
3AD
  8
DEFAULT_LAYER
 10
2550.163348103494
 20
3367.641360913741
 30
0.0
  0
VERTEX
  5
3AE
  8
DEFAULT_LAYER
 10
2549.998447843494
 20
3367.541181523741
 30
0.0
  0
VERTEX
  5
3AF
  8
DEFAULT_LAYER
 10
2549.844481143494
 20
3367.426047343741
 30
0.0
  0
VERTEX
  5
3B0
  8
DEFAULT_LAYER
 10
2549.702453303494
 20
3367.296963673741
 30
0.0
  0
VERTEX
  5
3B1
  8
DEFAULT_LAYER
 10
2549.573369633494
 20
3367.154935833741
 30
0.0
  0
VERTEX
  5
3B2
  8
DEFAULT_LAYER
 10
2549.458235453494
 20
3367.000969133741
 30
0.0
  0
VERTEX
  5
3B3
  8
DEFAULT_LAYER
 10
2549.358056063494
 20
3366.836068873741
 30
0.0
  0
VERTEX
  5
3B4
  8
DEFAULT_LAYER
 10
2549.273836783494
 20
3366.661240373741
 30
0.0
  0
VERTEX
  5
3B5
  8
DEFAULT_LAYER
 10
2549.206582903494
 20
3366.47748893374
 30
0.0
  0
VERTEX
  5
3B6
  8
DEFAULT_LAYER
 10
2549.157299753494
 20
3366.285819873741
 30
0.0
  0
VERTEX
  5
3B7
  8
DEFAULT_LAYER
 10
2549.126992643494
 20
3366.087238493741
 30
0.0
  0
SEQEND
  5
7DF
  8
DEFAULT_LAYER
  0
POLYLINE
  5
CD
  8
DEFAULT_LAYER
 66
     1
 10
0.0
 20
0.0
 30
0.0
 70
     1
  0
VERTEX
  5
3B8
  8
DEFAULT_LAYER
 10
2856.025666863494
 20
4156.865196373741
 30
0.0
  0
VERTEX
  5
3B9
  8
DEFAULT_LAYER
 10
2856.035992643494
 20
4156.66070799374
 30
0.0
  0
VERTEX
  5
3BA
  8
DEFAULT_LAYER
 10
2856.066299753494
 20
4156.462126613741
 30
0.0
  0
VERTEX
  5
3BB
  8
DEFAULT_LAYER
 10
2856.115582903494
 20
4156.270457553741
 30
0.0
  0
VERTEX
  5
3BC
  8
DEFAULT_LAYER
 10
2856.182836783494
 20
4156.086706113741
 30
0.0
  0
VERTEX
  5
3BD
  8
DEFAULT_LAYER
 10
2856.267056063494
 20
4155.91187761374
 30
0.0
  0
VERTEX
  5
3BE
  8
DEFAULT_LAYER
 10
2856.367235453494
 20
4155.74697735374
 30
0.0
  0
VERTEX
  5
3BF
  8
DEFAULT_LAYER
 10
2856.482369633494
 20
4155.593010653741
 30
0.0
  0
VERTEX
  5
3C0
  8
DEFAULT_LAYER
 10
2856.611453303494
 20
4155.450982813741
 30
0.0
  0
VERTEX
  5
3C1
  8
DEFAULT_LAYER
 10
2856.753481143494
 20
4155.321899143741
 30
0.0
  0
VERTEX
  5
3C2
  8
DEFAULT_LAYER
 10
2856.907447843494
 20
4155.206764963741
 30
0.0
  0
VERTEX
  5
3C3
  8
DEFAULT_LAYER
 10
2857.072348103494
 20
4155.106585573741
 30
0.0
  0
VERTEX
  5
3C4
  8
DEFAULT_LAYER
 10
2857.247176603494
 20
4155.022366293741
 30
0.0
  0
VERTEX
  5
3C5
  8
DEFAULT_LAYER
 10
2857.430928043494
 20
4154.955112413741
 30
0.0
  0
VERTEX
  5
3C6
  8
DEFAULT_LAYER
 10
2857.622597103494
 20
4154.905829263741
 30
0.0
  0
VERTEX
  5
3C7
  8
DEFAULT_LAYER
 10
2857.821178483494
 20
4154.875522153741
 30
0.0
  0
VERTEX
  5
3C8
  8
DEFAULT_LAYER
 10
2858.025666863494
 20
4154.865196373741
 30
0.0
  0
VERTEX
  5
3C9
  8
DEFAULT_LAYER
 10
2858.230155243494
 20
4154.875522153741
 30
0.0
  0
VERTEX
  5
3CA
  8
DEFAULT_LAYER
 10
2858.428736623494
 20
4154.905829263741
 30
0.0
  0
VERTEX
  5
3CB
  8
DEFAULT_LAYER
 10
2858.620405683494
 20
4154.955112413741
 30
0.0
  0
VERTEX
  5
3CC
  8
DEFAULT_LAYER
 10
2858.804157123494
 20
4155.022366293741
 30
0.0
  0
VERTEX
  5
3CD
  8
DEFAULT_LAYER
 10
2858.978985623494
 20
4155.106585573741
 30
0.0
  0
VERTEX
  5
3CE
  8
DEFAULT_LAYER
 10
2859.143885883494
 20
4155.206764963741
 30
0.0
  0
VERTEX
  5
3CF
  8
DEFAULT_LAYER
 10
2859.297852583494
 20
4155.321899143741
 30
0.0
  0
VERTEX
  5
3D0
  8
DEFAULT_LAYER
 10
2859.439880423494
 20
4155.450982813741
 30
0.0
  0
VERTEX
  5
3D1
  8
DEFAULT_LAYER
 10
2859.568964093494
 20
4155.593010653741
 30
0.0
  0
VERTEX
  5
3D2
  8
DEFAULT_LAYER
 10
2859.684098273494
 20
4155.74697735374
 30
0.0
  0
VERTEX
  5
3D3
  8
DEFAULT_LAYER
 10
2859.784277663494
 20
4155.91187761374
 30
0.0
  0
VERTEX
  5
3D4
  8
DEFAULT_LAYER
 10
2859.868496953494
 20
4156.086706113741
 30
0.0
  0
VERTEX
  5
3D5
  8
DEFAULT_LAYER
 10
2859.935750823494
 20
4156.270457553741
 30
0.0
  0
VERTEX
  5
3D6
  8
DEFAULT_LAYER
 10
2859.985033973494
 20
4156.462126613741
 30
0.0
  0
VERTEX
  5
3D7
  8
DEFAULT_LAYER
 10
2860.015341093494
 20
4156.66070799374
 30
0.0
  0
VERTEX
  5
3D8
  8
DEFAULT_LAYER
 10
2860.025666863494
 20
4156.865196373741
 30
0.0
  0
VERTEX
  5
3D9
  8
DEFAULT_LAYER
 10
2860.015341093494
 20
4157.06968475374
 30
0.0
  0
VERTEX
  5
3DA
  8
DEFAULT_LAYER
 10
2859.985033973494
 20
4157.26826613374
 30
0.0
  0
VERTEX
  5
3DB
  8
DEFAULT_LAYER
 10
2859.935750823494
 20
4157.459935193741
 30
0.0
  0
VERTEX
  5
3DC
  8
DEFAULT_LAYER
 10
2859.868496953494
 20
4157.643686633741
 30
0.0
  0
VERTEX
  5
3DD
  8
DEFAULT_LAYER
 10
2859.784277663494
 20
4157.81851513374
 30
0.0
  0
VERTEX
  5
3DE
  8
DEFAULT_LAYER
 10
2859.684098273494
 20
4157.983415393741
 30
0.0
  0
VERTEX
  5
3DF
  8
DEFAULT_LAYER
 10
2859.568964093494
 20
4158.137382093741
 30
0.0
  0
VERTEX
  5
3E0
  8
DEFAULT_LAYER
 10
2859.439880423494
 20
4158.279409933741
 30
0.0
  0
VERTEX
  5
3E1
  8
DEFAULT_LAYER
 10
2859.297852583494
 20
4158.408493603741
 30
0.0
  0
VERTEX
  5
3E2
  8
DEFAULT_LAYER
 10
2859.143885883494
 20
4158.523627783741
 30
0.0
  0
VERTEX
  5
3E3
  8
DEFAULT_LAYER
 10
2858.978985623494
 20
4158.623807173741
 30
0.0
  0
VERTEX
  5
3E4
  8
DEFAULT_LAYER
 10
2858.804157123494
 20
4158.708026463741
 30
0.0
  0
VERTEX
  5
3E5
  8
DEFAULT_LAYER
 10
2858.620405683494
 20
4158.775280333741
 30
0.0
  0
VERTEX
  5
3E6
  8
DEFAULT_LAYER
 10
2858.428736623494
 20
4158.82456348374
 30
0.0
  0
VERTEX
  5
3E7
  8
DEFAULT_LAYER
 10
2858.230155243494
 20
4158.854870603741
 30
0.0
  0
VERTEX
  5
3E8
  8
DEFAULT_LAYER
 10
2858.025666863494
 20
4158.865196373741
 30
0.0
  0
VERTEX
  5
3E9
  8
DEFAULT_LAYER
 10
2857.821178483494
 20
4158.854870603741
 30
0.0
  0
VERTEX
  5
3EA
  8
DEFAULT_LAYER
 10
2857.622597103494
 20
4158.82456348374
 30
0.0
  0
VERTEX
  5
3EB
  8
DEFAULT_LAYER
 10
2857.430928043494
 20
4158.775280333741
 30
0.0
  0
VERTEX
  5
3EC
  8
DEFAULT_LAYER
 10
2857.247176603494
 20
4158.708026463741
 30
0.0
  0
VERTEX
  5
3ED
  8
DEFAULT_LAYER
 10
2857.072348103494
 20
4158.623807173741
 30
0.0
  0
VERTEX
  5
3EE
  8
DEFAULT_LAYER
 10
2856.907447843494
 20
4158.523627783741
 30
0.0
  0
VERTEX
  5
3EF
  8
DEFAULT_LAYER
 10
2856.753481143494
 20
4158.408493603741
 30
0.0
  0
VERTEX
  5
3F0
  8
DEFAULT_LAYER
 10
2856.611453303494
 20
4158.279409933741
 30
0.0
  0
VERTEX
  5
3F1
  8
DEFAULT_LAYER
 10
2856.482369633494
 20
4158.137382093741
 30
0.0
  0
VERTEX
  5
3F2
  8
DEFAULT_LAYER
 10
2856.367235453494
 20
4157.983415393741
 30
0.0
  0
VERTEX
  5
3F3
  8
DEFAULT_LAYER
 10
2856.267056063494
 20
4157.81851513374
 30
0.0
  0
VERTEX
  5
3F4
  8
DEFAULT_LAYER
 10
2856.182836783494
 20
4157.643686633741
 30
0.0
  0
VERTEX
  5
3F5
  8
DEFAULT_LAYER
 10
2856.115582903494
 20
4157.459935193741
 30
0.0
  0
VERTEX
  5
3F6
  8
DEFAULT_LAYER
 10
2856.066299753494
 20
4157.26826613374
 30
0.0
  0
VERTEX
  5
3F7
  8
DEFAULT_LAYER
 10
2856.035992643494
 20
4157.06968475374
 30
0.0
  0
SEQEND
  5
7E0
  8
DEFAULT_LAYER
  0
POLYLINE
  5
CE
  8
DEFAULT_LAYER
 66
     1
 10
0.0
 20
0.0
 30
0.0
 70
     1
  0
VERTEX
  5
3F8
  8
DEFAULT_LAYER
 10
2888.812666863494
 20
3365.882750113741
 30
0.0
  0
VERTEX
  5
3F9
  8
DEFAULT_LAYER
 10
2888.822992643494
 20
3365.678261733741
 30
0.0
  0
VERTEX
  5
3FA
  8
DEFAULT_LAYER
 10
2888.853299753494
 20
3365.479680353741
 30
0.0
  0
VERTEX
  5
3FB
  8
DEFAULT_LAYER
 10
2888.902582903494
 20
3365.288011293741
 30
0.0
  0
VERTEX
  5
3FC
  8
DEFAULT_LAYER
 10
2888.969836783494
 20
3365.104259853741
 30
0.0
  0
VERTEX
  5
3FD
  8
DEFAULT_LAYER
 10
2889.054056063494
 20
3364.929431353741
 30
0.0
  0
VERTEX
  5
3FE
  8
DEFAULT_LAYER
 10
2889.154235453494
 20
3364.764531093741
 30
0.0
  0
VERTEX
  5
3FF
  8
DEFAULT_LAYER
 10
2889.269369633494
 20
3364.610564393741
 30
0.0
  0
VERTEX
  5
400
  8
DEFAULT_LAYER
 10
2889.398453303494
 20
3364.468536553741
 30
0.0
  0
VERTEX
  5
401
  8
DEFAULT_LAYER
 10
2889.540481143494
 20
3364.339452883741
 30
0.0
  0
VERTEX
  5
402
  8
DEFAULT_LAYER
 10
2889.694447843494
 20
3364.224318703741
 30
0.0
  0
VERTEX
  5
403
  8
DEFAULT_LAYER
 10
2889.859348103494
 20
3364.124139313741
 30
0.0
  0
VERTEX
  5
404
  8
DEFAULT_LAYER
 10
2890.034176603494
 20
3364.039920033741
 30
0.0
  0
VERTEX
  5
405
  8
DEFAULT_LAYER
 10
2890.217928043494
 20
3363.972666153741
 30
0.0
  0
VERTEX
  5
406
  8
DEFAULT_LAYER
 10
2890.409597103494
 20
3363.923383003741
 30
0.0
  0
VERTEX
  5
407
  8
DEFAULT_LAYER
 10
2890.608178483494
 20
3363.893075893741
 30
0.0
  0
VERTEX
  5
408
  8
DEFAULT_LAYER
 10
2890.812666863494
 20
3363.882750113741
 30
0.0
  0
VERTEX
  5
409
  8
DEFAULT_LAYER
 10
2891.017155243494
 20
3363.893075893741
 30
0.0
  0
VERTEX
  5
40A
  8
DEFAULT_LAYER
 10
2891.215736623494
 20
3363.923383003741
 30
0.0
  0
VERTEX
  5
40B
  8
DEFAULT_LAYER
 10
2891.407405683494
 20
3363.972666153741
 30
0.0
  0
VERTEX
  5
40C
  8
DEFAULT_LAYER
 10
2891.591157123494
 20
3364.039920033741
 30
0.0
  0
VERTEX
  5
40D
  8
DEFAULT_LAYER
 10
2891.765985623494
 20
3364.124139313741
 30
0.0
  0
VERTEX
  5
40E
  8
DEFAULT_LAYER
 10
2891.930885883494
 20
3364.224318703741
 30
0.0
  0
VERTEX
  5
40F
  8
DEFAULT_LAYER
 10
2892.084852583494
 20
3364.339452883741
 30
0.0
  0
VERTEX
  5
410
  8
DEFAULT_LAYER
 10
2892.226880423494
 20
3364.468536553741
 30
0.0
  0
VERTEX
  5
411
  8
DEFAULT_LAYER
 10
2892.355964093494
 20
3364.610564393741
 30
0.0
  0
VERTEX
  5
412
  8
DEFAULT_LAYER
 10
2892.471098273494
 20
3364.764531093741
 30
0.0
  0
VERTEX
  5
413
  8
DEFAULT_LAYER
 10
2892.571277663494
 20
3364.929431353741
 30
0.0
  0
VERTEX
  5
414
  8
DEFAULT_LAYER
 10
2892.655496953494
 20
3365.104259853741
 30
0.0
  0
VERTEX
  5
415
  8
DEFAULT_LAYER
 10
2892.722750823494
 20
3365.288011293741
 30
0.0
  0
VERTEX
  5
416
  8
DEFAULT_LAYER
 10
2892.772033973494
 20
3365.479680353741
 30
0.0
  0
VERTEX
  5
417
  8
DEFAULT_LAYER
 10
2892.802341093494
 20
3365.678261733741
 30
0.0
  0
VERTEX
  5
418
  8
DEFAULT_LAYER
 10
2892.812666863494
 20
3365.882750113741
 30
0.0
  0
VERTEX
  5
419
  8
DEFAULT_LAYER
 10
2892.802341093494
 20
3366.087238493741
 30
0.0
  0
VERTEX
  5
41A
  8
DEFAULT_LAYER
 10
2892.772033973494
 20
3366.285819873741
 30
0.0
  0
VERTEX
  5
41B
  8
DEFAULT_LAYER
 10
2892.722750823494
 20
3366.47748893374
 30
0.0
  0
VERTEX
  5
41C
  8
DEFAULT_LAYER
 10
2892.655496953494
 20
3366.661240373741
 30
0.0
  0
VERTEX
  5
41D
  8
DEFAULT_LAYER
 10
2892.571277663494
 20
3366.836068873741
 30
0.0
  0
VERTEX
  5
41E
  8
DEFAULT_LAYER
 10
2892.471098273494
 20
3367.000969133741
 30
0.0
  0
VERTEX
  5
41F
  8
DEFAULT_LAYER
 10
2892.355964093494
 20
3367.154935833741
 30
0.0
  0
VERTEX
  5
420
  8
DEFAULT_LAYER
 10
2892.226880423494
 20
3367.296963673741
 30
0.0
  0
VERTEX
  5
421
  8
DEFAULT_LAYER
 10
2892.084852583494
 20
3367.426047343741
 30
0.0
  0
VERTEX
  5
422
  8
DEFAULT_LAYER
 10
2891.930885883494
 20
3367.541181523741
 30
0.0
  0
VERTEX
  5
423
  8
DEFAULT_LAYER
 10
2891.765985623494
 20
3367.641360913741
 30
0.0
  0
VERTEX
  5
424
  8
DEFAULT_LAYER
 10
2891.591157123494
 20
3367.725580203741
 30
0.0
  0
VERTEX
  5
425
  8
DEFAULT_LAYER
 10
2891.407405683494
 20
3367.792834073741
 30
0.0
  0
VERTEX
  5
426
  8
DEFAULT_LAYER
 10
2891.215736623494
 20
3367.842117223741
 30
0.0
  0
VERTEX
  5
427
  8
DEFAULT_LAYER
 10
2891.017155243494
 20
3367.872424343741
 30
0.0
  0
VERTEX
  5
428
  8
DEFAULT_LAYER
 10
2890.812666863494
 20
3367.882750113741
 30
0.0
  0
VERTEX
  5
429
  8
DEFAULT_LAYER
 10
2890.608178483494
 20
3367.872424343741
 30
0.0
  0
VERTEX
  5
42A
  8
DEFAULT_LAYER
 10
2890.409597103494
 20
3367.842117223741
 30
0.0
  0
VERTEX
  5
42B
  8
DEFAULT_LAYER
 10
2890.217928043494
 20
3367.792834073741
 30
0.0
  0
VERTEX
  5
42C
  8
DEFAULT_LAYER
 10
2890.034176603494
 20
3367.725580203741
 30
0.0
  0
VERTEX
  5
42D
  8
DEFAULT_LAYER
 10
2889.859348103494
 20
3367.641360913741
 30
0.0
  0
VERTEX
  5
42E
  8
DEFAULT_LAYER
 10
2889.694447843494
 20
3367.541181523741
 30
0.0
  0
VERTEX
  5
42F
  8
DEFAULT_LAYER
 10
2889.540481143494
 20
3367.426047343741
 30
0.0
  0
VERTEX
  5
430
  8
DEFAULT_LAYER
 10
2889.398453303494
 20
3367.296963673741
 30
0.0
  0
VERTEX
  5
431
  8
DEFAULT_LAYER
 10
2889.269369633494
 20
3367.154935833741
 30
0.0
  0
VERTEX
  5
432
  8
DEFAULT_LAYER
 10
2889.154235453494
 20
3367.000969133741
 30
0.0
  0
VERTEX
  5
433
  8
DEFAULT_LAYER
 10
2889.054056063494
 20
3366.836068873741
 30
0.0
  0
VERTEX
  5
434
  8
DEFAULT_LAYER
 10
2888.969836783494
 20
3366.661240373741
 30
0.0
  0
VERTEX
  5
435
  8
DEFAULT_LAYER
 10
2888.902582903494
 20
3366.47748893374
 30
0.0
  0
VERTEX
  5
436
  8
DEFAULT_LAYER
 10
2888.853299753494
 20
3366.285819873741
 30
0.0
  0
VERTEX
  5
437
  8
DEFAULT_LAYER
 10
2888.822992643494
 20
3366.087238493741
 30
0.0
  0
SEQEND
  5
7E1
  8
DEFAULT_LAYER
  0
POLYLINE
  5
CF
  8
DEFAULT_LAYER
 66
     1
 10
0.0
 20
0.0
 30
0.0
 70
     1
  0
VERTEX
  5
438
  8
DEFAULT_LAYER
 10
2549.116666863494
 20
3748.588969393741
 30
0.0
  0
VERTEX
  5
439
  8
DEFAULT_LAYER
 10
2549.126992643494
 20
3748.384481013741
 30
0.0
  0
VERTEX
  5
43A
  8
DEFAULT_LAYER
 10
2549.157299753494
 20
3748.185899633741
 30
0.0
  0
VERTEX
  5
43B
  8
DEFAULT_LAYER
 10
2549.206582903494
 20
3747.99423057374
 30
0.0
  0
VERTEX
  5
43C
  8
DEFAULT_LAYER
 10
2549.273836783494
 20
3747.810479133741
 30
0.0
  0
VERTEX
  5
43D
  8
DEFAULT_LAYER
 10
2549.358056063494
 20
3747.635650633741
 30
0.0
  0
VERTEX
  5
43E
  8
DEFAULT_LAYER
 10
2549.458235453494
 20
3747.470750373741
 30
0.0
  0
VERTEX
  5
43F
  8
DEFAULT_LAYER
 10
2549.573369633494
 20
3747.316783673741
 30
0.0
  0
VERTEX
  5
440
  8
DEFAULT_LAYER
 10
2549.702453303494
 20
3747.174755833741
 30
0.0
  0
VERTEX
  5
441
  8
DEFAULT_LAYER
 10
2549.844481143494
 20
3747.045672163741
 30
0.0
  0
VERTEX
  5
442
  8
DEFAULT_LAYER
 10
2549.998447843494
 20
3746.930537983741
 30
0.0
  0
VERTEX
  5
443
  8
DEFAULT_LAYER
 10
2550.163348103494
 20
3746.830358593741
 30
0.0
  0
VERTEX
  5
444
  8
DEFAULT_LAYER
 10
2550.338176603494
 20
3746.746139313741
 30
0.0
  0
VERTEX
  5
445
  8
DEFAULT_LAYER
 10
2550.521928043494
 20
3746.678885433741
 30
0.0
  0
VERTEX
  5
446
  8
DEFAULT_LAYER
 10
2550.713597103494
 20
3746.62960228374
 30
0.0
  0
VERTEX
  5
447
  8
DEFAULT_LAYER
 10
2550.912178483494
 20
3746.599295173741
 30
0.0
  0
VERTEX
  5
448
  8
DEFAULT_LAYER
 10
2551.116666863494
 20
3746.588969393741
 30
0.0
  0
VERTEX
  5
449
  8
DEFAULT_LAYER
 10
2551.321155243494
 20
3746.599295173741
 30
0.0
  0
VERTEX
  5
44A
  8
DEFAULT_LAYER
 10
2551.519736623494
 20
3746.62960228374
 30
0.0
  0
VERTEX
  5
44B
  8
DEFAULT_LAYER
 10
2551.711405683494
 20
3746.678885433741
 30
0.0
  0
VERTEX
  5
44C
  8
DEFAULT_LAYER
 10
2551.895157123494
 20
3746.746139313741
 30
0.0
  0
VERTEX
  5
44D
  8
DEFAULT_LAYER
 10
2552.069985623494
 20
3746.830358593741
 30
0.0
  0
VERTEX
  5
44E
  8
DEFAULT_LAYER
 10
2552.234885883494
 20
3746.930537983741
 30
0.0
  0
VERTEX
  5
44F
  8
DEFAULT_LAYER
 10
2552.388852583494
 20
3747.045672163741
 30
0.0
  0
VERTEX
  5
450
  8
DEFAULT_LAYER
 10
2552.530880423494
 20
3747.174755833741
 30
0.0
  0
VERTEX
  5
451
  8
DEFAULT_LAYER
 10
2552.659964093494
 20
3747.316783673741
 30
0.0
  0
VERTEX
  5
452
  8
DEFAULT_LAYER
 10
2552.775098273494
 20
3747.470750373741
 30
0.0
  0
VERTEX
  5
453
  8
DEFAULT_LAYER
 10
2552.875277663494
 20
3747.635650633741
 30
0.0
  0
VERTEX
  5
454
  8
DEFAULT_LAYER
 10
2552.959496953494
 20
3747.810479133741
 30
0.0
  0
VERTEX
  5
455
  8
DEFAULT_LAYER
 10
2553.026750823494
 20
3747.99423057374
 30
0.0
  0
VERTEX
  5
456
  8
DEFAULT_LAYER
 10
2553.076033973494
 20
3748.185899633741
 30
0.0
  0
VERTEX
  5
457
  8
DEFAULT_LAYER
 10
2553.106341093494
 20
3748.384481013741
 30
0.0
  0
VERTEX
  5
458
  8
DEFAULT_LAYER
 10
2553.116666863494
 20
3748.588969393741
 30
0.0
  0
VERTEX
  5
459
  8
DEFAULT_LAYER
 10
2553.106341093494
 20
3748.793457773741
 30
0.0
  0
VERTEX
  5
45A
  8
DEFAULT_LAYER
 10
2553.076033973494
 20
3748.992039153741
 30
0.0
  0
VERTEX
  5
45B
  8
DEFAULT_LAYER
 10
2553.026750823494
 20
3749.183708213741
 30
0.0
  0
VERTEX
  5
45C
  8
DEFAULT_LAYER
 10
2552.959496953494
 20
3749.367459653741
 30
0.0
  0
VERTEX
  5
45D
  8
DEFAULT_LAYER
 10
2552.875277663494
 20
3749.542288153741
 30
0.0
  0
VERTEX
  5
45E
  8
DEFAULT_LAYER
 10
2552.775098273494
 20
3749.707188413741
 30
0.0
  0
VERTEX
  5
45F
  8
DEFAULT_LAYER
 10
2552.659964093494
 20
3749.861155113741
 30
0.0
  0
VERTEX
  5
460
  8
DEFAULT_LAYER
 10
2552.530880423494
 20
3750.003182953741
 30
0.0
  0
VERTEX
  5
461
  8
DEFAULT_LAYER
 10
2552.388852583494
 20
3750.132266623741
 30
0.0
  0
VERTEX
  5
462
  8
DEFAULT_LAYER
 10
2552.234885883494
 20
3750.247400803741
 30
0.0
  0
VERTEX
  5
463
  8
DEFAULT_LAYER
 10
2552.069985623494
 20
3750.347580193741
 30
0.0
  0
VERTEX
  5
464
  8
DEFAULT_LAYER
 10
2551.895157123494
 20
3750.431799483741
 30
0.0
  0
VERTEX
  5
465
  8
DEFAULT_LAYER
 10
2551.711405683494
 20
3750.499053353741
 30
0.0
  0
VERTEX
  5
466
  8
DEFAULT_LAYER
 10
2551.519736623494
 20
3750.548336503741
 30
0.0
  0
VERTEX
  5
467
  8
DEFAULT_LAYER
 10
2551.321155243494
 20
3750.578643623741
 30
0.0
  0
VERTEX
  5
468
  8
DEFAULT_LAYER
 10
2551.116666863494
 20
3750.588969393741
 30
0.0
  0
VERTEX
  5
469
  8
DEFAULT_LAYER
 10
2550.912178483494
 20
3750.578643623741
 30
0.0
  0
VERTEX
  5
46A
  8
DEFAULT_LAYER
 10
2550.713597103494
 20
3750.548336503741
 30
0.0
  0
VERTEX
  5
46B
  8
DEFAULT_LAYER
 10
2550.521928043494
 20
3750.499053353741
 30
0.0
  0
VERTEX
  5
46C
  8
DEFAULT_LAYER
 10
2550.338176603494
 20
3750.431799483741
 30
0.0
  0
VERTEX
  5
46D
  8
DEFAULT_LAYER
 10
2550.163348103494
 20
3750.347580193741
 30
0.0
  0
VERTEX
  5
46E
  8
DEFAULT_LAYER
 10
2549.998447843494
 20
3750.247400803741
 30
0.0
  0
VERTEX
  5
46F
  8
DEFAULT_LAYER
 10
2549.844481143494
 20
3750.132266623741
 30
0.0
  0
VERTEX
  5
470
  8
DEFAULT_LAYER
 10
2549.702453303494
 20
3750.003182953741
 30
0.0
  0
VERTEX
  5
471
  8
DEFAULT_LAYER
 10
2549.573369633494
 20
3749.861155113741
 30
0.0
  0
VERTEX
  5
472
  8
DEFAULT_LAYER
 10
2549.458235453494
 20
3749.707188413741
 30
0.0
  0
VERTEX
  5
473
  8
DEFAULT_LAYER
 10
2549.358056063494
 20
3749.542288153741
 30
0.0
  0
VERTEX
  5
474
  8
DEFAULT_LAYER
 10
2549.273836783494
 20
3749.367459653741
 30
0.0
  0
VERTEX
  5
475
  8
DEFAULT_LAYER
 10
2549.206582903494
 20
3749.183708213741
 30
0.0
  0
VERTEX
  5
476
  8
DEFAULT_LAYER
 10
2549.157299753494
 20
3748.992039153741
 30
0.0
  0
VERTEX
  5
477
  8
DEFAULT_LAYER
 10
2549.126992643494
 20
3748.793457773741
 30
0.0
  0
SEQEND
  5
7E2
  8
DEFAULT_LAYER
  0
POLYLINE
  5
D0
  8
DEFAULT_LAYER
 66
     1
 10
0.0
 20
0.0
 30
0.0
 70
     1
  0
VERTEX
  5
478
  8
DEFAULT_LAYER
 10
2888.812666863494
 20
3748.588969393741
 30
0.0
  0
VERTEX
  5
479
  8
DEFAULT_LAYER
 10
2888.822992643494
 20
3748.384481013741
 30
0.0
  0
VERTEX
  5
47A
  8
DEFAULT_LAYER
 10
2888.853299753494
 20
3748.185899633741
 30
0.0
  0
VERTEX
  5
47B
  8
DEFAULT_LAYER
 10
2888.902582903494
 20
3747.99423057374
 30
0.0
  0
VERTEX
  5
47C
  8
DEFAULT_LAYER
 10
2888.969836783494
 20
3747.810479133741
 30
0.0
  0
VERTEX
  5
47D
  8
DEFAULT_LAYER
 10
2889.054056063494
 20
3747.635650633741
 30
0.0
  0
VERTEX
  5
47E
  8
DEFAULT_LAYER
 10
2889.154235453494
 20
3747.470750373741
 30
0.0
  0
VERTEX
  5
47F
  8
DEFAULT_LAYER
 10
2889.269369633494
 20
3747.316783673741
 30
0.0
  0
VERTEX
  5
480
  8
DEFAULT_LAYER
 10
2889.398453303494
 20
3747.174755833741
 30
0.0
  0
VERTEX
  5
481
  8
DEFAULT_LAYER
 10
2889.540481143494
 20
3747.045672163741
 30
0.0
  0
VERTEX
  5
482
  8
DEFAULT_LAYER
 10
2889.694447843494
 20
3746.930537983741
 30
0.0
  0
VERTEX
  5
483
  8
DEFAULT_LAYER
 10
2889.859348103494
 20
3746.830358593741
 30
0.0
  0
VERTEX
  5
484
  8
DEFAULT_LAYER
 10
2890.034176603494
 20
3746.746139313741
 30
0.0
  0
VERTEX
  5
485
  8
DEFAULT_LAYER
 10
2890.217928043494
 20
3746.678885433741
 30
0.0
  0
VERTEX
  5
486
  8
DEFAULT_LAYER
 10
2890.409597103494
 20
3746.62960228374
 30
0.0
  0
VERTEX
  5
487
  8
DEFAULT_LAYER
 10
2890.608178483494
 20
3746.599295173741
 30
0.0
  0
VERTEX
  5
488
  8
DEFAULT_LAYER
 10
2890.812666863494
 20
3746.588969393741
 30
0.0
  0
VERTEX
  5
489
  8
DEFAULT_LAYER
 10
2891.017155243494
 20
3746.599295173741
 30
0.0
  0
VERTEX
  5
48A
  8
DEFAULT_LAYER
 10
2891.215736623494
 20
3746.62960228374
 30
0.0
  0
VERTEX
  5
48B
  8
DEFAULT_LAYER
 10
2891.407405683494
 20
3746.678885433741
 30
0.0
  0
VERTEX
  5
48C
  8
DEFAULT_LAYER
 10
2891.591157123494
 20
3746.746139313741
 30
0.0
  0
VERTEX
  5
48D
  8
DEFAULT_LAYER
 10
2891.765985623494
 20
3746.830358593741
 30
0.0
  0
VERTEX
  5
48E
  8
DEFAULT_LAYER
 10
2891.930885883494
 20
3746.930537983741
 30
0.0
  0
VERTEX
  5
48F
  8
DEFAULT_LAYER
 10
2892.084852583494
 20
3747.045672163741
 30
0.0
  0
VERTEX
  5
490
  8
DEFAULT_LAYER
 10
2892.226880423494
 20
3747.174755833741
 30
0.0
  0
VERTEX
  5
491
  8
DEFAULT_LAYER
 10
2892.355964093494
 20
3747.316783673741
 30
0.0
  0
VERTEX
  5
492
  8
DEFAULT_LAYER
 10
2892.471098273494
 20
3747.470750373741
 30
0.0
  0
VERTEX
  5
493
  8
DEFAULT_LAYER
 10
2892.571277663494
 20
3747.635650633741
 30
0.0
  0
VERTEX
  5
494
  8
DEFAULT_LAYER
 10
2892.655496953494
 20
3747.810479133741
 30
0.0
  0
VERTEX
  5
495
  8
DEFAULT_LAYER
 10
2892.722750823494
 20
3747.99423057374
 30
0.0
  0
VERTEX
  5
496
  8
DEFAULT_LAYER
 10
2892.772033973494
 20
3748.185899633741
 30
0.0
  0
VERTEX
  5
497
  8
DEFAULT_LAYER
 10
2892.802341093494
 20
3748.384481013741
 30
0.0
  0
VERTEX
  5
498
  8
DEFAULT_LAYER
 10
2892.812666863494
 20
3748.588969393741
 30
0.0
  0
VERTEX
  5
499
  8
DEFAULT_LAYER
 10
2892.802341093494
 20
3748.793457773741
 30
0.0
  0
VERTEX
  5
49A
  8
DEFAULT_LAYER
 10
2892.772033973494
 20
3748.992039153741
 30
0.0
  0
VERTEX
  5
49B
  8
DEFAULT_LAYER
 10
2892.722750823494
 20
3749.183708213741
 30
0.0
  0
VERTEX
  5
49C
  8
DEFAULT_LAYER
 10
2892.655496953494
 20
3749.367459653741
 30
0.0
  0
VERTEX
  5
49D
  8
DEFAULT_LAYER
 10
2892.571277663494
 20
3749.542288153741
 30
0.0
  0
VERTEX
  5
49E
  8
DEFAULT_LAYER
 10
2892.471098273494
 20
3749.707188413741
 30
0.0
  0
VERTEX
  5
49F
  8
DEFAULT_LAYER
 10
2892.355964093494
 20
3749.861155113741
 30
0.0
  0
VERTEX
  5
4A0
  8
DEFAULT_LAYER
 10
2892.226880423494
 20
3750.003182953741
 30
0.0
  0
VERTEX
  5
4A1
  8
DEFAULT_LAYER
 10
2892.084852583494
 20
3750.132266623741
 30
0.0
  0
VERTEX
  5
4A2
  8
DEFAULT_LAYER
 10
2891.930885883494
 20
3750.247400803741
 30
0.0
  0
VERTEX
  5
4A3
  8
DEFAULT_LAYER
 10
2891.765985623494
 20
3750.347580193741
 30
0.0
  0
VERTEX
  5
4A4
  8
DEFAULT_LAYER
 10
2891.591157123494
 20
3750.431799483741
 30
0.0
  0
VERTEX
  5
4A5
  8
DEFAULT_LAYER
 10
2891.407405683494
 20
3750.499053353741
 30
0.0
  0
VERTEX
  5
4A6
  8
DEFAULT_LAYER
 10
2891.215736623494
 20
3750.548336503741
 30
0.0
  0
VERTEX
  5
4A7
  8
DEFAULT_LAYER
 10
2891.017155243494
 20
3750.578643623741
 30
0.0
  0
VERTEX
  5
4A8
  8
DEFAULT_LAYER
 10
2890.812666863494
 20
3750.588969393741
 30
0.0
  0
VERTEX
  5
4A9
  8
DEFAULT_LAYER
 10
2890.608178483494
 20
3750.578643623741
 30
0.0
  0
VERTEX
  5
4AA
  8
DEFAULT_LAYER
 10
2890.409597103494
 20
3750.548336503741
 30
0.0
  0
VERTEX
  5
4AB
  8
DEFAULT_LAYER
 10
2890.217928043494
 20
3750.499053353741
 30
0.0
  0
VERTEX
  5
4AC
  8
DEFAULT_LAYER
 10
2890.034176603494
 20
3750.431799483741
 30
0.0
  0
VERTEX
  5
4AD
  8
DEFAULT_LAYER
 10
2889.859348103494
 20
3750.347580193741
 30
0.0
  0
VERTEX
  5
4AE
  8
DEFAULT_LAYER
 10
2889.694447843494
 20
3750.247400803741
 30
0.0
  0
VERTEX
  5
4AF
  8
DEFAULT_LAYER
 10
2889.540481143494
 20
3750.132266623741
 30
0.0
  0
VERTEX
  5
4B0
  8
DEFAULT_LAYER
 10
2889.398453303494
 20
3750.003182953741
 30
0.0
  0
VERTEX
  5
4B1
  8
DEFAULT_LAYER
 10
2889.269369633494
 20
3749.861155113741
 30
0.0
  0
VERTEX
  5
4B2
  8
DEFAULT_LAYER
 10
2889.154235453494
 20
3749.707188413741
 30
0.0
  0
VERTEX
  5
4B3
  8
DEFAULT_LAYER
 10
2889.054056063494
 20
3749.542288153741
 30
0.0
  0
VERTEX
  5
4B4
  8
DEFAULT_LAYER
 10
2888.969836783494
 20
3749.367459653741
 30
0.0
  0
VERTEX
  5
4B5
  8
DEFAULT_LAYER
 10
2888.902582903494
 20
3749.183708213741
 30
0.0
  0
VERTEX
  5
4B6
  8
DEFAULT_LAYER
 10
2888.853299753494
 20
3748.992039153741
 30
0.0
  0
VERTEX
  5
4B7
  8
DEFAULT_LAYER
 10
2888.822992643494
 20
3748.793457773741
 30
0.0
  0
SEQEND
  5
7E3
  8
DEFAULT_LAYER
  0
POLYLINE
  5
D1
  8
DEFAULT_LAYER
 66
     1
 10
0.0
 20
0.0
 30
0.0
 70
     1
  0
VERTEX
  5
4B8
  8
DEFAULT_LAYER
 10
4017.228006703494
 20
3654.284856503741
 30
0.0
  0
VERTEX
  5
4B9
  8
DEFAULT_LAYER
 10
4018.128303033494
 20
3609.270039853741
 30
0.0
  0
VERTEX
  5
4BA
  8
DEFAULT_LAYER
 10
4021.128303033494
 20
3509.270039853741
 30
0.0
  0
VERTEX
  5
4BB
  8
DEFAULT_LAYER
 10
4021.128303033494
 20
3309.270039853741
 30
0.0
  0
VERTEX
  5
4BC
  8
DEFAULT_LAYER
 10
4026.064259223494
 20
3009.279797633741
 30
0.0
  0
VERTEX
  5
4BD
  8
DEFAULT_LAYER
 10
3587.405727013494
 20
3009.279797633741
 30
0.0
  0
VERTEX
  5
4BE
  8
DEFAULT_LAYER
 10
3587.405727013494
 20
4304.264769343741
 30
0.0
 42
-0.41421356
  0
VERTEX
  5
4BF
  8
DEFAULT_LAYER
 10
3637.405727013494
 20
4354.264769343741
 30
0.0
  0
VERTEX
  5
4C0
  8
DEFAULT_LAYER
 10
3899.130402353494
 20
4354.264769343741
 30
0.0
  0
VERTEX
  5
4C1
  8
DEFAULT_LAYER
 10
3931.128303033494
 20
4209.270039853741
 30
0.0
  0
VERTEX
  5
4C2
  8
DEFAULT_LAYER
 10
3956.128303033494
 20
4109.270039853741
 30
0.0
  0
VERTEX
  5
4C3
  8
DEFAULT_LAYER
 10
3986.128303033494
 20
3959.270039853741
 30
0.0
  0
VERTEX
  5
4C4
  8
DEFAULT_LAYER
 10
4009.128303033494
 20
3809.270039853741
 30
0.0
  0
VERTEX
  5
4C5
  8
DEFAULT_LAYER
 10
4014.041037183494
 20
3739.088123393741
 30
0.0
  0
VERTEX
  5
4C6
  8
DEFAULT_LAYER
 10
3917.555106433494
 20
3734.093236463741
 30
0.0
  0
VERTEX
  5
4C7
  8
DEFAULT_LAYER
 10
3917.555106433494
 20
3658.799742823741
 30
0.0
  0
SEQEND
  5
7E4
  8
DEFAULT_LAYER
  0
POLYLINE
  5
D2
  8
DEFAULT_LAYER
 66
     1
 10
0.0
 20
0.0
 30
0.0
 70
     1
  0
VERTEX
  5
4C8
  8
DEFAULT_LAYER
 10
3913.441486943494
 20
4157.249854703741
 30
0.0
  0
VERTEX
  5
4C9
  8
DEFAULT_LAYER
 10
3913.451812713494
 20
4157.04536632374
 30
0.0
  0
VERTEX
  5
4CA
  8
DEFAULT_LAYER
 10
3913.482119833494
 20
4156.846784953741
 30
0.0
  0
VERTEX
  5
4CB
  8
DEFAULT_LAYER
 10
3913.531402983494
 20
4156.655115883741
 30
0.0
  0
VERTEX
  5
4CC
  8
DEFAULT_LAYER
 10
3913.598656853494
 20
4156.471364453741
 30
0.0
  0
VERTEX
  5
4CD
  8
DEFAULT_LAYER
 10
3913.682876143494
 20
4156.29653594374
 30
0.0
  0
VERTEX
  5
4CE
  8
DEFAULT_LAYER
 10
3913.783055533494
 20
4156.13163569374
 30
0.0
  0
VERTEX
  5
4CF
  8
DEFAULT_LAYER
 10
3913.898189713494
 20
4155.977668983741
 30
0.0
  0
VERTEX
  5
4D0
  8
DEFAULT_LAYER
 10
3914.027273383494
 20
4155.835641143741
 30
0.0
  0
VERTEX
  5
4D1
  8
DEFAULT_LAYER
 10
3914.169301223494
 20
4155.706557483741
 30
0.0
  0
VERTEX
  5
4D2
  8
DEFAULT_LAYER
 10
3914.323267923494
 20
4155.591423293741
 30
0.0
  0
VERTEX
  5
4D3
  8
DEFAULT_LAYER
 10
3914.488168183494
 20
4155.491243903741
 30
0.0
  0
VERTEX
  5
4D4
  8
DEFAULT_LAYER
 10
3914.662996683494
 20
4155.407024623741
 30
0.0
  0
VERTEX
  5
4D5
  8
DEFAULT_LAYER
 10
3914.846748123494
 20
4155.339770753741
 30
0.0
  0
VERTEX
  5
4D6
  8
DEFAULT_LAYER
 10
3915.038417183494
 20
4155.290487603741
 30
0.0
  0
VERTEX
  5
4D7
  8
DEFAULT_LAYER
 10
3915.236998563494
 20
4155.26018048374
 30
0.0
  0
VERTEX
  5
4D8
  8
DEFAULT_LAYER
 10
3915.441486943494
 20
4155.249854703741
 30
0.0
  0
VERTEX
  5
4D9
  8
DEFAULT_LAYER
 10
3915.645975323494
 20
4155.26018048374
 30
0.0
  0
VERTEX
  5
4DA
  8
DEFAULT_LAYER
 10
3915.844556703494
 20
4155.290487603741
 30
0.0
  0
VERTEX
  5
4DB
  8
DEFAULT_LAYER
 10
3916.036225763494
 20
4155.339770753741
 30
0.0
  0
VERTEX
  5
4DC
  8
DEFAULT_LAYER
 10
3916.219977203494
 20
4155.407024623741
 30
0.0
  0
VERTEX
  5
4DD
  8
DEFAULT_LAYER
 10
3916.394805703494
 20
4155.491243903741
 30
0.0
  0
VERTEX
  5
4DE
  8
DEFAULT_LAYER
 10
3916.559705963494
 20
4155.591423293741
 30
0.0
  0
VERTEX
  5
4DF
  8
DEFAULT_LAYER
 10
3916.713672663494
 20
4155.706557483741
 30
0.0
  0
VERTEX
  5
4E0
  8
DEFAULT_LAYER
 10
3916.855700503494
 20
4155.835641143741
 30
0.0
  0
VERTEX
  5
4E1
  8
DEFAULT_LAYER
 10
3916.984784173494
 20
4155.977668983741
 30
0.0
  0
VERTEX
  5
4E2
  8
DEFAULT_LAYER
 10
3917.099918353494
 20
4156.13163569374
 30
0.0
  0
VERTEX
  5
4E3
  8
DEFAULT_LAYER
 10
3917.200097743494
 20
4156.29653594374
 30
0.0
  0
VERTEX
  5
4E4
  8
DEFAULT_LAYER
 10
3917.284317023494
 20
4156.471364453741
 30
0.0
  0
VERTEX
  5
4E5
  8
DEFAULT_LAYER
 10
3917.351570903494
 20
4156.655115883741
 30
0.0
  0
VERTEX
  5
4E6
  8
DEFAULT_LAYER
 10
3917.400854053494
 20
4156.846784953741
 30
0.0
  0
VERTEX
  5
4E7
  8
DEFAULT_LAYER
 10
3917.431161163494
 20
4157.04536632374
 30
0.0
  0
VERTEX
  5
4E8
  8
DEFAULT_LAYER
 10
3917.441486943494
 20
4157.249854703741
 30
0.0
  0
VERTEX
  5
4E9
  8
DEFAULT_LAYER
 10
3917.431161163494
 20
4157.454343093741
 30
0.0
  0
VERTEX
  5
4EA
  8
DEFAULT_LAYER
 10
3917.400854053494
 20
4157.65292446374
 30
0.0
  0
VERTEX
  5
4EB
  8
DEFAULT_LAYER
 10
3917.351570903494
 20
4157.84459353374
 30
0.0
  0
VERTEX
  5
4EC
  8
DEFAULT_LAYER
 10
3917.284317023494
 20
4158.028344963741
 30
0.0
  0
VERTEX
  5
4ED
  8
DEFAULT_LAYER
 10
3917.200097743494
 20
4158.20317346374
 30
0.0
  0
VERTEX
  5
4EE
  8
DEFAULT_LAYER
 10
3917.099918353494
 20
4158.368073723741
 30
0.0
  0
VERTEX
  5
4EF
  8
DEFAULT_LAYER
 10
3916.984784173494
 20
4158.522040433741
 30
0.0
  0
VERTEX
  5
4F0
  8
DEFAULT_LAYER
 10
3916.855700503494
 20
4158.664068273741
 30
0.0
  0
VERTEX
  5
4F1
  8
DEFAULT_LAYER
 10
3916.713672663494
 20
4158.793151933741
 30
0.0
  0
VERTEX
  5
4F2
  8
DEFAULT_LAYER
 10
3916.559705963494
 20
4158.90828612374
 30
0.0
  0
VERTEX
  5
4F3
  8
DEFAULT_LAYER
 10
3916.394805703494
 20
4159.008465503741
 30
0.0
  0
VERTEX
  5
4F4
  8
DEFAULT_LAYER
 10
3916.219977203494
 20
4159.092684793741
 30
0.0
  0
VERTEX
  5
4F5
  8
DEFAULT_LAYER
 10
3916.036225763494
 20
4159.159938663741
 30
0.0
  0
VERTEX
  5
4F6
  8
DEFAULT_LAYER
 10
3915.844556703494
 20
4159.20922181374
 30
0.0
  0
VERTEX
  5
4F7
  8
DEFAULT_LAYER
 10
3915.645975323494
 20
4159.239528933741
 30
0.0
  0
VERTEX
  5
4F8
  8
DEFAULT_LAYER
 10
3915.441486943494
 20
4159.249854703741
 30
0.0
  0
VERTEX
  5
4F9
  8
DEFAULT_LAYER
 10
3915.236998563494
 20
4159.239528933741
 30
0.0
  0
VERTEX
  5
4FA
  8
DEFAULT_LAYER
 10
3915.038417183494
 20
4159.20922181374
 30
0.0
  0
VERTEX
  5
4FB
  8
DEFAULT_LAYER
 10
3914.846748123494
 20
4159.159938663741
 30
0.0
  0
VERTEX
  5
4FC
  8
DEFAULT_LAYER
 10
3914.662996683494
 20
4159.092684793741
 30
0.0
  0
VERTEX
  5
4FD
  8
DEFAULT_LAYER
 10
3914.488168183494
 20
4159.008465503741
 30
0.0
  0
VERTEX
  5
4FE
  8
DEFAULT_LAYER
 10
3914.323267923494
 20
4158.90828612374
 30
0.0
  0
VERTEX
  5
4FF
  8
DEFAULT_LAYER
 10
3914.169301223494
 20
4158.793151933741
 30
0.0
  0
VERTEX
  5
500
  8
DEFAULT_LAYER
 10
3914.027273383494
 20
4158.664068273741
 30
0.0
  0
VERTEX
  5
501
  8
DEFAULT_LAYER
 10
3913.898189713494
 20
4158.522040433741
 30
0.0
  0
VERTEX
  5
502
  8
DEFAULT_LAYER
 10
3913.783055533494
 20
4158.368073723741
 30
0.0
  0
VERTEX
  5
503
  8
DEFAULT_LAYER
 10
3913.682876143494
 20
4158.20317346374
 30
0.0
  0
VERTEX
  5
504
  8
DEFAULT_LAYER
 10
3913.598656853494
 20
4158.028344963741
 30
0.0
  0
VERTEX
  5
505
  8
DEFAULT_LAYER
 10
3913.531402983494
 20
4157.84459353374
 30
0.0
  0
VERTEX
  5
506
  8
DEFAULT_LAYER
 10
3913.482119833494
 20
4157.65292446374
 30
0.0
  0
VERTEX
  5
507
  8
DEFAULT_LAYER
 10
3913.451812713494
 20
4157.454343093741
 30
0.0
  0
SEQEND
  5
7E5
  8
DEFAULT_LAYER
  0
POLYLINE
  5
D3
  8
DEFAULT_LAYER
 66
     1
 10
0.0
 20
0.0
 30
0.0
 70
     1
  0
VERTEX
  5
508
  8
DEFAULT_LAYER
 10
3629.149486943494
 20
3365.478364433741
 30
0.0
  0
VERTEX
  5
509
  8
DEFAULT_LAYER
 10
3629.159812713494
 20
3365.27387605374
 30
0.0
  0
VERTEX
  5
50A
  8
DEFAULT_LAYER
 10
3629.190119833494
 20
3365.075294683741
 30
0.0
  0
VERTEX
  5
50B
  8
DEFAULT_LAYER
 10
3629.239402983494
 20
3364.883625613741
 30
0.0
  0
VERTEX
  5
50C
  8
DEFAULT_LAYER
 10
3629.306656853494
 20
3364.699874183741
 30
0.0
  0
VERTEX
  5
50D
  8
DEFAULT_LAYER
 10
3629.390876143494
 20
3364.525045673741
 30
0.0
  0
VERTEX
  5
50E
  8
DEFAULT_LAYER
 10
3629.491055533494
 20
3364.360145423741
 30
0.0
  0
VERTEX
  5
50F
  8
DEFAULT_LAYER
 10
3629.606189713494
 20
3364.206178713741
 30
0.0
  0
VERTEX
  5
510
  8
DEFAULT_LAYER
 10
3629.735273383494
 20
3364.064150873741
 30
0.0
  0
VERTEX
  5
511
  8
DEFAULT_LAYER
 10
3629.877301223494
 20
3363.935067213741
 30
0.0
  0
VERTEX
  5
512
  8
DEFAULT_LAYER
 10
3630.031267923494
 20
3363.819933023741
 30
0.0
  0
VERTEX
  5
513
  8
DEFAULT_LAYER
 10
3630.196168183494
 20
3363.719753633741
 30
0.0
  0
VERTEX
  5
514
  8
DEFAULT_LAYER
 10
3630.370996683494
 20
3363.635534353741
 30
0.0
  0
VERTEX
  5
515
  8
DEFAULT_LAYER
 10
3630.554748123494
 20
3363.568280483741
 30
0.0
  0
VERTEX
  5
516
  8
DEFAULT_LAYER
 10
3630.746417183494
 20
3363.518997333741
 30
0.0
  0
VERTEX
  5
517
  8
DEFAULT_LAYER
 10
3630.944998563494
 20
3363.48869021374
 30
0.0
  0
VERTEX
  5
518
  8
DEFAULT_LAYER
 10
3631.149486943494
 20
3363.478364433741
 30
0.0
  0
VERTEX
  5
519
  8
DEFAULT_LAYER
 10
3631.353975323494
 20
3363.48869021374
 30
0.0
  0
VERTEX
  5
51A
  8
DEFAULT_LAYER
 10
3631.552556703494
 20
3363.518997333741
 30
0.0
  0
VERTEX
  5
51B
  8
DEFAULT_LAYER
 10
3631.744225763494
 20
3363.568280483741
 30
0.0
  0
VERTEX
  5
51C
  8
DEFAULT_LAYER
 10
3631.927977203494
 20
3363.635534353741
 30
0.0
  0
VERTEX
  5
51D
  8
DEFAULT_LAYER
 10
3632.102805703494
 20
3363.719753633741
 30
0.0
  0
VERTEX
  5
51E
  8
DEFAULT_LAYER
 10
3632.267705963494
 20
3363.819933023741
 30
0.0
  0
VERTEX
  5
51F
  8
DEFAULT_LAYER
 10
3632.421672663494
 20
3363.935067213741
 30
0.0
  0
VERTEX
  5
520
  8
DEFAULT_LAYER
 10
3632.563700503494
 20
3364.064150873741
 30
0.0
  0
VERTEX
  5
521
  8
DEFAULT_LAYER
 10
3632.692784173494
 20
3364.206178713741
 30
0.0
  0
VERTEX
  5
522
  8
DEFAULT_LAYER
 10
3632.807918353494
 20
3364.360145423741
 30
0.0
  0
VERTEX
  5
523
  8
DEFAULT_LAYER
 10
3632.908097743494
 20
3364.525045673741
 30
0.0
  0
VERTEX
  5
524
  8
DEFAULT_LAYER
 10
3632.992317023494
 20
3364.699874183741
 30
0.0
  0
VERTEX
  5
525
  8
DEFAULT_LAYER
 10
3633.059570903494
 20
3364.883625613741
 30
0.0
  0
VERTEX
  5
526
  8
DEFAULT_LAYER
 10
3633.108854053494
 20
3365.075294683741
 30
0.0
  0
VERTEX
  5
527
  8
DEFAULT_LAYER
 10
3633.139161163494
 20
3365.27387605374
 30
0.0
  0
VERTEX
  5
528
  8
DEFAULT_LAYER
 10
3633.149486943494
 20
3365.478364433741
 30
0.0
  0
VERTEX
  5
529
  8
DEFAULT_LAYER
 10
3633.139161163494
 20
3365.682852823741
 30
0.0
  0
VERTEX
  5
52A
  8
DEFAULT_LAYER
 10
3633.108854053494
 20
3365.88143419374
 30
0.0
  0
VERTEX
  5
52B
  8
DEFAULT_LAYER
 10
3633.059570903494
 20
3366.07310326374
 30
0.0
  0
VERTEX
  5
52C
  8
DEFAULT_LAYER
 10
3632.992317023494
 20
3366.256854693741
 30
0.0
  0
VERTEX
  5
52D
  8
DEFAULT_LAYER
 10
3632.908097743494
 20
3366.431683193741
 30
0.0
  0
VERTEX
  5
52E
  8
DEFAULT_LAYER
 10
3632.807918353494
 20
3366.596583453741
 30
0.0
  0
VERTEX
  5
52F
  8
DEFAULT_LAYER
 10
3632.692784173494
 20
3366.750550163741
 30
0.0
  0
VERTEX
  5
530
  8
DEFAULT_LAYER
 10
3632.563700503494
 20
3366.892578003741
 30
0.0
  0
VERTEX
  5
531
  8
DEFAULT_LAYER
 10
3632.421672663494
 20
3367.021661663741
 30
0.0
  0
VERTEX
  5
532
  8
DEFAULT_LAYER
 10
3632.267705963494
 20
3367.136795853741
 30
0.0
  0
VERTEX
  5
533
  8
DEFAULT_LAYER
 10
3632.102805703494
 20
3367.236975233741
 30
0.0
  0
VERTEX
  5
534
  8
DEFAULT_LAYER
 10
3631.927977203494
 20
3367.321194523741
 30
0.0
  0
VERTEX
  5
535
  8
DEFAULT_LAYER
 10
3631.744225763494
 20
3367.388448393741
 30
0.0
  0
VERTEX
  5
536
  8
DEFAULT_LAYER
 10
3631.552556703494
 20
3367.43773154374
 30
0.0
  0
VERTEX
  5
537
  8
DEFAULT_LAYER
 10
3631.353975323494
 20
3367.468038663741
 30
0.0
  0
VERTEX
  5
538
  8
DEFAULT_LAYER
 10
3631.149486943494
 20
3367.478364433741
 30
0.0
  0
VERTEX
  5
539
  8
DEFAULT_LAYER
 10
3630.944998563494
 20
3367.468038663741
 30
0.0
  0
VERTEX
  5
53A
  8
DEFAULT_LAYER
 10
3630.746417183494
 20
3367.43773154374
 30
0.0
  0
VERTEX
  5
53B
  8
DEFAULT_LAYER
 10
3630.554748123494
 20
3367.388448393741
 30
0.0
  0
VERTEX
  5
53C
  8
DEFAULT_LAYER
 10
3630.370996683494
 20
3367.321194523741
 30
0.0
  0
VERTEX
  5
53D
  8
DEFAULT_LAYER
 10
3630.196168183494
 20
3367.236975233741
 30
0.0
  0
VERTEX
  5
53E
  8
DEFAULT_LAYER
 10
3630.031267923494
 20
3367.136795853741
 30
0.0
  0
VERTEX
  5
53F
  8
DEFAULT_LAYER
 10
3629.877301223494
 20
3367.021661663741
 30
0.0
  0
VERTEX
  5
540
  8
DEFAULT_LAYER
 10
3629.735273383494
 20
3366.892578003741
 30
0.0
  0
VERTEX
  5
541
  8
DEFAULT_LAYER
 10
3629.606189713494
 20
3366.750550163741
 30
0.0
  0
VERTEX
  5
542
  8
DEFAULT_LAYER
 10
3629.491055533494
 20
3366.596583453741
 30
0.0
  0
VERTEX
  5
543
  8
DEFAULT_LAYER
 10
3629.390876143494
 20
3366.431683193741
 30
0.0
  0
VERTEX
  5
544
  8
DEFAULT_LAYER
 10
3629.306656853494
 20
3366.256854693741
 30
0.0
  0
VERTEX
  5
545
  8
DEFAULT_LAYER
 10
3629.239402983494
 20
3366.07310326374
 30
0.0
  0
VERTEX
  5
546
  8
DEFAULT_LAYER
 10
3629.190119833494
 20
3365.88143419374
 30
0.0
  0
VERTEX
  5
547
  8
DEFAULT_LAYER
 10
3629.159812713494
 20
3365.682852823741
 30
0.0
  0
SEQEND
  5
7E6
  8
DEFAULT_LAYER
  0
POLYLINE
  5
D4
  8
DEFAULT_LAYER
 66
     1
 10
0.0
 20
0.0
 30
0.0
 70
     1
  0
VERTEX
  5
548
  8
DEFAULT_LAYER
 10
3913.441486943494
 20
3365.478364433741
 30
0.0
  0
VERTEX
  5
549
  8
DEFAULT_LAYER
 10
3913.451812713494
 20
3365.27387605374
 30
0.0
  0
VERTEX
  5
54A
  8
DEFAULT_LAYER
 10
3913.482119833494
 20
3365.075294683741
 30
0.0
  0
VERTEX
  5
54B
  8
DEFAULT_LAYER
 10
3913.531402983494
 20
3364.883625613741
 30
0.0
  0
VERTEX
  5
54C
  8
DEFAULT_LAYER
 10
3913.598656853494
 20
3364.699874183741
 30
0.0
  0
VERTEX
  5
54D
  8
DEFAULT_LAYER
 10
3913.682876143494
 20
3364.525045673741
 30
0.0
  0
VERTEX
  5
54E
  8
DEFAULT_LAYER
 10
3913.783055533494
 20
3364.360145423741
 30
0.0
  0
VERTEX
  5
54F
  8
DEFAULT_LAYER
 10
3913.898189713494
 20
3364.206178713741
 30
0.0
  0
VERTEX
  5
550
  8
DEFAULT_LAYER
 10
3914.027273383494
 20
3364.064150873741
 30
0.0
  0
VERTEX
  5
551
  8
DEFAULT_LAYER
 10
3914.169301223494
 20
3363.935067213741
 30
0.0
  0
VERTEX
  5
552
  8
DEFAULT_LAYER
 10
3914.323267923494
 20
3363.819933023741
 30
0.0
  0
VERTEX
  5
553
  8
DEFAULT_LAYER
 10
3914.488168183494
 20
3363.719753633741
 30
0.0
  0
VERTEX
  5
554
  8
DEFAULT_LAYER
 10
3914.662996683494
 20
3363.635534353741
 30
0.0
  0
VERTEX
  5
555
  8
DEFAULT_LAYER
 10
3914.846748123494
 20
3363.568280483741
 30
0.0
  0
VERTEX
  5
556
  8
DEFAULT_LAYER
 10
3915.038417183494
 20
3363.518997333741
 30
0.0
  0
VERTEX
  5
557
  8
DEFAULT_LAYER
 10
3915.236998563494
 20
3363.48869021374
 30
0.0
  0
VERTEX
  5
558
  8
DEFAULT_LAYER
 10
3915.441486943494
 20
3363.478364433741
 30
0.0
  0
VERTEX
  5
559
  8
DEFAULT_LAYER
 10
3915.645975323494
 20
3363.48869021374
 30
0.0
  0
VERTEX
  5
55A
  8
DEFAULT_LAYER
 10
3915.844556703494
 20
3363.518997333741
 30
0.0
  0
VERTEX
  5
55B
  8
DEFAULT_LAYER
 10
3916.036225763494
 20
3363.568280483741
 30
0.0
  0
VERTEX
  5
55C
  8
DEFAULT_LAYER
 10
3916.219977203494
 20
3363.635534353741
 30
0.0
  0
VERTEX
  5
55D
  8
DEFAULT_LAYER
 10
3916.394805703494
 20
3363.719753633741
 30
0.0
  0
VERTEX
  5
55E
  8
DEFAULT_LAYER
 10
3916.559705963494
 20
3363.819933023741
 30
0.0
  0
VERTEX
  5
55F
  8
DEFAULT_LAYER
 10
3916.713672663494
 20
3363.935067213741
 30
0.0
  0
VERTEX
  5
560
  8
DEFAULT_LAYER
 10
3916.855700503494
 20
3364.064150873741
 30
0.0
  0
VERTEX
  5
561
  8
DEFAULT_LAYER
 10
3916.984784173494
 20
3364.206178713741
 30
0.0
  0
VERTEX
  5
562
  8
DEFAULT_LAYER
 10
3917.099918353494
 20
3364.360145423741
 30
0.0
  0
VERTEX
  5
563
  8
DEFAULT_LAYER
 10
3917.200097743494
 20
3364.525045673741
 30
0.0
  0
VERTEX
  5
564
  8
DEFAULT_LAYER
 10
3917.284317023494
 20
3364.699874183741
 30
0.0
  0
VERTEX
  5
565
  8
DEFAULT_LAYER
 10
3917.351570903494
 20
3364.883625613741
 30
0.0
  0
VERTEX
  5
566
  8
DEFAULT_LAYER
 10
3917.400854053494
 20
3365.075294683741
 30
0.0
  0
VERTEX
  5
567
  8
DEFAULT_LAYER
 10
3917.431161163494
 20
3365.27387605374
 30
0.0
  0
VERTEX
  5
568
  8
DEFAULT_LAYER
 10
3917.441486943494
 20
3365.478364433741
 30
0.0
  0
VERTEX
  5
569
  8
DEFAULT_LAYER
 10
3917.431161163494
 20
3365.682852823741
 30
0.0
  0
VERTEX
  5
56A
  8
DEFAULT_LAYER
 10
3917.400854053494
 20
3365.88143419374
 30
0.0
  0
VERTEX
  5
56B
  8
DEFAULT_LAYER
 10
3917.351570903494
 20
3366.07310326374
 30
0.0
  0
VERTEX
  5
56C
  8
DEFAULT_LAYER
 10
3917.284317023494
 20
3366.256854693741
 30
0.0
  0
VERTEX
  5
56D
  8
DEFAULT_LAYER
 10
3917.200097743494
 20
3366.431683193741
 30
0.0
  0
VERTEX
  5
56E
  8
DEFAULT_LAYER
 10
3917.099918353494
 20
3366.596583453741
 30
0.0
  0
VERTEX
  5
56F
  8
DEFAULT_LAYER
 10
3916.984784173494
 20
3366.750550163741
 30
0.0
  0
VERTEX
  5
570
  8
DEFAULT_LAYER
 10
3916.855700503494
 20
3366.892578003741
 30
0.0
  0
VERTEX
  5
571
  8
DEFAULT_LAYER
 10
3916.713672663494
 20
3367.021661663741
 30
0.0
  0
VERTEX
  5
572
  8
DEFAULT_LAYER
 10
3916.559705963494
 20
3367.136795853741
 30
0.0
  0
VERTEX
  5
573
  8
DEFAULT_LAYER
 10
3916.394805703494
 20
3367.236975233741
 30
0.0
  0
VERTEX
  5
574
  8
DEFAULT_LAYER
 10
3916.219977203494
 20
3367.321194523741
 30
0.0
  0
VERTEX
  5
575
  8
DEFAULT_LAYER
 10
3916.036225763494
 20
3367.388448393741
 30
0.0
  0
VERTEX
  5
576
  8
DEFAULT_LAYER
 10
3915.844556703494
 20
3367.43773154374
 30
0.0
  0
VERTEX
  5
577
  8
DEFAULT_LAYER
 10
3915.645975323494
 20
3367.468038663741
 30
0.0
  0
VERTEX
  5
578
  8
DEFAULT_LAYER
 10
3915.441486943494
 20
3367.478364433741
 30
0.0
  0
VERTEX
  5
579
  8
DEFAULT_LAYER
 10
3915.236998563494
 20
3367.468038663741
 30
0.0
  0
VERTEX
  5
57A
  8
DEFAULT_LAYER
 10
3915.038417183494
 20
3367.43773154374
 30
0.0
  0
VERTEX
  5
57B
  8
DEFAULT_LAYER
 10
3914.846748123494
 20
3367.388448393741
 30
0.0
  0
VERTEX
  5
57C
  8
DEFAULT_LAYER
 10
3914.662996683494
 20
3367.321194523741
 30
0.0
  0
VERTEX
  5
57D
  8
DEFAULT_LAYER
 10
3914.488168183494
 20
3367.236975233741
 30
0.0
  0
VERTEX
  5
57E
  8
DEFAULT_LAYER
 10
3914.323267923494
 20
3367.136795853741
 30
0.0
  0
VERTEX
  5
57F
  8
DEFAULT_LAYER
 10
3914.169301223494
 20
3367.021661663741
 30
0.0
  0
VERTEX
  5
580
  8
DEFAULT_LAYER
 10
3914.027273383494
 20
3366.892578003741
 30
0.0
  0
VERTEX
  5
581
  8
DEFAULT_LAYER
 10
3913.898189713494
 20
3366.750550163741
 30
0.0
  0
VERTEX
  5
582
  8
DEFAULT_LAYER
 10
3913.783055533494
 20
3366.596583453741
 30
0.0
  0
VERTEX
  5
583
  8
DEFAULT_LAYER
 10
3913.682876143494
 20
3366.431683193741
 30
0.0
  0
VERTEX
  5
584
  8
DEFAULT_LAYER
 10
3913.598656853494
 20
3366.256854693741
 30
0.0
  0
VERTEX
  5
585
  8
DEFAULT_LAYER
 10
3913.531402983494
 20
3366.07310326374
 30
0.0
  0
VERTEX
  5
586
  8
DEFAULT_LAYER
 10
3913.482119833494
 20
3365.88143419374
 30
0.0
  0
VERTEX
  5
587
  8
DEFAULT_LAYER
 10
3913.451812713494
 20
3365.682852823741
 30
0.0
  0
SEQEND
  5
7E7
  8
DEFAULT_LAYER
  0
POLYLINE
  5
D5
  8
DEFAULT_LAYER
 66
     1
 10
0.0
 20
0.0
 30
0.0
 70
     1
  0
VERTEX
  5
588
  8
DEFAULT_LAYER
 10
3629.149486943494
 20
3749.302953723741
 30
0.0
  0
VERTEX
  5
589
  8
DEFAULT_LAYER
 10
3629.159812713494
 20
3749.098465343741
 30
0.0
  0
VERTEX
  5
58A
  8
DEFAULT_LAYER
 10
3629.190119833494
 20
3748.899883973741
 30
0.0
  0
VERTEX
  5
58B
  8
DEFAULT_LAYER
 10
3629.239402983494
 20
3748.708214903741
 30
0.0
  0
VERTEX
  5
58C
  8
DEFAULT_LAYER
 10
3629.306656853494
 20
3748.524463473741
 30
0.0
  0
VERTEX
  5
58D
  8
DEFAULT_LAYER
 10
3629.390876143494
 20
3748.349634963741
 30
0.0
  0
VERTEX
  5
58E
  8
DEFAULT_LAYER
 10
3629.491055533494
 20
3748.184734713741
 30
0.0
  0
VERTEX
  5
58F
  8
DEFAULT_LAYER
 10
3629.606189713494
 20
3748.030768003741
 30
0.0
  0
VERTEX
  5
590
  8
DEFAULT_LAYER
 10
3629.735273383494
 20
3747.888740163741
 30
0.0
  0
VERTEX
  5
591
  8
DEFAULT_LAYER
 10
3629.877301223494
 20
3747.759656503741
 30
0.0
  0
VERTEX
  5
592
  8
DEFAULT_LAYER
 10
3630.031267923494
 20
3747.644522313741
 30
0.0
  0
VERTEX
  5
593
  8
DEFAULT_LAYER
 10
3630.196168183494
 20
3747.544342923741
 30
0.0
  0
VERTEX
  5
594
  8
DEFAULT_LAYER
 10
3630.370996683494
 20
3747.460123643741
 30
0.0
  0
VERTEX
  5
595
  8
DEFAULT_LAYER
 10
3630.554748123494
 20
3747.392869773741
 30
0.0
  0
VERTEX
  5
596
  8
DEFAULT_LAYER
 10
3630.746417183494
 20
3747.343586623741
 30
0.0
  0
VERTEX
  5
597
  8
DEFAULT_LAYER
 10
3630.944998563494
 20
3747.313279503741
 30
0.0
  0
VERTEX
  5
598
  8
DEFAULT_LAYER
 10
3631.149486943494
 20
3747.302953723741
 30
0.0
  0
VERTEX
  5
599
  8
DEFAULT_LAYER
 10
3631.353975323494
 20
3747.313279503741
 30
0.0
  0
VERTEX
  5
59A
  8
DEFAULT_LAYER
 10
3631.552556703494
 20
3747.343586623741
 30
0.0
  0
VERTEX
  5
59B
  8
DEFAULT_LAYER
 10
3631.744225763494
 20
3747.392869773741
 30
0.0
  0
VERTEX
  5
59C
  8
DEFAULT_LAYER
 10
3631.927977203494
 20
3747.460123643741
 30
0.0
  0
VERTEX
  5
59D
  8
DEFAULT_LAYER
 10
3632.102805703494
 20
3747.544342923741
 30
0.0
  0
VERTEX
  5
59E
  8
DEFAULT_LAYER
 10
3632.267705963494
 20
3747.644522313741
 30
0.0
  0
VERTEX
  5
59F
  8
DEFAULT_LAYER
 10
3632.421672663494
 20
3747.759656503741
 30
0.0
  0
VERTEX
  5
5A0
  8
DEFAULT_LAYER
 10
3632.563700503494
 20
3747.888740163741
 30
0.0
  0
VERTEX
  5
5A1
  8
DEFAULT_LAYER
 10
3632.692784173494
 20
3748.030768003741
 30
0.0
  0
VERTEX
  5
5A2
  8
DEFAULT_LAYER
 10
3632.807918353494
 20
3748.184734713741
 30
0.0
  0
VERTEX
  5
5A3
  8
DEFAULT_LAYER
 10
3632.908097743494
 20
3748.349634963741
 30
0.0
  0
VERTEX
  5
5A4
  8
DEFAULT_LAYER
 10
3632.992317023494
 20
3748.524463473741
 30
0.0
  0
VERTEX
  5
5A5
  8
DEFAULT_LAYER
 10
3633.059570903494
 20
3748.708214903741
 30
0.0
  0
VERTEX
  5
5A6
  8
DEFAULT_LAYER
 10
3633.108854053494
 20
3748.899883973741
 30
0.0
  0
VERTEX
  5
5A7
  8
DEFAULT_LAYER
 10
3633.139161163494
 20
3749.098465343741
 30
0.0
  0
VERTEX
  5
5A8
  8
DEFAULT_LAYER
 10
3633.149486943494
 20
3749.302953723741
 30
0.0
  0
VERTEX
  5
5A9
  8
DEFAULT_LAYER
 10
3633.139161163494
 20
3749.507442113741
 30
0.0
  0
VERTEX
  5
5AA
  8
DEFAULT_LAYER
 10
3633.108854053494
 20
3749.706023483741
 30
0.0
  0
VERTEX
  5
5AB
  8
DEFAULT_LAYER
 10
3633.059570903494
 20
3749.897692553741
 30
0.0
  0
VERTEX
  5
5AC
  8
DEFAULT_LAYER
 10
3632.992317023494
 20
3750.08144398374
 30
0.0
  0
VERTEX
  5
5AD
  8
DEFAULT_LAYER
 10
3632.908097743494
 20
3750.256272483741
 30
0.0
  0
VERTEX
  5
5AE
  8
DEFAULT_LAYER
 10
3632.807918353494
 20
3750.42117274374
 30
0.0
  0
VERTEX
  5
5AF
  8
DEFAULT_LAYER
 10
3632.692784173494
 20
3750.575139453741
 30
0.0
  0
VERTEX
  5
5B0
  8
DEFAULT_LAYER
 10
3632.563700503494
 20
3750.717167293741
 30
0.0
  0
VERTEX
  5
5B1
  8
DEFAULT_LAYER
 10
3632.421672663494
 20
3750.846250953741
 30
0.0
  0
VERTEX
  5
5B2
  8
DEFAULT_LAYER
 10
3632.267705963494
 20
3750.961385143741
 30
0.0
  0
VERTEX
  5
5B3
  8
DEFAULT_LAYER
 10
3632.102805703494
 20
3751.061564523741
 30
0.0
  0
VERTEX
  5
5B4
  8
DEFAULT_LAYER
 10
3631.927977203494
 20
3751.145783813741
 30
0.0
  0
VERTEX
  5
5B5
  8
DEFAULT_LAYER
 10
3631.744225763494
 20
3751.213037683741
 30
0.0
  0
VERTEX
  5
5B6
  8
DEFAULT_LAYER
 10
3631.552556703494
 20
3751.262320833741
 30
0.0
  0
VERTEX
  5
5B7
  8
DEFAULT_LAYER
 10
3631.353975323494
 20
3751.292627953741
 30
0.0
  0
VERTEX
  5
5B8
  8
DEFAULT_LAYER
 10
3631.149486943494
 20
3751.302953723741
 30
0.0
  0
VERTEX
  5
5B9
  8
DEFAULT_LAYER
 10
3630.944998563494
 20
3751.292627953741
 30
0.0
  0
VERTEX
  5
5BA
  8
DEFAULT_LAYER
 10
3630.746417183494
 20
3751.262320833741
 30
0.0
  0
VERTEX
  5
5BB
  8
DEFAULT_LAYER
 10
3630.554748123494
 20
3751.213037683741
 30
0.0
  0
VERTEX
  5
5BC
  8
DEFAULT_LAYER
 10
3630.370996683494
 20
3751.145783813741
 30
0.0
  0
VERTEX
  5
5BD
  8
DEFAULT_LAYER
 10
3630.196168183494
 20
3751.061564523741
 30
0.0
  0
VERTEX
  5
5BE
  8
DEFAULT_LAYER
 10
3630.031267923494
 20
3750.961385143741
 30
0.0
  0
VERTEX
  5
5BF
  8
DEFAULT_LAYER
 10
3629.877301223494
 20
3750.846250953741
 30
0.0
  0
VERTEX
  5
5C0
  8
DEFAULT_LAYER
 10
3629.735273383494
 20
3750.717167293741
 30
0.0
  0
VERTEX
  5
5C1
  8
DEFAULT_LAYER
 10
3629.606189713494
 20
3750.575139453741
 30
0.0
  0
VERTEX
  5
5C2
  8
DEFAULT_LAYER
 10
3629.491055533494
 20
3750.42117274374
 30
0.0
  0
VERTEX
  5
5C3
  8
DEFAULT_LAYER
 10
3629.390876143494
 20
3750.256272483741
 30
0.0
  0
VERTEX
  5
5C4
  8
DEFAULT_LAYER
 10
3629.306656853494
 20
3750.08144398374
 30
0.0
  0
VERTEX
  5
5C5
  8
DEFAULT_LAYER
 10
3629.239402983494
 20
3749.897692553741
 30
0.0
  0
VERTEX
  5
5C6
  8
DEFAULT_LAYER
 10
3629.190119833494
 20
3749.706023483741
 30
0.0
  0
VERTEX
  5
5C7
  8
DEFAULT_LAYER
 10
3629.159812713494
 20
3749.507442113741
 30
0.0
  0
SEQEND
  5
7E8
  8
DEFAULT_LAYER
  0
POLYLINE
  5
D6
  8
DEFAULT_LAYER
 66
     1
 10
0.0
 20
0.0
 30
0.0
 70
     1
  0
VERTEX
  5
5C8
  8
DEFAULT_LAYER
 10
3913.441486943494
 20
3749.302953723741
 30
0.0
  0
VERTEX
  5
5C9
  8
DEFAULT_LAYER
 10
3913.451812713494
 20
3749.098465343741
 30
0.0
  0
VERTEX
  5
5CA
  8
DEFAULT_LAYER
 10
3913.482119833494
 20
3748.899883973741
 30
0.0
  0
VERTEX
  5
5CB
  8
DEFAULT_LAYER
 10
3913.531402983494
 20
3748.708214903741
 30
0.0
  0
VERTEX
  5
5CC
  8
DEFAULT_LAYER
 10
3913.598656853494
 20
3748.524463473741
 30
0.0
  0
VERTEX
  5
5CD
  8
DEFAULT_LAYER
 10
3913.682876143494
 20
3748.349634963741
 30
0.0
  0
VERTEX
  5
5CE
  8
DEFAULT_LAYER
 10
3913.783055533494
 20
3748.184734713741
 30
0.0
  0
VERTEX
  5
5CF
  8
DEFAULT_LAYER
 10
3913.898189713494
 20
3748.030768003741
 30
0.0
  0
VERTEX
  5
5D0
  8
DEFAULT_LAYER
 10
3914.027273383494
 20
3747.888740163741
 30
0.0
  0
VERTEX
  5
5D1
  8
DEFAULT_LAYER
 10
3914.169301223494
 20
3747.759656503741
 30
0.0
  0
VERTEX
  5
5D2
  8
DEFAULT_LAYER
 10
3914.323267923494
 20
3747.644522313741
 30
0.0
  0
VERTEX
  5
5D3
  8
DEFAULT_LAYER
 10
3914.488168183494
 20
3747.544342923741
 30
0.0
  0
VERTEX
  5
5D4
  8
DEFAULT_LAYER
 10
3914.662996683494
 20
3747.460123643741
 30
0.0
  0
VERTEX
  5
5D5
  8
DEFAULT_LAYER
 10
3914.846748123494
 20
3747.392869773741
 30
0.0
  0
VERTEX
  5
5D6
  8
DEFAULT_LAYER
 10
3915.038417183494
 20
3747.343586623741
 30
0.0
  0
VERTEX
  5
5D7
  8
DEFAULT_LAYER
 10
3915.236998563494
 20
3747.313279503741
 30
0.0
  0
VERTEX
  5
5D8
  8
DEFAULT_LAYER
 10
3915.441486943494
 20
3747.302953723741
 30
0.0
  0
VERTEX
  5
5D9
  8
DEFAULT_LAYER
 10
3915.645975323494
 20
3747.313279503741
 30
0.0
  0
VERTEX
  5
5DA
  8
DEFAULT_LAYER
 10
3915.844556703494
 20
3747.343586623741
 30
0.0
  0
VERTEX
  5
5DB
  8
DEFAULT_LAYER
 10
3916.036225763494
 20
3747.392869773741
 30
0.0
  0
VERTEX
  5
5DC
  8
DEFAULT_LAYER
 10
3916.219977203494
 20
3747.460123643741
 30
0.0
  0
VERTEX
  5
5DD
  8
DEFAULT_LAYER
 10
3916.394805703494
 20
3747.544342923741
 30
0.0
  0
VERTEX
  5
5DE
  8
DEFAULT_LAYER
 10
3916.559705963494
 20
3747.644522313741
 30
0.0
  0
VERTEX
  5
5DF
  8
DEFAULT_LAYER
 10
3916.713672663494
 20
3747.759656503741
 30
0.0
  0
VERTEX
  5
5E0
  8
DEFAULT_LAYER
 10
3916.855700503494
 20
3747.888740163741
 30
0.0
  0
VERTEX
  5
5E1
  8
DEFAULT_LAYER
 10
3916.984784173494
 20
3748.030768003741
 30
0.0
  0
VERTEX
  5
5E2
  8
DEFAULT_LAYER
 10
3917.099918353494
 20
3748.184734713741
 30
0.0
  0
VERTEX
  5
5E3
  8
DEFAULT_LAYER
 10
3917.200097743494
 20
3748.349634963741
 30
0.0
  0
VERTEX
  5
5E4
  8
DEFAULT_LAYER
 10
3917.284317023494
 20
3748.524463473741
 30
0.0
  0
VERTEX
  5
5E5
  8
DEFAULT_LAYER
 10
3917.351570903494
 20
3748.708214903741
 30
0.0
  0
VERTEX
  5
5E6
  8
DEFAULT_LAYER
 10
3917.400854053494
 20
3748.899883973741
 30
0.0
  0
VERTEX
  5
5E7
  8
DEFAULT_LAYER
 10
3917.431161163494
 20
3749.098465343741
 30
0.0
  0
VERTEX
  5
5E8
  8
DEFAULT_LAYER
 10
3917.441486943494
 20
3749.302953723741
 30
0.0
  0
VERTEX
  5
5E9
  8
DEFAULT_LAYER
 10
3917.431161163494
 20
3749.507442113741
 30
0.0
  0
VERTEX
  5
5EA
  8
DEFAULT_LAYER
 10
3917.400854053494
 20
3749.706023483741
 30
0.0
  0
VERTEX
  5
5EB
  8
DEFAULT_LAYER
 10
3917.351570903494
 20
3749.897692553741
 30
0.0
  0
VERTEX
  5
5EC
  8
DEFAULT_LAYER
 10
3917.284317023494
 20
3750.08144398374
 30
0.0
  0
VERTEX
  5
5ED
  8
DEFAULT_LAYER
 10
3917.200097743494
 20
3750.256272483741
 30
0.0
  0
VERTEX
  5
5EE
  8
DEFAULT_LAYER
 10
3917.099918353494
 20
3750.42117274374
 30
0.0
  0
VERTEX
  5
5EF
  8
DEFAULT_LAYER
 10
3916.984784173494
 20
3750.575139453741
 30
0.0
  0
VERTEX
  5
5F0
  8
DEFAULT_LAYER
 10
3916.855700503494
 20
3750.717167293741
 30
0.0
  0
VERTEX
  5
5F1
  8
DEFAULT_LAYER
 10
3916.713672663494
 20
3750.846250953741
 30
0.0
  0
VERTEX
  5
5F2
  8
DEFAULT_LAYER
 10
3916.559705963494
 20
3750.961385143741
 30
0.0
  0
VERTEX
  5
5F3
  8
DEFAULT_LAYER
 10
3916.394805703494
 20
3751.061564523741
 30
0.0
  0
VERTEX
  5
5F4
  8
DEFAULT_LAYER
 10
3916.219977203494
 20
3751.145783813741
 30
0.0
  0
VERTEX
  5
5F5
  8
DEFAULT_LAYER
 10
3916.036225763494
 20
3751.213037683741
 30
0.0
  0
VERTEX
  5
5F6
  8
DEFAULT_LAYER
 10
3915.844556703494
 20
3751.262320833741
 30
0.0
  0
VERTEX
  5
5F7
  8
DEFAULT_LAYER
 10
3915.645975323494
 20
3751.292627953741
 30
0.0
  0
VERTEX
  5
5F8
  8
DEFAULT_LAYER
 10
3915.441486943494
 20
3751.302953723741
 30
0.0
  0
VERTEX
  5
5F9
  8
DEFAULT_LAYER
 10
3915.236998563494
 20
3751.292627953741
 30
0.0
  0
VERTEX
  5
5FA
  8
DEFAULT_LAYER
 10
3915.038417183494
 20
3751.262320833741
 30
0.0
  0
VERTEX
  5
5FB
  8
DEFAULT_LAYER
 10
3914.846748123494
 20
3751.213037683741
 30
0.0
  0
VERTEX
  5
5FC
  8
DEFAULT_LAYER
 10
3914.662996683494
 20
3751.145783813741
 30
0.0
  0
VERTEX
  5
5FD
  8
DEFAULT_LAYER
 10
3914.488168183494
 20
3751.061564523741
 30
0.0
  0
VERTEX
  5
5FE
  8
DEFAULT_LAYER
 10
3914.323267923494
 20
3750.961385143741
 30
0.0
  0
VERTEX
  5
5FF
  8
DEFAULT_LAYER
 10
3914.169301223494
 20
3750.846250953741
 30
0.0
  0
VERTEX
  5
600
  8
DEFAULT_LAYER
 10
3914.027273383494
 20
3750.717167293741
 30
0.0
  0
VERTEX
  5
601
  8
DEFAULT_LAYER
 10
3913.898189713494
 20
3750.575139453741
 30
0.0
  0
VERTEX
  5
602
  8
DEFAULT_LAYER
 10
3913.783055533494
 20
3750.42117274374
 30
0.0
  0
VERTEX
  5
603
  8
DEFAULT_LAYER
 10
3913.682876143494
 20
3750.256272483741
 30
0.0
  0
VERTEX
  5
604
  8
DEFAULT_LAYER
 10
3913.598656853494
 20
3750.08144398374
 30
0.0
  0
VERTEX
  5
605
  8
DEFAULT_LAYER
 10
3913.531402983494
 20
3749.897692553741
 30
0.0
  0
VERTEX
  5
606
  8
DEFAULT_LAYER
 10
3913.482119833494
 20
3749.706023483741
 30
0.0
  0
VERTEX
  5
607
  8
DEFAULT_LAYER
 10
3913.451812713494
 20
3749.507442113741
 30
0.0
  0
SEQEND
  5
7E9
  8
DEFAULT_LAYER
  0
POLYLINE
  5
D7
  8
DEFAULT_LAYER
 66
     1
 10
0.0
 20
0.0
 30
0.0
 70
     1
  0
VERTEX
  5
608
  8
DEFAULT_LAYER
 10
2870.107606652242
 20
3452.481176166248
 30
0.0
  0
VERTEX
  5
609
  8
DEFAULT_LAYER
 10
2883.107606652242
 20
3452.481176166248
 30
0.0
  0
VERTEX
  5
60A
  8
DEFAULT_LAYER
 10
2883.107606652242
 20
3483.481176166248
 30
0.0
  0
VERTEX
  5
60B
  8
DEFAULT_LAYER
 10
2870.107606652242
 20
3483.481176166248
 30
0.0
  0
SEQEND
  5
7EA
  8
DEFAULT_LAYER
  0
POLYLINE
  5
D8
  8
DEFAULT_LAYER
 66
     1
 10
0.0
 20
0.0
 30
0.0
 70
     1
  0
VERTEX
  5
60C
  8
DEFAULT_LAYER
 10
3953.033912158354
 20
3452.295657030579
 30
0.0
  0
VERTEX
  5
60D
  8
DEFAULT_LAYER
 10
3966.033912158354
 20
3452.295657030579
 30
0.0
  0
VERTEX
  5
60E
  8
DEFAULT_LAYER
 10
3966.033912158354
 20
3483.295657030579
 30
0.0
  0
VERTEX
  5
60F
  8
DEFAULT_LAYER
 10
3953.033912158354
 20
3483.295657030579
 30
0.0
  0
SEQEND
  5
7EB
  8
DEFAULT_LAYER
  0
POLYLINE
  5
D9
  8
DEFAULT_LAYER
 66
     1
 10
0.0
 20
0.0
 30
0.0
 70
     1
  0
VERTEX
  5
610
  8
DEFAULT_LAYER
 10
3952.963519056625
 20
3836.101892524992
 30
0.0
  0
VERTEX
  5
611
  8
DEFAULT_LAYER
 10
3965.963519056625
 20
3836.101892524992
 30
0.0
  0
VERTEX
  5
612
  8
DEFAULT_LAYER
 10
3965.963519056625
 20
3867.101892524992
 30
0.0
  0
VERTEX
  5
613
  8
DEFAULT_LAYER
 10
3952.963519056625
 20
3867.101892524992
 30
0.0
  0
SEQEND
  5
7EC
  8
DEFAULT_LAYER
  0
POLYLINE
  5
DA
  8
DEFAULT_LAYER
 66
     1
 10
0.0
 20
0.0
 30
0.0
 70
     1
  0
VERTEX
  5
614
  8
DEFAULT_LAYER
 10
2826.143478477778
 20
4199.134597874962
 30
0.0
  0
VERTEX
  5
615
  8
DEFAULT_LAYER
 10
2839.143478477778
 20
4199.134597874962
 30
0.0
  0
VERTEX
  5
616
  8
DEFAULT_LAYER
 10
2839.143478477778
 20
4230.134597874962
 30
0.0
  0
VERTEX
  5
617
  8
DEFAULT_LAYER
 10
2826.143478477778
 20
4230.134597874962
 30
0.0
  0
SEQEND
  5
7ED
  8
DEFAULT_LAYER
  0
POLYLINE
  5
DB
  8
DEFAULT_LAYER
 66
     1
 10
0.0
 20
0.0
 30
0.0
 70
     1
  0
VERTEX
  5
618
  8
DEFAULT_LAYER
 10
2870.15349353716
 20
3835.185176796694
 30
0.0
  0
VERTEX
  5
619
  8
DEFAULT_LAYER
 10
2883.15349353716
 20
3835.185176796694
 30
0.0
  0
VERTEX
  5
61A
  8
DEFAULT_LAYER
 10
2883.15349353716
 20
3866.185176796694
 30
0.0
  0
VERTEX
  5
61B
  8
DEFAULT_LAYER
 10
2870.15349353716
 20
3866.185176796694
 30
0.0
  0
SEQEND
  5
7EE
  8
DEFAULT_LAYER
  0
POLYLINE
  5
DC
  8
DEFAULT_LAYER
 66
     1
 10
0.0
 20
0.0
 30
0.0
 70
     1
  0
VERTEX
  5
61C
  8
DEFAULT_LAYER
 10
2605.523027213494
 20
4150.355602063741
 30
0.0
  0
VERTEX
  5
61D
  8
DEFAULT_LAYER
 10
2809.523027213494
 20
4150.355602063741
 30
0.0
  0
VERTEX
  5
61E
  8
DEFAULT_LAYER
 10
2809.523027213494
 20
4162.75560206374
 30
0.0
  0
VERTEX
  5
61F
  8
DEFAULT_LAYER
 10
2605.523027213494
 20
4162.75560206374
 30
0.0
  0
SEQEND
  5
7EF
  8
DEFAULT_LAYER
  0
POLYLINE
  5
DD
  8
DEFAULT_LAYER
 66
     1
 10
0.0
 20
0.0
 30
0.0
 70
     1
  0
VERTEX
  5
620
  8
DEFAULT_LAYER
 10
2605.523027213494
 20
4150.355602063741
 30
0.0
  0
VERTEX
  5
621
  8
DEFAULT_LAYER
 10
2809.523027213494
 20
4150.355602063741
 30
0.0
  0
VERTEX
  5
622
  8
DEFAULT_LAYER
 10
2809.523027213494
 20
4162.75560206374
 30
0.0
  0
VERTEX
  5
623
  8
DEFAULT_LAYER
 10
2605.523027213494
 20
4162.75560206374
 30
0.0
  0
SEQEND
  5
7F0
  8
DEFAULT_LAYER
  0
POLYLINE
  5
DE
  8
DEFAULT_LAYER
 66
     1
 10
0.0
 20
0.0
 30
0.0
 70
     1
  0
VERTEX
  5
624
  8
DEFAULT_LAYER
 10
2633.995027213494
 20
3743.422602063741
 30
0.0
  0
VERTEX
  5
625
  8
DEFAULT_LAYER
 10
2837.995027213494
 20
3743.422602063741
 30
0.0
  0
VERTEX
  5
626
  8
DEFAULT_LAYER
 10
2837.995027213494
 20
3755.822602063741
 30
0.0
  0
VERTEX
  5
627
  8
DEFAULT_LAYER
 10
2633.995027213494
 20
3755.822602063741
 30
0.0
  0
SEQEND
  5
7F1
  8
DEFAULT_LAYER
  0
POLYLINE
  5
DF
  8
DEFAULT_LAYER
 66
     1
 10
0.0
 20
0.0
 30
0.0
 70
     1
  0
VERTEX
  5
628
  8
DEFAULT_LAYER
 10
3691.425027213494
 20
3359.573602063741
 30
0.0
  0
VERTEX
  5
629
  8
DEFAULT_LAYER
 10
3877.387027213494
 20
3359.573602063741
 30
0.0
  0
VERTEX
  5
62A
  8
DEFAULT_LAYER
 10
3877.387027213494
 20
3371.973602063741
 30
0.0
  0
VERTEX
  5
62B
  8
DEFAULT_LAYER
 10
3691.425027213494
 20
3371.973602063741
 30
0.0
  0
SEQEND
  5
7F2
  8
DEFAULT_LAYER
  0
POLYLINE
  5
E0
  8
DEFAULT_LAYER
 66
     1
 10
0.0
 20
0.0
 30
0.0
 70
     1
  0
VERTEX
  5
62C
  8
DEFAULT_LAYER
 10
3691.425027213494
 20
3743.397602063741
 30
0.0
  0
VERTEX
  5
62D
  8
DEFAULT_LAYER
 10
3877.387027213494
 20
3743.397602063741
 30
0.0
  0
VERTEX
  5
62E
  8
DEFAULT_LAYER
 10
3877.387027213494
 20
3755.797602063741
 30
0.0
  0
VERTEX
  5
62F
  8
DEFAULT_LAYER
 10
3691.425027213494
 20
3755.797602063741
 30
0.0
  0
SEQEND
  5
7F3
  8
DEFAULT_LAYER
  0
POLYLINE
  5
E1
  8
DEFAULT_LAYER
 66
     1
 10
0.0
 20
0.0
 30
0.0
 70
     1
  0
VERTEX
  5
630
  8
DEFAULT_LAYER
 10
3675.571527213494
 20
4150.554602063741
 30
0.0
  0
VERTEX
  5
631
  8
DEFAULT_LAYER
 10
3861.452527213494
 20
4150.554602063741
 30
0.0
  0
VERTEX
  5
632
  8
DEFAULT_LAYER
 10
3861.452527213494
 20
4162.954602063741
 30
0.0
  0
VERTEX
  5
633
  8
DEFAULT_LAYER
 10
3675.571527213494
 20
4162.954602063741
 30
0.0
  0
SEQEND
  5
7F4
  8
DEFAULT_LAYER
  0
POLYLINE
  5
E2
  8
DEFAULT_LAYER
 66
     1
 10
0.0
 20
0.0
 30
0.0
 70
     1
  0
VERTEX
  5
634
  8
DEFAULT_LAYER
 10
2633.995027213494
 20
3360.715602063741
 30
0.0
  0
VERTEX
  5
635
  8
DEFAULT_LAYER
 10
2837.995027213494
 20
3360.715602063741
 30
0.0
  0
VERTEX
  5
636
  8
DEFAULT_LAYER
 10
2837.995027213494
 20
3373.115602063741
 30
0.0
  0
VERTEX
  5
637
  8
DEFAULT_LAYER
 10
2633.995027213494
 20
3373.115602063741
 30
0.0
  0
SEQEND
  5
7F5
  8
DEFAULT_LAYER
  0
POLYLINE
  5
E3
  8
DEFAULT_LAYER
 66
     1
 10
0.0
 20
0.0
 30
0.0
 70
     1
  0
VERTEX
  5
638
  8
DEFAULT_LAYER
 10
3906.653830489968
 20
4199.859161414449
 30
0.0
  0
VERTEX
  5
639
  8
DEFAULT_LAYER
 10
3919.653830489968
 20
4199.859161414449
 30
0.0
  0
VERTEX
  5
63A
  8
DEFAULT_LAYER
 10
3919.653830489968
 20
4230.859161414449
 30
0.0
  0
VERTEX
  5
63B
  8
DEFAULT_LAYER
 10
3906.653830489968
 20
4230.859161414449
 30
0.0
  0
SEQEND
  5
7F6
  8
DEFAULT_LAYER
  0
POLYLINE
  5
E4
  8
DEFAULT_LAYER
 66
     1
 10
0.0
 20
0.0
 30
0.0
 70
     1
  0
VERTEX
  5
63C
  8
DEFAULT_LAYER
 10
3764.240935633494
 20
4274.135669273741
 30
0.0
  0
VERTEX
  5
63D
  8
DEFAULT_LAYER
 10
3757.097185633494
 20
4299.53566927374
 30
0.0
  0
VERTEX
  5
63E
  8
DEFAULT_LAYER
 10
3765.828435633494
 20
4299.53566927374
 30
0.0
  0
VERTEX
  5
63F
  8
DEFAULT_LAYER
 10
3768.209685633494
 20
4298.741919273741
 30
0.0
  0
VERTEX
  5
640
  8
DEFAULT_LAYER
 10
3770.590935633494
 20
4296.360669273741
 30
0.0
  0
VERTEX
  5
641
  8
DEFAULT_LAYER
 10
3771.384685633494
 20
4293.979419273741
 30
0.0
  0
VERTEX
  5
642
  8
DEFAULT_LAYER
 10
3771.384685633494
 20
4291.59816927374
 30
0.0
  0
VERTEX
  5
643
  8
DEFAULT_LAYER
 10
3770.590935633494
 20
4289.21691927374
 30
0.0
  0
VERTEX
  5
644
  8
DEFAULT_LAYER
 10
3768.209685633494
 20
4286.835669273741
 30
0.0
  0
VERTEX
  5
645
  8
DEFAULT_LAYER
 10
3765.828435633494
 20
4286.041919273741
 30
0.0
  0
VERTEX
  5
646
  8
DEFAULT_LAYER
 10
3761.462810633494
 20
4286.041919273741
 30
0.0
  0
VERTEX
  5
647
  8
DEFAULT_LAYER
 10
3769.003435633494
 20
4285.24816927374
 30
0.0
  0
VERTEX
  5
648
  8
DEFAULT_LAYER
 10
3770.590935633494
 20
4282.866919273741
 30
0.0
  0
VERTEX
  5
649
  8
DEFAULT_LAYER
 10
3770.590935633494
 20
4275.72316927374
 30
0.0
  0
SEQEND
  5
7F7
  8
DEFAULT_LAYER
  0
POLYLINE
  5
E5
  8
DEFAULT_LAYER
 66
     1
 10
0.0
 20
0.0
 30
0.0
 70
     1
  0
VERTEX
  5
64A
  8
DEFAULT_LAYER
 10
2603.355723093494
 20
4289.650828473741
 30
0.0
  0
VERTEX
  5
64B
  8
DEFAULT_LAYER
 10
2597.799473093494
 20
4308.303953473741
 30
0.0
  0
VERTEX
  5
64C
  8
DEFAULT_LAYER
 10
2604.943223093494
 20
4302.350828473741
 30
0.0
  0
SEQEND
  5
7F8
  8
DEFAULT_LAYER
  0
POLYLINE
  5
E6
  8
DEFAULT_LAYER
 66
     1
 10
0.0
 20
0.0
 30
0.0
 70
     1
  0
VERTEX
  5
64D
  8
DEFAULT_LAYER
 10
3283.508700713497
 20
4149.893171580541
 30
0.0
  0
VERTEX
  5
64E
  8
DEFAULT_LAYER
 10
3283.508700713504
 20
4162.292627233741
 30
0.0
  0
VERTEX
  5
64F
  8
DEFAULT_LAYER
 10
3422.910450264259
 20
4162.292627233741
 30
0.0
  0
VERTEX
  5
650
  8
DEFAULT_LAYER
 10
3422.910450264258
 20
4163.805833476408
 30
0.0
  0
VERTEX
  5
651
  8
DEFAULT_LAYER
 10
3422.916506303494
 20
4163.06872341374
 30
0.0
  0
VERTEX
  5
652
  8
DEFAULT_LAYER
 10
3422.916506303494
 20
4244.079640173741
 30
0.0
  0
VERTEX
  5
653
  8
DEFAULT_LAYER
 10
3454.376043063494
 20
4244.079640173741
 30
0.0
  0
VERTEX
  5
654
  8
DEFAULT_LAYER
 10
3454.225291393494
 20
4244.567839393741
 30
0.0
  0
VERTEX
  5
655
  8
DEFAULT_LAYER
 10
3452.765726453494
 20
4254.86244812374
 30
0.0
  0
VERTEX
  5
656
  8
DEFAULT_LAYER
 10
3449.305468053494
 20
4266.015420403741
 30
0.0
  0
VERTEX
  5
657
  8
DEFAULT_LAYER
 10
3445.788952273494
 20
4277.282468283741
 30
0.0
  0
VERTEX
  5
658
  8
DEFAULT_LAYER
 10
3442.295477773494
 20
4288.421253423741
 30
0.0
  0
VERTEX
  5
659
  8
DEFAULT_LAYER
 10
3435.694847223494
 20
4309.344682263741
 30
0.0
  0
VERTEX
  5
65A
  8
DEFAULT_LAYER
 10
3430.137965643494
 20
4326.847000383741
 30
0.0
  0
VERTEX
  5
65B
  8
DEFAULT_LAYER
 10
3426.259222283494
 20
4338.989501283741
 30
0.0
  0
VERTEX
  5
65C
  8
DEFAULT_LAYER
 10
3424.693006393494
 20
4343.833478413741
 30
0.0
  0
VERTEX
  5
65D
  8
DEFAULT_LAYER
 10
3424.273998683494
 20
4344.92188381374
 30
0.0
  0
VERTEX
  5
65E
  8
DEFAULT_LAYER
 10
3423.823520183494
 20
4345.998069053741
 30
0.0
  0
VERTEX
  5
65F
  8
DEFAULT_LAYER
 10
3422.903680703494
 20
4348.143107453741
 30
0.0
  0
VERTEX
  5
660
  8
DEFAULT_LAYER
 10
3396.813614623494
 20
4354.929263743741
 30
0.0
  0
VERTEX
  5
661
  8
DEFAULT_LAYER
 10
3154.268247533494
 20
4354.929263743741
 30
0.0
 42
0.41421356
  0
VERTEX
  5
662
  8
DEFAULT_LAYER
 10
3104.268247533494
 20
4304.929263743741
 30
0.0
  0
VERTEX
  5
663
  8
DEFAULT_LAYER
 10
3104.268247533494
 20
4150.022549683741
 30
0.0
  0
VERTEX
  5
664
  8
DEFAULT_LAYER
 10
3128.724976608494
 20
4150.022549683741
 30
0.0
  0
VERTEX
  5
665
  8
DEFAULT_LAYER
 10
3154.668247533494
 20
4150.022549683741
 30
0.0
  0
VERTEX
  5
666
  8
DEFAULT_LAYER
 10
3154.668247533494
 20
4124.622549683741
 30
0.0
  0
VERTEX
  5
667
  8
DEFAULT_LAYER
 10
3104.268247533494
 20
4124.622549683741
 30
0.0
  0
VERTEX
  5
668
  8
DEFAULT_LAYER
 10
3104.268247533494
 20
3741.817494053741
 30
0.0
  0
VERTEX
  5
669
  8
DEFAULT_LAYER
 10
3128.724976608494
 20
3741.817494053741
 30
0.0
  0
VERTEX
  5
66A
  8
DEFAULT_LAYER
 10
3154.668247533494
 20
3741.817494053741
 30
0.0
  0
VERTEX
  5
66B
  8
DEFAULT_LAYER
 10
3154.668247533494
 20
3716.41749405374
 30
0.0
  0
VERTEX
  5
66C
  8
DEFAULT_LAYER
 10
3104.268247533494
 20
3716.417494053741
 30
0.0
  0
VERTEX
  5
66D
  8
DEFAULT_LAYER
 10
3104.268247533494
 20
3359.782296783741
 30
0.0
  0
VERTEX
  5
66E
  8
DEFAULT_LAYER
 10
3128.724976608494
 20
3359.782296783741
 30
0.0
  0
VERTEX
  5
66F
  8
DEFAULT_LAYER
 10
3154.668247533494
 20
3359.782296783741
 30
0.0
  0
VERTEX
  5
670
  8
DEFAULT_LAYER
 10
3154.668247533494
 20
3334.382296783741
 30
0.0
  0
VERTEX
  5
671
  8
DEFAULT_LAYER
 10
3104.268247533494
 20
3334.382296783741
 30
0.0
  0
VERTEX
  5
672
  8
DEFAULT_LAYER
 10
3104.268247533494
 20
3009.29719160374
 30
0.0
  0
VERTEX
  5
673
  8
DEFAULT_LAYER
 10
3533.088389243494
 20
3009.29719160374
 30
0.0
  0
VERTEX
  5
674
  8
DEFAULT_LAYER
 10
3513.125585073494
 20
3338.699754433741
 30
0.0
  0
VERTEX
  5
675
  8
DEFAULT_LAYER
 10
3511.934951213494
 20
3359.799000913741
 30
0.0
  0
VERTEX
  5
676
  8
DEFAULT_LAYER
 10
3294.207692579369
 20
3359.833180638488
 30
0.0
  0
VERTEX
  5
677
  8
DEFAULT_LAYER
 10
3294.207692579369
 20
3372.850606003741
 30
0.0
  0
VERTEX
  5
678
  8
DEFAULT_LAYER
 10
3466.913669533494
 20
3372.850606003741
 30
0.0
  0
VERTEX
  5
679
  8
DEFAULT_LAYER
 10
3466.913669533494
 20
3500.029699313741
 30
0.0
  0
VERTEX
  5
67A
  8
DEFAULT_LAYER
 10
3505.832417993494
 20
3500.029699313741
 30
0.0
  0
VERTEX
  5
67B
  8
DEFAULT_LAYER
 10
3505.786654323494
 20
3500.965855173741
 30
0.0
  0
VERTEX
  5
67C
  8
DEFAULT_LAYER
 10
3506.020541663494
 20
3646.965884403741
 30
0.0
  0
VERTEX
  5
67D
  8
DEFAULT_LAYER
 10
3509.514805563494
 20
3721.278394753741
 30
0.0
  0
VERTEX
  5
67E
  8
DEFAULT_LAYER
 10
3509.815883783494
 20
3724.020156893741
 30
0.0
  0
VERTEX
  5
67F
  8
DEFAULT_LAYER
 10
3510.135009833494
 20
3726.762022983741
 30
0.0
  0
VERTEX
  5
680
  8
DEFAULT_LAYER
 10
3510.470640703494
 20
3729.504038233741
 30
0.0
  0
VERTEX
  5
681
  8
DEFAULT_LAYER
 10
3510.821233393494
 20
3732.246247833741
 30
0.0
  0
VERTEX
  5
682
  8
DEFAULT_LAYER
 10
3511.561132183494
 20
3737.73143096374
 30
0.0
  0
VERTEX
  5
683
  8
DEFAULT_LAYER
 10
3512.304870343494
 20
3742.954632923741
 30
0.0
  0
VERTEX
  5
684
  8
DEFAULT_LAYER
 10
3294.739735427333
 20
3742.986845614875
 30
0.0
  0
VERTEX
  5
685
  8
DEFAULT_LAYER
 10
3294.739735427333
 20
3756.004173283741
 30
0.0
  0
VERTEX
  5
686
  8
DEFAULT_LAYER
 10
3466.913669533494
 20
3756.004173283741
 30
0.0
  0
VERTEX
  5
687
  8
DEFAULT_LAYER
 10
3466.913669533494
 20
3903.310262223741
 30
0.0
  0
VERTEX
  5
688
  8
DEFAULT_LAYER
 10
3520.055259243494
 20
3903.310262223741
 30
0.0
  0
VERTEX
  5
689
  8
DEFAULT_LAYER
 10
3519.909548223494
 20
3906.909363313741
 30
0.0
  0
VERTEX
  5
68A
  8
DEFAULT_LAYER
 10
3519.690547023494
 20
3911.864636403741
 30
0.0
  0
VERTEX
  5
68B
  8
DEFAULT_LAYER
 10
3519.452869403494
 20
3916.819049763741
 30
0.0
  0
VERTEX
  5
68C
  8
DEFAULT_LAYER
 10
3519.210839013494
 20
3921.472467323741
 30
0.0
  0
VERTEX
  5
68D
  8
DEFAULT_LAYER
 10
3518.950084833494
 20
3926.124872823741
 30
0.0
  0
VERTEX
  5
68E
  8
DEFAULT_LAYER
 10
3518.602623193494
 20
3931.853292693741
 30
0.0
  0
VERTEX
  5
68F
  8
DEFAULT_LAYER
 10
3518.223354313494
 20
3937.579694193741
 30
0.0
  0
VERTEX
  5
690
  8
DEFAULT_LAYER
 10
3517.845827593494
 20
3942.823087313741
 30
0.0
  0
VERTEX
  5
691
  8
DEFAULT_LAYER
 10
3517.464580593494
 20
3947.725840483741
 30
0.0
  0
VERTEX
  5
692
  8
DEFAULT_LAYER
 10
3517.040560283494
 20
3952.625131513741
 30
0.0
  0
VERTEX
  5
693
  8
DEFAULT_LAYER
 10
3516.612188263494
 20
3957.19776046374
 30
0.0
  0
VERTEX
  5
694
  8
DEFAULT_LAYER
 10
3516.160945013494
 20
3961.768251703741
 30
0.0
  0
VERTEX
  5
695
  8
DEFAULT_LAYER
 10
3515.467843913494
 20
3968.425242903741
 30
0.0
  0
VERTEX
  5
696
  8
DEFAULT_LAYER
 10
3514.741476323494
 20
3975.07837168374
 30
0.0
  0
VERTEX
  5
697
  8
DEFAULT_LAYER
 10
3513.986860823494
 20
3981.728442143741
 30
0.0
  0
VERTEX
  5
698
  8
DEFAULT_LAYER
 10
3513.209016003494
 20
3988.376258373741
 30
0.0
  0
VERTEX
  5
699
  8
DEFAULT_LAYER
 10
3512.473115913494
 20
3994.508414803741
 30
0.0
  0
VERTEX
  5
69A
  8
DEFAULT_LAYER
 10
3511.720906783494
 20
4000.637706363741
 30
0.0
  0
VERTEX
  5
69B
  8
DEFAULT_LAYER
 10
3481.546373663494
 20
4149.892627233741
 30
0.0
  0
VERTEX
  5
69C
  8
DEFAULT_LAYER
 10
3283.497132059428
 20
4149.892627233741
 30
0.0
  0
SEQEND
  5
7F9
  8
DEFAULT_LAYER
  0
POLYLINE
  5
E7
  8
DEFAULT_LAYER
 66
     1
 10
0.0
 20
0.0
 30
0.0
 70
     1
  0
VERTEX
  5
69D
  8
DEFAULT_LAYER
 10
3264.66927417188
 20
1353.943246740035
 30
0.0
  0
VERTEX
  5
69E
  8
DEFAULT_LAYER
 10
3258.15979061376
 20
1353.97036998007
 30
0.0
  0
VERTEX
  5
69F
  8
DEFAULT_LAYER
 10
3274.75491707221
 20
1353.970369980069
 30
0.0
  0
VERTEX
  5
6A0
  8
DEFAULT_LAYER
 10
3274.75491707221
 20
1545.059855099999
 30
0.0
  0
VERTEX
  5
6A1
  8
DEFAULT_LAYER
 10
3287.154917072211
 20
1545.059855099999
 30
0.0
  0
VERTEX
  5
6A2
  8
DEFAULT_LAYER
 10
3287.15491707221
 20
1353.970369980069
 30
0.0
  0
VERTEX
  5
6A3
  8
DEFAULT_LAYER
 10
3302.537089509732
 20
1353.97036998007
 30
0.0
  0
VERTEX
  5
6A4
  8
DEFAULT_LAYER
 10
3296.357923619866
 20
1353.943246740035
 30
0.0
  0
VERTEX
  5
6A5
  8
DEFAULT_LAYER
 10
3290.17875773
 20
1353.9161235
 30
0.0
  0
VERTEX
  5
6A6
  8
DEFAULT_LAYER
 10
4335.13501445
 20
1353.9161235
 30
0.0
  0
VERTEX
  5
6A7
  8
DEFAULT_LAYER
 10
4335.13501445
 20
1460.78348735
 30
0.0
  0
VERTEX
  5
6A8
  8
DEFAULT_LAYER
 10
4347.13501445
 20
1460.783487350009
 30
0.0
  0
VERTEX
  5
6A9
  8
DEFAULT_LAYER
 10
4347.135014449998
 20
1639.42914365
 30
0.0
  0
VERTEX
  5
6AA
  8
DEFAULT_LAYER
 10
4335.13501445
 20
1639.42914365
 30
0.0
  0
VERTEX
  5
6AB
  8
DEFAULT_LAYER
 10
4335.13501445
 20
1779.8707327
 30
0.0
  0
VERTEX
  5
6AC
  8
DEFAULT_LAYER
 10
4105.147765510001
 20
1780.79852925
 30
0.0
  0
VERTEX
  5
6AD
  8
DEFAULT_LAYER
 10
3905.14776551
 20
1775.79852925
 30
0.0
  0
VERTEX
  5
6AE
  8
DEFAULT_LAYER
 10
3705.14776551
 20
1759.79852925
 30
0.0
  0
VERTEX
  5
6AF
  8
DEFAULT_LAYER
 10
3505.14776551
 20
1745.79852925
 30
0.0
  0
VERTEX
  5
6B0
  8
DEFAULT_LAYER
 10
3305.14776551
 20
1719.79852925
 30
0.0
  0
VERTEX
  5
6B1
  8
DEFAULT_LAYER
 10
3285.14776551
 20
1745.79852925
 30
0.0
  0
VERTEX
  5
6B2
  8
DEFAULT_LAYER
 10
3105.14776551
 20
1755.79852925
 30
0.0
  0
VERTEX
  5
6B3
  8
DEFAULT_LAYER
 10
2905.14776551
 20
1769.79852925
 30
0.0
  0
VERTEX
  5
6B4
  8
DEFAULT_LAYER
 10
2705.14776551
 20
1780.79852925
 30
0.0
  0
VERTEX
  5
6B5
  8
DEFAULT_LAYER
 10
2505.14776551
 20
1785.79852925
 30
0.0
  0
VERTEX
  5
6B6
  8
DEFAULT_LAYER
 10
2305.13501445
 20
1792.95609735
 30
0.0
  0
VERTEX
  5
6B7
  8
DEFAULT_LAYER
 10
2305.13501445
 20
1682.78487208
 30
0.0
  0
VERTEX
  5
6B8
  8
DEFAULT_LAYER
 10
2293.135014449992
 20
1682.784872080001
 30
0.0
  0
VERTEX
  5
6B9
  8
DEFAULT_LAYER
 10
2293.135014449992
 20
1482.784901779989
 30
0.0
  0
VERTEX
  5
6BA
  8
DEFAULT_LAYER
 10
2305.13501445
 20
1482.78490178
 30
0.0
  0
VERTEX
  5
6BB
  8
DEFAULT_LAYER
 10
2305.13501445
 20
1353.9161235
 30
0.0
  0
VERTEX
  5
6BC
  8
DEFAULT_LAYER
 10
3271.17875773
 20
1353.9161235
 30
0.0
  0
SEQEND
  5
7FA
  8
DEFAULT_LAYER
  0
POLYLINE
  5
E8
  8
DEFAULT_LAYER
 66
     1
 10
0.0
 20
0.0
 30
0.0
 70
     1
  0
VERTEX
  5
6BD
  8
DEFAULT_LAYER
 10
3278.768692300055
 20
2404.3275928
 30
0.0
  0
VERTEX
  5
6BE
  8
DEFAULT_LAYER
 10
3303.114240175831
 20
2404.327592799998
 30
0.0
  0
VERTEX
  5
6BF
  8
DEFAULT_LAYER
 10
3303.11424017583
 20
2580.100092770002
 30
0.0
  0
VERTEX
  5
6C0
  8
DEFAULT_LAYER
 10
3315.51424017583
 20
2580.100092770002
 30
0.0
  0
VERTEX
  5
6C1
  8
DEFAULT_LAYER
 10
3315.514240175829
 20
2404.327592799998
 30
0.0
  0
VERTEX
  5
6C2
  8
DEFAULT_LAYER
 10
3339.859788051606
 20
2404.3275928
 30
0.0
  0
VERTEX
  5
6C3
  8
DEFAULT_LAYER
 10
4363.76528684
 20
2404.3275928
 30
0.0
  0
VERTEX
  5
6C4
  8
DEFAULT_LAYER
 10
4363.76528684
 20
2494.25825826
 30
0.0
  0
VERTEX
  5
6C5
  8
DEFAULT_LAYER
 10
4375.765286840001
 20
2494.258258259999
 30
0.0
  0
VERTEX
  5
6C6
  8
DEFAULT_LAYER
 10
4375.765286840001
 20
2674.84508853
 30
0.0
  0
VERTEX
  5
6C7
  8
DEFAULT_LAYER
 10
4363.76528684
 20
2674.84508853
 30
0.0
  0
VERTEX
  5
6C8
  8
DEFAULT_LAYER
 10
4363.76528684
 20
2753.33387508
 30
0.0
  0
VERTEX
  5
6C9
  8
DEFAULT_LAYER
 10
3963.76528684
 20
2753.33387508
 30
0.0
  0
VERTEX
  5
6CA
  8
DEFAULT_LAYER
 10
3763.76528684
 20
2751.33387508
 30
0.0
  0
VERTEX
  5
6CB
  8
DEFAULT_LAYER
 10
3563.76528684
 20
2750.33387508
 30
0.0
  0
VERTEX
  5
6CC
  8
DEFAULT_LAYER
 10
3521.08764614
 20
2749.57772854
 30
0.0
  0
VERTEX
  5
6CD
  8
DEFAULT_LAYER
 10
3477.34416131
 20
2748.78470274
 30
0.0
  0
VERTEX
  5
6CE
  8
DEFAULT_LAYER
 10
3431.46898817
 20
2747.91791844
 30
0.0
  0
VERTEX
  5
6CF
  8
DEFAULT_LAYER
 10
3382.39628259
 20
2746.94049637
 30
0.0
  0
VERTEX
  5
6D0
  8
DEFAULT_LAYER
 10
3372.39628259
 20
2767.94049637
 30
0.0
  0
VERTEX
  5
6D1
  8
DEFAULT_LAYER
 10
3371.66564684
 20
2768.07665062
 30
0.0
  0
VERTEX
  5
6D2
  8
DEFAULT_LAYER
 10
3370.74565158
 20
2768.22907359
 30
0.0
  0
VERTEX
  5
6D3
  8
DEFAULT_LAYER
 10
3368.37888479
 20
2768.57168129
 30
0.0
  0
VERTEX
  5
6D4
  8
DEFAULT_LAYER
 10
3365.37858678
 20
2768.94623075
 30
0.0
  0
VERTEX
  5
6D5
  8
DEFAULT_LAYER
 10
3361.82736206
 20
2769.33063327
 30
0.0
  0
VERTEX
  5
6D6
  8
DEFAULT_LAYER
 10
3359.8709661
 20
2769.51962669
 30
0.0
  0
VERTEX
  5
6D7
  8
DEFAULT_LAYER
 10
3357.80781517
 20
2769.70280011
 30
0.0
  0
VERTEX
  5
6D8
  8
DEFAULT_LAYER
 10
3355.64823483
 20
2769.87739244
 30
0.0
  0
VERTEX
  5
6D9
  8
DEFAULT_LAYER
 10
3353.40255065
 20
2770.04064259
 30
0.0
  0
VERTEX
  5
6DA
  8
DEFAULT_LAYER
 10
3351.08108819
 20
2770.18978946
 30
0.0
  0
VERTEX
  5
6DB
  8
DEFAULT_LAYER
 10
3348.69417303
 20
2770.32207197
 30
0.0
  0
VERTEX
  5
6DC
  8
DEFAULT_LAYER
 10
3346.25213072
 20
2770.43472903
 30
0.0
  0
VERTEX
  5
6DD
  8
DEFAULT_LAYER
 10
3343.76528684
 20
2770.52499955
 30
0.0
  0
VERTEX
  5
6DE
  8
DEFAULT_LAYER
 10
3340.95745233
 20
2770.62186753
 30
0.0
  0
VERTEX
  5
6DF
  8
DEFAULT_LAYER
 10
3337.58452627
 20
2770.69658393
 30
0.0
  0
VERTEX
  5
6E0
  8
DEFAULT_LAYER
 10
3333.70496642
 20
2770.75078655
 30
0.0
  0
VERTEX
  5
6E1
  8
DEFAULT_LAYER
 10
3329.3772305
 20
2770.78611322
 30
0.0
  0
VERTEX
  5
6E2
  8
DEFAULT_LAYER
 10
3324.65977628
 20
2770.80420175
 30
0.0
  0
VERTEX
  5
6E3
  8
DEFAULT_LAYER
 10
3319.61106149
 20
2770.80668998
 30
0.0
  0
VERTEX
  5
6E4
  8
DEFAULT_LAYER
 10
3308.7536812
 20
2770.77141675
 30
0.0
  0
VERTEX
  5
6E5
  8
DEFAULT_LAYER
 10
3297.27275163
 20
2770.6933961
 30
0.0
  0
VERTEX
  5
6E6
  8
DEFAULT_LAYER
 10
3285.63593472
 20
2770.58573057
 30
0.0
  0
VERTEX
  5
6E7
  8
DEFAULT_LAYER
 10
3263.76528684
 20
2770.33387508
 30
0.0
  0
VERTEX
  5
6E8
  8
DEFAULT_LAYER
 10
2333.76528684
 20
2770.33387508
 30
0.0
  0
VERTEX
  5
6E9
  8
DEFAULT_LAYER
 10
2333.76528684
 20
2704.61170805
 30
0.0
  0
VERTEX
  5
6EA
  8
DEFAULT_LAYER
 10
2321.76528684
 20
2704.611708050006
 30
0.0
  0
VERTEX
  5
6EB
  8
DEFAULT_LAYER
 10
2321.76528684
 20
2504.611865049998
 30
0.0
  0
VERTEX
  5
6EC
  8
DEFAULT_LAYER
 10
2333.76528684
 20
2504.61186505
 30
0.0
  0
VERTEX
  5
6ED
  8
DEFAULT_LAYER
 10
2333.76528684
 20
2404.3275928
 30
0.0
  0
SEQEND
  5
7FB
  8
DEFAULT_LAYER
  0
POLYLINE
  5
E9
  8
DEFAULT_LAYER
 66
     1
 10
0.0
 20
0.0
 30
0.0
 70
     1
  0
VERTEX
  5
6EE
  8
DEFAULT_LAYER
 10
3236.934988362872
 20
1911.450827019609
 30
0.0
  0
VERTEX
  5
6EF
  8
DEFAULT_LAYER
 10
3226.549779325743
 20
1911.461876919213
 30
0.0
  0
VERTEX
  5
6F0
  8
DEFAULT_LAYER
 10
3250.561618551586
 20
1911.461876919213
 30
0.0
  0
VERTEX
  5
6F1
  8
DEFAULT_LAYER
 10
3250.561618551585
 20
2102.70697677
 30
0.0
  0
VERTEX
  5
6F2
  8
DEFAULT_LAYER
 10
3262.961618551588
 20
2102.70697677
 30
0.0
  0
VERTEX
  5
6F3
  8
DEFAULT_LAYER
 10
3262.961618551586
 20
1911.461876919213
 30
0.0
  0
VERTEX
  5
6F4
  8
DEFAULT_LAYER
 10
3281.806573612519
 20
1911.461876919213
 30
0.0
  0
VERTEX
  5
6F5
  8
DEFAULT_LAYER
 10
3274.063385506259
 20
1911.450827019615
 30
0.0
  0
VERTEX
  5
6F6
  8
DEFAULT_LAYER
 10
3266.3201974
 20
1911.43977712
 30
0.0
  0
VERTEX
  5
6F7
  8
DEFAULT_LAYER
 10
4311.27645412
 20
1911.43977712
 30
0.0
  0
VERTEX
  5
6F8
  8
DEFAULT_LAYER
 10
4311.27645412
 20
2018.43060902
 30
0.0
  0
VERTEX
  5
6F9
  8
DEFAULT_LAYER
 10
4323.870563450245
 20
2018.430609019988
 30
0.0
  0
VERTEX
  5
6FA
  8
DEFAULT_LAYER
 10
4323.870563450245
 20
2197.076265319983
 30
0.0
  0
VERTEX
  5
6FB
  8
DEFAULT_LAYER
 10
4311.27645412
 20
2197.07626532
 30
0.0
  0
VERTEX
  5
6FC
  8
DEFAULT_LAYER
 10
4311.27645412
 20
2342.73574198
 30
0.0
  0
VERTEX
  5
6FD
  8
DEFAULT_LAYER
 10
4111.27645412
 20
2337.73574198
 30
0.0
  0
VERTEX
  5
6FE
  8
DEFAULT_LAYER
 10
4098.77609781
 20
2337.43420748
 30
0.0
  0
VERTEX
  5
6FF
  8
DEFAULT_LAYER
 10
4086.275123899999
 20
2337.15167984
 30
0.0
  0
VERTEX
  5
700
  8
DEFAULT_LAYER
 10
4061.271893359999
 20
2336.62610037
 30
0.0
  0
VERTEX
  5
701
  8
DEFAULT_LAYER
 10
4036.2679027
 20
2336.12391396
 30
0.0
  0
VERTEX
  5
702
  8
DEFAULT_LAYER
 10
4011.26429209
 20
2335.61003102
 30
0.0
  0
VERTEX
  5
703
  8
DEFAULT_LAYER
 10
3998.76298562
 20
2335.33773785
 30
0.0
  0
VERTEX
  5
704
  8
DEFAULT_LAYER
 10
3986.262201739999
 20
2335.04936194
 30
0.0
  0
VERTEX
  5
705
  8
DEFAULT_LAYER
 10
3973.762082969999
 20
2334.74051711
 30
0.0
  0
VERTEX
  5
706
  8
DEFAULT_LAYER
 10
3961.262771839999
 20
2334.40681715
 30
0.0
  0
VERTEX
  5
707
  8
DEFAULT_LAYER
 10
3948.76441086
 20
2334.04387585
 30
0.0
  0
VERTEX
  5
708
  8
DEFAULT_LAYER
 10
3936.26714257
 20
2333.64730702
 30
0.0
  0
VERTEX
  5
709
  8
DEFAULT_LAYER
 10
3923.77110948
 20
2333.21272447
 30
0.0
  0
VERTEX
  5
70A
  8
DEFAULT_LAYER
 10
3911.27645412
 20
2332.73574198
 30
0.0
  0
VERTEX
  5
70B
  8
DEFAULT_LAYER
 10
3898.78136134
 20
2332.22064038
 30
0.0
  0
VERTEX
  5
70C
  8
DEFAULT_LAYER
 10
3886.28413261
 20
2331.6756156
 30
0.0
  0
VERTEX
  5
70D
  8
DEFAULT_LAYER
 10
3873.78508544
 20
2331.10215407
 30
0.0
  0
VERTEX
  5
70E
  8
DEFAULT_LAYER
 10
3861.28453732
 20
2330.50174223
 30
0.0
  0
VERTEX
  5
70F
  8
DEFAULT_LAYER
 10
3848.78280575
 20
2329.87586654
 30
0.0
  0
VERTEX
  5
710
  8
DEFAULT_LAYER
 10
3836.28020822
 20
2329.22601343
 30
0.0
  0
VERTEX
  5
711
  8
DEFAULT_LAYER
 10
3823.77706222
 20
2328.55366934
 30
0.0
  0
VERTEX
  5
712
  8
DEFAULT_LAYER
 10
3811.27368526
 20
2327.86032073
 30
0.0
  0
VERTEX
  5
713
  8
DEFAULT_LAYER
 10
3798.77039483
 20
2327.14745403
 30
0.0
  0
VERTEX
  5
714
  8
DEFAULT_LAYER
 10
3786.26750841
 20
2326.41655569
 30
0.0
  0
VERTEX
  5
715
  8
DEFAULT_LAYER
 10
3773.76534352
 20
2325.66911215
 30
0.0
  0
VERTEX
  5
716
  8
DEFAULT_LAYER
 10
3761.26421763
 20
2324.90660985
 30
0.0
  0
VERTEX
  5
717
  8
DEFAULT_LAYER
 10
3736.26635288
 20
2323.34237477
 30
0.0
  0
VERTEX
  5
718
  8
DEFAULT_LAYER
 10
3711.27645412
 20
2321.73574198
 30
0.0
  0
VERTEX
  5
719
  8
DEFAULT_LAYER
 10
3698.78301555
 20
2320.90860281
 30
0.0
  0
VERTEX
  5
71A
  8
DEFAULT_LAYER
 10
3686.28788559
 20
2320.05301508
 30
0.0
  0
VERTEX
  5
71B
  8
DEFAULT_LAYER
 10
3673.7912392
 20
2319.17192173
 30
0.0
  0
VERTEX
  5
71C
  8
DEFAULT_LAYER
 10
3661.29325137
 20
2318.26826572
 30
0.0
  0
VERTEX
  5
71D
  8
DEFAULT_LAYER
 10
3648.79409707
 20
2317.34499
 30
0.0
  0
VERTEX
  5
71E
  8
DEFAULT_LAYER
 10
3636.29395126
 20
2316.40503754
 30
0.0
  0
VERTEX
  5
71F
  8
DEFAULT_LAYER
 10
3611.29138501
 20
2314.48687419
 30
0.0
  0
VERTEX
  5
720
  8
DEFAULT_LAYER
 10
3586.28695241
 20
2312.53731931
 30
0.0
  0
VERTEX
  5
721
  8
DEFAULT_LAYER
 10
3561.28205321
 20
2310.57991656
 30
0.0
  0
VERTEX
  5
722
  8
DEFAULT_LAYER
 10
3536.27808719
 20
2308.63820956
 30
0.0
  0
VERTEX
  5
723
  8
DEFAULT_LAYER
 10
3511.27645412
 20
2306.73574198
 30
0.0
  0
VERTEX
  5
724
  8
DEFAULT_LAYER
 10
3265.99356869
 20
2292.49091259
 30
0.0
  0
VERTEX
  5
725
  8
DEFAULT_LAYER
 10
3258.99356869
 20
2310.49091259
 30
0.0
  0
VERTEX
  5
726
  8
DEFAULT_LAYER
 10
3258.23447903
 20
2310.66940555
 30
0.0
  0
VERTEX
  5
727
  8
DEFAULT_LAYER
 10
3257.4056684
 20
2310.84650878
 30
0.0
  0
VERTEX
  5
728
  8
DEFAULT_LAYER
 10
3255.54788048
 20
2311.19672542
 30
0.0
  0
VERTEX
  5
729
  8
DEFAULT_LAYER
 10
3253.43819746
 20
2311.54192114
 30
0.0
  0
VERTEX
  5
72A
  8
DEFAULT_LAYER
 10
3251.09461183
 20
2311.88245458
 30
0.0
  0
VERTEX
  5
72B
  8
DEFAULT_LAYER
 10
3248.53511611
 20
2312.21868438
 30
0.0
  0
VERTEX
  5
72C
  8
DEFAULT_LAYER
 10
3245.7777028
 20
2312.55096918
 30
0.0
  0
VERTEX
  5
72D
  8
DEFAULT_LAYER
 10
3242.84036441
 20
2312.87966761
 30
0.0
  0
VERTEX
  5
72E
  8
DEFAULT_LAYER
 10
3239.74109344
 20
2313.20513831
 30
0.0
  0
VERTEX
  5
72F
  8
DEFAULT_LAYER
 10
3236.49788242
 20
2313.52773991
 30
0.0
  0
VERTEX
  5
730
  8
DEFAULT_LAYER
 10
3233.12872384
 20
2313.84783105
 30
0.0
  0
VERTEX
  5
731
  8
DEFAULT_LAYER
 10
3226.08453404
 20
2314.48191652
 30
0.0
  0
VERTEX
  5
732
  8
DEFAULT_LAYER
 10
3218.75246411
 20
2315.1102638
 30
0.0
  0
VERTEX
  5
733
  8
DEFAULT_LAYER
 10
3211.27645412
 20
2315.73574198
 30
0.0
  0
VERTEX
  5
734
  8
DEFAULT_LAYER
 10
3186.27441735
 20
2318.01327039
 30
0.0
  0
VERTEX
  5
735
  8
DEFAULT_LAYER
 10
3161.2694709
 20
2320.3301251
 30
0.0
  0
VERTEX
  5
736
  8
DEFAULT_LAYER
 10
3136.26336058
 20
2322.66271032
 30
0.0
  0
VERTEX
  5
737
  8
DEFAULT_LAYER
 10
3111.2578322
 20
2324.98743029
 30
0.0
  0
VERTEX
  5
738
  8
DEFAULT_LAYER
 10
3086.25463155
 20
2327.28068922
 30
0.0
  0
VERTEX
  5
739
  8
DEFAULT_LAYER
 10
3073.7544497
 20
2328.40814712
 30
0.0
  0
VERTEX
  5
73A
  8
DEFAULT_LAYER
 10
3061.25550445
 20
2329.51889133
 30
0.0
  0
VERTEX
  5
73B
  8
DEFAULT_LAYER
 10
3048.75801405
 20
2330.6099724
 30
0.0
  0
VERTEX
  5
73C
  8
DEFAULT_LAYER
 10
3036.26219671
 20
2331.67844084
 30
0.0
  0
VERTEX
  5
73D
  8
DEFAULT_LAYER
 10
3023.76827066
 20
2332.72134719
 30
0.0
  0
VERTEX
  5
73E
  8
DEFAULT_LAYER
 10
3011.27645412
 20
2333.73574198
 30
0.0
  0
VERTEX
  5
73F
  8
DEFAULT_LAYER
 10
2986.28853134
 20
2335.73070661
 30
0.0
  0
VERTEX
  5
740
  8
DEFAULT_LAYER
 10
2961.28992882
 20
2337.70315318
 30
0.0
  0
VERTEX
  5
741
  8
DEFAULT_LAYER
 10
2948.78775221
 20
2338.67351472
 30
0.0
  0
VERTEX
  5
742
  8
DEFAULT_LAYER
 10
2936.28426113
 20
2339.62934578
 30
0.0
  0
VERTEX
  5
743
  8
DEFAULT_LAYER
 10
2923.77990738
 20
2340.56767936
 30
0.0
  0
VERTEX
  5
744
  8
DEFAULT_LAYER
 10
2911.2751428
 20
2341.48554848
 30
0.0
  0
VERTEX
  5
745
  8
DEFAULT_LAYER
 10
2898.77041919
 20
2342.37998615
 30
0.0
  0
VERTEX
  5
746
  8
DEFAULT_LAYER
 10
2886.26618839
 20
2343.24802537
 30
0.0
  0
VERTEX
  5
747
  8
DEFAULT_LAYER
 10
2873.7629022
 20
2344.08669916
 30
0.0
  0
VERTEX
  5
748
  8
DEFAULT_LAYER
 10
2861.26101244
 20
2344.89304053
 30
0.0
  0
VERTEX
  5
749
  8
DEFAULT_LAYER
 10
2848.76097093
 20
2345.66408249
 30
0.0
  0
VERTEX
  5
74A
  8
DEFAULT_LAYER
 10
2836.2632295
 20
2346.39685804
 30
0.0
  0
VERTEX
  5
74B
  8
DEFAULT_LAYER
 10
2823.76823996
 20
2347.0884002
 30
0.0
  0
VERTEX
  5
74C
  8
DEFAULT_LAYER
 10
2811.27645412
 20
2347.73574198
 30
0.0
  0
VERTEX
  5
74D
  8
DEFAULT_LAYER
 10
2798.6752612
 20
2348.34061809
 30
0.0
  0
VERTEX
  5
74E
  8
DEFAULT_LAYER
 10
2785.8812256
 20
2348.90775408
 30
0.0
  0
VERTEX
  5
74F
  8
DEFAULT_LAYER
 10
2772.938562
 20
2349.43866925
 30
0.0
  0
VERTEX
  5
750
  8
DEFAULT_LAYER
 10
2759.89148504
 20
2349.93488286
 30
0.0
  0
VERTEX
  5
751
  8
DEFAULT_LAYER
 10
2746.78420938
 20
2350.39791419
 30
0.0
  0
VERTEX
  5
752
  8
DEFAULT_LAYER
 10
2733.66094967
 20
2350.82928252
 30
0.0
  0
VERTEX
  5
753
  8
DEFAULT_LAYER
 10
2720.56592058
 20
2351.23050713
 30
0.0
  0
VERTEX
  5
754
  8
DEFAULT_LAYER
 10
2707.54333674
 20
2351.6031073
 30
0.0
  0
VERTEX
  5
755
  8
DEFAULT_LAYER
 10
2694.63741282
 20
2351.9486023
 30
0.0
  0
VERTEX
  5
756
  8
DEFAULT_LAYER
 10
2681.89236348
 20
2352.26851141
 30
0.0
  0
VERTEX
  5
757
  8
DEFAULT_LAYER
 10
2669.35240336
 20
2352.56435391
 30
0.0
  0
VERTEX
  5
758
  8
DEFAULT_LAYER
 10
2657.06174713
 20
2352.83764908
 30
0.0
  0
VERTEX
  5
759
  8
DEFAULT_LAYER
 10
2633.40520493
 20
2353.32267453
 30
0.0
  0
VERTEX
  5
75A
  8
DEFAULT_LAYER
 10
2611.27645412
 20
2353.73574198
 30
0.0
  0
VERTEX
  5
75B
  8
DEFAULT_LAYER
 10
2600.65279473
 20
2353.91080344
 30
0.0
  0
VERTEX
  5
75C
  8
DEFAULT_LAYER
 10
2590.02878976
 20
2354.05684906
 30
0.0
  0
VERTEX
  5
75D
  8
DEFAULT_LAYER
 10
2579.40447496
 20
2354.17688047
 30
0.0
  0
VERTEX
  5
75E
  8
DEFAULT_LAYER
 10
2568.77988608
 20
2354.27389932
 30
0.0
  0
VERTEX
  5
75F
  8
DEFAULT_LAYER
 10
2558.15505887
 20
2354.35090725
 30
0.0
  0
VERTEX
  5
760
  8
DEFAULT_LAYER
 10
2547.53002908
 20
2354.41090588
 30
0.0
  0
VERTEX
  5
761
  8
DEFAULT_LAYER
 10
2526.27950476
 20
2354.49188184
 30
0.0
  0
VERTEX
  5
762
  8
DEFAULT_LAYER
 10
2505.0285991
 20
2354.54084032
 30
0.0
  0
VERTEX
  5
763
  8
DEFAULT_LAYER
 10
2483.77759811
 20
2354.58179443
 30
0.0
  0
VERTEX
  5
764
  8
DEFAULT_LAYER
 10
2462.52678779
 20
2354.63875728
 30
0.0
  0
VERTEX
  5
765
  8
DEFAULT_LAYER
 10
2441.27645412
 20
2354.73574198
 30
0.0
  0
VERTEX
  5
766
  8
DEFAULT_LAYER
 10
2281.27645412
 20
2354.73574198
 30
0.0
  0
VERTEX
  5
767
  8
DEFAULT_LAYER
 10
2281.27645412
 20
2240.43199375
 30
0.0
  0
VERTEX
  5
768
  8
DEFAULT_LAYER
 10
2269.276454120001
 20
2240.431993750006
 30
0.0
  0
VERTEX
  5
769
  8
DEFAULT_LAYER
 10
2269.276454120001
 20
2040.432023449996
 30
0.0
  0
VERTEX
  5
76A
  8
DEFAULT_LAYER
 10
2281.27645412
 20
2040.43202345
 30
0.0
  0
VERTEX
  5
76B
  8
DEFAULT_LAYER
 10
2281.27645412
 20
1911.43977712
 30
0.0
  0
VERTEX
  5
76C
  8
DEFAULT_LAYER
 10
3247.3201974
 20
1911.43977712
 30
0.0
  0
SEQEND
  5
7FC
  8
DEFAULT_LAYER
  0
POLYLINE
  5
EA
  8
DEFAULT_LAYER
 66
     1
 10
0.0
 20
0.0
 30
0.0
  0
VERTEX
  5
76D
  8
DEFAULT_LAYER
 10
4363.76528684
 20
2674.84508853
 30
0.0
  0
VERTEX
  5
76E
  8
DEFAULT_LAYER
 10
4363.76528684
 20
2733.459646072674
 30
0.0
  0
SEQEND
  5
7FD
  8
DEFAULT_LAYER
  0
POLYLINE
  5
EB
  8
DEFAULT_LAYER
 66
     1
 10
0.0
 20
0.0
 30
0.0
  0
VERTEX
  5
76F
  8
DEFAULT_LAYER
 10
4363.76528684
 20
2449.29292553
 30
0.0
  0
VERTEX
  5
770
  8
DEFAULT_LAYER
 10
4363.76528684
 20
2494.258258259956
 30
0.0
  0
SEQEND
  5
7FE
  8
DEFAULT_LAYER
  0
POLYLINE
  5
EC
  8
DEFAULT_LAYER
 66
     1
 10
0.0
 20
0.0
 30
0.0
  0
VERTEX
  5
771
  8
DEFAULT_LAYER
 10
4335.13501445
 20
1691.516525967674
 30
0.0
  0
VERTEX
  5
772
  8
DEFAULT_LAYER
 10
4335.13501445
 20
1639.429143650006
 30
0.0
  0
SEQEND
  5
7FF
  8
DEFAULT_LAYER
  0
POLYLINE
  5
ED
  8
DEFAULT_LAYER
 66
     1
 10
0.0
 20
0.0
 30
0.0
  0
VERTEX
  5
773
  8
DEFAULT_LAYER
 10
4335.13501445
 20
1460.783487350018
 30
0.0
  0
VERTEX
  5
774
  8
DEFAULT_LAYER
 10
4335.13501445
 20
1407.349805425
 30
0.0
  0
SEQEND
  5
800
  8
DEFAULT_LAYER
  0
POLYLINE
  5
EE
  8
DEFAULT_LAYER
 66
     1
 10
0.0
 20
0.0
 30
0.0
  0
VERTEX
  5
775
  8
DEFAULT_LAYER
 10
2333.76528684
 20
2704.611708050018
 30
0.0
  0
VERTEX
  5
776
  8
DEFAULT_LAYER
 10
2333.76528684
 20
2737.472791565
 30
0.0
  0
SEQEND
  5
801
  8
DEFAULT_LAYER
  0
POLYLINE
  5
EF
  8
DEFAULT_LAYER
 66
     1
 10
0.0
 20
0.0
 30
0.0
  0
VERTEX
  5
777
  8
DEFAULT_LAYER
 10
2333.76528684
 20
2453.306071022326
 30
0.0
  0
VERTEX
  5
778
  8
DEFAULT_LAYER
 10
2333.76528684
 20
2504.611865049995
 30
0.0
  0
SEQEND
  5
802
  8
DEFAULT_LAYER
  0
POLYLINE
  5
F0
  8
DEFAULT_LAYER
 66
     1
 10
0.0
 20
0.0
 30
0.0
  0
VERTEX
  5
779
  8
DEFAULT_LAYER
 10
2281.276454120001
 20
2240.431993749983
 30
0.0
  0
VERTEX
  5
77A
  8
DEFAULT_LAYER
 10
2281.276454120001
 20
2280.621603215212
 30
0.0
  0
SEQEND
  5
803
  8
DEFAULT_LAYER
  0
POLYLINE
  5
F1
  8
DEFAULT_LAYER
 66
     1
 10
0.0
 20
0.0
 30
0.0
  0
VERTEX
  5
77B
  8
DEFAULT_LAYER
 10
2281.276454120001
 20
1996.454882672537
 30
0.0
  0
VERTEX
  5
77C
  8
DEFAULT_LAYER
 10
2281.276454120001
 20
2040.432023449992
 30
0.0
  0
SEQEND
  5
804
  8
DEFAULT_LAYER
  0
POLYLINE
  5
F2
  8
DEFAULT_LAYER
 66
     1
 10
0.0
 20
0.0
 30
0.0
  0
VERTEX
  5
77D
  8
DEFAULT_LAYER
 10
2305.135014449993
 20
1716.47237873547
 30
0.0
  0
VERTEX
  5
77E
  8
DEFAULT_LAYER
 10
2305.135014449993
 20
1682.784872079967
 30
0.0
  0
SEQEND
  5
805
  8
DEFAULT_LAYER
  0
POLYLINE
  5
F3
  8
DEFAULT_LAYER
 66
     1
 10
0.0
 20
0.0
 30
0.0
  0
VERTEX
  5
77F
  8
DEFAULT_LAYER
 10
2305.135014449993
 20
1432.305658192796
 30
0.0
  0
VERTEX
  5
780
  8
DEFAULT_LAYER
 10
2305.135014449993
 20
1482.784901779979
 30
0.0
  0
SEQEND
  5
806
  8
DEFAULT_LAYER
  0
ENDSEC
  0
EOF
