  0
SECTION
  2
HEADER
  9
$ACADVER
  1
AC1009
  9
$EXTMIN
 10
-1397.73691655
 20
724.58663366
 30
0.0
  9
$EXTMAX
 10
3402.86308345
 20
3596.22022631
 30
0.0
  0
ENDSEC
  0
SECTION
  2
TABLES
  0
TABLE
  2
LAYER
 70
1
 0
LAYER
 2
Default Layer
 70
0
 62
1
 6
CONTINUOUS
 0
ENDTAB
 0
ENDSEC
  0
SECTION
  2
ENTITIES
  0
POLYLINE
  8
Default Layer
 66
   1
 39
0.000000
 70
    1
  0
VERTEX
  8
0
 10
1894.71004243
 20
1287.29844413
  0
VERTEX
  8
0
 10
1689.09507862
 20
1287.22349989
  0
VERTEX
  8
0
 10
1688.57880725
 20
2337.54004341
  0
VERTEX
  8
0
 10
1738.63085254
 20
2387.59683895
  0
VERTEX
  8
0
 10
1874.37584876
 20
2387.53366368
  0
VERTEX
  8
0
 10
1909.15552596
 20
2387.67889195
  0
VERTEX
  8
0
 10
1931.43541667
 20
2286.19372761
  0
VERTEX
  8
0
 10
1932.88849788
 20
2279.37277231
  0
VERTEX
  8
0
 10
1934.37591747
 20
2272.55814908
  0
VERTEX
  8
0
 10
1935.88975119
 20
2265.74839667
  0
VERTEX
  8
0
 10
1937.42207480
 20
2258.94205383
  0
VERTEX
  8
0
 10
1940.51049475
 20
2245.33375190
  0
VERTEX
  8
0
 10
1942.05074260
 20
2238.52887031
  0
VERTEX
  8
0
 10
1943.57778339
 20
2231.72155331
  0
VERTEX
  8
0
 10
1945.08369287
 20
2224.91033965
  0
VERTEX
  8
0
 10
1946.56054680
 20
2218.09376809
  0
VERTEX
  8
0
 10
1948.00042094
 20
2211.27037738
  0
VERTEX
  8
0
 10
1949.39539106
 20
2204.43870628
  0
VERTEX
  8
0
 10
1950.73753292
 20
2197.59729354
  0
VERTEX
  8
0
 10
1951.38631692
 20
2194.17247741
  0
VERTEX
  8
0
 10
1952.01892226
 20
2190.74467791
  0
VERTEX
  8
0
 10
1952.63435842
 20
2187.31371237
  0
VERTEX
  8
0
 10
1953.23163486
 20
2183.87939815
  0
VERTEX
  8
0
 10
1953.80976105
 20
2180.44155258
  0
VERTEX
  8
0
 10
1954.36774647
 20
2176.99999301
  0
VERTEX
  8
0
 10
1954.65963976
 20
2175.08729130
  0
VERTEX
  8
0
 10
1954.98716466
 20
2172.79867823
  0
VERTEX
  8
0
 10
1955.74568867
 20
2167.12980547
  0
VERTEX
  8
0
 10
1956.63647724
 20
2160.06554971
  0
VERTEX
  8
0
 10
1957.65268909
 20
2151.67808594
  0
VERTEX
  8
0
 10
1958.78748295
 20
2142.03958912
  0
VERTEX
  8
0
 10
1960.03401756
 20
2131.22223426
  0
VERTEX
  8
0
 10
1961.38545165
 20
2119.29819633
  0
VERTEX
  8
0
 10
1962.83494393
 20
2106.33965031
  0
VERTEX
  8
0
 10
1966.00073804
 20
2077.60773394
  0
VERTEX
  8
0
 10
1969.47666972
 20
2045.60388501
  0
VERTEX
  8
0
 10
1973.20800882
 20
2010.90550340
  0
VERTEX
  8
0
 10
1977.14002517
 20
1974.08998896
  0
VERTEX
  8
0
 10
1985.38716900
 20
1896.41716104
  0
VERTEX
  8
0
 10
1993.78025992
 20
1817.20460015
  0
VERTEX
  8
0
 10
1997.89471014
 20
1778.46441950
  0
VERTEX
  8
0
 10
2001.88145665
 20
1741.07150520
  0
VERTEX
  8
0
 10
2005.68576929
 20
1705.60325710
  0
VERTEX
  8
0
 10
2009.25291791
 20
1672.63707507
  0
VERTEX
  8
0
 10
1894.71004243
 20
1672.63707507
  0
VERTEX
  8
0
 10
1894.71004243
 20
1287.29844413
  0
SEQEND
  0
POLYLINE
  8
Default Layer
 66
   1
 39
0.000000
 70
    0
  0
VERTEX
  8
0
 10
219.94737315
 20
2338.11942599
  0
VERTEX
  8
0
 10
220.18244453
 20
2338.21556811
  0
VERTEX
  8
0
 10
220.42124084
 20
2338.12137660
  0
SEQEND
  0
POLYLINE
  8
Default Layer
 66
   1
 39
0.000000
 70
    1
  0
VERTEX
  8
0
 10
406.85083963
 20
1247.02036872
  0
VERTEX
  8
0
 10
406.85083963
 20
1341.98859892
  0
VERTEX
  8
0
 10
418.83807089
 20
1341.98859892
  0
VERTEX
  8
0
 10
418.83807089
 20
1397.92792919
  0
VERTEX
  8
0
 10
1589.76164623
 20
1397.92792919
  0
VERTEX
  8
0
 10
1589.76164623
 20
1341.94815514
  0
VERTEX
  8
0
 10
1601.68050054
 20
1341.94815514
  0
VERTEX
  8
0
 10
1601.68050054
 20
1247.02036872
  0
VERTEX
  8
0
 10
1589.76164623
 20
1247.02036872
  0
VERTEX
  8
0
 10
1589.76164623
 20
1169.95756719
  0
VERTEX
  8
0
 10
418.83807089
 20
1169.95756719
  0
VERTEX
  8
0
 10
418.83807089
 20
1247.02036872
  0
VERTEX
  8
0
 10
406.85083963
 20
1247.02036872
  0
SEQEND
  0
POLYLINE
  8
Default Layer
 66
   1
 39
0.000000
 70
    1
  0
VERTEX
  8
0
 10
738.59557995
 20
1266.32817548
  0
VERTEX
  8
0
 10
738.59557995
 20
1274.04780031
  0
VERTEX
  8
0
 10
738.98832901
 20
1273.48715938
  0
VERTEX
  8
0
 10
739.39026055
 20
1272.94431658
  0
VERTEX
  8
0
 10
739.80137455
 20
1272.41927190
  0
VERTEX
  8
0
 10
740.22167103
 20
1271.91202534
  0
VERTEX
  8
0
 10
740.65114998
 20
1271.42257692
  0
VERTEX
  8
0
 10
741.08981141
 20
1270.95092661
  0
VERTEX
  8
0
 10
741.53765530
 20
1270.49707443
  0
VERTEX
  8
0
 10
741.99468167
 20
1270.06102038
  0
VERTEX
  8
0
 10
742.46089051
 20
1269.64276445
  0
VERTEX
  8
0
 10
742.93628182
 20
1269.24230664
  0
VERTEX
  8
0
 10
743.42085560
 20
1268.85964696
  0
VERTEX
  8
0
 10
743.91461186
 20
1268.49478541
  0
VERTEX
  8
0
 10
744.41755058
 20
1268.14772198
  0
VERTEX
  8
0
 10
744.92967178
 20
1267.81845667
  0
VERTEX
  8
0
 10
745.45097545
 20
1267.50698949
  0
VERTEX
  8
0
 10
745.98146160
 20
1267.21332043
  0
VERTEX
  8
0
 10
746.52113021
 20
1266.93744950
  0
VERTEX
  8
0
 10
747.06998130
 20
1266.67937669
  0
VERTEX
  8
0
 10
747.62801486
 20
1266.43910201
  0
VERTEX
  8
0
 10
748.19523089
 20
1266.21662545
  0
VERTEX
  8
0
 10
748.77162939
 20
1266.01194701
  0
VERTEX
  8
0
 10
749.35721037
 20
1265.82506670
  0
VERTEX
  8
0
 10
749.95197381
 20
1265.65598452
  0
VERTEX
  8
0
 10
750.55591973
 20
1265.50470046
  0
VERTEX
  8
0
 10
751.16904812
 20
1265.37121452
  0
VERTEX
  8
0
 10
751.79135899
 20
1265.25552671
  0
VERTEX
  8
0
 10
752.42285232
 20
1265.15763703
  0
VERTEX
  8
0
 10
753.06352813
 20
1265.07754547
  0
VERTEX
  8
0
 10
753.71338641
 20
1265.01525203
  0
VERTEX
  8
0
 10
754.37242716
 20
1264.97075672
  0
VERTEX
  8
0
 10
755.04065038
 20
1264.94405953
  0
VERTEX
  8
0
 10
755.71805607
 20
1264.93516047
  0
VERTEX
  8
0
 10
756.40061982
 20
1264.94360608
  0
VERTEX
  8
0
 10
757.07706192
 20
1264.96894290
  0
VERTEX
  8
0
 10
757.74738238
 20
1265.01117093
  0
VERTEX
  8
0
 10
758.41158118
 20
1265.07029018
  0
VERTEX
  8
0
 10
759.06965834
 20
1265.14630064
  0
VERTEX
  8
0
 10
759.72161385
 20
1265.23920232
  0
VERTEX
  8
0
 10
760.36744771
 20
1265.34899521
  0
VERTEX
  8
0
 10
761.00715993
 20
1265.47567931
  0
VERTEX
  8
0
 10
761.64075049
 20
1265.61925463
  0
VERTEX
  8
0
 10
762.26821941
 20
1265.77972116
  0
VERTEX
  8
0
 10
762.88956668
 20
1265.95707891
  0
VERTEX
  8
0
 10
763.50479230
 20
1266.15132787
  0
VERTEX
  8
0
 10
764.11389628
 20
1266.36246804
  0
VERTEX
  8
0
 10
764.71687860
 20
1266.59049943
  0
VERTEX
  8
0
 10
765.31373928
 20
1266.83542203
  0
VERTEX
  8
0
 10
765.90447831
 20
1267.09723585
  0
VERTEX
  8
0
 10
766.48909569
 20
1267.37594087
  0
VERTEX
  8
0
 10
767.06759143
 20
1267.67153712
  0
VERTEX
  8
0
 10
767.63996551
 20
1267.98402457
  0
VERTEX
  8
0
 10
768.20621795
 20
1268.31340324
  0
VERTEX
  8
0
 10
768.76634874
 20
1268.65967313
  0
VERTEX
  8
0
 10
769.32035788
 20
1269.02283423
  0
VERTEX
  8
0
 10
769.86824538
 20
1269.40288654
  0
VERTEX
  8
0
 10
770.41001122
 20
1269.79983006
  0
VERTEX
  8
0
 10
770.94565542
 20
1270.21366480
  0
VERTEX
  8
0
 10
771.47517797
 20
1270.64439076
  0
VERTEX
  8
0
 10
771.99857887
 20
1271.09200793
  0
VERTEX
  8
0
 10
772.51585813
 20
1271.55651631
  0
VERTEX
  8
0
 10
773.02701573
 20
1272.03791590
  0
VERTEX
  8
0
 10
773.53205169
 20
1272.53620671
  0
VERTEX
  8
0
 10
774.03096600
 20
1273.05138873
  0
VERTEX
  8
0
 10
774.52375866
 20
1273.58346197
  0
VERTEX
  8
0
 10
775.00583844
 20
1274.13100937
  0
VERTEX
  8
0
 10
775.47261410
 20
1274.69261389
  0
VERTEX
  8
0
 10
775.92408564
 20
1275.26827553
  0
VERTEX
  8
0
 10
776.36025306
 20
1275.85799429
  0
VERTEX
  8
0
 10
776.78111636
 20
1276.46177016
  0
VERTEX
  8
0
 10
777.18667554
 20
1277.07960315
  0
VERTEX
  8
0
 10
777.57693059
 20
1277.71149326
  0
VERTEX
  8
0
 10
777.95188153
 20
1278.35744048
  0
VERTEX
  8
0
 10
778.31152835
 20
1279.01744483
  0
VERTEX
  8
0
 10
778.65587105
 20
1279.69150629
  0
VERTEX
  8
0
 10
778.98490963
 20
1280.37962487
  0
VERTEX
  8
0
 10
779.29864409
 20
1281.08180056
  0
VERTEX
  8
0
 10
779.59707443
 20
1281.79803338
  0
VERTEX
  8
0
 10
779.88020065
 20
1282.52832331
  0
VERTEX
  8
0
 10
780.14802275
 20
1283.27267036
  0
VERTEX
  8
0
 10
780.40054072
 20
1284.03107452
  0
VERTEX
  8
0
 10
780.63775458
 20
1284.80353581
  0
VERTEX
  8
0
 10
780.85966432
 20
1285.59005421
  0
VERTEX
  8
0
 10
781.06626994
 20
1286.39062973
  0
VERTEX
  8
0
 10
781.25757144
 20
1287.20526236
  0
VERTEX
  8
0
 10
781.43356882
 20
1288.03395212
  0
VERTEX
  8
0
 10
781.59426208
 20
1288.87669899
  0
VERTEX
  8
0
 10
781.73965122
 20
1289.73350298
  0
VERTEX
  8
0
 10
781.86973624
 20
1290.60436409
  0
VERTEX
  8
0
 10
781.98451714
 20
1291.48928231
  0
VERTEX
  8
0
 10
782.08399392
 20
1292.38825765
  0
VERTEX
  8
0
 10
782.16816658
 20
1293.30129011
  0
VERTEX
  8
0
 10
782.23703512
 20
1294.22837969
  0
VERTEX
  8
0
 10
782.29059954
 20
1295.16952638
  0
VERTEX
  8
0
 10
782.32885984
 20
1296.12473020
  0
VERTEX
  8
0
 10
782.35181602
 20
1297.09399113
  0
VERTEX
  8
0
 10
782.35946808
 20
1298.07730917
  0
VERTEX
  8
0
 10
782.33044693
 20
1299.73332832
  0
VERTEX
  8
0
 10
782.24338349
 20
1301.36395396
  0
VERTEX
  8
0
 10
782.17808592
 20
1302.16974421
  0
VERTEX
  8
0
 10
782.09827776
 20
1302.96918609
  0
VERTEX
  8
0
 10
782.00395904
 20
1303.76227960
  0
VERTEX
  8
0
 10
781.89512974
 20
1304.54902473
  0
VERTEX
  8
0
 10
781.77178987
 20
1305.32942148
  0
VERTEX
  8
0
 10
781.63393943
 20
1306.10346986
  0
VERTEX
  8
0
 10
781.48157841
 20
1306.87116986
  0
VERTEX
  8
0
 10
781.31470682
 20
1307.63252149
  0
VERTEX
  8
0
 10
781.13332466
 20
1308.38752474
  0
VERTEX
  8
0
 10
780.93743193
 20
1309.13617961
  0
VERTEX
  8
0
 10
780.72702862
 20
1309.87848611
  0
VERTEX
  8
0
 10
780.50211474
 20
1310.61444424
  0
VERTEX
  8
0
 10
780.26427738
 20
1311.34042634
  0
VERTEX
  8
0
 10
780.01510363
 20
1312.05280478
  0
VERTEX
  8
0
 10
779.75459350
 20
1312.75157956
  0
VERTEX
  8
0
 10
779.48274698
 20
1313.43675068
  0
VERTEX
  8
0
 10
779.19956408
 20
1314.10831814
  0
VERTEX
  8
0
 10
778.90504480
 20
1314.76628193
  0
VERTEX
  8
0
 10
778.59918912
 20
1315.41064206
  0
VERTEX
  8
0
 10
778.28199707
 20
1316.04139853
  0
VERTEX
  8
0
 10
777.95346863
 20
1316.65855134
  0
VERTEX
  8
0
 10
777.61360380
 20
1317.26210049
  0
VERTEX
  8
0
 10
777.26240259
 20
1317.85204597
  0
VERTEX
  8
0
 10
776.89986499
 20
1318.42838779
  0
VERTEX
  8
0
 10
776.52599101
 20
1318.99112595
  0
VERTEX
  8
0
 10
776.14078064
 20
1319.54026044
  0
VERTEX
  8
0
 10
775.74423389
 20
1320.07579128
  0
VERTEX
  8
0
 10
775.33635075
 20
1320.59771845
  0
VERTEX
  8
0
 10
774.92279942
 20
1321.11261706
  0
VERTEX
  8
0
 10
774.49473752
 20
1321.61255165
  0
VERTEX
  8
0
 10
774.05216504
 20
1322.09752221
  0
VERTEX
  8
0
 10
773.59508199
 20
1322.56752873
  0
VERTEX
  8
0
 10
773.12348837
 20
1323.02257123
  0
VERTEX
  8
0
 10
772.63738418
 20
1323.46264971
  0
VERTEX
  8
0
 10
772.13676941
 20
1323.88776415
  0
VERTEX
  8
0
 10
771.62164407
 20
1324.29791456
  0
VERTEX
  8
0
 10
771.09200815
 20
1324.69310095
  0
VERTEX
  8
0
 10
770.54786167
 20
1325.07332331
  0
VERTEX
  8
0
 10
769.98920461
 20
1325.43858164
  0
VERTEX
  8
0
 10
769.41603697
 20
1325.78887594
  0
VERTEX
  8
0
 10
768.82835877
 20
1326.12420621
  0
VERTEX
  8
0
 10
768.22616999
 20
1326.44457245
  0
VERTEX
  8
0
 10
767.60947064
 20
1326.74997467
  0
VERTEX
  8
0
 10
766.97826071
 20
1327.04041286
  0
VERTEX
  8
0
 10
766.34455678
 20
1327.32155521
  0
VERTEX
  8
0
 10
765.70586484
 20
1327.58455934
  0
VERTEX
  8
0
 10
765.06218489
 20
1327.82942526
  0
VERTEX
  8
0
 10
764.41351694
 20
1328.05615297
  0
VERTEX
  8
0
 10
763.75986097
 20
1328.26474245
  0
VERTEX
  8
0
 10
763.10121699
 20
1328.45519372
  0
VERTEX
  8
0
 10
762.43758500
 20
1328.62750678
  0
VERTEX
  8
0
 10
761.76896501
 20
1328.78168162
  0
VERTEX
  8
0
 10
761.09535700
 20
1328.91771824
  0
VERTEX
  8
0
 10
760.41676099
 20
1329.03561664
  0
VERTEX
  8
0
 10
759.73317696
 20
1329.13537683
  0
VERTEX
  8
0
 10
759.04460493
 20
1329.21699881
  0
VERTEX
  8
0
 10
758.35104489
 20
1329.28048256
  0
VERTEX
  8
0
 10
757.65249683
 20
1329.32582810
  0
VERTEX
  8
0
 10
756.94896077
 20
1329.35303543
  0
VERTEX
  8
0
 10
756.24043670
 20
1329.36210454
  0
VERTEX
  8
0
 10
755.60191481
 20
1329.35399902
  0
VERTEX
  8
0
 10
754.97053484
 20
1329.32968247
  0
VERTEX
  8
0
 10
754.34629679
 20
1329.28915490
  0
VERTEX
  8
0
 10
753.72920066
 20
1329.23241629
  0
VERTEX
  8
0
 10
753.11924646
 20
1329.15946665
  0
VERTEX
  8
0
 10
752.51643418
 20
1329.07030598
  0
VERTEX
  8
0
 10
751.92076382
 20
1328.96493428
  0
VERTEX
  8
0
 10
751.33223539
 20
1328.84335155
  0
VERTEX
  8
0
 10
750.75084887
 20
1328.70555779
  0
VERTEX
  8
0
 10
750.17660429
 20
1328.55155300
  0
VERTEX
  8
0
 10
749.60950162
 20
1328.38133717
  0
VERTEX
  8
0
 10
749.04954087
 20
1328.19491032
  0
VERTEX
  8
0
 10
748.49672205
 20
1327.99227244
  0
VERTEX
  8
0
 10
747.95104515
 20
1327.77342352
  0
VERTEX
  8
0
 10
747.41251018
 20
1327.53836358
  0
VERTEX
  8
0
 10
746.88111712
 20
1327.28709260
  0
VERTEX
  8
0
 10
746.35686599
 20
1327.01961059
  0
VERTEX
  8
0
 10
745.83975678
 20
1326.73591755
  0
VERTEX
  8
0
 10
745.32978950
 20
1326.43601348
  0
VERTEX
  8
0
 10
744.82696413
 20
1326.11989838
  0
VERTEX
  8
0
 10
744.33128069
 20
1325.78757225
  0
VERTEX
  8
0
 10
743.84273918
 20
1325.43903509
  0
VERTEX
  8
0
 10
743.36133958
 20
1325.07428690
  0
VERTEX
  8
0
 10
742.88708191
 20
1324.69332768
  0
VERTEX
  8
0
 10
742.41996616
 20
1324.29615742
  0
VERTEX
  8
0
 10
741.95999233
 20
1323.88277614
  0
VERTEX
  8
0
 10
741.50716043
 20
1323.45318382
  0
VERTEX
  8
0
 10
741.06147044
 20
1323.00738048
  0
VERTEX
  8
0
 10
740.62292238
 20
1322.54536610
  0
VERTEX
  8
0
 10
740.19151625
 20
1322.06714069
  0
VERTEX
  8
0
 10
739.76725203
 20
1321.57270426
  0
VERTEX
  8
0
 10
739.35012974
 20
1321.06205679
  0
VERTEX
  8
0
 10
739.35012974
 20
1351.41817548
  0
VERTEX
  8
0
 10
728.90251719
 20
1351.41817548
  0
VERTEX
  8
0
 10
728.90251719
 20
1266.32817548
  0
VERTEX
  8
0
 10
738.59557995
 20
1266.32817548
  0
SEQEND
  0
POLYLINE
  8
Default Layer
 66
   1
 39
0.000000
 70
    1
  0
VERTEX
  8
0
 10
738.47949536
 20
1297.61297084
  0
VERTEX
  8
0
 10
738.49899395
 20
1298.99963747
  0
VERTEX
  8
0
 10
738.55748969
 20
1300.34458620
  0
VERTEX
  8
0
 10
738.65498261
 20
1301.64781704
  0
VERTEX
  8
0
 10
738.79147268
 20
1302.90932998
  0
VERTEX
  8
0
 10
738.96695992
 20
1304.12912502
  0
VERTEX
  8
0
 10
739.18144433
 20
1305.30720217
  0
VERTEX
  8
0
 10
739.43492590
 20
1306.44356141
  0
VERTEX
  8
0
 10
739.72740464
 20
1307.53820276
  0
VERTEX
  8
0
 10
740.05888054
 20
1308.59112621
  0
VERTEX
  8
0
 10
740.42935361
 20
1309.60233177
  0
VERTEX
  8
0
 10
740.83882384
 20
1310.57181943
  0
VERTEX
  8
0
 10
741.28729124
 20
1311.49958919
  0
VERTEX
  8
0
 10
741.77475580
 20
1312.38564105
  0
VERTEX
  8
0
 10
742.30121752
 20
1313.22997502
  0
VERTEX
  8
0
 10
742.86667641
 20
1314.03259109
  0
VERTEX
  8
0
 10
743.47113247
 20
1314.79348926
  0
VERTEX
  8
0
 10
744.10234240
 20
1315.51743081
  0
VERTEX
  8
0
 10
744.74806289
 20
1316.19466646
  0
VERTEX
  8
0
 10
745.40829396
 20
1316.82519620
  0
VERTEX
  8
0
 10
746.08303561
 20
1317.40902004
  0
VERTEX
  8
0
 10
746.77228783
 20
1317.94613797
  0
VERTEX
  8
0
 10
747.47605062
 20
1318.43654999
  0
VERTEX
  8
0
 10
748.19432398
 20
1318.88025610
  0
VERTEX
  8
0
 10
748.92710791
 20
1319.27725631
  0
VERTEX
  8
0
 10
749.67440242
 20
1319.62755061
  0
VERTEX
  8
0
 10
750.43620751
 20
1319.93113900
  0
VERTEX
  8
0
 10
751.21252316
 20
1320.18802149
  0
VERTEX
  8
0
 10
752.00334939
 20
1320.39819807
  0
VERTEX
  8
0
 10
752.80868619
 20
1320.56166875
  0
VERTEX
  8
0
 10
753.62853356
 20
1320.67843351
  0
VERTEX
  8
0
 10
754.46289151
 20
1320.74849237
  0
VERTEX
  8
0
 10
755.31176003
 20
1320.77184533
  0
VERTEX
  8
0
 10
756.15269308
 20
1320.74939928
  0
VERTEX
  8
0
 10
756.97775519
 20
1320.68206116
  0
VERTEX
  8
0
 10
757.78694636
 20
1320.56983094
  0
VERTEX
  8
0
 10
758.58026659
 20
1320.41270865
  0
VERTEX
  8
0
 10
759.35771589
 20
1320.21069426
  0
VERTEX
  8
0
 10
760.11929424
 20
1319.96378779
  0
VERTEX
  8
0
 10
760.86500166
 20
1319.67198924
  0
VERTEX
  8
0
 10
761.59483813
 20
1319.33529860
  0
VERTEX
  8
0
 10
762.30880367
 20
1318.95371588
  0
VERTEX
  8
0
 10
763.00689827
 20
1318.52724107
  0
VERTEX
  8
0
 10
763.68912192
 20
1318.05587417
  0
VERTEX
  8
0
 10
764.35547464
 20
1317.53961519
  0
VERTEX
  8
0
 10
765.00595642
 20
1316.97846413
  0
VERTEX
  8
0
 10
765.64056726
 20
1316.37242098
  0
VERTEX
  8
0
 10
766.25930717
 20
1315.72148574
  0
VERTEX
  8
0
 10
766.86217613
 20
1315.02565842
  0
VERTEX
  8
0
 10
767.15856592
 20
1314.66034341
  0
VERTEX
  8
0
 10
767.44554651
 20
1314.28267174
  0
VERTEX
  8
0
 10
767.99128009
 20
1313.49025842
  0
VERTEX
  8
0
 10
768.49937687
 20
1312.64841846
  0
VERTEX
  8
0
 10
768.96983685
 20
1311.75715186
  0
VERTEX
  8
0
 10
769.40266004
 20
1310.81645862
  0
VERTEX
  8
0
 10
769.79784642
 20
1309.82633874
  0
VERTEX
  8
0
 10
770.15539601
 20
1308.78679222
  0
VERTEX
  8
0
 10
770.47530880
 20
1307.69781907
  0
VERTEX
  8
0
 10
770.75758479
 20
1306.55941927
  0
VERTEX
  8
0
 10
771.00222398
 20
1305.37159283
  0
VERTEX
  8
0
 10
771.20922638
 20
1304.13433976
  0
VERTEX
  8
0
 10
771.37859197
 20
1302.84766004
  0
VERTEX
  8
0
 10
771.51032077
 20
1301.51155369
  0
VERTEX
  8
0
 10
771.60441276
 20
1300.12602070
  0
VERTEX
  8
0
 10
771.66086796
 20
1298.69106107
  0
VERTEX
  8
0
 10
771.67968636
 20
1297.20667479
  0
VERTEX
  8
0
 10
771.66018778
 20
1295.75652441
  0
VERTEX
  8
0
 10
771.60169203
 20
1294.35171956
  0
VERTEX
  8
0
 10
771.50419912
 20
1292.99226025
  0
VERTEX
  8
0
 10
771.36770904
 20
1291.67814649
  0
VERTEX
  8
0
 10
771.19222180
 20
1290.40937826
  0
VERTEX
  8
0
 10
770.97773739
 20
1289.18595558
  0
VERTEX
  8
0
 10
770.72425582
 20
1288.00787843
  0
VERTEX
  8
0
 10
770.43177708
 20
1286.87514683
  0
VERTEX
  8
0
 10
770.10030118
 20
1285.78776076
  0
VERTEX
  8
0
 10
769.72982811
 20
1284.74572024
  0
VERTEX
  8
0
 10
769.32035788
 20
1283.74902526
  0
VERTEX
  8
0
 10
768.87189049
 20
1282.79767582
  0
VERTEX
  8
0
 10
768.38442592
 20
1281.89167192
  0
VERTEX
  8
0
 10
767.85796420
 20
1281.03101356
  0
VERTEX
  8
0
 10
767.29250531
 20
1280.21570074
  0
VERTEX
  8
0
 10
766.68804925
 20
1279.44573346
  0
VERTEX
  8
0
 10
766.05683933
 20
1278.72882046
  0
VERTEX
  8
0
 10
765.41111883
 20
1278.05815992
  0
VERTEX
  8
0
 10
764.75088776
 20
1277.43375182
  0
VERTEX
  8
0
 10
764.07614611
 20
1276.85559618
  0
VERTEX
  8
0
 10
763.38689390
 20
1276.32369299
  0
VERTEX
  8
0
 10
762.68313111
 20
1275.83804225
  0
VERTEX
  8
0
 10
761.96485774
 20
1275.39864396
  0
VERTEX
  8
0
 10
761.23207381
 20
1275.00549812
  0
VERTEX
  8
0
 10
760.48477930
 20
1274.65860474
  0
VERTEX
  8
0
 10
759.72297422
 20
1274.35796380
  0
VERTEX
  8
0
 10
758.94665856
 20
1274.10357532
  0
VERTEX
  8
0
 10
758.15583233
 20
1273.89543929
  0
VERTEX
  8
0
 10
757.35049553
 20
1273.73355571
  0
VERTEX
  8
0
 10
756.53064816
 20
1273.61792458
  0
VERTEX
  8
0
 10
755.69629021
 20
1273.54854590
  0
VERTEX
  8
0
 10
754.84742169
 20
1273.52541968
  0
VERTEX
  8
0
 10
754.32481434
 20
1273.53329847
  0
VERTEX
  8
0
 10
753.80900881
 20
1273.55693483
  0
VERTEX
  8
0
 10
753.30000512
 20
1273.59632877
  0
VERTEX
  8
0
 10
752.79780326
 20
1273.65148028
  0
VERTEX
  8
0
 10
752.30240323
 20
1273.72238937
  0
VERTEX
  8
0
 10
751.81380503
 20
1273.80905604
  0
VERTEX
  8
0
 10
751.33200866
 20
1273.91148028
  0
VERTEX
  8
0
 10
750.85701412
 20
1274.02966209
  0
VERTEX
  8
0
 10
750.38882142
 20
1274.16360148
  0
VERTEX
  8
0
 10
749.92743054
 20
1274.31329845
  0
VERTEX
  8
0
 10
749.47284150
 20
1274.47875299
  0
VERTEX
  8
0
 10
749.02505428
 20
1274.65996510
  0
VERTEX
  8
0
 10
748.58406890
 20
1274.85693480
  0
VERTEX
  8
0
 10
748.14988535
 20
1275.06966206
  0
VERTEX
  8
0
 10
747.72250363
 20
1275.29814691
  0
VERTEX
  8
0
 10
747.30192374
 20
1275.54238932
  0
VERTEX
  8
0
 10
746.88814568
 20
1275.80238932
  0
VERTEX
  8
0
 10
746.48116946
 20
1276.07814689
  0
VERTEX
  8
0
 10
746.08099506
 20
1276.36966203
  0
VERTEX
  8
0
 10
745.68762249
 20
1276.67693475
  0
VERTEX
  8
0
 10
745.30105176
 20
1276.99996504
  0
VERTEX
  8
0
 10
744.92128286
 20
1277.33875291
  0
VERTEX
  8
0
 10
744.54831579
 20
1277.69329836
  0
VERTEX
  8
0
 10
744.18215055
 20
1278.06360138
  0
VERTEX
  8
0
 10
743.82278714
 20
1278.44966198
  0
VERTEX
  8
0
 10
743.47022556
 20
1278.85148015
  0
VERTEX
  8
0
 10
743.12446581
 20
1279.26905590
  0
VERTEX
  8
0
 10
742.78550790
 20
1279.70238922
  0
VERTEX
  8
0
 10
742.12799756
 20
1280.61632859
  0
VERTEX
  8
0
 10
741.49769454
 20
1281.59329826
  0
VERTEX
  8
0
 10
741.13220949
 20
1282.23403075
  0
VERTEX
  8
0
 10
740.79030411
 20
1282.92282951
  0
VERTEX
  8
0
 10
740.47197842
 20
1283.65969454
  0
VERTEX
  8
0
 10
740.17723240
 20
1284.44462585
  0
VERTEX
  8
0
 10
739.90606607
 20
1285.27762343
  0
VERTEX
  8
0
 10
739.65847942
 20
1286.15868729
  0
VERTEX
  8
0
 10
739.43447245
 20
1287.08781741
  0
VERTEX
  8
0
 10
739.23404516
 20
1288.06501381
  0
VERTEX
  8
0
 10
739.05719755
 20
1289.09027649
  0
VERTEX
  8
0
 10
738.90392962
 20
1290.16360543
  0
VERTEX
  8
0
 10
738.77424138
 20
1291.28500065
  0
VERTEX
  8
0
 10
738.66813281
 20
1292.45446214
  0
VERTEX
  8
0
 10
738.58560393
 20
1293.67198991
  0
VERTEX
  8
0
 10
738.52665473
 20
1294.93758394
  0
VERTEX
  8
0
 10
738.49128520
 20
1296.25124425
  0
VERTEX
  8
0
 10
738.47949536
 20
1297.61297084
  0
SEQEND
  0
POLYLINE
  8
Default Layer
 66
   1
 39
0.000000
 70
    1
  0
VERTEX
  8
0
 10
561.15949448
 20
1822.17809562
  0
VERTEX
  8
0
 10
571.60710703
 20
1822.17809562
  0
VERTEX
  8
0
 10
571.60710703
 20
1854.15939849
  0
VERTEX
  8
0
 10
571.63340744
 20
1856.20176164
  0
VERTEX
  8
0
 10
571.71230868
 20
1858.12078491
  0
VERTEX
  8
0
 10
571.77148462
 20
1859.03404410
  0
VERTEX
  8
0
 10
571.84381075
 20
1859.91646832
  0
VERTEX
  8
0
 10
571.92928710
 20
1860.76805757
  0
VERTEX
  8
0
 10
572.02791365
 20
1861.58881186
  0
VERTEX
  8
0
 10
572.13969040
 20
1862.37873117
  0
VERTEX
  8
0
 10
572.26461737
 20
1863.13781552
  0
VERTEX
  8
0
 10
572.40269454
 20
1863.86606491
  0
VERTEX
  8
0
 10
572.55392192
 20
1864.56347932
  0
VERTEX
  8
0
 10
572.71829950
 20
1865.23005877
  0
VERTEX
  8
0
 10
572.89582729
 20
1865.86580325
  0
VERTEX
  8
0
 10
573.08650529
 20
1866.47071276
  0
VERTEX
  8
0
 10
573.29033350
 20
1867.04478730
  0
VERTEX
  8
0
 10
573.50867228
 20
1867.59505544
  0
VERTEX
  8
0
 10
573.74288199
 20
1868.12854572
  0
VERTEX
  8
0
 10
573.99296265
 20
1868.64525816
  0
VERTEX
  8
0
 10
574.25891424
 20
1869.14519274
  0
VERTEX
  8
0
 10
574.54073678
 20
1869.62834948
  0
VERTEX
  8
0
 10
574.83843025
 20
1870.09472836
  0
VERTEX
  8
0
 10
575.15199467
 20
1870.54432940
  0
VERTEX
  8
0
 10
575.48143002
 20
1870.97715258
  0
VERTEX
  8
0
 10
575.82673631
 20
1871.39319792
  0
VERTEX
  8
0
 10
576.18791354
 20
1871.79246540
  0
VERTEX
  8
0
 10
576.56496171
 20
1872.17495504
  0
VERTEX
  8
0
 10
576.95788082
 20
1872.54066682
  0
VERTEX
  8
0
 10
577.36667087
 20
1872.88960075
  0
VERTEX
  8
0
 10
577.79133186
 20
1873.22175684
  0
VERTEX
  8
0
 10
578.23186378
 20
1873.53713507
  0
VERTEX
  8
0
 10
578.68826665
 20
1873.83573546
  0
VERTEX
  8
0
 10
579.16235428
 20
1874.11687781
  0
VERTEX
  8
0
 10
579.64142991
 20
1874.37988195
  0
VERTEX
  8
0
 10
580.12549356
 20
1874.62474787
  0
VERTEX
  8
0
 10
580.61454521
 20
1874.85147557
  0
VERTEX
  8
0
 10
581.10858488
 20
1875.06006505
  0
VERTEX
  8
0
 10
581.60761255
 20
1875.25051633
  0
VERTEX
  8
0
 10
582.11162824
 20
1875.42282938
  0
VERTEX
  8
0
 10
582.62063193
 20
1875.57700422
  0
VERTEX
  8
0
 10
583.13462363
 20
1875.71304084
  0
VERTEX
  8
0
 10
583.65360334
 20
1875.83093924
  0
VERTEX
  8
0
 10
584.17757106
 20
1875.93069943
  0
VERTEX
  8
0
 10
584.70652680
 20
1876.01232141
  0
VERTEX
  8
0
 10
585.24047054
 20
1876.07580516
  0
VERTEX
  8
0
 10
585.77940229
 20
1876.12115070
  0
VERTEX
  8
0
 10
586.32332204
 20
1876.14835803
  0
VERTEX
  8
0
 10
586.87222981
 20
1876.15742714
  0
VERTEX
  8
0
 10
587.58506171
 20
1876.14382348
  0
VERTEX
  8
0
 10
588.27250011
 20
1876.10301249
  0
VERTEX
  8
0
 10
588.93454500
 20
1876.03499418
  0
VERTEX
  8
0
 10
589.57119639
 20
1875.93976854
  0
VERTEX
  8
0
 10
590.18245428
 20
1875.81733558
  0
VERTEX
  8
0
 10
590.76831866
 20
1875.66769530
  0
VERTEX
  8
0
 10
591.32878954
 20
1875.49084769
  0
VERTEX
  8
0
 10
591.86386692
 20
1875.28679276
  0
VERTEX
  8
0
 10
592.37355080
 20
1875.05553050
  0
VERTEX
  8
0
 10
592.85784117
 20
1874.79706092
  0
VERTEX
  8
0
 10
593.31673804
 20
1874.51138401
  0
VERTEX
  8
0
 10
593.75024141
 20
1874.19849978
  0
VERTEX
  8
0
 10
594.15835128
 20
1873.85840823
  0
VERTEX
  8
0
 10
594.54106764
 20
1873.49110935
  0
VERTEX
  8
0
 10
594.89839050
 20
1873.09660315
  0
VERTEX
  8
0
 10
595.23031985
 20
1872.67488962
  0
VERTEX
  8
0
 10
595.53957644
 20
1872.22596877
  0
VERTEX
  8
0
 10
595.82888099
 20
1871.74984059
  0
VERTEX
  8
0
 10
596.09823350
 20
1871.24650509
  0
VERTEX
  8
0
 10
596.34763397
 20
1870.71596227
  0
VERTEX
  8
0
 10
596.57708241
 20
1870.15821212
  0
VERTEX
  8
0
 10
596.78657881
 20
1869.57325464
  0
VERTEX
  8
0
 10
596.97612317
 20
1868.96108985
  0
VERTEX
  8
0
 10
597.14571549
 20
1868.32171772
  0
VERTEX
  8
0
 10
597.29535577
 20
1867.65513828
  0
VERTEX
  8
0
 10
597.42504402
 20
1866.96135151
  0
VERTEX
  8
0
 10
597.53478023
 20
1866.24035741
  0
VERTEX
  8
0
 10
597.62456440
 20
1865.49215599
  0
VERTEX
  8
0
 10
597.69439653
 20
1864.71674725
  0
VERTEX
  8
0
 10
597.74427662
 20
1863.91413118
  0
VERTEX
  8
0
 10
597.77420468
 20
1863.08430779
  0
VERTEX
  8
0
 10
597.78418070
 20
1862.22727707
  0
VERTEX
  8
0
 10
597.78418070
 20
1822.17809562
  0
VERTEX
  8
0
 10
608.23179325
 20
1822.17809562
  0
VERTEX
  8
0
 10
608.23179325
 20
1857.99018976
  0
VERTEX
  8
0
 10
608.24857110
 20
1859.15965125
  0
VERTEX
  8
0
 10
608.29890465
 20
1860.28830175
  0
VERTEX
  8
0
 10
608.38279390
 20
1861.37614127
  0
VERTEX
  8
0
 10
608.50023885
 20
1862.42316980
  0
VERTEX
  8
0
 10
608.65123950
 20
1863.42938735
  0
VERTEX
  8
0
 10
608.83579585
 20
1864.39479391
  0
VERTEX
  8
0
 10
609.05390790
 20
1865.31938948
  0
VERTEX
  8
0
 10
609.30557565
 20
1866.20317407
  0
VERTEX
  8
0
 10
609.59079910
 20
1867.04614767
  0
VERTEX
  8
0
 10
609.90957825
 20
1867.84831028
  0
VERTEX
  8
0
 10
610.26191310
 20
1868.60966191
  0
VERTEX
  8
0
 10
610.64780365
 20
1869.33020255
  0
VERTEX
  8
0
 10
611.06724990
 20
1870.00993220
  0
VERTEX
  8
0
 10
611.52025186
 20
1870.64885087
  0
VERTEX
  8
0
 10
612.00680951
 20
1871.24695855
  0
VERTEX
  8
0
 10
612.52692286
 20
1871.80425524
  0
VERTEX
  8
0
 10
613.07242971
 20
1872.33139715
  0
VERTEX
  8
0
 10
613.63516787
 20
1872.82452990
  0
VERTEX
  8
0
 10
614.21513733
 20
1873.28365350
  0
VERTEX
  8
0
 10
614.81233810
 20
1873.70876795
  0
VERTEX
  8
0
 10
615.42677018
 20
1874.09987323
  0
VERTEX
  8
0
 10
616.05843356
 20
1874.45696937
  0
VERTEX
  8
0
 10
616.70732824
 20
1874.78005634
  0
VERTEX
  8
0
 10
617.37345423
 20
1875.06913416
  0
VERTEX
  8
0
 10
618.05681153
 20
1875.32420283
  0
VERTEX
  8
0
 10
618.75740013
 20
1875.54526234
  0
VERTEX
  8
0
 10
619.47522004
 20
1875.73231269
  0
VERTEX
  8
0
 10
620.21027125
 20
1875.88535389
  0
VERTEX
  8
0
 10
620.96255377
 20
1876.00438594
  0
VERTEX
  8
0
 10
621.73206760
 20
1876.08940883
  0
VERTEX
  8
0
 10
622.51881272
 20
1876.14042256
  0
VERTEX
  8
0
 10
623.32278916
 20
1876.15742714
  0
VERTEX
  8
0
 10
624.20793411
 20
1876.13112672
  0
VERTEX
  8
0
 10
625.06405792
 20
1876.05222548
  0
VERTEX
  8
0
 10
625.89116058
 20
1875.92072342
  0
VERTEX
  8
0
 10
626.68924209
 20
1875.73662052
  0
VERTEX
  8
0
 10
627.45830246
 20
1875.49991680
  0
VERTEX
  8
0
 10
628.19834168
 20
1875.21061225
  0
VERTEX
  8
0
 10
628.90935976
 20
1874.86870687
  0
VERTEX
  8
0
 10
629.25398587
 20
1874.67802888
  0
VERTEX
  8
0
 10
629.59135669
 20
1874.47420067
  0
VERTEX
  8
0
 10
630.23254263
 20
1874.03616275
  0
VERTEX
  8
0
 10
630.82112775
 20
1873.56366222
  0
VERTEX
  8
0
 10
631.09569500
 20
1873.31448847
  0
VERTEX
  8
0
 10
631.35711204
 20
1873.05669907
  0
VERTEX
  8
0
 10
631.60537887
 20
1872.79029402
  0
VERTEX
  8
0
 10
631.84049550
 20
1872.51527332
  0
VERTEX
  8
0
 10
632.06246192
 20
1872.23163696
  0
VERTEX
  8
0
 10
632.27127814
 20
1871.93938495
  0
VERTEX
  8
0
 10
632.46694415
 20
1871.63851729
  0
VERTEX
  8
0
 10
632.64945995
 20
1871.32903398
  0
VERTEX
  8
0
 10
632.81882554
 20
1871.01093501
  0
VERTEX
  8
0
 10
632.97504093
 20
1870.68422039
  0
VERTEX
  8
0
 10
633.11810611
 20
1870.34889012
  0
VERTEX
  8
0
 10
633.24802108
 20
1870.00494419
  0
VERTEX
  8
0
 10
633.37453514
 20
1869.65011534
  0
VERTEX
  8
0
 10
633.49288700
 20
1869.26762570
  0
VERTEX
  8
0
 10
633.70510413
 20
1868.41966409
  0
VERTEX
  8
0
 10
633.88467247
 20
1867.46105936
  0
VERTEX
  8
0
 10
634.03159202
 20
1866.39181152
  0
VERTEX
  8
0
 10
634.14586279
 20
1865.21192055
  0
VERTEX
  8
0
 10
634.22748476
 20
1863.92138647
  0
VERTEX
  8
0
 10
634.27645794
 20
1862.52020926
  0
VERTEX
  8
0
 10
634.29278234
 20
1861.00838894
  0
VERTEX
  8
0
 10
634.29278234
 20
1822.17809562
  0
VERTEX
  8
0
 10
644.68235260
 20
1822.17809562
  0
VERTEX
  8
0
 10
644.68235260
 20
1864.49092646
  0
VERTEX
  8
0
 10
644.66308074
 20
1865.78984947
  0
VERTEX
  8
0
 10
644.60526518
 20
1867.04569421
  0
VERTEX
  8
0
 10
644.50890590
 20
1868.25846069
  0
VERTEX
  8
0
 10
644.37400292
 20
1869.42814891
  0
VERTEX
  8
0
 10
644.20055623
 20
1870.55475887
  0
VERTEX
  8
0
 10
643.98856583
 20
1871.63829056
  0
VERTEX
  8
0
 10
643.73803171
 20
1872.67874399
  0
VERTEX
  8
0
 10
643.44895389
 20
1873.67611916
  0
VERTEX
  8
0
 10
643.12133236
 20
1874.63041606
  0
VERTEX
  8
0
 10
642.75516712
 20
1875.54163470
  0
VERTEX
  8
0
 10
642.35045817
 20
1876.40977507
  0
VERTEX
  8
0
 10
641.90720551
 20
1877.23483718
  0
VERTEX
  8
0
 10
641.42540914
 20
1878.01682103
  0
VERTEX
  8
0
 10
640.90506907
 20
1878.75572661
  0
VERTEX
  8
0
 10
640.34618528
 20
1879.45155393
  0
VERTEX
  8
0
 10
639.74875778
 20
1880.10430299
  0
VERTEX
  8
0
 10
639.11550731
 20
1880.72281616
  0
VERTEX
  8
0
 10
638.44915459
 20
1881.30142526
  0
VERTEX
  8
0
 10
637.74969962
 20
1881.84013028
  0
VERTEX
  8
0
 10
637.01714242
 20
1882.33893123
  0
VERTEX
  8
0
 10
636.25148296
 20
1882.79782810
  0
VERTEX
  8
0
 10
635.45272127
 20
1883.21682090
  0
VERTEX
  8
0
 10
634.62085732
 20
1883.59590962
  0
VERTEX
  8
0
 10
633.75589114
 20
1883.93509426
  0
VERTEX
  8
0
 10
632.85782271
 20
1884.23437483
  0
VERTEX
  8
0
 10
631.92665203
 20
1884.49375132
  0
VERTEX
  8
0
 10
630.96237911
 20
1884.71322374
  0
VERTEX
  8
0
 10
629.96500394
 20
1884.89279208
  0
VERTEX
  8
0
 10
628.93452653
 20
1885.03245634
  0
VERTEX
  8
0
 10
627.87094688
 20
1885.13221653
  0
VERTEX
  8
0
 10
626.77426498
 20
1885.19207264
  0
VERTEX
  8
0
 10
625.64448084
 20
1885.21202468
  0
VERTEX
  8
0
 10
624.91600473
 20
1885.20148184
  0
VERTEX
  8
0
 10
624.19614427
 20
1885.16985333
  0
VERTEX
  8
0
 10
623.48489947
 20
1885.11713914
  0
VERTEX
  8
0
 10
622.78227032
 20
1885.04333927
  0
VERTEX
  8
0
 10
622.08825682
 20
1884.94845373
  0
VERTEX
  8
0
 10
621.40285897
 20
1884.83248251
  0
VERTEX
  8
0
 10
620.72607678
 20
1884.69542561
  0
VERTEX
  8
0
 10
620.05791024
 20
1884.53728304
  0
VERTEX
  8
0
 10
619.39835935
 20
1884.35805479
  0
VERTEX
  8
0
 10
618.74742411
 20
1884.15774086
  0
VERTEX
  8
0
 10
618.10510453
 20
1883.93634126
  0
VERTEX
  8
0
 10
617.47140060
 20
1883.69385598
  0
VERTEX
  8
0
 10
616.84631232
 20
1883.43028503
  0
VERTEX
  8
0
 10
616.22983970
 20
1883.14562840
  0
VERTEX
  8
0
 10
615.62198273
 20
1882.83988609
  0
VERTEX
  8
0
 10
615.02274141
 20
1882.51305811
  0
VERTEX
  8
0
 10
614.43211574
 20
1882.16514445
  0
VERTEX
  8
0
 10
613.85010573
 20
1881.79614511
  0
VERTEX
  8
0
 10
613.27671137
 20
1881.40606010
  0
VERTEX
  8
0
 10
612.71193266
 20
1880.99488941
  0
VERTEX
  8
0
 10
612.15576961
 20
1880.56263304
  0
VERTEX
  8
0
 10
611.60822220
 20
1880.10929100
  0
VERTEX
  8
0
 10
611.06929045
 20
1879.63486328
  0
VERTEX
  8
0
 10
610.53897436
 20
1879.13934989
  0
VERTEX
  8
0
 10
610.01727391
 20
1878.62275082
  0
VERTEX
  8
0
 10
609.50418912
 20
1878.08506607
  0
VERTEX
  8
0
 10
608.99971998
 20
1877.52629564
  0
VERTEX
  8
0
 10
608.50386650
 20
1876.94643954
  0
VERTEX
  8
0
 10
608.01662866
 20
1876.34549777
  0
VERTEX
  8
0
 10
607.53800648
 20
1875.72347031
  0
VERTEX
  8
0
 10
607.06799995
 20
1875.08035718
  0
VERTEX
  8
0
 10
606.60660908
 20
1874.41615838
  0
VERTEX
  8
0
 10
606.37149245
 20
1875.04578121
  0
VERTEX
  8
0
 10
606.11597033
 20
1875.65771928
  0
VERTEX
  8
0
 10
605.84004271
 20
1876.25197259
  0
VERTEX
  8
0
 10
605.54370961
 20
1876.82854114
  0
VERTEX
  8
0
 10
605.22697100
 20
1877.38742493
  0
VERTEX
  8
0
 10
604.88982691
 20
1877.92862395
  0
VERTEX
  8
0
 10
604.53227732
 20
1878.45213822
  0
VERTEX
  8
0
 10
604.15432224
 20
1878.95796772
  0
VERTEX
  8
0
 10
603.75596167
 20
1879.44611247
  0
VERTEX
  8
0
 10
603.33719560
 20
1879.91657245
  0
VERTEX
  8
0
 10
602.89802404
 20
1880.36934767
  0
VERTEX
  8
0
 10
602.43844699
 20
1880.80443814
  0
VERTEX
  8
0
 10
601.95846444
 20
1881.22184384
  0
VERTEX
  8
0
 10
601.45807640
 20
1881.62156478
  0
VERTEX
  8
0
 10
600.93728287
 20
1882.00360096
  0
VERTEX
  8
0
 10
600.39608384
 20
1882.36795238
  0
VERTEX
  8
0
 10
599.84218806
 20
1882.71235176
  0
VERTEX
  8
0
 10
599.26879370
 20
1883.03453182
  0
VERTEX
  8
0
 10
598.67590076
 20
1883.33449257
  0
VERTEX
  8
0
 10
598.06350923
 20
1883.61223401
  0
VERTEX
  8
0
 10
597.43161912
 20
1883.86775613
  0
VERTEX
  8
0
 10
596.78023043
 20
1884.10105894
  0
VERTEX
  8
0
 10
596.10934316
 20
1884.31214243
  0
VERTEX
  8
0
 10
595.41895730
 20
1884.50100661
  0
VERTEX
  8
0
 10
594.70907287
 20
1884.66765147
  0
VERTEX
  8
0
 10
593.97968985
 20
1884.81207701
  0
VERTEX
  8
0
 10
593.23080824
 20
1884.93428325
  0
VERTEX
  8
0
 10
592.46242806
 20
1885.03427016
  0
VERTEX
  8
0
 10
591.67454929
 20
1885.11203776
  0
VERTEX
  8
0
 10
590.86717194
 20
1885.16758605
  0
VERTEX
  8
0
 10
590.04029601
 20
1885.20091502
  0
VERTEX
  8
0
 10
589.19392149
 20
1885.21202468
  0
VERTEX
  8
0
 10
588.43007586
 20
1885.20114175
  0
VERTEX
  8
0
 10
587.67665970
 20
1885.16849296
  0
VERTEX
  8
0
 10
586.93367302
 20
1885.11407831
  0
VERTEX
  8
0
 10
586.20111581
 20
1885.03789781
  0
VERTEX
  8
0
 10
585.47898808
 20
1884.93995144
  0
VERTEX
  8
0
 10
584.76728982
 20
1884.82023921
  0
VERTEX
  8
0
 10
584.06602103
 20
1884.67876112
  0
VERTEX
  8
0
 10
583.37518172
 20
1884.51551718
  0
VERTEX
  8
0
 10
582.69477189
 20
1884.33050737
  0
VERTEX
  8
0
 10
582.02479153
 20
1884.12373171
  0
VERTEX
  8
0
 10
581.36524064
 20
1883.89519018
  0
VERTEX
  8
0
 10
580.71611922
 20
1883.64488280
  0
VERTEX
  8
0
 10
580.07742728
 20
1883.37280956
  0
VERTEX
  8
0
 10
579.44916482
 20
1883.07897045
  0
VERTEX
  8
0
 10
578.83133183
 20
1882.76336549
  0
VERTEX
  8
0
 10
578.22392831
 20
1882.42599467
  0
VERTEX
  8
0
 10
577.62922155
 20
1882.07796764
  0
VERTEX
  8
0
 10
577.04947881
 20
1881.71588350
  0
VERTEX
  8
0
 10
576.48470010
 20
1881.33974224
  0
VERTEX
  8
0
 10
575.93488542
 20
1880.94954387
  0
VERTEX
  8
0
 10
575.40003477
 20
1880.54528837
  0
VERTEX
  8
0
 10
574.88014815
 20
1880.12697576
  0
VERTEX
  8
0
 10
574.37522556
 20
1879.69460603
  0
VERTEX
  8
0
 10
573.88526699
 20
1879.24817918
  0
VERTEX
  8
0
 10
573.41027245
 20
1878.78769522
  0
VERTEX
  8
0
 10
572.95024194
 20
1878.31315414
  0
VERTEX
  8
0
 10
572.50517546
 20
1877.82455594
  0
VERTEX
  8
0
 10
572.07507301
 20
1877.32190062
  0
VERTEX
  8
0
 10
571.65993459
 20
1876.80518818
  0
VERTEX
  8
0
 10
571.25976019
 20
1876.27441863
  0
VERTEX
  8
0
 10
570.87454982
 20
1875.72959196
  0
VERTEX
  8
0
 10
570.50430348
 20
1875.17070817
  0
VERTEX
  8
0
 10
570.50430348
 20
1883.81900967
  0
VERTEX
  8
0
 10
561.15949448
 20
1883.81900967
  0
VERTEX
  8
0
 10
561.15949448
 20
1822.17809562
  0
SEQEND
  0
POLYLINE
  8
Default Layer
 66
   1
 39
0.000000
 70
    1
  0
VERTEX
  8
0
 10
561.74658542
 20
2297.37415777
  0
VERTEX
  8
0
 10
560.39347449
 20
2297.19640325
  0
VERTEX
  8
0
 10
559.17821400
 20
2297.06943574
  0
VERTEX
  8
0
 10
558.10080396
 20
2296.99325523
  0
VERTEX
  8
0
 10
557.16124435
 20
2296.96786173
  0
VERTEX
  8
0
 10
556.59714583
 20
2296.97965157
  0
VERTEX
  8
0
 10
556.06569609
 20
2297.01502109
  0
VERTEX
  8
0
 10
555.56689515
 20
2297.07397029
  0
VERTEX
  8
0
 10
555.10074299
 20
2297.15649918
  0
VERTEX
  8
0
 10
554.66723962
 20
2297.26260774
  0
VERTEX
  8
0
 10
554.26638504
 20
2297.39229599
  0
VERTEX
  8
0
 10
553.89817925
 20
2297.54556391
  0
VERTEX
  8
0
 10
553.56262225
 20
2297.72241152
  0
VERTEX
  8
0
 10
553.26787624
 20
2297.91921117
  0
VERTEX
  8
0
 10
552.99308226
 20
2298.13233521
  0
VERTEX
  8
0
 10
552.73824033
 20
2298.36178364
  0
VERTEX
  8
0
 10
552.50335043
 20
2298.60755647
  0
VERTEX
  8
0
 10
552.28841256
 20
2298.86965370
  0
VERTEX
  8
0
 10
552.09342674
 20
2299.14807532
  0
VERTEX
  8
0
 10
551.91839295
 20
2299.44282133
  0
VERTEX
  8
0
 10
551.76331120
 20
2299.75389174
  0
VERTEX
  8
0
 10
551.64087824
 20
2300.12300444
  0
VERTEX
  8
0
 10
551.53476968
 20
2300.59187733
  0
VERTEX
  8
0
 10
551.44498551
 20
2301.16051041
  0
VERTEX
  8
0
 10
551.37152573
 20
2301.82890368
  0
VERTEX
  8
0
 10
551.31439035
 20
2302.59705714
  0
VERTEX
  8
0
 10
551.27357936
 20
2303.46497078
  0
VERTEX
  8
0
 10
551.24909277
 20
2304.43264462
  0
VERTEX
  8
0
 10
551.24093058
 20
2305.50007864
  0
VERTEX
  8
0
 10
551.24093058
 20
2341.54434195
  0
VERTEX
  8
0
 10
561.74658542
 20
2341.54434195
  0
VERTEX
  8
0
 10
561.74658542
 20
2349.67026282
  0
VERTEX
  8
0
 10
551.24093058
 20
2349.67026282
  0
VERTEX
  8
0
 10
551.24093058
 20
2371.20395313
  0
VERTEX
  8
0
 10
540.85136032
 20
2364.93538560
  0
VERTEX
  8
0
 10
540.85136032
 20
2349.67026282
  0
VERTEX
  8
0
 10
533.18977778
 20
2349.67026282
  0
VERTEX
  8
0
 10
533.18977778
 20
2341.54434195
  0
VERTEX
  8
0
 10
540.85136032
 20
2341.54434195
  0
VERTEX
  8
0
 10
540.85136032
 20
2306.08050156
  0
VERTEX
  8
0
 10
540.87131235
 20
2303.83045584
  0
VERTEX
  8
0
 10
540.93116847
 20
2301.78174432
  0
VERTEX
  8
0
 10
541.03092866
 20
2299.93436699
  0
VERTEX
  8
0
 10
541.17059292
 20
2298.28832387
  0
VERTEX
  8
0
 10
541.25538908
 20
2297.54080263
  0
VERTEX
  8
0
 10
541.35016126
 20
2296.84361495
  0
VERTEX
  8
0
 10
541.45490946
 20
2296.19676081
  0
VERTEX
  8
0
 10
541.56963368
 20
2295.60024022
  0
VERTEX
  8
0
 10
541.69433392
 20
2295.05405319
  0
VERTEX
  8
0
 10
541.82901017
 20
2294.55819970
  0
VERTEX
  8
0
 10
541.97366245
 20
2294.11267976
  0
VERTEX
  8
0
 10
542.12829074
 20
2293.71749338
  0
VERTEX
  8
0
 10
542.29516233
 20
2293.35903688
  0
VERTEX
  8
0
 10
542.47654449
 20
2293.00919603
  0
VERTEX
  8
0
 10
542.67243723
 20
2292.66797084
  0
VERTEX
  8
0
 10
542.88284053
 20
2292.33536130
  0
VERTEX
  8
0
 10
543.10775442
 20
2292.01136741
  0
VERTEX
  8
0
 10
543.34717887
 20
2291.69598918
  0
VERTEX
  8
0
 10
543.60111390
 20
2291.38922660
  0
VERTEX
  8
0
 10
543.86955950
 20
2291.09107967
  0
VERTEX
  8
0
 10
544.15251567
 20
2290.80154839
  0
VERTEX
  8
0
 10
544.44998242
 20
2290.52063277
  0
VERTEX
  8
0
 10
544.76195974
 20
2290.24833280
  0
VERTEX
  8
0
 10
545.08844763
 20
2289.98464848
  0
VERTEX
  8
0
 10
545.42944609
 20
2289.72957981
  0
VERTEX
  8
0
 10
545.78495513
 20
2289.48312680
  0
VERTEX
  8
0
 10
546.53950493
 20
2289.01606773
  0
VERTEX
  8
0
 10
546.94126642
 20
2288.79818241
  0
VERTEX
  8
0
 10
547.36297994
 20
2288.59435420
  0
VERTEX
  8
0
 10
547.80464551
 20
2288.40458311
  0
VERTEX
  8
0
 10
548.26626311
 20
2288.22886915
  0
VERTEX
  8
0
 10
548.74783275
 20
2288.06721229
  0
VERTEX
  8
0
 10
549.24935443
 20
2287.91961256
  0
VERTEX
  8
0
 10
549.77082815
 20
2287.78606994
  0
VERTEX
  8
0
 10
550.31225390
 20
2287.66658444
  0
VERTEX
  8
0
 10
550.87363170
 20
2287.56115606
  0
VERTEX
  8
0
 10
551.45496153
 20
2287.46978480
  0
VERTEX
  8
0
 10
552.05624340
 20
2287.39247065
  0
VERTEX
  8
0
 10
552.67747730
 20
2287.32921362
  0
VERTEX
  8
0
 10
553.31866325
 20
2287.28001371
  0
VERTEX
  8
0
 10
553.97980123
 20
2287.24487091
  0
VERTEX
  8
0
 10
555.36193330
 20
2287.21675668
  0
VERTEX
  8
0
 10
556.24707826
 20
2287.23126725
  0
VERTEX
  8
0
 10
557.16124435
 20
2287.27479897
  0
VERTEX
  8
0
 10
558.10443160
 20
2287.34735184
  0
VERTEX
  8
0
 10
559.07663999
 20
2287.44892585
  0
VERTEX
  8
0
 10
560.07786952
 20
2287.57952100
  0
VERTEX
  8
0
 10
561.10812021
 20
2287.73913731
  0
VERTEX
  8
0
 10
562.16739204
 20
2287.92777476
  0
VERTEX
  8
0
 10
563.25568501
 20
2288.14543335
  0
VERTEX
  8
0
 10
561.74658542
 20
2297.37415777
  0
SEQEND
  0
POLYLINE
  8
Default Layer
 66
   1
 39
0.000000
 70
    1
  0
VERTEX
  8
0
 10
28.00637850
 20
1863.42915318
  0
VERTEX
  8
0
 10
28.07412514
 20
1914.45707841
  0
VERTEX
  8
0
 10
30.99835532
 20
1954.04967437
  0
VERTEX
  8
0
 10
39.78433595
 20
2054.25737305
  0
VERTEX
  8
0
 10
55.94361513
 20
2137.32428116
  0
VERTEX
  8
0
 10
80.81778620
 20
2234.45542769
  0
VERTEX
  8
0
 10
106.96255295
 20
2319.58576351
  0
VERTEX
  8
0
 10
121.55069165
 20
2363.89547779
  0
VERTEX
  8
0
 10
134.88950442
 20
2401.39704525
  0
VERTEX
  8
0
 10
149.60906848
 20
2401.25181697
  0
VERTEX
  8
0
 10
285.35406470
 20
2401.31499224
  0
VERTEX
  8
0
 10
335.40610998
 20
2351.25819671
  0
VERTEX
  8
0
 10
334.88983861
 20
1300.94165318
  0
VERTEX
  8
0
 10
31.06082037
 20
1301.10325318
  0
VERTEX
  8
0
 10
28.00637850
 20
1863.42915318
  0
SEQEND
  0
POLYLINE
  8
Default Layer
 66
   1
 39
0.000000
 70
    1
  0
VERTEX
  8
0
 10
119.15755866
 20
1962.38849936
  0
VERTEX
  8
0
 10
119.14723289
 20
1962.59298774
  0
VERTEX
  8
0
 10
119.11692577
 20
1962.79156912
  0
VERTEX
  8
0
 10
119.06764262
 20
1962.98323818
  0
VERTEX
  8
0
 10
119.00038875
 20
1963.16698962
  0
VERTEX
  8
0
 10
118.91616946
 20
1963.34181812
  0
VERTEX
  8
0
 10
118.81599007
 20
1963.50671838
  0
VERTEX
  8
0
 10
118.70085589
 20
1963.66068508
  0
VERTEX
  8
0
 10
118.57177222
 20
1963.80271292
  0
VERTEX
  8
0
 10
118.42974438
 20
1963.93179659
  0
VERTEX
  8
0
 10
118.27577768
 20
1964.04693077
  0
VERTEX
  8
0
 10
118.11087742
 20
1964.14711016
  0
VERTEX
  8
0
 10
117.93604892
 20
1964.23132945
  0
VERTEX
  8
0
 10
117.75229748
 20
1964.29858332
  0
VERTEX
  8
0
 10
117.56062842
 20
1964.34786647
  0
VERTEX
  8
0
 10
117.36204704
 20
1964.37817359
  0
VERTEX
  8
0
 10
117.15755866
 20
1964.38849936
  0
VERTEX
  8
0
 10
116.95307028
 20
1964.37817359
  0
VERTEX
  8
0
 10
116.75448890
 20
1964.34786647
  0
VERTEX
  8
0
 10
116.56281984
 20
1964.29858332
  0
VERTEX
  8
0
 10
116.37906840
 20
1964.23132945
  0
VERTEX
  8
0
 10
116.20423990
 20
1964.14711016
  0
VERTEX
  8
0
 10
116.03933964
 20
1964.04693077
  0
VERTEX
  8
0
 10
115.88537294
 20
1963.93179659
  0
VERTEX
  8
0
 10
115.74334510
 20
1963.80271292
  0
VERTEX
  8
0
 10
115.61426143
 20
1963.66068508
  0
VERTEX
  8
0
 10
115.49912725
 20
1963.50671838
  0
VERTEX
  8
0
 10
115.39894786
 20
1963.34181812
  0
VERTEX
  8
0
 10
115.31472858
 20
1963.16698962
  0
VERTEX
  8
0
 10
115.24747470
 20
1962.98323818
  0
VERTEX
  8
0
 10
115.19819155
 20
1962.79156912
  0
VERTEX
  8
0
 10
115.16788444
 20
1962.59298774
  0
VERTEX
  8
0
 10
115.15755866
 20
1962.38849936
  0
VERTEX
  8
0
 10
115.16788444
 20
1962.18401098
  0
VERTEX
  8
0
 10
115.19819155
 20
1961.98542960
  0
VERTEX
  8
0
 10
115.24747470
 20
1961.79376054
  0
VERTEX
  8
0
 10
115.31472858
 20
1961.61000910
  0
VERTEX
  8
0
 10
115.39894786
 20
1961.43518060
  0
VERTEX
  8
0
 10
115.49912725
 20
1961.27028034
  0
VERTEX
  8
0
 10
115.61426143
 20
1961.11631364
  0
VERTEX
  8
0
 10
115.74334510
 20
1960.97428580
  0
VERTEX
  8
0
 10
115.88537294
 20
1960.84520213
  0
VERTEX
  8
0
 10
116.03933964
 20
1960.73006795
  0
VERTEX
  8
0
 10
116.20423990
 20
1960.62988856
  0
VERTEX
  8
0
 10
116.37906840
 20
1960.54566927
  0
VERTEX
  8
0
 10
116.56281984
 20
1960.47841540
  0
VERTEX
  8
0
 10
116.75448890
 20
1960.42913225
  0
VERTEX
  8
0
 10
116.95307028
 20
1960.39882514
  0
VERTEX
  8
0
 10
117.15755866
 20
1960.38849936
  0
VERTEX
  8
0
 10
117.36204704
 20
1960.39882514
  0
VERTEX
  8
0
 10
117.56062842
 20
1960.42913225
  0
VERTEX
  8
0
 10
117.75229748
 20
1960.47841540
  0
VERTEX
  8
0
 10
117.93604892
 20
1960.54566927
  0
VERTEX
  8
0
 10
118.11087742
 20
1960.62988856
  0
VERTEX
  8
0
 10
118.27577768
 20
1960.73006795
  0
VERTEX
  8
0
 10
118.42974438
 20
1960.84520213
  0
VERTEX
  8
0
 10
118.57177222
 20
1960.97428580
  0
VERTEX
  8
0
 10
118.70085589
 20
1961.11631364
  0
VERTEX
  8
0
 10
118.81599007
 20
1961.27028034
  0
VERTEX
  8
0
 10
118.91616946
 20
1961.43518060
  0
VERTEX
  8
0
 10
119.00038875
 20
1961.61000910
  0
VERTEX
  8
0
 10
119.06764262
 20
1961.79376054
  0
VERTEX
  8
0
 10
119.11692577
 20
1961.98542960
  0
VERTEX
  8
0
 10
119.14723289
 20
1962.18401098
  0
VERTEX
  8
0
 10
119.15755866
 20
1962.38849936
  0
SEQEND
  0
POLYLINE
  8
Default Layer
 66
   1
 39
0.000000
 70
    1
  0
VERTEX
  8
0
 10
312.44255442
 20
1962.38849936
  0
VERTEX
  8
0
 10
312.43222864
 20
1962.59298774
  0
VERTEX
  8
0
 10
312.40192153
 20
1962.79156912
  0
VERTEX
  8
0
 10
312.35263838
 20
1962.98323818
  0
VERTEX
  8
0
 10
312.28538450
 20
1963.16698962
  0
VERTEX
  8
0
 10
312.20116522
 20
1963.34181812
  0
VERTEX
  8
0
 10
312.10098583
 20
1963.50671838
  0
VERTEX
  8
0
 10
311.98585165
 20
1963.66068508
  0
VERTEX
  8
0
 10
311.85676798
 20
1963.80271292
  0
VERTEX
  8
0
 10
311.71474014
 20
1963.93179659
  0
VERTEX
  8
0
 10
311.56077344
 20
1964.04693077
  0
VERTEX
  8
0
 10
311.39587318
 20
1964.14711016
  0
VERTEX
  8
0
 10
311.22104468
 20
1964.23132945
  0
VERTEX
  8
0
 10
311.03729324
 20
1964.29858332
  0
VERTEX
  8
0
 10
310.84562418
 20
1964.34786647
  0
VERTEX
  8
0
 10
310.64704280
 20
1964.37817359
  0
VERTEX
  8
0
 10
310.44255442
 20
1964.38849936
  0
VERTEX
  8
0
 10
310.23806604
 20
1964.37817359
  0
VERTEX
  8
0
 10
310.03948466
 20
1964.34786647
  0
VERTEX
  8
0
 10
309.84781560
 20
1964.29858332
  0
VERTEX
  8
0
 10
309.66406416
 20
1964.23132945
  0
VERTEX
  8
0
 10
309.48923566
 20
1964.14711016
  0
VERTEX
  8
0
 10
309.32433540
 20
1964.04693077
  0
VERTEX
  8
0
 10
309.17036870
 20
1963.93179659
  0
VERTEX
  8
0
 10
309.02834086
 20
1963.80271292
  0
VERTEX
  8
0
 10
308.89925719
 20
1963.66068508
  0
VERTEX
  8
0
 10
308.78412301
 20
1963.50671838
  0
VERTEX
  8
0
 10
308.68394362
 20
1963.34181812
  0
VERTEX
  8
0
 10
308.59972433
 20
1963.16698962
  0
VERTEX
  8
0
 10
308.53247046
 20
1962.98323818
  0
VERTEX
  8
0
 10
308.48318731
 20
1962.79156912
  0
VERTEX
  8
0
 10
308.45288019
 20
1962.59298774
  0
VERTEX
  8
0
 10
308.44255442
 20
1962.38849936
  0
VERTEX
  8
0
 10
308.45288019
 20
1962.18401098
  0
VERTEX
  8
0
 10
308.48318731
 20
1961.98542960
  0
VERTEX
  8
0
 10
308.53247046
 20
1961.79376054
  0
VERTEX
  8
0
 10
308.59972433
 20
1961.61000910
  0
VERTEX
  8
0
 10
308.68394362
 20
1961.43518060
  0
VERTEX
  8
0
 10
308.78412301
 20
1961.27028034
  0
VERTEX
  8
0
 10
308.89925719
 20
1961.11631364
  0
VERTEX
  8
0
 10
309.02834086
 20
1960.97428580
  0
VERTEX
  8
0
 10
309.17036870
 20
1960.84520213
  0
VERTEX
  8
0
 10
309.32433540
 20
1960.73006795
  0
VERTEX
  8
0
 10
309.48923566
 20
1960.62988856
  0
VERTEX
  8
0
 10
309.66406416
 20
1960.54566927
  0
VERTEX
  8
0
 10
309.84781560
 20
1960.47841540
  0
VERTEX
  8
0
 10
310.03948466
 20
1960.42913225
  0
VERTEX
  8
0
 10
310.23806604
 20
1960.39882514
  0
VERTEX
  8
0
 10
310.44255442
 20
1960.38849936
  0
VERTEX
  8
0
 10
310.64704280
 20
1960.39882514
  0
VERTEX
  8
0
 10
310.84562418
 20
1960.42913225
  0
VERTEX
  8
0
 10
311.03729324
 20
1960.47841540
  0
VERTEX
  8
0
 10
311.22104468
 20
1960.54566927
  0
VERTEX
  8
0
 10
311.39587318
 20
1960.62988856
  0
VERTEX
  8
0
 10
311.56077344
 20
1960.73006795
  0
VERTEX
  8
0
 10
311.71474014
 20
1960.84520213
  0
VERTEX
  8
0
 10
311.85676798
 20
1960.97428580
  0
VERTEX
  8
0
 10
311.98585165
 20
1961.11631364
  0
VERTEX
  8
0
 10
312.10098583
 20
1961.27028034
  0
VERTEX
  8
0
 10
312.20116522
 20
1961.43518060
  0
VERTEX
  8
0
 10
312.28538450
 20
1961.61000910
  0
VERTEX
  8
0
 10
312.35263838
 20
1961.79376054
  0
VERTEX
  8
0
 10
312.40192153
 20
1961.98542960
  0
VERTEX
  8
0
 10
312.43222864
 20
1962.18401098
  0
VERTEX
  8
0
 10
312.44255442
 20
1962.38849936
  0
SEQEND
  0
POLYLINE
  8
Default Layer
 66
   1
 39
0.000000
 70
    1
  0
VERTEX
  8
0
 10
312.35607019
 20
1706.79768919
  0
VERTEX
  8
0
 10
312.34574442
 20
1707.00217758
  0
VERTEX
  8
0
 10
312.31543730
 20
1707.20075895
  0
VERTEX
  8
0
 10
312.26615415
 20
1707.39242801
  0
VERTEX
  8
0
 10
312.19890028
 20
1707.57617945
  0
VERTEX
  8
0
 10
312.11468099
 20
1707.75100795
  0
VERTEX
  8
0
 10
312.01450160
 20
1707.91590821
  0
VERTEX
  8
0
 10
311.89936742
 20
1708.06987492
  0
VERTEX
  8
0
 10
311.77028375
 20
1708.21190276
  0
VERTEX
  8
0
 10
311.62825591
 20
1708.34098642
  0
VERTEX
  8
0
 10
311.47428921
 20
1708.45612060
  0
VERTEX
  8
0
 10
311.30938895
 20
1708.55629999
  0
VERTEX
  8
0
 10
311.13456045
 20
1708.64051928
  0
VERTEX
  8
0
 10
310.95080901
 20
1708.70777315
  0
VERTEX
  8
0
 10
310.75913995
 20
1708.75705630
  0
VERTEX
  8
0
 10
310.56055857
 20
1708.78736342
  0
VERTEX
  8
0
 10
310.35607019
 20
1708.79768919
  0
VERTEX
  8
0
 10
310.15158181
 20
1708.78736342
  0
VERTEX
  8
0
 10
309.95300043
 20
1708.75705630
  0
VERTEX
  8
0
 10
309.76133137
 20
1708.70777315
  0
VERTEX
  8
0
 10
309.57757993
 20
1708.64051928
  0
VERTEX
  8
0
 10
309.40275143
 20
1708.55629999
  0
VERTEX
  8
0
 10
309.23785117
 20
1708.45612060
  0
VERTEX
  8
0
 10
309.08388447
 20
1708.34098642
  0
VERTEX
  8
0
 10
308.94185663
 20
1708.21190276
  0
VERTEX
  8
0
 10
308.81277296
 20
1708.06987492
  0
VERTEX
  8
0
 10
308.69763878
 20
1707.91590821
  0
VERTEX
  8
0
 10
308.59745939
 20
1707.75100795
  0
VERTEX
  8
0
 10
308.51324010
 20
1707.57617945
  0
VERTEX
  8
0
 10
308.44598623
 20
1707.39242801
  0
VERTEX
  8
0
 10
308.39670308
 20
1707.20075895
  0
VERTEX
  8
0
 10
308.36639596
 20
1707.00217758
  0
VERTEX
  8
0
 10
308.35607019
 20
1706.79768919
  0
VERTEX
  8
0
 10
308.36639596
 20
1706.59320081
  0
VERTEX
  8
0
 10
308.39670308
 20
1706.39461944
  0
VERTEX
  8
0
 10
308.44598623
 20
1706.20295037
  0
VERTEX
  8
0
 10
308.51324010
 20
1706.01919894
  0
VERTEX
  8
0
 10
308.59745939
 20
1705.84437043
  0
VERTEX
  8
0
 10
308.69763878
 20
1705.67947018
  0
VERTEX
  8
0
 10
308.81277296
 20
1705.52550347
  0
VERTEX
  8
0
 10
308.94185663
 20
1705.38347563
  0
VERTEX
  8
0
 10
309.08388447
 20
1705.25439197
  0
VERTEX
  8
0
 10
309.23785117
 20
1705.13925778
  0
VERTEX
  8
0
 10
309.40275143
 20
1705.03907839
  0
VERTEX
  8
0
 10
309.57757993
 20
1704.95485911
  0
VERTEX
  8
0
 10
309.76133137
 20
1704.88760524
  0
VERTEX
  8
0
 10
309.95300043
 20
1704.83832209
  0
VERTEX
  8
0
 10
310.15158181
 20
1704.80801497
  0
VERTEX
  8
0
 10
310.35607019
 20
1704.79768919
  0
VERTEX
  8
0
 10
310.56055857
 20
1704.80801497
  0
VERTEX
  8
0
 10
310.75913995
 20
1704.83832209
  0
VERTEX
  8
0
 10
310.95080901
 20
1704.88760524
  0
VERTEX
  8
0
 10
311.13456045
 20
1704.95485911
  0
VERTEX
  8
0
 10
311.30938895
 20
1705.03907839
  0
VERTEX
  8
0
 10
311.47428921
 20
1705.13925778
  0
VERTEX
  8
0
 10
311.62825591
 20
1705.25439197
  0
VERTEX
  8
0
 10
311.77028375
 20
1705.38347563
  0
VERTEX
  8
0
 10
311.89936742
 20
1705.52550347
  0
VERTEX
  8
0
 10
312.01450160
 20
1705.67947018
  0
VERTEX
  8
0
 10
312.11468099
 20
1705.84437043
  0
VERTEX
  8
0
 10
312.19890028
 20
1706.01919894
  0
VERTEX
  8
0
 10
312.26615415
 20
1706.20295037
  0
VERTEX
  8
0
 10
312.31543730
 20
1706.39461944
  0
VERTEX
  8
0
 10
312.34574442
 20
1706.59320081
  0
VERTEX
  8
0
 10
312.35607019
 20
1706.79768919
  0
SEQEND
  0
POLYLINE
  8
Default Layer
 66
   1
 39
0.000000
 70
    1
  0
VERTEX
  8
0
 10
119.07107443
 20
1706.79768919
  0
VERTEX
  8
0
 10
119.06074866
 20
1707.00217758
  0
VERTEX
  8
0
 10
119.03044154
 20
1707.20075895
  0
VERTEX
  8
0
 10
118.98115839
 20
1707.39242801
  0
VERTEX
  8
0
 10
118.91390452
 20
1707.57617945
  0
VERTEX
  8
0
 10
118.82968523
 20
1707.75100795
  0
VERTEX
  8
0
 10
118.72950584
 20
1707.91590821
  0
VERTEX
  8
0
 10
118.61437166
 20
1708.06987492
  0
VERTEX
  8
0
 10
118.48528800
 20
1708.21190276
  0
VERTEX
  8
0
 10
118.34326016
 20
1708.34098642
  0
VERTEX
  8
0
 10
118.18929345
 20
1708.45612060
  0
VERTEX
  8
0
 10
118.02439319
 20
1708.55629999
  0
VERTEX
  8
0
 10
117.84956469
 20
1708.64051928
  0
VERTEX
  8
0
 10
117.66581325
 20
1708.70777315
  0
VERTEX
  8
0
 10
117.47414419
 20
1708.75705630
  0
VERTEX
  8
0
 10
117.27556282
 20
1708.78736342
  0
VERTEX
  8
0
 10
117.07107443
 20
1708.79768919
  0
VERTEX
  8
0
 10
116.86658605
 20
1708.78736342
  0
VERTEX
  8
0
 10
116.66800467
 20
1708.75705630
  0
VERTEX
  8
0
 10
116.47633561
 20
1708.70777315
  0
VERTEX
  8
0
 10
116.29258418
 20
1708.64051928
  0
VERTEX
  8
0
 10
116.11775567
 20
1708.55629999
  0
VERTEX
  8
0
 10
115.95285542
 20
1708.45612060
  0
VERTEX
  8
0
 10
115.79888871
 20
1708.34098642
  0
VERTEX
  8
0
 10
115.65686087
 20
1708.21190276
  0
VERTEX
  8
0
 10
115.52777721
 20
1708.06987492
  0
VERTEX
  8
0
 10
115.41264302
 20
1707.91590821
  0
VERTEX
  8
0
 10
115.31246363
 20
1707.75100795
  0
VERTEX
  8
0
 10
115.22824435
 20
1707.57617945
  0
VERTEX
  8
0
 10
115.16099048
 20
1707.39242801
  0
VERTEX
  8
0
 10
115.11170733
 20
1707.20075895
  0
VERTEX
  8
0
 10
115.08140021
 20
1707.00217758
  0
VERTEX
  8
0
 10
115.07107443
 20
1706.79768919
  0
VERTEX
  8
0
 10
115.08140021
 20
1706.59320081
  0
VERTEX
  8
0
 10
115.11170733
 20
1706.39461944
  0
VERTEX
  8
0
 10
115.16099048
 20
1706.20295037
  0
VERTEX
  8
0
 10
115.22824435
 20
1706.01919894
  0
VERTEX
  8
0
 10
115.31246363
 20
1705.84437043
  0
VERTEX
  8
0
 10
115.41264302
 20
1705.67947018
  0
VERTEX
  8
0
 10
115.52777721
 20
1705.52550347
  0
VERTEX
  8
0
 10
115.65686087
 20
1705.38347563
  0
VERTEX
  8
0
 10
115.79888871
 20
1705.25439197
  0
VERTEX
  8
0
 10
115.95285542
 20
1705.13925778
  0
VERTEX
  8
0
 10
116.11775567
 20
1705.03907839
  0
VERTEX
  8
0
 10
116.29258418
 20
1704.95485911
  0
VERTEX
  8
0
 10
116.47633561
 20
1704.88760524
  0
VERTEX
  8
0
 10
116.66800467
 20
1704.83832209
  0
VERTEX
  8
0
 10
116.86658605
 20
1704.80801497
  0
VERTEX
  8
0
 10
117.07107443
 20
1704.79768919
  0
VERTEX
  8
0
 10
117.27556282
 20
1704.80801497
  0
VERTEX
  8
0
 10
117.47414419
 20
1704.83832209
  0
VERTEX
  8
0
 10
117.66581325
 20
1704.88760524
  0
VERTEX
  8
0
 10
117.84956469
 20
1704.95485911
  0
VERTEX
  8
0
 10
118.02439319
 20
1705.03907839
  0
VERTEX
  8
0
 10
118.18929345
 20
1705.13925778
  0
VERTEX
  8
0
 10
118.34326016
 20
1705.25439197
  0
VERTEX
  8
0
 10
118.48528800
 20
1705.38347563
  0
VERTEX
  8
0
 10
118.61437166
 20
1705.52550347
  0
VERTEX
  8
0
 10
118.72950584
 20
1705.67947018
  0
VERTEX
  8
0
 10
118.82968523
 20
1705.84437043
  0
VERTEX
  8
0
 10
118.91390452
 20
1706.01919894
  0
VERTEX
  8
0
 10
118.98115839
 20
1706.20295037
  0
VERTEX
  8
0
 10
119.03044154
 20
1706.39461944
  0
VERTEX
  8
0
 10
119.06074866
 20
1706.59320081
  0
VERTEX
  8
0
 10
119.07107443
 20
1706.79768919
  0
SEQEND
  0
POLYLINE
  8
Default Layer
 66
   1
 39
0.000000
 70
    1
  0
VERTEX
  8
0
 10
161.65669427
 20
1956.59313780
  0
VERTEX
  8
0
 10
161.65669427
 20
1968.88826055
  0
VERTEX
  8
0
 10
259.65350120
 20
1968.88826055
  0
VERTEX
  8
0
 10
259.65350120
 20
1956.59313780
  0
VERTEX
  8
0
 10
161.65669427
 20
1956.59313780
  0
SEQEND
  0
POLYLINE
  8
Default Layer
 66
   1
 39
0.000000
 70
    1
  0
VERTEX
  8
0
 10
161.57021004
 20
1700.93480889
  0
VERTEX
  8
0
 10
161.57021004
 20
1713.22993164
  0
VERTEX
  8
0
 10
259.56701697
 20
1713.22993164
  0
VERTEX
  8
0
 10
259.56701697
 20
1700.93480889
  0
VERTEX
  8
0
 10
161.57021004
 20
1700.93480889
  0
SEQEND
  0
POLYLINE
  8
Default Layer
 66
   1
 39
0.000000
 70
    1
  0
VERTEX
  8
0
 10
141.15897309
 20
2207.86550082
  0
VERTEX
  8
0
 10
141.14864731
 20
2208.06998920
  0
VERTEX
  8
0
 10
141.11834020
 20
2208.26857058
  0
VERTEX
  8
0
 10
141.06905705
 20
2208.46023964
  0
VERTEX
  8
0
 10
141.00180318
 20
2208.64399108
  0
VERTEX
  8
0
 10
140.91758389
 20
2208.81881958
  0
VERTEX
  8
0
 10
140.81740450
 20
2208.98371984
  0
VERTEX
  8
0
 10
140.70227032
 20
2209.13768655
  0
VERTEX
  8
0
 10
140.57318665
 20
2209.27971439
  0
VERTEX
  8
0
 10
140.43115881
 20
2209.40879805
  0
VERTEX
  8
0
 10
140.27719211
 20
2209.52393223
  0
VERTEX
  8
0
 10
140.11229185
 20
2209.62411162
  0
VERTEX
  8
0
 10
139.93746335
 20
2209.70833091
  0
VERTEX
  8
0
 10
139.75371191
 20
2209.77558478
  0
VERTEX
  8
0
 10
139.56204285
 20
2209.82486793
  0
VERTEX
  8
0
 10
139.36346147
 20
2209.85517505
  0
VERTEX
  8
0
 10
139.15897309
 20
2209.86550082
  0
VERTEX
  8
0
 10
138.95448471
 20
2209.85517505
  0
VERTEX
  8
0
 10
138.75590333
 20
2209.82486793
  0
VERTEX
  8
0
 10
138.56423427
 20
2209.77558478
  0
VERTEX
  8
0
 10
138.38048283
 20
2209.70833091
  0
VERTEX
  8
0
 10
138.20565433
 20
2209.62411162
  0
VERTEX
  8
0
 10
138.04075407
 20
2209.52393223
  0
VERTEX
  8
0
 10
137.88678737
 20
2209.40879805
  0
VERTEX
  8
0
 10
137.74475953
 20
2209.27971439
  0
VERTEX
  8
0
 10
137.61567586
 20
2209.13768655
  0
VERTEX
  8
0
 10
137.50054168
 20
2208.98371984
  0
VERTEX
  8
0
 10
137.40036229
 20
2208.81881958
  0
VERTEX
  8
0
 10
137.31614300
 20
2208.64399108
  0
VERTEX
  8
0
 10
137.24888913
 20
2208.46023964
  0
VERTEX
  8
0
 10
137.19960598
 20
2208.26857058
  0
VERTEX
  8
0
 10
137.16929886
 20
2208.06998920
  0
VERTEX
  8
0
 10
137.15897309
 20
2207.86550082
  0
VERTEX
  8
0
 10
137.16929886
 20
2207.66101244
  0
VERTEX
  8
0
 10
137.19960598
 20
2207.46243106
  0
VERTEX
  8
0
 10
137.24888913
 20
2207.27076200
  0
VERTEX
  8
0
 10
137.31614300
 20
2207.08701057
  0
VERTEX
  8
0
 10
137.40036229
 20
2206.91218206
  0
VERTEX
  8
0
 10
137.50054168
 20
2206.74728180
  0
VERTEX
  8
0
 10
137.61567586
 20
2206.59331510
  0
VERTEX
  8
0
 10
137.74475953
 20
2206.45128726
  0
VERTEX
  8
0
 10
137.88678737
 20
2206.32220359
  0
VERTEX
  8
0
 10
138.04075407
 20
2206.20706941
  0
VERTEX
  8
0
 10
138.20565433
 20
2206.10689002
  0
VERTEX
  8
0
 10
138.38048283
 20
2206.02267074
  0
VERTEX
  8
0
 10
138.56423427
 20
2205.95541686
  0
VERTEX
  8
0
 10
138.75590333
 20
2205.90613371
  0
VERTEX
  8
0
 10
138.95448471
 20
2205.87582660
  0
VERTEX
  8
0
 10
139.15897309
 20
2205.86550082
  0
VERTEX
  8
0
 10
139.36346147
 20
2205.87582660
  0
VERTEX
  8
0
 10
139.56204285
 20
2205.90613371
  0
VERTEX
  8
0
 10
139.75371191
 20
2205.95541686
  0
VERTEX
  8
0
 10
139.93746335
 20
2206.02267074
  0
VERTEX
  8
0
 10
140.11229185
 20
2206.10689002
  0
VERTEX
  8
0
 10
140.27719211
 20
2206.20706941
  0
VERTEX
  8
0
 10
140.43115881
 20
2206.32220359
  0
VERTEX
  8
0
 10
140.57318665
 20
2206.45128726
  0
VERTEX
  8
0
 10
140.70227032
 20
2206.59331510
  0
VERTEX
  8
0
 10
140.81740450
 20
2206.74728180
  0
VERTEX
  8
0
 10
140.91758389
 20
2206.91218206
  0
VERTEX
  8
0
 10
141.00180318
 20
2207.08701057
  0
VERTEX
  8
0
 10
141.06905705
 20
2207.27076200
  0
VERTEX
  8
0
 10
141.11834020
 20
2207.46243106
  0
VERTEX
  8
0
 10
141.14864731
 20
2207.66101244
  0
VERTEX
  8
0
 10
141.15897309
 20
2207.86550082
  0
SEQEND
  0
POLYLINE
  8
Default Layer
 66
   1
 39
0.000000
 70
    1
  0
VERTEX
  8
0
 10
312.44255442
 20
2207.86550082
  0
VERTEX
  8
0
 10
312.43222864
 20
2208.06998920
  0
VERTEX
  8
0
 10
312.40192153
 20
2208.26857058
  0
VERTEX
  8
0
 10
312.35263838
 20
2208.46023964
  0
VERTEX
  8
0
 10
312.28538450
 20
2208.64399108
  0
VERTEX
  8
0
 10
312.20116522
 20
2208.81881958
  0
VERTEX
  8
0
 10
312.10098583
 20
2208.98371984
  0
VERTEX
  8
0
 10
311.98585165
 20
2209.13768655
  0
VERTEX
  8
0
 10
311.85676798
 20
2209.27971439
  0
VERTEX
  8
0
 10
311.71474014
 20
2209.40879805
  0
VERTEX
  8
0
 10
311.56077344
 20
2209.52393223
  0
VERTEX
  8
0
 10
311.39587318
 20
2209.62411162
  0
VERTEX
  8
0
 10
311.22104468
 20
2209.70833091
  0
VERTEX
  8
0
 10
311.03729324
 20
2209.77558478
  0
VERTEX
  8
0
 10
310.84562418
 20
2209.82486793
  0
VERTEX
  8
0
 10
310.64704280
 20
2209.85517505
  0
VERTEX
  8
0
 10
310.44255442
 20
2209.86550082
  0
VERTEX
  8
0
 10
310.23806604
 20
2209.85517505
  0
VERTEX
  8
0
 10
310.03948466
 20
2209.82486793
  0
VERTEX
  8
0
 10
309.84781560
 20
2209.77558478
  0
VERTEX
  8
0
 10
309.66406416
 20
2209.70833091
  0
VERTEX
  8
0
 10
309.48923566
 20
2209.62411162
  0
VERTEX
  8
0
 10
309.32433540
 20
2209.52393223
  0
VERTEX
  8
0
 10
309.17036870
 20
2209.40879805
  0
VERTEX
  8
0
 10
309.02834086
 20
2209.27971439
  0
VERTEX
  8
0
 10
308.89925719
 20
2209.13768655
  0
VERTEX
  8
0
 10
308.78412301
 20
2208.98371984
  0
VERTEX
  8
0
 10
308.68394362
 20
2208.81881958
  0
VERTEX
  8
0
 10
308.59972433
 20
2208.64399108
  0
VERTEX
  8
0
 10
308.53247046
 20
2208.46023964
  0
VERTEX
  8
0
 10
308.48318731
 20
2208.26857058
  0
VERTEX
  8
0
 10
308.45288019
 20
2208.06998920
  0
VERTEX
  8
0
 10
308.44255442
 20
2207.86550082
  0
VERTEX
  8
0
 10
308.45288019
 20
2207.66101244
  0
VERTEX
  8
0
 10
308.48318731
 20
2207.46243106
  0
VERTEX
  8
0
 10
308.53247046
 20
2207.27076200
  0
VERTEX
  8
0
 10
308.59972433
 20
2207.08701057
  0
VERTEX
  8
0
 10
308.68394362
 20
2206.91218206
  0
VERTEX
  8
0
 10
308.78412301
 20
2206.74728180
  0
VERTEX
  8
0
 10
308.89925719
 20
2206.59331510
  0
VERTEX
  8
0
 10
309.02834086
 20
2206.45128726
  0
VERTEX
  8
0
 10
309.17036870
 20
2206.32220359
  0
VERTEX
  8
0
 10
309.32433540
 20
2206.20706941
  0
VERTEX
  8
0
 10
309.48923566
 20
2206.10689002
  0
VERTEX
  8
0
 10
309.66406416
 20
2206.02267074
  0
VERTEX
  8
0
 10
309.84781560
 20
2205.95541686
  0
VERTEX
  8
0
 10
310.03948466
 20
2205.90613371
  0
VERTEX
  8
0
 10
310.23806604
 20
2205.87582660
  0
VERTEX
  8
0
 10
310.44255442
 20
2205.86550082
  0
VERTEX
  8
0
 10
310.64704280
 20
2205.87582660
  0
VERTEX
  8
0
 10
310.84562418
 20
2205.90613371
  0
VERTEX
  8
0
 10
311.03729324
 20
2205.95541686
  0
VERTEX
  8
0
 10
311.22104468
 20
2206.02267074
  0
VERTEX
  8
0
 10
311.39587318
 20
2206.10689002
  0
VERTEX
  8
0
 10
311.56077344
 20
2206.20706941
  0
VERTEX
  8
0
 10
311.71474014
 20
2206.32220359
  0
VERTEX
  8
0
 10
311.85676798
 20
2206.45128726
  0
VERTEX
  8
0
 10
311.98585165
 20
2206.59331510
  0
VERTEX
  8
0
 10
312.10098583
 20
2206.74728180
  0
VERTEX
  8
0
 10
312.20116522
 20
2206.91218206
  0
VERTEX
  8
0
 10
312.28538450
 20
2207.08701057
  0
VERTEX
  8
0
 10
312.35263838
 20
2207.27076200
  0
VERTEX
  8
0
 10
312.40192153
 20
2207.46243106
  0
VERTEX
  8
0
 10
312.43222864
 20
2207.66101244
  0
VERTEX
  8
0
 10
312.44255442
 20
2207.86550082
  0
SEQEND
  0
POLYLINE
  8
Default Layer
 66
   1
 39
0.000000
 70
    1
  0
VERTEX
  8
0
 10
161.65669427
 20
2202.07013926
  0
VERTEX
  8
0
 10
161.65669427
 20
2214.36526201
  0
VERTEX
  8
0
 10
259.65350120
 20
2214.36526201
  0
VERTEX
  8
0
 10
259.65350120
 20
2202.07013926
  0
VERTEX
  8
0
 10
161.65669427
 20
2202.07013926
  0
SEQEND
  0
POLYLINE
  8
Default Layer
 66
   1
 39
0.000000
 70
    1
  0
VERTEX
  8
0
 10
1584.10183876
 20
1452.95615276
  0
VERTEX
  8
0
 10
1584.10183876
 20
1505.55790665
  0
VERTEX
  8
0
 10
1596.09712306
 20
1505.55790665
  0
VERTEX
  8
0
 10
1596.09712306
 20
1523.55790665
  0
VERTEX
  8
0
 10
1584.10183876
 20
1523.55790665
  0
VERTEX
  8
0
 10
1584.10183876
 20
1553.08180656
  0
VERTEX
  8
0
 10
413.25199397
 20
1553.08180656
  0
VERTEX
  8
0
 10
413.25199397
 20
1523.65226980
  0
VERTEX
  8
0
 10
401.26272381
 20
1523.65226980
  0
VERTEX
  8
0
 10
401.26272381
 20
1505.65226980
  0
VERTEX
  8
0
 10
413.25199397
 20
1505.65226980
  0
VERTEX
  8
0
 10
413.25199397
 20
1452.95615276
  0
VERTEX
  8
0
 10
1584.10183876
 20
1452.95615276
  0
SEQEND
  0
POLYLINE
  8
Default Layer
 66
   1
 39
0.000000
 70
    1
  0
VERTEX
  8
0
 10
115.37194862
 20
2252.81408627
  0
VERTEX
  8
0
 10
127.67194862
 20
2252.81408627
  0
VERTEX
  8
0
 10
127.67194862
 20
2273.82566345
  0
VERTEX
  8
0
 10
115.37194862
 20
2273.82566345
  0
VERTEX
  8
0
 10
115.37194862
 20
2252.81408627
  0
SEQEND
  0
POLYLINE
  8
Default Layer
 66
   1
 39
0.000000
 70
    1
  0
VERTEX
  8
0
 10
95.12605822
 20
2007.64188347
  0
VERTEX
  8
0
 10
107.42605822
 20
2007.64188347
  0
VERTEX
  8
0
 10
107.42605822
 20
2028.65346065
  0
VERTEX
  8
0
 10
95.12605822
 20
2028.65346065
  0
VERTEX
  8
0
 10
95.12605822
 20
2007.64188347
  0
SEQEND
  0
POLYLINE
  8
Default Layer
 66
   1
 39
0.000000
 70
    1
  0
VERTEX
  8
0
 10
95.10893060
 20
1751.94732102
  0
VERTEX
  8
0
 10
107.40893060
 20
1751.94732102
  0
VERTEX
  8
0
 10
107.40893060
 20
1772.95889820
  0
VERTEX
  8
0
 10
95.10893060
 20
1772.95889820
  0
VERTEX
  8
0
 10
95.10893060
 20
1751.94732102
  0
SEQEND
  0
POLYLINE
  8
Default Layer
 66
   1
 39
0.000000
 70
    1
  0
VERTEX
  8
0
 10
1584.10442716
 20
1975.32607813
  0
VERTEX
  8
0
 10
1584.10442716
 20
2027.92783202
  0
VERTEX
  8
0
 10
1596.09971146
 20
2027.92783202
  0
VERTEX
  8
0
 10
1596.09971146
 20
2045.92783202
  0
VERTEX
  8
0
 10
1584.10442716
 20
2045.92783202
  0
VERTEX
  8
0
 10
1584.10442716
 20
2075.45173194
  0
VERTEX
  8
0
 10
413.25458237
 20
2075.45173194
  0
VERTEX
  8
0
 10
413.25458237
 20
2046.02219518
  0
VERTEX
  8
0
 10
401.26531221
 20
2046.02219518
  0
VERTEX
  8
0
 10
401.26531221
 20
2028.02219518
  0
VERTEX
  8
0
 10
413.25458237
 20
2028.02219518
  0
VERTEX
  8
0
 10
413.25458237
 20
1975.32607813
  0
VERTEX
  8
0
 10
1584.10442716
 20
1975.32607813
  0
SEQEND
  0
POLYLINE
  8
Default Layer
 66
   1
 39
0.000000
 70
    1
  0
VERTEX
  8
0
 10
1584.10248586
 20
2435.57436277
  0
VERTEX
  8
0
 10
1584.10248586
 20
2488.17611666
  0
VERTEX
  8
0
 10
1596.09777016
 20
2488.17611666
  0
VERTEX
  8
0
 10
1596.09777016
 20
2506.17611666
  0
VERTEX
  8
0
 10
1584.10248586
 20
2506.17611666
  0
VERTEX
  8
0
 10
1584.10248586
 20
2535.70001657
  0
VERTEX
  8
0
 10
413.25264107
 20
2535.70001657
  0
VERTEX
  8
0
 10
413.25264107
 20
2506.27047981
  0
VERTEX
  8
0
 10
401.26337091
 20
2506.27047981
  0
VERTEX
  8
0
 10
401.26337091
 20
2488.27047981
  0
VERTEX
  8
0
 10
413.25264107
 20
2488.27047981
  0
VERTEX
  8
0
 10
413.25264107
 20
2435.57436277
  0
VERTEX
  8
0
 10
1584.10248586
 20
2435.57436277
  0
SEQEND
  0
POLYLINE
  8
Default Layer
 66
   1
 39
0.000000
 70
    1
  0
VERTEX
  8
0
 10
425.33946252
 20
1010.78663366
  0
VERTEX
  8
0
 10
1620.33946252
 20
1010.78663366
  0
VERTEX
  8
0
 10
1620.33946252
 20
920.78663366
  0
VERTEX
  8
0
 10
425.33946252
 20
920.78663366
  0
VERTEX
  8
0
 10
425.33946252
 20
1010.78663366
  0
SEQEND
  0
POLYLINE
  8
Default Layer
 66
   1
 39
0.000000
 70
    1
  0
VERTEX
  8
0
 10
425.33946252
 20
912.68663366
  0
VERTEX
  8
0
 10
1620.33946252
 20
912.68663366
  0
VERTEX
  8
0
 10
1620.33946252
 20
822.68663366
  0
VERTEX
  8
0
 10
425.33946252
 20
822.68663366
  0
VERTEX
  8
0
 10
425.33946252
 20
912.68663366
  0
SEQEND
  0
POLYLINE
  8
Default Layer
 66
   1
 39
0.000000
 70
    1
  0
VERTEX
  8
0
 10
425.33946252
 20
814.58663366
  0
VERTEX
  8
0
 10
1620.33946252
 20
814.58663366
  0
VERTEX
  8
0
 10
1620.33946252
 20
724.58663366
  0
VERTEX
  8
0
 10
425.33946252
 20
724.58663366
  0
VERTEX
  8
0
 10
425.33946252
 20
814.58663366
  0
SEQEND
  0
POLYLINE
  8
Default Layer
 66
   1
 39
0.000000
 70
    1
  0
VERTEX
  8
0
 10
191.46205091
 20
2089.54132030
  0
VERTEX
  8
0
 10
201.54581626
 20
2089.54132030
  0
VERTEX
  8
0
 10
201.54581626
 20
2124.15878278
  0
VERTEX
  8
0
 10
237.30679853
 20
2124.15878278
  0
VERTEX
  8
0
 10
237.30679853
 20
2133.15100652
  0
VERTEX
  8
0
 10
201.54581626
 20
2133.15100652
  0
VERTEX
  8
0
 10
201.54581626
 20
2156.74909656
  0
VERTEX
  8
0
 10
242.86846292
 20
2156.74909656
  0
VERTEX
  8
0
 10
242.86846292
 20
2165.74132030
  0
VERTEX
  8
0
 10
191.46205091
 20
2165.74132030
  0
VERTEX
  8
0
 10
191.46205091
 20
2089.54132030
  0
SEQEND
  0
POLYLINE
  8
Default Layer
 66
   1
 39
0.000000
 70
    0
  0
VERTEX
  8
0
 10
1804.03754408
 20
2324.40127270
  0
VERTEX
  8
0
 10
1803.80247271
 20
2324.49741482
  0
VERTEX
  8
0
 10
1803.56367640
 20
2324.40322331
  0
SEQEND
  0
POLYLINE
  8
Default Layer
 66
   1
 39
0.000000
 70
    1
  0
VERTEX
  8
0
 10
1898.84167965
 20
1948.67034607
  0
VERTEX
  8
0
 10
1898.85200542
 20
1948.87483445
  0
VERTEX
  8
0
 10
1898.88231254
 20
1949.07341583
  0
VERTEX
  8
0
 10
1898.93159569
 20
1949.26508489
  0
VERTEX
  8
0
 10
1898.99884956
 20
1949.44883632
  0
VERTEX
  8
0
 10
1899.08306885
 20
1949.62366483
  0
VERTEX
  8
0
 10
1899.18324823
 20
1949.78856509
  0
VERTEX
  8
0
 10
1899.29838242
 20
1949.94253179
  0
VERTEX
  8
0
 10
1899.42746608
 20
1950.08455963
  0
VERTEX
  8
0
 10
1899.56949392
 20
1950.21364330
  0
VERTEX
  8
0
 10
1899.72346063
 20
1950.32877748
  0
VERTEX
  8
0
 10
1899.88836089
 20
1950.42895687
  0
VERTEX
  8
0
 10
1900.06318939
 20
1950.51317615
  0
VERTEX
  8
0
 10
1900.24694083
 20
1950.58043003
  0
VERTEX
  8
0
 10
1900.43860989
 20
1950.62971318
  0
VERTEX
  8
0
 10
1900.63719126
 20
1950.66002029
  0
VERTEX
  8
0
 10
1900.84167965
 20
1950.67034607
  0
VERTEX
  8
0
 10
1901.04616803
 20
1950.66002029
  0
VERTEX
  8
0
 10
1901.24474940
 20
1950.62971318
  0
VERTEX
  8
0
 10
1901.43641847
 20
1950.58043003
  0
VERTEX
  8
0
 10
1901.62016990
 20
1950.51317615
  0
VERTEX
  8
0
 10
1901.79499841
 20
1950.42895687
  0
VERTEX
  8
0
 10
1901.95989866
 20
1950.32877748
  0
VERTEX
  8
0
 10
1902.11386537
 20
1950.21364330
  0
VERTEX
  8
0
 10
1902.25589321
 20
1950.08455963
  0
VERTEX
  8
0
 10
1902.38497687
 20
1949.94253179
  0
VERTEX
  8
0
 10
1902.50011106
 20
1949.78856509
  0
VERTEX
  8
0
 10
1902.60029045
 20
1949.62366483
  0
VERTEX
  8
0
 10
1902.68450973
 20
1949.44883632
  0
VERTEX
  8
0
 10
1902.75176360
 20
1949.26508489
  0
VERTEX
  8
0
 10
1902.80104675
 20
1949.07341583
  0
VERTEX
  8
0
 10
1902.83135387
 20
1948.87483445
  0
VERTEX
  8
0
 10
1902.84167965
 20
1948.67034607
  0
VERTEX
  8
0
 10
1902.83135387
 20
1948.46585768
  0
VERTEX
  8
0
 10
1902.80104675
 20
1948.26727631
  0
VERTEX
  8
0
 10
1902.75176360
 20
1948.07560725
  0
VERTEX
  8
0
 10
1902.68450973
 20
1947.89185581
  0
VERTEX
  8
0
 10
1902.60029045
 20
1947.71702731
  0
VERTEX
  8
0
 10
1902.50011106
 20
1947.55212705
  0
VERTEX
  8
0
 10
1902.38497687
 20
1947.39816034
  0
VERTEX
  8
0
 10
1902.25589321
 20
1947.25613250
  0
VERTEX
  8
0
 10
1902.11386537
 20
1947.12704884
  0
VERTEX
  8
0
 10
1901.95989866
 20
1947.01191466
  0
VERTEX
  8
0
 10
1901.79499841
 20
1946.91173527
  0
VERTEX
  8
0
 10
1901.62016990
 20
1946.82751598
  0
VERTEX
  8
0
 10
1901.43641847
 20
1946.76026211
  0
VERTEX
  8
0
 10
1901.24474940
 20
1946.71097896
  0
VERTEX
  8
0
 10
1901.04616803
 20
1946.68067184
  0
VERTEX
  8
0
 10
1900.84167965
 20
1946.67034607
  0
VERTEX
  8
0
 10
1900.63719126
 20
1946.68067184
  0
VERTEX
  8
0
 10
1900.43860989
 20
1946.71097896
  0
VERTEX
  8
0
 10
1900.24694083
 20
1946.76026211
  0
VERTEX
  8
0
 10
1900.06318939
 20
1946.82751598
  0
VERTEX
  8
0
 10
1899.88836089
 20
1946.91173527
  0
VERTEX
  8
0
 10
1899.72346063
 20
1947.01191466
  0
VERTEX
  8
0
 10
1899.56949392
 20
1947.12704884
  0
VERTEX
  8
0
 10
1899.42746608
 20
1947.25613250
  0
VERTEX
  8
0
 10
1899.29838242
 20
1947.39816034
  0
VERTEX
  8
0
 10
1899.18324823
 20
1947.55212705
  0
VERTEX
  8
0
 10
1899.08306885
 20
1947.71702731
  0
VERTEX
  8
0
 10
1898.99884956
 20
1947.89185581
  0
VERTEX
  8
0
 10
1898.93159569
 20
1948.07560725
  0
VERTEX
  8
0
 10
1898.88231254
 20
1948.26727631
  0
VERTEX
  8
0
 10
1898.85200542
 20
1948.46585768
  0
VERTEX
  8
0
 10
1898.84167965
 20
1948.67034607
  0
SEQEND
  0
POLYLINE
  8
Default Layer
 66
   1
 39
0.000000
 70
    1
  0
VERTEX
  8
0
 10
1711.54236281
 20
1948.67034607
  0
VERTEX
  8
0
 10
1711.55268859
 20
1948.87483445
  0
VERTEX
  8
0
 10
1711.58299571
 20
1949.07341583
  0
VERTEX
  8
0
 10
1711.63227886
 20
1949.26508489
  0
VERTEX
  8
0
 10
1711.69953273
 20
1949.44883632
  0
VERTEX
  8
0
 10
1711.78375201
 20
1949.62366483
  0
VERTEX
  8
0
 10
1711.88393140
 20
1949.78856509
  0
VERTEX
  8
0
 10
1711.99906559
 20
1949.94253179
  0
VERTEX
  8
0
 10
1712.12814925
 20
1950.08455963
  0
VERTEX
  8
0
 10
1712.27017709
 20
1950.21364330
  0
VERTEX
  8
0
 10
1712.42414380
 20
1950.32877748
  0
VERTEX
  8
0
 10
1712.58904405
 20
1950.42895687
  0
VERTEX
  8
0
 10
1712.76387256
 20
1950.51317615
  0
VERTEX
  8
0
 10
1712.94762399
 20
1950.58043003
  0
VERTEX
  8
0
 10
1713.13929306
 20
1950.62971318
  0
VERTEX
  8
0
 10
1713.33787443
 20
1950.66002029
  0
VERTEX
  8
0
 10
1713.54236281
 20
1950.67034607
  0
VERTEX
  8
0
 10
1713.74685120
 20
1950.66002029
  0
VERTEX
  8
0
 10
1713.94543257
 20
1950.62971318
  0
VERTEX
  8
0
 10
1714.13710163
 20
1950.58043003
  0
VERTEX
  8
0
 10
1714.32085307
 20
1950.51317615
  0
VERTEX
  8
0
 10
1714.49568157
 20
1950.42895687
  0
VERTEX
  8
0
 10
1714.66058183
 20
1950.32877748
  0
VERTEX
  8
0
 10
1714.81454854
 20
1950.21364330
  0
VERTEX
  8
0
 10
1714.95657638
 20
1950.08455963
  0
VERTEX
  8
0
 10
1715.08566004
 20
1949.94253179
  0
VERTEX
  8
0
 10
1715.20079423
 20
1949.78856509
  0
VERTEX
  8
0
 10
1715.30097361
 20
1949.62366483
  0
VERTEX
  8
0
 10
1715.38519290
 20
1949.44883632
  0
VERTEX
  8
0
 10
1715.45244677
 20
1949.26508489
  0
VERTEX
  8
0
 10
1715.50172992
 20
1949.07341583
  0
VERTEX
  8
0
 10
1715.53203704
 20
1948.87483445
  0
VERTEX
  8
0
 10
1715.54236281
 20
1948.67034607
  0
VERTEX
  8
0
 10
1715.53203704
 20
1948.46585768
  0
VERTEX
  8
0
 10
1715.50172992
 20
1948.26727631
  0
VERTEX
  8
0
 10
1715.45244677
 20
1948.07560725
  0
VERTEX
  8
0
 10
1715.38519290
 20
1947.89185581
  0
VERTEX
  8
0
 10
1715.30097361
 20
1947.71702731
  0
VERTEX
  8
0
 10
1715.20079423
 20
1947.55212705
  0
VERTEX
  8
0
 10
1715.08566004
 20
1947.39816034
  0
VERTEX
  8
0
 10
1714.95657638
 20
1947.25613250
  0
VERTEX
  8
0
 10
1714.81454854
 20
1947.12704884
  0
VERTEX
  8
0
 10
1714.66058183
 20
1947.01191466
  0
VERTEX
  8
0
 10
1714.49568157
 20
1946.91173527
  0
VERTEX
  8
0
 10
1714.32085307
 20
1946.82751598
  0
VERTEX
  8
0
 10
1714.13710163
 20
1946.76026211
  0
VERTEX
  8
0
 10
1713.94543257
 20
1946.71097896
  0
VERTEX
  8
0
 10
1713.74685120
 20
1946.68067184
  0
VERTEX
  8
0
 10
1713.54236281
 20
1946.67034607
  0
VERTEX
  8
0
 10
1713.33787443
 20
1946.68067184
  0
VERTEX
  8
0
 10
1713.13929306
 20
1946.71097896
  0
VERTEX
  8
0
 10
1712.94762399
 20
1946.76026211
  0
VERTEX
  8
0
 10
1712.76387256
 20
1946.82751598
  0
VERTEX
  8
0
 10
1712.58904405
 20
1946.91173527
  0
VERTEX
  8
0
 10
1712.42414380
 20
1947.01191466
  0
VERTEX
  8
0
 10
1712.27017709
 20
1947.12704884
  0
VERTEX
  8
0
 10
1712.12814925
 20
1947.25613250
  0
VERTEX
  8
0
 10
1711.99906559
 20
1947.39816034
  0
VERTEX
  8
0
 10
1711.88393140
 20
1947.55212705
  0
VERTEX
  8
0
 10
1711.78375201
 20
1947.71702731
  0
VERTEX
  8
0
 10
1711.69953273
 20
1947.89185581
  0
VERTEX
  8
0
 10
1711.63227886
 20
1948.07560725
  0
VERTEX
  8
0
 10
1711.58299571
 20
1948.26727631
  0
VERTEX
  8
0
 10
1711.55268859
 20
1948.46585768
  0
VERTEX
  8
0
 10
1711.54236281
 20
1948.67034607
  0
SEQEND
  0
POLYLINE
  8
Default Layer
 66
   1
 39
0.000000
 70
    1
  0
VERTEX
  8
0
 10
1711.62884704
 20
1693.08988951
  0
VERTEX
  8
0
 10
1711.63917282
 20
1693.29437789
  0
VERTEX
  8
0
 10
1711.66947993
 20
1693.49295927
  0
VERTEX
  8
0
 10
1711.71876308
 20
1693.68462833
  0
VERTEX
  8
0
 10
1711.78601696
 20
1693.86837976
  0
VERTEX
  8
0
 10
1711.87023624
 20
1694.04320827
  0
VERTEX
  8
0
 10
1711.97041563
 20
1694.20810853
  0
VERTEX
  8
0
 10
1712.08554981
 20
1694.36207523
  0
VERTEX
  8
0
 10
1712.21463348
 20
1694.50410307
  0
VERTEX
  8
0
 10
1712.35666132
 20
1694.63318674
  0
VERTEX
  8
0
 10
1712.51062802
 20
1694.74832092
  0
VERTEX
  8
0
 10
1712.67552828
 20
1694.84850031
  0
VERTEX
  8
0
 10
1712.85035679
 20
1694.93271959
  0
VERTEX
  8
0
 10
1713.03410822
 20
1694.99997347
  0
VERTEX
  8
0
 10
1713.22577728
 20
1695.04925662
  0
VERTEX
  8
0
 10
1713.42435866
 20
1695.07956373
  0
VERTEX
  8
0
 10
1713.62884704
 20
1695.08988951
  0
VERTEX
  8
0
 10
1713.83333542
 20
1695.07956373
  0
VERTEX
  8
0
 10
1714.03191680
 20
1695.04925662
  0
VERTEX
  8
0
 10
1714.22358586
 20
1694.99997347
  0
VERTEX
  8
0
 10
1714.40733730
 20
1694.93271959
  0
VERTEX
  8
0
 10
1714.58216580
 20
1694.84850031
  0
VERTEX
  8
0
 10
1714.74706606
 20
1694.74832092
  0
VERTEX
  8
0
 10
1714.90103277
 20
1694.63318674
  0
VERTEX
  8
0
 10
1715.04306061
 20
1694.50410307
  0
VERTEX
  8
0
 10
1715.17214427
 20
1694.36207523
  0
VERTEX
  8
0
 10
1715.28727845
 20
1694.20810853
  0
VERTEX
  8
0
 10
1715.38745784
 20
1694.04320827
  0
VERTEX
  8
0
 10
1715.47167713
 20
1693.86837976
  0
VERTEX
  8
0
 10
1715.53893100
 20
1693.68462833
  0
VERTEX
  8
0
 10
1715.58821415
 20
1693.49295927
  0
VERTEX
  8
0
 10
1715.61852127
 20
1693.29437789
  0
VERTEX
  8
0
 10
1715.62884704
 20
1693.08988951
  0
VERTEX
  8
0
 10
1715.61852127
 20
1692.88540112
  0
VERTEX
  8
0
 10
1715.58821415
 20
1692.68681975
  0
VERTEX
  8
0
 10
1715.53893100
 20
1692.49515069
  0
VERTEX
  8
0
 10
1715.47167713
 20
1692.31139925
  0
VERTEX
  8
0
 10
1715.38745784
 20
1692.13657075
  0
VERTEX
  8
0
 10
1715.28727845
 20
1691.97167049
  0
VERTEX
  8
0
 10
1715.17214427
 20
1691.81770378
  0
VERTEX
  8
0
 10
1715.04306061
 20
1691.67567594
  0
VERTEX
  8
0
 10
1714.90103277
 20
1691.54659228
  0
VERTEX
  8
0
 10
1714.74706606
 20
1691.43145810
  0
VERTEX
  8
0
 10
1714.58216580
 20
1691.33127871
  0
VERTEX
  8
0
 10
1714.40733730
 20
1691.24705942
  0
VERTEX
  8
0
 10
1714.22358586
 20
1691.17980555
  0
VERTEX
  8
0
 10
1714.03191680
 20
1691.13052240
  0
VERTEX
  8
0
 10
1713.83333542
 20
1691.10021528
  0
VERTEX
  8
0
 10
1713.62884704
 20
1691.08988951
  0
VERTEX
  8
0
 10
1713.42435866
 20
1691.10021528
  0
VERTEX
  8
0
 10
1713.22577728
 20
1691.13052240
  0
VERTEX
  8
0
 10
1713.03410822
 20
1691.17980555
  0
VERTEX
  8
0
 10
1712.85035679
 20
1691.24705942
  0
VERTEX
  8
0
 10
1712.67552828
 20
1691.33127871
  0
VERTEX
  8
0
 10
1712.51062802
 20
1691.43145810
  0
VERTEX
  8
0
 10
1712.35666132
 20
1691.54659228
  0
VERTEX
  8
0
 10
1712.21463348
 20
1691.67567594
  0
VERTEX
  8
0
 10
1712.08554981
 20
1691.81770378
  0
VERTEX
  8
0
 10
1711.97041563
 20
1691.97167049
  0
VERTEX
  8
0
 10
1711.87023624
 20
1692.13657075
  0
VERTEX
  8
0
 10
1711.78601696
 20
1692.31139925
  0
VERTEX
  8
0
 10
1711.71876308
 20
1692.49515069
  0
VERTEX
  8
0
 10
1711.66947993
 20
1692.68681975
  0
VERTEX
  8
0
 10
1711.63917282
 20
1692.88540112
  0
VERTEX
  8
0
 10
1711.62884704
 20
1693.08988951
  0
SEQEND
  0
POLYLINE
  8
Default Layer
 66
   1
 39
0.000000
 70
    1
  0
VERTEX
  8
0
 10
1898.44283856
 20
1693.08988951
  0
VERTEX
  8
0
 10
1898.45316433
 20
1693.29437789
  0
VERTEX
  8
0
 10
1898.48347145
 20
1693.49295927
  0
VERTEX
  8
0
 10
1898.53275460
 20
1693.68462833
  0
VERTEX
  8
0
 10
1898.60000847
 20
1693.86837976
  0
VERTEX
  8
0
 10
1898.68422776
 20
1694.04320827
  0
VERTEX
  8
0
 10
1898.78440715
 20
1694.20810853
  0
VERTEX
  8
0
 10
1898.89954133
 20
1694.36207523
  0
VERTEX
  8
0
 10
1899.02862499
 20
1694.50410307
  0
VERTEX
  8
0
 10
1899.17065283
 20
1694.63318674
  0
VERTEX
  8
0
 10
1899.32461954
 20
1694.74832092
  0
VERTEX
  8
0
 10
1899.48951980
 20
1694.84850031
  0
VERTEX
  8
0
 10
1899.66434830
 20
1694.93271959
  0
VERTEX
  8
0
 10
1899.84809974
 20
1694.99997347
  0
VERTEX
  8
0
 10
1900.03976880
 20
1695.04925662
  0
VERTEX
  8
0
 10
1900.23835017
 20
1695.07956373
  0
VERTEX
  8
0
 10
1900.44283856
 20
1695.08988951
  0
VERTEX
  8
0
 10
1900.64732694
 20
1695.07956373
  0
VERTEX
  8
0
 10
1900.84590831
 20
1695.04925662
  0
VERTEX
  8
0
 10
1901.03757738
 20
1694.99997347
  0
VERTEX
  8
0
 10
1901.22132881
 20
1694.93271959
  0
VERTEX
  8
0
 10
1901.39615732
 20
1694.84850031
  0
VERTEX
  8
0
 10
1901.56105757
 20
1694.74832092
  0
VERTEX
  8
0
 10
1901.71502428
 20
1694.63318674
  0
VERTEX
  8
0
 10
1901.85705212
 20
1694.50410307
  0
VERTEX
  8
0
 10
1901.98613578
 20
1694.36207523
  0
VERTEX
  8
0
 10
1902.10126997
 20
1694.20810853
  0
VERTEX
  8
0
 10
1902.20144936
 20
1694.04320827
  0
VERTEX
  8
0
 10
1902.28566864
 20
1693.86837976
  0
VERTEX
  8
0
 10
1902.35292251
 20
1693.68462833
  0
VERTEX
  8
0
 10
1902.40220566
 20
1693.49295927
  0
VERTEX
  8
0
 10
1902.43251278
 20
1693.29437789
  0
VERTEX
  8
0
 10
1902.44283856
 20
1693.08988951
  0
VERTEX
  8
0
 10
1902.43251278
 20
1692.88540112
  0
VERTEX
  8
0
 10
1902.40220566
 20
1692.68681975
  0
VERTEX
  8
0
 10
1902.35292251
 20
1692.49515069
  0
VERTEX
  8
0
 10
1902.28566864
 20
1692.31139925
  0
VERTEX
  8
0
 10
1902.20144936
 20
1692.13657075
  0
VERTEX
  8
0
 10
1902.10126997
 20
1691.97167049
  0
VERTEX
  8
0
 10
1901.98613578
 20
1691.81770378
  0
VERTEX
  8
0
 10
1901.85705212
 20
1691.67567594
  0
VERTEX
  8
0
 10
1901.71502428
 20
1691.54659228
  0
VERTEX
  8
0
 10
1901.56105757
 20
1691.43145810
  0
VERTEX
  8
0
 10
1901.39615732
 20
1691.33127871
  0
VERTEX
  8
0
 10
1901.22132881
 20
1691.24705942
  0
VERTEX
  8
0
 10
1901.03757738
 20
1691.17980555
  0
VERTEX
  8
0
 10
1900.84590831
 20
1691.13052240
  0
VERTEX
  8
0
 10
1900.64732694
 20
1691.10021528
  0
VERTEX
  8
0
 10
1900.44283856
 20
1691.08988951
  0
VERTEX
  8
0
 10
1900.23835017
 20
1691.10021528
  0
VERTEX
  8
0
 10
1900.03976880
 20
1691.13052240
  0
VERTEX
  8
0
 10
1899.84809974
 20
1691.17980555
  0
VERTEX
  8
0
 10
1899.66434830
 20
1691.24705942
  0
VERTEX
  8
0
 10
1899.48951980
 20
1691.33127871
  0
VERTEX
  8
0
 10
1899.32461954
 20
1691.43145810
  0
VERTEX
  8
0
 10
1899.17065283
 20
1691.54659228
  0
VERTEX
  8
0
 10
1899.02862499
 20
1691.67567594
  0
VERTEX
  8
0
 10
1898.89954133
 20
1691.81770378
  0
VERTEX
  8
0
 10
1898.78440715
 20
1691.97167049
  0
VERTEX
  8
0
 10
1898.68422776
 20
1692.13657075
  0
VERTEX
  8
0
 10
1898.60000847
 20
1692.31139925
  0
VERTEX
  8
0
 10
1898.53275460
 20
1692.49515069
  0
VERTEX
  8
0
 10
1898.48347145
 20
1692.68681975
  0
VERTEX
  8
0
 10
1898.45316433
 20
1692.88540112
  0
VERTEX
  8
0
 10
1898.44283856
 20
1693.08988951
  0
SEQEND
  0
POLYLINE
  8
Default Layer
 66
   1
 39
0.000000
 70
    1
  0
VERTEX
  8
0
 10
1862.32822296
 20
1942.87498450
  0
VERTEX
  8
0
 10
1862.32822296
 20
1955.17010726
  0
VERTEX
  8
0
 10
1764.33141603
 20
1955.17010726
  0
VERTEX
  8
0
 10
1764.33141603
 20
1942.87498450
  0
VERTEX
  8
0
 10
1862.32822296
 20
1942.87498450
  0
SEQEND
  0
POLYLINE
  8
Default Layer
 66
   1
 39
0.000000
 70
    1
  0
VERTEX
  8
0
 10
1862.41470719
 20
1687.22700920
  0
VERTEX
  8
0
 10
1862.41470719
 20
1699.52213195
  0
VERTEX
  8
0
 10
1764.41790026
 20
1699.52213195
  0
VERTEX
  8
0
 10
1764.41790026
 20
1687.22700920
  0
VERTEX
  8
0
 10
1862.41470719
 20
1687.22700920
  0
SEQEND
  0
POLYLINE
  8
Default Layer
 66
   1
 39
0.000000
 70
    1
  0
VERTEX
  8
0
 10
1882.82594414
 20
2194.14734753
  0
VERTEX
  8
0
 10
1882.83626992
 20
2194.35183591
  0
VERTEX
  8
0
 10
1882.86657704
 20
2194.55041729
  0
VERTEX
  8
0
 10
1882.91586019
 20
2194.74208635
  0
VERTEX
  8
0
 10
1882.98311406
 20
2194.92583779
  0
VERTEX
  8
0
 10
1883.06733334
 20
2195.10066629
  0
VERTEX
  8
0
 10
1883.16751273
 20
2195.26556655
  0
VERTEX
  8
0
 10
1883.28264692
 20
2195.41953325
  0
VERTEX
  8
0
 10
1883.41173058
 20
2195.56156109
  0
VERTEX
  8
0
 10
1883.55375842
 20
2195.69064476
  0
VERTEX
  8
0
 10
1883.70772513
 20
2195.80577894
  0
VERTEX
  8
0
 10
1883.87262538
 20
2195.90595833
  0
VERTEX
  8
0
 10
1884.04745389
 20
2195.99017761
  0
VERTEX
  8
0
 10
1884.23120532
 20
2196.05743149
  0
VERTEX
  8
0
 10
1884.42287439
 20
2196.10671464
  0
VERTEX
  8
0
 10
1884.62145576
 20
2196.13702175
  0
VERTEX
  8
0
 10
1884.82594414
 20
2196.14734753
  0
VERTEX
  8
0
 10
1885.03043253
 20
2196.13702175
  0
VERTEX
  8
0
 10
1885.22901390
 20
2196.10671464
  0
VERTEX
  8
0
 10
1885.42068296
 20
2196.05743149
  0
VERTEX
  8
0
 10
1885.60443440
 20
2195.99017761
  0
VERTEX
  8
0
 10
1885.77926290
 20
2195.90595833
  0
VERTEX
  8
0
 10
1885.94416316
 20
2195.80577894
  0
VERTEX
  8
0
 10
1886.09812987
 20
2195.69064476
  0
VERTEX
  8
0
 10
1886.24015771
 20
2195.56156109
  0
VERTEX
  8
0
 10
1886.36924137
 20
2195.41953325
  0
VERTEX
  8
0
 10
1886.48437555
 20
2195.26556655
  0
VERTEX
  8
0
 10
1886.58455494
 20
2195.10066629
  0
VERTEX
  8
0
 10
1886.66877423
 20
2194.92583779
  0
VERTEX
  8
0
 10
1886.73602810
 20
2194.74208635
  0
VERTEX
  8
0
 10
1886.78531125
 20
2194.55041729
  0
VERTEX
  8
0
 10
1886.81561837
 20
2194.35183591
  0
VERTEX
  8
0
 10
1886.82594414
 20
2194.14734753
  0
VERTEX
  8
0
 10
1886.81561837
 20
2193.94285915
  0
VERTEX
  8
0
 10
1886.78531125
 20
2193.74427777
  0
VERTEX
  8
0
 10
1886.73602810
 20
2193.55260871
  0
VERTEX
  8
0
 10
1886.66877423
 20
2193.36885727
  0
VERTEX
  8
0
 10
1886.58455494
 20
2193.19402877
  0
VERTEX
  8
0
 10
1886.48437555
 20
2193.02912851
  0
VERTEX
  8
0
 10
1886.36924137
 20
2192.87516181
  0
VERTEX
  8
0
 10
1886.24015771
 20
2192.73313397
  0
VERTEX
  8
0
 10
1886.09812987
 20
2192.60405030
  0
VERTEX
  8
0
 10
1885.94416316
 20
2192.48891612
  0
VERTEX
  8
0
 10
1885.77926290
 20
2192.38873673
  0
VERTEX
  8
0
 10
1885.60443440
 20
2192.30451744
  0
VERTEX
  8
0
 10
1885.42068296
 20
2192.23726357
  0
VERTEX
  8
0
 10
1885.22901390
 20
2192.18798042
  0
VERTEX
  8
0
 10
1885.03043253
 20
2192.15767330
  0
VERTEX
  8
0
 10
1884.82594414
 20
2192.14734753
  0
VERTEX
  8
0
 10
1884.62145576
 20
2192.15767330
  0
VERTEX
  8
0
 10
1884.42287439
 20
2192.18798042
  0
VERTEX
  8
0
 10
1884.23120532
 20
2192.23726357
  0
VERTEX
  8
0
 10
1884.04745389
 20
2192.30451744
  0
VERTEX
  8
0
 10
1883.87262538
 20
2192.38873673
  0
VERTEX
  8
0
 10
1883.70772513
 20
2192.48891612
  0
VERTEX
  8
0
 10
1883.55375842
 20
2192.60405030
  0
VERTEX
  8
0
 10
1883.41173058
 20
2192.73313397
  0
VERTEX
  8
0
 10
1883.28264692
 20
2192.87516181
  0
VERTEX
  8
0
 10
1883.16751273
 20
2193.02912851
  0
VERTEX
  8
0
 10
1883.06733334
 20
2193.19402877
  0
VERTEX
  8
0
 10
1882.98311406
 20
2193.36885727
  0
VERTEX
  8
0
 10
1882.91586019
 20
2193.55260871
  0
VERTEX
  8
0
 10
1882.86657704
 20
2193.74427777
  0
VERTEX
  8
0
 10
1882.83626992
 20
2193.94285915
  0
VERTEX
  8
0
 10
1882.82594414
 20
2194.14734753
  0
SEQEND
  0
POLYLINE
  8
Default Layer
 66
   1
 39
0.000000
 70
    1
  0
VERTEX
  8
0
 10
1711.54236281
 20
2194.14734753
  0
VERTEX
  8
0
 10
1711.55268859
 20
2194.35183591
  0
VERTEX
  8
0
 10
1711.58299571
 20
2194.55041729
  0
VERTEX
  8
0
 10
1711.63227886
 20
2194.74208635
  0
VERTEX
  8
0
 10
1711.69953273
 20
2194.92583779
  0
VERTEX
  8
0
 10
1711.78375201
 20
2195.10066629
  0
VERTEX
  8
0
 10
1711.88393140
 20
2195.26556655
  0
VERTEX
  8
0
 10
1711.99906559
 20
2195.41953325
  0
VERTEX
  8
0
 10
1712.12814925
 20
2195.56156109
  0
VERTEX
  8
0
 10
1712.27017709
 20
2195.69064476
  0
VERTEX
  8
0
 10
1712.42414380
 20
2195.80577894
  0
VERTEX
  8
0
 10
1712.58904405
 20
2195.90595833
  0
VERTEX
  8
0
 10
1712.76387256
 20
2195.99017761
  0
VERTEX
  8
0
 10
1712.94762399
 20
2196.05743149
  0
VERTEX
  8
0
 10
1713.13929306
 20
2196.10671464
  0
VERTEX
  8
0
 10
1713.33787443
 20
2196.13702175
  0
VERTEX
  8
0
 10
1713.54236281
 20
2196.14734753
  0
VERTEX
  8
0
 10
1713.74685120
 20
2196.13702175
  0
VERTEX
  8
0
 10
1713.94543257
 20
2196.10671464
  0
VERTEX
  8
0
 10
1714.13710163
 20
2196.05743149
  0
VERTEX
  8
0
 10
1714.32085307
 20
2195.99017761
  0
VERTEX
  8
0
 10
1714.49568157
 20
2195.90595833
  0
VERTEX
  8
0
 10
1714.66058183
 20
2195.80577894
  0
VERTEX
  8
0
 10
1714.81454854
 20
2195.69064476
  0
VERTEX
  8
0
 10
1714.95657638
 20
2195.56156109
  0
VERTEX
  8
0
 10
1715.08566004
 20
2195.41953325
  0
VERTEX
  8
0
 10
1715.20079423
 20
2195.26556655
  0
VERTEX
  8
0
 10
1715.30097361
 20
2195.10066629
  0
VERTEX
  8
0
 10
1715.38519290
 20
2194.92583779
  0
VERTEX
  8
0
 10
1715.45244677
 20
2194.74208635
  0
VERTEX
  8
0
 10
1715.50172992
 20
2194.55041729
  0
VERTEX
  8
0
 10
1715.53203704
 20
2194.35183591
  0
VERTEX
  8
0
 10
1715.54236281
 20
2194.14734753
  0
VERTEX
  8
0
 10
1715.53203704
 20
2193.94285915
  0
VERTEX
  8
0
 10
1715.50172992
 20
2193.74427777
  0
VERTEX
  8
0
 10
1715.45244677
 20
2193.55260871
  0
VERTEX
  8
0
 10
1715.38519290
 20
2193.36885727
  0
VERTEX
  8
0
 10
1715.30097361
 20
2193.19402877
  0
VERTEX
  8
0
 10
1715.20079423
 20
2193.02912851
  0
VERTEX
  8
0
 10
1715.08566004
 20
2192.87516181
  0
VERTEX
  8
0
 10
1714.95657638
 20
2192.73313397
  0
VERTEX
  8
0
 10
1714.81454854
 20
2192.60405030
  0
VERTEX
  8
0
 10
1714.66058183
 20
2192.48891612
  0
VERTEX
  8
0
 10
1714.49568157
 20
2192.38873673
  0
VERTEX
  8
0
 10
1714.32085307
 20
2192.30451744
  0
VERTEX
  8
0
 10
1714.13710163
 20
2192.23726357
  0
VERTEX
  8
0
 10
1713.94543257
 20
2192.18798042
  0
VERTEX
  8
0
 10
1713.74685120
 20
2192.15767330
  0
VERTEX
  8
0
 10
1713.54236281
 20
2192.14734753
  0
VERTEX
  8
0
 10
1713.33787443
 20
2192.15767330
  0
VERTEX
  8
0
 10
1713.13929306
 20
2192.18798042
  0
VERTEX
  8
0
 10
1712.94762399
 20
2192.23726357
  0
VERTEX
  8
0
 10
1712.76387256
 20
2192.30451744
  0
VERTEX
  8
0
 10
1712.58904405
 20
2192.38873673
  0
VERTEX
  8
0
 10
1712.42414380
 20
2192.48891612
  0
VERTEX
  8
0
 10
1712.27017709
 20
2192.60405030
  0
VERTEX
  8
0
 10
1712.12814925
 20
2192.73313397
  0
VERTEX
  8
0
 10
1711.99906559
 20
2192.87516181
  0
VERTEX
  8
0
 10
1711.88393140
 20
2193.02912851
  0
VERTEX
  8
0
 10
1711.78375201
 20
2193.19402877
  0
VERTEX
  8
0
 10
1711.69953273
 20
2193.36885727
  0
VERTEX
  8
0
 10
1711.63227886
 20
2193.55260871
  0
VERTEX
  8
0
 10
1711.58299571
 20
2193.74427777
  0
VERTEX
  8
0
 10
1711.55268859
 20
2193.94285915
  0
VERTEX
  8
0
 10
1711.54236281
 20
2194.14734753
  0
SEQEND
  0
POLYLINE
  8
Default Layer
 66
   1
 39
0.000000
 70
    1
  0
VERTEX
  8
0
 10
1862.32822296
 20
2188.35198597
  0
VERTEX
  8
0
 10
1862.32822296
 20
2200.64710872
  0
VERTEX
  8
0
 10
1764.33141603
 20
2200.64710872
  0
VERTEX
  8
0
 10
1764.33141603
 20
2188.35198597
  0
VERTEX
  8
0
 10
1862.32822296
 20
2188.35198597
  0
SEQEND
  0
POLYLINE
  8
Default Layer
 66
   1
 39
0.000000
 70
    1
  0
VERTEX
  8
0
 10
1908.61296861
 20
2239.09593298
  0
VERTEX
  8
0
 10
1896.31296861
 20
2239.09593298
  0
VERTEX
  8
0
 10
1896.31296861
 20
2260.10751016
  0
VERTEX
  8
0
 10
1908.61296861
 20
2260.10751016
  0
VERTEX
  8
0
 10
1908.61296861
 20
2239.09593298
  0
SEQEND
  0
POLYLINE
  8
Default Layer
 66
   1
 39
0.000000
 70
    1
  0
VERTEX
  8
0
 10
1929.02063411
 20
1993.92373018
  0
VERTEX
  8
0
 10
1916.72063411
 20
1993.92373018
  0
VERTEX
  8
0
 10
1916.72063411
 20
2014.93530736
  0
VERTEX
  8
0
 10
1929.02063411
 20
2014.93530736
  0
VERTEX
  8
0
 10
1929.02063411
 20
1993.92373018
  0
SEQEND
  0
POLYLINE
  8
Default Layer
 66
   1
 39
0.000000
 70
    1
  0
VERTEX
  8
0
 10
1929.36131195
 20
1738.23952133
  0
VERTEX
  8
0
 10
1917.06131195
 20
1738.23952133
  0
VERTEX
  8
0
 10
1917.06131195
 20
1759.25109851
  0
VERTEX
  8
0
 10
1929.36131195
 20
1759.25109851
  0
VERTEX
  8
0
 10
1929.36131195
 20
1738.23952133
  0
SEQEND
  0
POLYLINE
  8
Default Layer
 66
   1
 39
0.000000
 70
    1
  0
VERTEX
  8
0
 10
406.85083963
 20
1785.40792176
  0
VERTEX
  8
0
 10
406.85083963
 20
1880.37615196
  0
VERTEX
  8
0
 10
418.83807089
 20
1880.37615196
  0
VERTEX
  8
0
 10
418.83807089
 20
1936.31548223
  0
VERTEX
  8
0
 10
1589.76164623
 20
1936.31548223
  0
VERTEX
  8
0
 10
1589.76164623
 20
1880.33570818
  0
VERTEX
  8
0
 10
1601.68050054
 20
1880.33570818
  0
VERTEX
  8
0
 10
1601.68050054
 20
1785.40792176
  0
VERTEX
  8
0
 10
1589.76164623
 20
1785.40792176
  0
VERTEX
  8
0
 10
1589.76164623
 20
1708.34512023
  0
VERTEX
  8
0
 10
418.83807089
 20
1708.34512023
  0
VERTEX
  8
0
 10
418.83807089
 20
1785.40792176
  0
VERTEX
  8
0
 10
406.85083963
 20
1785.40792176
  0
SEQEND
  0
POLYLINE
  8
Default Layer
 66
   1
 39
0.000000
 70
    1
  0
VERTEX
  8
0
 10
407.81281101
 20
2277.20424425
  0
VERTEX
  8
0
 10
407.81281101
 20
2372.17247445
  0
VERTEX
  8
0
 10
419.80004227
 20
2372.17247445
  0
VERTEX
  8
0
 10
419.80004227
 20
2407.18647717
  0
VERTEX
  8
0
 10
1590.72361761
 20
2407.18647717
  0
VERTEX
  8
0
 10
1590.72361761
 20
2372.13203067
  0
VERTEX
  8
0
 10
1602.64247192
 20
2372.13203067
  0
VERTEX
  8
0
 10
1602.64247192
 20
2277.20424425
  0
VERTEX
  8
0
 10
1590.72361761
 20
2277.20424425
  0
VERTEX
  8
0
 10
1590.72361761
 20
2200.14144272
  0
VERTEX
  8
0
 10
419.80004227
 20
2200.14144272
  0
VERTEX
  8
0
 10
419.80004227
 20
2277.20424425
  0
VERTEX
  8
0
 10
407.81281101
 20
2277.20424425
  0
SEQEND
  0
POLYLINE
  8
Default Layer
 66
   1
 39
0.000000
 70
    1
  0
VERTEX
  8
0
 10
-1397.73691655
 20
3367.62022631
  0
VERTEX
  8
0
 10
-1397.73691655
 20
3596.22022631
  0
VERTEX
  8
0
 10
-1245.33691655
 20
3596.22022631
  0
VERTEX
  8
0
 10
-1245.33691655
 20
3367.62022631
  0
VERTEX
  8
0
 10
-1397.73691655
 20
3367.62022631
  0
SEQEND
  0
POLYLINE
  8
Default Layer
 66
   1
 39
0.000000
 70
    0
  0
VERTEX
  8
0
 10
-1169.13691655
 20
3596.22022631
  0
VERTEX
  8
0
 10
-1169.13691655
 20
3367.62022631
  0
VERTEX
  8
0
 10
-1016.73691655
 20
3367.62022631
  0
SEQEND
  0
POLYLINE
  8
Default Layer
 66
   1
 39
0.000000
 70
    0
  0
VERTEX
  8
0
 10
-940.53691655
 20
3367.62022631
  0
VERTEX
  8
0
 10
-826.23691655
 20
3367.62022631
  0
VERTEX
  8
0
 10
-788.13691655
 20
3405.72022631
  0
VERTEX
  8
0
 10
-788.13691655
 20
3558.12022631
  0
VERTEX
  8
0
 10
-826.23691655
 20
3596.22022631
  0
VERTEX
  8
0
 10
-940.53691655
 20
3596.22022631
  0
SEQEND
  0
POLYLINE
  8
Default Layer
 66
   1
 39
0.000000
 70
    0
  0
VERTEX
  8
0
 10
-902.43691655
 20
3596.22022631
  0
VERTEX
  8
0
 10
-902.43691655
 20
3367.62022631
  0
SEQEND
  0
POLYLINE
  8
Default Layer
 66
   1
 39
0.000000
 70
    0
  0
VERTEX
  8
0
 10
-483.33691655
 20
3405.72022631
  0
VERTEX
  8
0
 10
-445.23691655
 20
3367.62022631
  0
VERTEX
  8
0
 10
-369.03691655
 20
3367.62022631
  0
VERTEX
  8
0
 10
-330.93691655
 20
3405.72022631
  0
VERTEX
  8
0
 10
-483.33691655
 20
3558.12022631
  0
VERTEX
  8
0
 10
-445.23691655
 20
3596.22022631
  0
VERTEX
  8
0
 10
-369.03691655
 20
3596.22022631
  0
VERTEX
  8
0
 10
-330.93691655
 20
3558.12022631
  0
SEQEND
  0
POLYLINE
  8
Default Layer
 66
   1
 39
0.000000
 70
    0
  0
VERTEX
  8
0
 10
-254.73691655
 20
3367.62022631
  0
VERTEX
  8
0
 10
-254.73691655
 20
3596.22022631
  0
SEQEND
  0
POLYLINE
  8
Default Layer
 66
   1
 39
0.000000
 70
    0
  0
VERTEX
  8
0
 10
-254.73691655
 20
3481.92022631
  0
VERTEX
  8
0
 10
-102.33691655
 20
3481.92022631
  0
SEQEND
  0
POLYLINE
  8
Default Layer
 66
   1
 39
0.000000
 70
    0
  0
VERTEX
  8
0
 10
-102.33691655
 20
3596.22022631
  0
VERTEX
  8
0
 10
-102.33691655
 20
3367.62022631
  0
SEQEND
  0
POLYLINE
  8
Default Layer
 66
   1
 39
0.000000
 70
    0
  0
VERTEX
  8
0
 10
-26.13691655
 20
3367.62022631
  0
VERTEX
  8
0
 10
-26.13691655
 20
3443.82022631
  0
VERTEX
  8
0
 10
50.06308345
 20
3596.22022631
  0
VERTEX
  8
0
 10
126.26308345
 20
3443.82022631
  0
VERTEX
  8
0
 10
126.26308345
 20
3367.62022631
  0
SEQEND
  0
POLYLINE
  8
Default Layer
 66
   1
 39
0.000000
 70
    0
  0
VERTEX
  8
0
 10
-26.13691655
 20
3443.82022631
  0
VERTEX
  8
0
 10
126.26308345
 20
3443.82022631
  0
SEQEND
  0
POLYLINE
  8
Default Layer
 66
   1
 39
0.000000
 70
    0
  0
VERTEX
  8
0
 10
202.46308345
 20
3367.62022631
  0
VERTEX
  8
0
 10
202.46308345
 20
3596.22022631
  0
VERTEX
  8
0
 10
316.76308345
 20
3596.22022631
  0
VERTEX
  8
0
 10
354.86308345
 20
3558.12022631
  0
VERTEX
  8
0
 10
354.86308345
 20
3520.02022631
  0
VERTEX
  8
0
 10
316.76308345
 20
3481.92022631
  0
VERTEX
  8
0
 10
202.46308345
 20
3481.92022631
  0
SEQEND
  0
POLYLINE
  8
Default Layer
 66
   1
 39
0.000000
 70
    0
  0
VERTEX
  8
0
 10
431.06308345
 20
3367.62022631
  0
VERTEX
  8
0
 10
431.06308345
 20
3596.22022631
  0
VERTEX
  8
0
 10
583.46308345
 20
3596.22022631
  0
SEQEND
  0
POLYLINE
  8
Default Layer
 66
   1
 39
0.000000
 70
    0
  0
VERTEX
  8
0
 10
431.06308345
 20
3481.92022631
  0
VERTEX
  8
0
 10
507.26308345
 20
3481.92022631
  0
SEQEND
  0
POLYLINE
  8
Default Layer
 66
   1
 39
0.000000
 70
    0
  0
VERTEX
  8
0
 10
431.06308345
 20
3367.62022631
  0
VERTEX
  8
0
 10
583.46308345
 20
3367.62022631
  0
SEQEND
  0
POLYLINE
  8
Default Layer
 66
   1
 39
0.000000
 70
    0
  0
VERTEX
  8
0
 10
1040.66308345
 20
3405.72022631
  0
VERTEX
  8
0
 10
1002.56308345
 20
3367.62022631
  0
VERTEX
  8
0
 10
926.36308345
 20
3367.62022631
  0
VERTEX
  8
0
 10
888.26308345
 20
3405.72022631
  0
VERTEX
  8
0
 10
888.26308345
 20
3558.12022631
  0
VERTEX
  8
0
 10
926.36308345
 20
3596.22022631
  0
VERTEX
  8
0
 10
1002.56308345
 20
3596.22022631
  0
VERTEX
  8
0
 10
1040.66308345
 20
3558.12022631
  0
SEQEND
  0
POLYLINE
  8
Default Layer
 66
   1
 39
0.000000
 70
    1
  0
VERTEX
  8
0
 10
1116.86308345
 20
3367.62022631
  0
VERTEX
  8
0
 10
1116.86308345
 20
3596.22022631
  0
VERTEX
  8
0
 10
1269.26308345
 20
3596.22022631
  0
VERTEX
  8
0
 10
1269.26308345
 20
3367.62022631
  0
VERTEX
  8
0
 10
1116.86308345
 20
3367.62022631
  0
SEQEND
  0
POLYLINE
  8
Default Layer
 66
   1
 39
0.000000
 70
    0
  0
VERTEX
  8
0
 10
1345.46308345
 20
3367.62022631
  0
VERTEX
  8
0
 10
1345.46308345
 20
3596.22022631
  0
VERTEX
  8
0
 10
1497.86308345
 20
3367.62022631
  0
VERTEX
  8
0
 10
1497.86308345
 20
3596.22022631
  0
SEQEND
  0
POLYLINE
  8
Default Layer
 66
   1
 39
0.000000
 70
    0
  0
VERTEX
  8
0
 10
1574.06308345
 20
3367.62022631
  0
VERTEX
  8
0
 10
1574.06308345
 20
3596.22022631
  0
VERTEX
  8
0
 10
1726.46308345
 20
3367.62022631
  0
VERTEX
  8
0
 10
1726.46308345
 20
3596.22022631
  0
SEQEND
  0
POLYLINE
  8
Default Layer
 66
   1
 39
0.000000
 70
    0
  0
VERTEX
  8
0
 10
1802.66308345
 20
3367.62022631
  0
VERTEX
  8
0
 10
1802.66308345
 20
3596.22022631
  0
VERTEX
  8
0
 10
1955.06308345
 20
3596.22022631
  0
SEQEND
  0
POLYLINE
  8
Default Layer
 66
   1
 39
0.000000
 70
    0
  0
VERTEX
  8
0
 10
1802.66308345
 20
3481.92022631
  0
VERTEX
  8
0
 10
1878.86308345
 20
3481.92022631
  0
SEQEND
  0
POLYLINE
  8
Default Layer
 66
   1
 39
0.000000
 70
    0
  0
VERTEX
  8
0
 10
1802.66308345
 20
3367.62022631
  0
VERTEX
  8
0
 10
1955.06308345
 20
3367.62022631
  0
SEQEND
  0
POLYLINE
  8
Default Layer
 66
   1
 39
0.000000
 70
    0
  0
VERTEX
  8
0
 10
2183.66308345
 20
3405.72022631
  0
VERTEX
  8
0
 10
2145.56308345
 20
3367.62022631
  0
VERTEX
  8
0
 10
2069.36308345
 20
3367.62022631
  0
VERTEX
  8
0
 10
2031.26308345
 20
3405.72022631
  0
VERTEX
  8
0
 10
2031.26308345
 20
3558.12022631
  0
VERTEX
  8
0
 10
2069.36308345
 20
3596.22022631
  0
VERTEX
  8
0
 10
2145.56308345
 20
3596.22022631
  0
VERTEX
  8
0
 10
2183.66308345
 20
3558.12022631
  0
SEQEND
  0
POLYLINE
  8
Default Layer
 66
   1
 39
0.000000
 70
    0
  0
VERTEX
  8
0
 10
2259.86308345
 20
3596.22022631
  0
VERTEX
  8
0
 10
2412.26308345
 20
3596.22022631
  0
SEQEND
  0
POLYLINE
  8
Default Layer
 66
   1
 39
0.000000
 70
    0
  0
VERTEX
  8
0
 10
2336.06308345
 20
3596.22022631
  0
VERTEX
  8
0
 10
2336.06308345
 20
3367.62022631
  0
SEQEND
  0
POLYLINE
  8
Default Layer
 66
   1
 39
0.000000
 70
    0
  0
VERTEX
  8
0
 10
2717.06308345
 20
3405.72022631
  0
VERTEX
  8
0
 10
2755.16308345
 20
3367.62022631
  0
VERTEX
  8
0
 10
2831.36308345
 20
3367.62022631
  0
VERTEX
  8
0
 10
2869.46308345
 20
3405.72022631
  0
VERTEX
  8
0
 10
2717.06308345
 20
3558.12022631
  0
VERTEX
  8
0
 10
2755.16308345
 20
3596.22022631
  0
VERTEX
  8
0
 10
2831.36308345
 20
3596.22022631
  0
VERTEX
  8
0
 10
2869.46308345
 20
3558.12022631
  0
SEQEND
  0
POLYLINE
  8
Default Layer
 66
   1
 39
0.000000
 70
    0
  0
VERTEX
  8
0
 10
2945.66308345
 20
3596.22022631
  0
VERTEX
  8
0
 10
3021.86308345
 20
3367.62022631
  0
VERTEX
  8
0
 10
3059.96308345
 20
3481.92022631
  0
VERTEX
  8
0
 10
3098.06308345
 20
3367.62022631
  0
VERTEX
  8
0
 10
3174.26308345
 20
3596.22022631
  0
SEQEND
  0
POLYLINE
  8
Default Layer
 66
   1
 39
0.000000
 70
    0
  0
VERTEX
  8
0
 10
3250.46308345
 20
3367.62022631
  0
VERTEX
  8
0
 10
3364.76308345
 20
3367.62022631
  0
VERTEX
  8
0
 10
3402.86308345
 20
3405.72022631
  0
VERTEX
  8
0
 10
3402.86308345
 20
3443.82022631
  0
VERTEX
  8
0
 10
3364.76308345
 20
3481.92022631
  0
VERTEX
  8
0
 10
3288.56308345
 20
3481.92022631
  0
SEQEND
  0
POLYLINE
  8
Default Layer
 66
   1
 39
0.000000
 70
    0
  0
VERTEX
  8
0
 10
3364.76308345
 20
3481.92022631
  0
VERTEX
  8
0
 10
3402.86308345
 20
3520.02022631
  0
VERTEX
  8
0
 10
3402.86308345
 20
3558.12022631
  0
VERTEX
  8
0
 10
3364.76308345
 20
3596.22022631
  0
VERTEX
  8
0
 10
3250.46308345
 20
3596.22022631
  0
SEQEND
  0
POLYLINE
  8
Default Layer
 66
   1
 39
0.000000
 70
    0
  0
VERTEX
  8
0
 10
3288.56308345
 20
3596.22022631
  0
VERTEX
  8
0
 10
3288.56308345
 20
3367.62022631
  0
SEQEND
  0
POLYLINE
  8
Default Layer
 66
   1
 39
0.000000
 70
    0
  0
VERTEX
  8
0
 10
-407.13691655
 20
2997.50594059
  0
VERTEX
  8
0
 10
-369.03691655
 20
2959.40594059
  0
VERTEX
  8
0
 10
-292.83691655
 20
2959.40594059
  0
VERTEX
  8
0
 10
-254.73691655
 20
2997.50594059
  0
VERTEX
  8
0
 10
-407.13691655
 20
3149.90594059
  0
VERTEX
  8
0
 10
-369.03691655
 20
3188.00594059
  0
VERTEX
  8
0
 10
-292.83691655
 20
3188.00594059
  0
VERTEX
  8
0
 10
-254.73691655
 20
3149.90594059
  0
SEQEND
  0
POLYLINE
  8
Default Layer
 66
   1
 39
0.000000
 70
    0
  0
VERTEX
  8
0
 10
-178.53691655
 20
2959.40594059
  0
VERTEX
  8
0
 10
-178.53691655
 20
3188.00594059
  0
SEQEND
  0
POLYLINE
  8
Default Layer
 66
   1
 39
0.000000
 70
    0
  0
VERTEX
  8
0
 10
-178.53691655
 20
3073.70594059
  0
VERTEX
  8
0
 10
-26.13691655
 20
3073.70594059
  0
SEQEND
  0
POLYLINE
  8
Default Layer
 66
   1
 39
0.000000
 70
    0
  0
VERTEX
  8
0
 10
-26.13691655
 20
3188.00594059
  0
VERTEX
  8
0
 10
-26.13691655
 20
2959.40594059
  0
SEQEND
  0
POLYLINE
  8
Default Layer
 66
   1
 39
0.000000
 70
    0
  0
VERTEX
  8
0
 10
50.06308345
 20
2959.40594059
  0
VERTEX
  8
0
 10
50.06308345
 20
3188.00594059
  0
VERTEX
  8
0
 10
202.46308345
 20
3188.00594059
  0
SEQEND
  0
POLYLINE
  8
Default Layer
 66
   1
 39
0.000000
 70
    0
  0
VERTEX
  8
0
 10
50.06308345
 20
3073.70594059
  0
VERTEX
  8
0
 10
126.26308345
 20
3073.70594059
  0
SEQEND
  0
POLYLINE
  8
Default Layer
 66
   1
 39
0.000000
 70
    0
  0
VERTEX
  8
0
 10
50.06308345
 20
2959.40594059
  0
VERTEX
  8
0
 10
202.46308345
 20
2959.40594059
  0
SEQEND
  0
POLYLINE
  8
Default Layer
 66
   1
 39
0.000000
 70
    0
  0
VERTEX
  8
0
 10
278.66308345
 20
3188.00594059
  0
VERTEX
  8
0
 10
278.66308345
 20
2959.40594059
  0
VERTEX
  8
0
 10
431.06308345
 20
2959.40594059
  0
SEQEND
  0
POLYLINE
  8
Default Layer
 66
   1
 39
0.000000
 70
    0
  0
VERTEX
  8
0
 10
507.26308345
 20
3188.00594059
  0
VERTEX
  8
0
 10
621.56308345
 20
2959.40594059
  0
VERTEX
  8
0
 10
735.86308345
 20
3188.00594059
  0
SEQEND
  0
POLYLINE
  8
Default Layer
 66
   1
 39
0.000000
 70
    0
  0
VERTEX
  8
0
 10
812.06308345
 20
3188.00594059
  0
VERTEX
  8
0
 10
888.26308345
 20
3188.00594059
  0
SEQEND
  0
POLYLINE
  8
Default Layer
 66
   1
 39
0.000000
 70
    0
  0
VERTEX
  8
0
 10
850.16308345
 20
3188.00594059
  0
VERTEX
  8
0
 10
850.16308345
 20
2959.40594059
  0
SEQEND
  0
POLYLINE
  8
Default Layer
 66
   1
 39
0.000000
 70
    0
  0
VERTEX
  8
0
 10
812.06308345
 20
2959.40594059
  0
VERTEX
  8
0
 10
888.26308345
 20
2959.40594059
  0
SEQEND
  0
POLYLINE
  8
Default Layer
 66
   1
 39
0.000000
 70
    0
  0
VERTEX
  8
0
 10
964.46308345
 20
2959.40594059
  0
VERTEX
  8
0
 10
964.46308345
 20
3188.00594059
  0
VERTEX
  8
0
 10
1116.86308345
 20
2959.40594059
  0
VERTEX
  8
0
 10
1116.86308345
 20
3188.00594059
  0
SEQEND
  0
POLYLINE
  8
Default Layer
 66
   1
 39
0.000000
 70
    0
  0
VERTEX
  8
0
 10
1307.36308345
 20
3073.70594059
  0
VERTEX
  8
0
 10
1345.46308345
 20
3073.70594059
  0
VERTEX
  8
0
 10
1345.46308345
 20
2959.40594059
  0
VERTEX
  8
0
 10
1231.16308345
 20
2959.40594059
  0
VERTEX
  8
0
 10
1193.06308345
 20
2997.50594059
  0
VERTEX
  8
0
 10
1193.06308345
 20
3149.90594059
  0
VERTEX
  8
0
 10
1231.16308345
 20
3188.00594059
  0
VERTEX
  8
0
 10
1345.46308345
 20
3188.00594059
  0
SEQEND
  0
POLYLINE
  8
Default Layer
 66
   1
 39
0.000000
 70
    0
  0
VERTEX
  8
0
 10
1650.26308345
 20
3149.90594059
  0
VERTEX
  8
0
 10
1688.36308345
 20
3188.00594059
  0
VERTEX
  8
0
 10
1688.36308345
 20
2959.40594059
  0
SEQEND
  0
POLYLINE
  8
Default Layer
 66
   1
 39
0.000000
 70
    0
  0
VERTEX
  8
0
 10
1650.26308345
 20
2959.40594059
  0
VERTEX
  8
0
 10
1726.46308345
 20
2959.40594059
  0
SEQEND
  0
POLYLINE
  8
Default Layer
 66
   1
 39
0.000000
 70
    0
  0
VERTEX
  8
0
 10
1802.66308345
 20
3149.90594059
  0
VERTEX
  8
0
 10
1840.76308345
 20
3188.00594059
  0
VERTEX
  8
0
 10
1916.96308345
 20
3188.00594059
  0
VERTEX
  8
0
 10
1955.06308345
 20
3149.90594059
  0
VERTEX
  8
0
 10
1955.06308345
 20
3111.80594059
  0
VERTEX
  8
0
 10
1916.96308345
 20
3073.70594059
  0
VERTEX
  8
0
 10
1840.76308345
 20
3073.70594059
  0
VERTEX
  8
0
 10
1802.66308345
 20
3035.60594059
  0
VERTEX
  8
0
 10
1802.66308345
 20
2959.40594059
  0
VERTEX
  8
0
 10
1955.06308345
 20
2959.40594059
  0
SEQEND
  0
POLYLINE
  8
Default Layer
 66
   1
 39
0.000000
 70
    0
  0
VERTEX
  8
0
 10
2031.26308345
 20
2959.40594059
  0
VERTEX
  8
0
 10
2031.26308345
 20
3188.00594059
  0
VERTEX
  8
0
 10
2107.46308345
 20
3035.60594059
  0
VERTEX
  8
0
 10
2183.66308345
 20
3188.00594059
  0
VERTEX
  8
0
 10
2183.66308345
 20
2959.40594059
  0
SEQEND
  0
POLYLINE
  8
Default Layer
 66
   1
 39
0.000000
 70
    0
  0
VERTEX
  8
0
 10
2259.86308345
 20
2959.40594059
  0
VERTEX
  8
0
 10
2259.86308345
 20
3188.00594059
  0
VERTEX
  8
0
 10
2336.06308345
 20
3035.60594059
  0
VERTEX
  8
0
 10
2412.26308345
 20
3188.00594059
  0
VERTEX
  8
0
 10
2412.26308345
 20
2959.40594059
  0
SEQEND
  0
POLYLINE
  8
Default Layer
 66
   1
 39
0.000000
 70
    0
  0
VERTEX
  8
0
 10
571.17397454
 20
2464.15841584
  0
VERTEX
  8
0
 10
571.17397454
 20
2514.95841584
  0
VERTEX
  8
0
 10
596.57397454
 20
2514.95841584
  0
VERTEX
  8
0
 10
605.04064121
 20
2506.49174917
  0
VERTEX
  8
0
 10
605.04064121
 20
2498.02508251
  0
VERTEX
  8
0
 10
596.57397454
 20
2489.55841584
  0
VERTEX
  8
0
 10
571.17397454
 20
2489.55841584
  0
SEQEND
  0
POLYLINE
  8
Default Layer
 66
   1
 39
0.000000
 70
    0
  0
VERTEX
  8
0
 10
579.64064121
 20
2489.55841584
  0
VERTEX
  8
0
 10
605.04064121
 20
2464.15841584
  0
SEQEND
  0
POLYLINE
  8
Default Layer
 66
   1
 39
0.000000
 70
    0
  0
VERTEX
  8
0
 10
621.97397454
 20
2464.15841584
  0
VERTEX
  8
0
 10
621.97397454
 20
2514.95841584
  0
VERTEX
  8
0
 10
655.84064121
 20
2514.95841584
  0
SEQEND
  0
POLYLINE
  8
Default Layer
 66
   1
 39
0.000000
 70
    0
  0
VERTEX
  8
0
 10
621.97397454
 20
2489.55841584
  0
VERTEX
  8
0
 10
638.90730787
 20
2489.55841584
  0
SEQEND
  0
POLYLINE
  8
Default Layer
 66
   1
 39
0.000000
 70
    0
  0
VERTEX
  8
0
 10
621.97397454
 20
2464.15841584
  0
VERTEX
  8
0
 10
655.84064121
 20
2464.15841584
  0
SEQEND
  0
POLYLINE
  8
Default Layer
 66
   1
 39
0.000000
 70
    0
  0
VERTEX
  8
0
 10
672.77397454
 20
2464.15841584
  0
VERTEX
  8
0
 10
672.77397454
 20
2481.09174917
  0
VERTEX
  8
0
 10
689.70730787
 20
2514.95841584
  0
VERTEX
  8
0
 10
706.64064121
 20
2481.09174917
  0
VERTEX
  8
0
 10
706.64064121
 20
2464.15841584
  0
SEQEND
  0
POLYLINE
  8
Default Layer
 66
   1
 39
0.000000
 70
    0
  0
VERTEX
  8
0
 10
672.77397454
 20
2481.09174917
  0
VERTEX
  8
0
 10
706.64064121
 20
2481.09174917
  0
SEQEND
  0
POLYLINE
  8
Default Layer
 66
   1
 39
0.000000
 70
    0
  0
VERTEX
  8
0
 10
723.57397454
 20
2464.15841584
  0
VERTEX
  8
0
 10
723.57397454
 20
2514.95841584
  0
VERTEX
  8
0
 10
748.97397454
 20
2514.95841584
  0
VERTEX
  8
0
 10
757.44064121
 20
2506.49174917
  0
VERTEX
  8
0
 10
757.44064121
 20
2498.02508251
  0
VERTEX
  8
0
 10
748.97397454
 20
2489.55841584
  0
VERTEX
  8
0
 10
723.57397454
 20
2489.55841584
  0
SEQEND
  0
POLYLINE
  8
Default Layer
 66
   1
 39
0.000000
 70
    0
  0
VERTEX
  8
0
 10
732.04064121
 20
2489.55841584
  0
VERTEX
  8
0
 10
757.44064121
 20
2464.15841584
  0
SEQEND
  0
POLYLINE
  8
Default Layer
 66
   1
 39
0.000000
 70
    0
  0
VERTEX
  8
0
 10
825.17397454
 20
2464.15841584
  0
VERTEX
  8
0
 10
825.17397454
 20
2514.95841584
  0
VERTEX
  8
0
 10
850.57397454
 20
2514.95841584
  0
VERTEX
  8
0
 10
859.04064121
 20
2506.49174917
  0
VERTEX
  8
0
 10
859.04064121
 20
2498.02508251
  0
VERTEX
  8
0
 10
850.57397454
 20
2489.55841584
  0
VERTEX
  8
0
 10
825.17397454
 20
2489.55841584
  0
SEQEND
  0
POLYLINE
  8
Default Layer
 66
   1
 39
0.000000
 70
    0
  0
VERTEX
  8
0
 10
833.64064121
 20
2489.55841584
  0
VERTEX
  8
0
 10
859.04064121
 20
2464.15841584
  0
SEQEND
  0
POLYLINE
  8
Default Layer
 66
   1
 39
0.000000
 70
    0
  0
VERTEX
  8
0
 10
875.97397454
 20
2464.15841584
  0
VERTEX
  8
0
 10
875.97397454
 20
2514.95841584
  0
VERTEX
  8
0
 10
909.84064121
 20
2514.95841584
  0
SEQEND
  0
POLYLINE
  8
Default Layer
 66
   1
 39
0.000000
 70
    0
  0
VERTEX
  8
0
 10
875.97397454
 20
2489.55841584
  0
VERTEX
  8
0
 10
892.90730787
 20
2489.55841584
  0
SEQEND
  0
POLYLINE
  8
Default Layer
 66
   1
 39
0.000000
 70
    0
  0
VERTEX
  8
0
 10
875.97397454
 20
2464.15841584
  0
VERTEX
  8
0
 10
909.84064121
 20
2464.15841584
  0
SEQEND
  0
POLYLINE
  8
Default Layer
 66
   1
 39
0.000000
 70
    0
  0
VERTEX
  8
0
 10
926.77397454
 20
2514.95841584
  0
VERTEX
  8
0
 10
960.64064121
 20
2514.95841584
  0
SEQEND
  0
POLYLINE
  8
Default Layer
 66
   1
 39
0.000000
 70
    0
  0
VERTEX
  8
0
 10
943.70730787
 20
2514.95841584
  0
VERTEX
  8
0
 10
943.70730787
 20
2464.15841584
  0
SEQEND
  0
POLYLINE
  8
Default Layer
 66
   1
 39
0.000000
 70
    0
  0
VERTEX
  8
0
 10
977.57397454
 20
2464.15841584
  0
VERTEX
  8
0
 10
977.57397454
 20
2481.09174917
  0
VERTEX
  8
0
 10
994.50730787
 20
2514.95841584
  0
VERTEX
  8
0
 10
1011.44064121
 20
2481.09174917
  0
VERTEX
  8
0
 10
1011.44064121
 20
2464.15841584
  0
SEQEND
  0
POLYLINE
  8
Default Layer
 66
   1
 39
0.000000
 70
    0
  0
VERTEX
  8
0
 10
977.57397454
 20
2481.09174917
  0
VERTEX
  8
0
 10
1011.44064121
 20
2481.09174917
  0
SEQEND
  0
POLYLINE
  8
Default Layer
 66
   1
 39
0.000000
 70
    0
  0
VERTEX
  8
0
 10
1028.37397454
 20
2514.95841584
  0
VERTEX
  8
0
 10
1045.30730787
 20
2514.95841584
  0
SEQEND
  0
POLYLINE
  8
Default Layer
 66
   1
 39
0.000000
 70
    0
  0
VERTEX
  8
0
 10
1036.84064121
 20
2514.95841584
  0
VERTEX
  8
0
 10
1036.84064121
 20
2464.15841584
  0
SEQEND
  0
POLYLINE
  8
Default Layer
 66
   1
 39
0.000000
 70
    0
  0
VERTEX
  8
0
 10
1028.37397454
 20
2464.15841584
  0
VERTEX
  8
0
 10
1045.30730787
 20
2464.15841584
  0
SEQEND
  0
POLYLINE
  8
Default Layer
 66
   1
 39
0.000000
 70
    0
  0
VERTEX
  8
0
 10
1062.24064121
 20
2464.15841584
  0
VERTEX
  8
0
 10
1062.24064121
 20
2514.95841584
  0
VERTEX
  8
0
 10
1096.10730787
 20
2464.15841584
  0
VERTEX
  8
0
 10
1096.10730787
 20
2514.95841584
  0
SEQEND
  0
POLYLINE
  8
Default Layer
 66
   1
 39
0.000000
 70
    0
  0
VERTEX
  8
0
 10
1113.04064121
 20
2464.15841584
  0
VERTEX
  8
0
 10
1113.04064121
 20
2514.95841584
  0
VERTEX
  8
0
 10
1146.90730787
 20
2514.95841584
  0
SEQEND
  0
POLYLINE
  8
Default Layer
 66
   1
 39
0.000000
 70
    0
  0
VERTEX
  8
0
 10
1113.04064121
 20
2489.55841584
  0
VERTEX
  8
0
 10
1129.97397454
 20
2489.55841584
  0
SEQEND
  0
POLYLINE
  8
Default Layer
 66
   1
 39
0.000000
 70
    0
  0
VERTEX
  8
0
 10
1113.04064121
 20
2464.15841584
  0
VERTEX
  8
0
 10
1146.90730787
 20
2464.15841584
  0
SEQEND
  0
POLYLINE
  8
Default Layer
 66
   1
 39
0.000000
 70
    0
  0
VERTEX
  8
0
 10
1163.84064121
 20
2464.15841584
  0
VERTEX
  8
0
 10
1163.84064121
 20
2514.95841584
  0
VERTEX
  8
0
 10
1189.24064121
 20
2514.95841584
  0
VERTEX
  8
0
 10
1197.70730787
 20
2506.49174917
  0
VERTEX
  8
0
 10
1197.70730787
 20
2498.02508251
  0
VERTEX
  8
0
 10
1189.24064121
 20
2489.55841584
  0
VERTEX
  8
0
 10
1163.84064121
 20
2489.55841584
  0
SEQEND
  0
POLYLINE
  8
Default Layer
 66
   1
 39
0.000000
 70
    0
  0
VERTEX
  8
0
 10
1172.30730787
 20
2489.55841584
  0
VERTEX
  8
0
 10
1197.70730787
 20
2464.15841584
  0
SEQEND
  0
POLYLINE
  8
Default Layer
 66
   1
 39
0.000000
 70
    0
  0
VERTEX
  8
0
 10
1214.64064121
 20
2472.62508251
  0
VERTEX
  8
0
 10
1223.10730787
 20
2464.15841584
  0
VERTEX
  8
0
 10
1240.04064121
 20
2464.15841584
  0
VERTEX
  8
0
 10
1248.50730787
 20
2472.62508251
  0
VERTEX
  8
0
 10
1214.64064121
 20
2506.49174917
  0
VERTEX
  8
0
 10
1223.10730787
 20
2514.95841584
  0
VERTEX
  8
0
 10
1240.04064121
 20
2514.95841584
  0
VERTEX
  8
0
 10
1248.50730787
 20
2506.49174917
  0
SEQEND
  0
POLYLINE
  8
Default Layer
 66
   1
 39
0.000000
 70
    0
  0
VERTEX
  8
0
 10
600.50919378
 20
933.55021216
  0
VERTEX
  8
0
 10
600.50919378
 20
984.35021216
  0
VERTEX
  8
0
 10
634.37586044
 20
984.35021216
  0
SEQEND
  0
POLYLINE
  8
Default Layer
 66
   1
 39
0.000000
 70
    0
  0
VERTEX
  8
0
 10
600.50919378
 20
958.95021216
  0
VERTEX
  8
0
 10
617.44252711
 20
958.95021216
  0
SEQEND
  0
POLYLINE
  8
Default Layer
 66
   1
 39
0.000000
 70
    0
  0
VERTEX
  8
0
 10
651.30919378
 20
933.55021216
  0
VERTEX
  8
0
 10
651.30919378
 20
984.35021216
  0
VERTEX
  8
0
 10
676.70919378
 20
984.35021216
  0
VERTEX
  8
0
 10
685.17586044
 20
975.88354550
  0
VERTEX
  8
0
 10
685.17586044
 20
967.41687883
  0
VERTEX
  8
0
 10
676.70919378
 20
958.95021216
  0
VERTEX
  8
0
 10
651.30919378
 20
958.95021216
  0
SEQEND
  0
POLYLINE
  8
Default Layer
 66
   1
 39
0.000000
 70
    0
  0
VERTEX
  8
0
 10
659.77586044
 20
958.95021216
  0
VERTEX
  8
0
 10
685.17586044
 20
933.55021216
  0
SEQEND
  0
POLYLINE
  8
Default Layer
 66
   1
 39
0.000000
 70
    1
  0
VERTEX
  8
0
 10
702.10919378
 20
933.55021216
  0
VERTEX
  8
0
 10
702.10919378
 20
984.35021216
  0
VERTEX
  8
0
 10
735.97586044
 20
984.35021216
  0
VERTEX
  8
0
 10
735.97586044
 20
933.55021216
  0
VERTEX
  8
0
 10
702.10919378
 20
933.55021216
  0
SEQEND
  0
POLYLINE
  8
Default Layer
 66
   1
 39
0.000000
 70
    0
  0
VERTEX
  8
0
 10
752.90919378
 20
933.55021216
  0
VERTEX
  8
0
 10
752.90919378
 20
984.35021216
  0
VERTEX
  8
0
 10
786.77586044
 20
933.55021216
  0
VERTEX
  8
0
 10
786.77586044
 20
984.35021216
  0
SEQEND
  0
POLYLINE
  8
Default Layer
 66
   1
 39
0.000000
 70
    0
  0
VERTEX
  8
0
 10
803.70919378
 20
984.35021216
  0
VERTEX
  8
0
 10
837.57586044
 20
984.35021216
  0
SEQEND
  0
POLYLINE
  8
Default Layer
 66
   1
 39
0.000000
 70
    0
  0
VERTEX
  8
0
 10
820.64252711
 20
984.35021216
  0
VERTEX
  8
0
 10
820.64252711
 20
933.55021216
  0
SEQEND
  0
POLYLINE
  8
Default Layer
 66
   1
 39
0.000000
 70
    0
  0
VERTEX
  8
0
 10
905.30919378
 20
933.55021216
  0
VERTEX
  8
0
 10
905.30919378
 20
984.35021216
  0
VERTEX
  8
0
 10
930.70919378
 20
984.35021216
  0
VERTEX
  8
0
 10
939.17586044
 20
975.88354550
  0
VERTEX
  8
0
 10
939.17586044
 20
967.41687883
  0
VERTEX
  8
0
 10
930.70919378
 20
958.95021216
  0
VERTEX
  8
0
 10
905.30919378
 20
958.95021216
  0
SEQEND
  0
POLYLINE
  8
Default Layer
 66
   1
 39
0.000000
 70
    0
  0
VERTEX
  8
0
 10
913.77586044
 20
958.95021216
  0
VERTEX
  8
0
 10
939.17586044
 20
933.55021216
  0
SEQEND
  0
POLYLINE
  8
Default Layer
 66
   1
 39
0.000000
 70
    0
  0
VERTEX
  8
0
 10
956.10919378
 20
933.55021216
  0
VERTEX
  8
0
 10
956.10919378
 20
984.35021216
  0
VERTEX
  8
0
 10
989.97586044
 20
984.35021216
  0
SEQEND
  0
POLYLINE
  8
Default Layer
 66
   1
 39
0.000000
 70
    0
  0
VERTEX
  8
0
 10
956.10919378
 20
958.95021216
  0
VERTEX
  8
0
 10
973.04252711
 20
958.95021216
  0
SEQEND
  0
POLYLINE
  8
Default Layer
 66
   1
 39
0.000000
 70
    0
  0
VERTEX
  8
0
 10
956.10919378
 20
933.55021216
  0
VERTEX
  8
0
 10
989.97586044
 20
933.55021216
  0
SEQEND
  0
POLYLINE
  8
Default Layer
 66
   1
 39
0.000000
 70
    0
  0
VERTEX
  8
0
 10
1006.90919378
 20
984.35021216
  0
VERTEX
  8
0
 10
1040.77586044
 20
984.35021216
  0
SEQEND
  0
POLYLINE
  8
Default Layer
 66
   1
 39
0.000000
 70
    0
  0
VERTEX
  8
0
 10
1023.84252711
 20
984.35021216
  0
VERTEX
  8
0
 10
1023.84252711
 20
933.55021216
  0
SEQEND
  0
POLYLINE
  8
Default Layer
 66
   1
 39
0.000000
 70
    0
  0
VERTEX
  8
0
 10
1057.70919378
 20
933.55021216
  0
VERTEX
  8
0
 10
1057.70919378
 20
950.48354550
  0
VERTEX
  8
0
 10
1074.64252711
 20
984.35021216
  0
VERTEX
  8
0
 10
1091.57586044
 20
950.48354550
  0
VERTEX
  8
0
 10
1091.57586044
 20
933.55021216
  0
SEQEND
  0
POLYLINE
  8
Default Layer
 66
   1
 39
0.000000
 70
    0
  0
VERTEX
  8
0
 10
1057.70919378
 20
950.48354550
  0
VERTEX
  8
0
 10
1091.57586044
 20
950.48354550
  0
SEQEND
  0
POLYLINE
  8
Default Layer
 66
   1
 39
0.000000
 70
    0
  0
VERTEX
  8
0
 10
1108.50919378
 20
984.35021216
  0
VERTEX
  8
0
 10
1125.44252711
 20
984.35021216
  0
SEQEND
  0
POLYLINE
  8
Default Layer
 66
   1
 39
0.000000
 70
    0
  0
VERTEX
  8
0
 10
1116.97586044
 20
984.35021216
  0
VERTEX
  8
0
 10
1116.97586044
 20
933.55021216
  0
SEQEND
  0
POLYLINE
  8
Default Layer
 66
   1
 39
0.000000
 70
    0
  0
VERTEX
  8
0
 10
1108.50919378
 20
933.55021216
  0
VERTEX
  8
0
 10
1125.44252711
 20
933.55021216
  0
SEQEND
  0
POLYLINE
  8
Default Layer
 66
   1
 39
0.000000
 70
    0
  0
VERTEX
  8
0
 10
1142.37586044
 20
933.55021216
  0
VERTEX
  8
0
 10
1142.37586044
 20
984.35021216
  0
VERTEX
  8
0
 10
1176.24252711
 20
933.55021216
  0
VERTEX
  8
0
 10
1176.24252711
 20
984.35021216
  0
SEQEND
  0
POLYLINE
  8
Default Layer
 66
   1
 39
0.000000
 70
    0
  0
VERTEX
  8
0
 10
1193.17586044
 20
933.55021216
  0
VERTEX
  8
0
 10
1193.17586044
 20
984.35021216
  0
VERTEX
  8
0
 10
1227.04252711
 20
984.35021216
  0
SEQEND
  0
POLYLINE
  8
Default Layer
 66
   1
 39
0.000000
 70
    0
  0
VERTEX
  8
0
 10
1193.17586044
 20
958.95021216
  0
VERTEX
  8
0
 10
1210.10919378
 20
958.95021216
  0
SEQEND
  0
POLYLINE
  8
Default Layer
 66
   1
 39
0.000000
 70
    0
  0
VERTEX
  8
0
 10
1193.17586044
 20
933.55021216
  0
VERTEX
  8
0
 10
1227.04252711
 20
933.55021216
  0
SEQEND
  0
POLYLINE
  8
Default Layer
 66
   1
 39
0.000000
 70
    0
  0
VERTEX
  8
0
 10
1243.97586044
 20
933.55021216
  0
VERTEX
  8
0
 10
1243.97586044
 20
984.35021216
  0
VERTEX
  8
0
 10
1269.37586044
 20
984.35021216
  0
VERTEX
  8
0
 10
1277.84252711
 20
975.88354550
  0
VERTEX
  8
0
 10
1277.84252711
 20
967.41687883
  0
VERTEX
  8
0
 10
1269.37586044
 20
958.95021216
  0
VERTEX
  8
0
 10
1243.97586044
 20
958.95021216
  0
SEQEND
  0
POLYLINE
  8
Default Layer
 66
   1
 39
0.000000
 70
    0
  0
VERTEX
  8
0
 10
1252.44252711
 20
958.95021216
  0
VERTEX
  8
0
 10
1277.84252711
 20
933.55021216
  0
SEQEND
  0
POLYLINE
  8
Default Layer
 66
   1
 39
0.000000
 70
    0
  0
VERTEX
  8
0
 10
1294.77586044
 20
942.01687883
  0
VERTEX
  8
0
 10
1303.24252711
 20
933.55021216
  0
VERTEX
  8
0
 10
1320.17586044
 20
933.55021216
  0
VERTEX
  8
0
 10
1328.64252711
 20
942.01687883
  0
VERTEX
  8
0
 10
1294.77586044
 20
975.88354550
  0
VERTEX
  8
0
 10
1303.24252711
 20
984.35021216
  0
VERTEX
  8
0
 10
1320.17586044
 20
984.35021216
  0
VERTEX
  8
0
 10
1328.64252711
 20
975.88354550
  0
SEQEND
  0
ENDSEC
  0
EOF
