  0
SECTION
  2
HEADER
  9
$ACADVER
  1
AC1009
  9
$INSBASE
 10
0.0
 20
0.0
 30
0.0
  9
$EXTMIN
 10
614.3247447885804604
 20
-607.5040189704742488
 30
0.0
  9
$EXTMAX
 10
3054.3247447885810288
 20
677.75793970935365
 30
0.0
  9
$LIMMIN
 10
-0.013
 20
-0.013
  9
$LIMMAX
 10
2.4870000000000001
 20
1.2869999999999999
  9
$ORTHOMODE
 70
     1
  9
$REGENMODE
 70
     1
  9
$FILLMODE
 70
     1
  9
$QTEXTMODE
 70
     0
  9
$MIRRTEXT
 70
     0
  9
$DRAGMODE
 70
     2
  9
$LTSCALE
 40
1.0
  9
$OSMODE
 70
   175
  9
$ATTMODE
 70
     1
  9
$TEXTSIZE
 40
2.5
  9
$TRACEWID
 40
1.0
  9
$TEXTSTYLE
  7
STANDARD
  9
$CLAYER
  8
0
  9
$CELTYPE
  6
BYLAYER
  9
$CECOLOR
 62
   256
  9
$DIMSCALE
 40
1.0
  9
$DIMASZ
 40
2.5
  9
$DIMEXO
 40
0.625
  9
$DIMDLI
 40
3.75
  9
$DIMRND
 40
0.0
  9
$DIMDLE
 40
0.0
  9
$DIMEXE
 40
1.25
  9
$DIMTP
 40
0.0
  9
$DIMTM
 40
0.0
  9
$DIMTXT
 40
2.5
  9
$DIMCEN
 40
2.5
  9
$DIMTSZ
 40
0.0
  9
$DIMTOL
 70
     0
  9
$DIMLIM
 70
     0
  9
$DIMTIH
 70
     0
  9
$DIMTOH
 70
     0
  9
$DIMSE1
 70
     0
  9
$DIMSE2
 70
     0
  9
$DIMTAD
 70
     1
  9
$DIMZIN
 70
     8
  9
$DIMBLK
  1

  9
$DIMASO
 70
     1
  9
$DIMSHO
 70
     1
  9
$DIMPOST
  1

  9
$DIMAPOST
  1

  9
$DIMALT
 70
     0
  9
$DIMALTD
 70
     3
  9
$DIMALTF
 40
0.03937007874016
  9
$DIMLFAC
 40
1.0
  9
$DIMTOFL
 70
     1
  9
$DIMTVP
 40
0.0
  9
$DIMTIX
 70
     0
  9
$DIMSOXD
 70
     0
  9
$DIMSAH
 70
     0
  9
$DIMBLK1
  1

  9
$DIMBLK2
  1

  9
$DIMSTYLE
  2
ISO-25
  9
$DIMCLRD
 70
     0
  9
$DIMCLRE
 70
     0
  9
$DIMCLRT
 70
     0
  9
$DIMTFAC
 40
1.0
  9
$DIMGAP
 40
0.625
  9
$LUNITS
 70
     2
  9
$LUPREC
 70
     4
  9
$SKETCHINC
 40
1.0
  9
$FILLETRAD
 40
0.0
  9
$AUNITS
 70
     0
  9
$AUPREC
 70
     0
  9
$MENU
  1
.
  9
$ELEVATION
 40
0.0
  9
$PELEVATION
 40
0.0
  9
$THICKNESS
 40
0.0
  9
$LIMCHECK
 70
     0
  9
$BLIPMODE
 70
     0
  9
$CHAMFERA
 40
0.0
  9
$CHAMFERB
 40
0.0
  9
$SKPOLY
 70
     0
  9
$TDCREATE
 40
2458087.5699884258210659
  9
$TDUPDATE
 40
2458088.562662037089467
  9
$TDINDWG
 40
0.0788425926
  9
$TDUSRTIMER
 40
0.0788425926
  9
$USRTIMER
 70
     1
  9
$ANGBASE
 50
0.0
  9
$ANGDIR
 70
     0
  9
$PDMODE
 70
     0
  9
$PDSIZE
 40
0.0
  9
$PLINEWID
 40
0.0
  9
$COORDS
 70
     1
  9
$SPLFRAME
 70
     0
  9
$SPLINETYPE
 70
     6
  9
$SPLINESEGS
 70
     8
  9
$ATTDIA
 70
     1
  9
$ATTREQ
 70
     1
  9
$HANDLING
 70
     1
  9
$HANDSEED
  5
639
  9
$SURFTAB1
 70
     6
  9
$SURFTAB2
 70
     6
  9
$SURFTYPE
 70
     6
  9
$SURFU
 70
     6
  9
$SURFV
 70
     6
  9
$UCSNAME
  2

  9
$UCSORG
 10
0.0
 20
0.0
 30
0.0
  9
$UCSXDIR
 10
1.0
 20
0.0
 30
0.0
  9
$UCSYDIR
 10
0.0
 20
1.0
 30
0.0
  9
$PUCSNAME
  2

  9
$PUCSORG
 10
0.0
 20
0.0
 30
0.0
  9
$PUCSXDIR
 10
1.0
 20
0.0
 30
0.0
  9
$PUCSYDIR
 10
0.0
 20
1.0
 30
0.0
  9
$USERI1
 70
     0
  9
$USERI2
 70
     0
  9
$USERI3
 70
     0
  9
$USERI4
 70
     0
  9
$USERI5
 70
     0
  9
$USERR1
 40
0.0
  9
$USERR2
 40
0.0
  9
$USERR3
 40
0.0
  9
$USERR4
 40
0.0
  9
$USERR5
 40
0.0
  9
$WORLDVIEW
 70
     1
  9
$SHADEDGE
 70
     3
  9
$SHADEDIF
 70
    70
  9
$TILEMODE
 70
     1
  9
$MAXACTVP
 70
    64
  9
$PLIMCHECK
 70
     0
  9
$PEXTMIN
 10
1.0000000000000000E+20
 20
1.0000000000000000E+20
 30
1.0000000000000000E+20
  9
$PEXTMAX
 10
-1.0000000000000000E+20
 20
-1.0000000000000000E+20
 30
-1.0000000000000000E+20
  9
$PLIMMIN
 10
0.0
 20
0.0
  9
$PLIMMAX
 10
12.0
 20
9.0
  9
$UNITMODE
 70
     0
  9
$VISRETAIN
 70
     1
  9
$PLINEGEN
 70
     0
  9
$PSLTSCALE
 70
     1
  0
ENDSEC
  0
SECTION
  2
TABLES
  0
TABLE
  2
VPORT
 70
     1
  0
VPORT
  2
*ACTIVE
 70
     0
 10
0.0
 20
0.0
 11
1.0
 21
1.0
 12
1932.3167658198819936
 22
19.4244376402577892
 13
0.0
 23
0.0
 14
10.0
 24
10.0
 15
10.0
 25
10.0
 16
0.0
 26
0.0
 36
1.0
 17
0.0
 27
0.0
 37
0.0
 40
1415.1736356471019462
 41
2.5318725099601589
 42
50.0
 43
0.0
 44
0.0
 50
0.0
 51
0.0
 71
     0
 72
  1000
 73
     1
 74
     1
 75
     0
 76
     0
 77
     0
 78
     0
  0
ENDTAB
  0
TABLE
  2
LTYPE
 70
     2
  0
LTYPE
  2
CONTINUOUS
 70
     0
  3
Solid line
 72
    65
 73
     0
 40
0.0
  0
ENDTAB
  0
TABLE
  2
LAYER
 70
     3
  0
LAYER
  2
0
 70
     0
 62
     7
  6
CONTINUOUS
  0
LAYER
  2
CNCSHAPE
 70
     0
 62
     7
  6
CONTINUOUS
  0
LAYER
  2
DEPT
 70
     0
 62
     8
  6
CONTINUOUS
  0
ENDTAB
  0
TABLE
  2
STYLE
 70
     2
  0
STYLE
  2
STANDARD
 70
     0
 40
0.0
 41
1.0
 50
0.0
 71
     0
 42
2.5
  3
txt
  4

  0
STYLE
  2
ANNOTATIVE
 70
     0
 40
0.0
 41
1.0
 50
0.0
 71
     0
 42
0.2
  3
txt
  4

  0
ENDTAB
  0
TABLE
  2
VIEW
 70
     4
  0
ENDTAB
  0
TABLE
  2
UCS
 70
     0
  0
ENDTAB
  0
TABLE
  2
APPID
 70
    10
  0
APPID
  2
ACAD
 70
     0
  0
APPID
  2
ACADANNOTATIVE
 70
     0
  0
APPID
  2
ACAD_PSEXT
 70
     0
  0
APPID
  2
ACAD_DSTYLE_DIMJAG
 70
     0
  0
APPID
  2
ACAD_DSTYLE_DIMTALN
 70
     0
  0
APPID
  2
ACAECLAYERSTANDARD
 70
     0
  0
APPID
  2
ACCMTRANSPARENCY
 70
     0
  0
APPID
  2
ACAD_NAV_VCDISPLAY
 70
     0
  0
APPID
  2
ACAD_EXEMPT_FROM_CAD_STANDARDS
 70
     0
  0
APPID
  2
ACAD_MLEADERVER
 70
     0
  0
ENDTAB
  0
TABLE
  2
DIMSTYLE
 70
     4
  0
DIMSTYLE
  2
STANDARD
 70
     0
  3

  4

  5

  6

  7

 40
1.0
 41
0.18
 42
0.0625
 43
0.38
 44
0.18
 45
0.0
 46
0.0
 47
0.0
 48
0.0
140
0.18
141
0.09
142
0.0
143
25.3999999999999986
144
1.0
145
0.0
146
1.0
147
0.09
 71
     0
 72
     0
 73
     1
 74
     1
 75
     0
 76
     0
 77
     0
 78
     0
170
     0
171
     2
172
     0
173
     0
174
     0
175
     0
176
     0
177
     0
178
     0
  0
DIMSTYLE
  2
ANNOTATIVE
 70
     0
  3

  4

  5

  6

  7

 40
0.0
 41
2.5
 42
0.625
 43
3.75
 44
1.25
 45
0.0
 46
0.0
 47
0.0
 48
0.0
140
2.5
141
2.5
142
0.0
143
0.03937007874016
144
1.0
145
0.0
146
1.0
147
0.625
 71
     0
 72
     0
 73
     0
 74
     0
 75
     0
 76
     0
 77
     1
 78
     8
170
     0
171
     3
172
     1
173
     0
174
     0
175
     0
176
     0
177
     0
178
     0
  0
DIMSTYLE
  2
ISO-25
 70
     0
  3

  4

  5

  6

  7

 40
1.0
 41
2.5
 42
0.625
 43
3.75
 44
1.25
 45
0.0
 46
0.0
 47
0.0
 48
0.0
140
2.5
141
2.5
142
0.0
143
0.03937007874016
144
1.0
145
0.0
146
1.0
147
0.625
 71
     0
 72
     0
 73
     0
 74
     0
 75
     0
 76
     0
 77
     1
 78
     8
170
     0
171
     3
172
     1
173
     0
174
     0
175
     0
176
     0
177
     0
178
     0
  0
ENDTAB
  0
ENDSEC
  0
SECTION
  2
BLOCKS
  0
BLOCK
  8
0
  2
$MODEL_SPACE
 70
     0
 10
0.0
 20
0.0
 30
0.0
  3
$MODEL_SPACE
  1

  0
ENDBLK
  5
72
  8
0
  0
BLOCK
 67
     1
  8
0
  2
$PAPER_SPACE
 70
     0
 10
0.0
 20
0.0
 30
0.0
  3
$PAPER_SPACE
  1

  0
ENDBLK
  5
6E
 67
     1
  8
0
  0
ENDSEC
  0
SECTION
  2
ENTITIES
  0
POLYLINE
  5
7F
  8
0
  6
CONTINUOUS
 66
     1
 10
0.0
 20
0.0
 30
0.0
 70
     1
  0
VERTEX
  5
422
  8
0
  6
CONTINUOUS
 10
614.3247447885804604
 20
-607.5040189704742488
 30
0.0
  0
VERTEX
  5
423
  8
0
  6
CONTINUOUS
 10
3054.3247447885810288
 20
-607.5040189704742488
 30
0.0
  0
VERTEX
  5
424
  8
0
  6
CONTINUOUS
 10
3054.3247447885810288
 20
612.4959810295839588
 30
0.0
  0
VERTEX
  5
425
  8
0
  6
CONTINUOUS
 10
614.3247447885804604
 20
612.4959810295839588
 30
0.0
  0
SEQEND
  5
426
  8
0
  6
CONTINUOUS
  0
POLYLINE
  5
80
  8
CNCSHAPE
 66
     1
 10
0.0
 20
0.0
 30
0.0
 70
     1
  0
VERTEX
  5
427
  8
CNCSHAPE
 10
1700.8296318766149398
 20
119.6698046313352961
 30
0.0
  0
VERTEX
  5
428
  8
CNCSHAPE
 10
1700.8296318766149398
 20
84.7224701606990322
 30
0.0
  0
VERTEX
  5
429
  8
CNCSHAPE
 10
1700.8296318766149398
 20
80.035614430261333
 30
0.0
 42
0.3750000000323421
  0
VERTEX
  5
42A
  8
CNCSHAPE
 10
1708.8296314848601014
 20
80.0356144307269943
 30
0.0
  0
VERTEX
  5
42B
  8
CNCSHAPE
 10
1711.8296313380828906
 20
80.0356144307269943
 30
0.0
  0
VERTEX
  5
42C
  8
CNCSHAPE
 10
1711.8296313380828906
 20
40.0356163895010226
 30
0.0
  0
VERTEX
  5
42D
  8
CNCSHAPE
 10
1711.8296313380828906
 20
40.0356163895010226
 30
0.0
  0
VERTEX
  5
42E
  8
CNCSHAPE
 10
1708.8296314848601014
 20
40.0356163895010226
 30
0.0
 42
0.3749999999961777
  0
VERTEX
  5
42F
  8
CNCSHAPE
 10
1700.8296318766149398
 20
40.035616389966691
 30
0.0
  0
VERTEX
  5
430
  8
CNCSHAPE
 10
1700.8296318766149398
 20
40.035616389966691
 30
0.0
  0
VERTEX
  5
431
  8
CNCSHAPE
 10
1700.8296318756840719
 20
-52.6959947852152766
 30
0.0
 42
0.3750000000323421
  0
VERTEX
  5
432
  8
CNCSHAPE
 10
1708.8296314839290062
 20
-52.6959947848660377
 30
0.0
  0
VERTEX
  5
433
  8
CNCSHAPE
 10
1711.8296313371520228
 20
-52.6959947848660377
 30
0.0
  0
VERTEX
  5
434
  8
CNCSHAPE
 10
1711.8296313371520228
 20
-92.6959928258591788
 30
0.0
  0
VERTEX
  5
435
  8
CNCSHAPE
 10
1711.8296313371520228
 20
-92.6959928258591788
 30
0.0
  0
VERTEX
  5
436
  8
CNCSHAPE
 10
1708.8296314839290062
 20
-92.6959928258591788
 30
0.0
 42
0.3750000000323421
  0
VERTEX
  5
437
  8
CNCSHAPE
 10
1700.8296318756840719
 20
-92.6959928253935033
 30
0.0
  0
VERTEX
  5
438
  8
CNCSHAPE
 10
1700.8296318766149398
 20
-132.330183027864507
 30
0.0
  0
VERTEX
  5
439
  8
CNCSHAPE
 10
772.8296308000168438
 20
-132.3301830278643934
 30
0.0
  0
VERTEX
  5
43A
  8
CNCSHAPE
 10
772.8296308009481663
 20
-92.6959928253934606
 30
0.0
 42
0.3750000000323421
  0
VERTEX
  5
43B
  8
CNCSHAPE
 10
764.8296311931685523
 20
-92.6959928258591361
 30
0.0
  0
VERTEX
  5
43C
  8
CNCSHAPE
 10
761.8296313398293478
 20
-92.6959928258591361
 30
0.0
  0
VERTEX
  5
43D
  8
CNCSHAPE
 10
761.8296313398293478
 20
-92.6959928258591361
 30
0.0
  0
VERTEX
  5
43E
  8
CNCSHAPE
 10
761.8296313398293478
 20
-52.6959947848659809
 30
0.0
  0
VERTEX
  5
43F
  8
CNCSHAPE
 10
764.8296311931685523
 20
-52.6959947848659809
 30
0.0
 42
0.3750000000323421
  0
VERTEX
  5
440
  8
CNCSHAPE
 10
772.8296308009481663
 20
-52.6959947852152268
 30
0.0
  0
VERTEX
  5
441
  8
CNCSHAPE
 10
772.8296308000168438
 20
40.0356163899667408
 30
0.0
  0
VERTEX
  5
442
  8
CNCSHAPE
 10
772.8296308000168438
 20
40.0356163899667408
 30
0.0
 42
0.3749999999961777
  0
VERTEX
  5
443
  8
CNCSHAPE
 10
764.8296311922373434
 20
40.0356163895010866
 30
0.0
  0
VERTEX
  5
444
  8
CNCSHAPE
 10
761.8296313390144405
 20
40.0356163895010866
 30
0.0
  0
VERTEX
  5
445
  8
CNCSHAPE
 10
761.8296313390144405
 20
40.0356163895010866
 30
0.0
  0
VERTEX
  5
446
  8
CNCSHAPE
 10
761.8296313390144405
 20
80.0356144307270512
 30
0.0
  0
VERTEX
  5
447
  8
CNCSHAPE
 10
764.8296311922373434
 20
80.0356144307270512
 30
0.0
 42
0.3750000000323421
  0
VERTEX
  5
448
  8
CNCSHAPE
 10
772.8296308000168438
 20
80.0356144302613899
 30
0.0
  0
VERTEX
  5
449
  8
CNCSHAPE
 10
772.8296308000168438
 20
84.7224701606990891
 30
0.0
  0
VERTEX
  5
44A
  8
CNCSHAPE
 10
772.829630800482505
 20
119.6698046313352961
 30
0.0
  0
SEQEND
  5
44B
  8
CNCSHAPE
  0
POLYLINE
  5
85
  8
CNCSHAPE
 66
     1
 10
0.0
 20
0.0
 30
0.0
 70
     1
  0
VERTEX
  5
44C
  8
CNCSHAPE
 10
761.829631338083118
 20
532.1556480405295133
 30
0.0
  0
VERTEX
  5
44D
  8
CNCSHAPE
 10
1711.8296313380828906
 20
532.1556480405295133
 30
0.0
  0
VERTEX
  5
44E
  8
CNCSHAPE
 10
1711.8296313380828906
 20
412.1556539172008229
 30
0.0
  0
VERTEX
  5
44F
  8
CNCSHAPE
 10
761.829631338083118
 20
412.1556539172008797
 30
0.0
  0
SEQEND
  5
450
  8
CNCSHAPE
  0
POLYLINE
  5
86
  8
CNCSHAPE
 66
     1
 10
0.0
 20
0.0
 30
0.0
 70
     1
  0
VERTEX
  5
451
  8
CNCSHAPE
 10
1700.8296318766149398
 20
300.0372550941547161
 30
0.0
 42
0.3750000000353872
  0
VERTEX
  5
452
  8
CNCSHAPE
 10
1708.8296314853259901
 20
300.0372550943874899
 30
0.0
  0
VERTEX
  5
453
  8
CNCSHAPE
 10
1708.8296314853259901
 20
300.0372550943874899
 30
0.0
  0
VERTEX
  5
454
  8
CNCSHAPE
 10
1711.8296313385490066
 20
300.0372550943874899
 30
0.0
  0
VERTEX
  5
455
  8
CNCSHAPE
 10
1711.8296313385490066
 20
240.0372580326067862
 30
0.0
  0
VERTEX
  5
456
  8
CNCSHAPE
 10
1707.8296315347170093
 20
240.0372580326067862
 30
0.0
 42
0.1428571428955192
  0
VERTEX
  5
457
  8
CNCSHAPE
 10
1700.8296318769639583
 20
240.0372580326067862
 30
0.0
  0
VERTEX
  5
458
  8
CNCSHAPE
 10
1700.8296318769639583
 20
188.0372605790711873
 30
0.0
  0
VERTEX
  5
459
  8
CNCSHAPE
 10
772.8296308000168438
 20
188.0372605790711873
 30
0.0
  0
VERTEX
  5
45A
  8
CNCSHAPE
 10
772.8296308000168438
 20
240.0372580326067862
 30
0.0
 42
0.1428571428862387
  0
VERTEX
  5
45B
  8
CNCSHAPE
 10
765.8296311423803218
 20
240.0372580326067862
 30
0.0
  0
VERTEX
  5
45C
  8
CNCSHAPE
 10
761.8296313385487792
 20
240.0372580326067862
 30
0.0
  0
VERTEX
  5
45D
  8
CNCSHAPE
 10
761.8296313385487792
 20
300.0372550943874899
 30
0.0
  0
VERTEX
  5
45E
  8
CNCSHAPE
 10
764.8296311917715684
 20
300.0372550943874899
 30
0.0
  0
VERTEX
  5
45F
  8
CNCSHAPE
 10
764.8296311917715684
 20
300.0372550943874899
 30
0.0
 42
0.3750000000110257
  0
VERTEX
  5
460
  8
CNCSHAPE
 10
772.8296308000168438
 20
300.0372550939218854
 30
0.0
  0
VERTEX
  5
461
  8
CNCSHAPE
 10
772.8296308000168438
 20
333.0372534782097773
 30
0.0
  0
VERTEX
  5
462
  8
CNCSHAPE
 10
1700.8296318769639583
 20
333.0372534782097773
 30
0.0
  0
SEQEND
  5
463
  8
CNCSHAPE
  0
POLYLINE
  5
87
  8
CNCSHAPE
 66
     1
 10
0.0
 20
0.0
 30
0.0
 70
     1
  0
VERTEX
  5
464
  8
CNCSHAPE
 10
933.8296461774693853
 20
300.5372550696918097
 30
0.0
  0
VERTEX
  5
465
  8
CNCSHAPE
 10
945.8296455901282798
 20
300.5372550696918097
 30
0.0
  0
VERTEX
  5
466
  8
CNCSHAPE
 10
945.8296455901282798
 20
239.5372580570696073
 30
0.0
  0
VERTEX
  5
467
  8
CNCSHAPE
 10
933.8296461774693853
 20
239.5372580570696073
 30
0.0
  0
SEQEND
  5
468
  8
CNCSHAPE
  0
POLYLINE
  5
88
  8
CNCSHAPE
 66
     1
 10
0.0
 20
0.0
 30
0.0
 70
     1
  0
VERTEX
  5
469
  8
CNCSHAPE
 10
1132.8296364322920908
 20
300.5372550696918097
 30
0.0
  0
VERTEX
  5
46A
  8
CNCSHAPE
 10
1144.829635844484983
 20
300.5372550696918097
 30
0.0
  0
VERTEX
  5
46B
  8
CNCSHAPE
 10
1144.829635844484983
 20
239.5372580570696073
 30
0.0
  0
VERTEX
  5
46C
  8
CNCSHAPE
 10
1132.8296364322920908
 20
239.5372580570696073
 30
0.0
  0
SEQEND
  5
46D
  8
CNCSHAPE
  0
POLYLINE
  5
89
  8
CNCSHAPE
 66
     1
 10
0.0
 20
0.0
 30
0.0
 70
     1
  0
VERTEX
  5
46E
  8
CNCSHAPE
 10
761.8296313398293478
 20
-340.5761463167114016
 30
0.0
  0
VERTEX
  5
46F
  8
CNCSHAPE
 10
761.8296313398293478
 20
-220.5761521933827112
 30
0.0
  0
VERTEX
  5
470
  8
CNCSHAPE
 10
1711.8296313399459905
 20
-220.5761521933827112
 30
0.0
  0
VERTEX
  5
471
  8
CNCSHAPE
 10
1711.8296313399459905
 20
-340.5761463167114016
 30
0.0
  0
SEQEND
  5
472
  8
CNCSHAPE
  0
POLYLINE
  5
8A
  8
CNCSHAPE
 66
     1
 10
0.0
 20
0.0
 30
0.0
 70
     1
  0
VERTEX
  5
473
  8
CNCSHAPE
 10
1539.8296164995110757
 20
300.5372550696918097
 30
0.0
  0
VERTEX
  5
474
  8
CNCSHAPE
 10
1527.8296170869680282
 20
300.5372550696918097
 30
0.0
  0
VERTEX
  5
475
  8
CNCSHAPE
 10
1527.8296170869680282
 20
239.5372580570696073
 30
0.0
  0
VERTEX
  5
476
  8
CNCSHAPE
 10
1539.8296164995110757
 20
239.5372580570696073
 30
0.0
  0
SEQEND
  5
477
  8
CNCSHAPE
  0
POLYLINE
  5
8B
  8
CNCSHAPE
 66
     1
 10
0.0
 20
0.0
 30
0.0
 70
     1
  0
VERTEX
  5
478
  8
CNCSHAPE
 10
1340.8296262446879155
 20
300.5372550696918097
 30
0.0
  0
VERTEX
  5
479
  8
CNCSHAPE
 10
1328.8296268321460047
 20
300.5372550696918097
 30
0.0
  0
VERTEX
  5
47A
  8
CNCSHAPE
 10
1328.8296268321460047
 20
239.5372580570696073
 30
0.0
  0
VERTEX
  5
47B
  8
CNCSHAPE
 10
1340.8296262446879155
 20
239.5372580570696073
 30
0.0
  0
SEQEND
  5
47C
  8
CNCSHAPE
  0
POLYLINE
  5
8C
  8
CNCSHAPE
 66
     1
 10
0.0
 20
0.0
 30
0.0
 70
     1
  0
VERTEX
  5
47D
  8
CNCSHAPE
 10
933.8296461770038377
 20
-313.5761476392186182
 30
0.0
  0
VERTEX
  5
47E
  8
CNCSHAPE
 10
945.8296455896626185
 20
-313.5761476392186182
 30
0.0
  0
VERTEX
  5
47F
  8
CNCSHAPE
 10
945.8296455896626185
 20
-272.576149647034697
 30
0.0
  0
VERTEX
  5
480
  8
CNCSHAPE
 10
933.8296461770038377
 20
-272.576149647034697
 30
0.0
  0
SEQEND
  5
481
  8
CNCSHAPE
  0
POLYLINE
  5
8D
  8
CNCSHAPE
 66
     1
 10
0.0
 20
0.0
 30
0.0
 70
     1
  0
VERTEX
  5
482
  8
CNCSHAPE
 10
1132.8296364319430722
 20
-313.5761476392186182
 30
0.0
  0
VERTEX
  5
483
  8
CNCSHAPE
 10
1144.8296358440190943
 20
-313.5761476392186182
 30
0.0
  0
VERTEX
  5
484
  8
CNCSHAPE
 10
1144.8296358440190943
 20
-272.576149647034697
 30
0.0
  0
VERTEX
  5
485
  8
CNCSHAPE
 10
1132.8296364319430722
 20
-272.576149647034697
 30
0.0
  0
SEQEND
  5
486
  8
CNCSHAPE
  0
POLYLINE
  5
8E
  8
CNCSHAPE
 66
     1
 10
0.0
 20
0.0
 30
0.0
 70
     1
  0
VERTEX
  5
487
  8
CNCSHAPE
 10
1340.8296262442220268
 20
-313.5761476392186182
 30
0.0
  0
VERTEX
  5
488
  8
CNCSHAPE
 10
1328.8296268316798887
 20
-313.5761476392186182
 30
0.0
  0
VERTEX
  5
489
  8
CNCSHAPE
 10
1328.8296268316798887
 20
-272.576149647034697
 30
0.0
  0
VERTEX
  5
48A
  8
CNCSHAPE
 10
1340.8296262442220268
 20
-272.576149647034697
 30
0.0
  0
SEQEND
  5
48B
  8
CNCSHAPE
  0
POLYLINE
  5
8F
  8
CNCSHAPE
 66
     1
 10
0.0
 20
0.0
 30
0.0
 70
     1
  0
VERTEX
  5
48C
  8
CNCSHAPE
 10
1539.8296164991620572
 20
-313.5761476392186182
 30
0.0
  0
VERTEX
  5
48D
  8
CNCSHAPE
 10
1527.829617086503049
 20
-313.5761476392186182
 30
0.0
  0
VERTEX
  5
48E
  8
CNCSHAPE
 10
1527.829617086503049
 20
-272.576149647034697
 30
0.0
  0
VERTEX
  5
48F
  8
CNCSHAPE
 10
1539.8296164991620572
 20
-272.576149647034697
 30
0.0
  0
SEQEND
  5
490
  8
CNCSHAPE
  0
POLYLINE
  5
96
  8
CNCSHAPE
 66
     1
 10
0.0
 20
0.0
 30
0.0
 70
     1
  0
VERTEX
  5
491
  8
CNCSHAPE
 10
933.8296461774693853
 20
80.5356144057984977
 30
0.0
  0
VERTEX
  5
492
  8
CNCSHAPE
 10
945.8296455901282798
 20
80.5356144057984977
 30
0.0
  0
VERTEX
  5
493
  8
CNCSHAPE
 10
945.8296455901282798
 20
39.5356164137310415
 30
0.0
  0
VERTEX
  5
494
  8
CNCSHAPE
 10
933.8296461774693853
 20
39.5356164137310415
 30
0.0
  0
SEQEND
  5
495
  8
CNCSHAPE
  0
POLYLINE
  5
97
  8
CNCSHAPE
 66
     1
 10
0.0
 20
0.0
 30
0.0
 70
     1
  0
VERTEX
  5
496
  8
CNCSHAPE
 10
933.8296461774693853
 20
-52.1959948093288801
 30
0.0
  0
VERTEX
  5
497
  8
CNCSHAPE
 10
945.8296455901282798
 20
-52.1959948093288801
 30
0.0
  0
VERTEX
  5
498
  8
CNCSHAPE
 10
945.8296455901282798
 20
-93.1959928015127446
 30
0.0
  0
VERTEX
  5
499
  8
CNCSHAPE
 10
933.8296461774693853
 20
-93.1959928015127446
 30
0.0
  0
SEQEND
  5
49A
  8
CNCSHAPE
  0
POLYLINE
  5
98
  8
CNCSHAPE
 66
     1
 10
0.0
 20
0.0
 30
0.0
 70
     1
  0
VERTEX
  5
49B
  8
CNCSHAPE
 10
1132.8296364322920908
 20
80.5356144057984977
 30
0.0
  0
VERTEX
  5
49C
  8
CNCSHAPE
 10
1144.829635844484983
 20
80.5356144057984977
 30
0.0
  0
VERTEX
  5
49D
  8
CNCSHAPE
 10
1144.829635844484983
 20
39.5356164137310415
 30
0.0
  0
VERTEX
  5
49E
  8
CNCSHAPE
 10
1132.8296364322920908
 20
39.5356164137310415
 30
0.0
  0
SEQEND
  5
49F
  8
CNCSHAPE
  0
POLYLINE
  5
99
  8
CNCSHAPE
 66
     1
 10
0.0
 20
0.0
 30
0.0
 70
     1
  0
VERTEX
  5
4A0
  8
CNCSHAPE
 10
1132.8296364322920908
 20
-52.1959948093288801
 30
0.0
  0
VERTEX
  5
4A1
  8
CNCSHAPE
 10
1144.829635844484983
 20
-52.1959948093288801
 30
0.0
  0
VERTEX
  5
4A2
  8
CNCSHAPE
 10
1144.829635844484983
 20
-93.1959928015127446
 30
0.0
  0
VERTEX
  5
4A3
  8
CNCSHAPE
 10
1132.8296364322920908
 20
-93.1959928015127446
 30
0.0
  0
SEQEND
  5
4A4
  8
CNCSHAPE
  0
POLYLINE
  5
9A
  8
CNCSHAPE
 66
     1
 10
0.0
 20
0.0
 30
0.0
 70
     1
  0
VERTEX
  5
4A5
  8
CNCSHAPE
 10
1328.8296268321460047
 20
80.5356144057984977
 30
0.0
  0
VERTEX
  5
4A6
  8
CNCSHAPE
 10
1340.8296262446879155
 20
80.5356144057984977
 30
0.0
  0
VERTEX
  5
4A7
  8
CNCSHAPE
 10
1340.8296262446879155
 20
39.5356164137310415
 30
0.0
  0
VERTEX
  5
4A8
  8
CNCSHAPE
 10
1328.8296268321460047
 20
39.5356164137310415
 30
0.0
  0
SEQEND
  5
4A9
  8
CNCSHAPE
  0
POLYLINE
  5
9B
  8
CNCSHAPE
 66
     1
 10
0.0
 20
0.0
 30
0.0
 70
     1
  0
VERTEX
  5
4AA
  8
CNCSHAPE
 10
1527.8296170869680282
 20
-52.1959948093288801
 30
0.0
  0
VERTEX
  5
4AB
  8
CNCSHAPE
 10
1539.8296164995110757
 20
-52.1959948093288801
 30
0.0
  0
VERTEX
  5
4AC
  8
CNCSHAPE
 10
1539.8296164995110757
 20
-93.1959928015127446
 30
0.0
  0
VERTEX
  5
4AD
  8
CNCSHAPE
 10
1527.8296170869680282
 20
-93.1959928015127446
 30
0.0
  0
SEQEND
  5
4AE
  8
CNCSHAPE
  0
POLYLINE
  5
9C
  8
CNCSHAPE
 66
     1
 10
0.0
 20
0.0
 30
0.0
 70
     1
  0
VERTEX
  5
4AF
  8
CNCSHAPE
 10
1527.8296170869680282
 20
80.5356144057984977
 30
0.0
  0
VERTEX
  5
4B0
  8
CNCSHAPE
 10
1539.8296164995110757
 20
80.5356144057984977
 30
0.0
  0
VERTEX
  5
4B1
  8
CNCSHAPE
 10
1539.8296164995110757
 20
39.5356164137310415
 30
0.0
  0
VERTEX
  5
4B2
  8
CNCSHAPE
 10
1527.8296170869680282
 20
39.5356164137310415
 30
0.0
  0
SEQEND
  5
4B3
  8
CNCSHAPE
  0
POLYLINE
  5
9D
  8
CNCSHAPE
 66
     1
 10
0.0
 20
0.0
 30
0.0
 70
     1
  0
VERTEX
  5
4B4
  8
CNCSHAPE
 10
1328.8296268321460047
 20
-52.1959948093288801
 30
0.0
  0
VERTEX
  5
4B5
  8
CNCSHAPE
 10
1340.8296262446879155
 20
-52.1959948093288801
 30
0.0
  0
VERTEX
  5
4B6
  8
CNCSHAPE
 10
1340.8296262446879155
 20
-93.1959928015127446
 30
0.0
  0
VERTEX
  5
4B7
  8
CNCSHAPE
 10
1328.8296268321460047
 20
-93.1959928015127446
 30
0.0
  0
SEQEND
  5
4B8
  8
CNCSHAPE
  0
POLYLINE
  5
9E
  8
CNCSHAPE
 66
     1
 10
0.0
 20
0.0
 30
0.0
 70
     1
  0
VERTEX
  5
4B9
  8
CNCSHAPE
 10
899.9135155382584799
 20
-482.7491299579589281
 30
0.0
  0
VERTEX
  5
4BA
  8
CNCSHAPE
 10
902.9135153911321368
 20
-482.7491299579589281
 30
0.0
 42
-0.3750000000323421
  0
VERTEX
  5
4BB
  8
CNCSHAPE
 10
910.9135149993774121
 20
-482.7491299579589281
 30
0.0
  0
VERTEX
  5
4BC
  8
CNCSHAPE
 10
910.913514999842846
 20
-510.2491286113382216
 30
0.0
 42
0.3235932642983383
  0
VERTEX
  5
4BD
  8
CNCSHAPE
 10
912.9727767418867188
 20
-513.097814435587793
 30
0.0
  0
VERTEX
  5
4BE
  8
CNCSHAPE
 10
988.1124725622000824
 20
-537.9116338093763261
 30
0.0
 42
0.0768832805561248
  0
VERTEX
  5
4BF
  8
CNCSHAPE
 10
991.8543428953690864
 20
-538.4620862147844491
 30
0.0
  0
VERTEX
  5
4C0
  8
CNCSHAPE
 10
1149.9135032955418865
 20
-538.4620862147844491
 30
0.0
 42
0.4142135623730955
  0
VERTEX
  5
4C1
  8
CNCSHAPE
 10
1152.9135031488820005
 20
-535.4620863615615463
 30
0.0
  0
VERTEX
  5
4C2
  8
CNCSHAPE
 10
1152.9135031488820005
 20
-502.2491290034421922
 30
0.0
 42
-0.3750000000481488
  0
VERTEX
  5
4C3
  8
CNCSHAPE
 10
1160.9135027571269347
 20
-502.2491290034421922
 30
0.0
  0
VERTEX
  5
4C4
  8
CNCSHAPE
 10
1163.9135026103499513
 20
-502.2491290034421922
 30
0.0
  0
VERTEX
  5
4C5
  8
CNCSHAPE
 10
1163.9135026103499513
 20
-442.2491319416614033
 30
0.0
  0
VERTEX
  5
4C6
  8
CNCSHAPE
 10
1159.913502806517954
 20
-442.2491319416614033
 30
0.0
 42
-0.1428571428955192
  0
VERTEX
  5
4C7
  8
CNCSHAPE
 10
1152.9135031493469796
 20
-442.2491319416614033
 30
0.0
  0
VERTEX
  5
4C8
  8
CNCSHAPE
 10
1152.9135031488820005
 20
-414.249133312745073
 30
0.0
  0
VERTEX
  5
4C9
  8
CNCSHAPE
 10
1122.9661684333839275
 20
-414.249133312745073
 30
0.0
  0
VERTEX
  5
4CA
  8
CNCSHAPE
 10
1118.2793127028301114
 20
-414.249133312745073
 30
0.0
 42
-0.375000000032343
  0
VERTEX
  5
4CB
  8
CNCSHAPE
 10
1118.2793127032960001
 20
-406.2491337047327988
 30
0.0
  0
VERTEX
  5
4CC
  8
CNCSHAPE
 10
1118.2793127032960001
 20
-403.2491338513934238
 30
0.0
  0
VERTEX
  5
4CD
  8
CNCSHAPE
 10
1078.2793146619530944
 20
-403.2491338513934238
 30
0.0
  0
VERTEX
  5
4CE
  8
CNCSHAPE
 10
1078.2793146619530944
 20
-406.2491337047327988
 30
0.0
 42
-0.3749999999961772
  0
VERTEX
  5
4CF
  8
CNCSHAPE
 10
1078.2793146624189831
 20
-414.249133312745073
 30
0.0
  0
VERTEX
  5
4D0
  8
CNCSHAPE
 10
985.5477034872369586
 20
-414.2491333136763956
 30
0.0
 42
-0.3750000000323421
  0
VERTEX
  5
4D1
  8
CNCSHAPE
 10
985.5477034881682812
 20
-406.2491337056640077
 30
0.0
  0
VERTEX
  5
4D2
  8
CNCSHAPE
 10
985.5477034881682812
 20
-403.2491338523246895
 30
0.0
  0
VERTEX
  5
4D3
  8
CNCSHAPE
 10
945.5477054467095286
 20
-403.2491338523246895
 30
0.0
  0
VERTEX
  5
4D4
  8
CNCSHAPE
 10
945.5477054467095286
 20
-406.2491337056640077
 30
0.0
 42
-0.3750000000323421
  0
VERTEX
  5
4D5
  8
CNCSHAPE
 10
945.5477054467095286
 20
-414.2491333136763956
 30
0.0
  0
VERTEX
  5
4D6
  8
CNCSHAPE
 10
910.9135149989116371
 20
-414.249133312745073
 30
0.0
  0
VERTEX
  5
4D7
  8
CNCSHAPE
 10
910.9135149993774121
 20
-442.7491319177806872
 30
0.0
 42
-0.3750000000323421
  0
VERTEX
  5
4D8
  8
CNCSHAPE
 10
902.9135153911321368
 20
-442.74913191696578
 30
0.0
  0
VERTEX
  5
4D9
  8
CNCSHAPE
 10
899.9135155382584799
 20
-442.74913191696578
 30
0.0
  0
SEQEND
  5
4DA
  8
CNCSHAPE
  0
POLYLINE
  5
9F
  8
CNCSHAPE
 66
     1
 10
0.0
 20
0.0
 30
0.0
 70
     1
  0
VERTEX
  5
4DB
  8
CNCSHAPE
 10
2872.4477017402368801
 20
119.6698046313353956
 30
0.0
  0
VERTEX
  5
4DC
  8
CNCSHAPE
 10
2872.4477017402368801
 20
84.7224701606991459
 30
0.0
  0
VERTEX
  5
4DD
  8
CNCSHAPE
 10
2872.4477017402368801
 20
80.0356144302614467
 30
0.0
 42
0.3750000000323421
  0
VERTEX
  5
4DE
  8
CNCSHAPE
 10
2880.4477013480159258
 20
80.0356144307270938
 30
0.0
  0
VERTEX
  5
4DF
  8
CNCSHAPE
 10
2883.4477012012389423
 20
80.0356144307270938
 30
0.0
  0
VERTEX
  5
4E0
  8
CNCSHAPE
 10
2883.4477012012389423
 20
40.0356163895011434
 30
0.0
  0
VERTEX
  5
4E1
  8
CNCSHAPE
 10
2883.4477012012389423
 20
40.0356163895011434
 30
0.0
  0
VERTEX
  5
4E2
  8
CNCSHAPE
 10
2880.4477013480159258
 20
40.0356163895011434
 30
0.0
 42
0.3749999999961777
  0
VERTEX
  5
4E3
  8
CNCSHAPE
 10
2872.4477017402368801
 20
40.0356163899667976
 30
0.0
  0
VERTEX
  5
4E4
  8
CNCSHAPE
 10
2872.4477017402368801
 20
40.0356163899667976
 30
0.0
  0
VERTEX
  5
4E5
  8
CNCSHAPE
 10
2872.4477017393060123
 20
-52.6959947852151629
 30
0.0
 42
0.3750000000323421
  0
VERTEX
  5
4E6
  8
CNCSHAPE
 10
2880.4477013470850579
 20
-52.6959947848659169
 30
0.0
  0
VERTEX
  5
4E7
  8
CNCSHAPE
 10
2883.4477012004249445
 20
-52.6959947848659169
 30
0.0
  0
VERTEX
  5
4E8
  8
CNCSHAPE
 10
2883.4477012004249445
 20
-92.6959928258590651
 30
0.0
  0
VERTEX
  5
4E9
  8
CNCSHAPE
 10
2883.4477012004249445
 20
-92.6959928258590651
 30
0.0
  0
VERTEX
  5
4EA
  8
CNCSHAPE
 10
2880.4477013470850579
 20
-92.6959928258590651
 30
0.0
 42
0.3750000000323421
  0
VERTEX
  5
4EB
  8
CNCSHAPE
 10
2872.4477017393060123
 20
-92.6959928253934038
 30
0.0
  0
VERTEX
  5
4EC
  8
CNCSHAPE
 10
2872.4477017402368801
 20
-132.3301830278643081
 30
0.0
  0
VERTEX
  5
4ED
  8
CNCSHAPE
 10
1944.4477006636388978
 20
-132.330183027864507
 30
0.0
  0
VERTEX
  5
4EE
  8
CNCSHAPE
 10
1944.447700664569993
 20
-92.6959928253935033
 30
0.0
 42
0.3750000000323421
  0
VERTEX
  5
4EF
  8
CNCSHAPE
 10
1936.4477010563250587
 20
-92.6959928258591788
 30
0.0
  0
VERTEX
  5
4F0
  8
CNCSHAPE
 10
1933.4477012029849448
 20
-92.6959928258591788
 30
0.0
  0
VERTEX
  5
4F1
  8
CNCSHAPE
 10
1933.4477012029849448
 20
-92.6959928258591788
 30
0.0
  0
VERTEX
  5
4F2
  8
CNCSHAPE
 10
1933.4477012029849448
 20
-52.6959947848660377
 30
0.0
  0
VERTEX
  5
4F3
  8
CNCSHAPE
 10
1936.4477010563250587
 20
-52.6959947848660377
 30
0.0
 42
0.3750000000323421
  0
VERTEX
  5
4F4
  8
CNCSHAPE
 10
1944.447700664569993
 20
-52.6959947852152766
 30
0.0
  0
VERTEX
  5
4F5
  8
CNCSHAPE
 10
1944.4477006636388978
 20
40.035616389966691
 30
0.0
  0
VERTEX
  5
4F6
  8
CNCSHAPE
 10
1944.4477006636388978
 20
40.035616389966691
 30
0.0
 42
0.3749999999961777
  0
VERTEX
  5
4F7
  8
CNCSHAPE
 10
1936.4477010553939635
 20
40.0356163895010226
 30
0.0
  0
VERTEX
  5
4F8
  8
CNCSHAPE
 10
1933.4477012021700375
 20
40.0356163895010226
 30
0.0
  0
VERTEX
  5
4F9
  8
CNCSHAPE
 10
1933.4477012021700375
 20
40.0356163895010226
 30
0.0
  0
VERTEX
  5
4FA
  8
CNCSHAPE
 10
1933.4477012021700375
 20
80.0356144307269943
 30
0.0
  0
VERTEX
  5
4FB
  8
CNCSHAPE
 10
1936.4477010553939635
 20
80.0356144307269943
 30
0.0
 42
0.3750000000323421
  0
VERTEX
  5
4FC
  8
CNCSHAPE
 10
1944.4477006636388978
 20
80.035614430261333
 30
0.0
  0
VERTEX
  5
4FD
  8
CNCSHAPE
 10
1944.4477006636388978
 20
84.7224701606990322
 30
0.0
  0
VERTEX
  5
4FE
  8
CNCSHAPE
 10
1944.4477006641041044
 20
119.6698046313352961
 30
0.0
  0
SEQEND
  5
4FF
  8
CNCSHAPE
  0
POLYLINE
  5
A0
  8
CNCSHAPE
 66
     1
 10
0.0
 20
0.0
 30
0.0
 70
     1
  0
VERTEX
  5
500
  8
CNCSHAPE
 10
2872.4477017402368801
 20
300.0372550941547729
 30
0.0
 42
0.3750000000353872
  0
VERTEX
  5
501
  8
CNCSHAPE
 10
2880.4477013484820418
 20
300.0372550943876035
 30
0.0
  0
VERTEX
  5
502
  8
CNCSHAPE
 10
2880.4477013484820418
 20
300.0372550943876035
 30
0.0
  0
VERTEX
  5
503
  8
CNCSHAPE
 10
2883.4477012017050583
 20
300.0372550943876035
 30
0.0
  0
VERTEX
  5
504
  8
CNCSHAPE
 10
2883.4477012017050583
 20
240.0372580326068999
 30
0.0
  0
VERTEX
  5
505
  8
CNCSHAPE
 10
2879.4477013978739706
 20
240.0372580326068999
 30
0.0
 42
0.1428571428955192
  0
VERTEX
  5
506
  8
CNCSHAPE
 10
2872.4477017407029962
 20
240.0372580326068999
 30
0.0
  0
VERTEX
  5
507
  8
CNCSHAPE
 10
2872.4477017407029962
 20
188.037260579071301
 30
0.0
  0
VERTEX
  5
508
  8
CNCSHAPE
 10
1944.4477006636388978
 20
188.0372605790711873
 30
0.0
  0
VERTEX
  5
509
  8
CNCSHAPE
 10
1944.4477006636388978
 20
240.0372580326067862
 30
0.0
 42
0.1428571428862387
  0
VERTEX
  5
50A
  8
CNCSHAPE
 10
1937.4477010055359187
 20
240.0372580326067862
 30
0.0
  0
VERTEX
  5
50B
  8
CNCSHAPE
 10
1933.4477012017050583
 20
240.0372580326067862
 30
0.0
  0
VERTEX
  5
50C
  8
CNCSHAPE
 10
1933.4477012017050583
 20
300.0372550943874899
 30
0.0
  0
VERTEX
  5
50D
  8
CNCSHAPE
 10
1936.4477010549280749
 20
300.0372550943874899
 30
0.0
  0
VERTEX
  5
50E
  8
CNCSHAPE
 10
1936.4477010549280749
 20
300.0372550943874899
 30
0.0
 42
0.3750000000110257
  0
VERTEX
  5
50F
  8
CNCSHAPE
 10
1944.4477006636388978
 20
300.0372550939217717
 30
0.0
  0
VERTEX
  5
510
  8
CNCSHAPE
 10
1944.4477006636388978
 20
333.0372534782097773
 30
0.0
  0
VERTEX
  5
511
  8
CNCSHAPE
 10
2872.4477017407029962
 20
333.037253478209891
 30
0.0
  0
SEQEND
  5
512
  8
CNCSHAPE
  0
POLYLINE
  5
A1
  8
CNCSHAPE
 66
     1
 10
0.0
 20
0.0
 30
0.0
 70
     1
  0
VERTEX
  5
513
  8
CNCSHAPE
 10
1933.4477012029849448
 20
-340.5761463167114016
 30
0.0
  0
VERTEX
  5
514
  8
CNCSHAPE
 10
1933.4477012029849448
 20
-220.5761521933827112
 30
0.0
  0
VERTEX
  5
515
  8
CNCSHAPE
 10
2883.4477012031020422
 20
-220.5761521933825975
 30
0.0
  0
VERTEX
  5
516
  8
CNCSHAPE
 10
2883.4477012031020422
 20
-340.5761463167112879
 30
0.0
  0
SEQEND
  5
517
  8
CNCSHAPE
  0
POLYLINE
  5
A2
  8
CNCSHAPE
 66
     1
 10
0.0
 20
0.0
 30
0.0
 70
     1
  0
VERTEX
  5
518
  8
CNCSHAPE
 10
2662.4476887624718984
 20
300.5372550696918097
 30
0.0
  0
VERTEX
  5
519
  8
CNCSHAPE
 10
2650.4476893498131176
 20
300.5372550696918097
 30
0.0
  0
VERTEX
  5
51A
  8
CNCSHAPE
 10
2650.4476893498131176
 20
239.5372580570696073
 30
0.0
  0
VERTEX
  5
51B
  8
CNCSHAPE
 10
2662.4476887624718984
 20
239.5372580570696073
 30
0.0
  0
SEQEND
  5
51C
  8
CNCSHAPE
  0
POLYLINE
  5
A3
  8
CNCSHAPE
 66
     1
 10
0.0
 20
0.0
 30
0.0
 70
     1
  0
VERTEX
  5
51D
  8
CNCSHAPE
 10
2154.4477136404730118
 20
-313.576147639451392
 30
0.0
  0
VERTEX
  5
51E
  8
CNCSHAPE
 10
2166.4477130531317925
 20
-313.576147639451392
 30
0.0
  0
VERTEX
  5
51F
  8
CNCSHAPE
 10
2166.4477130531317925
 20
-272.5761496472675276
 30
0.0
  0
VERTEX
  5
520
  8
CNCSHAPE
 10
2154.4477136404730118
 20
-272.5761496472675276
 30
0.0
  0
SEQEND
  5
521
  8
CNCSHAPE
  0
POLYLINE
  5
A4
  8
CNCSHAPE
 66
     1
 10
0.0
 20
0.0
 30
0.0
 70
     1
  0
VERTEX
  5
522
  8
CNCSHAPE
 10
2402.4477014946778581
 20
-313.5761476380544082
 30
0.0
  0
VERTEX
  5
523
  8
CNCSHAPE
 10
2414.4477009073370937
 20
-313.5761476380544082
 30
0.0
  0
VERTEX
  5
524
  8
CNCSHAPE
 10
2414.4477009073370937
 20
-272.5761496459869022
 30
0.0
  0
VERTEX
  5
525
  8
CNCSHAPE
 10
2402.4477014946778581
 20
-272.5761496459869022
 30
0.0
  0
SEQEND
  5
526
  8
CNCSHAPE
  0
POLYLINE
  5
A5
  8
CNCSHAPE
 66
     1
 10
0.0
 20
0.0
 30
0.0
 70
     1
  0
VERTEX
  5
527
  8
CNCSHAPE
 10
2662.4476887620057823
 20
-313.5761476356096864
 30
0.0
  0
VERTEX
  5
528
  8
CNCSHAPE
 10
2650.4476893493470016
 20
-313.5761476356096864
 30
0.0
  0
VERTEX
  5
529
  8
CNCSHAPE
 10
2650.4476893493470016
 20
-272.576149643425822
 30
0.0
  0
VERTEX
  5
52A
  8
CNCSHAPE
 10
2662.4476887620057823
 20
-272.576149643425822
 30
0.0
  0
SEQEND
  5
52B
  8
CNCSHAPE
  0
POLYLINE
  5
AB
  8
CNCSHAPE
 66
     1
 10
0.0
 20
0.0
 30
0.0
 70
     1
  0
VERTEX
  5
52C
  8
CNCSHAPE
 10
2154.4477136409391278
 20
80.5356144055656671
 30
0.0
  0
VERTEX
  5
52D
  8
CNCSHAPE
 10
2166.4477130535979086
 20
80.5356144055656671
 30
0.0
  0
VERTEX
  5
52E
  8
CNCSHAPE
 10
2166.4477130535979086
 20
39.5356164136146333
 30
0.0
  0
VERTEX
  5
52F
  8
CNCSHAPE
 10
2154.4477136409391278
 20
39.5356164136146333
 30
0.0
  0
SEQEND
  5
530
  8
CNCSHAPE
  0
POLYLINE
  5
AC
  8
CNCSHAPE
 66
     1
 10
0.0
 20
0.0
 30
0.0
 70
     1
  0
VERTEX
  5
531
  8
CNCSHAPE
 10
2154.4477136409391278
 20
-52.1959948095617108
 30
0.0
  0
VERTEX
  5
532
  8
CNCSHAPE
 10
2166.4477130535979086
 20
-52.1959948095617108
 30
0.0
  0
VERTEX
  5
533
  8
CNCSHAPE
 10
2166.4477130535979086
 20
-93.1959928017455752
 30
0.0
  0
VERTEX
  5
534
  8
CNCSHAPE
 10
2154.4477136409391278
 20
-93.1959928017455752
 30
0.0
  0
SEQEND
  5
535
  8
CNCSHAPE
  0
POLYLINE
  5
AD
  8
CNCSHAPE
 66
     1
 10
0.0
 20
0.0
 30
0.0
 70
     1
  0
VERTEX
  5
536
  8
CNCSHAPE
 10
2402.4477014951430647
 20
80.5356144069626509
 30
0.0
  0
VERTEX
  5
537
  8
CNCSHAPE
 10
2414.4477009078018455
 20
80.5356144069626509
 30
0.0
  0
VERTEX
  5
538
  8
CNCSHAPE
 10
2414.4477009078018455
 20
39.5356164148952018
 30
0.0
  0
VERTEX
  5
539
  8
CNCSHAPE
 10
2402.4477014951430647
 20
39.5356164148952018
 30
0.0
  0
SEQEND
  5
53A
  8
CNCSHAPE
  0
POLYLINE
  5
AE
  8
CNCSHAPE
 66
     1
 10
0.0
 20
0.0
 30
0.0
 70
     1
  0
VERTEX
  5
53B
  8
CNCSHAPE
 10
2402.4477014951430647
 20
-52.1959948082811422
 30
0.0
  0
VERTEX
  5
53C
  8
CNCSHAPE
 10
2414.4477009078018455
 20
-52.1959948082811422
 30
0.0
  0
VERTEX
  5
53D
  8
CNCSHAPE
 10
2414.4477009078018455
 20
-93.1959928003485913
 30
0.0
  0
VERTEX
  5
53E
  8
CNCSHAPE
 10
2402.4477014951430647
 20
-93.1959928003485913
 30
0.0
  0
SEQEND
  5
53F
  8
CNCSHAPE
  0
POLYLINE
  5
AF
  8
CNCSHAPE
 66
     1
 10
0.0
 20
0.0
 30
0.0
 70
     1
  0
VERTEX
  5
540
  8
CNCSHAPE
 10
2650.4476893498131176
 20
80.5356144094073869
 30
0.0
  0
VERTEX
  5
541
  8
CNCSHAPE
 10
2662.4476887624718984
 20
80.5356144094073869
 30
0.0
  0
VERTEX
  5
542
  8
CNCSHAPE
 10
2662.4476887624718984
 20
39.5356164174563318
 30
0.0
  0
VERTEX
  5
543
  8
CNCSHAPE
 10
2650.4476893498131176
 20
39.5356164174563318
 30
0.0
  0
SEQEND
  5
544
  8
CNCSHAPE
  0
POLYLINE
  5
B0
  8
CNCSHAPE
 66
     1
 10
0.0
 20
0.0
 30
0.0
 70
     1
  0
VERTEX
  5
545
  8
CNCSHAPE
 10
2650.4476893493470016
 20
-52.1959948089796271
 30
0.0
  0
VERTEX
  5
546
  8
CNCSHAPE
 10
2662.4476887620057823
 20
-52.1959948089796271
 30
0.0
  0
VERTEX
  5
547
  8
CNCSHAPE
 10
2662.4476887620057823
 20
-93.1959928010470833
 30
0.0
  0
VERTEX
  5
548
  8
CNCSHAPE
 10
2650.4476893493470016
 20
-93.1959928010470833
 30
0.0
  0
SEQEND
  5
549
  8
CNCSHAPE
  0
POLYLINE
  5
B1
  8
CNCSHAPE
 66
     1
 10
0.0
 20
0.0
 30
0.0
 70
     1
  0
VERTEX
  5
54A
  8
CNCSHAPE
 10
2154.4477136409391278
 20
300.5372550696918097
 30
0.0
  0
VERTEX
  5
54B
  8
CNCSHAPE
 10
2166.4477130535979086
 20
300.5372550696918097
 30
0.0
  0
VERTEX
  5
54C
  8
CNCSHAPE
 10
2166.4477130535979086
 20
239.5372580570696073
 30
0.0
  0
VERTEX
  5
54D
  8
CNCSHAPE
 10
2154.4477136409391278
 20
239.5372580570696073
 30
0.0
  0
SEQEND
  5
54E
  8
CNCSHAPE
  0
POLYLINE
  5
B2
  8
CNCSHAPE
 66
     1
 10
0.0
 20
0.0
 30
0.0
 70
     1
  0
VERTEX
  5
54F
  8
CNCSHAPE
 10
2414.447700908267052
 20
300.5372550687604871
 30
0.0
  0
VERTEX
  5
550
  8
CNCSHAPE
 10
2402.4477014956091807
 20
300.5372550687604871
 30
0.0
  0
VERTEX
  5
551
  8
CNCSHAPE
 10
2402.4477014956091807
 20
239.5372580562547
 30
0.0
  0
VERTEX
  5
552
  8
CNCSHAPE
 10
2414.447700908267052
 20
239.5372580562547
 30
0.0
  0
SEQEND
  5
553
  8
CNCSHAPE
  0
POLYLINE
  5
B3
  8
CNCSHAPE
 66
     1
 10
0.0
 20
0.0
 30
0.0
 70
     1
  0
VERTEX
  5
554
  8
CNCSHAPE
 10
1421.1015115457310003
 20
-482.7491299579589281
 30
0.0
  0
VERTEX
  5
555
  8
CNCSHAPE
 10
1424.1015113990708869
 20
-482.7491299579589281
 30
0.0
 42
-0.3750000000323421
  0
VERTEX
  5
556
  8
CNCSHAPE
 10
1432.1015110068499325
 20
-482.7491299579589281
 30
0.0
  0
VERTEX
  5
557
  8
CNCSHAPE
 10
1432.1015110073160486
 20
-510.2491286113382216
 30
0.0
 42
0.3235932642983383
  0
VERTEX
  5
558
  8
CNCSHAPE
 10
1434.1607727493590119
 20
-513.097814435587793
 30
0.0
  0
VERTEX
  5
559
  8
CNCSHAPE
 10
1509.3004685696730576
 20
-537.9116338093763261
 30
0.0
 42
0.0768832805561248
  0
VERTEX
  5
55A
  8
CNCSHAPE
 10
1513.042338903306927
 20
-538.4620862147844491
 30
0.0
  0
VERTEX
  5
55B
  8
CNCSHAPE
 10
1671.101499303015089
 20
-538.4620862147844491
 30
0.0
 42
0.4142135623730955
  0
VERTEX
  5
55C
  8
CNCSHAPE
 10
1674.1014991563549756
 20
-535.4620863615615463
 30
0.0
  0
VERTEX
  5
55D
  8
CNCSHAPE
 10
1674.1014991563549756
 20
-502.2491290034421922
 30
0.0
 42
-0.3750000000481488
  0
VERTEX
  5
55E
  8
CNCSHAPE
 10
1682.1014987645999099
 20
-502.2491290034421922
 30
0.0
  0
VERTEX
  5
55F
  8
CNCSHAPE
 10
1685.101498617938887
 20
-502.2491290034421922
 30
0.0
  0
VERTEX
  5
560
  8
CNCSHAPE
 10
1685.101498617938887
 20
-442.2491319416614033
 30
0.0
  0
VERTEX
  5
561
  8
CNCSHAPE
 10
1681.1014988139909292
 20
-442.2491319416614033
 30
0.0
 42
-0.1428571428955192
  0
VERTEX
  5
562
  8
CNCSHAPE
 10
1674.1014991568199548
 20
-442.2491319416614033
 30
0.0
  0
VERTEX
  5
563
  8
CNCSHAPE
 10
1674.1014991563549756
 20
-414.249133312745073
 30
0.0
  0
VERTEX
  5
564
  8
CNCSHAPE
 10
1644.1541644409730907
 20
-414.249133312745073
 30
0.0
  0
VERTEX
  5
565
  8
CNCSHAPE
 10
1639.4673087103030866
 20
-414.249133312745073
 30
0.0
 42
-0.375000000032343
  0
VERTEX
  5
566
  8
CNCSHAPE
 10
1639.4673087107680658
 20
-406.2491337047327988
 30
0.0
  0
VERTEX
  5
567
  8
CNCSHAPE
 10
1639.4673087107680658
 20
-403.2491338513934238
 30
0.0
  0
VERTEX
  5
568
  8
CNCSHAPE
 10
1599.4673106694260696
 20
-403.2491338513934238
 30
0.0
  0
VERTEX
  5
569
  8
CNCSHAPE
 10
1599.4673106694260696
 20
-406.2491337047327988
 30
0.0
 42
-0.3749999999961772
  0
VERTEX
  5
56A
  8
CNCSHAPE
 10
1599.4673106698919582
 20
-414.249133312745073
 30
0.0
  0
VERTEX
  5
56B
  8
CNCSHAPE
 10
1506.7356994947099338
 20
-414.2491333136763956
 30
0.0
 42
-0.3750000000323421
  0
VERTEX
  5
56C
  8
CNCSHAPE
 10
1506.735699495641029
 20
-406.2491337056640077
 30
0.0
  0
VERTEX
  5
56D
  8
CNCSHAPE
 10
1506.735699495641029
 20
-403.2491338523246895
 30
0.0
  0
VERTEX
  5
56E
  8
CNCSHAPE
 10
1466.7357014542990328
 20
-403.2491338523246895
 30
0.0
  0
VERTEX
  5
56F
  8
CNCSHAPE
 10
1466.7357014542990328
 20
-406.2491337056640077
 30
0.0
 42
-0.3750000000323421
  0
VERTEX
  5
570
  8
CNCSHAPE
 10
1466.7357014542990328
 20
-414.2491333136763956
 30
0.0
  0
VERTEX
  5
571
  8
CNCSHAPE
 10
1432.1015110063840439
 20
-414.249133312745073
 30
0.0
  0
VERTEX
  5
572
  8
CNCSHAPE
 10
1432.1015110068499325
 20
-442.7491319177806872
 30
0.0
 42
-0.3750000000323421
  0
VERTEX
  5
573
  8
CNCSHAPE
 10
1424.1015113990708869
 20
-442.74913191696578
 30
0.0
  0
VERTEX
  5
574
  8
CNCSHAPE
 10
1421.1015115457310003
 20
-442.74913191696578
 30
0.0
  0
SEQEND
  5
575
  8
CNCSHAPE
  0
POLYLINE
  5
B4
  8
CNCSHAPE
 66
     1
 10
0.0
 20
0.0
 30
0.0
 70
     1
  0
VERTEX
  5
576
  8
CNCSHAPE
 10
1973.7593177907199333
 20
-482.7491299579589281
 30
0.0
  0
VERTEX
  5
577
  8
CNCSHAPE
 10
1976.7593176440589104
 20
-482.7491299579589281
 30
0.0
 42
-0.3750000000323421
  0
VERTEX
  5
578
  8
CNCSHAPE
 10
1984.7593172518390929
 20
-482.7491299579589281
 30
0.0
  0
VERTEX
  5
579
  8
CNCSHAPE
 10
1984.7593172523040721
 20
-510.2491286113382216
 30
0.0
 42
0.3235932642983383
  0
VERTEX
  5
57A
  8
CNCSHAPE
 10
1986.8185789943479449
 20
-513.097814435587793
 30
0.0
  0
VERTEX
  5
57B
  8
CNCSHAPE
 10
2061.9582748151269698
 20
-537.9116338093763261
 30
0.0
 42
0.0768832805561248
  0
VERTEX
  5
57C
  8
CNCSHAPE
 10
2065.7001451482969969
 20
-538.4620862147844491
 30
0.0
  0
VERTEX
  5
57D
  8
CNCSHAPE
 10
2223.7593055480037947
 20
-538.4620862147844491
 30
0.0
 42
0.4142135623730955
  0
VERTEX
  5
57E
  8
CNCSHAPE
 10
2226.7593054013432265
 20
-535.4620863615615463
 30
0.0
  0
VERTEX
  5
57F
  8
CNCSHAPE
 10
2226.7593054013432265
 20
-502.2491290034421922
 30
0.0
 42
-0.3750000000481488
  0
VERTEX
  5
580
  8
CNCSHAPE
 10
2234.7593050100540495
 20
-502.2491290034421922
 30
0.0
  0
VERTEX
  5
581
  8
CNCSHAPE
 10
2237.759304863277066
 20
-502.2491290034421922
 30
0.0
  0
VERTEX
  5
582
  8
CNCSHAPE
 10
2237.759304863277066
 20
-442.2491319416614033
 30
0.0
  0
VERTEX
  5
583
  8
CNCSHAPE
 10
2233.7593050589798622
 20
-442.2491319416614033
 30
0.0
 42
-0.1428571428955192
  0
VERTEX
  5
584
  8
CNCSHAPE
 10
2226.7593054018088878
 20
-442.2491319416614033
 30
0.0
  0
VERTEX
  5
585
  8
CNCSHAPE
 10
2226.7593054013432265
 20
-414.249133312745073
 30
0.0
  0
VERTEX
  5
586
  8
CNCSHAPE
 10
2196.8119706858460631
 20
-414.249133312745073
 30
0.0
  0
VERTEX
  5
587
  8
CNCSHAPE
 10
2192.1251149552917923
 20
-414.249133312745073
 30
0.0
 42
-0.375000000032343
  0
VERTEX
  5
588
  8
CNCSHAPE
 10
2192.1251149557569988
 20
-406.2491337047327988
 30
0.0
  0
VERTEX
  5
589
  8
CNCSHAPE
 10
2192.1251149557569988
 20
-403.2491338513934238
 30
0.0
  0
VERTEX
  5
58A
  8
CNCSHAPE
 10
2152.1251169148808913
 20
-403.2491338513934238
 30
0.0
  0
VERTEX
  5
58B
  8
CNCSHAPE
 10
2152.1251169148808913
 20
-406.2491337047327988
 30
0.0
 42
-0.3749999999961772
  0
VERTEX
  5
58C
  8
CNCSHAPE
 10
2152.1251169152301372
 20
-414.249133312745073
 30
0.0
  0
VERTEX
  5
58D
  8
CNCSHAPE
 10
2059.3935057396988668
 20
-414.2491333136763956
 30
0.0
 42
-0.3750000000323421
  0
VERTEX
  5
58E
  8
CNCSHAPE
 10
2059.3935057405128646
 20
-406.2491337056640077
 30
0.0
  0
VERTEX
  5
58F
  8
CNCSHAPE
 10
2059.3935057405128646
 20
-403.2491338523246895
 30
0.0
  0
VERTEX
  5
590
  8
CNCSHAPE
 10
2019.3935076991710957
 20
-403.2491338523246895
 30
0.0
  0
VERTEX
  5
591
  8
CNCSHAPE
 10
2019.3935076991710957
 20
-406.2491337056640077
 30
0.0
 42
-0.3750000000323421
  0
VERTEX
  5
592
  8
CNCSHAPE
 10
2019.3935076991710957
 20
-414.2491333136763956
 30
0.0
  0
VERTEX
  5
593
  8
CNCSHAPE
 10
1984.7593172513729769
 20
-414.249133312745073
 30
0.0
  0
VERTEX
  5
594
  8
CNCSHAPE
 10
1984.7593172518390929
 20
-442.7491319177806872
 30
0.0
 42
-0.3750000000323421
  0
VERTEX
  5
595
  8
CNCSHAPE
 10
1976.7593176440589104
 20
-442.74913191696578
 30
0.0
  0
VERTEX
  5
596
  8
CNCSHAPE
 10
1973.7593177907199333
 20
-442.74913191696578
 30
0.0
  0
SEQEND
  5
597
  8
CNCSHAPE
  0
POLYLINE
  5
B5
  8
CNCSHAPE
 66
     1
 10
0.0
 20
0.0
 30
0.0
 70
     1
  0
VERTEX
  5
598
  8
CNCSHAPE
 10
1923.4715859807658944
 20
461.6360830369612813
 30
0.0
  0
VERTEX
  5
599
  8
CNCSHAPE
 10
1926.4715858341050989
 20
461.6360830369612813
 30
0.0
 42
-0.3750000000323421
  0
VERTEX
  5
59A
  8
CNCSHAPE
 10
1934.4715854423509427
 20
461.6360830369612813
 30
0.0
  0
VERTEX
  5
59B
  8
CNCSHAPE
 10
1934.4715854428159219
 20
434.1360843835819878
 30
0.0
 42
0.3235932642983383
  0
VERTEX
  5
59C
  8
CNCSHAPE
 10
1936.530847184860022
 20
431.2873985593324164
 30
0.0
  0
VERTEX
  5
59D
  8
CNCSHAPE
 10
2011.6705430051729309
 20
406.4735791856604123
 30
0.0
 42
0.0768832805561248
  0
VERTEX
  5
59E
  8
CNCSHAPE
 10
2015.412413338342958
 20
405.9231267801355898
 30
0.0
  0
VERTEX
  5
59F
  8
CNCSHAPE
 10
2173.4715737385158718
 20
405.9231267801355898
 30
0.0
 42
0.4142135623730955
  0
VERTEX
  5
5A0
  8
CNCSHAPE
 10
2176.4715735918562132
 20
408.923126633474908
 30
0.0
  0
VERTEX
  5
5A1
  8
CNCSHAPE
 10
2176.4715735918562132
 20
442.1360839915943188
 30
0.0
 42
-0.3750000000481488
  0
VERTEX
  5
5A2
  8
CNCSHAPE
 10
2184.4715732001000106
 20
442.1360839915943188
 30
0.0
  0
VERTEX
  5
5A3
  8
CNCSHAPE
 10
2187.4715730533230271
 20
442.1360839915943188
 30
0.0
  0
VERTEX
  5
5A4
  8
CNCSHAPE
 10
2187.4715730533230271
 20
502.1360810532586925
 30
0.0
  0
VERTEX
  5
5A5
  8
CNCSHAPE
 10
2183.4715732494910299
 20
502.1360810532586925
 30
0.0
 42
-0.1428571428955192
  0
VERTEX
  5
5A6
  8
CNCSHAPE
 10
2176.471573592320965
 20
502.1360810532586925
 30
0.0
  0
VERTEX
  5
5A7
  8
CNCSHAPE
 10
2176.4715735918562132
 20
530.1360796822915518
 30
0.0
  0
VERTEX
  5
5A8
  8
CNCSHAPE
 10
2146.5242388763581403
 20
530.1360796822915518
 30
0.0
  0
VERTEX
  5
5A9
  8
CNCSHAPE
 10
2141.8373831453382081
 20
530.1360796822915518
 30
0.0
 42
-0.375000000032343
  0
VERTEX
  5
5AA
  8
CNCSHAPE
 10
2141.8373831458029599
 20
538.1360792903038828
 30
0.0
  0
VERTEX
  5
5AB
  8
CNCSHAPE
 10
2141.8373831458029599
 20
541.136079143643201
 30
0.0
  0
VERTEX
  5
5AC
  8
CNCSHAPE
 10
2101.8373851049268524
 20
541.136079143643201
 30
0.0
  0
VERTEX
  5
5AD
  8
CNCSHAPE
 10
2101.8373851049268524
 20
538.1360792903038828
 30
0.0
 42
-0.3749999999961772
  0
VERTEX
  5
5AE
  8
CNCSHAPE
 10
2101.8373851053929684
 20
530.1360796822915518
 30
0.0
  0
VERTEX
  5
5AF
  8
CNCSHAPE
 10
2009.1057739297450553
 20
530.1360796813602292
 30
0.0
 42
-0.3750000000323421
  0
VERTEX
  5
5B0
  8
CNCSHAPE
 10
2009.1057739306759231
 20
538.1360792893724465
 30
0.0
  0
VERTEX
  5
5B1
  8
CNCSHAPE
 10
2009.1057739306759231
 20
541.1360791427117647
 30
0.0
  0
VERTEX
  5
5B2
  8
CNCSHAPE
 10
1969.1057758896829455
 20
541.1360791427117647
 30
0.0
  0
VERTEX
  5
5B3
  8
CNCSHAPE
 10
1969.1057758896829455
 20
538.1360792893724465
 30
0.0
 42
-0.3750000000323421
  0
VERTEX
  5
5B4
  8
CNCSHAPE
 10
1969.1057758896829455
 20
530.1360796813602292
 30
0.0
  0
VERTEX
  5
5B5
  8
CNCSHAPE
 10
1934.471585441885054
 20
530.1360796822915518
 30
0.0
  0
VERTEX
  5
5B6
  8
CNCSHAPE
 10
1934.4715854423509427
 20
501.6360810772558807
 30
0.0
 42
-0.3750000000323421
  0
VERTEX
  5
5B7
  8
CNCSHAPE
 10
1926.4715858341050989
 20
501.636081078070788
 30
0.0
  0
VERTEX
  5
5B8
  8
CNCSHAPE
 10
1923.4715859807658944
 20
501.636081078070788
 30
0.0
  0
SEQEND
  5
5B9
  8
CNCSHAPE
  0
POLYLINE
  5
B6
  8
CNCSHAPE
 66
     1
 10
0.0
 20
0.0
 30
0.0
 70
     1
  0
VERTEX
  5
5BA
  8
CNCSHAPE
 10
2277.3872339368299436
 20
461.6360830369612813
 30
0.0
  0
VERTEX
  5
5BB
  8
CNCSHAPE
 10
2280.3872337900529601
 20
461.6360830369612813
 30
0.0
 42
-0.3750000000323421
  0
VERTEX
  5
5BC
  8
CNCSHAPE
 10
2288.3872333979488758
 20
461.6360830369612813
 30
0.0
  0
VERTEX
  5
5BD
  8
CNCSHAPE
 10
2288.3872333982981218
 20
434.1360843835819878
 30
0.0
 42
0.3235932642983383
  0
VERTEX
  5
5BE
  8
CNCSHAPE
 10
2290.4464951408072011
 20
431.2873985593324164
 30
0.0
  0
VERTEX
  5
5BF
  8
CNCSHAPE
 10
2365.5861909611207921
 20
406.4735791856604123
 30
0.0
 42
0.0768832805561248
  0
VERTEX
  5
5C0
  8
CNCSHAPE
 10
2369.3280612944067798
 20
405.9231267801355898
 30
0.0
  0
VERTEX
  5
5C1
  8
CNCSHAPE
 10
2527.3872216941140323
 20
405.9231267801355898
 30
0.0
 42
0.4142135623730955
  0
VERTEX
  5
5C2
  8
CNCSHAPE
 10
2530.3872215473370488
 20
408.923126633474908
 30
0.0
  0
VERTEX
  5
5C3
  8
CNCSHAPE
 10
2530.3872215473370488
 20
442.1360839915943188
 30
0.0
 42
-0.3750000000481488
  0
VERTEX
  5
5C4
  8
CNCSHAPE
 10
2538.3872211560478718
 20
442.1360839915943188
 30
0.0
  0
VERTEX
  5
5C5
  8
CNCSHAPE
 10
2541.3872210093868489
 20
442.1360839915943188
 30
0.0
  0
VERTEX
  5
5C6
  8
CNCSHAPE
 10
2541.3872210093868489
 20
502.1360810532586925
 30
0.0
  0
VERTEX
  5
5C7
  8
CNCSHAPE
 10
2537.387221205438891
 20
502.1360810532586925
 30
0.0
 42
-0.1428571428955192
  0
VERTEX
  5
5C8
  8
CNCSHAPE
 10
2530.3872215478031649
 20
502.1360810532586925
 30
0.0
  0
VERTEX
  5
5C9
  8
CNCSHAPE
 10
2530.3872215473370488
 20
530.1360796822915518
 30
0.0
  0
VERTEX
  5
5CA
  8
CNCSHAPE
 10
2500.439886831955846
 20
530.1360796822915518
 30
0.0
  0
VERTEX
  5
5CB
  8
CNCSHAPE
 10
2495.7530311014020299
 20
530.1360796822915518
 30
0.0
 42
-0.375000000032343
  0
VERTEX
  5
5CC
  8
CNCSHAPE
 10
2495.7530311018667817
 20
538.1360792903038828
 30
0.0
  0
VERTEX
  5
5CD
  8
CNCSHAPE
 10
2495.7530311018667817
 20
541.136079143643201
 30
0.0
  0
VERTEX
  5
5CE
  8
CNCSHAPE
 10
2455.7530330608751683
 20
541.136079143643201
 30
0.0
  0
VERTEX
  5
5CF
  8
CNCSHAPE
 10
2455.7530330608751683
 20
538.1360792903038828
 30
0.0
 42
-0.3749999999961772
  0
VERTEX
  5
5D0
  8
CNCSHAPE
 10
2455.7530330613399201
 20
530.1360796822915518
 30
0.0
  0
VERTEX
  5
5D1
  8
CNCSHAPE
 10
2363.0214218856917796
 20
530.1360796813602292
 30
0.0
 42
-0.3750000000323421
  0
VERTEX
  5
5D2
  8
CNCSHAPE
 10
2363.0214218866240117
 20
538.1360792893724465
 30
0.0
  0
VERTEX
  5
5D3
  8
CNCSHAPE
 10
2363.0214218866240117
 20
541.1360791427117647
 30
0.0
  0
VERTEX
  5
5D4
  8
CNCSHAPE
 10
2323.0214238457469946
 20
541.1360791427117647
 30
0.0
  0
VERTEX
  5
5D5
  8
CNCSHAPE
 10
2323.0214238457469946
 20
538.1360792893724465
 30
0.0
 42
-0.3750000000323421
  0
VERTEX
  5
5D6
  8
CNCSHAPE
 10
2323.0214238457469946
 20
530.1360796813602292
 30
0.0
  0
VERTEX
  5
5D7
  8
CNCSHAPE
 10
2288.3872333974832145
 20
530.1360796822915518
 30
0.0
  0
VERTEX
  5
5D8
  8
CNCSHAPE
 10
2288.3872333979488758
 20
501.6360810772558807
 30
0.0
 42
-0.3750000000323421
  0
VERTEX
  5
5D9
  8
CNCSHAPE
 10
2280.3872337900529601
 20
501.636081078070788
 30
0.0
  0
VERTEX
  5
5DA
  8
CNCSHAPE
 10
2277.3872339368299436
 20
501.636081078070788
 30
0.0
  0
SEQEND
  5
5DB
  8
CNCSHAPE
  0
POLYLINE
  5
B7
  8
CNCSHAPE
 66
     1
 10
0.0
 20
0.0
 30
0.0
 70
     1
  0
VERTEX
  5
5DC
  8
CNCSHAPE
 10
2646.635717945774104
 20
461.6360830369612813
 30
0.0
  0
VERTEX
  5
5DD
  8
CNCSHAPE
 10
2649.6357177985310045
 20
461.6360830369612813
 30
0.0
 42
-0.3750000000323421
  0
VERTEX
  5
5DE
  8
CNCSHAPE
 10
2657.6357174068930362
 20
461.6360830369612813
 30
0.0
  0
VERTEX
  5
5DF
  8
CNCSHAPE
 10
2657.635717407357788
 20
434.1360843835819878
 30
0.0
 42
0.3235932642983383
  0
VERTEX
  5
5E0
  8
CNCSHAPE
 10
2659.694979149286155
 20
431.2873985593324164
 30
0.0
  0
VERTEX
  5
5E1
  8
CNCSHAPE
 10
2734.8346749697161613
 20
406.4735791856604123
 30
0.0
 42
0.0768832805561248
  0
VERTEX
  5
5E2
  8
CNCSHAPE
 10
2738.5765453028848242
 20
405.9231267801355898
 30
0.0
  0
VERTEX
  5
5E3
  8
CNCSHAPE
 10
2896.6357057030581927
 20
405.9231267801355898
 30
0.0
 42
0.4142135623730955
  0
VERTEX
  5
5E4
  8
CNCSHAPE
 10
2899.6357055562812093
 20
408.923126633474908
 30
0.0
  0
VERTEX
  5
5E5
  8
CNCSHAPE
 10
2899.6357055562812093
 20
442.1360839915943188
 30
0.0
 42
-0.3750000000481488
  0
VERTEX
  5
5E6
  8
CNCSHAPE
 10
2907.6357051646427863
 20
442.1360839915943188
 30
0.0
  0
VERTEX
  5
5E7
  8
CNCSHAPE
 10
2910.6357050178648933
 20
442.1360839915943188
 30
0.0
  0
VERTEX
  5
5E8
  8
CNCSHAPE
 10
2910.6357050178648933
 20
502.1360810532586925
 30
0.0
  0
VERTEX
  5
5E9
  8
CNCSHAPE
 10
2906.635705213917845
 20
502.1360810532586925
 30
0.0
 42
-0.1428571428955192
  0
VERTEX
  5
5EA
  8
CNCSHAPE
 10
2899.6357055567468706
 20
502.1360810532586925
 30
0.0
  0
VERTEX
  5
5EB
  8
CNCSHAPE
 10
2899.6357055562812093
 20
530.1360796822915518
 30
0.0
  0
VERTEX
  5
5EC
  8
CNCSHAPE
 10
2869.6883708409000064
 20
530.1360796822915518
 30
0.0
  0
VERTEX
  5
5ED
  8
CNCSHAPE
 10
2865.0015151103448261
 20
530.1360796822915518
 30
0.0
 42
-0.375000000032343
  0
VERTEX
  5
5EE
  8
CNCSHAPE
 10
2865.0015151108109421
 20
538.1360792903038828
 30
0.0
  0
VERTEX
  5
5EF
  8
CNCSHAPE
 10
2865.0015151108109421
 20
541.136079143643201
 30
0.0
  0
VERTEX
  5
5F0
  8
CNCSHAPE
 10
2825.0015170693518485
 20
541.136079143643201
 30
0.0
  0
VERTEX
  5
5F1
  8
CNCSHAPE
 10
2825.0015170693518485
 20
538.1360792903038828
 30
0.0
 42
-0.3749999999961772
  0
VERTEX
  5
5F2
  8
CNCSHAPE
 10
2825.0015170698179645
 20
530.1360796822915518
 30
0.0
  0
VERTEX
  5
5F3
  8
CNCSHAPE
 10
2732.2699058946359401
 20
530.1360796813602292
 30
0.0
 42
-0.3750000000323421
  0
VERTEX
  5
5F4
  8
CNCSHAPE
 10
2732.2699058955668079
 20
538.1360792893724465
 30
0.0
  0
VERTEX
  5
5F5
  8
CNCSHAPE
 10
2732.2699058955668079
 20
541.1360791427117647
 30
0.0
  0
VERTEX
  5
5F6
  8
CNCSHAPE
 10
2692.269907854225039
 20
541.1360791427117647
 30
0.0
  0
VERTEX
  5
5F7
  8
CNCSHAPE
 10
2692.269907854225039
 20
538.1360792893724465
 30
0.0
 42
-0.3750000000323421
  0
VERTEX
  5
5F8
  8
CNCSHAPE
 10
2692.269907854225039
 20
530.1360796813602292
 30
0.0
  0
VERTEX
  5
5F9
  8
CNCSHAPE
 10
2657.6357174064269202
 20
530.1360796822915518
 30
0.0
  0
VERTEX
  5
5FA
  8
CNCSHAPE
 10
2657.6357174068930362
 20
501.6360810772558807
 30
0.0
 42
-0.3750000000323421
  0
VERTEX
  5
5FB
  8
CNCSHAPE
 10
2649.6357177985310045
 20
501.636081078070788
 30
0.0
  0
VERTEX
  5
5FC
  8
CNCSHAPE
 10
2646.635717945774104
 20
501.636081078070788
 30
0.0
  0
SEQEND
  5
5FD
  8
CNCSHAPE
  0
POLYLINE
  5
B8
  8
CNCSHAPE
 66
     1
 10
0.0
 20
0.0
 30
0.0
 70
     1
  0
VERTEX
  5
5FE
  8
CNCSHAPE
 10
2505.7560661445468213
 20
-482.7491299579589281
 30
0.0
  0
VERTEX
  5
5FF
  8
CNCSHAPE
 10
2508.7560659977698378
 20
-482.7491299579589281
 30
0.0
 42
-0.3750000000323421
  0
VERTEX
  5
600
  8
CNCSHAPE
 10
2516.7560656055488835
 20
-482.7491299579589281
 30
0.0
  0
VERTEX
  5
601
  8
CNCSHAPE
 10
2516.7560656060149995
 20
-510.2491286113382216
 30
0.0
 42
0.3235932642983383
  0
VERTEX
  5
602
  8
CNCSHAPE
 10
2518.8153273485249883
 20
-513.097814435587793
 30
0.0
  0
VERTEX
  5
603
  8
CNCSHAPE
 10
2593.955023168839034
 20
-537.9116338093763261
 30
0.0
 42
0.0768832805561248
  0
VERTEX
  5
604
  8
CNCSHAPE
 10
2597.6968935021241123
 20
-538.4620862147844491
 30
0.0
  0
VERTEX
  5
605
  8
CNCSHAPE
 10
2755.75605390183091
 20
-538.4620862147844491
 30
0.0
 42
0.4142135623730955
  0
VERTEX
  5
606
  8
CNCSHAPE
 10
2758.7560537550539266
 20
-535.4620863615615463
 30
0.0
  0
VERTEX
  5
607
  8
CNCSHAPE
 10
2758.7560537550539266
 20
-502.2491290034421922
 30
0.0
 42
-0.3750000000481488
  0
VERTEX
  5
608
  8
CNCSHAPE
 10
2766.7560533637652043
 20
-502.2491290034421922
 30
0.0
  0
VERTEX
  5
609
  8
CNCSHAPE
 10
2769.7560532171050909
 20
-502.2491290034421922
 30
0.0
  0
VERTEX
  5
60A
  8
CNCSHAPE
 10
2769.7560532171050909
 20
-442.2491319416614033
 30
0.0
  0
VERTEX
  5
60B
  8
CNCSHAPE
 10
2765.756053412691017
 20
-442.2491319416614033
 30
0.0
 42
-0.1428571428955192
  0
VERTEX
  5
60C
  8
CNCSHAPE
 10
2758.7560537555200426
 20
-442.2491319416614033
 30
0.0
  0
VERTEX
  5
60D
  8
CNCSHAPE
 10
2758.7560537550539266
 20
-414.249133312745073
 30
0.0
  0
VERTEX
  5
60E
  8
CNCSHAPE
 10
2728.8087190396731785
 20
-414.249133312745073
 30
0.0
  0
VERTEX
  5
60F
  8
CNCSHAPE
 10
2724.1218633091189076
 20
-414.249133312745073
 30
0.0
 42
-0.375000000032343
  0
VERTEX
  5
610
  8
CNCSHAPE
 10
2724.1218633094690631
 20
-406.2491337047327988
 30
0.0
  0
VERTEX
  5
611
  8
CNCSHAPE
 10
2724.1218633094690631
 20
-403.2491338513934238
 30
0.0
  0
VERTEX
  5
612
  8
CNCSHAPE
 10
2684.1218652685911366
 20
-403.2491338513934238
 30
0.0
  0
VERTEX
  5
613
  8
CNCSHAPE
 10
2684.1218652685911366
 20
-406.2491337047327988
 30
0.0
 42
-0.3749999999961772
  0
VERTEX
  5
614
  8
CNCSHAPE
 10
2684.1218652690567978
 20
-414.249133312745073
 30
0.0
  0
VERTEX
  5
615
  8
CNCSHAPE
 10
2591.3902540934091121
 20
-414.2491333136763956
 30
0.0
 42
-0.3750000000323421
  0
VERTEX
  5
616
  8
CNCSHAPE
 10
2591.3902540943408894
 20
-406.2491337056640077
 30
0.0
  0
VERTEX
  5
617
  8
CNCSHAPE
 10
2591.3902540943408894
 20
-403.2491338523246895
 30
0.0
  0
VERTEX
  5
618
  8
CNCSHAPE
 10
2551.3902560534638724
 20
-403.2491338523246895
 30
0.0
  0
VERTEX
  5
619
  8
CNCSHAPE
 10
2551.3902560534638724
 20
-406.2491337056640077
 30
0.0
 42
-0.3750000000323421
  0
VERTEX
  5
61A
  8
CNCSHAPE
 10
2551.3902560534638724
 20
-414.2491333136763956
 30
0.0
  0
VERTEX
  5
61B
  8
CNCSHAPE
 10
2516.7560656052000923
 20
-414.249133312745073
 30
0.0
  0
VERTEX
  5
61C
  8
CNCSHAPE
 10
2516.7560656055488835
 20
-442.7491319177806872
 30
0.0
 42
-0.3750000000323421
  0
VERTEX
  5
61D
  8
CNCSHAPE
 10
2508.7560659977698378
 20
-442.74913191696578
 30
0.0
  0
VERTEX
  5
61E
  8
CNCSHAPE
 10
2505.7560661445468213
 20
-442.74913191696578
 30
0.0
  0
SEQEND
  5
61F
  8
CNCSHAPE
  0
POLYLINE
  5
385
  8
DEPT
 66
     1
 10
0.0
 20
0.0
 30
0.0
 70
     1
  0
VERTEX
  5
622
  8
DEPT
 10
1700.8296318769639583
 20
199.6372599913808017
 30
0.0
  0
VERTEX
  5
623
  8
DEPT
 10
772.8296308000168438
 20
199.6372599913808017
 30
0.0
  0
VERTEX
  5
624
  8
DEPT
 10
772.8296308000167301
 20
212.4372594036904047
 30
0.0
  0
VERTEX
  5
625
  8
DEPT
 10
1700.8296318769639583
 20
212.4372594036904047
 30
0.0
  0
SEQEND
  5
626
  8
DEPT
  0
POLYLINE
  5
386
  8
DEPT
 66
     1
 10
0.0
 20
0.0
 30
0.0
 70
     1
  0
VERTEX
  5
627
  8
DEPT
 10
2872.4477017407029962
 20
199.637259991380887
 30
0.0
  0
VERTEX
  5
628
  8
DEPT
 10
1944.4477006636388978
 20
199.6372599913808017
 30
0.0
  0
VERTEX
  5
629
  8
DEPT
 10
1944.4477006636388978
 20
212.4372594036904047
 30
0.0
  0
VERTEX
  5
62A
  8
DEPT
 10
2872.4477017407029962
 20
212.43725940369049
 30
0.0
  0
SEQEND
  5
62B
  8
DEPT
  0
POLYLINE
  5
387
  8
DEPT
 66
     1
 10
0.0
 20
0.0
 30
0.0
 70
     1
  0
VERTEX
  5
62C
  8
DEPT
 10
2872.8477017402369711
 20
-244.9761510180017012
 30
0.0
  0
VERTEX
  5
62D
  8
DEPT
 10
1944.0477006636390342
 20
-244.9761510180019002
 30
0.0
  0
VERTEX
  5
62E
  8
DEPT
 10
1944.0477006636378974
 20
-232.1761516056922972
 30
0.0
  0
VERTEX
  5
62F
  8
DEPT
 10
2872.8477017402369711
 20
-232.1761516056922119
 30
0.0
  0
SEQEND
  5
630
  8
DEPT
  0
POLYLINE
  5
388
  8
DEPT
 66
     1
 10
0.0
 20
0.0
 30
0.0
 70
     1
  0
VERTEX
  5
631
  8
DEPT
 10
1701.2296318766150307
 20
-244.9761510180019002
 30
0.0
  0
VERTEX
  5
632
  8
DEPT
 10
772.4296308000168665
 20
-244.9761510180017865
 30
0.0
  0
VERTEX
  5
633
  8
DEPT
 10
772.4296308000168665
 20
-232.1761516056922119
 30
0.0
  0
VERTEX
  5
634
  8
DEPT
 10
1701.2296318766138938
 20
-232.1761516056922972
 30
0.0
  0
SEQEND
  5
635
  8
DEPT
  0
ENDSEC
  0
EOF
