  0
SECTION
  2
HEADER
  9
$ACADVER
  1
AC1009
  9
$EXTMIN
 10
-1568.57142857
 20
785.14851485
 30
0.0
  9
$EXTMAX
 10
4375.02857143
 20
3762.63111740
 30
0.0
  0
ENDSEC
  0
SECTION
  2
TABLES
  0
TABLE
  2
LAYER
 70
1
 0
LAYER
 2
Default Layer
 70
0
 62
1
 6
CONTINUOUS
 0
ENDTAB
 0
ENDSEC
  0
SECTION
  2
ENTITIES
  0
POLYLINE
  8
Default Layer
 66
   1
 39
0.000000
 70
    1
  0
VERTEX
  8
0
 10
2075.62409780
 20
2642.43750884
  0
VERTEX
  8
0
 10
171.49111159
 20
2642.43750884
  0
VERTEX
  8
0
 10
171.49111159
 20
2711.95823692
  0
VERTEX
  8
0
 10
159.50184143
 20
2711.95823692
  0
VERTEX
  8
0
 10
159.50184143
 20
2729.95823692
  0
VERTEX
  8
0
 10
171.49111159
 20
2729.95823692
  0
VERTEX
  8
0
 10
171.49111159
 20
2746.36055516
  0
VERTEX
  8
0
 10
2075.62409780
 20
2746.36055516
  0
VERTEX
  8
0
 10
2075.62409780
 20
2729.86387376
  0
VERTEX
  8
0
 10
2087.61938210
 20
2729.86387376
  0
VERTEX
  8
0
 10
2087.61938210
 20
2711.86387376
  0
VERTEX
  8
0
 10
2075.62409780
 20
2711.86387376
  0
VERTEX
  8
0
 10
2075.62409780
 20
2642.43750884
  0
SEQEND
  0
POLYLINE
  8
Default Layer
 66
   1
 39
0.000000
 70
    1
  0
VERTEX
  8
0
 10
2070.72135785
 20
2759.63735856
  0
VERTEX
  8
0
 10
166.58837164
 20
2759.63735856
  0
VERTEX
  8
0
 10
166.58837164
 20
2829.15808663
  0
VERTEX
  8
0
 10
154.59910149
 20
2829.15808663
  0
VERTEX
  8
0
 10
154.59910149
 20
2847.15808663
  0
VERTEX
  8
0
 10
166.58837164
 20
2847.15808663
  0
VERTEX
  8
0
 10
166.58837164
 20
2902.38643034
  0
VERTEX
  8
0
 10
2070.72135785
 20
2902.38643034
  0
VERTEX
  8
0
 10
2070.72135785
 20
2847.06372348
  0
VERTEX
  8
0
 10
2082.71664215
 20
2847.06372348
  0
VERTEX
  8
0
 10
2082.71664215
 20
2829.06372348
  0
VERTEX
  8
0
 10
2070.72135785
 20
2829.06372348
  0
VERTEX
  8
0
 10
2070.72135785
 20
2759.63735856
  0
SEQEND
  0
POLYLINE
  8
Default Layer
 66
   1
 39
0.000000
 70
    1
  0
VERTEX
  8
0
 10
2070.72135785
 20
2915.01613331
  0
VERTEX
  8
0
 10
166.58837164
 20
2915.01613331
  0
VERTEX
  8
0
 10
166.58837164
 20
2984.53686139
  0
VERTEX
  8
0
 10
154.59910149
 20
2984.53686139
  0
VERTEX
  8
0
 10
154.59910149
 20
3002.53686139
  0
VERTEX
  8
0
 10
166.58837164
 20
3002.53686139
  0
VERTEX
  8
0
 10
166.58837164
 20
3057.76520509
  0
VERTEX
  8
0
 10
2070.72135785
 20
3057.76520509
  0
VERTEX
  8
0
 10
2070.72135785
 20
3002.44249823
  0
VERTEX
  8
0
 10
2082.71664215
 20
3002.44249823
  0
VERTEX
  8
0
 10
2082.71664215
 20
2984.44249823
  0
VERTEX
  8
0
 10
2070.72135785
 20
2984.44249823
  0
VERTEX
  8
0
 10
2070.72135785
 20
2915.01613331
  0
SEQEND
  0
POLYLINE
  8
Default Layer
 66
   1
 39
0.000000
 70
    1
  0
VERTEX
  8
0
 10
62.20272603
 20
1253.60027030
  0
VERTEX
  8
0
 10
-377.75042562
 20
1253.52847030
  0
VERTEX
  8
0
 10
-377.75042562
 20
2463.30691549
  0
VERTEX
  8
0
 10
-256.42083191
 20
2474.79820662
  0
VERTEX
  8
0
 10
28.38804362
 20
2474.79820662
  0
VERTEX
  8
0
 10
35.32612603
 20
2432.38487030
  0
VERTEX
  8
0
 10
35.88495108
 20
2421.99711241
  0
VERTEX
  8
0
 10
36.48417644
 20
2411.61091422
  0
VERTEX
  8
0
 10
37.09956192
 20
2401.22533990
  0
VERTEX
  8
0
 10
37.70686733
 20
2390.83945365
  0
VERTEX
  8
0
 10
38.28185251
 20
2380.45231964
  0
VERTEX
  8
0
 10
38.54964995
 20
2375.25799229
  0
VERTEX
  8
0
 10
38.80027726
 20
2370.06300207
  0
VERTEX
  8
0
 10
39.03070443
 20
2364.86723200
  0
VERTEX
  8
0
 10
39.23790141
 20
2359.67056511
  0
VERTEX
  8
0
 10
39.41883821
 20
2354.47288442
  0
VERTEX
  8
0
 10
39.57048478
 20
2349.27407295
  0
VERTEX
  8
0
 10
39.69090417
 20
2344.00125576
  0
VERTEX
  8
0
 10
39.78218872
 20
2338.59110701
  0
VERTEX
  8
0
 10
39.84735239
 20
2333.05783342
  0
VERTEX
  8
0
 10
39.88940913
 20
2327.41564170
  0
VERTEX
  8
0
 10
39.91137287
 20
2321.67873856
  0
VERTEX
  8
0
 10
39.91625758
 20
2315.86133072
  0
VERTEX
  8
0
 10
39.88684566
 20
2304.04182777
  0
VERTEX
  8
0
 10
39.82528496
 20
2292.07078655
  0
VERTEX
  8
0
 10
39.75568706
 20
2280.06186076
  0
VERTEX
  8
0
 10
39.70216355
 20
2268.12870411
  0
VERTEX
  8
0
 10
39.68882603
 20
2256.38497030
  0
VERTEX
  8
0
 10
39.70183608
 20
2234.65225389
  0
VERTEX
  8
0
 10
39.73343191
 20
2211.63744261
  0
VERTEX
  8
0
 10
39.80777505
 20
2164.83856312
  0
VERTEX
  8
0
 10
39.82821941
 20
2142.59300876
  0
VERTEX
  8
0
 10
39.82264368
 20
2122.14238722
  0
VERTEX
  8
0
 10
39.77989637
 20
2104.25595543
  0
VERTEX
  8
0
 10
39.74109855
 20
2096.51470347
  0
VERTEX
  8
0
 10
39.68882603
 20
2089.70297030
  0
VERTEX
  8
0
 10
39.55433424
 20
2077.07323387
  0
VERTEX
  8
0
 10
39.38914289
 20
2064.44376946
  0
VERTEX
  8
0
 10
39.19383095
 20
2051.81466590
  0
VERTEX
  8
0
 10
38.96897738
 20
2039.18601203
  0
VERTEX
  8
0
 10
38.71516114
 20
2026.55789670
  0
VERTEX
  8
0
 10
38.43296120
 20
2013.93040874
  0
VERTEX
  8
0
 10
38.12295650
 20
2001.30363699
  0
VERTEX
  8
0
 10
37.78572603
 20
1988.67767030
  0
VERTEX
  8
0
 10
37.59488019
 20
1982.28936819
  0
VERTEX
  8
0
 10
37.37580879
 20
1975.75971891
  0
VERTEX
  8
0
 10
37.13273540
 20
1969.10330620
  0
VERTEX
  8
0
 10
36.86988359
 20
1962.33471380
  0
VERTEX
  8
0
 10
36.30173900
 20
1948.51932489
  0
VERTEX
  8
0
 10
35.70516363
 20
1934.43022209
  0
VERTEX
  8
0
 10
35.11394605
 20
1920.18407532
  0
VERTEX
  8
0
 10
34.83090537
 20
1913.03856979
  0
VERTEX
  8
0
 10
34.56187487
 20
1905.89755449
  0
VERTEX
  8
0
 10
34.31107810
 20
1898.77561315
  0
VERTEX
  8
0
 10
34.08273866
 20
1891.68732951
  0
VERTEX
  8
0
 10
33.88108011
 20
1884.64728731
  0
VERTEX
  8
0
 10
33.71032603
 20
1877.67007030
  0
VERTEX
  8
0
 10
33.41443603
 20
1862.98237351
  0
VERTEX
  8
0
 10
33.14919232
 20
1847.04407602
  0
VERTEX
  8
0
 10
32.92487031
 20
1830.39670808
  0
VERTEX
  8
0
 10
32.75174544
 20
1813.58179994
  0
VERTEX
  8
0
 10
32.68759301
 20
1805.28074649
  0
VERTEX
  8
0
 10
32.64009314
 20
1797.14088184
  0
VERTEX
  8
0
 10
32.61053028
 20
1789.22989726
  0
VERTEX
  8
0
 10
32.60018886
 20
1781.61548403
  0
VERTEX
  8
0
 10
32.61035329
 20
1774.36533344
  0
VERTEX
  8
0
 10
32.64230800
 20
1767.54713677
  0
VERTEX
  8
0
 10
32.69733744
 20
1761.22858529
  0
VERTEX
  8
0
 10
32.77672603
 20
1755.47737030
  0
VERTEX
  8
0
 10
32.88044383
 20
1750.03264341
  0
VERTEX
  8
0
 10
33.00670469
 20
1744.58842539
  0
VERTEX
  8
0
 10
33.15415871
 20
1739.14471117
  0
VERTEX
  8
0
 10
33.32145595
 20
1733.70149568
  0
VERTEX
  8
0
 10
33.50724652
 20
1728.25877388
  0
VERTEX
  8
0
 10
33.71018049
 20
1722.81654070
  0
VERTEX
  8
0
 10
34.16207897
 20
1711.93351998
  0
VERTEX
  8
0
 10
34.66635208
 20
1701.05239305
  0
VERTEX
  8
0
 10
35.21220051
 20
1690.17311944
  0
VERTEX
  8
0
 10
35.78882493
 20
1679.29565868
  0
VERTEX
  8
0
 10
36.38542603
 20
1668.41997030
  0
VERTEX
  8
0
 10
36.69851318
 20
1662.94855498
  0
VERTEX
  8
0
 10
37.03328920
 20
1657.41351278
  0
VERTEX
  8
0
 10
37.75893314
 20
1646.17887609
  0
VERTEX
  8
0
 10
38.54440844
 20
1634.76871696
  0
VERTEX
  8
0
 10
39.37176568
 20
1623.23569211
  0
VERTEX
  8
0
 10
41.08032840
 20
1600.01167223
  0
VERTEX
  8
0
 10
41.92563505
 20
1588.42599065
  0
VERTEX
  8
0
 10
42.74102603
 20
1576.92807030
  0
VERTEX
  8
0
 10
47.98342603
 20
1495.41837030
  0
VERTEX
  8
0
 10
49.19690374
 20
1479.79050650
  0
VERTEX
  8
0
 10
50.46076032
 20
1464.02915871
  0
VERTEX
  8
0
 10
51.74476845
 20
1448.21441733
  0
VERTEX
  8
0
 10
53.01870080
 20
1432.42637274
  0
VERTEX
  8
0
 10
54.25233006
 20
1416.74511535
  0
VERTEX
  8
0
 10
54.84458499
 20
1408.96956010
  0
VERTEX
  8
0
 10
55.41542890
 20
1401.25073555
  0
VERTEX
  8
0
 10
55.96108337
 20
1393.59865299
  0
VERTEX
  8
0
 10
56.47776999
 20
1386.02332373
  0
VERTEX
  8
0
 10
56.96171035
 20
1378.53475907
  0
VERTEX
  8
0
 10
57.40912603
 20
1371.14297030
  0
VERTEX
  8
0
 10
57.82148430
 20
1363.80213702
  0
VERTEX
  8
0
 10
58.20477600
 20
1356.45986393
  0
VERTEX
  8
0
 10
58.56200801
 20
1349.11629998
  0
VERTEX
  8
0
 10
58.89618722
 20
1341.77159411
  0
VERTEX
  8
0
 10
59.21032051
 20
1334.42589526
  0
VERTEX
  8
0
 10
59.50741477
 20
1327.07935239
  0
VERTEX
  8
0
 10
60.06251375
 20
1312.38433035
  0
VERTEX
  8
0
 10
60.58553927
 20
1297.68771955
  0
VERTEX
  8
0
 10
61.10054642
 20
1282.99071157
  0
VERTEX
  8
0
 10
61.63159031
 20
1268.29449796
  0
VERTEX
  8
0
 10
62.20272603
 20
1253.60027030
  0
SEQEND
  0
POLYLINE
  8
Default Layer
 66
   1
 39
0.000000
 70
    1
  0
VERTEX
  8
0
 10
-255.48836818
 20
1952.19748759
  0
VERTEX
  8
0
 10
-255.48836818
 20
1964.49748759
  0
VERTEX
  8
0
 10
-155.48836818
 20
1964.49748759
  0
VERTEX
  8
0
 10
-155.48836818
 20
1952.19748759
  0
VERTEX
  8
0
 10
-255.48836818
 20
1952.19748759
  0
SEQEND
  0
POLYLINE
  8
Default Layer
 66
   1
 39
0.000000
 70
    1
  0
VERTEX
  8
0
 10
-255.48836818
 20
1599.42062190
  0
VERTEX
  8
0
 10
-255.48836818
 20
1611.72062190
  0
VERTEX
  8
0
 10
-155.48836818
 20
1611.72062190
  0
VERTEX
  8
0
 10
-155.48836818
 20
1599.42062190
  0
VERTEX
  8
0
 10
-255.48836818
 20
1599.42062190
  0
SEQEND
  0
POLYLINE
  8
Default Layer
 66
   1
 39
0.000000
 70
    1
  0
VERTEX
  8
0
 10
-256.13546860
 20
2299.92785315
  0
VERTEX
  8
0
 10
-256.13546860
 20
2312.22785315
  0
VERTEX
  8
0
 10
-156.13546860
 20
2312.22785315
  0
VERTEX
  8
0
 10
-156.13546860
 20
2299.92785315
  0
VERTEX
  8
0
 10
-256.13546860
 20
2299.92785315
  0
SEQEND
  0
POLYLINE
  8
Default Layer
 66
   1
 39
0.000000
 70
    1
  0
VERTEX
  8
0
 10
-211.91282270
 20
1501.43556562
  0
VERTEX
  8
0
 10
-205.19031247
 20
1501.43556562
  0
VERTEX
  8
0
 10
-205.19031247
 20
1524.51387394
  0
VERTEX
  8
0
 10
-181.34965762
 20
1524.51387394
  0
VERTEX
  8
0
 10
-181.34965762
 20
1530.50868977
  0
VERTEX
  8
0
 10
-205.19031247
 20
1530.50868977
  0
VERTEX
  8
0
 10
-205.19031247
 20
1546.24074979
  0
VERTEX
  8
0
 10
-177.64188136
 20
1546.24074979
  0
VERTEX
  8
0
 10
-177.64188136
 20
1552.23556562
  0
VERTEX
  8
0
 10
-211.91282270
 20
1552.23556562
  0
VERTEX
  8
0
 10
-211.91282270
 20
1501.43556562
  0
SEQEND
  0
POLYLINE
  8
Default Layer
 66
   1
 39
0.000000
 70
    1
  0
VERTEX
  8
0
 10
-19.12610065
 20
2367.32737918
  0
VERTEX
  8
0
 10
-31.42610065
 20
2367.32737918
  0
VERTEX
  8
0
 10
-31.42610065
 20
2389.32737918
  0
VERTEX
  8
0
 10
-19.12610065
 20
2389.32737918
  0
VERTEX
  8
0
 10
-19.12610065
 20
2367.32737918
  0
SEQEND
  0
POLYLINE
  8
Default Layer
 66
   1
 39
0.000000
 70
    1
  0
VERTEX
  8
0
 10
-19.17383757
 20
2018.78291313
  0
VERTEX
  8
0
 10
-31.47383757
 20
2018.78291313
  0
VERTEX
  8
0
 10
-31.47383757
 20
2040.78291313
  0
VERTEX
  8
0
 10
-19.17383757
 20
2040.78291313
  0
VERTEX
  8
0
 10
-19.17383757
 20
2018.78291313
  0
SEQEND
  0
POLYLINE
  8
Default Layer
 66
   1
 39
0.000000
 70
    1
  0
VERTEX
  8
0
 10
-18.95304549
 20
1667.29953264
  0
VERTEX
  8
0
 10
-31.25304549
 20
1667.29953264
  0
VERTEX
  8
0
 10
-31.25304549
 20
1689.29953264
  0
VERTEX
  8
0
 10
-18.95304549
 20
1689.29953264
  0
VERTEX
  8
0
 10
-18.95304549
 20
1667.29953264
  0
SEQEND
  0
POLYLINE
  8
Default Layer
 66
   1
 39
0.000000
 70
    1
  0
VERTEX
  8
0
 10
2845.21289186
 20
1551.31541726
  0
VERTEX
  8
0
 10
2845.20008756
 20
2761.00042160
  0
VERTEX
  8
0
 10
2726.22333098
 20
2769.18966942
  0
VERTEX
  8
0
 10
2441.72560113
 20
2769.18966942
  0
VERTEX
  8
0
 10
2441.69394022
 20
2769.15582763
  0
VERTEX
  8
0
 10
2441.64790006
 20
2769.05791924
  0
VERTEX
  8
0
 10
2441.51435812
 20
2768.67588094
  0
VERTEX
  8
0
 10
2441.32832764
 20
2768.05551107
  0
VERTEX
  8
0
 10
2441.09316092
 20
2767.20876616
  0
VERTEX
  8
0
 10
2440.48882805
 20
2764.88397744
  0
VERTEX
  8
0
 10
2439.72817803
 20
2761.79716714
  0
VERTEX
  8
0
 10
2438.83802938
 20
2758.04398760
  0
VERTEX
  8
0
 10
2437.84520062
 20
2753.72009120
  0
VERTEX
  8
0
 10
2436.77651026
 20
2748.92113027
  0
VERTEX
  8
0
 10
2435.65877682
 20
2743.74275718
  0
VERTEX
  8
0
 10
2434.51881883
 20
2738.28062428
  0
VERTEX
  8
0
 10
2433.38345479
 20
2732.63038393
  0
VERTEX
  8
0
 10
2432.27950324
 20
2726.88768848
  0
VERTEX
  8
0
 10
2431.74768792
 20
2724.01156146
  0
VERTEX
  8
0
 10
2431.23378267
 20
2721.14819030
  0
VERTEX
  8
0
 10
2430.74113980
 20
2718.30953154
  0
VERTEX
  8
0
 10
2430.27311163
 20
2715.50754173
  0
VERTEX
  8
0
 10
2429.83305046
 20
2712.75417741
  0
VERTEX
  8
0
 10
2429.42430862
 20
2710.06139512
  0
VERTEX
  8
0
 10
2429.05023841
 20
2707.44115142
  0
VERTEX
  8
0
 10
2428.71419215
 20
2704.90540285
  0
VERTEX
  8
0
 10
2428.41952217
 20
2702.46610595
  0
VERTEX
  8
0
 10
2428.16958076
 20
2700.13521726
  0
VERTEX
  8
0
 10
2427.25039007
 20
2690.81533300
  0
VERTEX
  8
0
 10
2426.31623411
 20
2681.13159598
  0
VERTEX
  8
0
 10
2425.38472097
 20
2671.22549105
  0
VERTEX
  8
0
 10
2424.47345874
 20
2661.23850305
  0
VERTEX
  8
0
 10
2423.60005552
 20
2651.31211683
  0
VERTEX
  8
0
 10
2422.78211939
 20
2641.58781722
  0
VERTEX
  8
0
 10
2422.03725844
 20
2632.20708909
  0
VERTEX
  8
0
 10
2421.38308076
 20
2623.31141726
  0
VERTEX
  8
0
 10
2420.80493083
 20
2614.70374048
  0
VERTEX
  8
0
 10
2420.27340332
 20
2606.09296194
  0
VERTEX
  8
0
 10
2419.78398167
 20
2597.47951312
  0
VERTEX
  8
0
 10
2419.33214928
 20
2588.86382553
  0
VERTEX
  8
0
 10
2418.91338958
 20
2580.24633065
  0
VERTEX
  8
0
 10
2418.52318598
 20
2571.62745998
  0
VERTEX
  8
0
 10
2418.15702190
 20
2563.00764502
  0
VERTEX
  8
0
 10
2417.81038076
 20
2554.38731726
  0
VERTEX
  8
0
 10
2417.62933673
 20
2549.38712475
  0
VERTEX
  8
0
 10
2417.42611905
 20
2543.09601626
  0
VERTEX
  8
0
 10
2416.96233804
 20
2527.17522345
  0
VERTEX
  8
0
 10
2416.43738835
 20
2507.69328308
  0
VERTEX
  8
0
 10
2415.86962057
 20
2485.71853943
  0
VERTEX
  8
0
 10
2414.67903319
 20
2438.56401932
  0
VERTEX
  8
0
 10
2414.09291480
 20
2415.52093140
  0
VERTEX
  8
0
 10
2413.53738076
 20
2394.25841726
  0
VERTEX
  8
0
 10
2413.34595820
 20
2376.36583302
  0
VERTEX
  8
0
 10
2413.13393484
 20
2358.14151610
  0
VERTEX
  8
0
 10
2412.66710189
 20
2321.00389900
  0
VERTEX
  8
0
 10
2412.17491413
 20
2283.45799552
  0
VERTEX
  8
0
 10
2411.69540378
 20
2246.11623524
  0
VERTEX
  8
0
 10
2411.47228770
 20
2227.71329303
  0
VERTEX
  8
0
 10
2411.26660305
 20
2209.59104770
  0
VERTEX
  8
0
 10
2411.08310386
 20
2191.82605295
  0
VERTEX
  8
0
 10
2410.92654416
 20
2174.49486248
  0
VERTEX
  8
0
 10
2410.80167797
 20
2157.67402998
  0
VERTEX
  8
0
 10
2410.71325932
 20
2141.44010915
  0
VERTEX
  8
0
 10
2410.66604225
 20
2125.86965367
  0
VERTEX
  8
0
 10
2410.66478076
 20
2111.03921726
  0
VERTEX
  8
0
 10
2410.70863125
 20
2096.60446224
  0
VERTEX
  8
0
 10
2410.79092916
 20
2082.16999529
  0
VERTEX
  8
0
 10
2410.90769718
 20
2067.73578661
  0
VERTEX
  8
0
 10
2411.05495800
 20
2053.30180640
  0
VERTEX
  8
0
 10
2411.22873428
 20
2038.86802487
  0
VERTEX
  8
0
 10
2411.42504871
 20
2024.43441220
  0
VERTEX
  8
0
 10
2411.63992398
 20
2010.00093860
  0
VERTEX
  8
0
 10
2411.86938275
 20
1995.56757428
  0
VERTEX
  8
0
 10
2412.35614153
 20
1966.70105422
  0
VERTEX
  8
0
 10
2412.85350651
 20
1937.83461364
  0
VERTEX
  8
0
 10
2413.32965911
 20
1908.96801412
  0
VERTEX
  8
0
 10
2413.54983746
 20
1894.53458025
  0
VERTEX
  8
0
 10
2413.75278076
 20
1880.10101726
  0
VERTEX
  8
0
 10
2415.77343256
 20
1551.31541726
  0
VERTEX
  8
0
 10
2845.21289186
 20
1551.31541726
  0
SEQEND
  0
POLYLINE
  8
Default Layer
 66
   1
 39
0.000000
 70
    1
  0
VERTEX
  8
0
 10
2575.24189111
 20
2597.73179641
  0
VERTEX
  8
0
 10
2725.24189111
 20
2597.73179641
  0
VERTEX
  8
0
 10
2725.24189111
 20
2610.03179641
  0
VERTEX
  8
0
 10
2575.24189111
 20
2610.03179641
  0
VERTEX
  8
0
 10
2575.24189111
 20
2597.73179641
  0
SEQEND
  0
POLYLINE
  8
Default Layer
 66
   1
 39
0.000000
 70
    1
  0
VERTEX
  8
0
 10
2575.24189111
 20
1897.15042044
  0
VERTEX
  8
0
 10
2725.24189111
 20
1897.15042044
  0
VERTEX
  8
0
 10
2725.24189111
 20
1909.45042044
  0
VERTEX
  8
0
 10
2575.24189111
 20
1909.45042044
  0
VERTEX
  8
0
 10
2575.24189111
 20
1897.15042044
  0
SEQEND
  0
POLYLINE
  8
Default Layer
 66
   1
 39
0.000000
 70
    1
  0
VERTEX
  8
0
 10
2575.24189111
 20
2248.65876554
  0
VERTEX
  8
0
 10
2725.24189111
 20
2248.65876554
  0
VERTEX
  8
0
 10
2725.24189111
 20
2260.95876554
  0
VERTEX
  8
0
 10
2575.24189111
 20
2260.95876554
  0
VERTEX
  8
0
 10
2575.24189111
 20
2248.65876554
  0
SEQEND
  0
POLYLINE
  8
Default Layer
 66
   1
 39
0.000000
 70
    1
  0
VERTEX
  8
0
 10
2542.68191984
 20
1808.24553929
  0
VERTEX
  8
0
 10
2542.68191984
 20
1859.04553929
  0
VERTEX
  8
0
 10
2565.20579433
 20
1859.04553929
  0
VERTEX
  8
0
 10
2566.85285265
 20
1859.02388172
  0
VERTEX
  8
0
 10
2568.39812038
 20
1858.95890901
  0
VERTEX
  8
0
 10
2569.84159753
 20
1858.85062115
  0
VERTEX
  8
0
 10
2571.18328410
 20
1858.69901815
  0
VERTEX
  8
0
 10
2572.42318007
 20
1858.50410000
  0
VERTEX
  8
0
 10
2573.00495659
 20
1858.39039775
  0
VERTEX
  8
0
 10
2573.56128546
 20
1858.26586671
  0
VERTEX
  8
0
 10
2574.09216668
 20
1858.13050689
  0
VERTEX
  8
0
 10
2574.59760026
 20
1857.98431828
  0
VERTEX
  8
0
 10
2575.07758619
 20
1857.82730089
  0
VERTEX
  8
0
 10
2575.53212448
 20
1857.65945471
  0
VERTEX
  8
0
 10
2575.96838919
 20
1857.48226870
  0
VERTEX
  8
0
 10
2576.39355439
 20
1857.28856879
  0
VERTEX
  8
0
 10
2576.80762009
 20
1857.07835499
  0
VERTEX
  8
0
 10
2577.21058628
 20
1856.85162729
  0
VERTEX
  8
0
 10
2577.60245296
 20
1856.60838569
  0
VERTEX
  8
0
 10
2577.98322015
 20
1856.34863019
  0
VERTEX
  8
0
 10
2578.35288782
 20
1856.07236079
  0
VERTEX
  8
0
 10
2578.71145599
 20
1855.77957749
  0
VERTEX
  8
0
 10
2579.05892466
 20
1855.47028030
  0
VERTEX
  8
0
 10
2579.39529382
 20
1855.14446920
  0
VERTEX
  8
0
 10
2579.72056347
 20
1854.80214421
  0
VERTEX
  8
0
 10
2580.03473362
 20
1854.44330532
  0
VERTEX
  8
0
 10
2580.33780426
 20
1854.06795253
  0
VERTEX
  8
0
 10
2580.62977540
 20
1853.67608585
  0
VERTEX
  8
0
 10
2580.91064703
 20
1853.26770526
  0
VERTEX
  8
0
 10
2581.18041916
 20
1852.84281078
  0
VERTEX
  8
0
 10
2581.43638458
 20
1852.40681679
  0
VERTEX
  8
0
 10
2581.67583611
 20
1851.96513769
  0
VERTEX
  8
0
 10
2581.89877374
 20
1851.51777348
  0
VERTEX
  8
0
 10
2582.10519747
 20
1851.06472415
  0
VERTEX
  8
0
 10
2582.29510730
 20
1850.60598971
  0
VERTEX
  8
0
 10
2582.46850323
 20
1850.14157016
  0
VERTEX
  8
0
 10
2582.62538526
 20
1849.67146549
  0
VERTEX
  8
0
 10
2582.76575340
 20
1849.19567572
  0
VERTEX
  8
0
 10
2582.88960764
 20
1848.71420083
  0
VERTEX
  8
0
 10
2582.99694798
 20
1848.22704083
  0
VERTEX
  8
0
 10
2583.08777442
 20
1847.73419571
  0
VERTEX
  8
0
 10
2583.16208696
 20
1847.23566549
  0
VERTEX
  8
0
 10
2583.21988560
 20
1846.73145015
  0
VERTEX
  8
0
 10
2583.26117035
 20
1846.22154969
  0
VERTEX
  8
0
 10
2583.28594120
 20
1845.70596413
  0
VERTEX
  8
0
 10
2583.29419815
 20
1845.18469345
  0
VERTEX
  8
0
 10
2583.28052681
 20
1844.51560985
  0
VERTEX
  8
0
 10
2583.23951278
 20
1843.85979151
  0
VERTEX
  8
0
 10
2583.17115607
 20
1843.21723843
  0
VERTEX
  8
0
 10
2583.07545667
 20
1842.58795062
  0
VERTEX
  8
0
 10
2582.95241459
 20
1841.97192806
  0
VERTEX
  8
0
 10
2582.80202983
 20
1841.36917077
  0
VERTEX
  8
0
 10
2582.62430238
 20
1840.77967874
  0
VERTEX
  8
0
 10
2582.41923225
 20
1840.20345198
  0
VERTEX
  8
0
 10
2582.18681944
 20
1839.64049048
  0
VERTEX
  8
0
 10
2581.92706394
 20
1839.09079424
  0
VERTEX
  8
0
 10
2581.63996575
 20
1838.55436326
  0
VERTEX
  8
0
 10
2581.32552489
 20
1838.03119755
  0
VERTEX
  8
0
 10
2580.98374133
 20
1837.52129709
  0
VERTEX
  8
0
 10
2580.61461510
 20
1837.02466190
  0
VERTEX
  8
0
 10
2580.21814618
 20
1836.54129198
  0
VERTEX
  8
0
 10
2579.79433457
 20
1836.07118731
  0
VERTEX
  8
0
 10
2579.34196205
 20
1835.61827335
  0
VERTEX
  8
0
 10
2578.85981036
 20
1835.18647551
  0
VERTEX
  8
0
 10
2578.34787951
 20
1834.77579381
  0
VERTEX
  8
0
 10
2577.80616950
 20
1834.38622824
  0
VERTEX
  8
0
 10
2577.23468033
 20
1834.01777880
  0
VERTEX
  8
0
 10
2576.63341199
 20
1833.67044550
  0
VERTEX
  8
0
 10
2576.00236450
 20
1833.34422833
  0
VERTEX
  8
0
 10
2575.34153785
 20
1833.03912729
  0
VERTEX
  8
0
 10
2574.65093203
 20
1832.75514238
  0
VERTEX
  8
0
 10
2573.93054706
 20
1832.49227360
  0
VERTEX
  8
0
 10
2573.18038292
 20
1832.25052096
  0
VERTEX
  8
0
 10
2572.40043962
 20
1832.02988445
  0
VERTEX
  8
0
 10
2571.59071716
 20
1831.83036407
  0
VERTEX
  8
0
 10
2570.75121554
 20
1831.65195982
  0
VERTEX
  8
0
 10
2569.88193476
 20
1831.49467171
  0
VERTEX
  8
0
 10
2568.98287482
 20
1831.35849973
  0
VERTEX
  8
0
 10
2569.62989477
 20
1831.03850911
  0
VERTEX
  8
0
 10
2570.23684822
 20
1830.71960137
  0
VERTEX
  8
0
 10
2570.80373515
 20
1830.40177650
  0
VERTEX
  8
0
 10
2571.33055558
 20
1830.08503452
  0
VERTEX
  8
0
 10
2571.81730950
 20
1829.76937541
  0
VERTEX
  8
0
 10
2572.26399692
 20
1829.45479918
  0
VERTEX
  8
0
 10
2572.67061783
 20
1829.14130583
  0
VERTEX
  8
0
 10
2573.03717223
 20
1828.82889536
  0
VERTEX
  8
0
 10
2573.76865671
 20
1828.13206300
  0
VERTEX
  8
0
 10
2574.49039528
 20
1827.39299836
  0
VERTEX
  8
0
 10
2575.20238795
 20
1826.61170147
  0
VERTEX
  8
0
 10
2575.90463471
 20
1825.78817231
  0
VERTEX
  8
0
 10
2576.59713556
 20
1824.92241088
  0
VERTEX
  8
0
 10
2577.27989051
 20
1824.01441719
  0
VERTEX
  8
0
 10
2577.95289955
 20
1823.06419124
  0
VERTEX
  8
0
 10
2578.61616268
 20
1822.07173302
  0
VERTEX
  8
0
 10
2587.45245190
 20
1808.24553929
  0
VERTEX
  8
0
 10
2578.99733594
 20
1808.24553929
  0
VERTEX
  8
0
 10
2572.27482571
 20
1818.81443424
  0
VERTEX
  8
0
 10
2570.86708355
 20
1820.96719686
  0
VERTEX
  8
0
 10
2569.58928682
 20
1822.85140559
  0
VERTEX
  8
0
 10
2568.44143553
 20
1824.46706044
  0
VERTEX
  8
0
 10
2567.42352966
 20
1825.81416139
  0
VERTEX
  8
0
 10
2566.95301892
 20
1826.39783295
  0
VERTEX
  8
0
 10
2566.49441984
 20
1826.93602360
  0
VERTEX
  8
0
 10
2566.04773242
 20
1827.42873336
  0
VERTEX
  8
0
 10
2565.61295667
 20
1827.87596221
  0
VERTEX
  8
0
 10
2565.19009259
 20
1828.27771017
  0
VERTEX
  8
0
 10
2564.77914017
 20
1828.63397722
  0
VERTEX
  8
0
 10
2564.38009941
 20
1828.94476337
  0
VERTEX
  8
0
 10
2563.99297032
 20
1829.21006862
  0
VERTEX
  8
0
 10
2563.61937721
 20
1829.44342896
  0
VERTEX
  8
0
 10
2563.24361834
 20
1829.65838036
  0
VERTEX
  8
0
 10
2562.86569371
 20
1829.85492282
  0
VERTEX
  8
0
 10
2562.48560333
 20
1830.03305635
  0
VERTEX
  8
0
 10
2562.10334719
 20
1830.19278094
  0
VERTEX
  8
0
 10
2561.71892530
 20
1830.33409659
  0
VERTEX
  8
0
 10
2561.33233764
 20
1830.45700331
  0
VERTEX
  8
0
 10
2560.94358423
 20
1830.56150109
  0
VERTEX
  8
0
 10
2560.28086254
 20
1830.66762319
  0
VERTEX
  8
0
 10
2559.43621725
 20
1830.74342469
  0
VERTEX
  8
0
 10
2558.40964835
 20
1830.78890559
  0
VERTEX
  8
0
 10
2557.20115586
 20
1830.80406590
  0
VERTEX
  8
0
 10
2549.40443007
 20
1830.80406590
  0
VERTEX
  8
0
 10
2549.40443007
 20
1808.24553929
  0
VERTEX
  8
0
 10
2542.68191984
 20
1808.24553929
  0
SEQEND
  0
POLYLINE
  8
Default Layer
 66
   1
 39
0.000000
 70
    1
  0
VERTEX
  8
0
 10
2549.40443007
 20
1836.62562115
  0
VERTEX
  8
0
 10
2563.85436186
 20
1836.62562115
  0
VERTEX
  8
0
 10
2564.97514119
 20
1836.64024001
  0
VERTEX
  8
0
 10
2566.03311356
 20
1836.68409659
  0
VERTEX
  8
0
 10
2567.02827898
 20
1836.75719090
  0
VERTEX
  8
0
 10
2567.96063744
 20
1836.85952292
  0
VERTEX
  8
0
 10
2568.83018894
 20
1836.99109267
  0
VERTEX
  8
0
 10
2569.63693348
 20
1837.15190014
  0
VERTEX
  8
0
 10
2570.38087107
 20
1837.34194533
  0
VERTEX
  8
0
 10
2571.06200169
 20
1837.56122824
  0
VERTEX
  8
0
 10
2571.69223703
 20
1837.82111910
  0
VERTEX
  8
0
 10
2572.28348873
 20
1838.11566208
  0
VERTEX
  8
0
 10
2572.83575681
 20
1838.44485716
  0
VERTEX
  8
0
 10
2573.34904126
 20
1838.80870437
  0
VERTEX
  8
0
 10
2573.82334208
 20
1839.20720368
  0
VERTEX
  8
0
 10
2574.25865927
 20
1839.64035512
  0
VERTEX
  8
0
 10
2574.65499283
 20
1840.10815866
  0
VERTEX
  8
0
 10
2575.01234276
 20
1840.61061433
  0
VERTEX
  8
0
 10
2575.32908474
 20
1841.14447347
  0
VERTEX
  8
0
 10
2575.60359446
 20
1841.68916139
  0
VERTEX
  8
0
 10
2575.83587192
 20
1842.24467811
  0
VERTEX
  8
0
 10
2576.02591711
 20
1842.81102360
  0
VERTEX
  8
0
 10
2576.17373004
 20
1843.38819789
  0
VERTEX
  8
0
 10
2576.27931070
 20
1843.97620096
  0
VERTEX
  8
0
 10
2576.34265910
 20
1844.57503281
  0
VERTEX
  8
0
 10
2576.36377523
 20
1845.18469345
  0
VERTEX
  8
0
 10
2576.35348788
 20
1845.63016263
  0
VERTEX
  8
0
 10
2576.32262584
 20
1846.06561518
  0
VERTEX
  8
0
 10
2576.27118911
 20
1846.49105110
  0
VERTEX
  8
0
 10
2576.19917768
 20
1846.90647040
  0
VERTEX
  8
0
 10
2576.10659156
 20
1847.31187307
  0
VERTEX
  8
0
 10
2575.99343075
 20
1847.70725911
  0
VERTEX
  8
0
 10
2575.85969525
 20
1848.09262852
  0
VERTEX
  8
0
 10
2575.70538505
 20
1848.46798131
  0
VERTEX
  8
0
 10
2575.53050016
 20
1848.83331747
  0
VERTEX
  8
0
 10
2575.33504058
 20
1849.18863701
  0
VERTEX
  8
0
 10
2575.11900630
 20
1849.53393991
  0
VERTEX
  8
0
 10
2574.88239733
 20
1849.86922620
  0
VERTEX
  8
0
 10
2574.62521367
 20
1850.19449585
  0
VERTEX
  8
0
 10
2574.34745531
 20
1850.50974888
  0
VERTEX
  8
0
 10
2574.04912226
 20
1850.81498528
  0
VERTEX
  8
0
 10
2573.73021452
 20
1851.11020505
  0
VERTEX
  8
0
 10
2573.39343928
 20
1851.39134740
  0
VERTEX
  8
0
 10
2573.03284071
 20
1851.65435154
  0
VERTEX
  8
0
 10
2572.64841882
 20
1851.89921746
  0
VERTEX
  8
0
 10
2572.24017359
 20
1852.12594516
  0
VERTEX
  8
0
 10
2571.80810504
 20
1852.33453465
  0
VERTEX
  8
0
 10
2571.35221315
 20
1852.52498592
  0
VERTEX
  8
0
 10
2570.87249794
 20
1852.69729897
  0
VERTEX
  8
0
 10
2570.36895940
 20
1852.85147381
  0
VERTEX
  8
0
 10
2569.84159753
 20
1852.98751043
  0
VERTEX
  8
0
 10
2569.29041234
 20
1853.10540884
  0
VERTEX
  8
0
 10
2568.71540381
 20
1853.20516902
  0
VERTEX
  8
0
 10
2568.11657195
 20
1853.28679100
  0
VERTEX
  8
0
 10
2567.49391677
 20
1853.35027475
  0
VERTEX
  8
0
 10
2566.84743826
 20
1853.39562029
  0
VERTEX
  8
0
 10
2566.17713641
 20
1853.42282762
  0
VERTEX
  8
0
 10
2565.48301124
 20
1853.43189673
  0
VERTEX
  8
0
 10
2549.40443007
 20
1853.43189673
  0
VERTEX
  8
0
 10
2549.40443007
 20
1836.62562115
  0
SEQEND
  0
POLYLINE
  8
Default Layer
 66
   1
 39
0.000000
 70
    1
  0
VERTEX
  8
0
 10
2501.18304455
 20
1965.03257960
  0
VERTEX
  8
0
 10
2501.18304455
 20
1987.03257960
  0
VERTEX
  8
0
 10
2488.88304455
 20
1987.03257960
  0
VERTEX
  8
0
 10
2488.88304455
 20
1965.03257960
  0
VERTEX
  8
0
 10
2501.18304455
 20
1965.03257960
  0
SEQEND
  0
POLYLINE
  8
Default Layer
 66
   1
 39
0.000000
 70
    1
  0
VERTEX
  8
0
 10
2501.04314003
 20
2316.51596008
  0
VERTEX
  8
0
 10
2501.04314003
 20
2338.51596008
  0
VERTEX
  8
0
 10
2488.74314003
 20
2338.51596008
  0
VERTEX
  8
0
 10
2488.74314003
 20
2316.51596008
  0
VERTEX
  8
0
 10
2501.04314003
 20
2316.51596008
  0
SEQEND
  0
POLYLINE
  8
Default Layer
 66
   1
 39
0.000000
 70
    1
  0
VERTEX
  8
0
 10
2501.09087694
 20
2665.06042614
  0
VERTEX
  8
0
 10
2501.09087694
 20
2687.06042614
  0
VERTEX
  8
0
 10
2488.79087694
 20
2687.06042614
  0
VERTEX
  8
0
 10
2488.79087694
 20
2665.06042614
  0
VERTEX
  8
0
 10
2501.09087694
 20
2665.06042614
  0
SEQEND
  0
POLYLINE
  8
Default Layer
 66
   1
 39
0.000000
 70
    1
  0
VERTEX
  8
0
 10
274.77053845
 20
918.05105556
  0
VERTEX
  8
0
 10
2202.77053845
 20
918.05105556
  0
VERTEX
  8
0
 10
2202.77053845
 20
978.05105556
  0
VERTEX
  8
0
 10
274.77053845
 20
978.05105556
  0
VERTEX
  8
0
 10
274.77053845
 20
918.05105556
  0
SEQEND
  0
POLYLINE
  8
Default Layer
 66
   1
 39
0.000000
 70
    1
  0
VERTEX
  8
0
 10
274.77053845
 20
986.15105556
  0
VERTEX
  8
0
 10
2202.77053845
 20
986.15105556
  0
VERTEX
  8
0
 10
2202.77053845
 20
1046.15105556
  0
VERTEX
  8
0
 10
274.77053845
 20
1046.15105556
  0
VERTEX
  8
0
 10
274.77053845
 20
986.15105556
  0
SEQEND
  0
POLYLINE
  8
Default Layer
 66
   1
 39
0.000000
 70
    1
  0
VERTEX
  8
0
 10
274.77053845
 20
1054.25105556
  0
VERTEX
  8
0
 10
2202.77053845
 20
1054.25105556
  0
VERTEX
  8
0
 10
2202.77053845
 20
1114.25105556
  0
VERTEX
  8
0
 10
274.77053845
 20
1114.25105556
  0
VERTEX
  8
0
 10
274.77053845
 20
1054.25105556
  0
SEQEND
  0
POLYLINE
  8
Default Layer
 66
   1
 39
0.000000
 70
    1
  0
VERTEX
  8
0
 10
2063.38737185
 20
1479.96331066
  0
VERTEX
  8
0
 10
159.16664132
 20
1479.97206145
  0
VERTEX
  8
0
 10
159.16668569
 20
1602.00441129
  0
VERTEX
  8
0
 10
147.17346510
 20
1602.00441129
  0
VERTEX
  8
0
 10
147.17346510
 20
1700.00441129
  0
VERTEX
  8
0
 10
159.16672873
 20
1700.00441129
  0
VERTEX
  8
0
 10
159.16679802
 20
1825.08028987
  0
VERTEX
  8
0
 10
2063.32290934
 20
1825.00847169
  0
VERTEX
  8
0
 10
2063.34391124
 20
1748.71086908
  0
VERTEX
  8
0
 10
2075.39145822
 20
1748.71086908
  0
VERTEX
  8
0
 10
2075.39145822
 20
1600.71086908
  0
VERTEX
  8
0
 10
2063.36974211
 20
1600.71086908
  0
VERTEX
  8
0
 10
2063.38737185
 20
1479.96331066
  0
SEQEND
  0
POLYLINE
  8
Default Layer
 66
   1
 39
0.000000
 70
    1
  0
VERTEX
  8
0
 10
2063.38737185
 20
1833.18028987
  0
VERTEX
  8
0
 10
159.16664132
 20
1833.18904066
  0
VERTEX
  8
0
 10
159.16668569
 20
1955.22139050
  0
VERTEX
  8
0
 10
147.17346510
 20
1955.22139050
  0
VERTEX
  8
0
 10
147.17346510
 20
2053.22139050
  0
VERTEX
  8
0
 10
159.16672873
 20
2053.22139050
  0
VERTEX
  8
0
 10
159.16679802
 20
2178.29726907
  0
VERTEX
  8
0
 10
2063.32290934
 20
2178.22545089
  0
VERTEX
  8
0
 10
2063.34391124
 20
2101.92784829
  0
VERTEX
  8
0
 10
2075.39145822
 20
2101.92784829
  0
VERTEX
  8
0
 10
2075.39145822
 20
1953.92784829
  0
VERTEX
  8
0
 10
2063.36974211
 20
1953.92784829
  0
VERTEX
  8
0
 10
2063.38737185
 20
1833.18028987
  0
SEQEND
  0
POLYLINE
  8
Default Layer
 66
   1
 39
0.000000
 70
    1
  0
VERTEX
  8
0
 10
2063.38737185
 20
2186.39726907
  0
VERTEX
  8
0
 10
159.16664132
 20
2186.40601986
  0
VERTEX
  8
0
 10
159.16668569
 20
2308.43836971
  0
VERTEX
  8
0
 10
147.17346510
 20
2308.43836971
  0
VERTEX
  8
0
 10
147.17346510
 20
2406.43836971
  0
VERTEX
  8
0
 10
159.16672873
 20
2406.43836971
  0
VERTEX
  8
0
 10
159.16679802
 20
2531.51424828
  0
VERTEX
  8
0
 10
2063.32290934
 20
2531.44243010
  0
VERTEX
  8
0
 10
2063.34391124
 20
2455.14482749
  0
VERTEX
  8
0
 10
2075.39145822
 20
2455.14482749
  0
VERTEX
  8
0
 10
2075.39145822
 20
2307.14482749
  0
VERTEX
  8
0
 10
2063.36974211
 20
2307.14482749
  0
VERTEX
  8
0
 10
2063.38737185
 20
2186.39726907
  0
SEQEND
  0
POLYLINE
  8
Default Layer
 66
   1
 39
0.000000
 70
    0
  0
VERTEX
  8
0
 10
496.02630835
 20
3116.16209335
  0
VERTEX
  8
0
 10
534.12630835
 20
3116.16209335
  0
VERTEX
  8
0
 10
546.82630835
 20
3128.86209335
  0
VERTEX
  8
0
 10
546.82630835
 20
3141.56209335
  0
VERTEX
  8
0
 10
534.12630835
 20
3154.26209335
  0
VERTEX
  8
0
 10
508.72630835
 20
3154.26209335
  0
SEQEND
  0
POLYLINE
  8
Default Layer
 66
   1
 39
0.000000
 70
    0
  0
VERTEX
  8
0
 10
534.12630835
 20
3154.26209335
  0
VERTEX
  8
0
 10
546.82630835
 20
3166.96209335
  0
VERTEX
  8
0
 10
546.82630835
 20
3179.66209335
  0
VERTEX
  8
0
 10
534.12630835
 20
3192.36209335
  0
VERTEX
  8
0
 10
496.02630835
 20
3192.36209335
  0
SEQEND
  0
POLYLINE
  8
Default Layer
 66
   1
 39
0.000000
 70
    0
  0
VERTEX
  8
0
 10
508.72630835
 20
3192.36209335
  0
VERTEX
  8
0
 10
508.72630835
 20
3116.16209335
  0
SEQEND
  0
POLYLINE
  8
Default Layer
 66
   1
 39
0.000000
 70
    0
  0
VERTEX
  8
0
 10
572.22630835
 20
3116.16209335
  0
VERTEX
  8
0
 10
572.22630835
 20
3141.56209335
  0
VERTEX
  8
0
 10
597.62630835
 20
3192.36209335
  0
VERTEX
  8
0
 10
623.02630835
 20
3141.56209335
  0
VERTEX
  8
0
 10
623.02630835
 20
3116.16209335
  0
SEQEND
  0
POLYLINE
  8
Default Layer
 66
   1
 39
0.000000
 70
    0
  0
VERTEX
  8
0
 10
572.22630835
 20
3141.56209335
  0
VERTEX
  8
0
 10
623.02630835
 20
3141.56209335
  0
SEQEND
  0
POLYLINE
  8
Default Layer
 66
   1
 39
0.000000
 70
    0
  0
VERTEX
  8
0
 10
699.22630835
 20
3128.86209335
  0
VERTEX
  8
0
 10
686.52630835
 20
3116.16209335
  0
VERTEX
  8
0
 10
661.12630835
 20
3116.16209335
  0
VERTEX
  8
0
 10
648.42630835
 20
3128.86209335
  0
VERTEX
  8
0
 10
648.42630835
 20
3179.66209335
  0
VERTEX
  8
0
 10
661.12630835
 20
3192.36209335
  0
VERTEX
  8
0
 10
686.52630835
 20
3192.36209335
  0
VERTEX
  8
0
 10
699.22630835
 20
3179.66209335
  0
SEQEND
  0
POLYLINE
  8
Default Layer
 66
   1
 39
0.000000
 70
    0
  0
VERTEX
  8
0
 10
724.62630835
 20
3116.16209335
  0
VERTEX
  8
0
 10
724.62630835
 20
3192.36209335
  0
SEQEND
  0
POLYLINE
  8
Default Layer
 66
   1
 39
0.000000
 70
    0
  0
VERTEX
  8
0
 10
775.42630835
 20
3192.36209335
  0
VERTEX
  8
0
 10
737.32630835
 20
3154.26209335
  0
VERTEX
  8
0
 10
724.62630835
 20
3154.26209335
  0
SEQEND
  0
POLYLINE
  8
Default Layer
 66
   1
 39
0.000000
 70
    0
  0
VERTEX
  8
0
 10
737.32630835
 20
3154.26209335
  0
VERTEX
  8
0
 10
775.42630835
 20
3116.16209335
  0
SEQEND
  0
POLYLINE
  8
Default Layer
 66
   1
 39
0.000000
 70
    0
  0
VERTEX
  8
0
 10
877.02630835
 20
3116.16209335
  0
VERTEX
  8
0
 10
877.02630835
 20
3192.36209335
  0
VERTEX
  8
0
 10
915.12630835
 20
3192.36209335
  0
VERTEX
  8
0
 10
927.82630835
 20
3179.66209335
  0
VERTEX
  8
0
 10
927.82630835
 20
3166.96209335
  0
VERTEX
  8
0
 10
915.12630835
 20
3154.26209335
  0
VERTEX
  8
0
 10
877.02630835
 20
3154.26209335
  0
SEQEND
  0
POLYLINE
  8
Default Layer
 66
   1
 39
0.000000
 70
    0
  0
VERTEX
  8
0
 10
889.72630835
 20
3154.26209335
  0
VERTEX
  8
0
 10
927.82630835
 20
3116.16209335
  0
SEQEND
  0
POLYLINE
  8
Default Layer
 66
   1
 39
0.000000
 70
    0
  0
VERTEX
  8
0
 10
953.22630835
 20
3116.16209335
  0
VERTEX
  8
0
 10
953.22630835
 20
3192.36209335
  0
VERTEX
  8
0
 10
1004.02630835
 20
3192.36209335
  0
SEQEND
  0
POLYLINE
  8
Default Layer
 66
   1
 39
0.000000
 70
    0
  0
VERTEX
  8
0
 10
953.22630835
 20
3154.26209335
  0
VERTEX
  8
0
 10
978.62630835
 20
3154.26209335
  0
SEQEND
  0
POLYLINE
  8
Default Layer
 66
   1
 39
0.000000
 70
    0
  0
VERTEX
  8
0
 10
953.22630835
 20
3116.16209335
  0
VERTEX
  8
0
 10
1004.02630835
 20
3116.16209335
  0
SEQEND
  0
POLYLINE
  8
Default Layer
 66
   1
 39
0.000000
 70
    0
  0
VERTEX
  8
0
 10
1029.42630835
 20
3192.36209335
  0
VERTEX
  8
0
 10
1080.22630835
 20
3192.36209335
  0
SEQEND
  0
POLYLINE
  8
Default Layer
 66
   1
 39
0.000000
 70
    0
  0
VERTEX
  8
0
 10
1054.82630835
 20
3192.36209335
  0
VERTEX
  8
0
 10
1054.82630835
 20
3116.16209335
  0
SEQEND
  0
POLYLINE
  8
Default Layer
 66
   1
 39
0.000000
 70
    0
  0
VERTEX
  8
0
 10
1105.62630835
 20
3116.16209335
  0
VERTEX
  8
0
 10
1105.62630835
 20
3141.56209335
  0
VERTEX
  8
0
 10
1131.02630835
 20
3192.36209335
  0
VERTEX
  8
0
 10
1156.42630835
 20
3141.56209335
  0
VERTEX
  8
0
 10
1156.42630835
 20
3116.16209335
  0
SEQEND
  0
POLYLINE
  8
Default Layer
 66
   1
 39
0.000000
 70
    0
  0
VERTEX
  8
0
 10
1105.62630835
 20
3141.56209335
  0
VERTEX
  8
0
 10
1156.42630835
 20
3141.56209335
  0
SEQEND
  0
POLYLINE
  8
Default Layer
 66
   1
 39
0.000000
 70
    0
  0
VERTEX
  8
0
 10
1181.82630835
 20
3192.36209335
  0
VERTEX
  8
0
 10
1207.22630835
 20
3192.36209335
  0
SEQEND
  0
POLYLINE
  8
Default Layer
 66
   1
 39
0.000000
 70
    0
  0
VERTEX
  8
0
 10
1194.52630835
 20
3192.36209335
  0
VERTEX
  8
0
 10
1194.52630835
 20
3116.16209335
  0
SEQEND
  0
POLYLINE
  8
Default Layer
 66
   1
 39
0.000000
 70
    0
  0
VERTEX
  8
0
 10
1181.82630835
 20
3116.16209335
  0
VERTEX
  8
0
 10
1207.22630835
 20
3116.16209335
  0
SEQEND
  0
POLYLINE
  8
Default Layer
 66
   1
 39
0.000000
 70
    0
  0
VERTEX
  8
0
 10
1232.62630835
 20
3116.16209335
  0
VERTEX
  8
0
 10
1232.62630835
 20
3192.36209335
  0
VERTEX
  8
0
 10
1283.42630835
 20
3116.16209335
  0
VERTEX
  8
0
 10
1283.42630835
 20
3192.36209335
  0
SEQEND
  0
POLYLINE
  8
Default Layer
 66
   1
 39
0.000000
 70
    0
  0
VERTEX
  8
0
 10
1308.82630835
 20
3116.16209335
  0
VERTEX
  8
0
 10
1308.82630835
 20
3192.36209335
  0
VERTEX
  8
0
 10
1359.62630835
 20
3192.36209335
  0
SEQEND
  0
POLYLINE
  8
Default Layer
 66
   1
 39
0.000000
 70
    0
  0
VERTEX
  8
0
 10
1308.82630835
 20
3154.26209335
  0
VERTEX
  8
0
 10
1334.22630835
 20
3154.26209335
  0
SEQEND
  0
POLYLINE
  8
Default Layer
 66
   1
 39
0.000000
 70
    0
  0
VERTEX
  8
0
 10
1308.82630835
 20
3116.16209335
  0
VERTEX
  8
0
 10
1359.62630835
 20
3116.16209335
  0
SEQEND
  0
POLYLINE
  8
Default Layer
 66
   1
 39
0.000000
 70
    0
  0
VERTEX
  8
0
 10
1385.02630835
 20
3116.16209335
  0
VERTEX
  8
0
 10
1385.02630835
 20
3192.36209335
  0
VERTEX
  8
0
 10
1423.12630835
 20
3192.36209335
  0
VERTEX
  8
0
 10
1435.82630835
 20
3179.66209335
  0
VERTEX
  8
0
 10
1435.82630835
 20
3166.96209335
  0
VERTEX
  8
0
 10
1423.12630835
 20
3154.26209335
  0
VERTEX
  8
0
 10
1385.02630835
 20
3154.26209335
  0
SEQEND
  0
POLYLINE
  8
Default Layer
 66
   1
 39
0.000000
 70
    0
  0
VERTEX
  8
0
 10
1397.72630835
 20
3154.26209335
  0
VERTEX
  8
0
 10
1435.82630835
 20
3116.16209335
  0
SEQEND
  0
POLYLINE
  8
Default Layer
 66
   1
 39
0.000000
 70
    0
  0
VERTEX
  8
0
 10
781.38189533
 20
785.14851485
  0
VERTEX
  8
0
 10
781.38189533
 20
861.34851485
  0
VERTEX
  8
0
 10
832.18189533
 20
861.34851485
  0
SEQEND
  0
POLYLINE
  8
Default Layer
 66
   1
 39
0.000000
 70
    0
  0
VERTEX
  8
0
 10
781.38189533
 20
823.24851485
  0
VERTEX
  8
0
 10
806.78189533
 20
823.24851485
  0
SEQEND
  0
POLYLINE
  8
Default Layer
 66
   1
 39
0.000000
 70
    0
  0
VERTEX
  8
0
 10
857.58189533
 20
785.14851485
  0
VERTEX
  8
0
 10
857.58189533
 20
861.34851485
  0
VERTEX
  8
0
 10
895.68189533
 20
861.34851485
  0
VERTEX
  8
0
 10
908.38189533
 20
848.64851485
  0
VERTEX
  8
0
 10
908.38189533
 20
835.94851485
  0
VERTEX
  8
0
 10
895.68189533
 20
823.24851485
  0
VERTEX
  8
0
 10
857.58189533
 20
823.24851485
  0
SEQEND
  0
POLYLINE
  8
Default Layer
 66
   1
 39
0.000000
 70
    0
  0
VERTEX
  8
0
 10
870.28189533
 20
823.24851485
  0
VERTEX
  8
0
 10
908.38189533
 20
785.14851485
  0
SEQEND
  0
POLYLINE
  8
Default Layer
 66
   1
 39
0.000000
 70
    1
  0
VERTEX
  8
0
 10
933.78189533
 20
785.14851485
  0
VERTEX
  8
0
 10
933.78189533
 20
861.34851485
  0
VERTEX
  8
0
 10
984.58189533
 20
861.34851485
  0
VERTEX
  8
0
 10
984.58189533
 20
785.14851485
  0
VERTEX
  8
0
 10
933.78189533
 20
785.14851485
  0
SEQEND
  0
POLYLINE
  8
Default Layer
 66
   1
 39
0.000000
 70
    0
  0
VERTEX
  8
0
 10
1009.98189533
 20
785.14851485
  0
VERTEX
  8
0
 10
1009.98189533
 20
861.34851485
  0
VERTEX
  8
0
 10
1060.78189533
 20
785.14851485
  0
VERTEX
  8
0
 10
1060.78189533
 20
861.34851485
  0
SEQEND
  0
POLYLINE
  8
Default Layer
 66
   1
 39
0.000000
 70
    0
  0
VERTEX
  8
0
 10
1086.18189533
 20
861.34851485
  0
VERTEX
  8
0
 10
1136.98189533
 20
861.34851485
  0
SEQEND
  0
POLYLINE
  8
Default Layer
 66
   1
 39
0.000000
 70
    0
  0
VERTEX
  8
0
 10
1111.58189533
 20
861.34851485
  0
VERTEX
  8
0
 10
1111.58189533
 20
785.14851485
  0
SEQEND
  0
POLYLINE
  8
Default Layer
 66
   1
 39
0.000000
 70
    0
  0
VERTEX
  8
0
 10
1238.58189533
 20
785.14851485
  0
VERTEX
  8
0
 10
1238.58189533
 20
861.34851485
  0
VERTEX
  8
0
 10
1276.68189533
 20
861.34851485
  0
VERTEX
  8
0
 10
1289.38189533
 20
848.64851485
  0
VERTEX
  8
0
 10
1289.38189533
 20
835.94851485
  0
VERTEX
  8
0
 10
1276.68189533
 20
823.24851485
  0
VERTEX
  8
0
 10
1238.58189533
 20
823.24851485
  0
SEQEND
  0
POLYLINE
  8
Default Layer
 66
   1
 39
0.000000
 70
    0
  0
VERTEX
  8
0
 10
1251.28189533
 20
823.24851485
  0
VERTEX
  8
0
 10
1289.38189533
 20
785.14851485
  0
SEQEND
  0
POLYLINE
  8
Default Layer
 66
   1
 39
0.000000
 70
    0
  0
VERTEX
  8
0
 10
1314.78189533
 20
785.14851485
  0
VERTEX
  8
0
 10
1314.78189533
 20
861.34851485
  0
VERTEX
  8
0
 10
1365.58189533
 20
861.34851485
  0
SEQEND
  0
POLYLINE
  8
Default Layer
 66
   1
 39
0.000000
 70
    0
  0
VERTEX
  8
0
 10
1314.78189533
 20
823.24851485
  0
VERTEX
  8
0
 10
1340.18189533
 20
823.24851485
  0
SEQEND
  0
POLYLINE
  8
Default Layer
 66
   1
 39
0.000000
 70
    0
  0
VERTEX
  8
0
 10
1314.78189533
 20
785.14851485
  0
VERTEX
  8
0
 10
1365.58189533
 20
785.14851485
  0
SEQEND
  0
POLYLINE
  8
Default Layer
 66
   1
 39
0.000000
 70
    0
  0
VERTEX
  8
0
 10
1390.98189533
 20
861.34851485
  0
VERTEX
  8
0
 10
1441.78189533
 20
861.34851485
  0
SEQEND
  0
POLYLINE
  8
Default Layer
 66
   1
 39
0.000000
 70
    0
  0
VERTEX
  8
0
 10
1416.38189533
 20
861.34851485
  0
VERTEX
  8
0
 10
1416.38189533
 20
785.14851485
  0
SEQEND
  0
POLYLINE
  8
Default Layer
 66
   1
 39
0.000000
 70
    0
  0
VERTEX
  8
0
 10
1467.18189533
 20
785.14851485
  0
VERTEX
  8
0
 10
1467.18189533
 20
810.54851485
  0
VERTEX
  8
0
 10
1492.58189533
 20
861.34851485
  0
VERTEX
  8
0
 10
1517.98189533
 20
810.54851485
  0
VERTEX
  8
0
 10
1517.98189533
 20
785.14851485
  0
SEQEND
  0
POLYLINE
  8
Default Layer
 66
   1
 39
0.000000
 70
    0
  0
VERTEX
  8
0
 10
1467.18189533
 20
810.54851485
  0
VERTEX
  8
0
 10
1517.98189533
 20
810.54851485
  0
SEQEND
  0
POLYLINE
  8
Default Layer
 66
   1
 39
0.000000
 70
    0
  0
VERTEX
  8
0
 10
1543.38189533
 20
861.34851485
  0
VERTEX
  8
0
 10
1568.78189533
 20
861.34851485
  0
SEQEND
  0
POLYLINE
  8
Default Layer
 66
   1
 39
0.000000
 70
    0
  0
VERTEX
  8
0
 10
1556.08189533
 20
861.34851485
  0
VERTEX
  8
0
 10
1556.08189533
 20
785.14851485
  0
SEQEND
  0
POLYLINE
  8
Default Layer
 66
   1
 39
0.000000
 70
    0
  0
VERTEX
  8
0
 10
1543.38189533
 20
785.14851485
  0
VERTEX
  8
0
 10
1568.78189533
 20
785.14851485
  0
SEQEND
  0
POLYLINE
  8
Default Layer
 66
   1
 39
0.000000
 70
    0
  0
VERTEX
  8
0
 10
1594.18189533
 20
785.14851485
  0
VERTEX
  8
0
 10
1594.18189533
 20
861.34851485
  0
VERTEX
  8
0
 10
1644.98189533
 20
785.14851485
  0
VERTEX
  8
0
 10
1644.98189533
 20
861.34851485
  0
SEQEND
  0
POLYLINE
  8
Default Layer
 66
   1
 39
0.000000
 70
    0
  0
VERTEX
  8
0
 10
1670.38189533
 20
785.14851485
  0
VERTEX
  8
0
 10
1670.38189533
 20
861.34851485
  0
VERTEX
  8
0
 10
1721.18189533
 20
861.34851485
  0
SEQEND
  0
POLYLINE
  8
Default Layer
 66
   1
 39
0.000000
 70
    0
  0
VERTEX
  8
0
 10
1670.38189533
 20
823.24851485
  0
VERTEX
  8
0
 10
1695.78189533
 20
823.24851485
  0
SEQEND
  0
POLYLINE
  8
Default Layer
 66
   1
 39
0.000000
 70
    0
  0
VERTEX
  8
0
 10
1670.38189533
 20
785.14851485
  0
VERTEX
  8
0
 10
1721.18189533
 20
785.14851485
  0
SEQEND
  0
POLYLINE
  8
Default Layer
 66
   1
 39
0.000000
 70
    0
  0
VERTEX
  8
0
 10
1746.58189533
 20
785.14851485
  0
VERTEX
  8
0
 10
1746.58189533
 20
861.34851485
  0
VERTEX
  8
0
 10
1784.68189533
 20
861.34851485
  0
VERTEX
  8
0
 10
1797.38189533
 20
848.64851485
  0
VERTEX
  8
0
 10
1797.38189533
 20
835.94851485
  0
VERTEX
  8
0
 10
1784.68189533
 20
823.24851485
  0
VERTEX
  8
0
 10
1746.58189533
 20
823.24851485
  0
SEQEND
  0
POLYLINE
  8
Default Layer
 66
   1
 39
0.000000
 70
    0
  0
VERTEX
  8
0
 10
1759.28189533
 20
823.24851485
  0
VERTEX
  8
0
 10
1797.38189533
 20
785.14851485
  0
SEQEND
  0
POLYLINE
  8
Default Layer
 66
   1
 39
0.000000
 70
    0
  0
VERTEX
  8
0
 10
1822.78189533
 20
797.84851485
  0
VERTEX
  8
0
 10
1835.48189533
 20
785.14851485
  0
VERTEX
  8
0
 10
1860.88189533
 20
785.14851485
  0
VERTEX
  8
0
 10
1873.58189533
 20
797.84851485
  0
VERTEX
  8
0
 10
1822.78189533
 20
848.64851485
  0
VERTEX
  8
0
 10
1835.48189533
 20
861.34851485
  0
VERTEX
  8
0
 10
1860.88189533
 20
861.34851485
  0
VERTEX
  8
0
 10
1873.58189533
 20
848.64851485
  0
SEQEND
  0
POLYLINE
  8
Default Layer
 66
   1
 39
0.000000
 70
    0
  0
VERTEX
  8
0
 10
267.46817539
 20
1370.12729844
  0
VERTEX
  8
0
 10
267.46817539
 20
1446.32729844
  0
VERTEX
  8
0
 10
318.26817539
 20
1446.32729844
  0
SEQEND
  0
POLYLINE
  8
Default Layer
 66
   1
 39
0.000000
 70
    0
  0
VERTEX
  8
0
 10
267.46817539
 20
1408.22729844
  0
VERTEX
  8
0
 10
292.86817539
 20
1408.22729844
  0
SEQEND
  0
POLYLINE
  8
Default Layer
 66
   1
 39
0.000000
 70
    0
  0
VERTEX
  8
0
 10
343.66817539
 20
1446.32729844
  0
VERTEX
  8
0
 10
369.06817539
 20
1446.32729844
  0
SEQEND
  0
POLYLINE
  8
Default Layer
 66
   1
 39
0.000000
 70
    0
  0
VERTEX
  8
0
 10
356.36817539
 20
1446.32729844
  0
VERTEX
  8
0
 10
356.36817539
 20
1370.12729844
  0
SEQEND
  0
POLYLINE
  8
Default Layer
 66
   1
 39
0.000000
 70
    0
  0
VERTEX
  8
0
 10
343.66817539
 20
1370.12729844
  0
VERTEX
  8
0
 10
369.06817539
 20
1370.12729844
  0
SEQEND
  0
POLYLINE
  8
Default Layer
 66
   1
 39
0.000000
 70
    0
  0
VERTEX
  8
0
 10
394.46817539
 20
1370.12729844
  0
VERTEX
  8
0
 10
445.26817539
 20
1446.32729844
  0
SEQEND
  0
POLYLINE
  8
Default Layer
 66
   1
 39
0.000000
 70
    0
  0
VERTEX
  8
0
 10
394.46817539
 20
1446.32729844
  0
VERTEX
  8
0
 10
445.26817539
 20
1370.12729844
  0
SEQEND
  0
POLYLINE
  8
Default Layer
 66
   1
 39
0.000000
 70
    0
  0
VERTEX
  8
0
 10
546.86817539
 20
1433.62729844
  0
VERTEX
  8
0
 10
559.56817539
 20
1446.32729844
  0
VERTEX
  8
0
 10
584.96817539
 20
1446.32729844
  0
VERTEX
  8
0
 10
597.66817539
 20
1433.62729844
  0
VERTEX
  8
0
 10
597.66817539
 20
1420.92729844
  0
VERTEX
  8
0
 10
584.96817539
 20
1408.22729844
  0
VERTEX
  8
0
 10
559.56817539
 20
1408.22729844
  0
VERTEX
  8
0
 10
546.86817539
 20
1395.52729844
  0
VERTEX
  8
0
 10
546.86817539
 20
1370.12729844
  0
VERTEX
  8
0
 10
597.66817539
 20
1370.12729844
  0
SEQEND
  0
POLYLINE
  8
Default Layer
 66
   1
 39
0.000000
 70
    0
  0
VERTEX
  8
0
 10
623.06817539
 20
1370.12729844
  0
VERTEX
  8
0
 10
673.86817539
 20
1446.32729844
  0
SEQEND
  0
POLYLINE
  8
Default Layer
 66
   1
 39
0.000000
 70
    0
  0
VERTEX
  8
0
 10
623.06817539
 20
1446.32729844
  0
VERTEX
  8
0
 10
673.86817539
 20
1370.12729844
  0
SEQEND
  0
POLYLINE
  8
Default Layer
 66
   1
 39
0.000000
 70
    0
  0
VERTEX
  8
0
 10
699.26817539
 20
1433.62729844
  0
VERTEX
  8
0
 10
711.96817539
 20
1446.32729844
  0
VERTEX
  8
0
 10
711.96817539
 20
1370.12729844
  0
SEQEND
  0
POLYLINE
  8
Default Layer
 66
   1
 39
0.000000
 70
    0
  0
VERTEX
  8
0
 10
699.26817539
 20
1370.12729844
  0
VERTEX
  8
0
 10
724.66817539
 20
1370.12729844
  0
SEQEND
  0
POLYLINE
  8
Default Layer
 66
   1
 39
0.000000
 70
    0
  0
VERTEX
  8
0
 10
826.26817539
 20
1370.12729844
  0
VERTEX
  8
0
 10
826.26817539
 20
1446.32729844
  0
VERTEX
  8
0
 10
877.06817539
 20
1446.32729844
  0
SEQEND
  0
POLYLINE
  8
Default Layer
 66
   1
 39
0.000000
 70
    0
  0
VERTEX
  8
0
 10
826.26817539
 20
1408.22729844
  0
VERTEX
  8
0
 10
851.66817539
 20
1408.22729844
  0
SEQEND
  0
POLYLINE
  8
Default Layer
 66
   1
 39
0.000000
 70
    0
  0
VERTEX
  8
0
 10
902.46817539
 20
1446.32729844
  0
VERTEX
  8
0
 10
902.46817539
 20
1370.12729844
  0
VERTEX
  8
0
 10
953.26817539
 20
1370.12729844
  0
SEQEND
  0
POLYLINE
  8
Default Layer
 66
   1
 39
0.000000
 70
    0
  0
VERTEX
  8
0
 10
978.66817539
 20
1370.12729844
  0
VERTEX
  8
0
 10
978.66817539
 20
1395.52729844
  0
VERTEX
  8
0
 10
1004.06817539
 20
1446.32729844
  0
VERTEX
  8
0
 10
1029.46817539
 20
1395.52729844
  0
VERTEX
  8
0
 10
1029.46817539
 20
1370.12729844
  0
SEQEND
  0
POLYLINE
  8
Default Layer
 66
   1
 39
0.000000
 70
    0
  0
VERTEX
  8
0
 10
978.66817539
 20
1395.52729844
  0
VERTEX
  8
0
 10
1029.46817539
 20
1395.52729844
  0
SEQEND
  0
POLYLINE
  8
Default Layer
 66
   1
 39
0.000000
 70
    0
  0
VERTEX
  8
0
 10
1054.86817539
 20
1446.32729844
  0
VERTEX
  8
0
 10
1105.66817539
 20
1446.32729844
  0
SEQEND
  0
POLYLINE
  8
Default Layer
 66
   1
 39
0.000000
 70
    0
  0
VERTEX
  8
0
 10
1080.26817539
 20
1446.32729844
  0
VERTEX
  8
0
 10
1080.26817539
 20
1370.12729844
  0
SEQEND
  0
POLYLINE
  8
Default Layer
 66
   1
 39
0.000000
 70
    0
  0
VERTEX
  8
0
 10
1207.26817539
 20
1446.32729844
  0
VERTEX
  8
0
 10
1207.26817539
 20
1382.82729844
  0
VERTEX
  8
0
 10
1219.96817539
 20
1370.12729844
  0
VERTEX
  8
0
 10
1245.36817539
 20
1370.12729844
  0
VERTEX
  8
0
 10
1258.06817539
 20
1382.82729844
  0
VERTEX
  8
0
 10
1258.06817539
 20
1446.32729844
  0
SEQEND
  0
POLYLINE
  8
Default Layer
 66
   1
 39
0.000000
 70
    0
  0
VERTEX
  8
0
 10
1283.46817539
 20
1370.12729844
  0
VERTEX
  8
0
 10
1283.46817539
 20
1446.32729844
  0
VERTEX
  8
0
 10
1334.26817539
 20
1370.12729844
  0
VERTEX
  8
0
 10
1334.26817539
 20
1446.32729844
  0
SEQEND
  0
POLYLINE
  8
Default Layer
 66
   1
 39
0.000000
 70
    0
  0
VERTEX
  8
0
 10
1359.66817539
 20
1370.12729844
  0
VERTEX
  8
0
 10
1397.76817539
 20
1370.12729844
  0
VERTEX
  8
0
 10
1410.46817539
 20
1382.82729844
  0
VERTEX
  8
0
 10
1410.46817539
 20
1433.62729844
  0
VERTEX
  8
0
 10
1397.76817539
 20
1446.32729844
  0
VERTEX
  8
0
 10
1359.66817539
 20
1446.32729844
  0
SEQEND
  0
POLYLINE
  8
Default Layer
 66
   1
 39
0.000000
 70
    0
  0
VERTEX
  8
0
 10
1372.36817539
 20
1446.32729844
  0
VERTEX
  8
0
 10
1372.36817539
 20
1370.12729844
  0
SEQEND
  0
POLYLINE
  8
Default Layer
 66
   1
 39
0.000000
 70
    0
  0
VERTEX
  8
0
 10
1435.86817539
 20
1370.12729844
  0
VERTEX
  8
0
 10
1435.86817539
 20
1446.32729844
  0
VERTEX
  8
0
 10
1486.66817539
 20
1446.32729844
  0
SEQEND
  0
POLYLINE
  8
Default Layer
 66
   1
 39
0.000000
 70
    0
  0
VERTEX
  8
0
 10
1435.86817539
 20
1408.22729844
  0
VERTEX
  8
0
 10
1461.26817539
 20
1408.22729844
  0
SEQEND
  0
POLYLINE
  8
Default Layer
 66
   1
 39
0.000000
 70
    0
  0
VERTEX
  8
0
 10
1435.86817539
 20
1370.12729844
  0
VERTEX
  8
0
 10
1486.66817539
 20
1370.12729844
  0
SEQEND
  0
POLYLINE
  8
Default Layer
 66
   1
 39
0.000000
 70
    0
  0
VERTEX
  8
0
 10
1512.06817539
 20
1370.12729844
  0
VERTEX
  8
0
 10
1512.06817539
 20
1446.32729844
  0
VERTEX
  8
0
 10
1550.16817539
 20
1446.32729844
  0
VERTEX
  8
0
 10
1562.86817539
 20
1433.62729844
  0
VERTEX
  8
0
 10
1562.86817539
 20
1420.92729844
  0
VERTEX
  8
0
 10
1550.16817539
 20
1408.22729844
  0
VERTEX
  8
0
 10
1512.06817539
 20
1408.22729844
  0
SEQEND
  0
POLYLINE
  8
Default Layer
 66
   1
 39
0.000000
 70
    0
  0
VERTEX
  8
0
 10
1524.76817539
 20
1408.22729844
  0
VERTEX
  8
0
 10
1562.86817539
 20
1370.12729844
  0
SEQEND
  0
POLYLINE
  8
Default Layer
 66
   1
 39
0.000000
 70
    0
  0
VERTEX
  8
0
 10
1664.46817539
 20
1382.82729844
  0
VERTEX
  8
0
 10
1677.16817539
 20
1370.12729844
  0
VERTEX
  8
0
 10
1702.56817539
 20
1370.12729844
  0
VERTEX
  8
0
 10
1715.26817539
 20
1382.82729844
  0
VERTEX
  8
0
 10
1664.46817539
 20
1433.62729844
  0
VERTEX
  8
0
 10
1677.16817539
 20
1446.32729844
  0
VERTEX
  8
0
 10
1702.56817539
 20
1446.32729844
  0
VERTEX
  8
0
 10
1715.26817539
 20
1433.62729844
  0
SEQEND
  0
POLYLINE
  8
Default Layer
 66
   1
 39
0.000000
 70
    0
  0
VERTEX
  8
0
 10
1740.66817539
 20
1370.12729844
  0
VERTEX
  8
0
 10
1740.66817539
 20
1446.32729844
  0
SEQEND
  0
POLYLINE
  8
Default Layer
 66
   1
 39
0.000000
 70
    0
  0
VERTEX
  8
0
 10
1740.66817539
 20
1408.22729844
  0
VERTEX
  8
0
 10
1791.46817539
 20
1408.22729844
  0
SEQEND
  0
POLYLINE
  8
Default Layer
 66
   1
 39
0.000000
 70
    0
  0
VERTEX
  8
0
 10
1791.46817539
 20
1446.32729844
  0
VERTEX
  8
0
 10
1791.46817539
 20
1370.12729844
  0
SEQEND
  0
POLYLINE
  8
Default Layer
 66
   1
 39
0.000000
 70
    0
  0
VERTEX
  8
0
 10
1816.86817539
 20
1370.12729844
  0
VERTEX
  8
0
 10
1816.86817539
 20
1446.32729844
  0
VERTEX
  8
0
 10
1867.66817539
 20
1446.32729844
  0
SEQEND
  0
POLYLINE
  8
Default Layer
 66
   1
 39
0.000000
 70
    0
  0
VERTEX
  8
0
 10
1816.86817539
 20
1408.22729844
  0
VERTEX
  8
0
 10
1842.26817539
 20
1408.22729844
  0
SEQEND
  0
POLYLINE
  8
Default Layer
 66
   1
 39
0.000000
 70
    0
  0
VERTEX
  8
0
 10
1816.86817539
 20
1370.12729844
  0
VERTEX
  8
0
 10
1867.66817539
 20
1370.12729844
  0
SEQEND
  0
POLYLINE
  8
Default Layer
 66
   1
 39
0.000000
 70
    0
  0
VERTEX
  8
0
 10
1893.06817539
 20
1446.32729844
  0
VERTEX
  8
0
 10
1893.06817539
 20
1370.12729844
  0
VERTEX
  8
0
 10
1943.86817539
 20
1370.12729844
  0
SEQEND
  0
POLYLINE
  8
Default Layer
 66
   1
 39
0.000000
 70
    0
  0
VERTEX
  8
0
 10
1969.26817539
 20
1446.32729844
  0
VERTEX
  8
0
 10
2007.36817539
 20
1370.12729844
  0
VERTEX
  8
0
 10
2045.46817539
 20
1446.32729844
  0
SEQEND
  0
POLYLINE
  8
Default Layer
 66
   1
 39
0.000000
 70
    0
  0
VERTEX
  8
0
 10
2070.86817539
 20
1370.12729844
  0
VERTEX
  8
0
 10
2070.86817539
 20
1446.32729844
  0
VERTEX
  8
0
 10
2121.66817539
 20
1446.32729844
  0
SEQEND
  0
POLYLINE
  8
Default Layer
 66
   1
 39
0.000000
 70
    0
  0
VERTEX
  8
0
 10
2070.86817539
 20
1408.22729844
  0
VERTEX
  8
0
 10
2096.26817539
 20
1408.22729844
  0
SEQEND
  0
POLYLINE
  8
Default Layer
 66
   1
 39
0.000000
 70
    0
  0
VERTEX
  8
0
 10
2070.86817539
 20
1370.12729844
  0
VERTEX
  8
0
 10
2121.66817539
 20
1370.12729844
  0
SEQEND
  0
POLYLINE
  8
Default Layer
 66
   1
 39
0.000000
 70
    0
  0
VERTEX
  8
0
 10
2147.06817539
 20
1370.12729844
  0
VERTEX
  8
0
 10
2147.06817539
 20
1446.32729844
  0
VERTEX
  8
0
 10
2185.16817539
 20
1446.32729844
  0
VERTEX
  8
0
 10
2197.86817539
 20
1433.62729844
  0
VERTEX
  8
0
 10
2197.86817539
 20
1420.92729844
  0
VERTEX
  8
0
 10
2185.16817539
 20
1408.22729844
  0
VERTEX
  8
0
 10
2147.06817539
 20
1408.22729844
  0
SEQEND
  0
POLYLINE
  8
Default Layer
 66
   1
 39
0.000000
 70
    0
  0
VERTEX
  8
0
 10
2159.76817539
 20
1408.22729844
  0
VERTEX
  8
0
 10
2197.86817539
 20
1370.12729844
  0
SEQEND
  0
POLYLINE
  8
Default Layer
 66
   1
 39
0.000000
 70
    0
  0
VERTEX
  8
0
 10
369.06817539
 20
1310.25586987
  0
VERTEX
  8
0
 10
419.86817539
 20
1310.25586987
  0
SEQEND
  0
POLYLINE
  8
Default Layer
 66
   1
 39
0.000000
 70
    0
  0
VERTEX
  8
0
 10
394.46817539
 20
1310.25586987
  0
VERTEX
  8
0
 10
394.46817539
 20
1234.05586987
  0
SEQEND
  0
POLYLINE
  8
Default Layer
 66
   1
 39
0.000000
 70
    0
  0
VERTEX
  8
0
 10
445.26817539
 20
1234.05586987
  0
VERTEX
  8
0
 10
445.26817539
 20
1310.25586987
  0
SEQEND
  0
POLYLINE
  8
Default Layer
 66
   1
 39
0.000000
 70
    0
  0
VERTEX
  8
0
 10
445.26817539
 20
1272.15586987
  0
VERTEX
  8
0
 10
496.06817539
 20
1272.15586987
  0
SEQEND
  0
POLYLINE
  8
Default Layer
 66
   1
 39
0.000000
 70
    0
  0
VERTEX
  8
0
 10
496.06817539
 20
1310.25586987
  0
VERTEX
  8
0
 10
496.06817539
 20
1234.05586987
  0
SEQEND
  0
POLYLINE
  8
Default Layer
 66
   1
 39
0.000000
 70
    0
  0
VERTEX
  8
0
 10
521.46817539
 20
1234.05586987
  0
VERTEX
  8
0
 10
521.46817539
 20
1310.25586987
  0
VERTEX
  8
0
 10
572.26817539
 20
1310.25586987
  0
SEQEND
  0
POLYLINE
  8
Default Layer
 66
   1
 39
0.000000
 70
    0
  0
VERTEX
  8
0
 10
521.46817539
 20
1272.15586987
  0
VERTEX
  8
0
 10
546.86817539
 20
1272.15586987
  0
SEQEND
  0
POLYLINE
  8
Default Layer
 66
   1
 39
0.000000
 70
    0
  0
VERTEX
  8
0
 10
521.46817539
 20
1234.05586987
  0
VERTEX
  8
0
 10
572.26817539
 20
1234.05586987
  0
SEQEND
  0
POLYLINE
  8
Default Layer
 66
   1
 39
0.000000
 70
    0
  0
VERTEX
  8
0
 10
597.66817539
 20
1234.05586987
  0
VERTEX
  8
0
 10
597.66817539
 20
1310.25586987
  0
VERTEX
  8
0
 10
648.46817539
 20
1234.05586987
  0
VERTEX
  8
0
 10
648.46817539
 20
1310.25586987
  0
SEQEND
  0
POLYLINE
  8
Default Layer
 66
   1
 39
0.000000
 70
    0
  0
VERTEX
  8
0
 10
750.06817539
 20
1234.05586987
  0
VERTEX
  8
0
 10
750.06817539
 20
1310.25586987
  0
VERTEX
  8
0
 10
800.86817539
 20
1310.25586987
  0
SEQEND
  0
POLYLINE
  8
Default Layer
 66
   1
 39
0.000000
 70
    0
  0
VERTEX
  8
0
 10
750.06817539
 20
1272.15586987
  0
VERTEX
  8
0
 10
775.46817539
 20
1272.15586987
  0
SEQEND
  0
POLYLINE
  8
Default Layer
 66
   1
 39
0.000000
 70
    0
  0
VERTEX
  8
0
 10
826.26817539
 20
1310.25586987
  0
VERTEX
  8
0
 10
851.66817539
 20
1310.25586987
  0
SEQEND
  0
POLYLINE
  8
Default Layer
 66
   1
 39
0.000000
 70
    0
  0
VERTEX
  8
0
 10
838.96817539
 20
1310.25586987
  0
VERTEX
  8
0
 10
838.96817539
 20
1234.05586987
  0
SEQEND
  0
POLYLINE
  8
Default Layer
 66
   1
 39
0.000000
 70
    0
  0
VERTEX
  8
0
 10
826.26817539
 20
1234.05586987
  0
VERTEX
  8
0
 10
851.66817539
 20
1234.05586987
  0
SEQEND
  0
POLYLINE
  8
Default Layer
 66
   1
 39
0.000000
 70
    0
  0
VERTEX
  8
0
 10
877.06817539
 20
1234.05586987
  0
VERTEX
  8
0
 10
927.86817539
 20
1310.25586987
  0
SEQEND
  0
POLYLINE
  8
Default Layer
 66
   1
 39
0.000000
 70
    0
  0
VERTEX
  8
0
 10
877.06817539
 20
1310.25586987
  0
VERTEX
  8
0
 10
927.86817539
 20
1234.05586987
  0
SEQEND
  0
POLYLINE
  8
Default Layer
 66
   1
 39
0.000000
 70
    0
  0
VERTEX
  8
0
 10
1029.46817539
 20
1234.05586987
  0
VERTEX
  8
0
 10
1029.46817539
 20
1310.25586987
  0
VERTEX
  8
0
 10
1067.56817539
 20
1310.25586987
  0
VERTEX
  8
0
 10
1080.26817539
 20
1297.55586987
  0
VERTEX
  8
0
 10
1080.26817539
 20
1284.85586987
  0
VERTEX
  8
0
 10
1067.56817539
 20
1272.15586987
  0
VERTEX
  8
0
 10
1029.46817539
 20
1272.15586987
  0
SEQEND
  0
POLYLINE
  8
Default Layer
 66
   1
 39
0.000000
 70
    0
  0
VERTEX
  8
0
 10
1042.16817539
 20
1272.15586987
  0
VERTEX
  8
0
 10
1080.26817539
 20
1234.05586987
  0
SEQEND
  0
POLYLINE
  8
Default Layer
 66
   1
 39
0.000000
 70
    0
  0
VERTEX
  8
0
 10
1105.66817539
 20
1234.05586987
  0
VERTEX
  8
0
 10
1105.66817539
 20
1310.25586987
  0
VERTEX
  8
0
 10
1156.46817539
 20
1310.25586987
  0
SEQEND
  0
POLYLINE
  8
Default Layer
 66
   1
 39
0.000000
 70
    0
  0
VERTEX
  8
0
 10
1105.66817539
 20
1272.15586987
  0
VERTEX
  8
0
 10
1131.06817539
 20
1272.15586987
  0
SEQEND
  0
POLYLINE
  8
Default Layer
 66
   1
 39
0.000000
 70
    0
  0
VERTEX
  8
0
 10
1105.66817539
 20
1234.05586987
  0
VERTEX
  8
0
 10
1156.46817539
 20
1234.05586987
  0
SEQEND
  0
POLYLINE
  8
Default Layer
 66
   1
 39
0.000000
 70
    0
  0
VERTEX
  8
0
 10
1181.86817539
 20
1310.25586987
  0
VERTEX
  8
0
 10
1232.66817539
 20
1310.25586987
  0
SEQEND
  0
POLYLINE
  8
Default Layer
 66
   1
 39
0.000000
 70
    0
  0
VERTEX
  8
0
 10
1207.26817539
 20
1310.25586987
  0
VERTEX
  8
0
 10
1207.26817539
 20
1234.05586987
  0
SEQEND
  0
POLYLINE
  8
Default Layer
 66
   1
 39
0.000000
 70
    0
  0
VERTEX
  8
0
 10
1258.06817539
 20
1234.05586987
  0
VERTEX
  8
0
 10
1258.06817539
 20
1259.45586987
  0
VERTEX
  8
0
 10
1283.46817539
 20
1310.25586987
  0
VERTEX
  8
0
 10
1308.86817539
 20
1259.45586987
  0
VERTEX
  8
0
 10
1308.86817539
 20
1234.05586987
  0
SEQEND
  0
POLYLINE
  8
Default Layer
 66
   1
 39
0.000000
 70
    0
  0
VERTEX
  8
0
 10
1258.06817539
 20
1259.45586987
  0
VERTEX
  8
0
 10
1308.86817539
 20
1259.45586987
  0
SEQEND
  0
POLYLINE
  8
Default Layer
 66
   1
 39
0.000000
 70
    0
  0
VERTEX
  8
0
 10
1334.26817539
 20
1310.25586987
  0
VERTEX
  8
0
 10
1359.66817539
 20
1310.25586987
  0
SEQEND
  0
POLYLINE
  8
Default Layer
 66
   1
 39
0.000000
 70
    0
  0
VERTEX
  8
0
 10
1346.96817539
 20
1310.25586987
  0
VERTEX
  8
0
 10
1346.96817539
 20
1234.05586987
  0
SEQEND
  0
POLYLINE
  8
Default Layer
 66
   1
 39
0.000000
 70
    0
  0
VERTEX
  8
0
 10
1334.26817539
 20
1234.05586987
  0
VERTEX
  8
0
 10
1359.66817539
 20
1234.05586987
  0
SEQEND
  0
POLYLINE
  8
Default Layer
 66
   1
 39
0.000000
 70
    0
  0
VERTEX
  8
0
 10
1385.06817539
 20
1234.05586987
  0
VERTEX
  8
0
 10
1385.06817539
 20
1310.25586987
  0
VERTEX
  8
0
 10
1435.86817539
 20
1234.05586987
  0
VERTEX
  8
0
 10
1435.86817539
 20
1310.25586987
  0
SEQEND
  0
POLYLINE
  8
Default Layer
 66
   1
 39
0.000000
 70
    0
  0
VERTEX
  8
0
 10
1461.26817539
 20
1234.05586987
  0
VERTEX
  8
0
 10
1461.26817539
 20
1310.25586987
  0
VERTEX
  8
0
 10
1512.06817539
 20
1310.25586987
  0
SEQEND
  0
POLYLINE
  8
Default Layer
 66
   1
 39
0.000000
 70
    0
  0
VERTEX
  8
0
 10
1461.26817539
 20
1272.15586987
  0
VERTEX
  8
0
 10
1486.66817539
 20
1272.15586987
  0
SEQEND
  0
POLYLINE
  8
Default Layer
 66
   1
 39
0.000000
 70
    0
  0
VERTEX
  8
0
 10
1461.26817539
 20
1234.05586987
  0
VERTEX
  8
0
 10
1512.06817539
 20
1234.05586987
  0
SEQEND
  0
POLYLINE
  8
Default Layer
 66
   1
 39
0.000000
 70
    0
  0
VERTEX
  8
0
 10
1537.46817539
 20
1234.05586987
  0
VERTEX
  8
0
 10
1537.46817539
 20
1310.25586987
  0
VERTEX
  8
0
 10
1575.56817539
 20
1310.25586987
  0
VERTEX
  8
0
 10
1588.26817539
 20
1297.55586987
  0
VERTEX
  8
0
 10
1588.26817539
 20
1284.85586987
  0
VERTEX
  8
0
 10
1575.56817539
 20
1272.15586987
  0
VERTEX
  8
0
 10
1537.46817539
 20
1272.15586987
  0
SEQEND
  0
POLYLINE
  8
Default Layer
 66
   1
 39
0.000000
 70
    0
  0
VERTEX
  8
0
 10
1550.16817539
 20
1272.15586987
  0
VERTEX
  8
0
 10
1588.26817539
 20
1234.05586987
  0
SEQEND
  0
POLYLINE
  8
Default Layer
 66
   1
 39
0.000000
 70
    0
  0
VERTEX
  8
0
 10
1613.66817539
 20
1246.75586987
  0
VERTEX
  8
0
 10
1626.36817539
 20
1234.05586987
  0
VERTEX
  8
0
 10
1651.76817539
 20
1234.05586987
  0
VERTEX
  8
0
 10
1664.46817539
 20
1246.75586987
  0
VERTEX
  8
0
 10
1613.66817539
 20
1297.55586987
  0
VERTEX
  8
0
 10
1626.36817539
 20
1310.25586987
  0
VERTEX
  8
0
 10
1651.76817539
 20
1310.25586987
  0
VERTEX
  8
0
 10
1664.46817539
 20
1297.55586987
  0
SEQEND
  0
POLYLINE
  8
Default Layer
 66
   1
 39
0.000000
 70
    0
  0
VERTEX
  8
0
 10
1766.06817539
 20
1310.25586987
  0
VERTEX
  8
0
 10
1816.86817539
 20
1310.25586987
  0
SEQEND
  0
POLYLINE
  8
Default Layer
 66
   1
 39
0.000000
 70
    0
  0
VERTEX
  8
0
 10
1791.46817539
 20
1310.25586987
  0
VERTEX
  8
0
 10
1791.46817539
 20
1234.05586987
  0
SEQEND
  0
POLYLINE
  8
Default Layer
 66
   1
 39
0.000000
 70
    1
  0
VERTEX
  8
0
 10
1842.26817539
 20
1234.05586987
  0
VERTEX
  8
0
 10
1842.26817539
 20
1310.25586987
  0
VERTEX
  8
0
 10
1893.06817539
 20
1310.25586987
  0
VERTEX
  8
0
 10
1893.06817539
 20
1234.05586987
  0
VERTEX
  8
0
 10
1842.26817539
 20
1234.05586987
  0
SEQEND
  0
POLYLINE
  8
Default Layer
 66
   1
 39
0.000000
 70
    0
  0
VERTEX
  8
0
 10
1994.66817539
 20
1310.25586987
  0
VERTEX
  8
0
 10
2020.06817539
 20
1310.25586987
  0
SEQEND
  0
POLYLINE
  8
Default Layer
 66
   1
 39
0.000000
 70
    0
  0
VERTEX
  8
0
 10
2007.36817539
 20
1310.25586987
  0
VERTEX
  8
0
 10
2007.36817539
 20
1234.05586987
  0
SEQEND
  0
POLYLINE
  8
Default Layer
 66
   1
 39
0.000000
 70
    0
  0
VERTEX
  8
0
 10
1994.66817539
 20
1234.05586987
  0
VERTEX
  8
0
 10
2020.06817539
 20
1234.05586987
  0
SEQEND
  0
POLYLINE
  8
Default Layer
 66
   1
 39
0.000000
 70
    0
  0
VERTEX
  8
0
 10
2045.46817539
 20
1310.25586987
  0
VERTEX
  8
0
 10
2096.26817539
 20
1310.25586987
  0
SEQEND
  0
POLYLINE
  8
Default Layer
 66
   1
 39
0.000000
 70
    0
  0
VERTEX
  8
0
 10
2070.86817539
 20
1310.25586987
  0
VERTEX
  8
0
 10
2070.86817539
 20
1234.05586987
  0
SEQEND
  0
POLYLINE
  8
Default Layer
 66
   1
 39
0.000000
 70
    0
  0
VERTEX
  8
0
 10
-1568.57142857
 20
3762.63111740
  0
VERTEX
  8
0
 10
-1454.27142857
 20
3534.03111740
  0
VERTEX
  8
0
 10
-1339.97142857
 20
3762.63111740
  0
SEQEND
  0
POLYLINE
  8
Default Layer
 66
   1
 39
0.000000
 70
    0
  0
VERTEX
  8
0
 10
-1263.77142857
 20
3762.63111740
  0
VERTEX
  8
0
 10
-1187.57142857
 20
3762.63111740
  0
SEQEND
  0
POLYLINE
  8
Default Layer
 66
   1
 39
0.000000
 70
    0
  0
VERTEX
  8
0
 10
-1225.67142857
 20
3762.63111740
  0
VERTEX
  8
0
 10
-1225.67142857
 20
3534.03111740
  0
SEQEND
  0
POLYLINE
  8
Default Layer
 66
   1
 39
0.000000
 70
    0
  0
VERTEX
  8
0
 10
-1263.77142857
 20
3534.03111740
  0
VERTEX
  8
0
 10
-1187.57142857
 20
3534.03111740
  0
SEQEND
  0
POLYLINE
  8
Default Layer
 66
   1
 39
0.000000
 70
    0
  0
VERTEX
  8
0
 10
-1111.37142857
 20
3762.63111740
  0
VERTEX
  8
0
 10
-997.07142857
 20
3534.03111740
  0
VERTEX
  8
0
 10
-882.77142857
 20
3762.63111740
  0
SEQEND
  0
POLYLINE
  8
Default Layer
 66
   1
 39
0.000000
 70
    0
  0
VERTEX
  8
0
 10
-806.57142857
 20
3534.03111740
  0
VERTEX
  8
0
 10
-806.57142857
 20
3610.23111740
  0
VERTEX
  8
0
 10
-730.37142857
 20
3762.63111740
  0
VERTEX
  8
0
 10
-654.17142857
 20
3610.23111740
  0
VERTEX
  8
0
 10
-654.17142857
 20
3534.03111740
  0
SEQEND
  0
POLYLINE
  8
Default Layer
 66
   1
 39
0.000000
 70
    0
  0
VERTEX
  8
0
 10
-806.57142857
 20
3610.23111740
  0
VERTEX
  8
0
 10
-654.17142857
 20
3610.23111740
  0
SEQEND
  0
POLYLINE
  8
Default Layer
 66
   1
 39
0.000000
 70
    0
  0
VERTEX
  8
0
 10
-577.97142857
 20
3534.03111740
  0
VERTEX
  8
0
 10
-577.97142857
 20
3762.63111740
  0
VERTEX
  8
0
 10
-463.67142857
 20
3762.63111740
  0
VERTEX
  8
0
 10
-425.57142857
 20
3724.53111740
  0
VERTEX
  8
0
 10
-425.57142857
 20
3686.43111740
  0
VERTEX
  8
0
 10
-463.67142857
 20
3648.33111740
  0
VERTEX
  8
0
 10
-577.97142857
 20
3648.33111740
  0
SEQEND
  0
POLYLINE
  8
Default Layer
 66
   1
 39
0.000000
 70
    0
  0
VERTEX
  8
0
 10
-539.87142857
 20
3648.33111740
  0
VERTEX
  8
0
 10
-425.57142857
 20
3534.03111740
  0
SEQEND
  0
POLYLINE
  8
Default Layer
 66
   1
 39
0.000000
 70
    1
  0
VERTEX
  8
0
 10
-349.37142857
 20
3534.03111740
  0
VERTEX
  8
0
 10
-349.37142857
 20
3762.63111740
  0
VERTEX
  8
0
 10
-196.97142857
 20
3762.63111740
  0
VERTEX
  8
0
 10
-196.97142857
 20
3534.03111740
  0
VERTEX
  8
0
 10
-349.37142857
 20
3534.03111740
  0
SEQEND
  0
POLYLINE
  8
Default Layer
 66
   1
 39
0.000000
 70
    0
  0
VERTEX
  8
0
 10
107.82857143
 20
3572.13111740
  0
VERTEX
  8
0
 10
145.92857143
 20
3534.03111740
  0
VERTEX
  8
0
 10
222.12857143
 20
3534.03111740
  0
VERTEX
  8
0
 10
260.22857143
 20
3572.13111740
  0
VERTEX
  8
0
 10
107.82857143
 20
3724.53111740
  0
VERTEX
  8
0
 10
145.92857143
 20
3762.63111740
  0
VERTEX
  8
0
 10
222.12857143
 20
3762.63111740
  0
VERTEX
  8
0
 10
260.22857143
 20
3724.53111740
  0
SEQEND
  0
POLYLINE
  8
Default Layer
 66
   1
 39
0.000000
 70
    0
  0
VERTEX
  8
0
 10
336.42857143
 20
3762.63111740
  0
VERTEX
  8
0
 10
412.62857143
 20
3534.03111740
  0
VERTEX
  8
0
 10
450.72857143
 20
3648.33111740
  0
VERTEX
  8
0
 10
488.82857143
 20
3534.03111740
  0
VERTEX
  8
0
 10
565.02857143
 20
3762.63111740
  0
SEQEND
  0
POLYLINE
  8
Default Layer
 66
   1
 39
0.000000
 70
    0
  0
VERTEX
  8
0
 10
641.22857143
 20
3534.03111740
  0
VERTEX
  8
0
 10
755.52857143
 20
3534.03111740
  0
VERTEX
  8
0
 10
793.62857143
 20
3572.13111740
  0
VERTEX
  8
0
 10
793.62857143
 20
3610.23111740
  0
VERTEX
  8
0
 10
755.52857143
 20
3648.33111740
  0
VERTEX
  8
0
 10
679.32857143
 20
3648.33111740
  0
SEQEND
  0
POLYLINE
  8
Default Layer
 66
   1
 39
0.000000
 70
    0
  0
VERTEX
  8
0
 10
755.52857143
 20
3648.33111740
  0
VERTEX
  8
0
 10
793.62857143
 20
3686.43111740
  0
VERTEX
  8
0
 10
793.62857143
 20
3724.53111740
  0
VERTEX
  8
0
 10
755.52857143
 20
3762.63111740
  0
VERTEX
  8
0
 10
641.22857143
 20
3762.63111740
  0
SEQEND
  0
POLYLINE
  8
Default Layer
 66
   1
 39
0.000000
 70
    0
  0
VERTEX
  8
0
 10
679.32857143
 20
3762.63111740
  0
VERTEX
  8
0
 10
679.32857143
 20
3534.03111740
  0
SEQEND
  0
POLYLINE
  8
Default Layer
 66
   1
 39
0.000000
 70
    0
  0
VERTEX
  8
0
 10
1098.42857143
 20
3534.03111740
  0
VERTEX
  8
0
 10
1098.42857143
 20
3762.63111740
  0
VERTEX
  8
0
 10
1174.62857143
 20
3610.23111740
  0
VERTEX
  8
0
 10
1250.82857143
 20
3762.63111740
  0
VERTEX
  8
0
 10
1250.82857143
 20
3534.03111740
  0
SEQEND
  0
POLYLINE
  8
Default Layer
 66
   1
 39
0.000000
 70
    1
  0
VERTEX
  8
0
 10
1327.02857143
 20
3534.03111740
  0
VERTEX
  8
0
 10
1327.02857143
 20
3762.63111740
  0
VERTEX
  8
0
 10
1479.42857143
 20
3762.63111740
  0
VERTEX
  8
0
 10
1479.42857143
 20
3534.03111740
  0
VERTEX
  8
0
 10
1327.02857143
 20
3534.03111740
  0
SEQEND
  0
POLYLINE
  8
Default Layer
 66
   1
 39
0.000000
 70
    0
  0
VERTEX
  8
0
 10
1555.62857143
 20
3534.03111740
  0
VERTEX
  8
0
 10
1669.92857143
 20
3534.03111740
  0
VERTEX
  8
0
 10
1708.02857143
 20
3572.13111740
  0
VERTEX
  8
0
 10
1708.02857143
 20
3724.53111740
  0
VERTEX
  8
0
 10
1669.92857143
 20
3762.63111740
  0
VERTEX
  8
0
 10
1555.62857143
 20
3762.63111740
  0
SEQEND
  0
POLYLINE
  8
Default Layer
 66
   1
 39
0.000000
 70
    0
  0
VERTEX
  8
0
 10
1593.72857143
 20
3762.63111740
  0
VERTEX
  8
0
 10
1593.72857143
 20
3534.03111740
  0
SEQEND
  0
POLYLINE
  8
Default Layer
 66
   1
 39
0.000000
 70
    0
  0
VERTEX
  8
0
 10
1784.22857143
 20
3762.63111740
  0
VERTEX
  8
0
 10
1784.22857143
 20
3572.13111740
  0
VERTEX
  8
0
 10
1822.32857143
 20
3534.03111740
  0
VERTEX
  8
0
 10
1898.52857143
 20
3534.03111740
  0
VERTEX
  8
0
 10
1936.62857143
 20
3572.13111740
  0
VERTEX
  8
0
 10
1936.62857143
 20
3762.63111740
  0
SEQEND
  0
POLYLINE
  8
Default Layer
 66
   1
 39
0.000000
 70
    0
  0
VERTEX
  8
0
 10
2012.82857143
 20
3762.63111740
  0
VERTEX
  8
0
 10
2012.82857143
 20
3534.03111740
  0
VERTEX
  8
0
 10
2165.22857143
 20
3534.03111740
  0
SEQEND
  0
POLYLINE
  8
Default Layer
 66
   1
 39
0.000000
 70
    0
  0
VERTEX
  8
0
 10
2241.42857143
 20
3534.03111740
  0
VERTEX
  8
0
 10
2241.42857143
 20
3610.23111740
  0
VERTEX
  8
0
 10
2317.62857143
 20
3762.63111740
  0
VERTEX
  8
0
 10
2393.82857143
 20
3610.23111740
  0
VERTEX
  8
0
 10
2393.82857143
 20
3534.03111740
  0
SEQEND
  0
POLYLINE
  8
Default Layer
 66
   1
 39
0.000000
 70
    0
  0
VERTEX
  8
0
 10
2241.42857143
 20
3610.23111740
  0
VERTEX
  8
0
 10
2393.82857143
 20
3610.23111740
  0
SEQEND
  0
POLYLINE
  8
Default Layer
 66
   1
 39
0.000000
 70
    0
  0
VERTEX
  8
0
 10
2470.02857143
 20
3534.03111740
  0
VERTEX
  8
0
 10
2470.02857143
 20
3762.63111740
  0
VERTEX
  8
0
 10
2584.32857143
 20
3762.63111740
  0
VERTEX
  8
0
 10
2622.42857143
 20
3724.53111740
  0
VERTEX
  8
0
 10
2622.42857143
 20
3686.43111740
  0
VERTEX
  8
0
 10
2584.32857143
 20
3648.33111740
  0
VERTEX
  8
0
 10
2470.02857143
 20
3648.33111740
  0
SEQEND
  0
POLYLINE
  8
Default Layer
 66
   1
 39
0.000000
 70
    0
  0
VERTEX
  8
0
 10
2508.12857143
 20
3648.33111740
  0
VERTEX
  8
0
 10
2622.42857143
 20
3534.03111740
  0
SEQEND
  0
POLYLINE
  8
Default Layer
 66
   1
 39
0.000000
 70
    0
  0
VERTEX
  8
0
 10
2927.22857143
 20
3534.03111740
  0
VERTEX
  8
0
 10
2927.22857143
 20
3762.63111740
  0
VERTEX
  8
0
 10
3041.52857143
 20
3762.63111740
  0
VERTEX
  8
0
 10
3079.62857143
 20
3724.53111740
  0
VERTEX
  8
0
 10
3079.62857143
 20
3686.43111740
  0
VERTEX
  8
0
 10
3041.52857143
 20
3648.33111740
  0
VERTEX
  8
0
 10
2927.22857143
 20
3648.33111740
  0
SEQEND
  0
POLYLINE
  8
Default Layer
 66
   1
 39
0.000000
 70
    0
  0
VERTEX
  8
0
 10
2965.32857143
 20
3648.33111740
  0
VERTEX
  8
0
 10
3079.62857143
 20
3534.03111740
  0
SEQEND
  0
POLYLINE
  8
Default Layer
 66
   1
 39
0.000000
 70
    0
  0
VERTEX
  8
0
 10
3155.82857143
 20
3534.03111740
  0
VERTEX
  8
0
 10
3155.82857143
 20
3610.23111740
  0
VERTEX
  8
0
 10
3232.02857143
 20
3762.63111740
  0
VERTEX
  8
0
 10
3308.22857143
 20
3610.23111740
  0
VERTEX
  8
0
 10
3308.22857143
 20
3534.03111740
  0
SEQEND
  0
POLYLINE
  8
Default Layer
 66
   1
 39
0.000000
 70
    0
  0
VERTEX
  8
0
 10
3155.82857143
 20
3610.23111740
  0
VERTEX
  8
0
 10
3308.22857143
 20
3610.23111740
  0
SEQEND
  0
POLYLINE
  8
Default Layer
 66
   1
 39
0.000000
 70
    0
  0
VERTEX
  8
0
 10
3536.82857143
 20
3572.13111740
  0
VERTEX
  8
0
 10
3498.72857143
 20
3534.03111740
  0
VERTEX
  8
0
 10
3422.52857143
 20
3534.03111740
  0
VERTEX
  8
0
 10
3384.42857143
 20
3572.13111740
  0
VERTEX
  8
0
 10
3384.42857143
 20
3724.53111740
  0
VERTEX
  8
0
 10
3422.52857143
 20
3762.63111740
  0
VERTEX
  8
0
 10
3498.72857143
 20
3762.63111740
  0
VERTEX
  8
0
 10
3536.82857143
 20
3724.53111740
  0
SEQEND
  0
POLYLINE
  8
Default Layer
 66
   1
 39
0.000000
 70
    0
  0
VERTEX
  8
0
 10
3613.02857143
 20
3534.03111740
  0
VERTEX
  8
0
 10
3613.02857143
 20
3762.63111740
  0
SEQEND
  0
POLYLINE
  8
Default Layer
 66
   1
 39
0.000000
 70
    0
  0
VERTEX
  8
0
 10
3765.42857143
 20
3762.63111740
  0
VERTEX
  8
0
 10
3651.12857143
 20
3648.33111740
  0
VERTEX
  8
0
 10
3613.02857143
 20
3648.33111740
  0
SEQEND
  0
POLYLINE
  8
Default Layer
 66
   1
 39
0.000000
 70
    0
  0
VERTEX
  8
0
 10
3651.12857143
 20
3648.33111740
  0
VERTEX
  8
0
 10
3765.42857143
 20
3534.03111740
  0
SEQEND
  0
POLYLINE
  8
Default Layer
 66
   1
 39
0.000000
 70
    0
  0
VERTEX
  8
0
 10
3841.62857143
 20
3762.63111740
  0
VERTEX
  8
0
 10
3917.82857143
 20
3762.63111740
  0
SEQEND
  0
POLYLINE
  8
Default Layer
 66
   1
 39
0.000000
 70
    0
  0
VERTEX
  8
0
 10
3879.72857143
 20
3762.63111740
  0
VERTEX
  8
0
 10
3879.72857143
 20
3534.03111740
  0
SEQEND
  0
POLYLINE
  8
Default Layer
 66
   1
 39
0.000000
 70
    0
  0
VERTEX
  8
0
 10
3841.62857143
 20
3534.03111740
  0
VERTEX
  8
0
 10
3917.82857143
 20
3534.03111740
  0
SEQEND
  0
POLYLINE
  8
Default Layer
 66
   1
 39
0.000000
 70
    0
  0
VERTEX
  8
0
 10
3994.02857143
 20
3534.03111740
  0
VERTEX
  8
0
 10
3994.02857143
 20
3762.63111740
  0
VERTEX
  8
0
 10
4146.42857143
 20
3534.03111740
  0
VERTEX
  8
0
 10
4146.42857143
 20
3762.63111740
  0
SEQEND
  0
POLYLINE
  8
Default Layer
 66
   1
 39
0.000000
 70
    0
  0
VERTEX
  8
0
 10
4336.92857143
 20
3648.33111740
  0
VERTEX
  8
0
 10
4375.02857143
 20
3648.33111740
  0
VERTEX
  8
0
 10
4375.02857143
 20
3534.03111740
  0
VERTEX
  8
0
 10
4260.72857143
 20
3534.03111740
  0
VERTEX
  8
0
 10
4222.62857143
 20
3572.13111740
  0
VERTEX
  8
0
 10
4222.62857143
 20
3724.53111740
  0
VERTEX
  8
0
 10
4260.72857143
 20
3762.63111740
  0
VERTEX
  8
0
 10
4375.02857143
 20
3762.63111740
  0
SEQEND
  0
ENDSEC
  0
EOF
