  0
SECTION
  2
HEADER
  9
$ACADVER
  1
AC1009
  9
$EXTMIN
 10
-2847.85091938
 20
1663.47949081
 30
0.0
  9
$EXTMAX
 10
5087.39250527
 20
5585.77086280
 30
0.0
  0
ENDSEC
  0
SECTION
  2
TABLES
  0
TABLE
  2
LAYER
 70
1
 0
LAYER
 2
Default Layer
 70
0
 62
1
 6
CONTINUOUS
 0
ENDTAB
 0
ENDSEC
  0
SECTION
  2
ENTITIES
  0
POLYLINE
  8
Default Layer
 66
   1
 39
0.000000
 70
    1
  0
VERTEX
  8
0
 10
328.42813174
 20
2863.26610530
  0
VERTEX
  8
0
 10
478.42813174
 20
2863.26610530
  0
VERTEX
  8
0
 10
478.42813174
 20
2875.56610530
  0
VERTEX
  8
0
 10
328.42813174
 20
2875.56610530
  0
VERTEX
  8
0
 10
328.42813174
 20
2863.26610530
  0
SEQEND
  0
POLYLINE
  8
Default Layer
 66
   1
 39
0.000000
 70
    1
  0
VERTEX
  8
0
 10
328.42813174
 20
2463.22323130
  0
VERTEX
  8
0
 10
478.42813174
 20
2463.22323130
  0
VERTEX
  8
0
 10
478.42813174
 20
2475.52323130
  0
VERTEX
  8
0
 10
328.42813174
 20
2475.52323130
  0
VERTEX
  8
0
 10
328.42813174
 20
2463.22323130
  0
SEQEND
  0
POLYLINE
  8
Default Layer
 66
   1
 39
0.000000
 70
    1
  0
VERTEX
  8
0
 10
-2347.12978571
 20
3191.28828587
  0
VERTEX
  8
0
 10
-2247.12978571
 20
3191.28828587
  0
VERTEX
  8
0
 10
-2247.12978571
 20
3203.58828587
  0
VERTEX
  8
0
 10
-2347.12978571
 20
3203.58828587
  0
VERTEX
  8
0
 10
-2347.12978571
 20
3191.28828587
  0
SEQEND
  0
POLYLINE
  8
Default Layer
 66
   1
 39
0.000000
 70
    1
  0
VERTEX
  8
0
 10
-2347.12978571
 20
2487.06666886
  0
VERTEX
  8
0
 10
-2247.12978571
 20
2487.06666886
  0
VERTEX
  8
0
 10
-2247.12978571
 20
2499.36666886
  0
VERTEX
  8
0
 10
-2347.12978571
 20
2499.36666886
  0
VERTEX
  8
0
 10
-2347.12978571
 20
2487.06666886
  0
SEQEND
  0
POLYLINE
  8
Default Layer
 66
   1
 39
0.000000
 70
    1
  0
VERTEX
  8
0
 10
-2347.12978571
 20
2887.07261092
  0
VERTEX
  8
0
 10
-2247.12978571
 20
2887.07261092
  0
VERTEX
  8
0
 10
-2247.12978571
 20
2899.37261092
  0
VERTEX
  8
0
 10
-2347.12978571
 20
2899.37261092
  0
VERTEX
  8
0
 10
-2347.12978571
 20
2887.07261092
  0
SEQEND
  0
POLYLINE
  8
Default Layer
 66
   1
 39
0.000000
 70
    1
  0
VERTEX
  8
0
 10
328.42813174
 20
3167.51899303
  0
VERTEX
  8
0
 10
478.42813174
 20
3167.51899303
  0
VERTEX
  8
0
 10
478.42813174
 20
3179.81899303
  0
VERTEX
  8
0
 10
328.42813174
 20
3179.81899303
  0
VERTEX
  8
0
 10
328.42813174
 20
3167.51899303
  0
SEQEND
  0
POLYLINE
  8
Default Layer
 66
   1
 39
0.000000
 70
    1
  0
VERTEX
  8
0
 10
-2068.26471697
 20
2167.12107963
  0
VERTEX
  8
0
 10
-2068.83585269
 20
2181.81530729
  0
VERTEX
  8
0
 10
-2069.36689658
 20
2196.51152090
  0
VERTEX
  8
0
 10
-2069.88190373
 20
2211.20852889
  0
VERTEX
  8
0
 10
-2070.40492925
 20
2225.90513969
  0
VERTEX
  8
0
 10
-2070.96002823
 20
2240.60016173
  0
VERTEX
  8
0
 10
-2071.25712249
 20
2247.94670460
  0
VERTEX
  8
0
 10
-2071.57125578
 20
2255.29240344
  0
VERTEX
  8
0
 10
-2071.90543499
 20
2262.63710932
  0
VERTEX
  8
0
 10
-2072.26266700
 20
2269.98067327
  0
VERTEX
  8
0
 10
-2072.64595870
 20
2277.32294636
  0
VERTEX
  8
0
 10
-2073.05831697
 20
2284.66377963
  0
VERTEX
  8
0
 10
-2073.50573265
 20
2292.05556840
  0
VERTEX
  8
0
 10
-2073.98967300
 20
2299.54413307
  0
VERTEX
  8
0
 10
-2074.50635963
 20
2307.11946233
  0
VERTEX
  8
0
 10
-2075.05201410
 20
2314.77154488
  0
VERTEX
  8
0
 10
-2075.62285801
 20
2322.49036944
  0
VERTEX
  8
0
 10
-2076.21511294
 20
2330.26592469
  0
VERTEX
  8
0
 10
-2077.44874220
 20
2345.94718208
  0
VERTEX
  8
0
 10
-2078.72267455
 20
2361.73522666
  0
VERTEX
  8
0
 10
-2080.00668268
 20
2377.54996805
  0
VERTEX
  8
0
 10
-2081.27053926
 20
2393.31131584
  0
VERTEX
  8
0
 10
-2082.48401697
 20
2408.93917963
  0
VERTEX
  8
0
 10
-2087.72641697
 20
2490.44887963
  0
VERTEX
  8
0
 10
-2088.54180795
 20
2501.94679999
  0
VERTEX
  8
0
 10
-2089.38711460
 20
2513.53248156
  0
VERTEX
  8
0
 10
-2091.09567732
 20
2536.75650145
  0
VERTEX
  8
0
 10
-2091.92303456
 20
2548.28952629
  0
VERTEX
  8
0
 10
-2092.70850986
 20
2559.69968543
  0
VERTEX
  8
0
 10
-2093.43415380
 20
2570.93432212
  0
VERTEX
  8
0
 10
-2093.76892982
 20
2576.46936432
  0
VERTEX
  8
0
 10
-2094.08201697
 20
2581.94077963
  0
VERTEX
  8
0
 10
-2094.67861807
 20
2592.81646801
  0
VERTEX
  8
0
 10
-2095.25524249
 20
2603.69392878
  0
VERTEX
  8
0
 10
-2095.80109091
 20
2614.57320239
  0
VERTEX
  8
0
 10
-2096.30536403
 20
2625.45432932
  0
VERTEX
  8
0
 10
-2096.75726251
 20
2636.33735004
  0
VERTEX
  8
0
 10
-2096.96019648
 20
2641.77958322
  0
VERTEX
  8
0
 10
-2097.14598704
 20
2647.22230502
  0
VERTEX
  8
0
 10
-2097.31328429
 20
2652.66552050
  0
VERTEX
  8
0
 10
-2097.46073830
 20
2658.10923473
  0
VERTEX
  8
0
 10
-2097.58699917
 20
2663.55345275
  0
VERTEX
  8
0
 10
-2097.69071697
 20
2668.99817963
  0
VERTEX
  8
0
 10
-2097.77010556
 20
2674.74939463
  0
VERTEX
  8
0
 10
-2097.82513499
 20
2681.06794611
  0
VERTEX
  8
0
 10
-2097.85708971
 20
2687.88614278
  0
VERTEX
  8
0
 10
-2097.86725414
 20
2695.13629337
  0
VERTEX
  8
0
 10
-2097.85691271
 20
2702.75070659
  0
VERTEX
  8
0
 10
-2097.82734985
 20
2710.66169117
  0
VERTEX
  8
0
 10
-2097.77984999
 20
2718.80155583
  0
VERTEX
  8
0
 10
-2097.71569756
 20
2727.10260927
  0
VERTEX
  8
0
 10
-2097.54257269
 20
2743.91751742
  0
VERTEX
  8
0
 10
-2097.31825068
 20
2760.56488536
  0
VERTEX
  8
0
 10
-2097.05300697
 20
2776.50318284
  0
VERTEX
  8
0
 10
-2096.75711697
 20
2791.19087963
  0
VERTEX
  8
0
 10
-2096.58636289
 20
2798.16809665
  0
VERTEX
  8
0
 10
-2096.38470434
 20
2805.20813884
  0
VERTEX
  8
0
 10
-2096.15636490
 20
2812.29642248
  0
VERTEX
  8
0
 10
-2095.90556813
 20
2819.41836382
  0
VERTEX
  8
0
 10
-2095.63653763
 20
2826.55937913
  0
VERTEX
  8
0
 10
-2095.35349695
 20
2833.70488466
  0
VERTEX
  8
0
 10
-2094.76227937
 20
2847.95103143
  0
VERTEX
  8
0
 10
-2094.16570399
 20
2862.04013423
  0
VERTEX
  8
0
 10
-2093.59755941
 20
2875.85552314
  0
VERTEX
  8
0
 10
-2093.33470760
 20
2882.62411554
  0
VERTEX
  8
0
 10
-2093.09163421
 20
2889.28052824
  0
VERTEX
  8
0
 10
-2092.87256281
 20
2895.81017752
  0
VERTEX
  8
0
 10
-2092.68171697
 20
2902.19847963
  0
VERTEX
  8
0
 10
-2092.34448650
 20
2914.82444633
  0
VERTEX
  8
0
 10
-2092.03448180
 20
2927.45121808
  0
VERTEX
  8
0
 10
-2091.75228185
 20
2940.07870604
  0
VERTEX
  8
0
 10
-2091.49846562
 20
2952.70682137
  0
VERTEX
  8
0
 10
-2091.27361205
 20
2965.33547523
  0
VERTEX
  8
0
 10
-2091.07830011
 20
2977.96457879
  0
VERTEX
  8
0
 10
-2090.91310876
 20
2990.59404320
  0
VERTEX
  8
0
 10
-2090.77861697
 20
3003.22377963
  0
VERTEX
  8
0
 10
-2090.72634445
 20
3010.03551281
  0
VERTEX
  8
0
 10
-2090.68754663
 20
3017.77676476
  0
VERTEX
  8
0
 10
-2090.64479932
 20
3035.66319656
  0
VERTEX
  8
0
 10
-2090.63922358
 20
3056.11381810
  0
VERTEX
  8
0
 10
-2090.65966795
 20
3078.35937245
  0
VERTEX
  8
0
 10
-2090.73401109
 20
3125.15825194
  0
VERTEX
  8
0
 10
-2090.76560692
 20
3148.17306322
  0
VERTEX
  8
0
 10
-2090.77861697
 20
3169.90577963
  0
VERTEX
  8
0
 10
-2090.76527944
 20
3181.64951345
  0
VERTEX
  8
0
 10
-2090.71175594
 20
3193.58267010
  0
VERTEX
  8
0
 10
-2090.64215804
 20
3205.59159588
  0
VERTEX
  8
0
 10
-2090.58059734
 20
3217.56263710
  0
VERTEX
  8
0
 10
-2090.55118542
 20
3229.38214005
  0
VERTEX
  8
0
 10
-2090.55607013
 20
3235.19954789
  0
VERTEX
  8
0
 10
-2090.57803387
 20
3240.93645103
  0
VERTEX
  8
0
 10
-2090.62009061
 20
3246.57864275
  0
VERTEX
  8
0
 10
-2090.68525428
 20
3252.11191634
  0
VERTEX
  8
0
 10
-2090.77653883
 20
3257.52206509
  0
VERTEX
  8
0
 10
-2090.89695822
 20
3262.79488229
  0
VERTEX
  8
0
 10
-2091.04860479
 20
3267.99369375
  0
VERTEX
  8
0
 10
-2091.22954159
 20
3273.19137444
  0
VERTEX
  8
0
 10
-2091.43673857
 20
3278.38804133
  0
VERTEX
  8
0
 10
-2091.66716573
 20
3283.58381140
  0
VERTEX
  8
0
 10
-2091.91779305
 20
3288.77880162
  0
VERTEX
  8
0
 10
-2092.18559049
 20
3293.97312898
  0
VERTEX
  8
0
 10
-2092.76057566
 20
3304.36026298
  0
VERTEX
  8
0
 10
-2093.36788108
 20
3314.74614924
  0
VERTEX
  8
0
 10
-2093.98326656
 20
3325.13172356
  0
VERTEX
  8
0
 10
-2094.58249192
 20
3335.51792175
  0
VERTEX
  8
0
 10
-2095.14131697
 20
3345.90567963
  0
VERTEX
  8
0
 10
-2097.51121697
 20
3387.89927963
  0
VERTEX
  8
0
 10
-2247.79845787
 20
3387.89927963
  0
VERTEX
  8
0
 10
-2447.10521697
 20
3300.35364184
  0
VERTEX
  8
0
 10
-2447.10521697
 20
2167.04927963
  0
VERTEX
  8
0
 10
-2068.26471697
 20
2167.12107963
  0
SEQEND
  0
POLYLINE
  8
Default Layer
 66
   1
 39
0.000000
 70
    1
  0
VERTEX
  8
0
 10
578.39674855
 20
2143.26299048
  0
VERTEX
  8
0
 10
578.38394426
 20
3276.51258169
  0
VERTEX
  8
0
 10
378.43686789
 20
3365.39811115
  0
VERTEX
  8
0
 10
230.83144855
 20
3364.72339048
  0
VERTEX
  8
0
 10
229.81266294
 20
3355.64448812
  0
VERTEX
  8
0
 10
228.77796931
 20
3346.56726096
  0
VERTEX
  8
0
 10
226.69903725
 20
3328.41381175
  0
VERTEX
  8
0
 10
225.67388843
 20
3319.33557947
  0
VERTEX
  8
0
 10
224.67101084
 20
3310.25500191
  0
VERTEX
  8
0
 10
223.69994927
 20
3301.17107395
  0
VERTEX
  8
0
 10
222.77024855
 20
3292.08279048
  0
VERTEX
  8
0
 10
221.85105785
 20
3282.76290622
  0
VERTEX
  8
0
 10
220.91690189
 20
3273.07916920
  0
VERTEX
  8
0
 10
219.98538875
 20
3263.17306427
  0
VERTEX
  8
0
 10
219.07412653
 20
3253.18607627
  0
VERTEX
  8
0
 10
218.20072331
 20
3243.25969005
  0
VERTEX
  8
0
 10
217.38278718
 20
3233.53539045
  0
VERTEX
  8
0
 10
216.63792623
 20
3224.15466231
  0
VERTEX
  8
0
 10
215.98374855
 20
3215.25899048
  0
VERTEX
  8
0
 10
215.40559861
 20
3206.65131371
  0
VERTEX
  8
0
 10
214.87407111
 20
3198.04053516
  0
VERTEX
  8
0
 10
214.38464945
 20
3189.42708635
  0
VERTEX
  8
0
 10
213.93281707
 20
3180.81139875
  0
VERTEX
  8
0
 10
213.51405736
 20
3172.19390387
  0
VERTEX
  8
0
 10
213.12385376
 20
3163.57503321
  0
VERTEX
  8
0
 10
212.75768969
 20
3154.95521824
  0
VERTEX
  8
0
 10
212.41104855
 20
3146.33489048
  0
VERTEX
  8
0
 10
212.23000452
 20
3141.33469798
  0
VERTEX
  8
0
 10
212.02678684
 20
3135.04358949
  0
VERTEX
  8
0
 10
211.56300583
 20
3119.12279667
  0
VERTEX
  8
0
 10
211.03805613
 20
3099.64085631
  0
VERTEX
  8
0
 10
210.47028835
 20
3077.66611265
  0
VERTEX
  8
0
 10
209.27970098
 20
3030.51159255
  0
VERTEX
  8
0
 10
208.69358259
 20
3007.46850463
  0
VERTEX
  8
0
 10
208.13804855
 20
2986.20599048
  0
VERTEX
  8
0
 10
207.94662598
 20
2968.31340624
  0
VERTEX
  8
0
 10
207.73460263
 20
2950.08908932
  0
VERTEX
  8
0
 10
207.26776968
 20
2912.95147222
  0
VERTEX
  8
0
 10
206.77558192
 20
2875.40556875
  0
VERTEX
  8
0
 10
206.29607156
 20
2838.06380846
  0
VERTEX
  8
0
 10
206.07295548
 20
2819.66086625
  0
VERTEX
  8
0
 10
205.86727083
 20
2801.53862093
  0
VERTEX
  8
0
 10
205.68377164
 20
2783.77362618
  0
VERTEX
  8
0
 10
205.52721194
 20
2766.44243571
  0
VERTEX
  8
0
 10
205.40234575
 20
2749.62160321
  0
VERTEX
  8
0
 10
205.31392711
 20
2733.38768237
  0
VERTEX
  8
0
 10
205.26671003
 20
2717.81722690
  0
VERTEX
  8
0
 10
205.26544855
 20
2702.98679048
  0
VERTEX
  8
0
 10
205.30929903
 20
2688.55203546
  0
VERTEX
  8
0
 10
205.39159694
 20
2674.11756851
  0
VERTEX
  8
0
 10
205.50836497
 20
2659.68335984
  0
VERTEX
  8
0
 10
205.65562578
 20
2645.24937963
  0
VERTEX
  8
0
 10
205.82940207
 20
2630.81559809
  0
VERTEX
  8
0
 10
206.02571650
 20
2616.38198543
  0
VERTEX
  8
0
 10
206.24059176
 20
2601.94851183
  0
VERTEX
  8
0
 10
206.47005053
 20
2587.51514750
  0
VERTEX
  8
0
 10
206.95680932
 20
2558.64862745
  0
VERTEX
  8
0
 10
207.45417429
 20
2529.78218686
  0
VERTEX
  8
0
 10
207.93032689
 20
2500.91558734
  0
VERTEX
  8
0
 10
208.15050525
 20
2486.48215348
  0
VERTEX
  8
0
 10
208.35344855
 20
2472.04859048
  0
VERTEX
  8
0
 10
210.37410035
 20
2143.26299048
  0
VERTEX
  8
0
 10
578.39674855
 20
2143.26299048
  0
SEQEND
  0
POLYLINE
  8
Default Layer
 66
   1
 39
0.000000
 70
    1
  0
VERTEX
  8
0
 10
-1888.19462518
 20
1663.47949081
  0
VERTEX
  8
0
 10
-1888.19462518
 20
1788.47949081
  0
VERTEX
  8
0
 10
40.00537482
 20
1788.47949081
  0
VERTEX
  8
0
 10
40.00537482
 20
1663.47949081
  0
VERTEX
  8
0
 10
-1888.19462518
 20
1663.47949081
  0
SEQEND
  0
POLYLINE
  8
Default Layer
 66
   1
 39
0.000000
 70
    1
  0
VERTEX
  8
0
 10
-1888.19462518
 20
1796.57949081
  0
VERTEX
  8
0
 10
-1888.19462518
 20
1921.57949081
  0
VERTEX
  8
0
 10
40.00537482
 20
1921.57949081
  0
VERTEX
  8
0
 10
40.00537482
 20
1796.57949081
  0
VERTEX
  8
0
 10
-1888.19462518
 20
1796.57949081
  0
SEQEND
  0
POLYLINE
  8
Default Layer
 66
   1
 39
0.000000
 70
    1
  0
VERTEX
  8
0
 10
-1888.19462518
 20
1929.67949081
  0
VERTEX
  8
0
 10
-1888.19462518
 20
2054.67949081
  0
VERTEX
  8
0
 10
40.00537482
 20
2054.67949081
  0
VERTEX
  8
0
 10
40.00537482
 20
1929.67949081
  0
VERTEX
  8
0
 10
-1888.19462518
 20
1929.67949081
  0
SEQEND
  0
POLYLINE
  8
Default Layer
 66
   1
 39
0.000000
 70
    1
  0
VERTEX
  8
0
 10
-622.94415366
 20
2997.88074588
  0
VERTEX
  8
0
 10
-289.64415366
 20
2997.87921421
  0
VERTEX
  8
0
 10
15.29838105
 20
2997.87781285
  0
VERTEX
  8
0
 10
15.28075131
 20
3098.88880833
  0
VERTEX
  8
0
 10
27.30246741
 20
3098.88880833
  0
VERTEX
  8
0
 10
27.30246741
 20
3246.88880833
  0
VERTEX
  8
0
 10
15.25492043
 20
3246.88880833
  0
VERTEX
  8
0
 10
15.23391854
 20
3359.77866226
  0
VERTEX
  8
0
 10
-1888.92219278
 20
3349.77781139
  0
VERTEX
  8
0
 10
-1888.92226207
 20
3196.88814969
  0
VERTEX
  8
0
 10
-1900.91552570
 20
3196.88814969
  0
VERTEX
  8
0
 10
-1900.91552570
 20
3098.88814969
  0
VERTEX
  8
0
 10
-1888.92230511
 20
3098.88814969
  0
VERTEX
  8
0
 10
-1888.92234948
 20
2997.88656364
  0
VERTEX
  8
0
 10
-1585.94415366
 20
2997.88517131
  0
VERTEX
  8
0
 10
-1252.64415366
 20
2997.88363964
  0
VERTEX
  8
0
 10
-943.94415366
 20
2997.88222102
  0
VERTEX
  8
0
 10
-943.94415366
 20
3167.89228175
  0
VERTEX
  8
0
 10
-931.64415366
 20
3167.89228175
  0
VERTEX
  8
0
 10
-931.64415366
 20
2997.88216450
  0
VERTEX
  8
0
 10
-622.94415366
 20
2997.88074588
  0
SEQEND
  0
POLYLINE
  8
Default Layer
 66
   1
 39
0.000000
 70
    1
  0
VERTEX
  8
0
 10
17.63005193
 20
2253.69699300
  0
VERTEX
  8
0
 10
29.65176803
 20
2253.69699300
  0
VERTEX
  8
0
 10
29.65176803
 20
2401.69699300
  0
VERTEX
  8
0
 10
17.60422106
 20
2401.69699300
  0
VERTEX
  8
0
 10
17.58321916
 20
2522.02899190
  0
VERTEX
  8
0
 10
-8.69840169
 20
2521.30280140
  0
VERTEX
  8
0
 10
-35.78768061
 20
2520.58435780
  0
VERTEX
  8
0
 10
-90.45083330
 20
2519.15211876
  0
VERTEX
  8
0
 10
-117.05551738
 20
2518.42902702
  0
VERTEX
  8
0
 10
-142.52948016
 20
2517.69508960
  0
VERTEX
  8
0
 10
-154.69100518
 20
2517.32260122
  0
VERTEX
  8
0
 10
-166.38812680
 20
2516.94565836
  0
VERTEX
  8
0
 10
-177.56027067
 20
2516.56368000
  0
VERTEX
  8
0
 10
-188.14686245
 20
2516.17608514
  0
VERTEX
  8
0
 10
-198.41997774
 20
2515.77359823
  0
VERTEX
  8
0
 10
-208.69214075
 20
2515.34886531
  0
VERTEX
  8
0
 10
-218.96345000
 20
2514.90418768
  0
VERTEX
  8
0
 10
-229.23400398
 20
2514.44186666
  0
VERTEX
  8
0
 10
-249.77324022
 20
2513.47349969
  0
VERTEX
  8
0
 10
-270.31063758
 20
2512.46217490
  0
VERTEX
  8
0
 10
-311.38306800
 20
2510.38429381
  0
VERTEX
  8
0
 10
-331.91967725
 20
2509.35455852
  0
VERTEX
  8
0
 10
-352.45760000
 20
2508.35550739
  0
VERTEX
  8
0
 10
-476.35476693
 20
2501.85268315
  0
VERTEX
  8
0
 10
-607.86439641
 20
2495.70753030
  0
VERTEX
  8
0
 10
-623.40669150
 20
2495.01231982
  0
VERTEX
  8
0
 10
-638.94759197
 20
2494.27680913
  0
VERTEX
  8
0
 10
-654.48793460
 20
2493.52517835
  0
VERTEX
  8
0
 10
-670.02855616
 20
2492.78160761
  0
VERTEX
  8
0
 10
-685.57029340
 20
2492.07027704
  0
VERTEX
  8
0
 10
-693.34184190
 20
2491.73425812
  0
VERTEX
  8
0
 10
-701.11398311
 20
2491.41536679
  0
VERTEX
  8
0
 10
-708.88682163
 20
2491.11662556
  0
VERTEX
  8
0
 10
-716.66046205
 20
2490.84105697
  0
VERTEX
  8
0
 10
-724.43500897
 20
2490.59168351
  0
VERTEX
  8
0
 10
-732.21056699
 20
2490.37152772
  0
VERTEX
  8
0
 10
-747.94816198
 20
2489.97414457
  0
VERTEX
  8
0
 10
-763.96617136
 20
2489.61175281
  0
VERTEX
  8
0
 10
-772.03796496
 20
2489.44911613
  0
VERTEX
  8
0
 10
-780.12902238
 20
2489.30175221
  0
VERTEX
  8
0
 10
-788.22239701
 20
2489.17183603
  0
VERTEX
  8
0
 10
-796.30114226
 20
2489.06154255
  0
VERTEX
  8
0
 10
-804.34831154
 20
2488.97304674
  0
VERTEX
  8
0
 10
-812.34695824
 20
2488.90852358
  0
VERTEX
  8
0
 10
-820.28013578
 20
2488.87014804
  0
VERTEX
  8
0
 10
-828.13089756
 20
2488.86009508
  0
VERTEX
  8
0
 10
-835.88229698
 20
2488.88053969
  0
VERTEX
  8
0
 10
-843.51738744
 20
2488.93365682
  0
VERTEX
  8
0
 10
-851.01922235
 20
2489.02162146
  0
VERTEX
  8
0
 10
-858.37085512
 20
2489.14660858
  0
VERTEX
  8
0
 10
-865.64083792
 20
2489.31683107
  0
VERTEX
  8
0
 10
-872.90913677
 20
2489.53569715
  0
VERTEX
  8
0
 10
-880.17592587
 20
2489.79817471
  0
VERTEX
  8
0
 10
-887.44137944
 20
2490.09923166
  0
VERTEX
  8
0
 10
-894.70567167
 20
2490.43383592
  0
VERTEX
  8
0
 10
-901.96897675
 20
2490.79695537
  0
VERTEX
  8
0
 10
-909.23146890
 20
2491.18355794
  0
VERTEX
  8
0
 10
-916.49332232
 20
2491.58861152
  0
VERTEX
  8
0
 10
-931.01580973
 20
2492.43394334
  0
VERTEX
  8
0
 10
-945.53783262
 20
2493.29269408
  0
VERTEX
  8
0
 10
-960.06078457
 20
2494.12460698
  0
VERTEX
  8
0
 10
-967.32304445
 20
2494.51791900
  0
VERTEX
  8
0
 10
-974.58605920
 20
2494.88942528
  0
VERTEX
  8
0
 10
-994.71353570
 20
2495.95784495
  0
VERTEX
  8
0
 10
-1014.83955646
 20
2497.05718640
  0
VERTEX
  8
0
 10
-1055.09072455
 20
2499.27442234
  0
VERTEX
  8
0
 10
-1075.21761875
 20
2500.35521072
  0
VERTEX
  8
0
 10
-1095.34655097
 20
2501.39270862
  0
VERTEX
  8
0
 10
-1105.41205429
 20
2501.88942581
  0
VERTEX
  8
0
 10
-1115.47839465
 20
2502.36836298
  0
VERTEX
  8
0
 10
-1125.54568124
 20
2502.82720100
  0
VERTEX
  8
0
 10
-1135.61402323
 20
2503.26362073
  0
VERTEX
  8
0
 10
-1145.83563480
 20
2503.68099064
  0
VERTEX
  8
0
 10
-1156.34295340
 20
2504.08513723
  0
VERTEX
  8
0
 10
-1167.10642313
 20
2504.47742844
  0
VERTEX
  8
0
 10
-1178.09648810
 20
2504.85923218
  0
VERTEX
  8
0
 10
-1200.63818013
 20
2505.59684901
  0
VERTEX
  8
0
 10
-1223.73158229
 20
2506.30893115
  0
VERTEX
  8
0
 10
-1270.62772820
 20
2507.70026513
  0
VERTEX
  8
0
 10
-1293.95757756
 20
2508.40140384
  0
VERTEX
  8
0
 10
-1316.89334826
 20
2509.12078161
  0
VERTEX
  8
0
 10
-1332.45893428
 20
2509.44608150
  0
VERTEX
  8
0
 10
-1348.02408641
 20
2509.81036945
  0
VERTEX
  8
0
 10
-1363.58906498
 20
2510.19025263
  0
VERTEX
  8
0
 10
-1379.15413034
 20
2510.56233820
  0
VERTEX
  8
0
 10
-1394.71954280
 20
2510.90323332
  0
VERTEX
  8
0
 10
-1402.50246056
 20
2511.05467419
  0
VERTEX
  8
0
 10
-1410.28556272
 20
2511.18954514
  0
VERTEX
  8
0
 10
-1418.06888183
 20
2511.30492206
  0
VERTEX
  8
0
 10
-1425.85245042
 20
2511.39788084
  0
VERTEX
  8
0
 10
-1433.63630105
 20
2511.46549737
  0
VERTEX
  8
0
 10
-1441.42046625
 20
2511.50484756
  0
VERTEX
  8
0
 10
-1449.43534937
 20
2511.51100277
  0
VERTEX
  8
0
 10
-1457.88158369
 20
2511.48331759
  0
VERTEX
  8
0
 10
-1466.71454668
 20
2511.42529275
  0
VERTEX
  8
0
 10
-1475.88961580
 20
2511.34042898
  0
VERTEX
  8
0
 10
-1485.36216850
 20
2511.23222700
  0
VERTEX
  8
0
 10
-1495.08758226
 20
2511.10418756
  0
VERTEX
  8
0
 10
-1515.11850278
 20
2510.80259919
  0
VERTEX
  8
0
 10
-1556.25128474
 20
2510.11540492
  0
VERTEX
  8
0
 10
-1576.63918556
 20
2509.78581071
  0
VERTEX
  8
0
 10
-1596.43211921
 20
2509.50289289
  0
VERTEX
  8
0
 10
-1886.57289216
 20
2509.43868238
  0
VERTEX
  8
0
 10
-1886.57296145
 20
2351.69633437
  0
VERTEX
  8
0
 10
-1898.56622508
 20
2351.69633437
  0
VERTEX
  8
0
 10
-1898.56622508
 20
2253.69633437
  0
VERTEX
  8
0
 10
-1886.57300449
 20
2253.69633437
  0
VERTEX
  8
0
 10
-1886.57304886
 20
2152.69474832
  0
VERTEX
  8
0
 10
17.64768167
 20
2152.68599753
  0
VERTEX
  8
0
 10
17.63005193
 20
2253.69699300
  0
SEQEND
  0
POLYLINE
  8
Default Layer
 66
   1
 39
0.000000
 70
    1
  0
VERTEX
  8
0
 10
-940.86579439
 20
2251.70579429
  0
VERTEX
  8
0
 10
-928.86579439
 20
2251.70579429
  0
VERTEX
  8
0
 10
-928.86579439
 20
2354.29419598
  0
VERTEX
  8
0
 10
-940.86579439
 20
2354.29419598
  0
VERTEX
  8
0
 10
-940.86579439
 20
2251.70579429
  0
SEQEND
  0
POLYLINE
  8
Default Layer
 66
   1
 39
0.000000
 70
    1
  0
VERTEX
  8
0
 10
-929.67164651
 20
2616.01566824
  0
VERTEX
  8
0
 10
-929.67164651
 20
2788.47974102
  0
VERTEX
  8
0
 10
-941.67164651
 20
2788.47974102
  0
VERTEX
  8
0
 10
-941.67164651
 20
2616.01572338
  0
VERTEX
  8
0
 10
-1886.69442083
 20
2616.02006620
  0
VERTEX
  8
0
 10
-1886.69437646
 20
2717.02165226
  0
VERTEX
  8
0
 10
-1898.68759705
 20
2717.02165226
  0
VERTEX
  8
0
 10
-1898.68759705
 20
2815.02165226
  0
VERTEX
  8
0
 10
-1886.69433342
 20
2815.02165226
  0
VERTEX
  8
0
 10
-1886.69426413
 20
2968.08462418
  0
VERTEX
  8
0
 10
17.46184719
 20
2986.90004964
  0
VERTEX
  8
0
 10
17.48284908
 20
2865.02231089
  0
VERTEX
  8
0
 10
29.53039606
 20
2865.02231089
  0
VERTEX
  8
0
 10
29.53039606
 20
2717.02231089
  0
VERTEX
  8
0
 10
17.50867996
 20
2717.02231089
  0
VERTEX
  8
0
 10
17.52630970
 20
2616.01131542
  0
VERTEX
  8
0
 10
-929.67164651
 20
2616.01566824
  0
SEQEND
  0
POLYLINE
  8
Default Layer
 66
   1
 39
0.000000
 70
    1
  0
VERTEX
  8
0
 10
-740.83816814
 20
3877.20495050
  0
VERTEX
  8
0
 10
-902.33692480
 20
3877.20495050
  0
VERTEX
  8
0
 10
-902.33692480
 20
3889.50495050
  0
VERTEX
  8
0
 10
-715.80792079
 20
3889.50495050
  0
VERTEX
  8
0
 10
-715.72540381
 20
3892.37036808
  0
VERTEX
  8
0
 10
-715.38817333
 20
3904.99633477
  0
VERTEX
  8
0
 10
-715.07816864
 20
3917.62310652
  0
VERTEX
  8
0
 10
-714.79596869
 20
3930.25059448
  0
VERTEX
  8
0
 10
-714.54215245
 20
3942.87870981
  0
VERTEX
  8
0
 10
-714.31729888
 20
3955.50736368
  0
VERTEX
  8
0
 10
-714.12198694
 20
3968.13646724
  0
VERTEX
  8
0
 10
-713.95679560
 20
3980.76593165
  0
VERTEX
  8
0
 10
-713.82230381
 20
3993.39566808
  0
VERTEX
  8
0
 10
-713.77003129
 20
4000.20740125
  0
VERTEX
  8
0
 10
-713.73123346
 20
4007.94865321
  0
VERTEX
  8
0
 10
-713.68848616
 20
4025.83508500
  0
VERTEX
  8
0
 10
-713.68291042
 20
4046.28570654
  0
VERTEX
  8
0
 10
-713.70335478
 20
4068.53126090
  0
VERTEX
  8
0
 10
-713.77769793
 20
4115.33014038
  0
VERTEX
  8
0
 10
-713.80929376
 20
4138.34495167
  0
VERTEX
  8
0
 10
-713.82230381
 20
4160.07766808
  0
VERTEX
  8
0
 10
-713.81228255
 20
4170.68828528
  0
VERTEX
  8
0
 10
-713.76704052
 20
4181.46276125
  0
VERTEX
  8
0
 10
-902.42026342
 20
4181.46276125
  0
VERTEX
  8
0
 10
-902.42026342
 20
4193.76276125
  0
VERTEX
  8
0
 10
-713.69760284
 20
4193.76276125
  0
VERTEX
  8
0
 10
-713.61838822
 20
4209.21795220
  0
VERTEX
  8
0
 10
-713.59752348
 20
4216.85910372
  0
VERTEX
  8
0
 10
-713.59782112
 20
4224.40150423
  0
VERTEX
  8
0
 10
-713.62578160
 20
4231.81431246
  0
VERTEX
  8
0
 10
-713.68790543
 20
4239.06668714
  0
VERTEX
  8
0
 10
-713.79069308
 20
4246.12778698
  0
VERTEX
  8
0
 10
-713.94064506
 20
4252.96677073
  0
VERTEX
  8
0
 10
-714.09229163
 20
4258.16558220
  0
VERTEX
  8
0
 10
-714.27322842
 20
4263.36326289
  0
VERTEX
  8
0
 10
-714.48042541
 20
4268.55992978
  0
VERTEX
  8
0
 10
-714.71085257
 20
4273.75569984
  0
VERTEX
  8
0
 10
-714.96147988
 20
4278.95069007
  0
VERTEX
  8
0
 10
-715.22927732
 20
4284.14501742
  0
VERTEX
  8
0
 10
-715.80426250
 20
4294.53215143
  0
VERTEX
  8
0
 10
-716.41156792
 20
4304.91803768
  0
VERTEX
  8
0
 10
-717.02695340
 20
4315.30361200
  0
VERTEX
  8
0
 10
-717.62617875
 20
4325.68981019
  0
VERTEX
  8
0
 10
-718.18500381
 20
4336.07756808
  0
VERTEX
  8
0
 10
-720.55490381
 20
4378.07116808
  0
VERTEX
  8
0
 10
-870.84214471
 20
4378.07116808
  0
VERTEX
  8
0
 10
-1070.14890381
 20
4290.52553029
  0
VERTEX
  8
0
 10
-1070.14890381
 20
4181.44797582
  0
VERTEX
  8
0
 10
-1023.21474349
 20
4181.45101428
  0
VERTEX
  8
0
 10
-1023.21474349
 20
4162.45101428
  0
VERTEX
  8
0
 10
-1070.14890381
 20
4162.45101428
  0
VERTEX
  8
0
 10
-1070.14890381
 20
3877.05219829
  0
VERTEX
  8
0
 10
-1023.21474349
 20
3877.05523675
  0
VERTEX
  8
0
 10
-1023.21474349
 20
3858.05523675
  0
VERTEX
  8
0
 10
-1070.14890381
 20
3858.05523675
  0
VERTEX
  8
0
 10
-1070.14890381
 20
3489.55863062
  0
VERTEX
  8
0
 10
-970.17347255
 20
3489.55863062
  0
VERTEX
  8
0
 10
-970.17347255
 20
3477.23855730
  0
VERTEX
  8
0
 10
-870.17347255
 20
3477.23855730
  0
VERTEX
  8
0
 10
-870.17347255
 20
3489.55863062
  0
VERTEX
  8
0
 10
-731.45594977
 20
3489.55863062
  0
VERTEX
  8
0
 10
-731.54545255
 20
3490.94011167
  0
VERTEX
  8
0
 10
-731.62761021
 20
3492.47924605
  0
VERTEX
  8
0
 10
-731.77057236
 20
3496.01100786
  0
VERTEX
  8
0
 10
-731.88620068
 20
3500.11498214
  0
VERTEX
  8
0
 10
-731.97585959
 20
3504.75223499
  0
VERTEX
  8
0
 10
-732.04091356
 20
3509.88383250
  0
VERTEX
  8
0
 10
-732.08272702
 20
3515.47084074
  0
VERTEX
  8
0
 10
-732.10266442
 20
3521.47432583
  0
VERTEX
  8
0
 10
-732.10209021
 20
3527.85535383
  0
VERTEX
  8
0
 10
-732.08236883
 20
3534.57499085
  0
VERTEX
  8
0
 10
-732.04486473
 20
3541.59430297
  0
VERTEX
  8
0
 10
-731.92196613
 20
3556.37621687
  0
VERTEX
  8
0
 10
-731.74430998
 20
3571.88962426
  0
VERTEX
  8
0
 10
-731.52281184
 20
3587.82305385
  0
VERTEX
  8
0
 10
-731.26838728
 20
3603.86503435
  0
VERTEX
  8
0
 10
-730.99195186
 20
3619.70409448
  0
VERTEX
  8
0
 10
-730.70442114
 20
3635.02876297
  0
VERTEX
  8
0
 10
-730.41671069
 20
3649.52756852
  0
VERTEX
  8
0
 10
-729.88441282
 20
3674.80170568
  0
VERTEX
  8
0
 10
-729.48238276
 20
3693.03473569
  0
VERTEX
  8
0
 10
-729.36225718
 20
3697.14293880
  0
VERTEX
  8
0
 10
-729.22661907
 20
3700.65460536
  0
VERTEX
  8
0
 10
-729.07189947
 20
3704.16548404
  0
VERTEX
  8
0
 10
-728.76913333
 20
3710.30551192
  0
VERTEX
  8
0
 10
-728.43708791
 20
3716.44403268
  0
VERTEX
  8
0
 10
-727.92724523
 20
3725.22254077
  0
VERTEX
  8
0
 10
-727.38622647
 20
3733.99919122
  0
VERTEX
  8
0
 10
-726.78566730
 20
3743.32797788
  0
VERTEX
  8
0
 10
-726.16387377
 20
3752.65537363
  0
VERTEX
  8
0
 10
-725.52352883
 20
3761.98152053
  0
VERTEX
  8
0
 10
-724.86731547
 20
3771.30656064
  0
VERTEX
  8
0
 10
-723.64629176
 20
3788.14792704
  0
VERTEX
  8
0
 10
-722.38112212
 20
3804.98603894
  0
VERTEX
  8
0
 10
-722.26681827
 20
3806.47454991
  0
VERTEX
  8
0
 10
-740.83816814
 20
3806.47454991
  0
VERTEX
  8
0
 10
-740.83816814
 20
3877.20495050
  0
SEQEND
  0
POLYLINE
  8
Default Layer
 66
   1
 39
0.000000
 70
    0
  0
VERTEX
  8
0
 10
-2358.98891594
 20
3087.54006687
  0
VERTEX
  8
0
 10
-2392.85558260
 20
3087.54006687
  0
VERTEX
  8
0
 10
-2392.85558260
 20
3036.74006687
  0
SEQEND
  0
POLYLINE
  8
Default Layer
 66
   1
 39
0.000000
 70
    0
  0
VERTEX
  8
0
 10
-2375.92224927
 20
3062.14006687
  0
VERTEX
  8
0
 10
-2392.85558260
 20
3062.14006687
  0
SEQEND
  0
POLYLINE
  8
Default Layer
 66
   1
 39
0.000000
 70
    0
  0
VERTEX
  8
0
 10
-2342.05558260
 20
3062.14006687
  0
VERTEX
  8
0
 10
-2316.65558260
 20
3062.14006687
  0
VERTEX
  8
0
 10
-2308.18891594
 20
3070.60673354
  0
VERTEX
  8
0
 10
-2308.18891594
 20
3079.07340021
  0
VERTEX
  8
0
 10
-2316.65558260
 20
3087.54006687
  0
VERTEX
  8
0
 10
-2342.05558260
 20
3087.54006687
  0
VERTEX
  8
0
 10
-2342.05558260
 20
3036.74006687
  0
SEQEND
  0
POLYLINE
  8
Default Layer
 66
   1
 39
0.000000
 70
    0
  0
VERTEX
  8
0
 10
-2308.18891594
 20
3036.74006687
  0
VERTEX
  8
0
 10
-2333.58891594
 20
3062.14006687
  0
SEQEND
  0
POLYLINE
  8
Default Layer
 66
   1
 39
0.000000
 70
    1
  0
VERTEX
  8
0
 10
-2291.25558260
 20
3036.74006687
  0
VERTEX
  8
0
 10
-2257.38891594
 20
3036.74006687
  0
VERTEX
  8
0
 10
-2257.38891594
 20
3087.54006687
  0
VERTEX
  8
0
 10
-2291.25558260
 20
3087.54006687
  0
VERTEX
  8
0
 10
-2291.25558260
 20
3036.74006687
  0
SEQEND
  0
POLYLINE
  8
Default Layer
 66
   1
 39
0.000000
 70
    0
  0
VERTEX
  8
0
 10
-2206.58891594
 20
3087.54006687
  0
VERTEX
  8
0
 10
-2206.58891594
 20
3036.74006687
  0
VERTEX
  8
0
 10
-2240.45558260
 20
3087.54006687
  0
VERTEX
  8
0
 10
-2240.45558260
 20
3036.74006687
  0
SEQEND
  0
POLYLINE
  8
Default Layer
 66
   1
 39
0.000000
 70
    0
  0
VERTEX
  8
0
 10
-2155.78891594
 20
3087.54006687
  0
VERTEX
  8
0
 10
-2189.65558260
 20
3087.54006687
  0
SEQEND
  0
POLYLINE
  8
Default Layer
 66
   1
 39
0.000000
 70
    0
  0
VERTEX
  8
0
 10
-2172.72224927
 20
3036.74006687
  0
VERTEX
  8
0
 10
-2172.72224927
 20
3087.54006687
  0
SEQEND
  0
POLYLINE
  8
Default Layer
 66
   1
 39
0.000000
 70
    0
  0
VERTEX
  8
0
 10
274.50809750
 20
3024.49501806
  0
VERTEX
  8
0
 10
299.90809750
 20
3024.49501806
  0
VERTEX
  8
0
 10
308.37476416
 20
3032.96168473
  0
VERTEX
  8
0
 10
308.37476416
 20
3041.42835139
  0
VERTEX
  8
0
 10
299.90809750
 20
3049.89501806
  0
VERTEX
  8
0
 10
274.50809750
 20
3049.89501806
  0
VERTEX
  8
0
 10
274.50809750
 20
2999.09501806
  0
SEQEND
  0
POLYLINE
  8
Default Layer
 66
   1
 39
0.000000
 70
    0
  0
VERTEX
  8
0
 10
308.37476416
 20
2999.09501806
  0
VERTEX
  8
0
 10
282.97476416
 20
3024.49501806
  0
SEQEND
  0
POLYLINE
  8
Default Layer
 66
   1
 39
0.000000
 70
    0
  0
VERTEX
  8
0
 10
359.17476416
 20
3049.89501806
  0
VERTEX
  8
0
 10
325.30809750
 20
3049.89501806
  0
VERTEX
  8
0
 10
325.30809750
 20
2999.09501806
  0
VERTEX
  8
0
 10
359.17476416
 20
2999.09501806
  0
SEQEND
  0
POLYLINE
  8
Default Layer
 66
   1
 39
0.000000
 70
    0
  0
VERTEX
  8
0
 10
342.24143083
 20
3024.49501806
  0
VERTEX
  8
0
 10
325.30809750
 20
3024.49501806
  0
SEQEND
  0
POLYLINE
  8
Default Layer
 66
   1
 39
0.000000
 70
    0
  0
VERTEX
  8
0
 10
409.97476416
 20
2999.09501806
  0
VERTEX
  8
0
 10
409.97476416
 20
3016.02835139
  0
VERTEX
  8
0
 10
393.04143083
 20
3049.89501806
  0
VERTEX
  8
0
 10
376.10809750
 20
3016.02835139
  0
VERTEX
  8
0
 10
376.10809750
 20
2999.09501806
  0
SEQEND
  0
POLYLINE
  8
Default Layer
 66
   1
 39
0.000000
 70
    0
  0
VERTEX
  8
0
 10
409.97476416
 20
3016.02835139
  0
VERTEX
  8
0
 10
376.10809750
 20
3016.02835139
  0
SEQEND
  0
POLYLINE
  8
Default Layer
 66
   1
 39
0.000000
 70
    0
  0
VERTEX
  8
0
 10
426.90809750
 20
3024.49501806
  0
VERTEX
  8
0
 10
452.30809750
 20
3024.49501806
  0
VERTEX
  8
0
 10
460.77476416
 20
3032.96168473
  0
VERTEX
  8
0
 10
460.77476416
 20
3041.42835139
  0
VERTEX
  8
0
 10
452.30809750
 20
3049.89501806
  0
VERTEX
  8
0
 10
426.90809750
 20
3049.89501806
  0
VERTEX
  8
0
 10
426.90809750
 20
2999.09501806
  0
SEQEND
  0
POLYLINE
  8
Default Layer
 66
   1
 39
0.000000
 70
    0
  0
VERTEX
  8
0
 10
460.77476416
 20
2999.09501806
  0
VERTEX
  8
0
 10
435.37476416
 20
3024.49501806
  0
SEQEND
  0
POLYLINE
  8
Default Layer
 66
   1
 39
0.000000
 70
    0
  0
VERTEX
  8
0
 10
-1699.42847713
 20
2081.23630363
  0
VERTEX
  8
0
 10
-1733.29514380
 20
2081.23630363
  0
VERTEX
  8
0
 10
-1733.29514380
 20
2098.16963696
  0
VERTEX
  8
0
 10
-1724.82847713
 20
2106.63630363
  0
VERTEX
  8
0
 10
-1707.89514380
 20
2106.63630363
  0
VERTEX
  8
0
 10
-1699.42847713
 20
2115.10297030
  0
VERTEX
  8
0
 10
-1699.42847713
 20
2123.56963696
  0
VERTEX
  8
0
 10
-1707.89514380
 20
2132.03630363
  0
VERTEX
  8
0
 10
-1724.82847713
 20
2132.03630363
  0
VERTEX
  8
0
 10
-1733.29514380
 20
2123.56963696
  0
SEQEND
  0
POLYLINE
  8
Default Layer
 66
   1
 39
0.000000
 70
    0
  0
VERTEX
  8
0
 10
-1648.62847713
 20
2132.03630363
  0
VERTEX
  8
0
 10
-1682.49514380
 20
2081.23630363
  0
SEQEND
  0
POLYLINE
  8
Default Layer
 66
   1
 39
0.000000
 70
    0
  0
VERTEX
  8
0
 10
-1648.62847713
 20
2081.23630363
  0
VERTEX
  8
0
 10
-1682.49514380
 20
2132.03630363
  0
SEQEND
  0
POLYLINE
  8
Default Layer
 66
   1
 39
0.000000
 70
    0
  0
VERTEX
  8
0
 10
-1623.22847713
 20
2081.23630363
  0
VERTEX
  8
0
 10
-1623.22847713
 20
2132.03630363
  0
VERTEX
  8
0
 10
-1631.69514380
 20
2123.56963696
  0
SEQEND
  0
POLYLINE
  8
Default Layer
 66
   1
 39
0.000000
 70
    0
  0
VERTEX
  8
0
 10
-1614.76181047
 20
2081.23630363
  0
VERTEX
  8
0
 10
-1631.69514380
 20
2081.23630363
  0
SEQEND
  0
POLYLINE
  8
Default Layer
 66
   1
 39
0.000000
 70
    0
  0
VERTEX
  8
0
 10
-1513.16181047
 20
2132.03630363
  0
VERTEX
  8
0
 10
-1547.02847713
 20
2132.03630363
  0
VERTEX
  8
0
 10
-1547.02847713
 20
2081.23630363
  0
SEQEND
  0
POLYLINE
  8
Default Layer
 66
   1
 39
0.000000
 70
    0
  0
VERTEX
  8
0
 10
-1530.09514380
 20
2106.63630363
  0
VERTEX
  8
0
 10
-1547.02847713
 20
2106.63630363
  0
SEQEND
  0
POLYLINE
  8
Default Layer
 66
   1
 39
0.000000
 70
    0
  0
VERTEX
  8
0
 10
-1462.36181047
 20
2081.23630363
  0
VERTEX
  8
0
 10
-1496.22847713
 20
2081.23630363
  0
VERTEX
  8
0
 10
-1496.22847713
 20
2132.03630363
  0
SEQEND
  0
POLYLINE
  8
Default Layer
 66
   1
 39
0.000000
 70
    0
  0
VERTEX
  8
0
 10
-1411.56181047
 20
2081.23630363
  0
VERTEX
  8
0
 10
-1411.56181047
 20
2098.16963696
  0
VERTEX
  8
0
 10
-1428.49514380
 20
2132.03630363
  0
VERTEX
  8
0
 10
-1445.42847713
 20
2098.16963696
  0
VERTEX
  8
0
 10
-1445.42847713
 20
2081.23630363
  0
SEQEND
  0
POLYLINE
  8
Default Layer
 66
   1
 39
0.000000
 70
    0
  0
VERTEX
  8
0
 10
-1411.56181047
 20
2098.16963696
  0
VERTEX
  8
0
 10
-1445.42847713
 20
2098.16963696
  0
SEQEND
  0
POLYLINE
  8
Default Layer
 66
   1
 39
0.000000
 70
    0
  0
VERTEX
  8
0
 10
-1360.76181047
 20
2132.03630363
  0
VERTEX
  8
0
 10
-1394.62847713
 20
2132.03630363
  0
SEQEND
  0
POLYLINE
  8
Default Layer
 66
   1
 39
0.000000
 70
    0
  0
VERTEX
  8
0
 10
-1377.69514380
 20
2081.23630363
  0
VERTEX
  8
0
 10
-1377.69514380
 20
2132.03630363
  0
SEQEND
  0
POLYLINE
  8
Default Layer
 66
   1
 39
0.000000
 70
    0
  0
VERTEX
  8
0
 10
-1259.16181047
 20
2132.03630363
  0
VERTEX
  8
0
 10
-1259.16181047
 20
2089.70297030
  0
VERTEX
  8
0
 10
-1267.62847713
 20
2081.23630363
  0
VERTEX
  8
0
 10
-1284.56181047
 20
2081.23630363
  0
VERTEX
  8
0
 10
-1293.02847713
 20
2089.70297030
  0
VERTEX
  8
0
 10
-1293.02847713
 20
2132.03630363
  0
SEQEND
  0
POLYLINE
  8
Default Layer
 66
   1
 39
0.000000
 70
    0
  0
VERTEX
  8
0
 10
-1208.36181047
 20
2132.03630363
  0
VERTEX
  8
0
 10
-1208.36181047
 20
2081.23630363
  0
VERTEX
  8
0
 10
-1242.22847713
 20
2132.03630363
  0
VERTEX
  8
0
 10
-1242.22847713
 20
2081.23630363
  0
SEQEND
  0
POLYLINE
  8
Default Layer
 66
   1
 39
0.000000
 70
    0
  0
VERTEX
  8
0
 10
-1191.42847713
 20
2132.03630363
  0
VERTEX
  8
0
 10
-1166.02847713
 20
2132.03630363
  0
VERTEX
  8
0
 10
-1157.56181047
 20
2123.56963696
  0
VERTEX
  8
0
 10
-1157.56181047
 20
2089.70297030
  0
VERTEX
  8
0
 10
-1166.02847713
 20
2081.23630363
  0
VERTEX
  8
0
 10
-1191.42847713
 20
2081.23630363
  0
SEQEND
  0
POLYLINE
  8
Default Layer
 66
   1
 39
0.000000
 70
    0
  0
VERTEX
  8
0
 10
-1182.96181047
 20
2081.23630363
  0
VERTEX
  8
0
 10
-1182.96181047
 20
2132.03630363
  0
SEQEND
  0
POLYLINE
  8
Default Layer
 66
   1
 39
0.000000
 70
    0
  0
VERTEX
  8
0
 10
-1106.76181047
 20
2132.03630363
  0
VERTEX
  8
0
 10
-1140.62847713
 20
2132.03630363
  0
VERTEX
  8
0
 10
-1140.62847713
 20
2081.23630363
  0
VERTEX
  8
0
 10
-1106.76181047
 20
2081.23630363
  0
SEQEND
  0
POLYLINE
  8
Default Layer
 66
   1
 39
0.000000
 70
    0
  0
VERTEX
  8
0
 10
-1123.69514380
 20
2106.63630363
  0
VERTEX
  8
0
 10
-1140.62847713
 20
2106.63630363
  0
SEQEND
  0
POLYLINE
  8
Default Layer
 66
   1
 39
0.000000
 70
    0
  0
VERTEX
  8
0
 10
-1089.82847713
 20
2106.63630363
  0
VERTEX
  8
0
 10
-1064.42847713
 20
2106.63630363
  0
VERTEX
  8
0
 10
-1055.96181047
 20
2115.10297030
  0
VERTEX
  8
0
 10
-1055.96181047
 20
2123.56963696
  0
VERTEX
  8
0
 10
-1064.42847713
 20
2132.03630363
  0
VERTEX
  8
0
 10
-1089.82847713
 20
2132.03630363
  0
VERTEX
  8
0
 10
-1089.82847713
 20
2081.23630363
  0
SEQEND
  0
POLYLINE
  8
Default Layer
 66
   1
 39
0.000000
 70
    0
  0
VERTEX
  8
0
 10
-1055.96181047
 20
2081.23630363
  0
VERTEX
  8
0
 10
-1081.36181047
 20
2106.63630363
  0
SEQEND
  0
POLYLINE
  8
Default Layer
 66
   1
 39
0.000000
 70
    0
  0
VERTEX
  8
0
 10
-954.36181047
 20
2132.03630363
  0
VERTEX
  8
0
 10
-988.22847713
 20
2132.03630363
  0
VERTEX
  8
0
 10
-988.22847713
 20
2081.23630363
  0
SEQEND
  0
POLYLINE
  8
Default Layer
 66
   1
 39
0.000000
 70
    0
  0
VERTEX
  8
0
 10
-971.29514380
 20
2106.63630363
  0
VERTEX
  8
0
 10
-988.22847713
 20
2106.63630363
  0
SEQEND
  0
POLYLINE
  8
Default Layer
 66
   1
 39
0.000000
 70
    0
  0
VERTEX
  8
0
 10
-937.42847713
 20
2106.63630363
  0
VERTEX
  8
0
 10
-912.02847713
 20
2106.63630363
  0
VERTEX
  8
0
 10
-903.56181047
 20
2115.10297030
  0
VERTEX
  8
0
 10
-903.56181047
 20
2123.56963696
  0
VERTEX
  8
0
 10
-912.02847713
 20
2132.03630363
  0
VERTEX
  8
0
 10
-937.42847713
 20
2132.03630363
  0
VERTEX
  8
0
 10
-937.42847713
 20
2081.23630363
  0
SEQEND
  0
POLYLINE
  8
Default Layer
 66
   1
 39
0.000000
 70
    0
  0
VERTEX
  8
0
 10
-903.56181047
 20
2081.23630363
  0
VERTEX
  8
0
 10
-928.96181047
 20
2106.63630363
  0
SEQEND
  0
POLYLINE
  8
Default Layer
 66
   1
 39
0.000000
 70
    1
  0
VERTEX
  8
0
 10
-886.62847713
 20
2081.23630363
  0
VERTEX
  8
0
 10
-852.76181047
 20
2081.23630363
  0
VERTEX
  8
0
 10
-852.76181047
 20
2132.03630363
  0
VERTEX
  8
0
 10
-886.62847713
 20
2132.03630363
  0
VERTEX
  8
0
 10
-886.62847713
 20
2081.23630363
  0
SEQEND
  0
POLYLINE
  8
Default Layer
 66
   1
 39
0.000000
 70
    0
  0
VERTEX
  8
0
 10
-801.96181047
 20
2132.03630363
  0
VERTEX
  8
0
 10
-801.96181047
 20
2081.23630363
  0
VERTEX
  8
0
 10
-835.82847713
 20
2132.03630363
  0
VERTEX
  8
0
 10
-835.82847713
 20
2081.23630363
  0
SEQEND
  0
POLYLINE
  8
Default Layer
 66
   1
 39
0.000000
 70
    0
  0
VERTEX
  8
0
 10
-751.16181047
 20
2132.03630363
  0
VERTEX
  8
0
 10
-785.02847713
 20
2132.03630363
  0
SEQEND
  0
POLYLINE
  8
Default Layer
 66
   1
 39
0.000000
 70
    0
  0
VERTEX
  8
0
 10
-768.09514380
 20
2081.23630363
  0
VERTEX
  8
0
 10
-768.09514380
 20
2132.03630363
  0
SEQEND
  0
POLYLINE
  8
Default Layer
 66
   1
 39
0.000000
 70
    1
  0
VERTEX
  8
0
 10
-683.42847713
 20
2081.23630363
  0
VERTEX
  8
0
 10
-649.56181047
 20
2081.23630363
  0
VERTEX
  8
0
 10
-649.56181047
 20
2132.03630363
  0
VERTEX
  8
0
 10
-683.42847713
 20
2132.03630363
  0
VERTEX
  8
0
 10
-683.42847713
 20
2081.23630363
  0
SEQEND
  0
POLYLINE
  8
Default Layer
 66
   1
 39
0.000000
 70
    0
  0
VERTEX
  8
0
 10
-598.76181047
 20
2132.03630363
  0
VERTEX
  8
0
 10
-632.62847713
 20
2132.03630363
  0
VERTEX
  8
0
 10
-632.62847713
 20
2081.23630363
  0
SEQEND
  0
POLYLINE
  8
Default Layer
 66
   1
 39
0.000000
 70
    0
  0
VERTEX
  8
0
 10
-615.69514380
 20
2106.63630363
  0
VERTEX
  8
0
 10
-632.62847713
 20
2106.63630363
  0
SEQEND
  0
POLYLINE
  8
Default Layer
 66
   1
 39
0.000000
 70
    0
  0
VERTEX
  8
0
 10
-497.16181047
 20
2123.56963696
  0
VERTEX
  8
0
 10
-505.62847713
 20
2132.03630363
  0
VERTEX
  8
0
 10
-522.56181047
 20
2132.03630363
  0
VERTEX
  8
0
 10
-531.02847713
 20
2123.56963696
  0
VERTEX
  8
0
 10
-497.16181047
 20
2089.70297030
  0
VERTEX
  8
0
 10
-505.62847713
 20
2081.23630363
  0
VERTEX
  8
0
 10
-522.56181047
 20
2081.23630363
  0
VERTEX
  8
0
 10
-531.02847713
 20
2089.70297030
  0
SEQEND
  0
POLYLINE
  8
Default Layer
 66
   1
 39
0.000000
 70
    0
  0
VERTEX
  8
0
 10
-480.22847713
 20
2132.03630363
  0
VERTEX
  8
0
 10
-480.22847713
 20
2081.23630363
  0
SEQEND
  0
POLYLINE
  8
Default Layer
 66
   1
 39
0.000000
 70
    0
  0
VERTEX
  8
0
 10
-446.36181047
 20
2106.63630363
  0
VERTEX
  8
0
 10
-480.22847713
 20
2106.63630363
  0
SEQEND
  0
POLYLINE
  8
Default Layer
 66
   1
 39
0.000000
 70
    0
  0
VERTEX
  8
0
 10
-446.36181047
 20
2081.23630363
  0
VERTEX
  8
0
 10
-446.36181047
 20
2132.03630363
  0
SEQEND
  0
POLYLINE
  8
Default Layer
 66
   1
 39
0.000000
 70
    0
  0
VERTEX
  8
0
 10
-395.56181047
 20
2132.03630363
  0
VERTEX
  8
0
 10
-429.42847713
 20
2132.03630363
  0
VERTEX
  8
0
 10
-429.42847713
 20
2081.23630363
  0
VERTEX
  8
0
 10
-395.56181047
 20
2081.23630363
  0
SEQEND
  0
POLYLINE
  8
Default Layer
 66
   1
 39
0.000000
 70
    0
  0
VERTEX
  8
0
 10
-412.49514380
 20
2106.63630363
  0
VERTEX
  8
0
 10
-429.42847713
 20
2106.63630363
  0
SEQEND
  0
POLYLINE
  8
Default Layer
 66
   1
 39
0.000000
 70
    0
  0
VERTEX
  8
0
 10
-344.76181047
 20
2081.23630363
  0
VERTEX
  8
0
 10
-378.62847713
 20
2081.23630363
  0
VERTEX
  8
0
 10
-378.62847713
 20
2132.03630363
  0
SEQEND
  0
POLYLINE
  8
Default Layer
 66
   1
 39
0.000000
 70
    0
  0
VERTEX
  8
0
 10
-277.02847713
 20
2132.03630363
  0
VERTEX
  8
0
 10
-302.42847713
 20
2081.23630363
  0
VERTEX
  8
0
 10
-327.82847713
 20
2132.03630363
  0
SEQEND
  0
POLYLINE
  8
Default Layer
 66
   1
 39
0.000000
 70
    0
  0
VERTEX
  8
0
 10
-226.22847713
 20
2132.03630363
  0
VERTEX
  8
0
 10
-260.09514380
 20
2132.03630363
  0
VERTEX
  8
0
 10
-260.09514380
 20
2081.23630363
  0
VERTEX
  8
0
 10
-226.22847713
 20
2081.23630363
  0
SEQEND
  0
POLYLINE
  8
Default Layer
 66
   1
 39
0.000000
 70
    0
  0
VERTEX
  8
0
 10
-243.16181047
 20
2106.63630363
  0
VERTEX
  8
0
 10
-260.09514380
 20
2106.63630363
  0
SEQEND
  0
POLYLINE
  8
Default Layer
 66
   1
 39
0.000000
 70
    0
  0
VERTEX
  8
0
 10
-175.42847713
 20
2123.56963696
  0
VERTEX
  8
0
 10
-183.89514380
 20
2132.03630363
  0
VERTEX
  8
0
 10
-200.82847713
 20
2132.03630363
  0
VERTEX
  8
0
 10
-209.29514380
 20
2123.56963696
  0
VERTEX
  8
0
 10
-175.42847713
 20
2089.70297030
  0
VERTEX
  8
0
 10
-183.89514380
 20
2081.23630363
  0
VERTEX
  8
0
 10
-200.82847713
 20
2081.23630363
  0
VERTEX
  8
0
 10
-209.29514380
 20
2089.70297030
  0
SEQEND
  0
POLYLINE
  8
Default Layer
 66
   1
 39
0.000000
 70
    0
  0
VERTEX
  8
0
 10
-1788.73880245
 20
3416.85157944
  0
VERTEX
  8
0
 10
-1780.27213579
 20
3416.85157944
  0
VERTEX
  8
0
 10
-1771.80546912
 20
3425.31824611
  0
VERTEX
  8
0
 10
-1771.80546912
 20
3433.78491278
  0
VERTEX
  8
0
 10
-1780.27213579
 20
3442.25157944
  0
VERTEX
  8
0
 10
-1797.20546912
 20
3442.25157944
  0
VERTEX
  8
0
 10
-1805.67213579
 20
3433.78491278
  0
SEQEND
  0
POLYLINE
  8
Default Layer
 66
   1
 39
0.000000
 70
    0
  0
VERTEX
  8
0
 10
-1805.67213579
 20
3399.91824611
  0
VERTEX
  8
0
 10
-1797.20546912
 20
3391.45157944
  0
VERTEX
  8
0
 10
-1780.27213579
 20
3391.45157944
  0
VERTEX
  8
0
 10
-1771.80546912
 20
3399.91824611
  0
VERTEX
  8
0
 10
-1771.80546912
 20
3408.38491278
  0
VERTEX
  8
0
 10
-1780.27213579
 20
3416.85157944
  0
SEQEND
  0
POLYLINE
  8
Default Layer
 66
   1
 39
0.000000
 70
    0
  0
VERTEX
  8
0
 10
-1721.00546912
 20
3442.25157944
  0
VERTEX
  8
0
 10
-1754.87213579
 20
3391.45157944
  0
SEQEND
  0
POLYLINE
  8
Default Layer
 66
   1
 39
0.000000
 70
    0
  0
VERTEX
  8
0
 10
-1721.00546912
 20
3391.45157944
  0
VERTEX
  8
0
 10
-1754.87213579
 20
3442.25157944
  0
SEQEND
  0
POLYLINE
  8
Default Layer
 66
   1
 39
0.000000
 70
    0
  0
VERTEX
  8
0
 10
-1695.60546912
 20
3391.45157944
  0
VERTEX
  8
0
 10
-1695.60546912
 20
3442.25157944
  0
VERTEX
  8
0
 10
-1704.07213579
 20
3433.78491278
  0
SEQEND
  0
POLYLINE
  8
Default Layer
 66
   1
 39
0.000000
 70
    0
  0
VERTEX
  8
0
 10
-1687.13880245
 20
3391.45157944
  0
VERTEX
  8
0
 10
-1704.07213579
 20
3391.45157944
  0
SEQEND
  0
POLYLINE
  8
Default Layer
 66
   1
 39
0.000000
 70
    0
  0
VERTEX
  8
0
 10
-1585.53880245
 20
3442.25157944
  0
VERTEX
  8
0
 10
-1619.40546912
 20
3442.25157944
  0
VERTEX
  8
0
 10
-1619.40546912
 20
3391.45157944
  0
SEQEND
  0
POLYLINE
  8
Default Layer
 66
   1
 39
0.000000
 70
    0
  0
VERTEX
  8
0
 10
-1602.47213579
 20
3416.85157944
  0
VERTEX
  8
0
 10
-1619.40546912
 20
3416.85157944
  0
SEQEND
  0
POLYLINE
  8
Default Layer
 66
   1
 39
0.000000
 70
    0
  0
VERTEX
  8
0
 10
-1551.67213579
 20
3442.25157944
  0
VERTEX
  8
0
 10
-1568.60546912
 20
3442.25157944
  0
SEQEND
  0
POLYLINE
  8
Default Layer
 66
   1
 39
0.000000
 70
    0
  0
VERTEX
  8
0
 10
-1560.13880245
 20
3391.45157944
  0
VERTEX
  8
0
 10
-1560.13880245
 20
3442.25157944
  0
SEQEND
  0
POLYLINE
  8
Default Layer
 66
   1
 39
0.000000
 70
    0
  0
VERTEX
  8
0
 10
-1551.67213579
 20
3391.45157944
  0
VERTEX
  8
0
 10
-1568.60546912
 20
3391.45157944
  0
SEQEND
  0
POLYLINE
  8
Default Layer
 66
   1
 39
0.000000
 70
    0
  0
VERTEX
  8
0
 10
-1500.87213579
 20
3442.25157944
  0
VERTEX
  8
0
 10
-1534.73880245
 20
3391.45157944
  0
SEQEND
  0
POLYLINE
  8
Default Layer
 66
   1
 39
0.000000
 70
    0
  0
VERTEX
  8
0
 10
-1500.87213579
 20
3391.45157944
  0
VERTEX
  8
0
 10
-1534.73880245
 20
3442.25157944
  0
SEQEND
  0
POLYLINE
  8
Default Layer
 66
   1
 39
0.000000
 70
    0
  0
VERTEX
  8
0
 10
-1450.07213579
 20
3442.25157944
  0
VERTEX
  8
0
 10
-1483.93880245
 20
3442.25157944
  0
VERTEX
  8
0
 10
-1483.93880245
 20
3391.45157944
  0
VERTEX
  8
0
 10
-1450.07213579
 20
3391.45157944
  0
SEQEND
  0
POLYLINE
  8
Default Layer
 66
   1
 39
0.000000
 70
    0
  0
VERTEX
  8
0
 10
-1467.00546912
 20
3416.85157944
  0
VERTEX
  8
0
 10
-1483.93880245
 20
3416.85157944
  0
SEQEND
  0
POLYLINE
  8
Default Layer
 66
   1
 39
0.000000
 70
    0
  0
VERTEX
  8
0
 10
-1433.13880245
 20
3442.25157944
  0
VERTEX
  8
0
 10
-1407.73880245
 20
3442.25157944
  0
VERTEX
  8
0
 10
-1399.27213579
 20
3433.78491278
  0
VERTEX
  8
0
 10
-1399.27213579
 20
3399.91824611
  0
VERTEX
  8
0
 10
-1407.73880245
 20
3391.45157944
  0
VERTEX
  8
0
 10
-1433.13880245
 20
3391.45157944
  0
SEQEND
  0
POLYLINE
  8
Default Layer
 66
   1
 39
0.000000
 70
    0
  0
VERTEX
  8
0
 10
-1424.67213579
 20
3391.45157944
  0
VERTEX
  8
0
 10
-1424.67213579
 20
3442.25157944
  0
SEQEND
  0
POLYLINE
  8
Default Layer
 66
   1
 39
0.000000
 70
    0
  0
VERTEX
  8
0
 10
-1297.67213579
 20
3442.25157944
  0
VERTEX
  8
0
 10
-1297.67213579
 20
3399.91824611
  0
VERTEX
  8
0
 10
-1306.13880245
 20
3391.45157944
  0
VERTEX
  8
0
 10
-1323.07213579
 20
3391.45157944
  0
VERTEX
  8
0
 10
-1331.53880245
 20
3399.91824611
  0
VERTEX
  8
0
 10
-1331.53880245
 20
3442.25157944
  0
SEQEND
  0
POLYLINE
  8
Default Layer
 66
   1
 39
0.000000
 70
    0
  0
VERTEX
  8
0
 10
-1246.87213579
 20
3442.25157944
  0
VERTEX
  8
0
 10
-1246.87213579
 20
3391.45157944
  0
VERTEX
  8
0
 10
-1280.73880245
 20
3442.25157944
  0
VERTEX
  8
0
 10
-1280.73880245
 20
3391.45157944
  0
SEQEND
  0
POLYLINE
  8
Default Layer
 66
   1
 39
0.000000
 70
    0
  0
VERTEX
  8
0
 10
-1196.07213579
 20
3442.25157944
  0
VERTEX
  8
0
 10
-1229.93880245
 20
3442.25157944
  0
VERTEX
  8
0
 10
-1229.93880245
 20
3391.45157944
  0
VERTEX
  8
0
 10
-1196.07213579
 20
3391.45157944
  0
SEQEND
  0
POLYLINE
  8
Default Layer
 66
   1
 39
0.000000
 70
    0
  0
VERTEX
  8
0
 10
-1213.00546912
 20
3416.85157944
  0
VERTEX
  8
0
 10
-1229.93880245
 20
3416.85157944
  0
SEQEND
  0
POLYLINE
  8
Default Layer
 66
   1
 39
0.000000
 70
    0
  0
VERTEX
  8
0
 10
-1179.13880245
 20
3416.85157944
  0
VERTEX
  8
0
 10
-1153.73880245
 20
3416.85157944
  0
VERTEX
  8
0
 10
-1145.27213579
 20
3425.31824611
  0
VERTEX
  8
0
 10
-1145.27213579
 20
3433.78491278
  0
VERTEX
  8
0
 10
-1153.73880245
 20
3442.25157944
  0
VERTEX
  8
0
 10
-1179.13880245
 20
3442.25157944
  0
VERTEX
  8
0
 10
-1179.13880245
 20
3391.45157944
  0
SEQEND
  0
POLYLINE
  8
Default Layer
 66
   1
 39
0.000000
 70
    0
  0
VERTEX
  8
0
 10
-1145.27213579
 20
3391.45157944
  0
VERTEX
  8
0
 10
-1170.67213579
 20
3416.85157944
  0
SEQEND
  0
POLYLINE
  8
Default Layer
 66
   1
 39
0.000000
 70
    0
  0
VERTEX
  8
0
 10
-1077.53880245
 20
3416.85157944
  0
VERTEX
  8
0
 10
-1052.13880245
 20
3416.85157944
  0
VERTEX
  8
0
 10
-1043.67213579
 20
3425.31824611
  0
VERTEX
  8
0
 10
-1043.67213579
 20
3433.78491278
  0
VERTEX
  8
0
 10
-1052.13880245
 20
3442.25157944
  0
VERTEX
  8
0
 10
-1077.53880245
 20
3442.25157944
  0
VERTEX
  8
0
 10
-1077.53880245
 20
3391.45157944
  0
SEQEND
  0
POLYLINE
  8
Default Layer
 66
   1
 39
0.000000
 70
    0
  0
VERTEX
  8
0
 10
-1043.67213579
 20
3391.45157944
  0
VERTEX
  8
0
 10
-1069.07213579
 20
3416.85157944
  0
SEQEND
  0
POLYLINE
  8
Default Layer
 66
   1
 39
0.000000
 70
    0
  0
VERTEX
  8
0
 10
-992.87213579
 20
3442.25157944
  0
VERTEX
  8
0
 10
-1026.73880245
 20
3442.25157944
  0
VERTEX
  8
0
 10
-1026.73880245
 20
3391.45157944
  0
VERTEX
  8
0
 10
-992.87213579
 20
3391.45157944
  0
SEQEND
  0
POLYLINE
  8
Default Layer
 66
   1
 39
0.000000
 70
    0
  0
VERTEX
  8
0
 10
-1009.80546912
 20
3416.85157944
  0
VERTEX
  8
0
 10
-1026.73880245
 20
3416.85157944
  0
SEQEND
  0
POLYLINE
  8
Default Layer
 66
   1
 39
0.000000
 70
    0
  0
VERTEX
  8
0
 10
-942.07213579
 20
3391.45157944
  0
VERTEX
  8
0
 10
-942.07213579
 20
3408.38491278
  0
VERTEX
  8
0
 10
-959.00546912
 20
3442.25157944
  0
VERTEX
  8
0
 10
-975.93880245
 20
3408.38491278
  0
VERTEX
  8
0
 10
-975.93880245
 20
3391.45157944
  0
SEQEND
  0
POLYLINE
  8
Default Layer
 66
   1
 39
0.000000
 70
    0
  0
VERTEX
  8
0
 10
-942.07213579
 20
3408.38491278
  0
VERTEX
  8
0
 10
-975.93880245
 20
3408.38491278
  0
SEQEND
  0
POLYLINE
  8
Default Layer
 66
   1
 39
0.000000
 70
    0
  0
VERTEX
  8
0
 10
-925.13880245
 20
3416.85157944
  0
VERTEX
  8
0
 10
-899.73880245
 20
3416.85157944
  0
VERTEX
  8
0
 10
-891.27213579
 20
3425.31824611
  0
VERTEX
  8
0
 10
-891.27213579
 20
3433.78491278
  0
VERTEX
  8
0
 10
-899.73880245
 20
3442.25157944
  0
VERTEX
  8
0
 10
-925.13880245
 20
3442.25157944
  0
VERTEX
  8
0
 10
-925.13880245
 20
3391.45157944
  0
SEQEND
  0
POLYLINE
  8
Default Layer
 66
   1
 39
0.000000
 70
    0
  0
VERTEX
  8
0
 10
-891.27213579
 20
3391.45157944
  0
VERTEX
  8
0
 10
-916.67213579
 20
3416.85157944
  0
SEQEND
  0
POLYLINE
  8
Default Layer
 66
   1
 39
0.000000
 70
    0
  0
VERTEX
  8
0
 10
-789.67213579
 20
3433.78491278
  0
VERTEX
  8
0
 10
-798.13880245
 20
3442.25157944
  0
VERTEX
  8
0
 10
-815.07213579
 20
3442.25157944
  0
VERTEX
  8
0
 10
-823.53880245
 20
3433.78491278
  0
VERTEX
  8
0
 10
-789.67213579
 20
3399.91824611
  0
VERTEX
  8
0
 10
-798.13880245
 20
3391.45157944
  0
VERTEX
  8
0
 10
-815.07213579
 20
3391.45157944
  0
VERTEX
  8
0
 10
-823.53880245
 20
3399.91824611
  0
SEQEND
  0
POLYLINE
  8
Default Layer
 66
   1
 39
0.000000
 70
    0
  0
VERTEX
  8
0
 10
-772.73880245
 20
3442.25157944
  0
VERTEX
  8
0
 10
-772.73880245
 20
3391.45157944
  0
SEQEND
  0
POLYLINE
  8
Default Layer
 66
   1
 39
0.000000
 70
    0
  0
VERTEX
  8
0
 10
-738.87213579
 20
3416.85157944
  0
VERTEX
  8
0
 10
-772.73880245
 20
3416.85157944
  0
SEQEND
  0
POLYLINE
  8
Default Layer
 66
   1
 39
0.000000
 70
    0
  0
VERTEX
  8
0
 10
-738.87213579
 20
3391.45157944
  0
VERTEX
  8
0
 10
-738.87213579
 20
3442.25157944
  0
SEQEND
  0
POLYLINE
  8
Default Layer
 66
   1
 39
0.000000
 70
    0
  0
VERTEX
  8
0
 10
-688.07213579
 20
3442.25157944
  0
VERTEX
  8
0
 10
-721.93880245
 20
3442.25157944
  0
VERTEX
  8
0
 10
-721.93880245
 20
3391.45157944
  0
VERTEX
  8
0
 10
-688.07213579
 20
3391.45157944
  0
SEQEND
  0
POLYLINE
  8
Default Layer
 66
   1
 39
0.000000
 70
    0
  0
VERTEX
  8
0
 10
-705.00546912
 20
3416.85157944
  0
VERTEX
  8
0
 10
-721.93880245
 20
3416.85157944
  0
SEQEND
  0
POLYLINE
  8
Default Layer
 66
   1
 39
0.000000
 70
    0
  0
VERTEX
  8
0
 10
-637.27213579
 20
3391.45157944
  0
VERTEX
  8
0
 10
-671.13880245
 20
3391.45157944
  0
VERTEX
  8
0
 10
-671.13880245
 20
3442.25157944
  0
SEQEND
  0
POLYLINE
  8
Default Layer
 66
   1
 39
0.000000
 70
    0
  0
VERTEX
  8
0
 10
-569.53880245
 20
3442.25157944
  0
VERTEX
  8
0
 10
-594.93880245
 20
3391.45157944
  0
VERTEX
  8
0
 10
-620.33880245
 20
3442.25157944
  0
SEQEND
  0
POLYLINE
  8
Default Layer
 66
   1
 39
0.000000
 70
    0
  0
VERTEX
  8
0
 10
-518.73880245
 20
3442.25157944
  0
VERTEX
  8
0
 10
-552.60546912
 20
3442.25157944
  0
VERTEX
  8
0
 10
-552.60546912
 20
3391.45157944
  0
VERTEX
  8
0
 10
-518.73880245
 20
3391.45157944
  0
SEQEND
  0
POLYLINE
  8
Default Layer
 66
   1
 39
0.000000
 70
    0
  0
VERTEX
  8
0
 10
-535.67213579
 20
3416.85157944
  0
VERTEX
  8
0
 10
-552.60546912
 20
3416.85157944
  0
SEQEND
  0
POLYLINE
  8
Default Layer
 66
   1
 39
0.000000
 70
    0
  0
VERTEX
  8
0
 10
-467.93880245
 20
3433.78491278
  0
VERTEX
  8
0
 10
-476.40546912
 20
3442.25157944
  0
VERTEX
  8
0
 10
-493.33880245
 20
3442.25157944
  0
VERTEX
  8
0
 10
-501.80546912
 20
3433.78491278
  0
VERTEX
  8
0
 10
-467.93880245
 20
3399.91824611
  0
VERTEX
  8
0
 10
-476.40546912
 20
3391.45157944
  0
VERTEX
  8
0
 10
-493.33880245
 20
3391.45157944
  0
VERTEX
  8
0
 10
-501.80546912
 20
3399.91824611
  0
SEQEND
  0
POLYLINE
  8
Default Layer
 66
   1
 39
0.000000
 70
    0
  0
VERTEX
  8
0
 10
-366.33880245
 20
3442.25157944
  0
VERTEX
  8
0
 10
-400.20546912
 20
3442.25157944
  0
SEQEND
  0
POLYLINE
  8
Default Layer
 66
   1
 39
0.000000
 70
    0
  0
VERTEX
  8
0
 10
-383.27213579
 20
3391.45157944
  0
VERTEX
  8
0
 10
-383.27213579
 20
3442.25157944
  0
SEQEND
  0
POLYLINE
  8
Default Layer
 66
   1
 39
0.000000
 70
    1
  0
VERTEX
  8
0
 10
-349.40546912
 20
3391.45157944
  0
VERTEX
  8
0
 10
-315.53880245
 20
3391.45157944
  0
VERTEX
  8
0
 10
-315.53880245
 20
3442.25157944
  0
VERTEX
  8
0
 10
-349.40546912
 20
3442.25157944
  0
VERTEX
  8
0
 10
-349.40546912
 20
3391.45157944
  0
SEQEND
  0
POLYLINE
  8
Default Layer
 66
   1
 39
0.000000
 70
    0
  0
VERTEX
  8
0
 10
-213.93880245
 20
3433.78491278
  0
VERTEX
  8
0
 10
-222.40546912
 20
3442.25157944
  0
VERTEX
  8
0
 10
-239.33880245
 20
3442.25157944
  0
VERTEX
  8
0
 10
-247.80546912
 20
3433.78491278
  0
VERTEX
  8
0
 10
-213.93880245
 20
3399.91824611
  0
VERTEX
  8
0
 10
-222.40546912
 20
3391.45157944
  0
VERTEX
  8
0
 10
-239.33880245
 20
3391.45157944
  0
VERTEX
  8
0
 10
-247.80546912
 20
3399.91824611
  0
SEQEND
  0
POLYLINE
  8
Default Layer
 66
   1
 39
0.000000
 70
    0
  0
VERTEX
  8
0
 10
-180.07213579
 20
3442.25157944
  0
VERTEX
  8
0
 10
-197.00546912
 20
3442.25157944
  0
SEQEND
  0
POLYLINE
  8
Default Layer
 66
   1
 39
0.000000
 70
    0
  0
VERTEX
  8
0
 10
-188.53880245
 20
3391.45157944
  0
VERTEX
  8
0
 10
-188.53880245
 20
3442.25157944
  0
SEQEND
  0
POLYLINE
  8
Default Layer
 66
   1
 39
0.000000
 70
    0
  0
VERTEX
  8
0
 10
-180.07213579
 20
3391.45157944
  0
VERTEX
  8
0
 10
-197.00546912
 20
3391.45157944
  0
SEQEND
  0
POLYLINE
  8
Default Layer
 66
   1
 39
0.000000
 70
    0
  0
VERTEX
  8
0
 10
-163.13880245
 20
3442.25157944
  0
VERTEX
  8
0
 10
-137.73880245
 20
3442.25157944
  0
VERTEX
  8
0
 10
-129.27213579
 20
3433.78491278
  0
VERTEX
  8
0
 10
-129.27213579
 20
3399.91824611
  0
VERTEX
  8
0
 10
-137.73880245
 20
3391.45157944
  0
VERTEX
  8
0
 10
-163.13880245
 20
3391.45157944
  0
SEQEND
  0
POLYLINE
  8
Default Layer
 66
   1
 39
0.000000
 70
    0
  0
VERTEX
  8
0
 10
-154.67213579
 20
3391.45157944
  0
VERTEX
  8
0
 10
-154.67213579
 20
3442.25157944
  0
SEQEND
  0
POLYLINE
  8
Default Layer
 66
   1
 39
0.000000
 70
    0
  0
VERTEX
  8
0
 10
-78.47213579
 20
3442.25157944
  0
VERTEX
  8
0
 10
-112.33880245
 20
3442.25157944
  0
VERTEX
  8
0
 10
-112.33880245
 20
3391.45157944
  0
VERTEX
  8
0
 10
-78.47213579
 20
3391.45157944
  0
SEQEND
  0
POLYLINE
  8
Default Layer
 66
   1
 39
0.000000
 70
    0
  0
VERTEX
  8
0
 10
-95.40546912
 20
3416.85157944
  0
VERTEX
  8
0
 10
-112.33880245
 20
3416.85157944
  0
SEQEND
  0
POLYLINE
  8
Default Layer
 66
   1
 39
0.000000
 70
    0
  0
VERTEX
  8
0
 10
-1376.90240453
 20
5585.77086280
  0
VERTEX
  8
0
 10
-1491.20240453
 20
5357.17086280
  0
VERTEX
  8
0
 10
-1605.50240453
 20
5585.77086280
  0
SEQEND
  0
POLYLINE
  8
Default Layer
 66
   1
 39
0.000000
 70
    0
  0
VERTEX
  8
0
 10
-1224.50240453
 20
5585.77086280
  0
VERTEX
  8
0
 10
-1300.70240453
 20
5585.77086280
  0
SEQEND
  0
POLYLINE
  8
Default Layer
 66
   1
 39
0.000000
 70
    0
  0
VERTEX
  8
0
 10
-1262.60240453
 20
5357.17086280
  0
VERTEX
  8
0
 10
-1262.60240453
 20
5585.77086280
  0
SEQEND
  0
POLYLINE
  8
Default Layer
 66
   1
 39
0.000000
 70
    0
  0
VERTEX
  8
0
 10
-1224.50240453
 20
5357.17086280
  0
VERTEX
  8
0
 10
-1300.70240453
 20
5357.17086280
  0
SEQEND
  0
POLYLINE
  8
Default Layer
 66
   1
 39
0.000000
 70
    0
  0
VERTEX
  8
0
 10
-919.70240453
 20
5585.77086280
  0
VERTEX
  8
0
 10
-1034.00240453
 20
5357.17086280
  0
VERTEX
  8
0
 10
-1148.30240453
 20
5585.77086280
  0
SEQEND
  0
POLYLINE
  8
Default Layer
 66
   1
 39
0.000000
 70
    0
  0
VERTEX
  8
0
 10
-691.10240453
 20
5357.17086280
  0
VERTEX
  8
0
 10
-691.10240453
 20
5433.37086280
  0
VERTEX
  8
0
 10
-767.30240453
 20
5585.77086280
  0
VERTEX
  8
0
 10
-843.50240453
 20
5433.37086280
  0
VERTEX
  8
0
 10
-843.50240453
 20
5357.17086280
  0
SEQEND
  0
POLYLINE
  8
Default Layer
 66
   1
 39
0.000000
 70
    0
  0
VERTEX
  8
0
 10
-691.10240453
 20
5433.37086280
  0
VERTEX
  8
0
 10
-843.50240453
 20
5433.37086280
  0
SEQEND
  0
POLYLINE
  8
Default Layer
 66
   1
 39
0.000000
 70
    0
  0
VERTEX
  8
0
 10
-614.90240453
 20
5471.47086280
  0
VERTEX
  8
0
 10
-500.60240453
 20
5471.47086280
  0
VERTEX
  8
0
 10
-462.50240453
 20
5509.57086280
  0
VERTEX
  8
0
 10
-462.50240453
 20
5547.67086280
  0
VERTEX
  8
0
 10
-500.60240453
 20
5585.77086280
  0
VERTEX
  8
0
 10
-614.90240453
 20
5585.77086280
  0
VERTEX
  8
0
 10
-614.90240453
 20
5357.17086280
  0
SEQEND
  0
POLYLINE
  8
Default Layer
 66
   1
 39
0.000000
 70
    0
  0
VERTEX
  8
0
 10
-462.50240453
 20
5357.17086280
  0
VERTEX
  8
0
 10
-576.80240453
 20
5471.47086280
  0
SEQEND
  0
POLYLINE
  8
Default Layer
 66
   1
 39
0.000000
 70
    1
  0
VERTEX
  8
0
 10
-386.30240453
 20
5357.17086280
  0
VERTEX
  8
0
 10
-233.90240453
 20
5357.17086280
  0
VERTEX
  8
0
 10
-233.90240453
 20
5585.77086280
  0
VERTEX
  8
0
 10
-386.30240453
 20
5585.77086280
  0
VERTEX
  8
0
 10
-386.30240453
 20
5357.17086280
  0
SEQEND
  0
POLYLINE
  8
Default Layer
 66
   1
 39
0.000000
 70
    0
  0
VERTEX
  8
0
 10
223.29759547
 20
5547.67086280
  0
VERTEX
  8
0
 10
185.19759547
 20
5585.77086280
  0
VERTEX
  8
0
 10
108.99759547
 20
5585.77086280
  0
VERTEX
  8
0
 10
70.89759547
 20
5547.67086280
  0
VERTEX
  8
0
 10
223.29759547
 20
5395.27086280
  0
VERTEX
  8
0
 10
185.19759547
 20
5357.17086280
  0
VERTEX
  8
0
 10
108.99759547
 20
5357.17086280
  0
VERTEX
  8
0
 10
70.89759547
 20
5395.27086280
  0
SEQEND
  0
POLYLINE
  8
Default Layer
 66
   1
 39
0.000000
 70
    0
  0
VERTEX
  8
0
 10
528.09759547
 20
5585.77086280
  0
VERTEX
  8
0
 10
451.89759547
 20
5357.17086280
  0
VERTEX
  8
0
 10
413.79759547
 20
5471.47086280
  0
VERTEX
  8
0
 10
375.69759547
 20
5357.17086280
  0
VERTEX
  8
0
 10
299.49759547
 20
5585.77086280
  0
SEQEND
  0
POLYLINE
  8
Default Layer
 66
   1
 39
0.000000
 70
    0
  0
VERTEX
  8
0
 10
642.39759547
 20
5471.47086280
  0
VERTEX
  8
0
 10
718.59759547
 20
5471.47086280
  0
VERTEX
  8
0
 10
756.69759547
 20
5433.37086280
  0
VERTEX
  8
0
 10
756.69759547
 20
5395.27086280
  0
VERTEX
  8
0
 10
718.59759547
 20
5357.17086280
  0
VERTEX
  8
0
 10
604.29759547
 20
5357.17086280
  0
SEQEND
  0
POLYLINE
  8
Default Layer
 66
   1
 39
0.000000
 70
    0
  0
VERTEX
  8
0
 10
604.29759547
 20
5585.77086280
  0
VERTEX
  8
0
 10
718.59759547
 20
5585.77086280
  0
VERTEX
  8
0
 10
756.69759547
 20
5547.67086280
  0
VERTEX
  8
0
 10
756.69759547
 20
5509.57086280
  0
VERTEX
  8
0
 10
718.59759547
 20
5471.47086280
  0
SEQEND
  0
POLYLINE
  8
Default Layer
 66
   1
 39
0.000000
 70
    0
  0
VERTEX
  8
0
 10
642.39759547
 20
5357.17086280
  0
VERTEX
  8
0
 10
642.39759547
 20
5585.77086280
  0
SEQEND
  0
POLYLINE
  8
Default Layer
 66
   1
 39
0.000000
 70
    0
  0
VERTEX
  8
0
 10
1137.69759547
 20
5471.47086280
  0
VERTEX
  8
0
 10
1175.79759547
 20
5471.47086280
  0
VERTEX
  8
0
 10
1213.89759547
 20
5509.57086280
  0
VERTEX
  8
0
 10
1213.89759547
 20
5547.67086280
  0
VERTEX
  8
0
 10
1175.79759547
 20
5585.77086280
  0
VERTEX
  8
0
 10
1099.59759547
 20
5585.77086280
  0
VERTEX
  8
0
 10
1061.49759547
 20
5547.67086280
  0
SEQEND
  0
POLYLINE
  8
Default Layer
 66
   1
 39
0.000000
 70
    0
  0
VERTEX
  8
0
 10
1061.49759547
 20
5395.27086280
  0
VERTEX
  8
0
 10
1099.59759547
 20
5357.17086280
  0
VERTEX
  8
0
 10
1175.79759547
 20
5357.17086280
  0
VERTEX
  8
0
 10
1213.89759547
 20
5395.27086280
  0
VERTEX
  8
0
 10
1213.89759547
 20
5433.37086280
  0
VERTEX
  8
0
 10
1175.79759547
 20
5471.47086280
  0
SEQEND
  0
POLYLINE
  8
Default Layer
 66
   1
 39
0.000000
 70
    0
  0
VERTEX
  8
0
 10
1671.09759547
 20
5547.67086280
  0
VERTEX
  8
0
 10
1632.99759547
 20
5585.77086280
  0
VERTEX
  8
0
 10
1556.79759547
 20
5585.77086280
  0
VERTEX
  8
0
 10
1518.69759547
 20
5547.67086280
  0
VERTEX
  8
0
 10
1671.09759547
 20
5395.27086280
  0
VERTEX
  8
0
 10
1632.99759547
 20
5357.17086280
  0
VERTEX
  8
0
 10
1556.79759547
 20
5357.17086280
  0
VERTEX
  8
0
 10
1518.69759547
 20
5395.27086280
  0
SEQEND
  0
POLYLINE
  8
Default Layer
 66
   1
 39
0.000000
 70
    0
  0
VERTEX
  8
0
 10
1747.29759547
 20
5585.77086280
  0
VERTEX
  8
0
 10
1747.29759547
 20
5357.17086280
  0
SEQEND
  0
POLYLINE
  8
Default Layer
 66
   1
 39
0.000000
 70
    0
  0
VERTEX
  8
0
 10
1899.69759547
 20
5471.47086280
  0
VERTEX
  8
0
 10
1747.29759547
 20
5471.47086280
  0
SEQEND
  0
POLYLINE
  8
Default Layer
 66
   1
 39
0.000000
 70
    0
  0
VERTEX
  8
0
 10
1899.69759547
 20
5357.17086280
  0
VERTEX
  8
0
 10
1899.69759547
 20
5585.77086280
  0
SEQEND
  0
POLYLINE
  8
Default Layer
 66
   1
 39
0.000000
 70
    0
  0
VERTEX
  8
0
 10
2128.29759547
 20
5585.77086280
  0
VERTEX
  8
0
 10
1975.89759547
 20
5585.77086280
  0
VERTEX
  8
0
 10
1975.89759547
 20
5357.17086280
  0
VERTEX
  8
0
 10
2128.29759547
 20
5357.17086280
  0
SEQEND
  0
POLYLINE
  8
Default Layer
 66
   1
 39
0.000000
 70
    0
  0
VERTEX
  8
0
 10
2052.09759547
 20
5471.47086280
  0
VERTEX
  8
0
 10
1975.89759547
 20
5471.47086280
  0
SEQEND
  0
POLYLINE
  8
Default Layer
 66
   1
 39
0.000000
 70
    0
  0
VERTEX
  8
0
 10
2356.89759547
 20
5357.17086280
  0
VERTEX
  8
0
 10
2204.49759547
 20
5357.17086280
  0
VERTEX
  8
0
 10
2204.49759547
 20
5585.77086280
  0
SEQEND
  0
POLYLINE
  8
Default Layer
 66
   1
 39
0.000000
 70
    0
  0
VERTEX
  8
0
 10
2661.69759547
 20
5585.77086280
  0
VERTEX
  8
0
 10
2547.39759547
 20
5357.17086280
  0
VERTEX
  8
0
 10
2433.09759547
 20
5585.77086280
  0
SEQEND
  0
POLYLINE
  8
Default Layer
 66
   1
 39
0.000000
 70
    0
  0
VERTEX
  8
0
 10
2890.29759547
 20
5585.77086280
  0
VERTEX
  8
0
 10
2737.89759547
 20
5585.77086280
  0
VERTEX
  8
0
 10
2737.89759547
 20
5357.17086280
  0
VERTEX
  8
0
 10
2890.29759547
 20
5357.17086280
  0
SEQEND
  0
POLYLINE
  8
Default Layer
 66
   1
 39
0.000000
 70
    0
  0
VERTEX
  8
0
 10
2814.09759547
 20
5471.47086280
  0
VERTEX
  8
0
 10
2737.89759547
 20
5471.47086280
  0
SEQEND
  0
POLYLINE
  8
Default Layer
 66
   1
 39
0.000000
 70
    0
  0
VERTEX
  8
0
 10
3118.89759547
 20
5547.67086280
  0
VERTEX
  8
0
 10
3080.79759547
 20
5585.77086280
  0
VERTEX
  8
0
 10
3004.59759547
 20
5585.77086280
  0
VERTEX
  8
0
 10
2966.49759547
 20
5547.67086280
  0
VERTEX
  8
0
 10
3118.89759547
 20
5395.27086280
  0
VERTEX
  8
0
 10
3080.79759547
 20
5357.17086280
  0
VERTEX
  8
0
 10
3004.59759547
 20
5357.17086280
  0
VERTEX
  8
0
 10
2966.49759547
 20
5395.27086280
  0
SEQEND
  0
POLYLINE
  8
Default Layer
 66
   1
 39
0.000000
 70
    0
  0
VERTEX
  8
0
 10
3910.21216407
 20
5337.28429986
  0
VERTEX
  8
0
 10
3910.21216407
 20
5565.88429986
  0
VERTEX
  8
0
 10
3986.41216407
 20
5413.48429986
  0
VERTEX
  8
0
 10
4062.61216407
 20
5565.88429986
  0
VERTEX
  8
0
 10
4062.61216407
 20
5337.28429986
  0
SEQEND
  0
POLYLINE
  8
Default Layer
 66
   1
 39
0.000000
 70
    0
  0
VERTEX
  8
0
 10
3681.61216407
 20
5337.28429986
  0
VERTEX
  8
0
 10
3681.61216407
 20
5565.88429986
  0
VERTEX
  8
0
 10
3757.81216407
 20
5413.48429986
  0
VERTEX
  8
0
 10
3834.01216407
 20
5565.88429986
  0
VERTEX
  8
0
 10
3834.01216407
 20
5337.28429986
  0
SEQEND
  0
POLYLINE
  8
Default Layer
 66
   1
 39
0.000000
 70
    0
  0
VERTEX
  8
0
 10
3453.01216407
 20
5527.78429986
  0
VERTEX
  8
0
 10
3491.11216407
 20
5565.88429986
  0
VERTEX
  8
0
 10
3567.31216407
 20
5565.88429986
  0
VERTEX
  8
0
 10
3605.41216407
 20
5527.78429986
  0
VERTEX
  8
0
 10
3605.41216407
 20
5489.68429986
  0
VERTEX
  8
0
 10
3567.31216407
 20
5451.58429986
  0
VERTEX
  8
0
 10
3491.11216407
 20
5451.58429986
  0
VERTEX
  8
0
 10
3453.01216407
 20
5413.48429986
  0
VERTEX
  8
0
 10
3453.01216407
 20
5337.28429986
  0
VERTEX
  8
0
 10
3605.41216407
 20
5337.28429986
  0
SEQEND
  0
POLYLINE
  8
Default Layer
 66
   1
 39
0.000000
 70
    0
  0
VERTEX
  8
0
 10
3300.61216407
 20
5337.28429986
  0
VERTEX
  8
0
 10
3376.81216407
 20
5337.28429986
  0
SEQEND
  0
POLYLINE
  8
Default Layer
 66
   1
 39
0.000000
 70
    0
  0
VERTEX
  8
0
 10
3300.61216407
 20
5527.78429986
  0
VERTEX
  8
0
 10
3338.71216407
 20
5565.88429986
  0
VERTEX
  8
0
 10
3338.71216407
 20
5337.28429986
  0
SEQEND
  0
POLYLINE
  8
Default Layer
 66
   1
 39
0.000000
 70
    0
  0
VERTEX
  8
0
 10
-371.35091938
 20
4654.20480905
  0
VERTEX
  8
0
 10
-257.05091938
 20
4539.90480905
  0
SEQEND
  0
POLYLINE
  8
Default Layer
 66
   1
 39
0.000000
 70
    0
  0
VERTEX
  8
0
 10
-409.45091938
 20
4539.90480905
  0
VERTEX
  8
0
 10
-409.45091938
 20
4768.50480905
  0
VERTEX
  8
0
 10
-295.15091938
 20
4768.50480905
  0
VERTEX
  8
0
 10
-257.05091938
 20
4730.40480905
  0
VERTEX
  8
0
 10
-257.05091938
 20
4692.30480905
  0
VERTEX
  8
0
 10
-295.15091938
 20
4654.20480905
  0
VERTEX
  8
0
 10
-409.45091938
 20
4654.20480905
  0
SEQEND
  0
POLYLINE
  8
Default Layer
 66
   1
 39
0.000000
 70
    0
  0
VERTEX
  8
0
 10
-485.65091938
 20
4768.50480905
  0
VERTEX
  8
0
 10
-638.05091938
 20
4768.50480905
  0
VERTEX
  8
0
 10
-638.05091938
 20
4539.90480905
  0
VERTEX
  8
0
 10
-485.65091938
 20
4539.90480905
  0
SEQEND
  0
POLYLINE
  8
Default Layer
 66
   1
 39
0.000000
 70
    0
  0
VERTEX
  8
0
 10
-638.05091938
 20
4654.20480905
  0
VERTEX
  8
0
 10
-561.85091938
 20
4654.20480905
  0
SEQEND
  0
POLYLINE
  8
Default Layer
 66
   1
 39
0.000000
 70
    0
  0
VERTEX
  8
0
 10
-828.55091938
 20
4768.50480905
  0
VERTEX
  8
0
 10
-828.55091938
 20
4539.90480905
  0
SEQEND
  0
POLYLINE
  8
Default Layer
 66
   1
 39
0.000000
 70
    0
  0
VERTEX
  8
0
 10
-866.65091938
 20
4539.90480905
  0
VERTEX
  8
0
 10
-752.35091938
 20
4539.90480905
  0
VERTEX
  8
0
 10
-714.25091938
 20
4578.00480905
  0
VERTEX
  8
0
 10
-714.25091938
 20
4730.40480905
  0
VERTEX
  8
0
 10
-752.35091938
 20
4768.50480905
  0
VERTEX
  8
0
 10
-866.65091938
 20
4768.50480905
  0
SEQEND
  0
POLYLINE
  8
Default Layer
 66
   1
 39
0.000000
 70
    0
  0
VERTEX
  8
0
 10
-1019.05091938
 20
4539.90480905
  0
VERTEX
  8
0
 10
-942.85091938
 20
4539.90480905
  0
SEQEND
  0
POLYLINE
  8
Default Layer
 66
   1
 39
0.000000
 70
    0
  0
VERTEX
  8
0
 10
-980.95091938
 20
4768.50480905
  0
VERTEX
  8
0
 10
-980.95091938
 20
4539.90480905
  0
SEQEND
  0
POLYLINE
  8
Default Layer
 66
   1
 39
0.000000
 70
    0
  0
VERTEX
  8
0
 10
-1019.05091938
 20
4768.50480905
  0
VERTEX
  8
0
 10
-942.85091938
 20
4768.50480905
  0
SEQEND
  0
POLYLINE
  8
Default Layer
 66
   1
 39
0.000000
 70
    0
  0
VERTEX
  8
0
 10
-1323.85091938
 20
4768.50480905
  0
VERTEX
  8
0
 10
-1209.55091938
 20
4539.90480905
  0
VERTEX
  8
0
 10
-1095.25091938
 20
4768.50480905
  0
SEQEND
  0
POLYLINE
  8
Default Layer
 66
   1
 39
0.000000
 70
    0
  0
VERTEX
  8
0
 10
-1476.25091938
 20
4539.90480905
  0
VERTEX
  8
0
 10
-1400.05091938
 20
4539.90480905
  0
SEQEND
  0
POLYLINE
  8
Default Layer
 66
   1
 39
0.000000
 70
    0
  0
VERTEX
  8
0
 10
-1438.15091938
 20
4768.50480905
  0
VERTEX
  8
0
 10
-1438.15091938
 20
4539.90480905
  0
SEQEND
  0
POLYLINE
  8
Default Layer
 66
   1
 39
0.000000
 70
    0
  0
VERTEX
  8
0
 10
-1476.25091938
 20
4768.50480905
  0
VERTEX
  8
0
 10
-1400.05091938
 20
4768.50480905
  0
SEQEND
  0
POLYLINE
  8
Default Layer
 66
   1
 39
0.000000
 70
    0
  0
VERTEX
  8
0
 10
-1666.75091938
 20
4768.50480905
  0
VERTEX
  8
0
 10
-1666.75091938
 20
4539.90480905
  0
SEQEND
  0
POLYLINE
  8
Default Layer
 66
   1
 39
0.000000
 70
    0
  0
VERTEX
  8
0
 10
-1704.85091938
 20
4539.90480905
  0
VERTEX
  8
0
 10
-1590.55091938
 20
4539.90480905
  0
VERTEX
  8
0
 10
-1552.45091938
 20
4578.00480905
  0
VERTEX
  8
0
 10
-1552.45091938
 20
4730.40480905
  0
VERTEX
  8
0
 10
-1590.55091938
 20
4768.50480905
  0
VERTEX
  8
0
 10
-1704.85091938
 20
4768.50480905
  0
SEQEND
  0
POLYLINE
  8
Default Layer
 66
   1
 39
0.000000
 70
    0
  0
VERTEX
  8
0
 10
-2009.65091938
 20
4768.50480905
  0
VERTEX
  8
0
 10
-2009.65091938
 20
4539.90480905
  0
SEQEND
  0
POLYLINE
  8
Default Layer
 66
   1
 39
0.000000
 70
    0
  0
VERTEX
  8
0
 10
-2162.05091938
 20
4654.20480905
  0
VERTEX
  8
0
 10
-2009.65091938
 20
4654.20480905
  0
SEQEND
  0
POLYLINE
  8
Default Layer
 66
   1
 39
0.000000
 70
    0
  0
VERTEX
  8
0
 10
-2162.05091938
 20
4539.90480905
  0
VERTEX
  8
0
 10
-2162.05091938
 20
4768.50480905
  0
SEQEND
  0
POLYLINE
  8
Default Layer
 66
   1
 39
0.000000
 70
    0
  0
VERTEX
  8
0
 10
-2314.45091938
 20
4768.50480905
  0
VERTEX
  8
0
 10
-2314.45091938
 20
4539.90480905
  0
SEQEND
  0
POLYLINE
  8
Default Layer
 66
   1
 39
0.000000
 70
    0
  0
VERTEX
  8
0
 10
-2390.65091938
 20
4768.50480905
  0
VERTEX
  8
0
 10
-2238.25091938
 20
4768.50480905
  0
SEQEND
  0
POLYLINE
  8
Default Layer
 66
   1
 39
0.000000
 70
    0
  0
VERTEX
  8
0
 10
-2543.05091938
 20
4539.90480905
  0
VERTEX
  8
0
 10
-2466.85091938
 20
4539.90480905
  0
SEQEND
  0
POLYLINE
  8
Default Layer
 66
   1
 39
0.000000
 70
    0
  0
VERTEX
  8
0
 10
-2504.95091938
 20
4768.50480905
  0
VERTEX
  8
0
 10
-2504.95091938
 20
4539.90480905
  0
SEQEND
  0
POLYLINE
  8
Default Layer
 66
   1
 39
0.000000
 70
    0
  0
VERTEX
  8
0
 10
-2543.05091938
 20
4768.50480905
  0
VERTEX
  8
0
 10
-2466.85091938
 20
4768.50480905
  0
SEQEND
  0
POLYLINE
  8
Default Layer
 66
   1
 39
0.000000
 70
    0
  0
VERTEX
  8
0
 10
-2847.85091938
 20
4768.50480905
  0
VERTEX
  8
0
 10
-2771.65091938
 20
4539.90480905
  0
VERTEX
  8
0
 10
-2733.55091938
 20
4654.20480905
  0
VERTEX
  8
0
 10
-2695.45091938
 20
4539.90480905
  0
VERTEX
  8
0
 10
-2619.25091938
 20
4768.50480905
  0
SEQEND
  0
POLYLINE
  8
Default Layer
 66
   1
 39
0.000000
 70
    1
  0
VERTEX
  8
0
 10
4837.42388846
 20
2863.26610530
  0
VERTEX
  8
0
 10
4987.42388846
 20
2863.26610530
  0
VERTEX
  8
0
 10
4987.42388846
 20
2875.56610530
  0
VERTEX
  8
0
 10
4837.42388846
 20
2875.56610530
  0
VERTEX
  8
0
 10
4837.42388846
 20
2863.26610530
  0
SEQEND
  0
POLYLINE
  8
Default Layer
 66
   1
 39
0.000000
 70
    1
  0
VERTEX
  8
0
 10
4837.42388846
 20
2463.22323130
  0
VERTEX
  8
0
 10
4987.42388846
 20
2463.22323130
  0
VERTEX
  8
0
 10
4987.42388846
 20
2475.52323130
  0
VERTEX
  8
0
 10
4837.42388846
 20
2475.52323130
  0
VERTEX
  8
0
 10
4837.42388846
 20
2463.22323130
  0
SEQEND
  0
POLYLINE
  8
Default Layer
 66
   1
 39
0.000000
 70
    1
  0
VERTEX
  8
0
 10
2161.86597100
 20
3191.28828587
  0
VERTEX
  8
0
 10
2261.86597100
 20
3191.28828587
  0
VERTEX
  8
0
 10
2261.86597100
 20
3203.58828587
  0
VERTEX
  8
0
 10
2161.86597100
 20
3203.58828587
  0
VERTEX
  8
0
 10
2161.86597100
 20
3191.28828587
  0
SEQEND
  0
POLYLINE
  8
Default Layer
 66
   1
 39
0.000000
 70
    1
  0
VERTEX
  8
0
 10
2161.86597100
 20
2487.06666886
  0
VERTEX
  8
0
 10
2261.86597100
 20
2487.06666886
  0
VERTEX
  8
0
 10
2261.86597100
 20
2499.36666886
  0
VERTEX
  8
0
 10
2161.86597100
 20
2499.36666886
  0
VERTEX
  8
0
 10
2161.86597100
 20
2487.06666886
  0
SEQEND
  0
POLYLINE
  8
Default Layer
 66
   1
 39
0.000000
 70
    1
  0
VERTEX
  8
0
 10
2161.86597100
 20
2887.07261092
  0
VERTEX
  8
0
 10
2261.86597100
 20
2887.07261092
  0
VERTEX
  8
0
 10
2261.86597100
 20
2899.37261092
  0
VERTEX
  8
0
 10
2161.86597100
 20
2899.37261092
  0
VERTEX
  8
0
 10
2161.86597100
 20
2887.07261092
  0
SEQEND
  0
POLYLINE
  8
Default Layer
 66
   1
 39
0.000000
 70
    1
  0
VERTEX
  8
0
 10
4837.42388846
 20
3167.51899303
  0
VERTEX
  8
0
 10
4987.42388846
 20
3167.51899303
  0
VERTEX
  8
0
 10
4987.42388846
 20
3179.81899303
  0
VERTEX
  8
0
 10
4837.42388846
 20
3179.81899303
  0
VERTEX
  8
0
 10
4837.42388846
 20
3167.51899303
  0
SEQEND
  0
POLYLINE
  8
Default Layer
 66
   1
 39
0.000000
 70
    1
  0
VERTEX
  8
0
 10
2440.73103975
 20
2167.12107963
  0
VERTEX
  8
0
 10
2440.15990403
 20
2181.81530729
  0
VERTEX
  8
0
 10
2439.62886014
 20
2196.51152090
  0
VERTEX
  8
0
 10
2439.11385299
 20
2211.20852889
  0
VERTEX
  8
0
 10
2438.59082747
 20
2225.90513969
  0
VERTEX
  8
0
 10
2438.03572849
 20
2240.60016173
  0
VERTEX
  8
0
 10
2437.73863423
 20
2247.94670460
  0
VERTEX
  8
0
 10
2437.42450094
 20
2255.29240344
  0
VERTEX
  8
0
 10
2437.09032173
 20
2262.63710932
  0
VERTEX
  8
0
 10
2436.73308972
 20
2269.98067327
  0
VERTEX
  8
0
 10
2436.34979802
 20
2277.32294636
  0
VERTEX
  8
0
 10
2435.93743975
 20
2284.66377963
  0
VERTEX
  8
0
 10
2435.49002407
 20
2292.05556840
  0
VERTEX
  8
0
 10
2435.00608371
 20
2299.54413307
  0
VERTEX
  8
0
 10
2434.48939709
 20
2307.11946233
  0
VERTEX
  8
0
 10
2433.94374262
 20
2314.77154488
  0
VERTEX
  8
0
 10
2433.37289871
 20
2322.49036944
  0
VERTEX
  8
0
 10
2432.78064378
 20
2330.26592469
  0
VERTEX
  8
0
 10
2431.54701452
 20
2345.94718208
  0
VERTEX
  8
0
 10
2430.27308217
 20
2361.73522666
  0
VERTEX
  8
0
 10
2428.98907404
 20
2377.54996805
  0
VERTEX
  8
0
 10
2427.72521746
 20
2393.31131584
  0
VERTEX
  8
0
 10
2426.51173975
 20
2408.93917963
  0
VERTEX
  8
0
 10
2421.26933975
 20
2490.44887963
  0
VERTEX
  8
0
 10
2420.45394877
 20
2501.94679999
  0
VERTEX
  8
0
 10
2419.60864212
 20
2513.53248156
  0
VERTEX
  8
0
 10
2417.90007940
 20
2536.75650145
  0
VERTEX
  8
0
 10
2417.07272216
 20
2548.28952629
  0
VERTEX
  8
0
 10
2416.28724686
 20
2559.69968543
  0
VERTEX
  8
0
 10
2415.56160292
 20
2570.93432212
  0
VERTEX
  8
0
 10
2415.22682690
 20
2576.46936432
  0
VERTEX
  8
0
 10
2414.91373975
 20
2581.94077963
  0
VERTEX
  8
0
 10
2414.31713865
 20
2592.81646801
  0
VERTEX
  8
0
 10
2413.74051423
 20
2603.69392878
  0
VERTEX
  8
0
 10
2413.19466580
 20
2614.57320239
  0
VERTEX
  8
0
 10
2412.69039269
 20
2625.45432932
  0
VERTEX
  8
0
 10
2412.23849421
 20
2636.33735004
  0
VERTEX
  8
0
 10
2412.03556024
 20
2641.77958322
  0
VERTEX
  8
0
 10
2411.84976967
 20
2647.22230502
  0
VERTEX
  8
0
 10
2411.68247243
 20
2652.66552050
  0
VERTEX
  8
0
 10
2411.53501841
 20
2658.10923473
  0
VERTEX
  8
0
 10
2411.40875755
 20
2663.55345275
  0
VERTEX
  8
0
 10
2411.30503975
 20
2668.99817963
  0
VERTEX
  8
0
 10
2411.22565116
 20
2674.74939463
  0
VERTEX
  8
0
 10
2411.17062172
 20
2681.06794611
  0
VERTEX
  8
0
 10
2411.13866701
 20
2687.88614278
  0
VERTEX
  8
0
 10
2411.12850258
 20
2695.13629337
  0
VERTEX
  8
0
 10
2411.13884400
 20
2702.75070659
  0
VERTEX
  8
0
 10
2411.16840686
 20
2710.66169117
  0
VERTEX
  8
0
 10
2411.21590673
 20
2718.80155583
  0
VERTEX
  8
0
 10
2411.28005916
 20
2727.10260927
  0
VERTEX
  8
0
 10
2411.45318403
 20
2743.91751742
  0
VERTEX
  8
0
 10
2411.67750604
 20
2760.56488536
  0
VERTEX
  8
0
 10
2411.94274975
 20
2776.50318284
  0
VERTEX
  8
0
 10
2412.23863975
 20
2791.19087963
  0
VERTEX
  8
0
 10
2412.40939383
 20
2798.16809665
  0
VERTEX
  8
0
 10
2412.61105238
 20
2805.20813884
  0
VERTEX
  8
0
 10
2412.83939182
 20
2812.29642248
  0
VERTEX
  8
0
 10
2413.09018859
 20
2819.41836382
  0
VERTEX
  8
0
 10
2413.35921909
 20
2826.55937913
  0
VERTEX
  8
0
 10
2413.64225977
 20
2833.70488466
  0
VERTEX
  8
0
 10
2414.23347735
 20
2847.95103143
  0
VERTEX
  8
0
 10
2414.83005272
 20
2862.04013423
  0
VERTEX
  8
0
 10
2415.39819731
 20
2875.85552314
  0
VERTEX
  8
0
 10
2415.66104912
 20
2882.62411554
  0
VERTEX
  8
0
 10
2415.90412251
 20
2889.28052824
  0
VERTEX
  8
0
 10
2416.12319391
 20
2895.81017752
  0
VERTEX
  8
0
 10
2416.31403975
 20
2902.19847963
  0
VERTEX
  8
0
 10
2416.65127022
 20
2914.82444633
  0
VERTEX
  8
0
 10
2416.96127492
 20
2927.45121808
  0
VERTEX
  8
0
 10
2417.24347486
 20
2940.07870604
  0
VERTEX
  8
0
 10
2417.49729110
 20
2952.70682137
  0
VERTEX
  8
0
 10
2417.72214467
 20
2965.33547523
  0
VERTEX
  8
0
 10
2417.91745661
 20
2977.96457879
  0
VERTEX
  8
0
 10
2418.08264796
 20
2990.59404320
  0
VERTEX
  8
0
 10
2418.21713975
 20
3003.22377963
  0
VERTEX
  8
0
 10
2418.26941227
 20
3010.03551281
  0
VERTEX
  8
0
 10
2418.30821009
 20
3017.77676476
  0
VERTEX
  8
0
 10
2418.35095740
 20
3035.66319656
  0
VERTEX
  8
0
 10
2418.35653313
 20
3056.11381810
  0
VERTEX
  8
0
 10
2418.33608877
 20
3078.35937245
  0
VERTEX
  8
0
 10
2418.26174563
 20
3125.15825194
  0
VERTEX
  8
0
 10
2418.23014979
 20
3148.17306322
  0
VERTEX
  8
0
 10
2418.21713975
 20
3169.90577963
  0
VERTEX
  8
0
 10
2418.23047727
 20
3181.64951345
  0
VERTEX
  8
0
 10
2418.28400078
 20
3193.58267010
  0
VERTEX
  8
0
 10
2418.35359868
 20
3205.59159588
  0
VERTEX
  8
0
 10
2418.41515938
 20
3217.56263710
  0
VERTEX
  8
0
 10
2418.44457130
 20
3229.38214005
  0
VERTEX
  8
0
 10
2418.43968659
 20
3235.19954789
  0
VERTEX
  8
0
 10
2418.41772285
 20
3240.93645103
  0
VERTEX
  8
0
 10
2418.37566611
 20
3246.57864275
  0
VERTEX
  8
0
 10
2418.31050244
 20
3252.11191634
  0
VERTEX
  8
0
 10
2418.21921789
 20
3257.52206509
  0
VERTEX
  8
0
 10
2418.09879850
 20
3262.79488229
  0
VERTEX
  8
0
 10
2417.94715192
 20
3267.99369375
  0
VERTEX
  8
0
 10
2417.76621513
 20
3273.19137444
  0
VERTEX
  8
0
 10
2417.55901815
 20
3278.38804133
  0
VERTEX
  8
0
 10
2417.32859098
 20
3283.58381140
  0
VERTEX
  8
0
 10
2417.07796367
 20
3288.77880162
  0
VERTEX
  8
0
 10
2416.81016623
 20
3293.97312898
  0
VERTEX
  8
0
 10
2416.23518105
 20
3304.36026298
  0
VERTEX
  8
0
 10
2415.62787564
 20
3314.74614924
  0
VERTEX
  8
0
 10
2415.01249016
 20
3325.13172356
  0
VERTEX
  8
0
 10
2414.41326480
 20
3335.51792175
  0
VERTEX
  8
0
 10
2413.85443975
 20
3345.90567963
  0
VERTEX
  8
0
 10
2411.48453975
 20
3387.89927963
  0
VERTEX
  8
0
 10
2261.19729884
 20
3387.89927963
  0
VERTEX
  8
0
 10
2061.89053975
 20
3300.35364184
  0
VERTEX
  8
0
 10
2061.89053975
 20
2167.04927963
  0
VERTEX
  8
0
 10
2440.73103975
 20
2167.12107963
  0
SEQEND
  0
POLYLINE
  8
Default Layer
 66
   1
 39
0.000000
 70
    1
  0
VERTEX
  8
0
 10
5087.39250527
 20
2143.26299048
  0
VERTEX
  8
0
 10
5087.37970098
 20
3276.51258169
  0
VERTEX
  8
0
 10
4887.43262461
 20
3365.39811115
  0
VERTEX
  8
0
 10
4739.82720527
 20
3364.72339048
  0
VERTEX
  8
0
 10
4738.80841966
 20
3355.64448812
  0
VERTEX
  8
0
 10
4737.77372603
 20
3346.56726096
  0
VERTEX
  8
0
 10
4735.69479397
 20
3328.41381175
  0
VERTEX
  8
0
 10
4734.66964515
 20
3319.33557947
  0
VERTEX
  8
0
 10
4733.66676756
 20
3310.25500191
  0
VERTEX
  8
0
 10
4732.69570599
 20
3301.17107395
  0
VERTEX
  8
0
 10
4731.76600527
 20
3292.08279048
  0
VERTEX
  8
0
 10
4730.84681457
 20
3282.76290622
  0
VERTEX
  8
0
 10
4729.91265861
 20
3273.07916920
  0
VERTEX
  8
0
 10
4728.98114547
 20
3263.17306427
  0
VERTEX
  8
0
 10
4728.06988325
 20
3253.18607627
  0
VERTEX
  8
0
 10
4727.19648002
 20
3243.25969005
  0
VERTEX
  8
0
 10
4726.37854389
 20
3233.53539045
  0
VERTEX
  8
0
 10
4725.63368295
 20
3224.15466231
  0
VERTEX
  8
0
 10
4724.97950527
 20
3215.25899048
  0
VERTEX
  8
0
 10
4724.40135533
 20
3206.65131371
  0
VERTEX
  8
0
 10
4723.86982783
 20
3198.04053516
  0
VERTEX
  8
0
 10
4723.38040617
 20
3189.42708635
  0
VERTEX
  8
0
 10
4722.92857378
 20
3180.81139875
  0
VERTEX
  8
0
 10
4722.50981408
 20
3172.19390387
  0
VERTEX
  8
0
 10
4722.11961048
 20
3163.57503321
  0
VERTEX
  8
0
 10
4721.75344641
 20
3154.95521824
  0
VERTEX
  8
0
 10
4721.40680527
 20
3146.33489048
  0
VERTEX
  8
0
 10
4721.22576124
 20
3141.33469798
  0
VERTEX
  8
0
 10
4721.02254356
 20
3135.04358949
  0
VERTEX
  8
0
 10
4720.55876255
 20
3119.12279667
  0
VERTEX
  8
0
 10
4720.03381285
 20
3099.64085631
  0
VERTEX
  8
0
 10
4719.46604507
 20
3077.66611265
  0
VERTEX
  8
0
 10
4718.27545769
 20
3030.51159255
  0
VERTEX
  8
0
 10
4717.68933931
 20
3007.46850463
  0
VERTEX
  8
0
 10
4717.13380527
 20
2986.20599048
  0
VERTEX
  8
0
 10
4716.94238270
 20
2968.31340624
  0
VERTEX
  8
0
 10
4716.73035935
 20
2950.08908932
  0
VERTEX
  8
0
 10
4716.26352640
 20
2912.95147222
  0
VERTEX
  8
0
 10
4715.77133864
 20
2875.40556875
  0
VERTEX
  8
0
 10
4715.29182828
 20
2838.06380846
  0
VERTEX
  8
0
 10
4715.06871220
 20
2819.66086625
  0
VERTEX
  8
0
 10
4714.86302755
 20
2801.53862093
  0
VERTEX
  8
0
 10
4714.67952836
 20
2783.77362618
  0
VERTEX
  8
0
 10
4714.52296866
 20
2766.44243571
  0
VERTEX
  8
0
 10
4714.39810247
 20
2749.62160321
  0
VERTEX
  8
0
 10
4714.30968383
 20
2733.38768237
  0
VERTEX
  8
0
 10
4714.26246675
 20
2717.81722690
  0
VERTEX
  8
0
 10
4714.26120527
 20
2702.98679048
  0
VERTEX
  8
0
 10
4714.30505575
 20
2688.55203546
  0
VERTEX
  8
0
 10
4714.38735366
 20
2674.11756851
  0
VERTEX
  8
0
 10
4714.50412169
 20
2659.68335984
  0
VERTEX
  8
0
 10
4714.65138250
 20
2645.24937963
  0
VERTEX
  8
0
 10
4714.82515878
 20
2630.81559809
  0
VERTEX
  8
0
 10
4715.02147322
 20
2616.38198543
  0
VERTEX
  8
0
 10
4715.23634848
 20
2601.94851183
  0
VERTEX
  8
0
 10
4715.46580725
 20
2587.51514750
  0
VERTEX
  8
0
 10
4715.95256604
 20
2558.64862745
  0
VERTEX
  8
0
 10
4716.44993101
 20
2529.78218686
  0
VERTEX
  8
0
 10
4716.92608361
 20
2500.91558734
  0
VERTEX
  8
0
 10
4717.14626197
 20
2486.48215348
  0
VERTEX
  8
0
 10
4717.34920527
 20
2472.04859048
  0
VERTEX
  8
0
 10
4719.36985707
 20
2143.26299048
  0
VERTEX
  8
0
 10
5087.39250527
 20
2143.26299048
  0
SEQEND
  0
POLYLINE
  8
Default Layer
 66
   1
 39
0.000000
 70
    1
  0
VERTEX
  8
0
 10
2620.80113154
 20
1663.47949081
  0
VERTEX
  8
0
 10
2620.80113154
 20
1788.47949081
  0
VERTEX
  8
0
 10
4549.00113154
 20
1788.47949081
  0
VERTEX
  8
0
 10
4549.00113154
 20
1663.47949081
  0
VERTEX
  8
0
 10
2620.80113154
 20
1663.47949081
  0
SEQEND
  0
POLYLINE
  8
Default Layer
 66
   1
 39
0.000000
 70
    1
  0
VERTEX
  8
0
 10
2620.80113154
 20
1796.57949081
  0
VERTEX
  8
0
 10
2620.80113154
 20
1921.57949081
  0
VERTEX
  8
0
 10
4549.00113154
 20
1921.57949081
  0
VERTEX
  8
0
 10
4549.00113154
 20
1796.57949081
  0
VERTEX
  8
0
 10
2620.80113154
 20
1796.57949081
  0
SEQEND
  0
POLYLINE
  8
Default Layer
 66
   1
 39
0.000000
 70
    1
  0
VERTEX
  8
0
 10
2620.80113154
 20
1929.67949081
  0
VERTEX
  8
0
 10
2620.80113154
 20
2054.67949081
  0
VERTEX
  8
0
 10
4549.00113154
 20
2054.67949081
  0
VERTEX
  8
0
 10
4549.00113154
 20
1929.67949081
  0
VERTEX
  8
0
 10
2620.80113154
 20
1929.67949081
  0
SEQEND
  0
POLYLINE
  8
Default Layer
 66
   1
 39
0.000000
 70
    1
  0
VERTEX
  8
0
 10
4526.62580865
 20
2253.69699300
  0
VERTEX
  8
0
 10
4538.64752475
 20
2253.69699300
  0
VERTEX
  8
0
 10
4538.64752475
 20
2401.69699300
  0
VERTEX
  8
0
 10
4526.59997777
 20
2401.69699300
  0
VERTEX
  8
0
 10
4526.57897588
 20
2522.02899190
  0
VERTEX
  8
0
 10
4500.29735503
 20
2521.30280140
  0
VERTEX
  8
0
 10
4473.20807610
 20
2520.58435780
  0
VERTEX
  8
0
 10
4418.54492342
 20
2519.15211876
  0
VERTEX
  8
0
 10
4391.94023934
 20
2518.42902702
  0
VERTEX
  8
0
 10
4366.46627656
 20
2517.69508960
  0
VERTEX
  8
0
 10
4354.30475154
 20
2517.32260122
  0
VERTEX
  8
0
 10
4342.60762992
 20
2516.94565836
  0
VERTEX
  8
0
 10
4331.43548604
 20
2516.56368000
  0
VERTEX
  8
0
 10
4320.84889427
 20
2516.17608514
  0
VERTEX
  8
0
 10
4310.57577898
 20
2515.77359823
  0
VERTEX
  8
0
 10
4300.30361596
 20
2515.34886531
  0
VERTEX
  8
0
 10
4290.03230672
 20
2514.90418768
  0
VERTEX
  8
0
 10
4279.76175274
 20
2514.44186666
  0
VERTEX
  8
0
 10
4259.22251650
 20
2513.47349969
  0
VERTEX
  8
0
 10
4238.68511914
 20
2512.46217490
  0
VERTEX
  8
0
 10
4197.61268872
 20
2510.38429381
  0
VERTEX
  8
0
 10
4177.07607946
 20
2509.35455852
  0
VERTEX
  8
0
 10
4156.53815671
 20
2508.35550739
  0
VERTEX
  8
0
 10
4032.64098978
 20
2501.85268315
  0
VERTEX
  8
0
 10
3901.13136031
 20
2495.70753030
  0
VERTEX
  8
0
 10
3885.58906522
 20
2495.01231982
  0
VERTEX
  8
0
 10
3870.04816474
 20
2494.27680913
  0
VERTEX
  8
0
 10
3854.50782211
 20
2493.52517835
  0
VERTEX
  8
0
 10
3838.96720056
 20
2492.78160761
  0
VERTEX
  8
0
 10
3823.42546332
 20
2492.07027704
  0
VERTEX
  8
0
 10
3815.65391482
 20
2491.73425812
  0
VERTEX
  8
0
 10
3807.88177361
 20
2491.41536679
  0
VERTEX
  8
0
 10
3800.10893509
 20
2491.11662556
  0
VERTEX
  8
0
 10
3792.33529467
 20
2490.84105697
  0
VERTEX
  8
0
 10
3784.56074775
 20
2490.59168351
  0
VERTEX
  8
0
 10
3776.78518973
 20
2490.37152772
  0
VERTEX
  8
0
 10
3761.04759474
 20
2489.97414457
  0
VERTEX
  8
0
 10
3745.02958536
 20
2489.61175281
  0
VERTEX
  8
0
 10
3736.95779176
 20
2489.44911613
  0
VERTEX
  8
0
 10
3728.86673434
 20
2489.30175221
  0
VERTEX
  8
0
 10
3720.77335971
 20
2489.17183603
  0
VERTEX
  8
0
 10
3712.69461446
 20
2489.06154255
  0
VERTEX
  8
0
 10
3704.64744518
 20
2488.97304674
  0
VERTEX
  8
0
 10
3696.64879848
 20
2488.90852358
  0
VERTEX
  8
0
 10
3688.71562094
 20
2488.87014804
  0
VERTEX
  8
0
 10
3680.86485916
 20
2488.86009508
  0
VERTEX
  8
0
 10
3673.11345974
 20
2488.88053969
  0
VERTEX
  8
0
 10
3665.47836928
 20
2488.93365682
  0
VERTEX
  8
0
 10
3657.97653436
 20
2489.02162146
  0
VERTEX
  8
0
 10
3650.62490159
 20
2489.14660858
  0
VERTEX
  8
0
 10
3643.35491880
 20
2489.31683107
  0
VERTEX
  8
0
 10
3636.08661995
 20
2489.53569715
  0
VERTEX
  8
0
 10
3628.81983085
 20
2489.79817471
  0
VERTEX
  8
0
 10
3621.55437728
 20
2490.09923166
  0
VERTEX
  8
0
 10
3614.29008505
 20
2490.43383592
  0
VERTEX
  8
0
 10
3607.02677996
 20
2490.79695537
  0
VERTEX
  8
0
 10
3599.76428782
 20
2491.18355794
  0
VERTEX
  8
0
 10
3592.50243440
 20
2491.58861152
  0
VERTEX
  8
0
 10
3577.97994698
 20
2492.43394334
  0
VERTEX
  8
0
 10
3563.45792410
 20
2493.29269408
  0
VERTEX
  8
0
 10
3548.93497215
 20
2494.12460698
  0
VERTEX
  8
0
 10
3541.67271227
 20
2494.51791900
  0
VERTEX
  8
0
 10
3534.40969751
 20
2494.88942528
  0
VERTEX
  8
0
 10
3514.28222102
 20
2495.95784495
  0
VERTEX
  8
0
 10
3494.15620026
 20
2497.05718640
  0
VERTEX
  8
0
 10
3453.90503217
 20
2499.27442234
  0
VERTEX
  8
0
 10
3433.77813797
 20
2500.35521072
  0
VERTEX
  8
0
 10
3413.64920575
 20
2501.39270862
  0
VERTEX
  8
0
 10
3403.58370243
 20
2501.88942581
  0
VERTEX
  8
0
 10
3393.51736206
 20
2502.36836298
  0
VERTEX
  8
0
 10
3383.45007548
 20
2502.82720100
  0
VERTEX
  8
0
 10
3373.38173349
 20
2503.26362073
  0
VERTEX
  8
0
 10
3363.16012192
 20
2503.68099064
  0
VERTEX
  8
0
 10
3352.65280332
 20
2504.08513723
  0
VERTEX
  8
0
 10
3341.88933359
 20
2504.47742844
  0
VERTEX
  8
0
 10
3330.89926862
 20
2504.85923218
  0
VERTEX
  8
0
 10
3308.35757659
 20
2505.59684901
  0
VERTEX
  8
0
 10
3285.26417443
 20
2506.30893115
  0
VERTEX
  8
0
 10
3238.36802851
 20
2507.70026513
  0
VERTEX
  8
0
 10
3215.03817915
 20
2508.40140384
  0
VERTEX
  8
0
 10
3192.10240846
 20
2509.12078161
  0
VERTEX
  8
0
 10
3176.53682244
 20
2509.44608150
  0
VERTEX
  8
0
 10
3160.97167031
 20
2509.81036945
  0
VERTEX
  8
0
 10
3145.40669173
 20
2510.19025263
  0
VERTEX
  8
0
 10
3129.84162638
 20
2510.56233820
  0
VERTEX
  8
0
 10
3114.27621392
 20
2510.90323332
  0
VERTEX
  8
0
 10
3106.49329616
 20
2511.05467419
  0
VERTEX
  8
0
 10
3098.71019400
 20
2511.18954514
  0
VERTEX
  8
0
 10
3090.92687489
 20
2511.30492206
  0
VERTEX
  8
0
 10
3083.14330629
 20
2511.39788084
  0
VERTEX
  8
0
 10
3075.35945567
 20
2511.46549737
  0
VERTEX
  8
0
 10
3067.57529047
 20
2511.50484756
  0
VERTEX
  8
0
 10
3059.56040735
 20
2511.51100277
  0
VERTEX
  8
0
 10
3051.11417303
 20
2511.48331759
  0
VERTEX
  8
0
 10
3042.28121004
 20
2511.42529275
  0
VERTEX
  8
0
 10
3033.10614092
 20
2511.34042898
  0
VERTEX
  8
0
 10
3023.63358821
 20
2511.23222700
  0
VERTEX
  8
0
 10
3013.90817446
 20
2511.10418756
  0
VERTEX
  8
0
 10
2993.87725394
 20
2510.80259919
  0
VERTEX
  8
0
 10
2952.74447198
 20
2510.11540492
  0
VERTEX
  8
0
 10
2932.35657116
 20
2509.78581071
  0
VERTEX
  8
0
 10
2912.56363751
 20
2509.50289289
  0
VERTEX
  8
0
 10
2622.42286456
 20
2509.43868238
  0
VERTEX
  8
0
 10
2622.42279527
 20
2351.69633437
  0
VERTEX
  8
0
 10
2610.42953164
 20
2351.69633437
  0
VERTEX
  8
0
 10
2610.42953164
 20
2253.69633437
  0
VERTEX
  8
0
 10
2622.42275223
 20
2253.69633437
  0
VERTEX
  8
0
 10
2622.42270786
 20
2152.69474832
  0
VERTEX
  8
0
 10
4526.64343839
 20
2152.68599753
  0
VERTEX
  8
0
 10
4526.62580865
 20
2253.69699300
  0
SEQEND
  0
POLYLINE
  8
Default Layer
 66
   1
 39
0.000000
 70
    1
  0
VERTEX
  8
0
 10
4526.52206642
 20
2616.01131542
  0
VERTEX
  8
0
 10
4526.50443668
 20
2717.02231089
  0
VERTEX
  8
0
 10
4538.52615278
 20
2717.02231089
  0
VERTEX
  8
0
 10
4538.52615278
 20
2865.02231089
  0
VERTEX
  8
0
 10
4526.47860580
 20
2865.02231089
  0
VERTEX
  8
0
 10
4526.45760391
 20
2986.90004964
  0
VERTEX
  8
0
 10
2622.30149259
 20
2968.08462418
  0
VERTEX
  8
0
 10
2622.30142330
 20
2815.02165226
  0
VERTEX
  8
0
 10
2610.30815967
 20
2815.02165226
  0
VERTEX
  8
0
 10
2610.30815967
 20
2717.02165226
  0
VERTEX
  8
0
 10
2622.30138026
 20
2717.02165226
  0
VERTEX
  8
0
 10
2622.30133589
 20
2616.02006620
  0
VERTEX
  8
0
 10
4526.52206642
 20
2616.01131542
  0
SEQEND
  0
POLYLINE
  8
Default Layer
 66
   1
 39
0.000000
 70
    0
  0
VERTEX
  8
0
 10
2150.00684078
 20
3087.54006687
  0
VERTEX
  8
0
 10
2116.14017412
 20
3087.54006687
  0
VERTEX
  8
0
 10
2116.14017412
 20
3036.74006687
  0
SEQEND
  0
POLYLINE
  8
Default Layer
 66
   1
 39
0.000000
 70
    0
  0
VERTEX
  8
0
 10
2133.07350745
 20
3062.14006687
  0
VERTEX
  8
0
 10
2116.14017412
 20
3062.14006687
  0
SEQEND
  0
POLYLINE
  8
Default Layer
 66
   1
 39
0.000000
 70
    0
  0
VERTEX
  8
0
 10
2166.94017412
 20
3062.14006687
  0
VERTEX
  8
0
 10
2192.34017412
 20
3062.14006687
  0
VERTEX
  8
0
 10
2200.80684078
 20
3070.60673354
  0
VERTEX
  8
0
 10
2200.80684078
 20
3079.07340021
  0
VERTEX
  8
0
 10
2192.34017412
 20
3087.54006687
  0
VERTEX
  8
0
 10
2166.94017412
 20
3087.54006687
  0
VERTEX
  8
0
 10
2166.94017412
 20
3036.74006687
  0
SEQEND
  0
POLYLINE
  8
Default Layer
 66
   1
 39
0.000000
 70
    0
  0
VERTEX
  8
0
 10
2200.80684078
 20
3036.74006687
  0
VERTEX
  8
0
 10
2175.40684078
 20
3062.14006687
  0
SEQEND
  0
POLYLINE
  8
Default Layer
 66
   1
 39
0.000000
 70
    1
  0
VERTEX
  8
0
 10
2217.74017412
 20
3036.74006687
  0
VERTEX
  8
0
 10
2251.60684078
 20
3036.74006687
  0
VERTEX
  8
0
 10
2251.60684078
 20
3087.54006687
  0
VERTEX
  8
0
 10
2217.74017412
 20
3087.54006687
  0
VERTEX
  8
0
 10
2217.74017412
 20
3036.74006687
  0
SEQEND
  0
POLYLINE
  8
Default Layer
 66
   1
 39
0.000000
 70
    0
  0
VERTEX
  8
0
 10
2302.40684078
 20
3087.54006687
  0
VERTEX
  8
0
 10
2302.40684078
 20
3036.74006687
  0
VERTEX
  8
0
 10
2268.54017412
 20
3087.54006687
  0
VERTEX
  8
0
 10
2268.54017412
 20
3036.74006687
  0
SEQEND
  0
POLYLINE
  8
Default Layer
 66
   1
 39
0.000000
 70
    0
  0
VERTEX
  8
0
 10
2353.20684078
 20
3087.54006687
  0
VERTEX
  8
0
 10
2319.34017412
 20
3087.54006687
  0
SEQEND
  0
POLYLINE
  8
Default Layer
 66
   1
 39
0.000000
 70
    0
  0
VERTEX
  8
0
 10
2336.27350745
 20
3036.74006687
  0
VERTEX
  8
0
 10
2336.27350745
 20
3087.54006687
  0
SEQEND
  0
POLYLINE
  8
Default Layer
 66
   1
 39
0.000000
 70
    0
  0
VERTEX
  8
0
 10
4783.50385422
 20
3024.49501806
  0
VERTEX
  8
0
 10
4808.90385422
 20
3024.49501806
  0
VERTEX
  8
0
 10
4817.37052088
 20
3032.96168473
  0
VERTEX
  8
0
 10
4817.37052088
 20
3041.42835139
  0
VERTEX
  8
0
 10
4808.90385422
 20
3049.89501806
  0
VERTEX
  8
0
 10
4783.50385422
 20
3049.89501806
  0
VERTEX
  8
0
 10
4783.50385422
 20
2999.09501806
  0
SEQEND
  0
POLYLINE
  8
Default Layer
 66
   1
 39
0.000000
 70
    0
  0
VERTEX
  8
0
 10
4817.37052088
 20
2999.09501806
  0
VERTEX
  8
0
 10
4791.97052088
 20
3024.49501806
  0
SEQEND
  0
POLYLINE
  8
Default Layer
 66
   1
 39
0.000000
 70
    0
  0
VERTEX
  8
0
 10
4868.17052088
 20
3049.89501806
  0
VERTEX
  8
0
 10
4834.30385422
 20
3049.89501806
  0
VERTEX
  8
0
 10
4834.30385422
 20
2999.09501806
  0
VERTEX
  8
0
 10
4868.17052088
 20
2999.09501806
  0
SEQEND
  0
POLYLINE
  8
Default Layer
 66
   1
 39
0.000000
 70
    0
  0
VERTEX
  8
0
 10
4851.23718755
 20
3024.49501806
  0
VERTEX
  8
0
 10
4834.30385422
 20
3024.49501806
  0
SEQEND
  0
POLYLINE
  8
Default Layer
 66
   1
 39
0.000000
 70
    0
  0
VERTEX
  8
0
 10
4918.97052088
 20
2999.09501806
  0
VERTEX
  8
0
 10
4918.97052088
 20
3016.02835139
  0
VERTEX
  8
0
 10
4902.03718755
 20
3049.89501806
  0
VERTEX
  8
0
 10
4885.10385422
 20
3016.02835139
  0
VERTEX
  8
0
 10
4885.10385422
 20
2999.09501806
  0
SEQEND
  0
POLYLINE
  8
Default Layer
 66
   1
 39
0.000000
 70
    0
  0
VERTEX
  8
0
 10
4918.97052088
 20
3016.02835139
  0
VERTEX
  8
0
 10
4885.10385422
 20
3016.02835139
  0
SEQEND
  0
POLYLINE
  8
Default Layer
 66
   1
 39
0.000000
 70
    0
  0
VERTEX
  8
0
 10
4935.90385422
 20
3024.49501806
  0
VERTEX
  8
0
 10
4961.30385422
 20
3024.49501806
  0
VERTEX
  8
0
 10
4969.77052088
 20
3032.96168473
  0
VERTEX
  8
0
 10
4969.77052088
 20
3041.42835139
  0
VERTEX
  8
0
 10
4961.30385422
 20
3049.89501806
  0
VERTEX
  8
0
 10
4935.90385422
 20
3049.89501806
  0
VERTEX
  8
0
 10
4935.90385422
 20
2999.09501806
  0
SEQEND
  0
POLYLINE
  8
Default Layer
 66
   1
 39
0.000000
 70
    0
  0
VERTEX
  8
0
 10
4969.77052088
 20
2999.09501806
  0
VERTEX
  8
0
 10
4944.37052088
 20
3024.49501806
  0
SEQEND
  0
POLYLINE
  8
Default Layer
 66
   1
 39
0.000000
 70
    0
  0
VERTEX
  8
0
 10
2809.56727959
 20
2081.23630363
  0
VERTEX
  8
0
 10
2775.70061292
 20
2081.23630363
  0
VERTEX
  8
0
 10
2775.70061292
 20
2098.16963696
  0
VERTEX
  8
0
 10
2784.16727959
 20
2106.63630363
  0
VERTEX
  8
0
 10
2801.10061292
 20
2106.63630363
  0
VERTEX
  8
0
 10
2809.56727959
 20
2115.10297030
  0
VERTEX
  8
0
 10
2809.56727959
 20
2123.56963696
  0
VERTEX
  8
0
 10
2801.10061292
 20
2132.03630363
  0
VERTEX
  8
0
 10
2784.16727959
 20
2132.03630363
  0
VERTEX
  8
0
 10
2775.70061292
 20
2123.56963696
  0
SEQEND
  0
POLYLINE
  8
Default Layer
 66
   1
 39
0.000000
 70
    0
  0
VERTEX
  8
0
 10
2860.36727959
 20
2132.03630363
  0
VERTEX
  8
0
 10
2826.50061292
 20
2081.23630363
  0
SEQEND
  0
POLYLINE
  8
Default Layer
 66
   1
 39
0.000000
 70
    0
  0
VERTEX
  8
0
 10
2860.36727959
 20
2081.23630363
  0
VERTEX
  8
0
 10
2826.50061292
 20
2132.03630363
  0
SEQEND
  0
POLYLINE
  8
Default Layer
 66
   1
 39
0.000000
 70
    0
  0
VERTEX
  8
0
 10
2885.76727959
 20
2081.23630363
  0
VERTEX
  8
0
 10
2885.76727959
 20
2132.03630363
  0
VERTEX
  8
0
 10
2877.30061292
 20
2123.56963696
  0
SEQEND
  0
POLYLINE
  8
Default Layer
 66
   1
 39
0.000000
 70
    0
  0
VERTEX
  8
0
 10
2894.23394625
 20
2081.23630363
  0
VERTEX
  8
0
 10
2877.30061292
 20
2081.23630363
  0
SEQEND
  0
POLYLINE
  8
Default Layer
 66
   1
 39
0.000000
 70
    0
  0
VERTEX
  8
0
 10
2995.83394625
 20
2132.03630363
  0
VERTEX
  8
0
 10
2961.96727959
 20
2132.03630363
  0
VERTEX
  8
0
 10
2961.96727959
 20
2081.23630363
  0
SEQEND
  0
POLYLINE
  8
Default Layer
 66
   1
 39
0.000000
 70
    0
  0
VERTEX
  8
0
 10
2978.90061292
 20
2106.63630363
  0
VERTEX
  8
0
 10
2961.96727959
 20
2106.63630363
  0
SEQEND
  0
POLYLINE
  8
Default Layer
 66
   1
 39
0.000000
 70
    0
  0
VERTEX
  8
0
 10
3046.63394625
 20
2081.23630363
  0
VERTEX
  8
0
 10
3012.76727959
 20
2081.23630363
  0
VERTEX
  8
0
 10
3012.76727959
 20
2132.03630363
  0
SEQEND
  0
POLYLINE
  8
Default Layer
 66
   1
 39
0.000000
 70
    0
  0
VERTEX
  8
0
 10
3097.43394625
 20
2081.23630363
  0
VERTEX
  8
0
 10
3097.43394625
 20
2098.16963696
  0
VERTEX
  8
0
 10
3080.50061292
 20
2132.03630363
  0
VERTEX
  8
0
 10
3063.56727959
 20
2098.16963696
  0
VERTEX
  8
0
 10
3063.56727959
 20
2081.23630363
  0
SEQEND
  0
POLYLINE
  8
Default Layer
 66
   1
 39
0.000000
 70
    0
  0
VERTEX
  8
0
 10
3097.43394625
 20
2098.16963696
  0
VERTEX
  8
0
 10
3063.56727959
 20
2098.16963696
  0
SEQEND
  0
POLYLINE
  8
Default Layer
 66
   1
 39
0.000000
 70
    0
  0
VERTEX
  8
0
 10
3148.23394625
 20
2132.03630363
  0
VERTEX
  8
0
 10
3114.36727959
 20
2132.03630363
  0
SEQEND
  0
POLYLINE
  8
Default Layer
 66
   1
 39
0.000000
 70
    0
  0
VERTEX
  8
0
 10
3131.30061292
 20
2081.23630363
  0
VERTEX
  8
0
 10
3131.30061292
 20
2132.03630363
  0
SEQEND
  0
POLYLINE
  8
Default Layer
 66
   1
 39
0.000000
 70
    0
  0
VERTEX
  8
0
 10
3249.83394625
 20
2132.03630363
  0
VERTEX
  8
0
 10
3249.83394625
 20
2089.70297030
  0
VERTEX
  8
0
 10
3241.36727959
 20
2081.23630363
  0
VERTEX
  8
0
 10
3224.43394625
 20
2081.23630363
  0
VERTEX
  8
0
 10
3215.96727959
 20
2089.70297030
  0
VERTEX
  8
0
 10
3215.96727959
 20
2132.03630363
  0
SEQEND
  0
POLYLINE
  8
Default Layer
 66
   1
 39
0.000000
 70
    0
  0
VERTEX
  8
0
 10
3300.63394625
 20
2132.03630363
  0
VERTEX
  8
0
 10
3300.63394625
 20
2081.23630363
  0
VERTEX
  8
0
 10
3266.76727959
 20
2132.03630363
  0
VERTEX
  8
0
 10
3266.76727959
 20
2081.23630363
  0
SEQEND
  0
POLYLINE
  8
Default Layer
 66
   1
 39
0.000000
 70
    0
  0
VERTEX
  8
0
 10
3317.56727959
 20
2132.03630363
  0
VERTEX
  8
0
 10
3342.96727959
 20
2132.03630363
  0
VERTEX
  8
0
 10
3351.43394625
 20
2123.56963696
  0
VERTEX
  8
0
 10
3351.43394625
 20
2089.70297030
  0
VERTEX
  8
0
 10
3342.96727959
 20
2081.23630363
  0
VERTEX
  8
0
 10
3317.56727959
 20
2081.23630363
  0
SEQEND
  0
POLYLINE
  8
Default Layer
 66
   1
 39
0.000000
 70
    0
  0
VERTEX
  8
0
 10
3326.03394625
 20
2081.23630363
  0
VERTEX
  8
0
 10
3326.03394625
 20
2132.03630363
  0
SEQEND
  0
POLYLINE
  8
Default Layer
 66
   1
 39
0.000000
 70
    0
  0
VERTEX
  8
0
 10
3402.23394625
 20
2132.03630363
  0
VERTEX
  8
0
 10
3368.36727959
 20
2132.03630363
  0
VERTEX
  8
0
 10
3368.36727959
 20
2081.23630363
  0
VERTEX
  8
0
 10
3402.23394625
 20
2081.23630363
  0
SEQEND
  0
POLYLINE
  8
Default Layer
 66
   1
 39
0.000000
 70
    0
  0
VERTEX
  8
0
 10
3385.30061292
 20
2106.63630363
  0
VERTEX
  8
0
 10
3368.36727959
 20
2106.63630363
  0
SEQEND
  0
POLYLINE
  8
Default Layer
 66
   1
 39
0.000000
 70
    0
  0
VERTEX
  8
0
 10
3419.16727959
 20
2106.63630363
  0
VERTEX
  8
0
 10
3444.56727959
 20
2106.63630363
  0
VERTEX
  8
0
 10
3453.03394625
 20
2115.10297030
  0
VERTEX
  8
0
 10
3453.03394625
 20
2123.56963696
  0
VERTEX
  8
0
 10
3444.56727959
 20
2132.03630363
  0
VERTEX
  8
0
 10
3419.16727959
 20
2132.03630363
  0
VERTEX
  8
0
 10
3419.16727959
 20
2081.23630363
  0
SEQEND
  0
POLYLINE
  8
Default Layer
 66
   1
 39
0.000000
 70
    0
  0
VERTEX
  8
0
 10
3453.03394625
 20
2081.23630363
  0
VERTEX
  8
0
 10
3427.63394625
 20
2106.63630363
  0
SEQEND
  0
POLYLINE
  8
Default Layer
 66
   1
 39
0.000000
 70
    0
  0
VERTEX
  8
0
 10
3554.63394625
 20
2132.03630363
  0
VERTEX
  8
0
 10
3520.76727959
 20
2132.03630363
  0
VERTEX
  8
0
 10
3520.76727959
 20
2081.23630363
  0
SEQEND
  0
POLYLINE
  8
Default Layer
 66
   1
 39
0.000000
 70
    0
  0
VERTEX
  8
0
 10
3537.70061292
 20
2106.63630363
  0
VERTEX
  8
0
 10
3520.76727959
 20
2106.63630363
  0
SEQEND
  0
POLYLINE
  8
Default Layer
 66
   1
 39
0.000000
 70
    0
  0
VERTEX
  8
0
 10
3571.56727959
 20
2106.63630363
  0
VERTEX
  8
0
 10
3596.96727959
 20
2106.63630363
  0
VERTEX
  8
0
 10
3605.43394625
 20
2115.10297030
  0
VERTEX
  8
0
 10
3605.43394625
 20
2123.56963696
  0
VERTEX
  8
0
 10
3596.96727959
 20
2132.03630363
  0
VERTEX
  8
0
 10
3571.56727959
 20
2132.03630363
  0
VERTEX
  8
0
 10
3571.56727959
 20
2081.23630363
  0
SEQEND
  0
POLYLINE
  8
Default Layer
 66
   1
 39
0.000000
 70
    0
  0
VERTEX
  8
0
 10
3605.43394625
 20
2081.23630363
  0
VERTEX
  8
0
 10
3580.03394625
 20
2106.63630363
  0
SEQEND
  0
POLYLINE
  8
Default Layer
 66
   1
 39
0.000000
 70
    1
  0
VERTEX
  8
0
 10
3622.36727959
 20
2081.23630363
  0
VERTEX
  8
0
 10
3656.23394625
 20
2081.23630363
  0
VERTEX
  8
0
 10
3656.23394625
 20
2132.03630363
  0
VERTEX
  8
0
 10
3622.36727959
 20
2132.03630363
  0
VERTEX
  8
0
 10
3622.36727959
 20
2081.23630363
  0
SEQEND
  0
POLYLINE
  8
Default Layer
 66
   1
 39
0.000000
 70
    0
  0
VERTEX
  8
0
 10
3707.03394625
 20
2132.03630363
  0
VERTEX
  8
0
 10
3707.03394625
 20
2081.23630363
  0
VERTEX
  8
0
 10
3673.16727959
 20
2132.03630363
  0
VERTEX
  8
0
 10
3673.16727959
 20
2081.23630363
  0
SEQEND
  0
POLYLINE
  8
Default Layer
 66
   1
 39
0.000000
 70
    0
  0
VERTEX
  8
0
 10
3757.83394625
 20
2132.03630363
  0
VERTEX
  8
0
 10
3723.96727959
 20
2132.03630363
  0
SEQEND
  0
POLYLINE
  8
Default Layer
 66
   1
 39
0.000000
 70
    0
  0
VERTEX
  8
0
 10
3740.90061292
 20
2081.23630363
  0
VERTEX
  8
0
 10
3740.90061292
 20
2132.03630363
  0
SEQEND
  0
POLYLINE
  8
Default Layer
 66
   1
 39
0.000000
 70
    1
  0
VERTEX
  8
0
 10
3825.56727959
 20
2081.23630363
  0
VERTEX
  8
0
 10
3859.43394625
 20
2081.23630363
  0
VERTEX
  8
0
 10
3859.43394625
 20
2132.03630363
  0
VERTEX
  8
0
 10
3825.56727959
 20
2132.03630363
  0
VERTEX
  8
0
 10
3825.56727959
 20
2081.23630363
  0
SEQEND
  0
POLYLINE
  8
Default Layer
 66
   1
 39
0.000000
 70
    0
  0
VERTEX
  8
0
 10
3910.23394625
 20
2132.03630363
  0
VERTEX
  8
0
 10
3876.36727959
 20
2132.03630363
  0
VERTEX
  8
0
 10
3876.36727959
 20
2081.23630363
  0
SEQEND
  0
POLYLINE
  8
Default Layer
 66
   1
 39
0.000000
 70
    0
  0
VERTEX
  8
0
 10
3893.30061292
 20
2106.63630363
  0
VERTEX
  8
0
 10
3876.36727959
 20
2106.63630363
  0
SEQEND
  0
POLYLINE
  8
Default Layer
 66
   1
 39
0.000000
 70
    0
  0
VERTEX
  8
0
 10
4011.83394625
 20
2123.56963696
  0
VERTEX
  8
0
 10
4003.36727959
 20
2132.03630363
  0
VERTEX
  8
0
 10
3986.43394625
 20
2132.03630363
  0
VERTEX
  8
0
 10
3977.96727959
 20
2123.56963696
  0
VERTEX
  8
0
 10
4011.83394625
 20
2089.70297030
  0
VERTEX
  8
0
 10
4003.36727959
 20
2081.23630363
  0
VERTEX
  8
0
 10
3986.43394625
 20
2081.23630363
  0
VERTEX
  8
0
 10
3977.96727959
 20
2089.70297030
  0
SEQEND
  0
POLYLINE
  8
Default Layer
 66
   1
 39
0.000000
 70
    0
  0
VERTEX
  8
0
 10
4028.76727959
 20
2132.03630363
  0
VERTEX
  8
0
 10
4028.76727959
 20
2081.23630363
  0
SEQEND
  0
POLYLINE
  8
Default Layer
 66
   1
 39
0.000000
 70
    0
  0
VERTEX
  8
0
 10
4062.63394625
 20
2106.63630363
  0
VERTEX
  8
0
 10
4028.76727959
 20
2106.63630363
  0
SEQEND
  0
POLYLINE
  8
Default Layer
 66
   1
 39
0.000000
 70
    0
  0
VERTEX
  8
0
 10
4062.63394625
 20
2081.23630363
  0
VERTEX
  8
0
 10
4062.63394625
 20
2132.03630363
  0
SEQEND
  0
POLYLINE
  8
Default Layer
 66
   1
 39
0.000000
 70
    0
  0
VERTEX
  8
0
 10
4113.43394625
 20
2132.03630363
  0
VERTEX
  8
0
 10
4079.56727959
 20
2132.03630363
  0
VERTEX
  8
0
 10
4079.56727959
 20
2081.23630363
  0
VERTEX
  8
0
 10
4113.43394625
 20
2081.23630363
  0
SEQEND
  0
POLYLINE
  8
Default Layer
 66
   1
 39
0.000000
 70
    0
  0
VERTEX
  8
0
 10
4096.50061292
 20
2106.63630363
  0
VERTEX
  8
0
 10
4079.56727959
 20
2106.63630363
  0
SEQEND
  0
POLYLINE
  8
Default Layer
 66
   1
 39
0.000000
 70
    0
  0
VERTEX
  8
0
 10
4164.23394625
 20
2081.23630363
  0
VERTEX
  8
0
 10
4130.36727959
 20
2081.23630363
  0
VERTEX
  8
0
 10
4130.36727959
 20
2132.03630363
  0
SEQEND
  0
POLYLINE
  8
Default Layer
 66
   1
 39
0.000000
 70
    0
  0
VERTEX
  8
0
 10
4231.96727959
 20
2132.03630363
  0
VERTEX
  8
0
 10
4206.56727959
 20
2081.23630363
  0
VERTEX
  8
0
 10
4181.16727959
 20
2132.03630363
  0
SEQEND
  0
POLYLINE
  8
Default Layer
 66
   1
 39
0.000000
 70
    0
  0
VERTEX
  8
0
 10
4282.76727959
 20
2132.03630363
  0
VERTEX
  8
0
 10
4248.90061292
 20
2132.03630363
  0
VERTEX
  8
0
 10
4248.90061292
 20
2081.23630363
  0
VERTEX
  8
0
 10
4282.76727959
 20
2081.23630363
  0
SEQEND
  0
POLYLINE
  8
Default Layer
 66
   1
 39
0.000000
 70
    0
  0
VERTEX
  8
0
 10
4265.83394625
 20
2106.63630363
  0
VERTEX
  8
0
 10
4248.90061292
 20
2106.63630363
  0
SEQEND
  0
POLYLINE
  8
Default Layer
 66
   1
 39
0.000000
 70
    0
  0
VERTEX
  8
0
 10
4333.56727959
 20
2123.56963696
  0
VERTEX
  8
0
 10
4325.10061292
 20
2132.03630363
  0
VERTEX
  8
0
 10
4308.16727959
 20
2132.03630363
  0
VERTEX
  8
0
 10
4299.70061292
 20
2123.56963696
  0
VERTEX
  8
0
 10
4333.56727959
 20
2089.70297030
  0
VERTEX
  8
0
 10
4325.10061292
 20
2081.23630363
  0
VERTEX
  8
0
 10
4308.16727959
 20
2081.23630363
  0
VERTEX
  8
0
 10
4299.70061292
 20
2089.70297030
  0
SEQEND
  0
POLYLINE
  8
Default Layer
 66
   1
 39
0.000000
 70
    0
  0
VERTEX
  8
0
 10
2720.25695427
 20
3447.91239981
  0
VERTEX
  8
0
 10
2728.72362093
 20
3447.91239981
  0
VERTEX
  8
0
 10
2737.19028760
 20
3456.37906648
  0
VERTEX
  8
0
 10
2737.19028760
 20
3464.84573314
  0
VERTEX
  8
0
 10
2728.72362093
 20
3473.31239981
  0
VERTEX
  8
0
 10
2711.79028760
 20
3473.31239981
  0
VERTEX
  8
0
 10
2703.32362093
 20
3464.84573314
  0
SEQEND
  0
POLYLINE
  8
Default Layer
 66
   1
 39
0.000000
 70
    0
  0
VERTEX
  8
0
 10
2703.32362093
 20
3430.97906648
  0
VERTEX
  8
0
 10
2711.79028760
 20
3422.51239981
  0
VERTEX
  8
0
 10
2728.72362093
 20
3422.51239981
  0
VERTEX
  8
0
 10
2737.19028760
 20
3430.97906648
  0
VERTEX
  8
0
 10
2737.19028760
 20
3439.44573314
  0
VERTEX
  8
0
 10
2728.72362093
 20
3447.91239981
  0
SEQEND
  0
POLYLINE
  8
Default Layer
 66
   1
 39
0.000000
 70
    0
  0
VERTEX
  8
0
 10
2787.99028760
 20
3473.31239981
  0
VERTEX
  8
0
 10
2754.12362093
 20
3422.51239981
  0
SEQEND
  0
POLYLINE
  8
Default Layer
 66
   1
 39
0.000000
 70
    0
  0
VERTEX
  8
0
 10
2787.99028760
 20
3422.51239981
  0
VERTEX
  8
0
 10
2754.12362093
 20
3473.31239981
  0
SEQEND
  0
POLYLINE
  8
Default Layer
 66
   1
 39
0.000000
 70
    0
  0
VERTEX
  8
0
 10
2813.39028760
 20
3422.51239981
  0
VERTEX
  8
0
 10
2813.39028760
 20
3473.31239981
  0
VERTEX
  8
0
 10
2804.92362093
 20
3464.84573314
  0
SEQEND
  0
POLYLINE
  8
Default Layer
 66
   1
 39
0.000000
 70
    0
  0
VERTEX
  8
0
 10
2821.85695427
 20
3422.51239981
  0
VERTEX
  8
0
 10
2804.92362093
 20
3422.51239981
  0
SEQEND
  0
POLYLINE
  8
Default Layer
 66
   1
 39
0.000000
 70
    0
  0
VERTEX
  8
0
 10
2923.45695427
 20
3473.31239981
  0
VERTEX
  8
0
 10
2889.59028760
 20
3473.31239981
  0
VERTEX
  8
0
 10
2889.59028760
 20
3422.51239981
  0
SEQEND
  0
POLYLINE
  8
Default Layer
 66
   1
 39
0.000000
 70
    0
  0
VERTEX
  8
0
 10
2906.52362093
 20
3447.91239981
  0
VERTEX
  8
0
 10
2889.59028760
 20
3447.91239981
  0
SEQEND
  0
POLYLINE
  8
Default Layer
 66
   1
 39
0.000000
 70
    0
  0
VERTEX
  8
0
 10
2957.32362093
 20
3473.31239981
  0
VERTEX
  8
0
 10
2940.39028760
 20
3473.31239981
  0
SEQEND
  0
POLYLINE
  8
Default Layer
 66
   1
 39
0.000000
 70
    0
  0
VERTEX
  8
0
 10
2948.85695427
 20
3422.51239981
  0
VERTEX
  8
0
 10
2948.85695427
 20
3473.31239981
  0
SEQEND
  0
POLYLINE
  8
Default Layer
 66
   1
 39
0.000000
 70
    0
  0
VERTEX
  8
0
 10
2957.32362093
 20
3422.51239981
  0
VERTEX
  8
0
 10
2940.39028760
 20
3422.51239981
  0
SEQEND
  0
POLYLINE
  8
Default Layer
 66
   1
 39
0.000000
 70
    0
  0
VERTEX
  8
0
 10
3008.12362093
 20
3473.31239981
  0
VERTEX
  8
0
 10
2974.25695427
 20
3422.51239981
  0
SEQEND
  0
POLYLINE
  8
Default Layer
 66
   1
 39
0.000000
 70
    0
  0
VERTEX
  8
0
 10
3008.12362093
 20
3422.51239981
  0
VERTEX
  8
0
 10
2974.25695427
 20
3473.31239981
  0
SEQEND
  0
POLYLINE
  8
Default Layer
 66
   1
 39
0.000000
 70
    0
  0
VERTEX
  8
0
 10
3058.92362093
 20
3473.31239981
  0
VERTEX
  8
0
 10
3025.05695427
 20
3473.31239981
  0
VERTEX
  8
0
 10
3025.05695427
 20
3422.51239981
  0
VERTEX
  8
0
 10
3058.92362093
 20
3422.51239981
  0
SEQEND
  0
POLYLINE
  8
Default Layer
 66
   1
 39
0.000000
 70
    0
  0
VERTEX
  8
0
 10
3041.99028760
 20
3447.91239981
  0
VERTEX
  8
0
 10
3025.05695427
 20
3447.91239981
  0
SEQEND
  0
POLYLINE
  8
Default Layer
 66
   1
 39
0.000000
 70
    0
  0
VERTEX
  8
0
 10
3075.85695427
 20
3473.31239981
  0
VERTEX
  8
0
 10
3101.25695427
 20
3473.31239981
  0
VERTEX
  8
0
 10
3109.72362093
 20
3464.84573314
  0
VERTEX
  8
0
 10
3109.72362093
 20
3430.97906648
  0
VERTEX
  8
0
 10
3101.25695427
 20
3422.51239981
  0
VERTEX
  8
0
 10
3075.85695427
 20
3422.51239981
  0
SEQEND
  0
POLYLINE
  8
Default Layer
 66
   1
 39
0.000000
 70
    0
  0
VERTEX
  8
0
 10
3084.32362093
 20
3422.51239981
  0
VERTEX
  8
0
 10
3084.32362093
 20
3473.31239981
  0
SEQEND
  0
POLYLINE
  8
Default Layer
 66
   1
 39
0.000000
 70
    0
  0
VERTEX
  8
0
 10
3211.32362093
 20
3473.31239981
  0
VERTEX
  8
0
 10
3211.32362093
 20
3430.97906648
  0
VERTEX
  8
0
 10
3202.85695427
 20
3422.51239981
  0
VERTEX
  8
0
 10
3185.92362093
 20
3422.51239981
  0
VERTEX
  8
0
 10
3177.45695427
 20
3430.97906648
  0
VERTEX
  8
0
 10
3177.45695427
 20
3473.31239981
  0
SEQEND
  0
POLYLINE
  8
Default Layer
 66
   1
 39
0.000000
 70
    0
  0
VERTEX
  8
0
 10
3262.12362093
 20
3473.31239981
  0
VERTEX
  8
0
 10
3262.12362093
 20
3422.51239981
  0
VERTEX
  8
0
 10
3228.25695427
 20
3473.31239981
  0
VERTEX
  8
0
 10
3228.25695427
 20
3422.51239981
  0
SEQEND
  0
POLYLINE
  8
Default Layer
 66
   1
 39
0.000000
 70
    0
  0
VERTEX
  8
0
 10
3312.92362093
 20
3473.31239981
  0
VERTEX
  8
0
 10
3279.05695427
 20
3473.31239981
  0
VERTEX
  8
0
 10
3279.05695427
 20
3422.51239981
  0
VERTEX
  8
0
 10
3312.92362093
 20
3422.51239981
  0
SEQEND
  0
POLYLINE
  8
Default Layer
 66
   1
 39
0.000000
 70
    0
  0
VERTEX
  8
0
 10
3295.99028760
 20
3447.91239981
  0
VERTEX
  8
0
 10
3279.05695427
 20
3447.91239981
  0
SEQEND
  0
POLYLINE
  8
Default Layer
 66
   1
 39
0.000000
 70
    0
  0
VERTEX
  8
0
 10
3329.85695427
 20
3447.91239981
  0
VERTEX
  8
0
 10
3355.25695427
 20
3447.91239981
  0
VERTEX
  8
0
 10
3363.72362093
 20
3456.37906648
  0
VERTEX
  8
0
 10
3363.72362093
 20
3464.84573314
  0
VERTEX
  8
0
 10
3355.25695427
 20
3473.31239981
  0
VERTEX
  8
0
 10
3329.85695427
 20
3473.31239981
  0
VERTEX
  8
0
 10
3329.85695427
 20
3422.51239981
  0
SEQEND
  0
POLYLINE
  8
Default Layer
 66
   1
 39
0.000000
 70
    0
  0
VERTEX
  8
0
 10
3363.72362093
 20
3422.51239981
  0
VERTEX
  8
0
 10
3338.32362093
 20
3447.91239981
  0
SEQEND
  0
POLYLINE
  8
Default Layer
 66
   1
 39
0.000000
 70
    0
  0
VERTEX
  8
0
 10
3431.45695427
 20
3447.91239981
  0
VERTEX
  8
0
 10
3456.85695427
 20
3447.91239981
  0
VERTEX
  8
0
 10
3465.32362093
 20
3456.37906648
  0
VERTEX
  8
0
 10
3465.32362093
 20
3464.84573314
  0
VERTEX
  8
0
 10
3456.85695427
 20
3473.31239981
  0
VERTEX
  8
0
 10
3431.45695427
 20
3473.31239981
  0
VERTEX
  8
0
 10
3431.45695427
 20
3422.51239981
  0
SEQEND
  0
POLYLINE
  8
Default Layer
 66
   1
 39
0.000000
 70
    0
  0
VERTEX
  8
0
 10
3465.32362093
 20
3422.51239981
  0
VERTEX
  8
0
 10
3439.92362093
 20
3447.91239981
  0
SEQEND
  0
POLYLINE
  8
Default Layer
 66
   1
 39
0.000000
 70
    0
  0
VERTEX
  8
0
 10
3516.12362093
 20
3473.31239981
  0
VERTEX
  8
0
 10
3482.25695427
 20
3473.31239981
  0
VERTEX
  8
0
 10
3482.25695427
 20
3422.51239981
  0
VERTEX
  8
0
 10
3516.12362093
 20
3422.51239981
  0
SEQEND
  0
POLYLINE
  8
Default Layer
 66
   1
 39
0.000000
 70
    0
  0
VERTEX
  8
0
 10
3499.19028760
 20
3447.91239981
  0
VERTEX
  8
0
 10
3482.25695427
 20
3447.91239981
  0
SEQEND
  0
POLYLINE
  8
Default Layer
 66
   1
 39
0.000000
 70
    0
  0
VERTEX
  8
0
 10
3566.92362093
 20
3422.51239981
  0
VERTEX
  8
0
 10
3566.92362093
 20
3439.44573314
  0
VERTEX
  8
0
 10
3549.99028760
 20
3473.31239981
  0
VERTEX
  8
0
 10
3533.05695427
 20
3439.44573314
  0
VERTEX
  8
0
 10
3533.05695427
 20
3422.51239981
  0
SEQEND
  0
POLYLINE
  8
Default Layer
 66
   1
 39
0.000000
 70
    0
  0
VERTEX
  8
0
 10
3566.92362093
 20
3439.44573314
  0
VERTEX
  8
0
 10
3533.05695427
 20
3439.44573314
  0
SEQEND
  0
POLYLINE
  8
Default Layer
 66
   1
 39
0.000000
 70
    0
  0
VERTEX
  8
0
 10
3583.85695427
 20
3447.91239981
  0
VERTEX
  8
0
 10
3609.25695427
 20
3447.91239981
  0
VERTEX
  8
0
 10
3617.72362093
 20
3456.37906648
  0
VERTEX
  8
0
 10
3617.72362093
 20
3464.84573314
  0
VERTEX
  8
0
 10
3609.25695427
 20
3473.31239981
  0
VERTEX
  8
0
 10
3583.85695427
 20
3473.31239981
  0
VERTEX
  8
0
 10
3583.85695427
 20
3422.51239981
  0
SEQEND
  0
POLYLINE
  8
Default Layer
 66
   1
 39
0.000000
 70
    0
  0
VERTEX
  8
0
 10
3617.72362093
 20
3422.51239981
  0
VERTEX
  8
0
 10
3592.32362093
 20
3447.91239981
  0
SEQEND
  0
POLYLINE
  8
Default Layer
 66
   1
 39
0.000000
 70
    0
  0
VERTEX
  8
0
 10
3719.32362093
 20
3464.84573314
  0
VERTEX
  8
0
 10
3710.85695427
 20
3473.31239981
  0
VERTEX
  8
0
 10
3693.92362093
 20
3473.31239981
  0
VERTEX
  8
0
 10
3685.45695427
 20
3464.84573314
  0
VERTEX
  8
0
 10
3719.32362093
 20
3430.97906648
  0
VERTEX
  8
0
 10
3710.85695427
 20
3422.51239981
  0
VERTEX
  8
0
 10
3693.92362093
 20
3422.51239981
  0
VERTEX
  8
0
 10
3685.45695427
 20
3430.97906648
  0
SEQEND
  0
POLYLINE
  8
Default Layer
 66
   1
 39
0.000000
 70
    0
  0
VERTEX
  8
0
 10
3736.25695427
 20
3473.31239981
  0
VERTEX
  8
0
 10
3736.25695427
 20
3422.51239981
  0
SEQEND
  0
POLYLINE
  8
Default Layer
 66
   1
 39
0.000000
 70
    0
  0
VERTEX
  8
0
 10
3770.12362093
 20
3447.91239981
  0
VERTEX
  8
0
 10
3736.25695427
 20
3447.91239981
  0
SEQEND
  0
POLYLINE
  8
Default Layer
 66
   1
 39
0.000000
 70
    0
  0
VERTEX
  8
0
 10
3770.12362093
 20
3422.51239981
  0
VERTEX
  8
0
 10
3770.12362093
 20
3473.31239981
  0
SEQEND
  0
POLYLINE
  8
Default Layer
 66
   1
 39
0.000000
 70
    0
  0
VERTEX
  8
0
 10
3820.92362093
 20
3473.31239981
  0
VERTEX
  8
0
 10
3787.05695427
 20
3473.31239981
  0
VERTEX
  8
0
 10
3787.05695427
 20
3422.51239981
  0
VERTEX
  8
0
 10
3820.92362093
 20
3422.51239981
  0
SEQEND
  0
POLYLINE
  8
Default Layer
 66
   1
 39
0.000000
 70
    0
  0
VERTEX
  8
0
 10
3803.99028760
 20
3447.91239981
  0
VERTEX
  8
0
 10
3787.05695427
 20
3447.91239981
  0
SEQEND
  0
POLYLINE
  8
Default Layer
 66
   1
 39
0.000000
 70
    0
  0
VERTEX
  8
0
 10
3871.72362093
 20
3422.51239981
  0
VERTEX
  8
0
 10
3837.85695427
 20
3422.51239981
  0
VERTEX
  8
0
 10
3837.85695427
 20
3473.31239981
  0
SEQEND
  0
POLYLINE
  8
Default Layer
 66
   1
 39
0.000000
 70
    0
  0
VERTEX
  8
0
 10
3939.45695427
 20
3473.31239981
  0
VERTEX
  8
0
 10
3914.05695427
 20
3422.51239981
  0
VERTEX
  8
0
 10
3888.65695427
 20
3473.31239981
  0
SEQEND
  0
POLYLINE
  8
Default Layer
 66
   1
 39
0.000000
 70
    0
  0
VERTEX
  8
0
 10
3990.25695427
 20
3473.31239981
  0
VERTEX
  8
0
 10
3956.39028760
 20
3473.31239981
  0
VERTEX
  8
0
 10
3956.39028760
 20
3422.51239981
  0
VERTEX
  8
0
 10
3990.25695427
 20
3422.51239981
  0
SEQEND
  0
POLYLINE
  8
Default Layer
 66
   1
 39
0.000000
 70
    0
  0
VERTEX
  8
0
 10
3973.32362093
 20
3447.91239981
  0
VERTEX
  8
0
 10
3956.39028760
 20
3447.91239981
  0
SEQEND
  0
POLYLINE
  8
Default Layer
 66
   1
 39
0.000000
 70
    0
  0
VERTEX
  8
0
 10
4041.05695427
 20
3464.84573314
  0
VERTEX
  8
0
 10
4032.59028760
 20
3473.31239981
  0
VERTEX
  8
0
 10
4015.65695427
 20
3473.31239981
  0
VERTEX
  8
0
 10
4007.19028760
 20
3464.84573314
  0
VERTEX
  8
0
 10
4041.05695427
 20
3430.97906648
  0
VERTEX
  8
0
 10
4032.59028760
 20
3422.51239981
  0
VERTEX
  8
0
 10
4015.65695427
 20
3422.51239981
  0
VERTEX
  8
0
 10
4007.19028760
 20
3430.97906648
  0
SEQEND
  0
POLYLINE
  8
Default Layer
 66
   1
 39
0.000000
 70
    0
  0
VERTEX
  8
0
 10
4142.65695427
 20
3473.31239981
  0
VERTEX
  8
0
 10
4108.79028760
 20
3473.31239981
  0
SEQEND
  0
POLYLINE
  8
Default Layer
 66
   1
 39
0.000000
 70
    0
  0
VERTEX
  8
0
 10
4125.72362093
 20
3422.51239981
  0
VERTEX
  8
0
 10
4125.72362093
 20
3473.31239981
  0
SEQEND
  0
POLYLINE
  8
Default Layer
 66
   1
 39
0.000000
 70
    1
  0
VERTEX
  8
0
 10
4159.59028760
 20
3422.51239981
  0
VERTEX
  8
0
 10
4193.45695427
 20
3422.51239981
  0
VERTEX
  8
0
 10
4193.45695427
 20
3473.31239981
  0
VERTEX
  8
0
 10
4159.59028760
 20
3473.31239981
  0
VERTEX
  8
0
 10
4159.59028760
 20
3422.51239981
  0
SEQEND
  0
POLYLINE
  8
Default Layer
 66
   1
 39
0.000000
 70
    0
  0
VERTEX
  8
0
 10
4295.05695427
 20
3464.84573314
  0
VERTEX
  8
0
 10
4286.59028760
 20
3473.31239981
  0
VERTEX
  8
0
 10
4269.65695427
 20
3473.31239981
  0
VERTEX
  8
0
 10
4261.19028760
 20
3464.84573314
  0
VERTEX
  8
0
 10
4295.05695427
 20
3430.97906648
  0
VERTEX
  8
0
 10
4286.59028760
 20
3422.51239981
  0
VERTEX
  8
0
 10
4269.65695427
 20
3422.51239981
  0
VERTEX
  8
0
 10
4261.19028760
 20
3430.97906648
  0
SEQEND
  0
POLYLINE
  8
Default Layer
 66
   1
 39
0.000000
 70
    0
  0
VERTEX
  8
0
 10
4328.92362093
 20
3473.31239981
  0
VERTEX
  8
0
 10
4311.99028760
 20
3473.31239981
  0
SEQEND
  0
POLYLINE
  8
Default Layer
 66
   1
 39
0.000000
 70
    0
  0
VERTEX
  8
0
 10
4320.45695427
 20
3422.51239981
  0
VERTEX
  8
0
 10
4320.45695427
 20
3473.31239981
  0
SEQEND
  0
POLYLINE
  8
Default Layer
 66
   1
 39
0.000000
 70
    0
  0
VERTEX
  8
0
 10
4328.92362093
 20
3422.51239981
  0
VERTEX
  8
0
 10
4311.99028760
 20
3422.51239981
  0
SEQEND
  0
POLYLINE
  8
Default Layer
 66
   1
 39
0.000000
 70
    0
  0
VERTEX
  8
0
 10
4345.85695427
 20
3473.31239981
  0
VERTEX
  8
0
 10
4371.25695427
 20
3473.31239981
  0
VERTEX
  8
0
 10
4379.72362093
 20
3464.84573314
  0
VERTEX
  8
0
 10
4379.72362093
 20
3430.97906648
  0
VERTEX
  8
0
 10
4371.25695427
 20
3422.51239981
  0
VERTEX
  8
0
 10
4345.85695427
 20
3422.51239981
  0
SEQEND
  0
POLYLINE
  8
Default Layer
 66
   1
 39
0.000000
 70
    0
  0
VERTEX
  8
0
 10
4354.32362093
 20
3422.51239981
  0
VERTEX
  8
0
 10
4354.32362093
 20
3473.31239981
  0
SEQEND
  0
POLYLINE
  8
Default Layer
 66
   1
 39
0.000000
 70
    0
  0
VERTEX
  8
0
 10
4430.52362093
 20
3473.31239981
  0
VERTEX
  8
0
 10
4396.65695427
 20
3473.31239981
  0
VERTEX
  8
0
 10
4396.65695427
 20
3422.51239981
  0
VERTEX
  8
0
 10
4430.52362093
 20
3422.51239981
  0
SEQEND
  0
POLYLINE
  8
Default Layer
 66
   1
 39
0.000000
 70
    0
  0
VERTEX
  8
0
 10
4413.59028760
 20
3447.91239981
  0
VERTEX
  8
0
 10
4396.65695427
 20
3447.91239981
  0
SEQEND
  0
POLYLINE
  8
Default Layer
 66
   1
 39
0.000000
 70
    1
  0
VERTEX
  8
0
 10
2620.07341315
 20
3028.94293385
  0
VERTEX
  8
0
 10
2620.07345161
 20
3129.94897006
  0
VERTEX
  8
0
 10
2608.08023102
 20
3129.94897006
  0
VERTEX
  8
0
 10
2608.08023102
 20
3227.94897006
  0
VERTEX
  8
0
 10
2620.07349465
 20
3227.94897006
  0
VERTEX
  8
0
 10
2620.07356394
 20
3380.83863176
  0
VERTEX
  8
0
 10
4524.22967526
 20
3390.83948263
  0
VERTEX
  8
0
 10
4524.25067715
 20
3277.94962869
  0
VERTEX
  8
0
 10
4536.29822413
 20
3277.94962869
  0
VERTEX
  8
0
 10
4536.29822413
 20
3129.94962869
  0
VERTEX
  8
0
 10
4524.27650803
 20
3129.94962869
  0
VERTEX
  8
0
 10
4524.29413777
 20
3028.93863322
  0
VERTEX
  8
0
 10
4219.35160306
 20
3028.94003457
  0
VERTEX
  8
0
 10
2620.07341315
 20
3028.94293385
  0
SEQEND
  0
ENDSEC
  0
EOF
