  0
SECTION
  2
HEADER
  9
$ACADVER
  1
AC1009
  9
$EXTMIN
 10
-1533.66353147
 20
-509.05233380
 30
0.0
  9
$EXTMAX
 10
6552.82149929
 20
4544.32842999
 30
0.0
  0
ENDSEC
  0
SECTION
  2
TABLES
  0
TABLE
  2
LAYER
 70
1
 0
LAYER
 2
Default Layer
 70
0
 62
1
 6
CONTINUOUS
 0
ENDTAB
 0
ENDSEC
  0
SECTION
  2
ENTITIES
  0
POLYLINE
  8
Default Layer
 66
   1
 39
0.000000
 70
    1
  0
VERTEX
  8
0
 10
272.64437400
 20
590.67005659
  0
VERTEX
  8
0
 10
-871.64075251
 20
590.67439921
  0
VERTEX
  8
0
 10
-871.64070814
 20
691.67598526
  0
VERTEX
  8
0
 10
-883.63392873
 20
691.67598526
  0
VERTEX
  8
0
 10
-883.63392873
 20
789.67598526
  0
VERTEX
  8
0
 10
-871.64066510
 20
789.67598526
  0
VERTEX
  8
0
 10
-871.64059581
 20
942.56564696
  0
VERTEX
  8
0
 10
1432.18826850
 20
952.56649783
  0
VERTEX
  8
0
 10
1432.20927039
 20
839.67664390
  0
VERTEX
  8
0
 10
1444.25681737
 20
839.67664390
  0
VERTEX
  8
0
 10
1444.25681737
 20
691.67664390
  0
VERTEX
  8
0
 10
1432.23510127
 20
691.67664390
  0
VERTEX
  8
0
 10
1432.25273101
 20
590.66564842
  0
VERTEX
  8
0
 10
284.94437400
 20
590.67000007
  0
VERTEX
  8
0
 10
284.94437400
 20
760.68011732
  0
VERTEX
  8
0
 10
272.64437400
 20
760.68011732
  0
VERTEX
  8
0
 10
272.64437400
 20
590.67005659
  0
SEQEND
  0
POLYLINE
  8
Default Layer
 66
   1
 39
0.000000
 70
    1
  0
VERTEX
  8
0
 10
272.27876738
 20
998.84270396
  0
VERTEX
  8
0
 10
-871.94217016
 20
998.84704628
  0
VERTEX
  8
0
 10
-871.94212579
 20
1099.84863234
  0
VERTEX
  8
0
 10
-883.93534638
 20
1099.84863234
  0
VERTEX
  8
0
 10
-883.93534638
 20
1197.84863234
  0
VERTEX
  8
0
 10
-871.94208275
 20
1197.84863234
  0
VERTEX
  8
0
 10
-871.94201346
 20
1350.91160426
  0
VERTEX
  8
0
 10
1432.12216009
 20
1369.72702972
  0
VERTEX
  8
0
 10
1432.14316199
 20
1247.84929097
  0
VERTEX
  8
0
 10
1444.19070897
 20
1247.84929097
  0
VERTEX
  8
0
 10
1444.19070897
 20
1099.84929097
  0
VERTEX
  8
0
 10
1432.16899286
 20
1099.84929097
  0
VERTEX
  8
0
 10
1432.18662261
 20
998.83829550
  0
VERTEX
  8
0
 10
284.57876738
 20
998.84264744
  0
VERTEX
  8
0
 10
284.57876738
 20
1168.98114234
  0
VERTEX
  8
0
 10
272.27876738
 20
1168.98114234
  0
VERTEX
  8
0
 10
272.27876738
 20
998.84270396
  0
SEQEND
  0
POLYLINE
  8
Default Layer
 66
   1
 39
0.000000
 70
    1
  0
VERTEX
  8
0
 10
1432.23130943
 20
206.27266450
  0
VERTEX
  8
0
 10
1432.24893918
 20
105.26166902
  0
VERTEX
  8
0
 10
-870.58565274
 20
105.27041981
  0
VERTEX
  8
0
 10
-870.58560837
 20
206.27200587
  0
VERTEX
  8
0
 10
-882.57882896
 20
206.27200587
  0
VERTEX
  8
0
 10
-882.57882896
 20
304.27200587
  0
VERTEX
  8
0
 10
-870.58556533
 20
304.27200587
  0
VERTEX
  8
0
 10
-870.58549604
 20
462.01435387
  0
VERTEX
  8
0
 10
-580.44472309
 20
462.07856439
  0
VERTEX
  8
0
 10
-560.65178944
 20
462.36148220
  0
VERTEX
  8
0
 10
-540.26388862
 20
462.69107642
  0
VERTEX
  8
0
 10
-499.13110666
 20
463.37827068
  0
VERTEX
  8
0
 10
-479.10018614
 20
463.67985906
  0
VERTEX
  8
0
 10
-469.37477238
 20
463.80789850
  0
VERTEX
  8
0
 10
-459.90221968
 20
463.91610047
  0
VERTEX
  8
0
 10
-450.72715056
 20
464.00096424
  0
VERTEX
  8
0
 10
-441.89418757
 20
464.05898909
  0
VERTEX
  8
0
 10
-433.44795325
 20
464.08667427
  0
VERTEX
  8
0
 10
-425.43307013
 20
464.08051906
  0
VERTEX
  8
0
 10
-417.64890493
 20
464.04116887
  0
VERTEX
  8
0
 10
-409.86505430
 20
463.97355233
  0
VERTEX
  8
0
 10
-402.08148571
 20
463.88059356
  0
VERTEX
  8
0
 10
-394.29816660
 20
463.76521664
  0
VERTEX
  8
0
 10
-386.51506444
 20
463.63034569
  0
VERTEX
  8
0
 10
-378.73214668
 20
463.47890481
  0
VERTEX
  8
0
 10
-363.16673422
 20
463.13800970
  0
VERTEX
  8
0
 10
-347.60166886
 20
462.76592413
  0
VERTEX
  8
0
 10
-332.03669029
 20
462.38604095
  0
VERTEX
  8
0
 10
-316.47153816
 20
462.02175299
  0
VERTEX
  8
0
 10
-300.90595214
 20
461.69645310
  0
VERTEX
  8
0
 10
-277.97018144
 20
460.97707534
  0
VERTEX
  8
0
 10
-254.64033208
 20
460.27593663
  0
VERTEX
  8
0
 10
-207.74418617
 20
458.88460265
  0
VERTEX
  8
0
 10
-184.65078400
 20
458.17252051
  0
VERTEX
  8
0
 10
-162.10909198
 20
457.43490368
  0
VERTEX
  8
0
 10
-151.11902701
 20
457.05309994
  0
VERTEX
  8
0
 10
-140.35555728
 20
456.66080873
  0
VERTEX
  8
0
 10
-129.84823868
 20
456.25666214
  0
VERTEX
  8
0
 10
-119.62662711
 20
455.83929223
  0
VERTEX
  8
0
 10
-109.55828512
 20
455.40287249
  0
VERTEX
  8
0
 10
-99.49099853
 20
454.94403447
  0
VERTEX
  8
0
 10
-89.42465817
 20
454.46509730
  0
VERTEX
  8
0
 10
-79.35915485
 20
453.96838012
  0
VERTEX
  8
0
 10
-59.23022263
 20
452.93088222
  0
VERTEX
  8
0
 10
-39.10332843
 20
451.85009384
  0
VERTEX
  8
0
 10
1.14783966
 20
449.63285789
  0
VERTEX
  8
0
 10
21.27386042
 20
448.53351645
  0
VERTEX
  8
0
 10
41.40133692
 20
447.46509678
  0
VERTEX
  8
0
 10
48.66435167
 20
447.09359050
  0
VERTEX
  8
0
 10
55.92661155
 20
446.70027847
  0
VERTEX
  8
0
 10
70.44956350
 20
445.86836557
  0
VERTEX
  8
0
 10
84.97158639
 20
445.00961483
  0
VERTEX
  8
0
 10
99.49407380
 20
444.16428301
  0
VERTEX
  8
0
 10
106.75592722
 20
443.75922944
  0
VERTEX
  8
0
 10
114.01841937
 20
443.37262687
  0
VERTEX
  8
0
 10
121.28172445
 20
443.00950741
  0
VERTEX
  8
0
 10
128.54601668
 20
442.67490316
  0
VERTEX
  8
0
 10
135.81147025
 20
442.37384621
  0
VERTEX
  8
0
 10
143.07825935
 20
442.11136864
  0
VERTEX
  8
0
 10
150.34655820
 20
441.89250257
  0
VERTEX
  8
0
 10
157.61654100
 20
441.72228007
  0
VERTEX
  8
0
 10
164.96817377
 20
441.59729296
  0
VERTEX
  8
0
 10
172.47000868
 20
441.50932832
  0
VERTEX
  8
0
 10
180.10509914
 20
441.45621119
  0
VERTEX
  8
0
 10
187.85649856
 20
441.43576658
  0
VERTEX
  8
0
 10
195.70726034
 20
441.44581953
  0
VERTEX
  8
0
 10
203.64043788
 20
441.48419508
  0
VERTEX
  8
0
 10
211.63908458
 20
441.54871824
  0
VERTEX
  8
0
 10
219.68625386
 20
441.63721404
  0
VERTEX
  8
0
 10
227.76499911
 20
441.74750753
  0
VERTEX
  8
0
 10
235.85837374
 20
441.87742371
  0
VERTEX
  8
0
 10
243.94943116
 20
442.02478763
  0
VERTEX
  8
0
 10
252.02122476
 20
442.18742431
  0
VERTEX
  8
0
 10
268.03923414
 20
442.54981607
  0
VERTEX
  8
0
 10
283.77682913
 20
442.94719921
  0
VERTEX
  8
0
 10
291.55238715
 20
443.16735501
  0
VERTEX
  8
0
 10
299.32693407
 20
443.41672846
  0
VERTEX
  8
0
 10
307.10057449
 20
443.69229706
  0
VERTEX
  8
0
 10
314.87341301
 20
443.99103828
  0
VERTEX
  8
0
 10
322.64555422
 20
444.30992962
  0
VERTEX
  8
0
 10
330.41710272
 20
444.64594854
  0
VERTEX
  8
0
 10
345.95883996
 20
445.35727910
  0
VERTEX
  8
0
 10
361.49946152
 20
446.10084984
  0
VERTEX
  8
0
 10
377.03980415
 20
446.85248063
  0
VERTEX
  8
0
 10
392.58070462
 20
447.58799132
  0
VERTEX
  8
0
 10
408.12299972
 20
448.28320180
  0
VERTEX
  8
0
 10
539.63262919
 20
454.42835465
  0
VERTEX
  8
0
 10
663.52979612
 20
460.93117888
  0
VERTEX
  8
0
 10
684.06771887
 20
461.93023002
  0
VERTEX
  8
0
 10
704.60432812
 20
462.95996531
  0
VERTEX
  8
0
 10
745.67675854
 20
465.03784639
  0
VERTEX
  8
0
 10
766.21415590
 20
466.04917119
  0
VERTEX
  8
0
 10
786.75339214
 20
467.01753816
  0
VERTEX
  8
0
 10
797.02394612
 20
467.47985918
  0
VERTEX
  8
0
 10
807.29525537
 20
467.92453681
  0
VERTEX
  8
0
 10
817.56741838
 20
468.34926973
  0
VERTEX
  8
0
 10
827.84053367
 20
468.75175664
  0
VERTEX
  8
0
 10
838.52444328
 20
469.13935150
  0
VERTEX
  8
0
 10
850.37781202
 20
469.52132985
  0
VERTEX
  8
0
 10
856.90658502
 20
469.71039441
  0
VERTEX
  8
0
 10
863.92397255
 20
469.89827271
  0
VERTEX
  8
0
 10
871.49539120
 20
470.08503740
  0
VERTEX
  8
0
 10
879.68625754
 20
470.27076110
  0
VERTEX
  8
0
 10
888.56198817
 20
470.45551643
  0
VERTEX
  8
0
 10
898.18799966
 20
470.63937603
  0
VERTEX
  8
0
 10
908.62970861
 20
470.82241251
  0
VERTEX
  8
0
 10
919.95253158
 20
471.00469852
  0
VERTEX
  8
0
 10
932.22188518
 20
471.18630667
  0
VERTEX
  8
0
 10
945.50318597
 20
471.36730959
  0
VERTEX
  8
0
 10
975.36329549
 20
471.72779026
  0
VERTEX
  8
0
 10
1010.05619281
 20
472.08672155
  0
VERTEX
  8
0
 10
1050.10521061
 20
472.44468447
  0
VERTEX
  8
0
 10
1096.03368154
 20
472.80226005
  0
VERTEX
  8
0
 10
1148.36493828
 20
473.16002930
  0
VERTEX
  8
0
 10
1207.62231349
 20
473.51857324
  0
VERTEX
  8
0
 10
1274.32913985
 20
473.87847289
  0
VERTEX
  8
0
 10
1349.00875002
 20
474.24030927
  0
VERTEX
  8
0
 10
1432.18447667
 20
474.60466340
  0
VERTEX
  8
0
 10
1432.20547856
 20
354.27266450
  0
VERTEX
  8
0
 10
1444.25302554
 20
354.27266450
  0
VERTEX
  8
0
 10
1444.25302554
 20
206.27266450
  0
VERTEX
  8
0
 10
1432.23130943
 20
206.27266450
  0
SEQEND
  0
POLYLINE
  8
Default Layer
 66
   1
 39
0.000000
 70
    1
  0
VERTEX
  8
0
 10
1954.80126165
 20
135.64413539
  0
VERTEX
  8
0
 10
1954.78845735
 20
1268.89372660
  0
VERTEX
  8
0
 10
1754.84138099
 20
1357.77925606
  0
VERTEX
  8
0
 10
1607.23596165
 20
1357.10453539
  0
VERTEX
  8
0
 10
1606.21717603
 20
1348.02563303
  0
VERTEX
  8
0
 10
1605.18248241
 20
1338.94840587
  0
VERTEX
  8
0
 10
1603.10355034
 20
1320.79495666
  0
VERTEX
  8
0
 10
1602.07840153
 20
1311.71672438
  0
VERTEX
  8
0
 10
1601.07552393
 20
1302.63614682
  0
VERTEX
  8
0
 10
1600.10446237
 20
1293.55221886
  0
VERTEX
  8
0
 10
1599.17476165
 20
1284.46393539
  0
VERTEX
  8
0
 10
1598.25557095
 20
1275.14405113
  0
VERTEX
  8
0
 10
1597.32141499
 20
1265.46031411
  0
VERTEX
  8
0
 10
1596.38990185
 20
1255.55420918
  0
VERTEX
  8
0
 10
1595.47863962
 20
1245.56722118
  0
VERTEX
  8
0
 10
1594.60523640
 20
1235.64083496
  0
VERTEX
  8
0
 10
1593.78730027
 20
1225.91653536
  0
VERTEX
  8
0
 10
1593.04243932
 20
1216.53580722
  0
VERTEX
  8
0
 10
1592.38826165
 20
1207.64013539
  0
VERTEX
  8
0
 10
1591.81011171
 20
1199.03245861
  0
VERTEX
  8
0
 10
1591.27858420
 20
1190.42168007
  0
VERTEX
  8
0
 10
1590.78916255
 20
1181.80823125
  0
VERTEX
  8
0
 10
1590.33733016
 20
1173.19254366
  0
VERTEX
  8
0
 10
1589.91857046
 20
1164.57504878
  0
VERTEX
  8
0
 10
1589.52836686
 20
1155.95617811
  0
VERTEX
  8
0
 10
1589.16220278
 20
1147.33636315
  0
VERTEX
  8
0
 10
1588.81556165
 20
1138.71603539
  0
VERTEX
  8
0
 10
1588.63451761
 20
1133.71584289
  0
VERTEX
  8
0
 10
1588.43129993
 20
1127.42473439
  0
VERTEX
  8
0
 10
1587.96751893
 20
1111.50394158
  0
VERTEX
  8
0
 10
1587.44256923
 20
1092.02200121
  0
VERTEX
  8
0
 10
1586.87480145
 20
1070.04725756
  0
VERTEX
  8
0
 10
1585.68421407
 20
1022.89273745
  0
VERTEX
  8
0
 10
1585.09809569
 20
999.84964953
  0
VERTEX
  8
0
 10
1584.54256165
 20
978.58713539
  0
VERTEX
  8
0
 10
1584.35113908
 20
960.69455115
  0
VERTEX
  8
0
 10
1584.13911572
 20
942.47023423
  0
VERTEX
  8
0
 10
1583.67228278
 20
905.33261713
  0
VERTEX
  8
0
 10
1583.18009502
 20
867.78671366
  0
VERTEX
  8
0
 10
1582.70058466
 20
830.44495337
  0
VERTEX
  8
0
 10
1582.47746858
 20
812.04201116
  0
VERTEX
  8
0
 10
1582.27178393
 20
793.91976583
  0
VERTEX
  8
0
 10
1582.08828474
 20
776.15477109
  0
VERTEX
  8
0
 10
1581.93172504
 20
758.82358062
  0
VERTEX
  8
0
 10
1581.80685885
 20
742.00274812
  0
VERTEX
  8
0
 10
1581.71844020
 20
725.76882728
  0
VERTEX
  8
0
 10
1581.67122313
 20
710.19837181
  0
VERTEX
  8
0
 10
1581.66996165
 20
695.36793539
  0
VERTEX
  8
0
 10
1581.71381213
 20
680.93318037
  0
VERTEX
  8
0
 10
1581.79611004
 20
666.49871342
  0
VERTEX
  8
0
 10
1581.91287806
 20
652.06450474
  0
VERTEX
  8
0
 10
1582.06013888
 20
637.63052454
  0
VERTEX
  8
0
 10
1582.23391516
 20
623.19674300
  0
VERTEX
  8
0
 10
1582.43022960
 20
608.76313034
  0
VERTEX
  8
0
 10
1582.64510486
 20
594.32965674
  0
VERTEX
  8
0
 10
1582.87456363
 20
579.89629241
  0
VERTEX
  8
0
 10
1583.36132242
 20
551.02977236
  0
VERTEX
  8
0
 10
1583.85868739
 20
522.16333177
  0
VERTEX
  8
0
 10
1584.33483999
 20
493.29673225
  0
VERTEX
  8
0
 10
1584.55501834
 20
478.86329839
  0
VERTEX
  8
0
 10
1584.75796165
 20
464.42973539
  0
VERTEX
  8
0
 10
1586.77861345
 20
135.64413539
  0
VERTEX
  8
0
 10
1954.80126165
 20
135.64413539
  0
SEQEND
  0
POLYLINE
  8
Default Layer
 66
   1
 39
0.000000
 70
    1
  0
VERTEX
  8
0
 10
-1154.82303147
 20
-50.00653281
  0
VERTEX
  8
0
 10
-1155.39416719
 20
-35.31230515
  0
VERTEX
  8
0
 10
-1155.92521107
 20
-20.61609154
  0
VERTEX
  8
0
 10
-1156.44021823
 20
-5.91908356
  0
VERTEX
  8
0
 10
-1156.96324375
 20
8.77752724
  0
VERTEX
  8
0
 10
-1157.51834273
 20
23.47254928
  0
VERTEX
  8
0
 10
-1157.81543699
 20
30.81909215
  0
VERTEX
  8
0
 10
-1158.12957028
 20
38.16479100
  0
VERTEX
  8
0
 10
-1158.46374949
 20
45.50949687
  0
VERTEX
  8
0
 10
-1158.82098149
 20
52.85306082
  0
VERTEX
  8
0
 10
-1159.20427319
 20
60.19533391
  0
VERTEX
  8
0
 10
-1159.61663147
 20
67.53616719
  0
VERTEX
  8
0
 10
-1160.06404715
 20
74.92795596
  0
VERTEX
  8
0
 10
-1160.54798750
 20
82.41652062
  0
VERTEX
  8
0
 10
-1161.06467413
 20
89.99184988
  0
VERTEX
  8
0
 10
-1161.61032860
 20
97.64393244
  0
VERTEX
  8
0
 10
-1162.18117251
 20
105.36275699
  0
VERTEX
  8
0
 10
-1162.77342744
 20
113.13831224
  0
VERTEX
  8
0
 10
-1164.00705670
 20
128.81956963
  0
VERTEX
  8
0
 10
-1165.28098905
 20
144.60761422
  0
VERTEX
  8
0
 10
-1166.56499718
 20
160.42235560
  0
VERTEX
  8
0
 10
-1167.82885376
 20
176.18370339
  0
VERTEX
  8
0
 10
-1169.04233147
 20
191.81156719
  0
VERTEX
  8
0
 10
-1174.28473147
 20
273.32126719
  0
VERTEX
  8
0
 10
-1175.10012245
 20
284.81918754
  0
VERTEX
  8
0
 10
-1175.94542910
 20
296.40486912
  0
VERTEX
  8
0
 10
-1177.65399181
 20
319.62888900
  0
VERTEX
  8
0
 10
-1178.48134906
 20
331.16191385
  0
VERTEX
  8
0
 10
-1179.26682436
 20
342.57207298
  0
VERTEX
  8
0
 10
-1179.99246830
 20
353.80670967
  0
VERTEX
  8
0
 10
-1180.32724432
 20
359.34175187
  0
VERTEX
  8
0
 10
-1180.64033147
 20
364.81316719
  0
VERTEX
  8
0
 10
-1181.23693256
 20
375.68885557
  0
VERTEX
  8
0
 10
-1181.81355698
 20
386.56631633
  0
VERTEX
  8
0
 10
-1182.35940541
 20
397.44558994
  0
VERTEX
  8
0
 10
-1182.86367853
 20
408.32671687
  0
VERTEX
  8
0
 10
-1183.31557701
 20
419.20973759
  0
VERTEX
  8
0
 10
-1183.51851098
 20
424.65197077
  0
VERTEX
  8
0
 10
-1183.70430154
 20
430.09469257
  0
VERTEX
  8
0
 10
-1183.87159879
 20
435.53790805
  0
VERTEX
  8
0
 10
-1184.01905280
 20
440.98162228
  0
VERTEX
  8
0
 10
-1184.14531367
 20
446.42584030
  0
VERTEX
  8
0
 10
-1184.24903147
 20
451.87056719
  0
VERTEX
  8
0
 10
-1184.32842005
 20
457.62178218
  0
VERTEX
  8
0
 10
-1184.38344949
 20
463.94033366
  0
VERTEX
  8
0
 10
-1184.41540421
 20
470.75853033
  0
VERTEX
  8
0
 10
-1184.42556864
 20
478.00868092
  0
VERTEX
  8
0
 10
-1184.41522721
 20
485.62309415
  0
VERTEX
  8
0
 10
-1184.38566435
 20
493.53407873
  0
VERTEX
  8
0
 10
-1184.33816449
 20
501.67394338
  0
VERTEX
  8
0
 10
-1184.27401206
 20
509.97499683
  0
VERTEX
  8
0
 10
-1184.10088719
 20
526.78990497
  0
VERTEX
  8
0
 10
-1183.87656518
 20
543.43727291
  0
VERTEX
  8
0
 10
-1183.61132146
 20
559.37557040
  0
VERTEX
  8
0
 10
-1183.31543147
 20
574.06326719
  0
VERTEX
  8
0
 10
-1183.14467739
 20
581.04048420
  0
VERTEX
  8
0
 10
-1182.94301884
 20
588.08052640
  0
VERTEX
  8
0
 10
-1182.71467939
 20
595.16881003
  0
VERTEX
  8
0
 10
-1182.46388263
 20
602.29075138
  0
VERTEX
  8
0
 10
-1182.19485212
 20
609.43176668
  0
VERTEX
  8
0
 10
-1181.91181144
 20
616.57727221
  0
VERTEX
  8
0
 10
-1181.32059387
 20
630.82341898
  0
VERTEX
  8
0
 10
-1180.72401849
 20
644.91252178
  0
VERTEX
  8
0
 10
-1180.15587391
 20
658.72791069
  0
VERTEX
  8
0
 10
-1179.89302210
 20
665.49650309
  0
VERTEX
  8
0
 10
-1179.64994870
 20
672.15291580
  0
VERTEX
  8
0
 10
-1179.43087730
 20
678.68256508
  0
VERTEX
  8
0
 10
-1179.24003147
 20
685.07086719
  0
VERTEX
  8
0
 10
-1178.90280099
 20
697.69683388
  0
VERTEX
  8
0
 10
-1178.59279630
 20
710.32360563
  0
VERTEX
  8
0
 10
-1178.31059635
 20
722.95109359
  0
VERTEX
  8
0
 10
-1178.05678011
 20
735.57920892
  0
VERTEX
  8
0
 10
-1177.83192654
 20
748.20786279
  0
VERTEX
  8
0
 10
-1177.63661461
 20
760.83696634
  0
VERTEX
  8
0
 10
-1177.47142326
 20
773.46643076
  0
VERTEX
  8
0
 10
-1177.33693147
 20
786.09616719
  0
VERTEX
  8
0
 10
-1177.28465895
 20
792.90790036
  0
VERTEX
  8
0
 10
-1177.24586112
 20
800.64915231
  0
VERTEX
  8
0
 10
-1177.20311382
 20
818.53558411
  0
VERTEX
  8
0
 10
-1177.19753808
 20
838.98620565
  0
VERTEX
  8
0
 10
-1177.21798245
 20
861.23176001
  0
VERTEX
  8
0
 10
-1177.29232559
 20
908.03063949
  0
VERTEX
  8
0
 10
-1177.32392142
 20
931.04545078
  0
VERTEX
  8
0
 10
-1177.33693147
 20
952.77816719
  0
VERTEX
  8
0
 10
-1177.32359394
 20
964.52190100
  0
VERTEX
  8
0
 10
-1177.27007044
 20
976.45505765
  0
VERTEX
  8
0
 10
-1177.20047254
 20
988.46398344
  0
VERTEX
  8
0
 10
-1177.13891184
 20
1000.43502465
  0
VERTEX
  8
0
 10
-1177.10949992
 20
1012.25452760
  0
VERTEX
  8
0
 10
-1177.11438462
 20
1018.07193545
  0
VERTEX
  8
0
 10
-1177.13634837
 20
1023.80883859
  0
VERTEX
  8
0
 10
-1177.17840510
 20
1029.45103031
  0
VERTEX
  8
0
 10
-1177.24356877
 20
1034.98430390
  0
VERTEX
  8
0
 10
-1177.33485333
 20
1040.39445265
  0
VERTEX
  8
0
 10
-1177.45527272
 20
1045.66726984
  0
VERTEX
  8
0
 10
-1177.60691929
 20
1050.86608131
  0
VERTEX
  8
0
 10
-1177.78785608
 20
1056.06376200
  0
VERTEX
  8
0
 10
-1177.99505307
 20
1061.26042889
  0
VERTEX
  8
0
 10
-1178.22548023
 20
1066.45619895
  0
VERTEX
  8
0
 10
-1178.47610754
 20
1071.65118918
  0
VERTEX
  8
0
 10
-1178.74390499
 20
1076.84551653
  0
VERTEX
  8
0
 10
-1179.31889016
 20
1087.23265054
  0
VERTEX
  8
0
 10
-1179.92619558
 20
1097.61853679
  0
VERTEX
  8
0
 10
-1180.54158106
 20
1108.00411111
  0
VERTEX
  8
0
 10
-1181.14080642
 20
1118.39030930
  0
VERTEX
  8
0
 10
-1181.69963147
 20
1128.77806719
  0
VERTEX
  8
0
 10
-1184.06953147
 20
1170.77166719
  0
VERTEX
  8
0
 10
-1334.35677237
 20
1170.77166719
  0
VERTEX
  8
0
 10
-1533.66353147
 20
1083.22602940
  0
VERTEX
  8
0
 10
-1533.66353147
 20
-50.07833281
  0
VERTEX
  8
0
 10
-1154.82303147
 20
-50.00653281
  0
SEQEND
  0
POLYLINE
  8
Default Layer
 66
   1
 39
0.000000
 70
    1
  0
VERTEX
  8
0
 10
1704.83264483
 20
1159.90013794
  0
VERTEX
  8
0
 10
1854.83264483
 20
1159.90013794
  0
VERTEX
  8
0
 10
1854.83264483
 20
1172.20013794
  0
VERTEX
  8
0
 10
1704.83264483
 20
1172.20013794
  0
VERTEX
  8
0
 10
1704.83264483
 20
1159.90013794
  0
SEQEND
  0
POLYLINE
  8
Default Layer
 66
   1
 39
0.000000
 70
    1
  0
VERTEX
  8
0
 10
-1433.68810021
 20
669.94499848
  0
VERTEX
  8
0
 10
-1333.68810021
 20
669.94499848
  0
VERTEX
  8
0
 10
-1333.68810021
 20
682.24499848
  0
VERTEX
  8
0
 10
-1433.68810021
 20
682.24499848
  0
VERTEX
  8
0
 10
-1433.68810021
 20
669.94499848
  0
SEQEND
  0
POLYLINE
  8
Default Layer
 66
   1
 39
0.000000
 70
    1
  0
VERTEX
  8
0
 10
-1433.68810021
 20
269.93905641
  0
VERTEX
  8
0
 10
-1333.68810021
 20
269.93905641
  0
VERTEX
  8
0
 10
-1333.68810021
 20
282.23905641
  0
VERTEX
  8
0
 10
-1433.68810021
 20
282.23905641
  0
VERTEX
  8
0
 10
-1433.68810021
 20
269.93905641
  0
SEQEND
  0
POLYLINE
  8
Default Layer
 66
   1
 39
0.000000
 70
    1
  0
VERTEX
  8
0
 10
-1433.68810021
 20
974.16067342
  0
VERTEX
  8
0
 10
-1333.68810021
 20
974.16067342
  0
VERTEX
  8
0
 10
-1333.68810021
 20
986.46067342
  0
VERTEX
  8
0
 10
-1433.68810021
 20
986.46067342
  0
VERTEX
  8
0
 10
-1433.68810021
 20
974.16067342
  0
SEQEND
  0
POLYLINE
  8
Default Layer
 66
   1
 39
0.000000
 70
    1
  0
VERTEX
  8
0
 10
1704.83264483
 20
455.60437620
  0
VERTEX
  8
0
 10
1854.83264483
 20
455.60437620
  0
VERTEX
  8
0
 10
1854.83264483
 20
467.90437620
  0
VERTEX
  8
0
 10
1704.83264483
 20
467.90437620
  0
VERTEX
  8
0
 10
1704.83264483
 20
455.60437620
  0
SEQEND
  0
POLYLINE
  8
Default Layer
 66
   1
 39
0.000000
 70
    1
  0
VERTEX
  8
0
 10
1704.83264483
 20
855.64725021
  0
VERTEX
  8
0
 10
1854.83264483
 20
855.64725021
  0
VERTEX
  8
0
 10
1854.83264483
 20
867.94725021
  0
VERTEX
  8
0
 10
1704.83264483
 20
867.94725021
  0
VERTEX
  8
0
 10
1704.83264483
 20
855.64725021
  0
SEQEND
  0
POLYLINE
  8
Default Layer
 66
   1
 39
0.000000
 70
    1
  0
VERTEX
  8
0
 10
320.79216438
 20
1923.67219234
  0
VERTEX
  8
0
 10
320.79216438
 20
1852.94179176
  0
VERTEX
  8
0
 10
339.36351425
 20
1852.94179176
  0
VERTEX
  8
0
 10
339.24921040
 20
1851.45328078
  0
VERTEX
  8
0
 10
337.98404076
 20
1834.61516888
  0
VERTEX
  8
0
 10
336.76301705
 20
1817.77380249
  0
VERTEX
  8
0
 10
336.10680369
 20
1808.44876237
  0
VERTEX
  8
0
 10
335.46645876
 20
1799.12261548
  0
VERTEX
  8
0
 10
334.84466522
 20
1789.79521973
  0
VERTEX
  8
0
 10
334.24410605
 20
1780.46643306
  0
VERTEX
  8
0
 10
333.70308729
 20
1771.68978262
  0
VERTEX
  8
0
 10
333.19324462
 20
1762.91127453
  0
VERTEX
  8
0
 10
332.86119920
 20
1756.77275377
  0
VERTEX
  8
0
 10
332.55843306
 20
1750.63272588
  0
VERTEX
  8
0
 10
332.40371345
 20
1747.12184721
  0
VERTEX
  8
0
 10
332.26807534
 20
1743.61018065
  0
VERTEX
  8
0
 10
332.14794976
 20
1739.50197754
  0
VERTEX
  8
0
 10
331.74591970
 20
1721.26894752
  0
VERTEX
  8
0
 10
331.21362184
 20
1695.99481036
  0
VERTEX
  8
0
 10
330.92591138
 20
1681.49600482
  0
VERTEX
  8
0
 10
330.63838066
 20
1666.17133633
  0
VERTEX
  8
0
 10
330.36194524
 20
1650.33227620
  0
VERTEX
  8
0
 10
330.10752068
 20
1634.29029569
  0
VERTEX
  8
0
 10
329.88602254
 20
1618.35686611
  0
VERTEX
  8
0
 10
329.70836639
 20
1602.84345872
  0
VERTEX
  8
0
 10
329.58546780
 20
1588.06154482
  0
VERTEX
  8
0
 10
329.54796369
 20
1581.04223270
  0
VERTEX
  8
0
 10
329.52824231
 20
1574.32259568
  0
VERTEX
  8
0
 10
329.52766810
 20
1567.94156768
  0
VERTEX
  8
0
 10
329.54760550
 20
1561.93808259
  0
VERTEX
  8
0
 10
329.58941896
 20
1556.35107435
  0
VERTEX
  8
0
 10
329.65447293
 20
1551.21947684
  0
VERTEX
  8
0
 10
329.74413185
 20
1546.58222399
  0
VERTEX
  8
0
 10
329.85976016
 20
1542.47824971
  0
VERTEX
  8
0
 10
330.00272231
 20
1538.94648790
  0
VERTEX
  8
0
 10
330.08487997
 20
1537.40735352
  0
VERTEX
  8
0
 10
330.17438275
 20
1536.02587247
  0
VERTEX
  8
0
 10
191.45685997
 20
1536.02587247
  0
VERTEX
  8
0
 10
191.45685997
 20
1523.70579915
  0
VERTEX
  8
0
 10
91.45685997
 20
1523.70579915
  0
VERTEX
  8
0
 10
91.45685997
 20
1536.02587247
  0
VERTEX
  8
0
 10
-8.51857129
 20
1536.02587247
  0
VERTEX
  8
0
 10
-8.51857129
 20
1904.52247859
  0
VERTEX
  8
0
 10
38.41558903
 20
1904.52247859
  0
VERTEX
  8
0
 10
38.41558903
 20
1923.52247859
  0
VERTEX
  8
0
 10
-8.51857129
 20
1923.51944014
  0
VERTEX
  8
0
 10
-8.51857129
 20
2208.91825613
  0
VERTEX
  8
0
 10
38.41558903
 20
2208.91825613
  0
VERTEX
  8
0
 10
38.41558903
 20
2227.91825613
  0
VERTEX
  8
0
 10
-8.51857129
 20
2227.91521767
  0
VERTEX
  8
0
 10
-8.51857129
 20
2336.99277214
  0
VERTEX
  8
0
 10
190.78818781
 20
2424.53840992
  0
VERTEX
  8
0
 10
341.07542871
 20
2424.53840992
  0
VERTEX
  8
0
 10
343.44532871
 20
2382.54480992
  0
VERTEX
  8
0
 10
344.00415377
 20
2372.15705204
  0
VERTEX
  8
0
 10
344.60337913
 20
2361.77085385
  0
VERTEX
  8
0
 10
345.21876460
 20
2351.38527953
  0
VERTEX
  8
0
 10
345.82607002
 20
2340.99939328
  0
VERTEX
  8
0
 10
346.40105520
 20
2330.61225927
  0
VERTEX
  8
0
 10
346.66885264
 20
2325.41793192
  0
VERTEX
  8
0
 10
346.91947995
 20
2320.22294169
  0
VERTEX
  8
0
 10
347.14990711
 20
2315.02717163
  0
VERTEX
  8
0
 10
347.35710410
 20
2309.83050474
  0
VERTEX
  8
0
 10
347.53804089
 20
2304.63282405
  0
VERTEX
  8
0
 10
347.68968746
 20
2299.43401258
  0
VERTEX
  8
0
 10
347.83963944
 20
2292.59502883
  0
VERTEX
  8
0
 10
347.94242709
 20
2285.53392898
  0
VERTEX
  8
0
 10
348.00455092
 20
2278.28155431
  0
VERTEX
  8
0
 10
348.03251141
 20
2270.86874608
  0
VERTEX
  8
0
 10
348.03280904
 20
2263.32634557
  0
VERTEX
  8
0
 10
348.01194430
 20
2255.68519405
  0
VERTEX
  8
0
 10
347.93272968
 20
2240.23000309
  0
VERTEX
  8
0
 10
159.21006910
 20
2240.23000309
  0
VERTEX
  8
0
 10
159.21006910
 20
2227.93000309
  0
VERTEX
  8
0
 10
347.86329200
 20
2227.93000309
  0
VERTEX
  8
0
 10
347.81804997
 20
2217.15552713
  0
VERTEX
  8
0
 10
347.80802871
 20
2206.54490992
  0
VERTEX
  8
0
 10
347.82103876
 20
2184.81219351
  0
VERTEX
  8
0
 10
347.85263460
 20
2161.79738223
  0
VERTEX
  8
0
 10
347.92697774
 20
2114.99850275
  0
VERTEX
  8
0
 10
347.94742210
 20
2092.75294839
  0
VERTEX
  8
0
 10
347.94184637
 20
2072.30232685
  0
VERTEX
  8
0
 10
347.89909906
 20
2054.41589505
  0
VERTEX
  8
0
 10
347.86030123
 20
2046.67464310
  0
VERTEX
  8
0
 10
347.80802871
 20
2039.86290992
  0
VERTEX
  8
0
 10
347.67353692
 20
2027.23317350
  0
VERTEX
  8
0
 10
347.50834558
 20
2014.60370908
  0
VERTEX
  8
0
 10
347.31303364
 20
2001.97460553
  0
VERTEX
  8
0
 10
347.08818007
 20
1989.34595166
  0
VERTEX
  8
0
 10
346.83436383
 20
1976.71783633
  0
VERTEX
  8
0
 10
346.55216388
 20
1964.09034837
  0
VERTEX
  8
0
 10
346.24215919
 20
1951.46357662
  0
VERTEX
  8
0
 10
345.90492871
 20
1938.83760992
  0
VERTEX
  8
0
 10
345.82241173
 20
1935.97219234
  0
VERTEX
  8
0
 10
159.29340772
 20
1935.97219234
  0
VERTEX
  8
0
 10
159.29340772
 20
1923.67219234
  0
VERTEX
  8
0
 10
320.79216438
 20
1923.67219234
  0
SEQEND
  0
POLYLINE
  8
Default Layer
 66
   1
 39
0.000000
 70
    1
  0
VERTEX
  8
0
 10
273.60208876
 20
203.85359447
  0
VERTEX
  8
0
 10
285.60208876
 20
203.85359447
  0
VERTEX
  8
0
 10
285.60208876
 20
303.85359447
  0
VERTEX
  8
0
 10
273.60208876
 20
303.85359447
  0
VERTEX
  8
0
 10
273.60208876
 20
203.85359447
  0
SEQEND
  0
POLYLINE
  8
Default Layer
 66
   1
 39
0.000000
 70
    1
  0
VERTEX
  8
0
 10
-899.20226308
 20
-509.05233380
  0
VERTEX
  8
0
 10
1428.79773692
 20
-509.05233380
  0
VERTEX
  8
0
 10
1428.79773692
 20
-409.05233380
  0
VERTEX
  8
0
 10
-899.20226308
 20
-409.05233380
  0
VERTEX
  8
0
 10
-899.20226308
 20
-509.05233380
  0
SEQEND
  0
POLYLINE
  8
Default Layer
 66
   1
 39
0.000000
 70
    1
  0
VERTEX
  8
0
 10
-899.20226308
 20
-400.95233380
  0
VERTEX
  8
0
 10
1428.79773692
 20
-400.95233380
  0
VERTEX
  8
0
 10
1428.79773692
 20
-300.95233380
  0
VERTEX
  8
0
 10
-899.20226308
 20
-300.95233380
  0
VERTEX
  8
0
 10
-899.20226308
 20
-400.95233380
  0
SEQEND
  0
POLYLINE
  8
Default Layer
 66
   1
 39
0.000000
 70
    1
  0
VERTEX
  8
0
 10
-899.20226308
 20
-292.85233380
  0
VERTEX
  8
0
 10
1428.79773692
 20
-292.85233380
  0
VERTEX
  8
0
 10
1428.79773692
 20
-192.85233380
  0
VERTEX
  8
0
 10
-899.20226308
 20
-192.85233380
  0
VERTEX
  8
0
 10
-899.20226308
 20
-292.85233380
  0
SEQEND
  0
POLYLINE
  8
Default Layer
 66
   1
 39
0.000000
 70
    0
  0
VERTEX
  8
0
 10
-594.09750117
 20
1452.47213579
  0
VERTEX
  8
0
 10
-585.63083451
 20
1452.47213579
  0
VERTEX
  8
0
 10
-577.16416784
 20
1460.93880246
  0
VERTEX
  8
0
 10
-577.16416784
 20
1469.40546913
  0
VERTEX
  8
0
 10
-585.63083451
 20
1477.87213579
  0
VERTEX
  8
0
 10
-602.56416784
 20
1477.87213579
  0
VERTEX
  8
0
 10
-611.03083451
 20
1469.40546913
  0
SEQEND
  0
POLYLINE
  8
Default Layer
 66
   1
 39
0.000000
 70
    0
  0
VERTEX
  8
0
 10
-611.03083451
 20
1435.53880246
  0
VERTEX
  8
0
 10
-602.56416784
 20
1427.07213579
  0
VERTEX
  8
0
 10
-585.63083451
 20
1427.07213579
  0
VERTEX
  8
0
 10
-577.16416784
 20
1435.53880246
  0
VERTEX
  8
0
 10
-577.16416784
 20
1444.00546913
  0
VERTEX
  8
0
 10
-585.63083451
 20
1452.47213579
  0
SEQEND
  0
POLYLINE
  8
Default Layer
 66
   1
 39
0.000000
 70
    0
  0
VERTEX
  8
0
 10
-526.36416784
 20
1477.87213579
  0
VERTEX
  8
0
 10
-560.23083451
 20
1427.07213579
  0
SEQEND
  0
POLYLINE
  8
Default Layer
 66
   1
 39
0.000000
 70
    0
  0
VERTEX
  8
0
 10
-526.36416784
 20
1427.07213579
  0
VERTEX
  8
0
 10
-560.23083451
 20
1477.87213579
  0
SEQEND
  0
POLYLINE
  8
Default Layer
 66
   1
 39
0.000000
 70
    0
  0
VERTEX
  8
0
 10
-500.96416784
 20
1427.07213579
  0
VERTEX
  8
0
 10
-500.96416784
 20
1477.87213579
  0
VERTEX
  8
0
 10
-509.43083451
 20
1469.40546913
  0
SEQEND
  0
POLYLINE
  8
Default Layer
 66
   1
 39
0.000000
 70
    0
  0
VERTEX
  8
0
 10
-492.49750117
 20
1427.07213579
  0
VERTEX
  8
0
 10
-509.43083451
 20
1427.07213579
  0
SEQEND
  0
POLYLINE
  8
Default Layer
 66
   1
 39
0.000000
 70
    0
  0
VERTEX
  8
0
 10
-390.89750117
 20
1477.87213579
  0
VERTEX
  8
0
 10
-424.76416784
 20
1477.87213579
  0
VERTEX
  8
0
 10
-424.76416784
 20
1427.07213579
  0
SEQEND
  0
POLYLINE
  8
Default Layer
 66
   1
 39
0.000000
 70
    0
  0
VERTEX
  8
0
 10
-407.83083451
 20
1452.47213579
  0
VERTEX
  8
0
 10
-424.76416784
 20
1452.47213579
  0
SEQEND
  0
POLYLINE
  8
Default Layer
 66
   1
 39
0.000000
 70
    0
  0
VERTEX
  8
0
 10
-357.03083451
 20
1477.87213579
  0
VERTEX
  8
0
 10
-373.96416784
 20
1477.87213579
  0
SEQEND
  0
POLYLINE
  8
Default Layer
 66
   1
 39
0.000000
 70
    0
  0
VERTEX
  8
0
 10
-365.49750117
 20
1427.07213579
  0
VERTEX
  8
0
 10
-365.49750117
 20
1477.87213579
  0
SEQEND
  0
POLYLINE
  8
Default Layer
 66
   1
 39
0.000000
 70
    0
  0
VERTEX
  8
0
 10
-357.03083451
 20
1427.07213579
  0
VERTEX
  8
0
 10
-373.96416784
 20
1427.07213579
  0
SEQEND
  0
POLYLINE
  8
Default Layer
 66
   1
 39
0.000000
 70
    0
  0
VERTEX
  8
0
 10
-306.23083451
 20
1477.87213579
  0
VERTEX
  8
0
 10
-340.09750117
 20
1427.07213579
  0
SEQEND
  0
POLYLINE
  8
Default Layer
 66
   1
 39
0.000000
 70
    0
  0
VERTEX
  8
0
 10
-306.23083451
 20
1427.07213579
  0
VERTEX
  8
0
 10
-340.09750117
 20
1477.87213579
  0
SEQEND
  0
POLYLINE
  8
Default Layer
 66
   1
 39
0.000000
 70
    0
  0
VERTEX
  8
0
 10
-255.43083451
 20
1477.87213579
  0
VERTEX
  8
0
 10
-289.29750117
 20
1477.87213579
  0
VERTEX
  8
0
 10
-289.29750117
 20
1427.07213579
  0
VERTEX
  8
0
 10
-255.43083451
 20
1427.07213579
  0
SEQEND
  0
POLYLINE
  8
Default Layer
 66
   1
 39
0.000000
 70
    0
  0
VERTEX
  8
0
 10
-272.36416784
 20
1452.47213579
  0
VERTEX
  8
0
 10
-289.29750117
 20
1452.47213579
  0
SEQEND
  0
POLYLINE
  8
Default Layer
 66
   1
 39
0.000000
 70
    0
  0
VERTEX
  8
0
 10
-238.49750117
 20
1477.87213579
  0
VERTEX
  8
0
 10
-213.09750117
 20
1477.87213579
  0
VERTEX
  8
0
 10
-204.63083451
 20
1469.40546913
  0
VERTEX
  8
0
 10
-204.63083451
 20
1435.53880246
  0
VERTEX
  8
0
 10
-213.09750117
 20
1427.07213579
  0
VERTEX
  8
0
 10
-238.49750117
 20
1427.07213579
  0
SEQEND
  0
POLYLINE
  8
Default Layer
 66
   1
 39
0.000000
 70
    0
  0
VERTEX
  8
0
 10
-230.03083451
 20
1427.07213579
  0
VERTEX
  8
0
 10
-230.03083451
 20
1477.87213579
  0
SEQEND
  0
POLYLINE
  8
Default Layer
 66
   1
 39
0.000000
 70
    0
  0
VERTEX
  8
0
 10
-103.03083451
 20
1477.87213579
  0
VERTEX
  8
0
 10
-103.03083451
 20
1435.53880246
  0
VERTEX
  8
0
 10
-111.49750117
 20
1427.07213579
  0
VERTEX
  8
0
 10
-128.43083451
 20
1427.07213579
  0
VERTEX
  8
0
 10
-136.89750117
 20
1435.53880246
  0
VERTEX
  8
0
 10
-136.89750117
 20
1477.87213579
  0
SEQEND
  0
POLYLINE
  8
Default Layer
 66
   1
 39
0.000000
 70
    0
  0
VERTEX
  8
0
 10
-52.23083451
 20
1477.87213579
  0
VERTEX
  8
0
 10
-52.23083451
 20
1427.07213579
  0
VERTEX
  8
0
 10
-86.09750117
 20
1477.87213579
  0
VERTEX
  8
0
 10
-86.09750117
 20
1427.07213579
  0
SEQEND
  0
POLYLINE
  8
Default Layer
 66
   1
 39
0.000000
 70
    0
  0
VERTEX
  8
0
 10
-1.43083451
 20
1477.87213579
  0
VERTEX
  8
0
 10
-35.29750117
 20
1477.87213579
  0
VERTEX
  8
0
 10
-35.29750117
 20
1427.07213579
  0
VERTEX
  8
0
 10
-1.43083451
 20
1427.07213579
  0
SEQEND
  0
POLYLINE
  8
Default Layer
 66
   1
 39
0.000000
 70
    0
  0
VERTEX
  8
0
 10
-18.36416784
 20
1452.47213579
  0
VERTEX
  8
0
 10
-35.29750117
 20
1452.47213579
  0
SEQEND
  0
POLYLINE
  8
Default Layer
 66
   1
 39
0.000000
 70
    0
  0
VERTEX
  8
0
 10
15.50249883
 20
1452.47213579
  0
VERTEX
  8
0
 10
40.90249883
 20
1452.47213579
  0
VERTEX
  8
0
 10
49.36916549
 20
1460.93880246
  0
VERTEX
  8
0
 10
49.36916549
 20
1469.40546913
  0
VERTEX
  8
0
 10
40.90249883
 20
1477.87213579
  0
VERTEX
  8
0
 10
15.50249883
 20
1477.87213579
  0
VERTEX
  8
0
 10
15.50249883
 20
1427.07213579
  0
SEQEND
  0
POLYLINE
  8
Default Layer
 66
   1
 39
0.000000
 70
    0
  0
VERTEX
  8
0
 10
49.36916549
 20
1427.07213579
  0
VERTEX
  8
0
 10
23.96916549
 20
1452.47213579
  0
SEQEND
  0
POLYLINE
  8
Default Layer
 66
   1
 39
0.000000
 70
    0
  0
VERTEX
  8
0
 10
117.10249883
 20
1452.47213579
  0
VERTEX
  8
0
 10
142.50249883
 20
1452.47213579
  0
VERTEX
  8
0
 10
150.96916549
 20
1460.93880246
  0
VERTEX
  8
0
 10
150.96916549
 20
1469.40546913
  0
VERTEX
  8
0
 10
142.50249883
 20
1477.87213579
  0
VERTEX
  8
0
 10
117.10249883
 20
1477.87213579
  0
VERTEX
  8
0
 10
117.10249883
 20
1427.07213579
  0
SEQEND
  0
POLYLINE
  8
Default Layer
 66
   1
 39
0.000000
 70
    0
  0
VERTEX
  8
0
 10
150.96916549
 20
1427.07213579
  0
VERTEX
  8
0
 10
125.56916549
 20
1452.47213579
  0
SEQEND
  0
POLYLINE
  8
Default Layer
 66
   1
 39
0.000000
 70
    0
  0
VERTEX
  8
0
 10
201.76916549
 20
1477.87213579
  0
VERTEX
  8
0
 10
167.90249883
 20
1477.87213579
  0
VERTEX
  8
0
 10
167.90249883
 20
1427.07213579
  0
VERTEX
  8
0
 10
201.76916549
 20
1427.07213579
  0
SEQEND
  0
POLYLINE
  8
Default Layer
 66
   1
 39
0.000000
 70
    0
  0
VERTEX
  8
0
 10
184.83583216
 20
1452.47213579
  0
VERTEX
  8
0
 10
167.90249883
 20
1452.47213579
  0
SEQEND
  0
POLYLINE
  8
Default Layer
 66
   1
 39
0.000000
 70
    0
  0
VERTEX
  8
0
 10
252.56916549
 20
1427.07213579
  0
VERTEX
  8
0
 10
252.56916549
 20
1444.00546913
  0
VERTEX
  8
0
 10
235.63583216
 20
1477.87213579
  0
VERTEX
  8
0
 10
218.70249883
 20
1444.00546913
  0
VERTEX
  8
0
 10
218.70249883
 20
1427.07213579
  0
SEQEND
  0
POLYLINE
  8
Default Layer
 66
   1
 39
0.000000
 70
    0
  0
VERTEX
  8
0
 10
252.56916549
 20
1444.00546913
  0
VERTEX
  8
0
 10
218.70249883
 20
1444.00546913
  0
SEQEND
  0
POLYLINE
  8
Default Layer
 66
   1
 39
0.000000
 70
    0
  0
VERTEX
  8
0
 10
269.50249883
 20
1452.47213579
  0
VERTEX
  8
0
 10
294.90249883
 20
1452.47213579
  0
VERTEX
  8
0
 10
303.36916549
 20
1460.93880246
  0
VERTEX
  8
0
 10
303.36916549
 20
1469.40546913
  0
VERTEX
  8
0
 10
294.90249883
 20
1477.87213579
  0
VERTEX
  8
0
 10
269.50249883
 20
1477.87213579
  0
VERTEX
  8
0
 10
269.50249883
 20
1427.07213579
  0
SEQEND
  0
POLYLINE
  8
Default Layer
 66
   1
 39
0.000000
 70
    0
  0
VERTEX
  8
0
 10
303.36916549
 20
1427.07213579
  0
VERTEX
  8
0
 10
277.96916549
 20
1452.47213579
  0
SEQEND
  0
POLYLINE
  8
Default Layer
 66
   1
 39
0.000000
 70
    0
  0
VERTEX
  8
0
 10
404.96916549
 20
1469.40546913
  0
VERTEX
  8
0
 10
396.50249883
 20
1477.87213579
  0
VERTEX
  8
0
 10
379.56916549
 20
1477.87213579
  0
VERTEX
  8
0
 10
371.10249883
 20
1469.40546913
  0
VERTEX
  8
0
 10
404.96916549
 20
1435.53880246
  0
VERTEX
  8
0
 10
396.50249883
 20
1427.07213579
  0
VERTEX
  8
0
 10
379.56916549
 20
1427.07213579
  0
VERTEX
  8
0
 10
371.10249883
 20
1435.53880246
  0
SEQEND
  0
POLYLINE
  8
Default Layer
 66
   1
 39
0.000000
 70
    0
  0
VERTEX
  8
0
 10
421.90249883
 20
1477.87213579
  0
VERTEX
  8
0
 10
421.90249883
 20
1427.07213579
  0
SEQEND
  0
POLYLINE
  8
Default Layer
 66
   1
 39
0.000000
 70
    0
  0
VERTEX
  8
0
 10
455.76916549
 20
1452.47213579
  0
VERTEX
  8
0
 10
421.90249883
 20
1452.47213579
  0
SEQEND
  0
POLYLINE
  8
Default Layer
 66
   1
 39
0.000000
 70
    0
  0
VERTEX
  8
0
 10
455.76916549
 20
1427.07213579
  0
VERTEX
  8
0
 10
455.76916549
 20
1477.87213579
  0
SEQEND
  0
POLYLINE
  8
Default Layer
 66
   1
 39
0.000000
 70
    0
  0
VERTEX
  8
0
 10
506.56916549
 20
1477.87213579
  0
VERTEX
  8
0
 10
472.70249883
 20
1477.87213579
  0
VERTEX
  8
0
 10
472.70249883
 20
1427.07213579
  0
VERTEX
  8
0
 10
506.56916549
 20
1427.07213579
  0
SEQEND
  0
POLYLINE
  8
Default Layer
 66
   1
 39
0.000000
 70
    0
  0
VERTEX
  8
0
 10
489.63583216
 20
1452.47213579
  0
VERTEX
  8
0
 10
472.70249883
 20
1452.47213579
  0
SEQEND
  0
POLYLINE
  8
Default Layer
 66
   1
 39
0.000000
 70
    0
  0
VERTEX
  8
0
 10
557.36916549
 20
1427.07213579
  0
VERTEX
  8
0
 10
523.50249883
 20
1427.07213579
  0
VERTEX
  8
0
 10
523.50249883
 20
1477.87213579
  0
SEQEND
  0
POLYLINE
  8
Default Layer
 66
   1
 39
0.000000
 70
    0
  0
VERTEX
  8
0
 10
625.10249883
 20
1477.87213579
  0
VERTEX
  8
0
 10
599.70249883
 20
1427.07213579
  0
VERTEX
  8
0
 10
574.30249883
 20
1477.87213579
  0
SEQEND
  0
POLYLINE
  8
Default Layer
 66
   1
 39
0.000000
 70
    0
  0
VERTEX
  8
0
 10
675.90249883
 20
1477.87213579
  0
VERTEX
  8
0
 10
642.03583216
 20
1477.87213579
  0
VERTEX
  8
0
 10
642.03583216
 20
1427.07213579
  0
VERTEX
  8
0
 10
675.90249883
 20
1427.07213579
  0
SEQEND
  0
POLYLINE
  8
Default Layer
 66
   1
 39
0.000000
 70
    0
  0
VERTEX
  8
0
 10
658.96916549
 20
1452.47213579
  0
VERTEX
  8
0
 10
642.03583216
 20
1452.47213579
  0
SEQEND
  0
POLYLINE
  8
Default Layer
 66
   1
 39
0.000000
 70
    0
  0
VERTEX
  8
0
 10
726.70249883
 20
1469.40546913
  0
VERTEX
  8
0
 10
718.23583216
 20
1477.87213579
  0
VERTEX
  8
0
 10
701.30249883
 20
1477.87213579
  0
VERTEX
  8
0
 10
692.83583216
 20
1469.40546913
  0
VERTEX
  8
0
 10
726.70249883
 20
1435.53880246
  0
VERTEX
  8
0
 10
718.23583216
 20
1427.07213579
  0
VERTEX
  8
0
 10
701.30249883
 20
1427.07213579
  0
VERTEX
  8
0
 10
692.83583216
 20
1435.53880246
  0
SEQEND
  0
POLYLINE
  8
Default Layer
 66
   1
 39
0.000000
 70
    0
  0
VERTEX
  8
0
 10
828.30249883
 20
1477.87213579
  0
VERTEX
  8
0
 10
794.43583216
 20
1477.87213579
  0
SEQEND
  0
POLYLINE
  8
Default Layer
 66
   1
 39
0.000000
 70
    0
  0
VERTEX
  8
0
 10
811.36916549
 20
1427.07213579
  0
VERTEX
  8
0
 10
811.36916549
 20
1477.87213579
  0
SEQEND
  0
POLYLINE
  8
Default Layer
 66
   1
 39
0.000000
 70
    0
  0
VERTEX
  8
0
 10
980.70249883
 20
1469.40546913
  0
VERTEX
  8
0
 10
972.23583216
 20
1477.87213579
  0
VERTEX
  8
0
 10
955.30249883
 20
1477.87213579
  0
VERTEX
  8
0
 10
946.83583216
 20
1469.40546913
  0
VERTEX
  8
0
 10
980.70249883
 20
1435.53880246
  0
VERTEX
  8
0
 10
972.23583216
 20
1427.07213579
  0
VERTEX
  8
0
 10
955.30249883
 20
1427.07213579
  0
VERTEX
  8
0
 10
946.83583216
 20
1435.53880246
  0
SEQEND
  0
POLYLINE
  8
Default Layer
 66
   1
 39
0.000000
 70
    0
  0
VERTEX
  8
0
 10
1014.56916549
 20
1477.87213579
  0
VERTEX
  8
0
 10
997.63583216
 20
1477.87213579
  0
SEQEND
  0
POLYLINE
  8
Default Layer
 66
   1
 39
0.000000
 70
    0
  0
VERTEX
  8
0
 10
1006.10249883
 20
1427.07213579
  0
VERTEX
  8
0
 10
1006.10249883
 20
1477.87213579
  0
SEQEND
  0
POLYLINE
  8
Default Layer
 66
   1
 39
0.000000
 70
    0
  0
VERTEX
  8
0
 10
1014.56916549
 20
1427.07213579
  0
VERTEX
  8
0
 10
997.63583216
 20
1427.07213579
  0
SEQEND
  0
POLYLINE
  8
Default Layer
 66
   1
 39
0.000000
 70
    0
  0
VERTEX
  8
0
 10
1031.50249883
 20
1477.87213579
  0
VERTEX
  8
0
 10
1056.90249883
 20
1477.87213579
  0
VERTEX
  8
0
 10
1065.36916549
 20
1469.40546913
  0
VERTEX
  8
0
 10
1065.36916549
 20
1435.53880246
  0
VERTEX
  8
0
 10
1056.90249883
 20
1427.07213579
  0
VERTEX
  8
0
 10
1031.50249883
 20
1427.07213579
  0
SEQEND
  0
POLYLINE
  8
Default Layer
 66
   1
 39
0.000000
 70
    0
  0
VERTEX
  8
0
 10
1039.96916549
 20
1427.07213579
  0
VERTEX
  8
0
 10
1039.96916549
 20
1477.87213579
  0
SEQEND
  0
POLYLINE
  8
Default Layer
 66
   1
 39
0.000000
 70
    0
  0
VERTEX
  8
0
 10
1116.16916549
 20
1477.87213579
  0
VERTEX
  8
0
 10
1082.30249883
 20
1477.87213579
  0
VERTEX
  8
0
 10
1082.30249883
 20
1427.07213579
  0
VERTEX
  8
0
 10
1116.16916549
 20
1427.07213579
  0
SEQEND
  0
POLYLINE
  8
Default Layer
 66
   1
 39
0.000000
 70
    0
  0
VERTEX
  8
0
 10
1099.23583216
 20
1452.47213579
  0
VERTEX
  8
0
 10
1082.30249883
 20
1452.47213579
  0
SEQEND
  0
POLYLINE
  8
Default Layer
 66
   1
 39
0.000000
 70
    1
  0
VERTEX
  8
0
 10
845.23583216
 20
1427.07213579
  0
VERTEX
  8
0
 10
879.10249883
 20
1427.07213579
  0
VERTEX
  8
0
 10
879.10249883
 20
1477.87213579
  0
VERTEX
  8
0
 10
845.23583216
 20
1477.87213579
  0
VERTEX
  8
0
 10
845.23583216
 20
1427.07213579
  0
SEQEND
  0
POLYLINE
  8
Default Layer
 66
   1
 39
0.000000
 70
    0
  0
VERTEX
  8
0
 10
1687.52569543
 20
1010.71824611
  0
VERTEX
  8
0
 10
1712.92569543
 20
1010.71824611
  0
VERTEX
  8
0
 10
1721.39236209
 20
1019.18491278
  0
VERTEX
  8
0
 10
1721.39236209
 20
1027.65157944
  0
VERTEX
  8
0
 10
1712.92569543
 20
1036.11824611
  0
VERTEX
  8
0
 10
1687.52569543
 20
1036.11824611
  0
VERTEX
  8
0
 10
1687.52569543
 20
985.31824611
  0
SEQEND
  0
POLYLINE
  8
Default Layer
 66
   1
 39
0.000000
 70
    0
  0
VERTEX
  8
0
 10
1721.39236209
 20
985.31824611
  0
VERTEX
  8
0
 10
1695.99236209
 20
1010.71824611
  0
SEQEND
  0
POLYLINE
  8
Default Layer
 66
   1
 39
0.000000
 70
    0
  0
VERTEX
  8
0
 10
1772.19236209
 20
1036.11824611
  0
VERTEX
  8
0
 10
1738.32569543
 20
1036.11824611
  0
VERTEX
  8
0
 10
1738.32569543
 20
985.31824611
  0
VERTEX
  8
0
 10
1772.19236209
 20
985.31824611
  0
SEQEND
  0
POLYLINE
  8
Default Layer
 66
   1
 39
0.000000
 70
    0
  0
VERTEX
  8
0
 10
1755.25902876
 20
1010.71824611
  0
VERTEX
  8
0
 10
1738.32569543
 20
1010.71824611
  0
SEQEND
  0
POLYLINE
  8
Default Layer
 66
   1
 39
0.000000
 70
    0
  0
VERTEX
  8
0
 10
1822.99236209
 20
985.31824611
  0
VERTEX
  8
0
 10
1822.99236209
 20
1002.25157944
  0
VERTEX
  8
0
 10
1806.05902876
 20
1036.11824611
  0
VERTEX
  8
0
 10
1789.12569543
 20
1002.25157944
  0
VERTEX
  8
0
 10
1789.12569543
 20
985.31824611
  0
SEQEND
  0
POLYLINE
  8
Default Layer
 66
   1
 39
0.000000
 70
    0
  0
VERTEX
  8
0
 10
1822.99236209
 20
1002.25157944
  0
VERTEX
  8
0
 10
1789.12569543
 20
1002.25157944
  0
SEQEND
  0
POLYLINE
  8
Default Layer
 66
   1
 39
0.000000
 70
    0
  0
VERTEX
  8
0
 10
1839.92569543
 20
1010.71824611
  0
VERTEX
  8
0
 10
1865.32569543
 20
1010.71824611
  0
VERTEX
  8
0
 10
1873.79236209
 20
1019.18491278
  0
VERTEX
  8
0
 10
1873.79236209
 20
1027.65157944
  0
VERTEX
  8
0
 10
1865.32569543
 20
1036.11824611
  0
VERTEX
  8
0
 10
1839.92569543
 20
1036.11824611
  0
VERTEX
  8
0
 10
1839.92569543
 20
985.31824611
  0
SEQEND
  0
POLYLINE
  8
Default Layer
 66
   1
 39
0.000000
 70
    0
  0
VERTEX
  8
0
 10
1873.79236209
 20
985.31824611
  0
VERTEX
  8
0
 10
1848.39236209
 20
1010.71824611
  0
SEQEND
  0
POLYLINE
  8
Default Layer
 66
   1
 39
0.000000
 70
    0
  0
VERTEX
  8
0
 10
-1422.97557755
 20
824.99867986
  0
VERTEX
  8
0
 10
-1397.57557755
 20
824.99867986
  0
VERTEX
  8
0
 10
-1389.10891089
 20
833.46534653
  0
VERTEX
  8
0
 10
-1389.10891089
 20
841.93201320
  0
VERTEX
  8
0
 10
-1397.57557755
 20
850.39867986
  0
VERTEX
  8
0
 10
-1422.97557755
 20
850.39867986
  0
VERTEX
  8
0
 10
-1422.97557755
 20
799.59867986
  0
SEQEND
  0
POLYLINE
  8
Default Layer
 66
   1
 39
0.000000
 70
    0
  0
VERTEX
  8
0
 10
-1389.10891089
 20
799.59867986
  0
VERTEX
  8
0
 10
-1414.50891089
 20
824.99867986
  0
SEQEND
  0
POLYLINE
  8
Default Layer
 66
   1
 39
0.000000
 70
    0
  0
VERTEX
  8
0
 10
-1287.50891089
 20
850.39867986
  0
VERTEX
  8
0
 10
-1287.50891089
 20
799.59867986
  0
VERTEX
  8
0
 10
-1321.37557755
 20
850.39867986
  0
VERTEX
  8
0
 10
-1321.37557755
 20
799.59867986
  0
SEQEND
  0
POLYLINE
  8
Default Layer
 66
   1
 39
0.000000
 70
    0
  0
VERTEX
  8
0
 10
-1236.70891089
 20
850.39867986
  0
VERTEX
  8
0
 10
-1270.57557755
 20
850.39867986
  0
SEQEND
  0
POLYLINE
  8
Default Layer
 66
   1
 39
0.000000
 70
    0
  0
VERTEX
  8
0
 10
-1253.64224422
 20
799.59867986
  0
VERTEX
  8
0
 10
-1253.64224422
 20
850.39867986
  0
SEQEND
  0
POLYLINE
  8
Default Layer
 66
   1
 39
0.000000
 70
    1
  0
VERTEX
  8
0
 10
-1372.17557755
 20
799.59867986
  0
VERTEX
  8
0
 10
-1338.30891089
 20
799.59867986
  0
VERTEX
  8
0
 10
-1338.30891089
 20
850.39867986
  0
VERTEX
  8
0
 10
-1372.17557755
 20
850.39867986
  0
VERTEX
  8
0
 10
-1372.17557755
 20
799.59867986
  0
SEQEND
  0
POLYLINE
  8
Default Layer
 66
   1
 39
0.000000
 70
    0
  0
VERTEX
  8
0
 10
-549.72984441
 20
-63.84724187
  0
VERTEX
  8
0
 10
-583.59651108
 20
-63.84724187
  0
VERTEX
  8
0
 10
-583.59651108
 20
-46.91390854
  0
VERTEX
  8
0
 10
-575.12984441
 20
-38.44724187
  0
VERTEX
  8
0
 10
-558.19651108
 20
-38.44724187
  0
VERTEX
  8
0
 10
-549.72984441
 20
-29.98057520
  0
VERTEX
  8
0
 10
-549.72984441
 20
-21.51390854
  0
VERTEX
  8
0
 10
-558.19651108
 20
-13.04724187
  0
VERTEX
  8
0
 10
-575.12984441
 20
-13.04724187
  0
VERTEX
  8
0
 10
-583.59651108
 20
-21.51390854
  0
SEQEND
  0
POLYLINE
  8
Default Layer
 66
   1
 39
0.000000
 70
    0
  0
VERTEX
  8
0
 10
-498.92984441
 20
-13.04724187
  0
VERTEX
  8
0
 10
-532.79651108
 20
-63.84724187
  0
SEQEND
  0
POLYLINE
  8
Default Layer
 66
   1
 39
0.000000
 70
    0
  0
VERTEX
  8
0
 10
-498.92984441
 20
-63.84724187
  0
VERTEX
  8
0
 10
-532.79651108
 20
-13.04724187
  0
SEQEND
  0
POLYLINE
  8
Default Layer
 66
   1
 39
0.000000
 70
    0
  0
VERTEX
  8
0
 10
-473.52984441
 20
-63.84724187
  0
VERTEX
  8
0
 10
-473.52984441
 20
-13.04724187
  0
VERTEX
  8
0
 10
-481.99651108
 20
-21.51390854
  0
SEQEND
  0
POLYLINE
  8
Default Layer
 66
   1
 39
0.000000
 70
    0
  0
VERTEX
  8
0
 10
-465.06317775
 20
-63.84724187
  0
VERTEX
  8
0
 10
-481.99651108
 20
-63.84724187
  0
SEQEND
  0
POLYLINE
  8
Default Layer
 66
   1
 39
0.000000
 70
    0
  0
VERTEX
  8
0
 10
-363.46317775
 20
-13.04724187
  0
VERTEX
  8
0
 10
-397.32984441
 20
-13.04724187
  0
VERTEX
  8
0
 10
-397.32984441
 20
-63.84724187
  0
SEQEND
  0
POLYLINE
  8
Default Layer
 66
   1
 39
0.000000
 70
    0
  0
VERTEX
  8
0
 10
-380.39651108
 20
-38.44724187
  0
VERTEX
  8
0
 10
-397.32984441
 20
-38.44724187
  0
SEQEND
  0
POLYLINE
  8
Default Layer
 66
   1
 39
0.000000
 70
    0
  0
VERTEX
  8
0
 10
-312.66317775
 20
-63.84724187
  0
VERTEX
  8
0
 10
-346.52984441
 20
-63.84724187
  0
VERTEX
  8
0
 10
-346.52984441
 20
-13.04724187
  0
SEQEND
  0
POLYLINE
  8
Default Layer
 66
   1
 39
0.000000
 70
    0
  0
VERTEX
  8
0
 10
-261.86317775
 20
-63.84724187
  0
VERTEX
  8
0
 10
-261.86317775
 20
-46.91390854
  0
VERTEX
  8
0
 10
-278.79651108
 20
-13.04724187
  0
VERTEX
  8
0
 10
-295.72984441
 20
-46.91390854
  0
VERTEX
  8
0
 10
-295.72984441
 20
-63.84724187
  0
SEQEND
  0
POLYLINE
  8
Default Layer
 66
   1
 39
0.000000
 70
    0
  0
VERTEX
  8
0
 10
-261.86317775
 20
-46.91390854
  0
VERTEX
  8
0
 10
-295.72984441
 20
-46.91390854
  0
SEQEND
  0
POLYLINE
  8
Default Layer
 66
   1
 39
0.000000
 70
    0
  0
VERTEX
  8
0
 10
-211.06317775
 20
-13.04724187
  0
VERTEX
  8
0
 10
-244.92984441
 20
-13.04724187
  0
SEQEND
  0
POLYLINE
  8
Default Layer
 66
   1
 39
0.000000
 70
    0
  0
VERTEX
  8
0
 10
-227.99651108
 20
-63.84724187
  0
VERTEX
  8
0
 10
-227.99651108
 20
-13.04724187
  0
SEQEND
  0
POLYLINE
  8
Default Layer
 66
   1
 39
0.000000
 70
    0
  0
VERTEX
  8
0
 10
-109.46317775
 20
-13.04724187
  0
VERTEX
  8
0
 10
-109.46317775
 20
-55.38057520
  0
VERTEX
  8
0
 10
-117.92984441
 20
-63.84724187
  0
VERTEX
  8
0
 10
-134.86317775
 20
-63.84724187
  0
VERTEX
  8
0
 10
-143.32984441
 20
-55.38057520
  0
VERTEX
  8
0
 10
-143.32984441
 20
-13.04724187
  0
SEQEND
  0
POLYLINE
  8
Default Layer
 66
   1
 39
0.000000
 70
    0
  0
VERTEX
  8
0
 10
-58.66317775
 20
-13.04724187
  0
VERTEX
  8
0
 10
-58.66317775
 20
-63.84724187
  0
VERTEX
  8
0
 10
-92.52984441
 20
-13.04724187
  0
VERTEX
  8
0
 10
-92.52984441
 20
-63.84724187
  0
SEQEND
  0
POLYLINE
  8
Default Layer
 66
   1
 39
0.000000
 70
    0
  0
VERTEX
  8
0
 10
-41.72984441
 20
-13.04724187
  0
VERTEX
  8
0
 10
-16.32984441
 20
-13.04724187
  0
VERTEX
  8
0
 10
-7.86317775
 20
-21.51390854
  0
VERTEX
  8
0
 10
-7.86317775
 20
-55.38057520
  0
VERTEX
  8
0
 10
-16.32984441
 20
-63.84724187
  0
VERTEX
  8
0
 10
-41.72984441
 20
-63.84724187
  0
SEQEND
  0
POLYLINE
  8
Default Layer
 66
   1
 39
0.000000
 70
    0
  0
VERTEX
  8
0
 10
-33.26317775
 20
-63.84724187
  0
VERTEX
  8
0
 10
-33.26317775
 20
-13.04724187
  0
SEQEND
  0
POLYLINE
  8
Default Layer
 66
   1
 39
0.000000
 70
    0
  0
VERTEX
  8
0
 10
42.93682225
 20
-13.04724187
  0
VERTEX
  8
0
 10
9.07015559
 20
-13.04724187
  0
VERTEX
  8
0
 10
9.07015559
 20
-63.84724187
  0
VERTEX
  8
0
 10
42.93682225
 20
-63.84724187
  0
SEQEND
  0
POLYLINE
  8
Default Layer
 66
   1
 39
0.000000
 70
    0
  0
VERTEX
  8
0
 10
26.00348892
 20
-38.44724187
  0
VERTEX
  8
0
 10
9.07015559
 20
-38.44724187
  0
SEQEND
  0
POLYLINE
  8
Default Layer
 66
   1
 39
0.000000
 70
    0
  0
VERTEX
  8
0
 10
59.87015559
 20
-38.44724187
  0
VERTEX
  8
0
 10
85.27015559
 20
-38.44724187
  0
VERTEX
  8
0
 10
93.73682225
 20
-29.98057520
  0
VERTEX
  8
0
 10
93.73682225
 20
-21.51390854
  0
VERTEX
  8
0
 10
85.27015559
 20
-13.04724187
  0
VERTEX
  8
0
 10
59.87015559
 20
-13.04724187
  0
VERTEX
  8
0
 10
59.87015559
 20
-63.84724187
  0
SEQEND
  0
POLYLINE
  8
Default Layer
 66
   1
 39
0.000000
 70
    0
  0
VERTEX
  8
0
 10
93.73682225
 20
-63.84724187
  0
VERTEX
  8
0
 10
68.33682225
 20
-38.44724187
  0
SEQEND
  0
POLYLINE
  8
Default Layer
 66
   1
 39
0.000000
 70
    0
  0
VERTEX
  8
0
 10
195.33682225
 20
-13.04724187
  0
VERTEX
  8
0
 10
161.47015559
 20
-13.04724187
  0
VERTEX
  8
0
 10
161.47015559
 20
-63.84724187
  0
SEQEND
  0
POLYLINE
  8
Default Layer
 66
   1
 39
0.000000
 70
    0
  0
VERTEX
  8
0
 10
178.40348892
 20
-38.44724187
  0
VERTEX
  8
0
 10
161.47015559
 20
-38.44724187
  0
SEQEND
  0
POLYLINE
  8
Default Layer
 66
   1
 39
0.000000
 70
    0
  0
VERTEX
  8
0
 10
212.27015559
 20
-38.44724187
  0
VERTEX
  8
0
 10
237.67015559
 20
-38.44724187
  0
VERTEX
  8
0
 10
246.13682225
 20
-29.98057520
  0
VERTEX
  8
0
 10
246.13682225
 20
-21.51390854
  0
VERTEX
  8
0
 10
237.67015559
 20
-13.04724187
  0
VERTEX
  8
0
 10
212.27015559
 20
-13.04724187
  0
VERTEX
  8
0
 10
212.27015559
 20
-63.84724187
  0
SEQEND
  0
POLYLINE
  8
Default Layer
 66
   1
 39
0.000000
 70
    0
  0
VERTEX
  8
0
 10
246.13682225
 20
-63.84724187
  0
VERTEX
  8
0
 10
220.73682225
 20
-38.44724187
  0
SEQEND
  0
POLYLINE
  8
Default Layer
 66
   1
 39
0.000000
 70
    0
  0
VERTEX
  8
0
 10
347.73682225
 20
-13.04724187
  0
VERTEX
  8
0
 10
347.73682225
 20
-63.84724187
  0
VERTEX
  8
0
 10
313.87015559
 20
-13.04724187
  0
VERTEX
  8
0
 10
313.87015559
 20
-63.84724187
  0
SEQEND
  0
POLYLINE
  8
Default Layer
 66
   1
 39
0.000000
 70
    0
  0
VERTEX
  8
0
 10
398.53682225
 20
-13.04724187
  0
VERTEX
  8
0
 10
364.67015559
 20
-13.04724187
  0
SEQEND
  0
POLYLINE
  8
Default Layer
 66
   1
 39
0.000000
 70
    0
  0
VERTEX
  8
0
 10
381.60348892
 20
-63.84724187
  0
VERTEX
  8
0
 10
381.60348892
 20
-13.04724187
  0
SEQEND
  0
POLYLINE
  8
Default Layer
 66
   1
 39
0.000000
 70
    0
  0
VERTEX
  8
0
 10
550.93682225
 20
-13.04724187
  0
VERTEX
  8
0
 10
517.07015559
 20
-13.04724187
  0
VERTEX
  8
0
 10
517.07015559
 20
-63.84724187
  0
SEQEND
  0
POLYLINE
  8
Default Layer
 66
   1
 39
0.000000
 70
    0
  0
VERTEX
  8
0
 10
534.00348892
 20
-38.44724187
  0
VERTEX
  8
0
 10
517.07015559
 20
-38.44724187
  0
SEQEND
  0
POLYLINE
  8
Default Layer
 66
   1
 39
0.000000
 70
    0
  0
VERTEX
  8
0
 10
652.53682225
 20
-21.51390854
  0
VERTEX
  8
0
 10
644.07015559
 20
-13.04724187
  0
VERTEX
  8
0
 10
627.13682225
 20
-13.04724187
  0
VERTEX
  8
0
 10
618.67015559
 20
-21.51390854
  0
VERTEX
  8
0
 10
652.53682225
 20
-55.38057520
  0
VERTEX
  8
0
 10
644.07015559
 20
-63.84724187
  0
VERTEX
  8
0
 10
627.13682225
 20
-63.84724187
  0
VERTEX
  8
0
 10
618.67015559
 20
-55.38057520
  0
SEQEND
  0
POLYLINE
  8
Default Layer
 66
   1
 39
0.000000
 70
    0
  0
VERTEX
  8
0
 10
669.47015559
 20
-13.04724187
  0
VERTEX
  8
0
 10
669.47015559
 20
-63.84724187
  0
SEQEND
  0
POLYLINE
  8
Default Layer
 66
   1
 39
0.000000
 70
    0
  0
VERTEX
  8
0
 10
703.33682225
 20
-38.44724187
  0
VERTEX
  8
0
 10
669.47015559
 20
-38.44724187
  0
SEQEND
  0
POLYLINE
  8
Default Layer
 66
   1
 39
0.000000
 70
    0
  0
VERTEX
  8
0
 10
703.33682225
 20
-63.84724187
  0
VERTEX
  8
0
 10
703.33682225
 20
-13.04724187
  0
SEQEND
  0
POLYLINE
  8
Default Layer
 66
   1
 39
0.000000
 70
    0
  0
VERTEX
  8
0
 10
754.13682225
 20
-13.04724187
  0
VERTEX
  8
0
 10
720.27015559
 20
-13.04724187
  0
VERTEX
  8
0
 10
720.27015559
 20
-63.84724187
  0
VERTEX
  8
0
 10
754.13682225
 20
-63.84724187
  0
SEQEND
  0
POLYLINE
  8
Default Layer
 66
   1
 39
0.000000
 70
    0
  0
VERTEX
  8
0
 10
737.20348892
 20
-38.44724187
  0
VERTEX
  8
0
 10
720.27015559
 20
-38.44724187
  0
SEQEND
  0
POLYLINE
  8
Default Layer
 66
   1
 39
0.000000
 70
    0
  0
VERTEX
  8
0
 10
804.93682225
 20
-63.84724187
  0
VERTEX
  8
0
 10
771.07015559
 20
-63.84724187
  0
VERTEX
  8
0
 10
771.07015559
 20
-13.04724187
  0
SEQEND
  0
POLYLINE
  8
Default Layer
 66
   1
 39
0.000000
 70
    0
  0
VERTEX
  8
0
 10
872.67015559
 20
-13.04724187
  0
VERTEX
  8
0
 10
847.27015559
 20
-63.84724187
  0
VERTEX
  8
0
 10
821.87015559
 20
-13.04724187
  0
SEQEND
  0
POLYLINE
  8
Default Layer
 66
   1
 39
0.000000
 70
    0
  0
VERTEX
  8
0
 10
923.47015559
 20
-13.04724187
  0
VERTEX
  8
0
 10
889.60348892
 20
-13.04724187
  0
VERTEX
  8
0
 10
889.60348892
 20
-63.84724187
  0
VERTEX
  8
0
 10
923.47015559
 20
-63.84724187
  0
SEQEND
  0
POLYLINE
  8
Default Layer
 66
   1
 39
0.000000
 70
    0
  0
VERTEX
  8
0
 10
906.53682225
 20
-38.44724187
  0
VERTEX
  8
0
 10
889.60348892
 20
-38.44724187
  0
SEQEND
  0
POLYLINE
  8
Default Layer
 66
   1
 39
0.000000
 70
    0
  0
VERTEX
  8
0
 10
974.27015559
 20
-21.51390854
  0
VERTEX
  8
0
 10
965.80348892
 20
-13.04724187
  0
VERTEX
  8
0
 10
948.87015559
 20
-13.04724187
  0
VERTEX
  8
0
 10
940.40348892
 20
-21.51390854
  0
VERTEX
  8
0
 10
974.27015559
 20
-55.38057520
  0
VERTEX
  8
0
 10
965.80348892
 20
-63.84724187
  0
VERTEX
  8
0
 10
948.87015559
 20
-63.84724187
  0
VERTEX
  8
0
 10
940.40348892
 20
-55.38057520
  0
SEQEND
  0
POLYLINE
  8
Default Layer
 66
   1
 39
0.000000
 70
    1
  0
VERTEX
  8
0
 10
263.07015559
 20
-63.84724187
  0
VERTEX
  8
0
 10
296.93682225
 20
-63.84724187
  0
VERTEX
  8
0
 10
296.93682225
 20
-13.04724187
  0
VERTEX
  8
0
 10
263.07015559
 20
-13.04724187
  0
VERTEX
  8
0
 10
263.07015559
 20
-63.84724187
  0
SEQEND
  0
POLYLINE
  8
Default Layer
 66
   1
 39
0.000000
 70
    1
  0
VERTEX
  8
0
 10
466.27015559
 20
-63.84724187
  0
VERTEX
  8
0
 10
500.13682225
 20
-63.84724187
  0
VERTEX
  8
0
 10
500.13682225
 20
-13.04724187
  0
VERTEX
  8
0
 10
466.27015559
 20
-13.04724187
  0
VERTEX
  8
0
 10
466.27015559
 20
-63.84724187
  0
SEQEND
  0
POLYLINE
  8
Default Layer
 66
   1
 39
0.000000
 70
    0
  0
VERTEX
  8
0
 10
152.02149929
 20
4544.32842999
  0
VERTEX
  8
0
 10
266.32149929
 20
4315.72842999
  0
VERTEX
  8
0
 10
380.62149929
 20
4544.32842999
  0
SEQEND
  0
POLYLINE
  8
Default Layer
 66
   1
 39
0.000000
 70
    0
  0
VERTEX
  8
0
 10
456.82149929
 20
4544.32842999
  0
VERTEX
  8
0
 10
533.02149929
 20
4544.32842999
  0
SEQEND
  0
POLYLINE
  8
Default Layer
 66
   1
 39
0.000000
 70
    0
  0
VERTEX
  8
0
 10
494.92149929
 20
4544.32842999
  0
VERTEX
  8
0
 10
494.92149929
 20
4315.72842999
  0
SEQEND
  0
POLYLINE
  8
Default Layer
 66
   1
 39
0.000000
 70
    0
  0
VERTEX
  8
0
 10
456.82149929
 20
4315.72842999
  0
VERTEX
  8
0
 10
533.02149929
 20
4315.72842999
  0
SEQEND
  0
POLYLINE
  8
Default Layer
 66
   1
 39
0.000000
 70
    0
  0
VERTEX
  8
0
 10
609.22149929
 20
4544.32842999
  0
VERTEX
  8
0
 10
723.52149929
 20
4315.72842999
  0
VERTEX
  8
0
 10
837.82149929
 20
4544.32842999
  0
SEQEND
  0
POLYLINE
  8
Default Layer
 66
   1
 39
0.000000
 70
    0
  0
VERTEX
  8
0
 10
914.02149929
 20
4315.72842999
  0
VERTEX
  8
0
 10
914.02149929
 20
4391.92842999
  0
VERTEX
  8
0
 10
990.22149929
 20
4544.32842999
  0
VERTEX
  8
0
 10
1066.42149929
 20
4391.92842999
  0
VERTEX
  8
0
 10
1066.42149929
 20
4315.72842999
  0
SEQEND
  0
POLYLINE
  8
Default Layer
 66
   1
 39
0.000000
 70
    0
  0
VERTEX
  8
0
 10
914.02149929
 20
4391.92842999
  0
VERTEX
  8
0
 10
1066.42149929
 20
4391.92842999
  0
SEQEND
  0
POLYLINE
  8
Default Layer
 66
   1
 39
0.000000
 70
    0
  0
VERTEX
  8
0
 10
1142.62149929
 20
4315.72842999
  0
VERTEX
  8
0
 10
1142.62149929
 20
4544.32842999
  0
VERTEX
  8
0
 10
1256.92149929
 20
4544.32842999
  0
VERTEX
  8
0
 10
1295.02149929
 20
4506.22842999
  0
VERTEX
  8
0
 10
1295.02149929
 20
4468.12842999
  0
VERTEX
  8
0
 10
1256.92149929
 20
4430.02842999
  0
VERTEX
  8
0
 10
1142.62149929
 20
4430.02842999
  0
SEQEND
  0
POLYLINE
  8
Default Layer
 66
   1
 39
0.000000
 70
    0
  0
VERTEX
  8
0
 10
1180.72149929
 20
4430.02842999
  0
VERTEX
  8
0
 10
1295.02149929
 20
4315.72842999
  0
SEQEND
  0
POLYLINE
  8
Default Layer
 66
   1
 39
0.000000
 70
    1
  0
VERTEX
  8
0
 10
1371.22149929
 20
4315.72842999
  0
VERTEX
  8
0
 10
1371.22149929
 20
4544.32842999
  0
VERTEX
  8
0
 10
1523.62149929
 20
4544.32842999
  0
VERTEX
  8
0
 10
1523.62149929
 20
4315.72842999
  0
VERTEX
  8
0
 10
1371.22149929
 20
4315.72842999
  0
SEQEND
  0
POLYLINE
  8
Default Layer
 66
   1
 39
0.000000
 70
    0
  0
VERTEX
  8
0
 10
1828.42149929
 20
4544.32842999
  0
VERTEX
  8
0
 10
1828.42149929
 20
4315.72842999
  0
VERTEX
  8
0
 10
1980.82149929
 20
4315.72842999
  0
SEQEND
  0
POLYLINE
  8
Default Layer
 66
   1
 39
0.000000
 70
    0
  0
VERTEX
  8
0
 10
2057.02149929
 20
4544.32842999
  0
VERTEX
  8
0
 10
2133.22149929
 20
4315.72842999
  0
VERTEX
  8
0
 10
2171.32149929
 20
4430.02842999
  0
VERTEX
  8
0
 10
2209.42149929
 20
4315.72842999
  0
VERTEX
  8
0
 10
2285.62149929
 20
4544.32842999
  0
SEQEND
  0
POLYLINE
  8
Default Layer
 66
   1
 39
0.000000
 70
    0
  0
VERTEX
  8
0
 10
2361.82149929
 20
4315.72842999
  0
VERTEX
  8
0
 10
2476.12149929
 20
4315.72842999
  0
VERTEX
  8
0
 10
2514.22149929
 20
4353.82842999
  0
VERTEX
  8
0
 10
2514.22149929
 20
4391.92842999
  0
VERTEX
  8
0
 10
2476.12149929
 20
4430.02842999
  0
VERTEX
  8
0
 10
2399.92149929
 20
4430.02842999
  0
SEQEND
  0
POLYLINE
  8
Default Layer
 66
   1
 39
0.000000
 70
    0
  0
VERTEX
  8
0
 10
2476.12149929
 20
4430.02842999
  0
VERTEX
  8
0
 10
2514.22149929
 20
4468.12842999
  0
VERTEX
  8
0
 10
2514.22149929
 20
4506.22842999
  0
VERTEX
  8
0
 10
2476.12149929
 20
4544.32842999
  0
VERTEX
  8
0
 10
2361.82149929
 20
4544.32842999
  0
SEQEND
  0
POLYLINE
  8
Default Layer
 66
   1
 39
0.000000
 70
    0
  0
VERTEX
  8
0
 10
2399.92149929
 20
4544.32842999
  0
VERTEX
  8
0
 10
2399.92149929
 20
4315.72842999
  0
SEQEND
  0
POLYLINE
  8
Default Layer
 66
   1
 39
0.000000
 70
    0
  0
VERTEX
  8
0
 10
2819.02149929
 20
4506.22842999
  0
VERTEX
  8
0
 10
2857.12149929
 20
4544.32842999
  0
VERTEX
  8
0
 10
2933.32149929
 20
4544.32842999
  0
VERTEX
  8
0
 10
2971.42149929
 20
4506.22842999
  0
VERTEX
  8
0
 10
2971.42149929
 20
4468.12842999
  0
VERTEX
  8
0
 10
2933.32149929
 20
4430.02842999
  0
VERTEX
  8
0
 10
2895.22149929
 20
4430.02842999
  0
SEQEND
  0
POLYLINE
  8
Default Layer
 66
   1
 39
0.000000
 70
    0
  0
VERTEX
  8
0
 10
2933.32149929
 20
4430.02842999
  0
VERTEX
  8
0
 10
2971.42149929
 20
4391.92842999
  0
VERTEX
  8
0
 10
2971.42149929
 20
4353.82842999
  0
VERTEX
  8
0
 10
2933.32149929
 20
4315.72842999
  0
VERTEX
  8
0
 10
2857.12149929
 20
4315.72842999
  0
VERTEX
  8
0
 10
2819.02149929
 20
4353.82842999
  0
SEQEND
  0
POLYLINE
  8
Default Layer
 66
   1
 39
0.000000
 70
    0
  0
VERTEX
  8
0
 10
3276.22149929
 20
4353.82842999
  0
VERTEX
  8
0
 10
3314.32149929
 20
4315.72842999
  0
VERTEX
  8
0
 10
3390.52149929
 20
4315.72842999
  0
VERTEX
  8
0
 10
3428.62149929
 20
4353.82842999
  0
VERTEX
  8
0
 10
3276.22149929
 20
4506.22842999
  0
VERTEX
  8
0
 10
3314.32149929
 20
4544.32842999
  0
VERTEX
  8
0
 10
3390.52149929
 20
4544.32842999
  0
VERTEX
  8
0
 10
3428.62149929
 20
4506.22842999
  0
SEQEND
  0
POLYLINE
  8
Default Layer
 66
   1
 39
0.000000
 70
    0
  0
VERTEX
  8
0
 10
3504.82149929
 20
4315.72842999
  0
VERTEX
  8
0
 10
3504.82149929
 20
4544.32842999
  0
SEQEND
  0
POLYLINE
  8
Default Layer
 66
   1
 39
0.000000
 70
    0
  0
VERTEX
  8
0
 10
3504.82149929
 20
4430.02842999
  0
VERTEX
  8
0
 10
3657.22149929
 20
4430.02842999
  0
SEQEND
  0
POLYLINE
  8
Default Layer
 66
   1
 39
0.000000
 70
    0
  0
VERTEX
  8
0
 10
3657.22149929
 20
4544.32842999
  0
VERTEX
  8
0
 10
3657.22149929
 20
4315.72842999
  0
SEQEND
  0
POLYLINE
  8
Default Layer
 66
   1
 39
0.000000
 70
    0
  0
VERTEX
  8
0
 10
3733.42149929
 20
4315.72842999
  0
VERTEX
  8
0
 10
3733.42149929
 20
4544.32842999
  0
VERTEX
  8
0
 10
3885.82149929
 20
4544.32842999
  0
SEQEND
  0
POLYLINE
  8
Default Layer
 66
   1
 39
0.000000
 70
    0
  0
VERTEX
  8
0
 10
3733.42149929
 20
4430.02842999
  0
VERTEX
  8
0
 10
3809.62149929
 20
4430.02842999
  0
SEQEND
  0
POLYLINE
  8
Default Layer
 66
   1
 39
0.000000
 70
    0
  0
VERTEX
  8
0
 10
3733.42149929
 20
4315.72842999
  0
VERTEX
  8
0
 10
3885.82149929
 20
4315.72842999
  0
SEQEND
  0
POLYLINE
  8
Default Layer
 66
   1
 39
0.000000
 70
    0
  0
VERTEX
  8
0
 10
3962.02149929
 20
4544.32842999
  0
VERTEX
  8
0
 10
3962.02149929
 20
4315.72842999
  0
VERTEX
  8
0
 10
4114.42149929
 20
4315.72842999
  0
SEQEND
  0
POLYLINE
  8
Default Layer
 66
   1
 39
0.000000
 70
    0
  0
VERTEX
  8
0
 10
4190.62149929
 20
4544.32842999
  0
VERTEX
  8
0
 10
4304.92149929
 20
4315.72842999
  0
VERTEX
  8
0
 10
4419.22149929
 20
4544.32842999
  0
SEQEND
  0
POLYLINE
  8
Default Layer
 66
   1
 39
0.000000
 70
    0
  0
VERTEX
  8
0
 10
4495.42149929
 20
4315.72842999
  0
VERTEX
  8
0
 10
4495.42149929
 20
4544.32842999
  0
VERTEX
  8
0
 10
4647.82149929
 20
4544.32842999
  0
SEQEND
  0
POLYLINE
  8
Default Layer
 66
   1
 39
0.000000
 70
    0
  0
VERTEX
  8
0
 10
4495.42149929
 20
4430.02842999
  0
VERTEX
  8
0
 10
4571.62149929
 20
4430.02842999
  0
SEQEND
  0
POLYLINE
  8
Default Layer
 66
   1
 39
0.000000
 70
    0
  0
VERTEX
  8
0
 10
4495.42149929
 20
4315.72842999
  0
VERTEX
  8
0
 10
4647.82149929
 20
4315.72842999
  0
SEQEND
  0
POLYLINE
  8
Default Layer
 66
   1
 39
0.000000
 70
    0
  0
VERTEX
  8
0
 10
4724.02149929
 20
4353.82842999
  0
VERTEX
  8
0
 10
4762.12149929
 20
4315.72842999
  0
VERTEX
  8
0
 10
4838.32149929
 20
4315.72842999
  0
VERTEX
  8
0
 10
4876.42149929
 20
4353.82842999
  0
VERTEX
  8
0
 10
4724.02149929
 20
4506.22842999
  0
VERTEX
  8
0
 10
4762.12149929
 20
4544.32842999
  0
VERTEX
  8
0
 10
4838.32149929
 20
4544.32842999
  0
VERTEX
  8
0
 10
4876.42149929
 20
4506.22842999
  0
SEQEND
  0
POLYLINE
  8
Default Layer
 66
   1
 39
0.000000
 70
    0
  0
VERTEX
  8
0
 10
5181.22149929
 20
4544.32842999
  0
VERTEX
  8
0
 10
5257.42149929
 20
4544.32842999
  0
SEQEND
  0
POLYLINE
  8
Default Layer
 66
   1
 39
0.000000
 70
    0
  0
VERTEX
  8
0
 10
5219.32149929
 20
4544.32842999
  0
VERTEX
  8
0
 10
5219.32149929
 20
4315.72842999
  0
SEQEND
  0
POLYLINE
  8
Default Layer
 66
   1
 39
0.000000
 70
    0
  0
VERTEX
  8
0
 10
5181.22149929
 20
4315.72842999
  0
VERTEX
  8
0
 10
5257.42149929
 20
4315.72842999
  0
SEQEND
  0
POLYLINE
  8
Default Layer
 66
   1
 39
0.000000
 70
    0
  0
VERTEX
  8
0
 10
5333.62149929
 20
4315.72842999
  0
VERTEX
  8
0
 10
5333.62149929
 20
4544.32842999
  0
VERTEX
  8
0
 10
5486.02149929
 20
4315.72842999
  0
VERTEX
  8
0
 10
5486.02149929
 20
4544.32842999
  0
SEQEND
  0
POLYLINE
  8
Default Layer
 66
   1
 39
0.000000
 70
    0
  0
VERTEX
  8
0
 10
5790.82149929
 20
4506.22842999
  0
VERTEX
  8
0
 10
5828.92149929
 20
4544.32842999
  0
VERTEX
  8
0
 10
5828.92149929
 20
4315.72842999
  0
SEQEND
  0
POLYLINE
  8
Default Layer
 66
   1
 39
0.000000
 70
    0
  0
VERTEX
  8
0
 10
5790.82149929
 20
4315.72842999
  0
VERTEX
  8
0
 10
5867.02149929
 20
4315.72842999
  0
SEQEND
  0
POLYLINE
  8
Default Layer
 66
   1
 39
0.000000
 70
    0
  0
VERTEX
  8
0
 10
5943.22149929
 20
4506.22842999
  0
VERTEX
  8
0
 10
5981.32149929
 20
4544.32842999
  0
VERTEX
  8
0
 10
6057.52149929
 20
4544.32842999
  0
VERTEX
  8
0
 10
6095.62149929
 20
4506.22842999
  0
VERTEX
  8
0
 10
6095.62149929
 20
4468.12842999
  0
VERTEX
  8
0
 10
6057.52149929
 20
4430.02842999
  0
VERTEX
  8
0
 10
5981.32149929
 20
4430.02842999
  0
VERTEX
  8
0
 10
5943.22149929
 20
4391.92842999
  0
VERTEX
  8
0
 10
5943.22149929
 20
4315.72842999
  0
VERTEX
  8
0
 10
6095.62149929
 20
4315.72842999
  0
SEQEND
  0
POLYLINE
  8
Default Layer
 66
   1
 39
0.000000
 70
    0
  0
VERTEX
  8
0
 10
6171.82149929
 20
4315.72842999
  0
VERTEX
  8
0
 10
6171.82149929
 20
4544.32842999
  0
VERTEX
  8
0
 10
6248.02149929
 20
4391.92842999
  0
VERTEX
  8
0
 10
6324.22149929
 20
4544.32842999
  0
VERTEX
  8
0
 10
6324.22149929
 20
4315.72842999
  0
SEQEND
  0
POLYLINE
  8
Default Layer
 66
   1
 39
0.000000
 70
    0
  0
VERTEX
  8
0
 10
6400.42149929
 20
4315.72842999
  0
VERTEX
  8
0
 10
6400.42149929
 20
4544.32842999
  0
VERTEX
  8
0
 10
6476.62149929
 20
4391.92842999
  0
VERTEX
  8
0
 10
6552.82149929
 20
4544.32842999
  0
VERTEX
  8
0
 10
6552.82149929
 20
4315.72842999
  0
SEQEND
  0
POLYLINE
  8
Default Layer
 66
   1
 39
0.000000
 70
    0
  0
VERTEX
  8
0
 10
-907.66619519
 20
3312.24922207
  0
VERTEX
  8
0
 10
-831.46619519
 20
3083.64922207
  0
VERTEX
  8
0
 10
-793.36619519
 20
3197.94922207
  0
VERTEX
  8
0
 10
-755.26619519
 20
3083.64922207
  0
VERTEX
  8
0
 10
-679.06619519
 20
3312.24922207
  0
SEQEND
  0
POLYLINE
  8
Default Layer
 66
   1
 39
0.000000
 70
    0
  0
VERTEX
  8
0
 10
-602.86619519
 20
3312.24922207
  0
VERTEX
  8
0
 10
-526.66619519
 20
3312.24922207
  0
SEQEND
  0
POLYLINE
  8
Default Layer
 66
   1
 39
0.000000
 70
    0
  0
VERTEX
  8
0
 10
-564.76619519
 20
3312.24922207
  0
VERTEX
  8
0
 10
-564.76619519
 20
3083.64922207
  0
SEQEND
  0
POLYLINE
  8
Default Layer
 66
   1
 39
0.000000
 70
    0
  0
VERTEX
  8
0
 10
-602.86619519
 20
3083.64922207
  0
VERTEX
  8
0
 10
-526.66619519
 20
3083.64922207
  0
SEQEND
  0
POLYLINE
  8
Default Layer
 66
   1
 39
0.000000
 70
    0
  0
VERTEX
  8
0
 10
-450.46619519
 20
3312.24922207
  0
VERTEX
  8
0
 10
-298.06619519
 20
3312.24922207
  0
SEQEND
  0
POLYLINE
  8
Default Layer
 66
   1
 39
0.000000
 70
    0
  0
VERTEX
  8
0
 10
-374.26619519
 20
3312.24922207
  0
VERTEX
  8
0
 10
-374.26619519
 20
3083.64922207
  0
SEQEND
  0
POLYLINE
  8
Default Layer
 66
   1
 39
0.000000
 70
    0
  0
VERTEX
  8
0
 10
-221.86619519
 20
3083.64922207
  0
VERTEX
  8
0
 10
-221.86619519
 20
3312.24922207
  0
SEQEND
  0
POLYLINE
  8
Default Layer
 66
   1
 39
0.000000
 70
    0
  0
VERTEX
  8
0
 10
-221.86619519
 20
3197.94922207
  0
VERTEX
  8
0
 10
-69.46619519
 20
3197.94922207
  0
SEQEND
  0
POLYLINE
  8
Default Layer
 66
   1
 39
0.000000
 70
    0
  0
VERTEX
  8
0
 10
-69.46619519
 20
3312.24922207
  0
VERTEX
  8
0
 10
-69.46619519
 20
3083.64922207
  0
SEQEND
  0
POLYLINE
  8
Default Layer
 66
   1
 39
0.000000
 70
    0
  0
VERTEX
  8
0
 10
235.33380481
 20
3083.64922207
  0
VERTEX
  8
0
 10
349.63380481
 20
3083.64922207
  0
VERTEX
  8
0
 10
387.73380481
 20
3121.74922207
  0
VERTEX
  8
0
 10
387.73380481
 20
3274.14922207
  0
VERTEX
  8
0
 10
349.63380481
 20
3312.24922207
  0
VERTEX
  8
0
 10
235.33380481
 20
3312.24922207
  0
SEQEND
  0
POLYLINE
  8
Default Layer
 66
   1
 39
0.000000
 70
    0
  0
VERTEX
  8
0
 10
273.43380481
 20
3312.24922207
  0
VERTEX
  8
0
 10
273.43380481
 20
3083.64922207
  0
SEQEND
  0
POLYLINE
  8
Default Layer
 66
   1
 39
0.000000
 70
    0
  0
VERTEX
  8
0
 10
463.93380481
 20
3312.24922207
  0
VERTEX
  8
0
 10
540.13380481
 20
3312.24922207
  0
SEQEND
  0
POLYLINE
  8
Default Layer
 66
   1
 39
0.000000
 70
    0
  0
VERTEX
  8
0
 10
502.03380481
 20
3312.24922207
  0
VERTEX
  8
0
 10
502.03380481
 20
3083.64922207
  0
SEQEND
  0
POLYLINE
  8
Default Layer
 66
   1
 39
0.000000
 70
    0
  0
VERTEX
  8
0
 10
463.93380481
 20
3083.64922207
  0
VERTEX
  8
0
 10
540.13380481
 20
3083.64922207
  0
SEQEND
  0
POLYLINE
  8
Default Layer
 66
   1
 39
0.000000
 70
    0
  0
VERTEX
  8
0
 10
616.33380481
 20
3312.24922207
  0
VERTEX
  8
0
 10
730.63380481
 20
3083.64922207
  0
VERTEX
  8
0
 10
844.93380481
 20
3312.24922207
  0
SEQEND
  0
POLYLINE
  8
Default Layer
 66
   1
 39
0.000000
 70
    0
  0
VERTEX
  8
0
 10
921.13380481
 20
3312.24922207
  0
VERTEX
  8
0
 10
997.33380481
 20
3312.24922207
  0
SEQEND
  0
POLYLINE
  8
Default Layer
 66
   1
 39
0.000000
 70
    0
  0
VERTEX
  8
0
 10
959.23380481
 20
3312.24922207
  0
VERTEX
  8
0
 10
959.23380481
 20
3083.64922207
  0
SEQEND
  0
POLYLINE
  8
Default Layer
 66
   1
 39
0.000000
 70
    0
  0
VERTEX
  8
0
 10
921.13380481
 20
3083.64922207
  0
VERTEX
  8
0
 10
997.33380481
 20
3083.64922207
  0
SEQEND
  0
POLYLINE
  8
Default Layer
 66
   1
 39
0.000000
 70
    0
  0
VERTEX
  8
0
 10
1073.53380481
 20
3083.64922207
  0
VERTEX
  8
0
 10
1187.83380481
 20
3083.64922207
  0
VERTEX
  8
0
 10
1225.93380481
 20
3121.74922207
  0
VERTEX
  8
0
 10
1225.93380481
 20
3274.14922207
  0
VERTEX
  8
0
 10
1187.83380481
 20
3312.24922207
  0
VERTEX
  8
0
 10
1073.53380481
 20
3312.24922207
  0
SEQEND
  0
POLYLINE
  8
Default Layer
 66
   1
 39
0.000000
 70
    0
  0
VERTEX
  8
0
 10
1111.63380481
 20
3312.24922207
  0
VERTEX
  8
0
 10
1111.63380481
 20
3083.64922207
  0
SEQEND
  0
POLYLINE
  8
Default Layer
 66
   1
 39
0.000000
 70
    0
  0
VERTEX
  8
0
 10
1302.13380481
 20
3083.64922207
  0
VERTEX
  8
0
 10
1302.13380481
 20
3312.24922207
  0
VERTEX
  8
0
 10
1454.53380481
 20
3312.24922207
  0
SEQEND
  0
POLYLINE
  8
Default Layer
 66
   1
 39
0.000000
 70
    0
  0
VERTEX
  8
0
 10
1302.13380481
 20
3197.94922207
  0
VERTEX
  8
0
 10
1378.33380481
 20
3197.94922207
  0
SEQEND
  0
POLYLINE
  8
Default Layer
 66
   1
 39
0.000000
 70
    0
  0
VERTEX
  8
0
 10
1302.13380481
 20
3083.64922207
  0
VERTEX
  8
0
 10
1454.53380481
 20
3083.64922207
  0
SEQEND
  0
POLYLINE
  8
Default Layer
 66
   1
 39
0.000000
 70
    0
  0
VERTEX
  8
0
 10
1530.73380481
 20
3083.64922207
  0
VERTEX
  8
0
 10
1530.73380481
 20
3312.24922207
  0
VERTEX
  8
0
 10
1645.03380481
 20
3312.24922207
  0
VERTEX
  8
0
 10
1683.13380481
 20
3274.14922207
  0
VERTEX
  8
0
 10
1683.13380481
 20
3236.04922207
  0
VERTEX
  8
0
 10
1645.03380481
 20
3197.94922207
  0
VERTEX
  8
0
 10
1530.73380481
 20
3197.94922207
  0
SEQEND
  0
POLYLINE
  8
Default Layer
 66
   1
 39
0.000000
 70
    0
  0
VERTEX
  8
0
 10
1568.83380481
 20
3197.94922207
  0
VERTEX
  8
0
 10
1683.13380481
 20
3083.64922207
  0
SEQEND
  0
POLYLINE
  8
Default Layer
 66
   1
 39
0.000000
 70
    1
  0
VERTEX
  8
0
 10
5304.50167019
 20
590.66564842
  0
VERTEX
  8
0
 10
3000.60818667
 20
590.67439921
  0
VERTEX
  8
0
 10
3000.60823104
 20
691.67598526
  0
VERTEX
  8
0
 10
2988.61501045
 20
691.67598526
  0
VERTEX
  8
0
 10
2988.61501045
 20
789.67598526
  0
VERTEX
  8
0
 10
3000.60827408
 20
789.67598526
  0
VERTEX
  8
0
 10
3000.60834337
 20
942.56564696
  0
VERTEX
  8
0
 10
5304.43720768
 20
952.56649783
  0
VERTEX
  8
0
 10
5304.45820957
 20
839.67664390
  0
VERTEX
  8
0
 10
5316.50575655
 20
839.67664390
  0
VERTEX
  8
0
 10
5316.50575655
 20
691.67664390
  0
VERTEX
  8
0
 10
5304.48404045
 20
691.67664390
  0
VERTEX
  8
0
 10
5304.50167019
 20
590.66564842
  0
SEQEND
  0
POLYLINE
  8
Default Layer
 66
   1
 39
0.000000
 70
    1
  0
VERTEX
  8
0
 10
5304.43556179
 20
998.83829550
  0
VERTEX
  8
0
 10
3000.30676902
 20
998.84704628
  0
VERTEX
  8
0
 10
3000.30681339
 20
1099.84863234
  0
VERTEX
  8
0
 10
2988.31359280
 20
1099.84863234
  0
VERTEX
  8
0
 10
2988.31359280
 20
1197.84863234
  0
VERTEX
  8
0
 10
3000.30685643
 20
1197.84863234
  0
VERTEX
  8
0
 10
3000.30692572
 20
1350.91160426
  0
VERTEX
  8
0
 10
5304.37109927
 20
1369.72702972
  0
VERTEX
  8
0
 10
5304.39210117
 20
1247.84929097
  0
VERTEX
  8
0
 10
5316.43964815
 20
1247.84929097
  0
VERTEX
  8
0
 10
5316.43964815
 20
1099.84929097
  0
VERTEX
  8
0
 10
5304.41793204
 20
1099.84929097
  0
VERTEX
  8
0
 10
5304.43556179
 20
998.83829550
  0
SEQEND
  0
POLYLINE
  8
Default Layer
 66
   1
 39
0.000000
 70
    1
  0
VERTEX
  8
0
 10
5304.48024861
 20
206.27266450
  0
VERTEX
  8
0
 10
5304.49787836
 20
105.26166902
  0
VERTEX
  8
0
 10
3001.66328644
 20
105.27041981
  0
VERTEX
  8
0
 10
3001.66333081
 20
206.27200587
  0
VERTEX
  8
0
 10
2989.67011022
 20
206.27200587
  0
VERTEX
  8
0
 10
2989.67011022
 20
304.27200587
  0
VERTEX
  8
0
 10
3001.66337385
 20
304.27200587
  0
VERTEX
  8
0
 10
3001.66344314
 20
462.01435387
  0
VERTEX
  8
0
 10
3291.80421609
 20
462.07856439
  0
VERTEX
  8
0
 10
3311.59714974
 20
462.36148220
  0
VERTEX
  8
0
 10
3331.98505056
 20
462.69107642
  0
VERTEX
  8
0
 10
3373.11783252
 20
463.37827068
  0
VERTEX
  8
0
 10
3393.14875304
 20
463.67985906
  0
VERTEX
  8
0
 10
3402.87416680
 20
463.80789850
  0
VERTEX
  8
0
 10
3412.34671950
 20
463.91610047
  0
VERTEX
  8
0
 10
3421.52178862
 20
464.00096424
  0
VERTEX
  8
0
 10
3430.35475161
 20
464.05898909
  0
VERTEX
  8
0
 10
3438.80098593
 20
464.08667427
  0
VERTEX
  8
0
 10
3446.81586905
 20
464.08051906
  0
VERTEX
  8
0
 10
3454.60003425
 20
464.04116887
  0
VERTEX
  8
0
 10
3462.38388488
 20
463.97355233
  0
VERTEX
  8
0
 10
3470.16745347
 20
463.88059356
  0
VERTEX
  8
0
 10
3477.95077258
 20
463.76521664
  0
VERTEX
  8
0
 10
3485.73387474
 20
463.63034569
  0
VERTEX
  8
0
 10
3493.51679250
 20
463.47890481
  0
VERTEX
  8
0
 10
3509.08220496
 20
463.13800970
  0
VERTEX
  8
0
 10
3524.64727032
 20
462.76592413
  0
VERTEX
  8
0
 10
3540.21224889
 20
462.38604095
  0
VERTEX
  8
0
 10
3555.77740102
 20
462.02175299
  0
VERTEX
  8
0
 10
3571.34298704
 20
461.69645310
  0
VERTEX
  8
0
 10
3594.27875774
 20
460.97707534
  0
VERTEX
  8
0
 10
3617.60860710
 20
460.27593663
  0
VERTEX
  8
0
 10
3664.50475301
 20
458.88460265
  0
VERTEX
  8
0
 10
3687.59815517
 20
458.17252051
  0
VERTEX
  8
0
 10
3710.13984720
 20
457.43490368
  0
VERTEX
  8
0
 10
3721.12991217
 20
457.05309994
  0
VERTEX
  8
0
 10
3731.89338190
 20
456.66080873
  0
VERTEX
  8
0
 10
3742.40070050
 20
456.25666214
  0
VERTEX
  8
0
 10
3752.62231207
 20
455.83929223
  0
VERTEX
  8
0
 10
3762.69065406
 20
455.40287249
  0
VERTEX
  8
0
 10
3772.75794065
 20
454.94403447
  0
VERTEX
  8
0
 10
3782.82428101
 20
454.46509730
  0
VERTEX
  8
0
 10
3792.88978433
 20
453.96838012
  0
VERTEX
  8
0
 10
3813.01871655
 20
452.93088222
  0
VERTEX
  8
0
 10
3833.14561075
 20
451.85009384
  0
VERTEX
  8
0
 10
3873.39677884
 20
449.63285789
  0
VERTEX
  8
0
 10
3893.52279960
 20
448.53351645
  0
VERTEX
  8
0
 10
3913.65027610
 20
447.46509678
  0
VERTEX
  8
0
 10
3920.91329085
 20
447.09359050
  0
VERTEX
  8
0
 10
3928.17555073
 20
446.70027847
  0
VERTEX
  8
0
 10
3942.69850268
 20
445.86836557
  0
VERTEX
  8
0
 10
3957.22052557
 20
445.00961483
  0
VERTEX
  8
0
 10
3971.74301298
 20
444.16428301
  0
VERTEX
  8
0
 10
3979.00486640
 20
443.75922944
  0
VERTEX
  8
0
 10
3986.26735855
 20
443.37262687
  0
VERTEX
  8
0
 10
3993.53066363
 20
443.00950741
  0
VERTEX
  8
0
 10
4000.79495586
 20
442.67490316
  0
VERTEX
  8
0
 10
4008.06040943
 20
442.37384621
  0
VERTEX
  8
0
 10
4015.32719853
 20
442.11136864
  0
VERTEX
  8
0
 10
4022.59549738
 20
441.89250257
  0
VERTEX
  8
0
 10
4029.86548018
 20
441.72228007
  0
VERTEX
  8
0
 10
4037.21711295
 20
441.59729296
  0
VERTEX
  8
0
 10
4044.71894786
 20
441.50932832
  0
VERTEX
  8
0
 10
4052.35403832
 20
441.45621119
  0
VERTEX
  8
0
 10
4060.10543774
 20
441.43576658
  0
VERTEX
  8
0
 10
4067.95619952
 20
441.44581953
  0
VERTEX
  8
0
 10
4075.88937706
 20
441.48419508
  0
VERTEX
  8
0
 10
4083.88802376
 20
441.54871824
  0
VERTEX
  8
0
 10
4091.93519304
 20
441.63721404
  0
VERTEX
  8
0
 10
4100.01393829
 20
441.74750753
  0
VERTEX
  8
0
 10
4108.10731292
 20
441.87742371
  0
VERTEX
  8
0
 10
4116.19837034
 20
442.02478763
  0
VERTEX
  8
0
 10
4124.27016394
 20
442.18742431
  0
VERTEX
  8
0
 10
4140.28817332
 20
442.54981607
  0
VERTEX
  8
0
 10
4156.02576831
 20
442.94719921
  0
VERTEX
  8
0
 10
4163.80132633
 20
443.16735501
  0
VERTEX
  8
0
 10
4171.57587325
 20
443.41672846
  0
VERTEX
  8
0
 10
4179.34951367
 20
443.69229706
  0
VERTEX
  8
0
 10
4187.12235219
 20
443.99103828
  0
VERTEX
  8
0
 10
4194.89449340
 20
444.30992962
  0
VERTEX
  8
0
 10
4202.66604190
 20
444.64594854
  0
VERTEX
  8
0
 10
4218.20777914
 20
445.35727910
  0
VERTEX
  8
0
 10
4233.74840070
 20
446.10084984
  0
VERTEX
  8
0
 10
4249.28874333
 20
446.85248063
  0
VERTEX
  8
0
 10
4264.82964380
 20
447.58799132
  0
VERTEX
  8
0
 10
4280.37193889
 20
448.28320180
  0
VERTEX
  8
0
 10
4411.88156837
 20
454.42835465
  0
VERTEX
  8
0
 10
4535.77873530
 20
460.93117888
  0
VERTEX
  8
0
 10
4556.31665805
 20
461.93023002
  0
VERTEX
  8
0
 10
4576.85326730
 20
462.95996531
  0
VERTEX
  8
0
 10
4617.92569772
 20
465.03784639
  0
VERTEX
  8
0
 10
4638.46309508
 20
466.04917119
  0
VERTEX
  8
0
 10
4659.00233132
 20
467.01753816
  0
VERTEX
  8
0
 10
4669.27288530
 20
467.47985918
  0
VERTEX
  8
0
 10
4679.54419455
 20
467.92453681
  0
VERTEX
  8
0
 10
4689.81635756
 20
468.34926973
  0
VERTEX
  8
0
 10
4700.08947285
 20
468.75175664
  0
VERTEX
  8
0
 10
4710.77338246
 20
469.13935150
  0
VERTEX
  8
0
 10
4722.62675120
 20
469.52132985
  0
VERTEX
  8
0
 10
4729.15552420
 20
469.71039441
  0
VERTEX
  8
0
 10
4736.17291173
 20
469.89827271
  0
VERTEX
  8
0
 10
4743.74433038
 20
470.08503740
  0
VERTEX
  8
0
 10
4751.93519672
 20
470.27076110
  0
VERTEX
  8
0
 10
4760.81092735
 20
470.45551643
  0
VERTEX
  8
0
 10
4770.43693884
 20
470.63937603
  0
VERTEX
  8
0
 10
4780.87864779
 20
470.82241251
  0
VERTEX
  8
0
 10
4792.20147076
 20
471.00469852
  0
VERTEX
  8
0
 10
4804.47082436
 20
471.18630667
  0
VERTEX
  8
0
 10
4817.75212515
 20
471.36730959
  0
VERTEX
  8
0
 10
4847.61223467
 20
471.72779026
  0
VERTEX
  8
0
 10
4882.30513199
 20
472.08672155
  0
VERTEX
  8
0
 10
4922.35414979
 20
472.44468447
  0
VERTEX
  8
0
 10
4968.28262072
 20
472.80226005
  0
VERTEX
  8
0
 10
5020.61387746
 20
473.16002930
  0
VERTEX
  8
0
 10
5079.87125267
 20
473.51857324
  0
VERTEX
  8
0
 10
5146.57807903
 20
473.87847289
  0
VERTEX
  8
0
 10
5221.25768920
 20
474.24030927
  0
VERTEX
  8
0
 10
5304.43341585
 20
474.60466340
  0
VERTEX
  8
0
 10
5304.45441774
 20
354.27266450
  0
VERTEX
  8
0
 10
5316.50196472
 20
354.27266450
  0
VERTEX
  8
0
 10
5316.50196472
 20
206.27266450
  0
VERTEX
  8
0
 10
5304.48024861
 20
206.27266450
  0
SEQEND
  0
POLYLINE
  8
Default Layer
 66
   1
 39
0.000000
 70
    1
  0
VERTEX
  8
0
 10
5827.05020082
 20
135.64413539
  0
VERTEX
  8
0
 10
5827.03739653
 20
1268.89372660
  0
VERTEX
  8
0
 10
5627.09032017
 20
1357.77925606
  0
VERTEX
  8
0
 10
5479.48490082
 20
1357.10453539
  0
VERTEX
  8
0
 10
5478.46611521
 20
1348.02563303
  0
VERTEX
  8
0
 10
5477.43142159
 20
1338.94840587
  0
VERTEX
  8
0
 10
5475.35248952
 20
1320.79495666
  0
VERTEX
  8
0
 10
5474.32734071
 20
1311.71672438
  0
VERTEX
  8
0
 10
5473.32446311
 20
1302.63614682
  0
VERTEX
  8
0
 10
5472.35340155
 20
1293.55221886
  0
VERTEX
  8
0
 10
5471.42370082
 20
1284.46393539
  0
VERTEX
  8
0
 10
5470.50451013
 20
1275.14405113
  0
VERTEX
  8
0
 10
5469.57035417
 20
1265.46031411
  0
VERTEX
  8
0
 10
5468.63884103
 20
1255.55420918
  0
VERTEX
  8
0
 10
5467.72757880
 20
1245.56722118
  0
VERTEX
  8
0
 10
5466.85417558
 20
1235.64083496
  0
VERTEX
  8
0
 10
5466.03623945
 20
1225.91653536
  0
VERTEX
  8
0
 10
5465.29137850
 20
1216.53580722
  0
VERTEX
  8
0
 10
5464.63720082
 20
1207.64013539
  0
VERTEX
  8
0
 10
5464.05905089
 20
1199.03245861
  0
VERTEX
  8
0
 10
5463.52752338
 20
1190.42168007
  0
VERTEX
  8
0
 10
5463.03810173
 20
1181.80823125
  0
VERTEX
  8
0
 10
5462.58626934
 20
1173.19254366
  0
VERTEX
  8
0
 10
5462.16750964
 20
1164.57504878
  0
VERTEX
  8
0
 10
5461.77730604
 20
1155.95617811
  0
VERTEX
  8
0
 10
5461.41114196
 20
1147.33636315
  0
VERTEX
  8
0
 10
5461.06450082
 20
1138.71603539
  0
VERTEX
  8
0
 10
5460.88345679
 20
1133.71584289
  0
VERTEX
  8
0
 10
5460.68023911
 20
1127.42473439
  0
VERTEX
  8
0
 10
5460.21645810
 20
1111.50394158
  0
VERTEX
  8
0
 10
5459.69150841
 20
1092.02200121
  0
VERTEX
  8
0
 10
5459.12374063
 20
1070.04725756
  0
VERTEX
  8
0
 10
5457.93315325
 20
1022.89273745
  0
VERTEX
  8
0
 10
5457.34703487
 20
999.84964953
  0
VERTEX
  8
0
 10
5456.79150082
 20
978.58713539
  0
VERTEX
  8
0
 10
5456.60007826
 20
960.69455115
  0
VERTEX
  8
0
 10
5456.38805490
 20
942.47023423
  0
VERTEX
  8
0
 10
5455.92122196
 20
905.33261713
  0
VERTEX
  8
0
 10
5455.42903419
 20
867.78671366
  0
VERTEX
  8
0
 10
5454.94952384
 20
830.44495337
  0
VERTEX
  8
0
 10
5454.72640776
 20
812.04201116
  0
VERTEX
  8
0
 10
5454.52072311
 20
793.91976583
  0
VERTEX
  8
0
 10
5454.33722392
 20
776.15477109
  0
VERTEX
  8
0
 10
5454.18066422
 20
758.82358062
  0
VERTEX
  8
0
 10
5454.05579803
 20
742.00274812
  0
VERTEX
  8
0
 10
5453.96737938
 20
725.76882728
  0
VERTEX
  8
0
 10
5453.92016231
 20
710.19837181
  0
VERTEX
  8
0
 10
5453.91890082
 20
695.36793539
  0
VERTEX
  8
0
 10
5453.96275131
 20
680.93318037
  0
VERTEX
  8
0
 10
5454.04504922
 20
666.49871342
  0
VERTEX
  8
0
 10
5454.16181724
 20
652.06450474
  0
VERTEX
  8
0
 10
5454.30907806
 20
637.63052454
  0
VERTEX
  8
0
 10
5454.48285434
 20
623.19674300
  0
VERTEX
  8
0
 10
5454.67916878
 20
608.76313034
  0
VERTEX
  8
0
 10
5454.89404404
 20
594.32965674
  0
VERTEX
  8
0
 10
5455.12350281
 20
579.89629241
  0
VERTEX
  8
0
 10
5455.61026160
 20
551.02977236
  0
VERTEX
  8
0
 10
5456.10762657
 20
522.16333177
  0
VERTEX
  8
0
 10
5456.58377917
 20
493.29673225
  0
VERTEX
  8
0
 10
5456.80395752
 20
478.86329839
  0
VERTEX
  8
0
 10
5457.00690082
 20
464.42973539
  0
VERTEX
  8
0
 10
5459.02755263
 20
135.64413539
  0
VERTEX
  8
0
 10
5827.05020082
 20
135.64413539
  0
SEQEND
  0
POLYLINE
  8
Default Layer
 66
   1
 39
0.000000
 70
    1
  0
VERTEX
  8
0
 10
2717.42590771
 20
-50.00653281
  0
VERTEX
  8
0
 10
2716.85477199
 20
-35.31230515
  0
VERTEX
  8
0
 10
2716.32372811
 20
-20.61609154
  0
VERTEX
  8
0
 10
2715.80872095
 20
-5.91908356
  0
VERTEX
  8
0
 10
2715.28569543
 20
8.77752724
  0
VERTEX
  8
0
 10
2714.73059645
 20
23.47254928
  0
VERTEX
  8
0
 10
2714.43350219
 20
30.81909215
  0
VERTEX
  8
0
 10
2714.11936890
 20
38.16479100
  0
VERTEX
  8
0
 10
2713.78518969
 20
45.50949687
  0
VERTEX
  8
0
 10
2713.42795769
 20
52.85306082
  0
VERTEX
  8
0
 10
2713.04466599
 20
60.19533391
  0
VERTEX
  8
0
 10
2712.63230771
 20
67.53616719
  0
VERTEX
  8
0
 10
2712.18489203
 20
74.92795596
  0
VERTEX
  8
0
 10
2711.70095168
 20
82.41652062
  0
VERTEX
  8
0
 10
2711.18426505
 20
89.99184988
  0
VERTEX
  8
0
 10
2710.63861058
 20
97.64393244
  0
VERTEX
  8
0
 10
2710.06776667
 20
105.36275699
  0
VERTEX
  8
0
 10
2709.47551174
 20
113.13831224
  0
VERTEX
  8
0
 10
2708.24188248
 20
128.81956963
  0
VERTEX
  8
0
 10
2706.96795013
 20
144.60761422
  0
VERTEX
  8
0
 10
2705.68394200
 20
160.42235560
  0
VERTEX
  8
0
 10
2704.42008542
 20
176.18370339
  0
VERTEX
  8
0
 10
2703.20660771
 20
191.81156719
  0
VERTEX
  8
0
 10
2697.96420771
 20
273.32126719
  0
VERTEX
  8
0
 10
2697.14881673
 20
284.81918754
  0
VERTEX
  8
0
 10
2696.30351008
 20
296.40486912
  0
VERTEX
  8
0
 10
2694.59494737
 20
319.62888900
  0
VERTEX
  8
0
 10
2693.76759012
 20
331.16191385
  0
VERTEX
  8
0
 10
2692.98211482
 20
342.57207298
  0
VERTEX
  8
0
 10
2692.25647088
 20
353.80670967
  0
VERTEX
  8
0
 10
2691.92169486
 20
359.34175187
  0
VERTEX
  8
0
 10
2691.60860771
 20
364.81316719
  0
VERTEX
  8
0
 10
2691.01200662
 20
375.68885557
  0
VERTEX
  8
0
 10
2690.43538219
 20
386.56631633
  0
VERTEX
  8
0
 10
2689.88953377
 20
397.44558994
  0
VERTEX
  8
0
 10
2689.38526065
 20
408.32671687
  0
VERTEX
  8
0
 10
2688.93336217
 20
419.20973759
  0
VERTEX
  8
0
 10
2688.73042820
 20
424.65197077
  0
VERTEX
  8
0
 10
2688.54463764
 20
430.09469257
  0
VERTEX
  8
0
 10
2688.37734039
 20
435.53790805
  0
VERTEX
  8
0
 10
2688.22988638
 20
440.98162228
  0
VERTEX
  8
0
 10
2688.10362551
 20
446.42584030
  0
VERTEX
  8
0
 10
2687.99990771
 20
451.87056719
  0
VERTEX
  8
0
 10
2687.92051912
 20
457.62178218
  0
VERTEX
  8
0
 10
2687.86548969
 20
463.94033366
  0
VERTEX
  8
0
 10
2687.83353497
 20
470.75853033
  0
VERTEX
  8
0
 10
2687.82337054
 20
478.00868092
  0
VERTEX
  8
0
 10
2687.83371197
 20
485.62309415
  0
VERTEX
  8
0
 10
2687.86327483
 20
493.53407873
  0
VERTEX
  8
0
 10
2687.91077469
 20
501.67394338
  0
VERTEX
  8
0
 10
2687.97492712
 20
509.97499683
  0
VERTEX
  8
0
 10
2688.14805199
 20
526.78990497
  0
VERTEX
  8
0
 10
2688.37237400
 20
543.43727291
  0
VERTEX
  8
0
 10
2688.63761772
 20
559.37557040
  0
VERTEX
  8
0
 10
2688.93350771
 20
574.06326719
  0
VERTEX
  8
0
 10
2689.10426179
 20
581.04048420
  0
VERTEX
  8
0
 10
2689.30592034
 20
588.08052640
  0
VERTEX
  8
0
 10
2689.53425979
 20
595.16881003
  0
VERTEX
  8
0
 10
2689.78505655
 20
602.29075138
  0
VERTEX
  8
0
 10
2690.05408706
 20
609.43176668
  0
VERTEX
  8
0
 10
2690.33712774
 20
616.57727221
  0
VERTEX
  8
0
 10
2690.92834531
 20
630.82341898
  0
VERTEX
  8
0
 10
2691.52492069
 20
644.91252178
  0
VERTEX
  8
0
 10
2692.09306527
 20
658.72791069
  0
VERTEX
  8
0
 10
2692.35591708
 20
665.49650309
  0
VERTEX
  8
0
 10
2692.59899048
 20
672.15291580
  0
VERTEX
  8
0
 10
2692.81806188
 20
678.68256508
  0
VERTEX
  8
0
 10
2693.00890771
 20
685.07086719
  0
VERTEX
  8
0
 10
2693.34613819
 20
697.69683388
  0
VERTEX
  8
0
 10
2693.65614288
 20
710.32360563
  0
VERTEX
  8
0
 10
2693.93834283
 20
722.95109359
  0
VERTEX
  8
0
 10
2694.19215907
 20
735.57920892
  0
VERTEX
  8
0
 10
2694.41701264
 20
748.20786279
  0
VERTEX
  8
0
 10
2694.61232457
 20
760.83696634
  0
VERTEX
  8
0
 10
2694.77751592
 20
773.46643076
  0
VERTEX
  8
0
 10
2694.91200771
 20
786.09616719
  0
VERTEX
  8
0
 10
2694.96428023
 20
792.90790036
  0
VERTEX
  8
0
 10
2695.00307806
 20
800.64915231
  0
VERTEX
  8
0
 10
2695.04582536
 20
818.53558411
  0
VERTEX
  8
0
 10
2695.05140110
 20
838.98620565
  0
VERTEX
  8
0
 10
2695.03095673
 20
861.23176001
  0
VERTEX
  8
0
 10
2694.95661359
 20
908.03063949
  0
VERTEX
  8
0
 10
2694.92501776
 20
931.04545078
  0
VERTEX
  8
0
 10
2694.91200771
 20
952.77816719
  0
VERTEX
  8
0
 10
2694.92534524
 20
964.52190100
  0
VERTEX
  8
0
 10
2694.97886874
 20
976.45505765
  0
VERTEX
  8
0
 10
2695.04846664
 20
988.46398344
  0
VERTEX
  8
0
 10
2695.11002734
 20
1000.43502465
  0
VERTEX
  8
0
 10
2695.13943926
 20
1012.25452760
  0
VERTEX
  8
0
 10
2695.13455455
 20
1018.07193545
  0
VERTEX
  8
0
 10
2695.11259081
 20
1023.80883859
  0
VERTEX
  8
0
 10
2695.07053408
 20
1029.45103031
  0
VERTEX
  8
0
 10
2695.00537041
 20
1034.98430390
  0
VERTEX
  8
0
 10
2694.91408585
 20
1040.39445265
  0
VERTEX
  8
0
 10
2694.79366646
 20
1045.66726984
  0
VERTEX
  8
0
 10
2694.64201989
 20
1050.86608131
  0
VERTEX
  8
0
 10
2694.46108310
 20
1056.06376200
  0
VERTEX
  8
0
 10
2694.25388611
 20
1061.26042889
  0
VERTEX
  8
0
 10
2694.02345895
 20
1066.45619895
  0
VERTEX
  8
0
 10
2693.77283163
 20
1071.65118918
  0
VERTEX
  8
0
 10
2693.50503419
 20
1076.84551653
  0
VERTEX
  8
0
 10
2692.93004902
 20
1087.23265054
  0
VERTEX
  8
0
 10
2692.32274360
 20
1097.61853679
  0
VERTEX
  8
0
 10
2691.70735812
 20
1108.00411111
  0
VERTEX
  8
0
 10
2691.10813276
 20
1118.39030930
  0
VERTEX
  8
0
 10
2690.54930771
 20
1128.77806719
  0
VERTEX
  8
0
 10
2688.17940771
 20
1170.77166719
  0
VERTEX
  8
0
 10
2537.89216681
 20
1170.77166719
  0
VERTEX
  8
0
 10
2338.58540771
 20
1083.22602940
  0
VERTEX
  8
0
 10
2338.58540771
 20
-50.07833281
  0
VERTEX
  8
0
 10
2717.42590771
 20
-50.00653281
  0
SEQEND
  0
POLYLINE
  8
Default Layer
 66
   1
 39
0.000000
 70
    1
  0
VERTEX
  8
0
 10
5577.08158401
 20
1159.90013794
  0
VERTEX
  8
0
 10
5727.08158401
 20
1159.90013794
  0
VERTEX
  8
0
 10
5727.08158401
 20
1172.20013794
  0
VERTEX
  8
0
 10
5577.08158401
 20
1172.20013794
  0
VERTEX
  8
0
 10
5577.08158401
 20
1159.90013794
  0
SEQEND
  0
POLYLINE
  8
Default Layer
 66
   1
 39
0.000000
 70
    1
  0
VERTEX
  8
0
 10
2438.56083897
 20
669.94499848
  0
VERTEX
  8
0
 10
2538.56083897
 20
669.94499848
  0
VERTEX
  8
0
 10
2538.56083897
 20
682.24499848
  0
VERTEX
  8
0
 10
2438.56083897
 20
682.24499848
  0
VERTEX
  8
0
 10
2438.56083897
 20
669.94499848
  0
SEQEND
  0
POLYLINE
  8
Default Layer
 66
   1
 39
0.000000
 70
    1
  0
VERTEX
  8
0
 10
2438.56083897
 20
269.93905641
  0
VERTEX
  8
0
 10
2538.56083897
 20
269.93905641
  0
VERTEX
  8
0
 10
2538.56083897
 20
282.23905641
  0
VERTEX
  8
0
 10
2438.56083897
 20
282.23905641
  0
VERTEX
  8
0
 10
2438.56083897
 20
269.93905641
  0
SEQEND
  0
POLYLINE
  8
Default Layer
 66
   1
 39
0.000000
 70
    1
  0
VERTEX
  8
0
 10
2438.56083897
 20
974.16067342
  0
VERTEX
  8
0
 10
2538.56083897
 20
974.16067342
  0
VERTEX
  8
0
 10
2538.56083897
 20
986.46067342
  0
VERTEX
  8
0
 10
2438.56083897
 20
986.46067342
  0
VERTEX
  8
0
 10
2438.56083897
 20
974.16067342
  0
SEQEND
  0
POLYLINE
  8
Default Layer
 66
   1
 39
0.000000
 70
    1
  0
VERTEX
  8
0
 10
5577.08158401
 20
455.60437620
  0
VERTEX
  8
0
 10
5727.08158401
 20
455.60437620
  0
VERTEX
  8
0
 10
5727.08158401
 20
467.90437620
  0
VERTEX
  8
0
 10
5577.08158401
 20
467.90437620
  0
VERTEX
  8
0
 10
5577.08158401
 20
455.60437620
  0
SEQEND
  0
POLYLINE
  8
Default Layer
 66
   1
 39
0.000000
 70
    1
  0
VERTEX
  8
0
 10
5577.08158401
 20
855.64725021
  0
VERTEX
  8
0
 10
5727.08158401
 20
855.64725021
  0
VERTEX
  8
0
 10
5727.08158401
 20
867.94725021
  0
VERTEX
  8
0
 10
5577.08158401
 20
867.94725021
  0
VERTEX
  8
0
 10
5577.08158401
 20
855.64725021
  0
SEQEND
  0
POLYLINE
  8
Default Layer
 66
   1
 39
0.000000
 70
    1
  0
VERTEX
  8
0
 10
2973.04667610
 20
-509.05233380
  0
VERTEX
  8
0
 10
5301.04667610
 20
-509.05233380
  0
VERTEX
  8
0
 10
5301.04667610
 20
-409.05233380
  0
VERTEX
  8
0
 10
2973.04667610
 20
-409.05233380
  0
VERTEX
  8
0
 10
2973.04667610
 20
-509.05233380
  0
SEQEND
  0
POLYLINE
  8
Default Layer
 66
   1
 39
0.000000
 70
    1
  0
VERTEX
  8
0
 10
2973.04667610
 20
-400.95233380
  0
VERTEX
  8
0
 10
5301.04667610
 20
-400.95233380
  0
VERTEX
  8
0
 10
5301.04667610
 20
-300.95233380
  0
VERTEX
  8
0
 10
2973.04667610
 20
-300.95233380
  0
VERTEX
  8
0
 10
2973.04667610
 20
-400.95233380
  0
SEQEND
  0
POLYLINE
  8
Default Layer
 66
   1
 39
0.000000
 70
    1
  0
VERTEX
  8
0
 10
2973.04667610
 20
-292.85233380
  0
VERTEX
  8
0
 10
5301.04667610
 20
-292.85233380
  0
VERTEX
  8
0
 10
5301.04667610
 20
-192.85233380
  0
VERTEX
  8
0
 10
2973.04667610
 20
-192.85233380
  0
VERTEX
  8
0
 10
2973.04667610
 20
-292.85233380
  0
SEQEND
  0
POLYLINE
  8
Default Layer
 66
   1
 39
0.000000
 70
    0
  0
VERTEX
  8
0
 10
3278.15143801
 20
1452.47213579
  0
VERTEX
  8
0
 10
3286.61810467
 20
1452.47213579
  0
VERTEX
  8
0
 10
3295.08477134
 20
1460.93880246
  0
VERTEX
  8
0
 10
3295.08477134
 20
1469.40546913
  0
VERTEX
  8
0
 10
3286.61810467
 20
1477.87213579
  0
VERTEX
  8
0
 10
3269.68477134
 20
1477.87213579
  0
VERTEX
  8
0
 10
3261.21810467
 20
1469.40546913
  0
SEQEND
  0
POLYLINE
  8
Default Layer
 66
   1
 39
0.000000
 70
    0
  0
VERTEX
  8
0
 10
3261.21810467
 20
1435.53880246
  0
VERTEX
  8
0
 10
3269.68477134
 20
1427.07213579
  0
VERTEX
  8
0
 10
3286.61810467
 20
1427.07213579
  0
VERTEX
  8
0
 10
3295.08477134
 20
1435.53880246
  0
VERTEX
  8
0
 10
3295.08477134
 20
1444.00546913
  0
VERTEX
  8
0
 10
3286.61810467
 20
1452.47213579
  0
SEQEND
  0
POLYLINE
  8
Default Layer
 66
   1
 39
0.000000
 70
    0
  0
VERTEX
  8
0
 10
3345.88477134
 20
1477.87213579
  0
VERTEX
  8
0
 10
3312.01810467
 20
1427.07213579
  0
SEQEND
  0
POLYLINE
  8
Default Layer
 66
   1
 39
0.000000
 70
    0
  0
VERTEX
  8
0
 10
3345.88477134
 20
1427.07213579
  0
VERTEX
  8
0
 10
3312.01810467
 20
1477.87213579
  0
SEQEND
  0
POLYLINE
  8
Default Layer
 66
   1
 39
0.000000
 70
    0
  0
VERTEX
  8
0
 10
3371.28477134
 20
1427.07213579
  0
VERTEX
  8
0
 10
3371.28477134
 20
1477.87213579
  0
VERTEX
  8
0
 10
3362.81810467
 20
1469.40546913
  0
SEQEND
  0
POLYLINE
  8
Default Layer
 66
   1
 39
0.000000
 70
    0
  0
VERTEX
  8
0
 10
3379.75143801
 20
1427.07213579
  0
VERTEX
  8
0
 10
3362.81810467
 20
1427.07213579
  0
SEQEND
  0
POLYLINE
  8
Default Layer
 66
   1
 39
0.000000
 70
    0
  0
VERTEX
  8
0
 10
3481.35143801
 20
1477.87213579
  0
VERTEX
  8
0
 10
3447.48477134
 20
1477.87213579
  0
VERTEX
  8
0
 10
3447.48477134
 20
1427.07213579
  0
SEQEND
  0
POLYLINE
  8
Default Layer
 66
   1
 39
0.000000
 70
    0
  0
VERTEX
  8
0
 10
3464.41810467
 20
1452.47213579
  0
VERTEX
  8
0
 10
3447.48477134
 20
1452.47213579
  0
SEQEND
  0
POLYLINE
  8
Default Layer
 66
   1
 39
0.000000
 70
    0
  0
VERTEX
  8
0
 10
3515.21810467
 20
1477.87213579
  0
VERTEX
  8
0
 10
3498.28477134
 20
1477.87213579
  0
SEQEND
  0
POLYLINE
  8
Default Layer
 66
   1
 39
0.000000
 70
    0
  0
VERTEX
  8
0
 10
3506.75143801
 20
1427.07213579
  0
VERTEX
  8
0
 10
3506.75143801
 20
1477.87213579
  0
SEQEND
  0
POLYLINE
  8
Default Layer
 66
   1
 39
0.000000
 70
    0
  0
VERTEX
  8
0
 10
3515.21810467
 20
1427.07213579
  0
VERTEX
  8
0
 10
3498.28477134
 20
1427.07213579
  0
SEQEND
  0
POLYLINE
  8
Default Layer
 66
   1
 39
0.000000
 70
    0
  0
VERTEX
  8
0
 10
3566.01810467
 20
1477.87213579
  0
VERTEX
  8
0
 10
3532.15143801
 20
1427.07213579
  0
SEQEND
  0
POLYLINE
  8
Default Layer
 66
   1
 39
0.000000
 70
    0
  0
VERTEX
  8
0
 10
3566.01810467
 20
1427.07213579
  0
VERTEX
  8
0
 10
3532.15143801
 20
1477.87213579
  0
SEQEND
  0
POLYLINE
  8
Default Layer
 66
   1
 39
0.000000
 70
    0
  0
VERTEX
  8
0
 10
3616.81810467
 20
1477.87213579
  0
VERTEX
  8
0
 10
3582.95143801
 20
1477.87213579
  0
VERTEX
  8
0
 10
3582.95143801
 20
1427.07213579
  0
VERTEX
  8
0
 10
3616.81810467
 20
1427.07213579
  0
SEQEND
  0
POLYLINE
  8
Default Layer
 66
   1
 39
0.000000
 70
    0
  0
VERTEX
  8
0
 10
3599.88477134
 20
1452.47213579
  0
VERTEX
  8
0
 10
3582.95143801
 20
1452.47213579
  0
SEQEND
  0
POLYLINE
  8
Default Layer
 66
   1
 39
0.000000
 70
    0
  0
VERTEX
  8
0
 10
3633.75143801
 20
1477.87213579
  0
VERTEX
  8
0
 10
3659.15143801
 20
1477.87213579
  0
VERTEX
  8
0
 10
3667.61810467
 20
1469.40546913
  0
VERTEX
  8
0
 10
3667.61810467
 20
1435.53880246
  0
VERTEX
  8
0
 10
3659.15143801
 20
1427.07213579
  0
VERTEX
  8
0
 10
3633.75143801
 20
1427.07213579
  0
SEQEND
  0
POLYLINE
  8
Default Layer
 66
   1
 39
0.000000
 70
    0
  0
VERTEX
  8
0
 10
3642.21810467
 20
1427.07213579
  0
VERTEX
  8
0
 10
3642.21810467
 20
1477.87213579
  0
SEQEND
  0
POLYLINE
  8
Default Layer
 66
   1
 39
0.000000
 70
    0
  0
VERTEX
  8
0
 10
3769.21810467
 20
1477.87213579
  0
VERTEX
  8
0
 10
3769.21810467
 20
1435.53880246
  0
VERTEX
  8
0
 10
3760.75143801
 20
1427.07213579
  0
VERTEX
  8
0
 10
3743.81810467
 20
1427.07213579
  0
VERTEX
  8
0
 10
3735.35143801
 20
1435.53880246
  0
VERTEX
  8
0
 10
3735.35143801
 20
1477.87213579
  0
SEQEND
  0
POLYLINE
  8
Default Layer
 66
   1
 39
0.000000
 70
    0
  0
VERTEX
  8
0
 10
3820.01810467
 20
1477.87213579
  0
VERTEX
  8
0
 10
3820.01810467
 20
1427.07213579
  0
VERTEX
  8
0
 10
3786.15143801
 20
1477.87213579
  0
VERTEX
  8
0
 10
3786.15143801
 20
1427.07213579
  0
SEQEND
  0
POLYLINE
  8
Default Layer
 66
   1
 39
0.000000
 70
    0
  0
VERTEX
  8
0
 10
3870.81810467
 20
1477.87213579
  0
VERTEX
  8
0
 10
3836.95143801
 20
1477.87213579
  0
VERTEX
  8
0
 10
3836.95143801
 20
1427.07213579
  0
VERTEX
  8
0
 10
3870.81810467
 20
1427.07213579
  0
SEQEND
  0
POLYLINE
  8
Default Layer
 66
   1
 39
0.000000
 70
    0
  0
VERTEX
  8
0
 10
3853.88477134
 20
1452.47213579
  0
VERTEX
  8
0
 10
3836.95143801
 20
1452.47213579
  0
SEQEND
  0
POLYLINE
  8
Default Layer
 66
   1
 39
0.000000
 70
    0
  0
VERTEX
  8
0
 10
3887.75143801
 20
1452.47213579
  0
VERTEX
  8
0
 10
3913.15143801
 20
1452.47213579
  0
VERTEX
  8
0
 10
3921.61810467
 20
1460.93880246
  0
VERTEX
  8
0
 10
3921.61810467
 20
1469.40546913
  0
VERTEX
  8
0
 10
3913.15143801
 20
1477.87213579
  0
VERTEX
  8
0
 10
3887.75143801
 20
1477.87213579
  0
VERTEX
  8
0
 10
3887.75143801
 20
1427.07213579
  0
SEQEND
  0
POLYLINE
  8
Default Layer
 66
   1
 39
0.000000
 70
    0
  0
VERTEX
  8
0
 10
3921.61810467
 20
1427.07213579
  0
VERTEX
  8
0
 10
3896.21810467
 20
1452.47213579
  0
SEQEND
  0
POLYLINE
  8
Default Layer
 66
   1
 39
0.000000
 70
    0
  0
VERTEX
  8
0
 10
3989.35143801
 20
1452.47213579
  0
VERTEX
  8
0
 10
4014.75143801
 20
1452.47213579
  0
VERTEX
  8
0
 10
4023.21810467
 20
1460.93880246
  0
VERTEX
  8
0
 10
4023.21810467
 20
1469.40546913
  0
VERTEX
  8
0
 10
4014.75143801
 20
1477.87213579
  0
VERTEX
  8
0
 10
3989.35143801
 20
1477.87213579
  0
VERTEX
  8
0
 10
3989.35143801
 20
1427.07213579
  0
SEQEND
  0
POLYLINE
  8
Default Layer
 66
   1
 39
0.000000
 70
    0
  0
VERTEX
  8
0
 10
4023.21810467
 20
1427.07213579
  0
VERTEX
  8
0
 10
3997.81810467
 20
1452.47213579
  0
SEQEND
  0
POLYLINE
  8
Default Layer
 66
   1
 39
0.000000
 70
    0
  0
VERTEX
  8
0
 10
4074.01810467
 20
1477.87213579
  0
VERTEX
  8
0
 10
4040.15143801
 20
1477.87213579
  0
VERTEX
  8
0
 10
4040.15143801
 20
1427.07213579
  0
VERTEX
  8
0
 10
4074.01810467
 20
1427.07213579
  0
SEQEND
  0
POLYLINE
  8
Default Layer
 66
   1
 39
0.000000
 70
    0
  0
VERTEX
  8
0
 10
4057.08477134
 20
1452.47213579
  0
VERTEX
  8
0
 10
4040.15143801
 20
1452.47213579
  0
SEQEND
  0
POLYLINE
  8
Default Layer
 66
   1
 39
0.000000
 70
    0
  0
VERTEX
  8
0
 10
4124.81810467
 20
1427.07213579
  0
VERTEX
  8
0
 10
4124.81810467
 20
1444.00546913
  0
VERTEX
  8
0
 10
4107.88477134
 20
1477.87213579
  0
VERTEX
  8
0
 10
4090.95143801
 20
1444.00546913
  0
VERTEX
  8
0
 10
4090.95143801
 20
1427.07213579
  0
SEQEND
  0
POLYLINE
  8
Default Layer
 66
   1
 39
0.000000
 70
    0
  0
VERTEX
  8
0
 10
4124.81810467
 20
1444.00546913
  0
VERTEX
  8
0
 10
4090.95143801
 20
1444.00546913
  0
SEQEND
  0
POLYLINE
  8
Default Layer
 66
   1
 39
0.000000
 70
    0
  0
VERTEX
  8
0
 10
4141.75143801
 20
1452.47213579
  0
VERTEX
  8
0
 10
4167.15143801
 20
1452.47213579
  0
VERTEX
  8
0
 10
4175.61810467
 20
1460.93880246
  0
VERTEX
  8
0
 10
4175.61810467
 20
1469.40546913
  0
VERTEX
  8
0
 10
4167.15143801
 20
1477.87213579
  0
VERTEX
  8
0
 10
4141.75143801
 20
1477.87213579
  0
VERTEX
  8
0
 10
4141.75143801
 20
1427.07213579
  0
SEQEND
  0
POLYLINE
  8
Default Layer
 66
   1
 39
0.000000
 70
    0
  0
VERTEX
  8
0
 10
4175.61810467
 20
1427.07213579
  0
VERTEX
  8
0
 10
4150.21810467
 20
1452.47213579
  0
SEQEND
  0
POLYLINE
  8
Default Layer
 66
   1
 39
0.000000
 70
    0
  0
VERTEX
  8
0
 10
4277.21810467
 20
1469.40546913
  0
VERTEX
  8
0
 10
4268.75143801
 20
1477.87213579
  0
VERTEX
  8
0
 10
4251.81810467
 20
1477.87213579
  0
VERTEX
  8
0
 10
4243.35143801
 20
1469.40546913
  0
VERTEX
  8
0
 10
4277.21810467
 20
1435.53880246
  0
VERTEX
  8
0
 10
4268.75143801
 20
1427.07213579
  0
VERTEX
  8
0
 10
4251.81810467
 20
1427.07213579
  0
VERTEX
  8
0
 10
4243.35143801
 20
1435.53880246
  0
SEQEND
  0
POLYLINE
  8
Default Layer
 66
   1
 39
0.000000
 70
    0
  0
VERTEX
  8
0
 10
4294.15143801
 20
1477.87213579
  0
VERTEX
  8
0
 10
4294.15143801
 20
1427.07213579
  0
SEQEND
  0
POLYLINE
  8
Default Layer
 66
   1
 39
0.000000
 70
    0
  0
VERTEX
  8
0
 10
4328.01810467
 20
1452.47213579
  0
VERTEX
  8
0
 10
4294.15143801
 20
1452.47213579
  0
SEQEND
  0
POLYLINE
  8
Default Layer
 66
   1
 39
0.000000
 70
    0
  0
VERTEX
  8
0
 10
4328.01810467
 20
1427.07213579
  0
VERTEX
  8
0
 10
4328.01810467
 20
1477.87213579
  0
SEQEND
  0
POLYLINE
  8
Default Layer
 66
   1
 39
0.000000
 70
    0
  0
VERTEX
  8
0
 10
4378.81810467
 20
1477.87213579
  0
VERTEX
  8
0
 10
4344.95143801
 20
1477.87213579
  0
VERTEX
  8
0
 10
4344.95143801
 20
1427.07213579
  0
VERTEX
  8
0
 10
4378.81810467
 20
1427.07213579
  0
SEQEND
  0
POLYLINE
  8
Default Layer
 66
   1
 39
0.000000
 70
    0
  0
VERTEX
  8
0
 10
4361.88477134
 20
1452.47213579
  0
VERTEX
  8
0
 10
4344.95143801
 20
1452.47213579
  0
SEQEND
  0
POLYLINE
  8
Default Layer
 66
   1
 39
0.000000
 70
    0
  0
VERTEX
  8
0
 10
4429.61810467
 20
1427.07213579
  0
VERTEX
  8
0
 10
4395.75143801
 20
1427.07213579
  0
VERTEX
  8
0
 10
4395.75143801
 20
1477.87213579
  0
SEQEND
  0
POLYLINE
  8
Default Layer
 66
   1
 39
0.000000
 70
    0
  0
VERTEX
  8
0
 10
4497.35143801
 20
1477.87213579
  0
VERTEX
  8
0
 10
4471.95143801
 20
1427.07213579
  0
VERTEX
  8
0
 10
4446.55143801
 20
1477.87213579
  0
SEQEND
  0
POLYLINE
  8
Default Layer
 66
   1
 39
0.000000
 70
    0
  0
VERTEX
  8
0
 10
4548.15143801
 20
1477.87213579
  0
VERTEX
  8
0
 10
4514.28477134
 20
1477.87213579
  0
VERTEX
  8
0
 10
4514.28477134
 20
1427.07213579
  0
VERTEX
  8
0
 10
4548.15143801
 20
1427.07213579
  0
SEQEND
  0
POLYLINE
  8
Default Layer
 66
   1
 39
0.000000
 70
    0
  0
VERTEX
  8
0
 10
4531.21810467
 20
1452.47213579
  0
VERTEX
  8
0
 10
4514.28477134
 20
1452.47213579
  0
SEQEND
  0
POLYLINE
  8
Default Layer
 66
   1
 39
0.000000
 70
    0
  0
VERTEX
  8
0
 10
4598.95143801
 20
1469.40546913
  0
VERTEX
  8
0
 10
4590.48477134
 20
1477.87213579
  0
VERTEX
  8
0
 10
4573.55143801
 20
1477.87213579
  0
VERTEX
  8
0
 10
4565.08477134
 20
1469.40546913
  0
VERTEX
  8
0
 10
4598.95143801
 20
1435.53880246
  0
VERTEX
  8
0
 10
4590.48477134
 20
1427.07213579
  0
VERTEX
  8
0
 10
4573.55143801
 20
1427.07213579
  0
VERTEX
  8
0
 10
4565.08477134
 20
1435.53880246
  0
SEQEND
  0
POLYLINE
  8
Default Layer
 66
   1
 39
0.000000
 70
    0
  0
VERTEX
  8
0
 10
4700.55143801
 20
1477.87213579
  0
VERTEX
  8
0
 10
4666.68477134
 20
1477.87213579
  0
SEQEND
  0
POLYLINE
  8
Default Layer
 66
   1
 39
0.000000
 70
    0
  0
VERTEX
  8
0
 10
4683.61810467
 20
1427.07213579
  0
VERTEX
  8
0
 10
4683.61810467
 20
1477.87213579
  0
SEQEND
  0
POLYLINE
  8
Default Layer
 66
   1
 39
0.000000
 70
    0
  0
VERTEX
  8
0
 10
4852.95143801
 20
1469.40546913
  0
VERTEX
  8
0
 10
4844.48477134
 20
1477.87213579
  0
VERTEX
  8
0
 10
4827.55143801
 20
1477.87213579
  0
VERTEX
  8
0
 10
4819.08477134
 20
1469.40546913
  0
VERTEX
  8
0
 10
4852.95143801
 20
1435.53880246
  0
VERTEX
  8
0
 10
4844.48477134
 20
1427.07213579
  0
VERTEX
  8
0
 10
4827.55143801
 20
1427.07213579
  0
VERTEX
  8
0
 10
4819.08477134
 20
1435.53880246
  0
SEQEND
  0
POLYLINE
  8
Default Layer
 66
   1
 39
0.000000
 70
    0
  0
VERTEX
  8
0
 10
4886.81810467
 20
1477.87213579
  0
VERTEX
  8
0
 10
4869.88477134
 20
1477.87213579
  0
SEQEND
  0
POLYLINE
  8
Default Layer
 66
   1
 39
0.000000
 70
    0
  0
VERTEX
  8
0
 10
4878.35143801
 20
1427.07213579
  0
VERTEX
  8
0
 10
4878.35143801
 20
1477.87213579
  0
SEQEND
  0
POLYLINE
  8
Default Layer
 66
   1
 39
0.000000
 70
    0
  0
VERTEX
  8
0
 10
4886.81810467
 20
1427.07213579
  0
VERTEX
  8
0
 10
4869.88477134
 20
1427.07213579
  0
SEQEND
  0
POLYLINE
  8
Default Layer
 66
   1
 39
0.000000
 70
    0
  0
VERTEX
  8
0
 10
4903.75143801
 20
1477.87213579
  0
VERTEX
  8
0
 10
4929.15143801
 20
1477.87213579
  0
VERTEX
  8
0
 10
4937.61810467
 20
1469.40546913
  0
VERTEX
  8
0
 10
4937.61810467
 20
1435.53880246
  0
VERTEX
  8
0
 10
4929.15143801
 20
1427.07213579
  0
VERTEX
  8
0
 10
4903.75143801
 20
1427.07213579
  0
SEQEND
  0
POLYLINE
  8
Default Layer
 66
   1
 39
0.000000
 70
    0
  0
VERTEX
  8
0
 10
4912.21810467
 20
1427.07213579
  0
VERTEX
  8
0
 10
4912.21810467
 20
1477.87213579
  0
SEQEND
  0
POLYLINE
  8
Default Layer
 66
   1
 39
0.000000
 70
    0
  0
VERTEX
  8
0
 10
4988.41810467
 20
1477.87213579
  0
VERTEX
  8
0
 10
4954.55143801
 20
1477.87213579
  0
VERTEX
  8
0
 10
4954.55143801
 20
1427.07213579
  0
VERTEX
  8
0
 10
4988.41810467
 20
1427.07213579
  0
SEQEND
  0
POLYLINE
  8
Default Layer
 66
   1
 39
0.000000
 70
    0
  0
VERTEX
  8
0
 10
4971.48477134
 20
1452.47213579
  0
VERTEX
  8
0
 10
4954.55143801
 20
1452.47213579
  0
SEQEND
  0
POLYLINE
  8
Default Layer
 66
   1
 39
0.000000
 70
    1
  0
VERTEX
  8
0
 10
4717.48477134
 20
1427.07213579
  0
VERTEX
  8
0
 10
4751.35143801
 20
1427.07213579
  0
VERTEX
  8
0
 10
4751.35143801
 20
1477.87213579
  0
VERTEX
  8
0
 10
4717.48477134
 20
1477.87213579
  0
VERTEX
  8
0
 10
4717.48477134
 20
1427.07213579
  0
SEQEND
  0
POLYLINE
  8
Default Layer
 66
   1
 39
0.000000
 70
    0
  0
VERTEX
  8
0
 10
5559.77463461
 20
1010.71824611
  0
VERTEX
  8
0
 10
5585.17463461
 20
1010.71824611
  0
VERTEX
  8
0
 10
5593.64130127
 20
1019.18491278
  0
VERTEX
  8
0
 10
5593.64130127
 20
1027.65157944
  0
VERTEX
  8
0
 10
5585.17463461
 20
1036.11824611
  0
VERTEX
  8
0
 10
5559.77463461
 20
1036.11824611
  0
VERTEX
  8
0
 10
5559.77463461
 20
985.31824611
  0
SEQEND
  0
POLYLINE
  8
Default Layer
 66
   1
 39
0.000000
 70
    0
  0
VERTEX
  8
0
 10
5593.64130127
 20
985.31824611
  0
VERTEX
  8
0
 10
5568.24130127
 20
1010.71824611
  0
SEQEND
  0
POLYLINE
  8
Default Layer
 66
   1
 39
0.000000
 70
    0
  0
VERTEX
  8
0
 10
5644.44130127
 20
1036.11824611
  0
VERTEX
  8
0
 10
5610.57463461
 20
1036.11824611
  0
VERTEX
  8
0
 10
5610.57463461
 20
985.31824611
  0
VERTEX
  8
0
 10
5644.44130127
 20
985.31824611
  0
SEQEND
  0
POLYLINE
  8
Default Layer
 66
   1
 39
0.000000
 70
    0
  0
VERTEX
  8
0
 10
5627.50796794
 20
1010.71824611
  0
VERTEX
  8
0
 10
5610.57463461
 20
1010.71824611
  0
SEQEND
  0
POLYLINE
  8
Default Layer
 66
   1
 39
0.000000
 70
    0
  0
VERTEX
  8
0
 10
5695.24130127
 20
985.31824611
  0
VERTEX
  8
0
 10
5695.24130127
 20
1002.25157944
  0
VERTEX
  8
0
 10
5678.30796794
 20
1036.11824611
  0
VERTEX
  8
0
 10
5661.37463461
 20
1002.25157944
  0
VERTEX
  8
0
 10
5661.37463461
 20
985.31824611
  0
SEQEND
  0
POLYLINE
  8
Default Layer
 66
   1
 39
0.000000
 70
    0
  0
VERTEX
  8
0
 10
5695.24130127
 20
1002.25157944
  0
VERTEX
  8
0
 10
5661.37463461
 20
1002.25157944
  0
SEQEND
  0
POLYLINE
  8
Default Layer
 66
   1
 39
0.000000
 70
    0
  0
VERTEX
  8
0
 10
5712.17463461
 20
1010.71824611
  0
VERTEX
  8
0
 10
5737.57463461
 20
1010.71824611
  0
VERTEX
  8
0
 10
5746.04130127
 20
1019.18491278
  0
VERTEX
  8
0
 10
5746.04130127
 20
1027.65157944
  0
VERTEX
  8
0
 10
5737.57463461
 20
1036.11824611
  0
VERTEX
  8
0
 10
5712.17463461
 20
1036.11824611
  0
VERTEX
  8
0
 10
5712.17463461
 20
985.31824611
  0
SEQEND
  0
POLYLINE
  8
Default Layer
 66
   1
 39
0.000000
 70
    0
  0
VERTEX
  8
0
 10
5746.04130127
 20
985.31824611
  0
VERTEX
  8
0
 10
5720.64130127
 20
1010.71824611
  0
SEQEND
  0
POLYLINE
  8
Default Layer
 66
   1
 39
0.000000
 70
    0
  0
VERTEX
  8
0
 10
2449.27336163
 20
824.99867986
  0
VERTEX
  8
0
 10
2474.67336163
 20
824.99867986
  0
VERTEX
  8
0
 10
2483.14002829
 20
833.46534653
  0
VERTEX
  8
0
 10
2483.14002829
 20
841.93201320
  0
VERTEX
  8
0
 10
2474.67336163
 20
850.39867986
  0
VERTEX
  8
0
 10
2449.27336163
 20
850.39867986
  0
VERTEX
  8
0
 10
2449.27336163
 20
799.59867986
  0
SEQEND
  0
POLYLINE
  8
Default Layer
 66
   1
 39
0.000000
 70
    0
  0
VERTEX
  8
0
 10
2483.14002829
 20
799.59867986
  0
VERTEX
  8
0
 10
2457.74002829
 20
824.99867986
  0
SEQEND
  0
POLYLINE
  8
Default Layer
 66
   1
 39
0.000000
 70
    0
  0
VERTEX
  8
0
 10
2584.74002829
 20
850.39867986
  0
VERTEX
  8
0
 10
2584.74002829
 20
799.59867986
  0
VERTEX
  8
0
 10
2550.87336163
 20
850.39867986
  0
VERTEX
  8
0
 10
2550.87336163
 20
799.59867986
  0
SEQEND
  0
POLYLINE
  8
Default Layer
 66
   1
 39
0.000000
 70
    0
  0
VERTEX
  8
0
 10
2635.54002829
 20
850.39867986
  0
VERTEX
  8
0
 10
2601.67336163
 20
850.39867986
  0
SEQEND
  0
POLYLINE
  8
Default Layer
 66
   1
 39
0.000000
 70
    0
  0
VERTEX
  8
0
 10
2618.60669496
 20
799.59867986
  0
VERTEX
  8
0
 10
2618.60669496
 20
850.39867986
  0
SEQEND
  0
POLYLINE
  8
Default Layer
 66
   1
 39
0.000000
 70
    1
  0
VERTEX
  8
0
 10
2500.07336163
 20
799.59867986
  0
VERTEX
  8
0
 10
2533.94002829
 20
799.59867986
  0
VERTEX
  8
0
 10
2533.94002829
 20
850.39867986
  0
VERTEX
  8
0
 10
2500.07336163
 20
850.39867986
  0
VERTEX
  8
0
 10
2500.07336163
 20
799.59867986
  0
SEQEND
  0
POLYLINE
  8
Default Layer
 66
   1
 39
0.000000
 70
    0
  0
VERTEX
  8
0
 10
3322.51909477
 20
-63.84724187
  0
VERTEX
  8
0
 10
3288.65242810
 20
-63.84724187
  0
VERTEX
  8
0
 10
3288.65242810
 20
-46.91390854
  0
VERTEX
  8
0
 10
3297.11909477
 20
-38.44724187
  0
VERTEX
  8
0
 10
3314.05242810
 20
-38.44724187
  0
VERTEX
  8
0
 10
3322.51909477
 20
-29.98057520
  0
VERTEX
  8
0
 10
3322.51909477
 20
-21.51390854
  0
VERTEX
  8
0
 10
3314.05242810
 20
-13.04724187
  0
VERTEX
  8
0
 10
3297.11909477
 20
-13.04724187
  0
VERTEX
  8
0
 10
3288.65242810
 20
-21.51390854
  0
SEQEND
  0
POLYLINE
  8
Default Layer
 66
   1
 39
0.000000
 70
    0
  0
VERTEX
  8
0
 10
3373.31909477
 20
-13.04724187
  0
VERTEX
  8
0
 10
3339.45242810
 20
-63.84724187
  0
SEQEND
  0
POLYLINE
  8
Default Layer
 66
   1
 39
0.000000
 70
    0
  0
VERTEX
  8
0
 10
3373.31909477
 20
-63.84724187
  0
VERTEX
  8
0
 10
3339.45242810
 20
-13.04724187
  0
SEQEND
  0
POLYLINE
  8
Default Layer
 66
   1
 39
0.000000
 70
    0
  0
VERTEX
  8
0
 10
3398.71909477
 20
-63.84724187
  0
VERTEX
  8
0
 10
3398.71909477
 20
-13.04724187
  0
VERTEX
  8
0
 10
3390.25242810
 20
-21.51390854
  0
SEQEND
  0
POLYLINE
  8
Default Layer
 66
   1
 39
0.000000
 70
    0
  0
VERTEX
  8
0
 10
3407.18576143
 20
-63.84724187
  0
VERTEX
  8
0
 10
3390.25242810
 20
-63.84724187
  0
SEQEND
  0
POLYLINE
  8
Default Layer
 66
   1
 39
0.000000
 70
    0
  0
VERTEX
  8
0
 10
3508.78576143
 20
-13.04724187
  0
VERTEX
  8
0
 10
3474.91909477
 20
-13.04724187
  0
VERTEX
  8
0
 10
3474.91909477
 20
-63.84724187
  0
SEQEND
  0
POLYLINE
  8
Default Layer
 66
   1
 39
0.000000
 70
    0
  0
VERTEX
  8
0
 10
3491.85242810
 20
-38.44724187
  0
VERTEX
  8
0
 10
3474.91909477
 20
-38.44724187
  0
SEQEND
  0
POLYLINE
  8
Default Layer
 66
   1
 39
0.000000
 70
    0
  0
VERTEX
  8
0
 10
3559.58576143
 20
-63.84724187
  0
VERTEX
  8
0
 10
3525.71909477
 20
-63.84724187
  0
VERTEX
  8
0
 10
3525.71909477
 20
-13.04724187
  0
SEQEND
  0
POLYLINE
  8
Default Layer
 66
   1
 39
0.000000
 70
    0
  0
VERTEX
  8
0
 10
3610.38576143
 20
-63.84724187
  0
VERTEX
  8
0
 10
3610.38576143
 20
-46.91390854
  0
VERTEX
  8
0
 10
3593.45242810
 20
-13.04724187
  0
VERTEX
  8
0
 10
3576.51909477
 20
-46.91390854
  0
VERTEX
  8
0
 10
3576.51909477
 20
-63.84724187
  0
SEQEND
  0
POLYLINE
  8
Default Layer
 66
   1
 39
0.000000
 70
    0
  0
VERTEX
  8
0
 10
3610.38576143
 20
-46.91390854
  0
VERTEX
  8
0
 10
3576.51909477
 20
-46.91390854
  0
SEQEND
  0
POLYLINE
  8
Default Layer
 66
   1
 39
0.000000
 70
    0
  0
VERTEX
  8
0
 10
3661.18576143
 20
-13.04724187
  0
VERTEX
  8
0
 10
3627.31909477
 20
-13.04724187
  0
SEQEND
  0
POLYLINE
  8
Default Layer
 66
   1
 39
0.000000
 70
    0
  0
VERTEX
  8
0
 10
3644.25242810
 20
-63.84724187
  0
VERTEX
  8
0
 10
3644.25242810
 20
-13.04724187
  0
SEQEND
  0
POLYLINE
  8
Default Layer
 66
   1
 39
0.000000
 70
    0
  0
VERTEX
  8
0
 10
3762.78576143
 20
-13.04724187
  0
VERTEX
  8
0
 10
3762.78576143
 20
-55.38057520
  0
VERTEX
  8
0
 10
3754.31909477
 20
-63.84724187
  0
VERTEX
  8
0
 10
3737.38576143
 20
-63.84724187
  0
VERTEX
  8
0
 10
3728.91909477
 20
-55.38057520
  0
VERTEX
  8
0
 10
3728.91909477
 20
-13.04724187
  0
SEQEND
  0
POLYLINE
  8
Default Layer
 66
   1
 39
0.000000
 70
    0
  0
VERTEX
  8
0
 10
3813.58576143
 20
-13.04724187
  0
VERTEX
  8
0
 10
3813.58576143
 20
-63.84724187
  0
VERTEX
  8
0
 10
3779.71909477
 20
-13.04724187
  0
VERTEX
  8
0
 10
3779.71909477
 20
-63.84724187
  0
SEQEND
  0
POLYLINE
  8
Default Layer
 66
   1
 39
0.000000
 70
    0
  0
VERTEX
  8
0
 10
3830.51909477
 20
-13.04724187
  0
VERTEX
  8
0
 10
3855.91909477
 20
-13.04724187
  0
VERTEX
  8
0
 10
3864.38576143
 20
-21.51390854
  0
VERTEX
  8
0
 10
3864.38576143
 20
-55.38057520
  0
VERTEX
  8
0
 10
3855.91909477
 20
-63.84724187
  0
VERTEX
  8
0
 10
3830.51909477
 20
-63.84724187
  0
SEQEND
  0
POLYLINE
  8
Default Layer
 66
   1
 39
0.000000
 70
    0
  0
VERTEX
  8
0
 10
3838.98576143
 20
-63.84724187
  0
VERTEX
  8
0
 10
3838.98576143
 20
-13.04724187
  0
SEQEND
  0
POLYLINE
  8
Default Layer
 66
   1
 39
0.000000
 70
    0
  0
VERTEX
  8
0
 10
3915.18576143
 20
-13.04724187
  0
VERTEX
  8
0
 10
3881.31909477
 20
-13.04724187
  0
VERTEX
  8
0
 10
3881.31909477
 20
-63.84724187
  0
VERTEX
  8
0
 10
3915.18576143
 20
-63.84724187
  0
SEQEND
  0
POLYLINE
  8
Default Layer
 66
   1
 39
0.000000
 70
    0
  0
VERTEX
  8
0
 10
3898.25242810
 20
-38.44724187
  0
VERTEX
  8
0
 10
3881.31909477
 20
-38.44724187
  0
SEQEND
  0
POLYLINE
  8
Default Layer
 66
   1
 39
0.000000
 70
    0
  0
VERTEX
  8
0
 10
3932.11909477
 20
-38.44724187
  0
VERTEX
  8
0
 10
3957.51909477
 20
-38.44724187
  0
VERTEX
  8
0
 10
3965.98576143
 20
-29.98057520
  0
VERTEX
  8
0
 10
3965.98576143
 20
-21.51390854
  0
VERTEX
  8
0
 10
3957.51909477
 20
-13.04724187
  0
VERTEX
  8
0
 10
3932.11909477
 20
-13.04724187
  0
VERTEX
  8
0
 10
3932.11909477
 20
-63.84724187
  0
SEQEND
  0
POLYLINE
  8
Default Layer
 66
   1
 39
0.000000
 70
    0
  0
VERTEX
  8
0
 10
3965.98576143
 20
-63.84724187
  0
VERTEX
  8
0
 10
3940.58576143
 20
-38.44724187
  0
SEQEND
  0
POLYLINE
  8
Default Layer
 66
   1
 39
0.000000
 70
    0
  0
VERTEX
  8
0
 10
4067.58576143
 20
-13.04724187
  0
VERTEX
  8
0
 10
4033.71909477
 20
-13.04724187
  0
VERTEX
  8
0
 10
4033.71909477
 20
-63.84724187
  0
SEQEND
  0
POLYLINE
  8
Default Layer
 66
   1
 39
0.000000
 70
    0
  0
VERTEX
  8
0
 10
4050.65242810
 20
-38.44724187
  0
VERTEX
  8
0
 10
4033.71909477
 20
-38.44724187
  0
SEQEND
  0
POLYLINE
  8
Default Layer
 66
   1
 39
0.000000
 70
    0
  0
VERTEX
  8
0
 10
4084.51909477
 20
-38.44724187
  0
VERTEX
  8
0
 10
4109.91909477
 20
-38.44724187
  0
VERTEX
  8
0
 10
4118.38576143
 20
-29.98057520
  0
VERTEX
  8
0
 10
4118.38576143
 20
-21.51390854
  0
VERTEX
  8
0
 10
4109.91909477
 20
-13.04724187
  0
VERTEX
  8
0
 10
4084.51909477
 20
-13.04724187
  0
VERTEX
  8
0
 10
4084.51909477
 20
-63.84724187
  0
SEQEND
  0
POLYLINE
  8
Default Layer
 66
   1
 39
0.000000
 70
    0
  0
VERTEX
  8
0
 10
4118.38576143
 20
-63.84724187
  0
VERTEX
  8
0
 10
4092.98576143
 20
-38.44724187
  0
SEQEND
  0
POLYLINE
  8
Default Layer
 66
   1
 39
0.000000
 70
    0
  0
VERTEX
  8
0
 10
4219.98576143
 20
-13.04724187
  0
VERTEX
  8
0
 10
4219.98576143
 20
-63.84724187
  0
VERTEX
  8
0
 10
4186.11909477
 20
-13.04724187
  0
VERTEX
  8
0
 10
4186.11909477
 20
-63.84724187
  0
SEQEND
  0
POLYLINE
  8
Default Layer
 66
   1
 39
0.000000
 70
    0
  0
VERTEX
  8
0
 10
4270.78576143
 20
-13.04724187
  0
VERTEX
  8
0
 10
4236.91909477
 20
-13.04724187
  0
SEQEND
  0
POLYLINE
  8
Default Layer
 66
   1
 39
0.000000
 70
    0
  0
VERTEX
  8
0
 10
4253.85242810
 20
-63.84724187
  0
VERTEX
  8
0
 10
4253.85242810
 20
-13.04724187
  0
SEQEND
  0
POLYLINE
  8
Default Layer
 66
   1
 39
0.000000
 70
    0
  0
VERTEX
  8
0
 10
4423.18576143
 20
-13.04724187
  0
VERTEX
  8
0
 10
4389.31909477
 20
-13.04724187
  0
VERTEX
  8
0
 10
4389.31909477
 20
-63.84724187
  0
SEQEND
  0
POLYLINE
  8
Default Layer
 66
   1
 39
0.000000
 70
    0
  0
VERTEX
  8
0
 10
4406.25242810
 20
-38.44724187
  0
VERTEX
  8
0
 10
4389.31909477
 20
-38.44724187
  0
SEQEND
  0
POLYLINE
  8
Default Layer
 66
   1
 39
0.000000
 70
    0
  0
VERTEX
  8
0
 10
4524.78576143
 20
-21.51390854
  0
VERTEX
  8
0
 10
4516.31909477
 20
-13.04724187
  0
VERTEX
  8
0
 10
4499.38576143
 20
-13.04724187
  0
VERTEX
  8
0
 10
4490.91909477
 20
-21.51390854
  0
VERTEX
  8
0
 10
4524.78576143
 20
-55.38057520
  0
VERTEX
  8
0
 10
4516.31909477
 20
-63.84724187
  0
VERTEX
  8
0
 10
4499.38576143
 20
-63.84724187
  0
VERTEX
  8
0
 10
4490.91909477
 20
-55.38057520
  0
SEQEND
  0
POLYLINE
  8
Default Layer
 66
   1
 39
0.000000
 70
    0
  0
VERTEX
  8
0
 10
4541.71909477
 20
-13.04724187
  0
VERTEX
  8
0
 10
4541.71909477
 20
-63.84724187
  0
SEQEND
  0
POLYLINE
  8
Default Layer
 66
   1
 39
0.000000
 70
    0
  0
VERTEX
  8
0
 10
4575.58576143
 20
-38.44724187
  0
VERTEX
  8
0
 10
4541.71909477
 20
-38.44724187
  0
SEQEND
  0
POLYLINE
  8
Default Layer
 66
   1
 39
0.000000
 70
    0
  0
VERTEX
  8
0
 10
4575.58576143
 20
-63.84724187
  0
VERTEX
  8
0
 10
4575.58576143
 20
-13.04724187
  0
SEQEND
  0
POLYLINE
  8
Default Layer
 66
   1
 39
0.000000
 70
    0
  0
VERTEX
  8
0
 10
4626.38576143
 20
-13.04724187
  0
VERTEX
  8
0
 10
4592.51909477
 20
-13.04724187
  0
VERTEX
  8
0
 10
4592.51909477
 20
-63.84724187
  0
VERTEX
  8
0
 10
4626.38576143
 20
-63.84724187
  0
SEQEND
  0
POLYLINE
  8
Default Layer
 66
   1
 39
0.000000
 70
    0
  0
VERTEX
  8
0
 10
4609.45242810
 20
-38.44724187
  0
VERTEX
  8
0
 10
4592.51909477
 20
-38.44724187
  0
SEQEND
  0
POLYLINE
  8
Default Layer
 66
   1
 39
0.000000
 70
    0
  0
VERTEX
  8
0
 10
4677.18576143
 20
-63.84724187
  0
VERTEX
  8
0
 10
4643.31909477
 20
-63.84724187
  0
VERTEX
  8
0
 10
4643.31909477
 20
-13.04724187
  0
SEQEND
  0
POLYLINE
  8
Default Layer
 66
   1
 39
0.000000
 70
    0
  0
VERTEX
  8
0
 10
4744.91909477
 20
-13.04724187
  0
VERTEX
  8
0
 10
4719.51909477
 20
-63.84724187
  0
VERTEX
  8
0
 10
4694.11909477
 20
-13.04724187
  0
SEQEND
  0
POLYLINE
  8
Default Layer
 66
   1
 39
0.000000
 70
    0
  0
VERTEX
  8
0
 10
4795.71909477
 20
-13.04724187
  0
VERTEX
  8
0
 10
4761.85242810
 20
-13.04724187
  0
VERTEX
  8
0
 10
4761.85242810
 20
-63.84724187
  0
VERTEX
  8
0
 10
4795.71909477
 20
-63.84724187
  0
SEQEND
  0
POLYLINE
  8
Default Layer
 66
   1
 39
0.000000
 70
    0
  0
VERTEX
  8
0
 10
4778.78576143
 20
-38.44724187
  0
VERTEX
  8
0
 10
4761.85242810
 20
-38.44724187
  0
SEQEND
  0
POLYLINE
  8
Default Layer
 66
   1
 39
0.000000
 70
    0
  0
VERTEX
  8
0
 10
4846.51909477
 20
-21.51390854
  0
VERTEX
  8
0
 10
4838.05242810
 20
-13.04724187
  0
VERTEX
  8
0
 10
4821.11909477
 20
-13.04724187
  0
VERTEX
  8
0
 10
4812.65242810
 20
-21.51390854
  0
VERTEX
  8
0
 10
4846.51909477
 20
-55.38057520
  0
VERTEX
  8
0
 10
4838.05242810
 20
-63.84724187
  0
VERTEX
  8
0
 10
4821.11909477
 20
-63.84724187
  0
VERTEX
  8
0
 10
4812.65242810
 20
-55.38057520
  0
SEQEND
  0
POLYLINE
  8
Default Layer
 66
   1
 39
0.000000
 70
    1
  0
VERTEX
  8
0
 10
4135.31909477
 20
-63.84724187
  0
VERTEX
  8
0
 10
4169.18576143
 20
-63.84724187
  0
VERTEX
  8
0
 10
4169.18576143
 20
-13.04724187
  0
VERTEX
  8
0
 10
4135.31909477
 20
-13.04724187
  0
VERTEX
  8
0
 10
4135.31909477
 20
-63.84724187
  0
SEQEND
  0
POLYLINE
  8
Default Layer
 66
   1
 39
0.000000
 70
    1
  0
VERTEX
  8
0
 10
4338.51909477
 20
-63.84724187
  0
VERTEX
  8
0
 10
4372.38576143
 20
-63.84724187
  0
VERTEX
  8
0
 10
4372.38576143
 20
-13.04724187
  0
VERTEX
  8
0
 10
4338.51909477
 20
-13.04724187
  0
VERTEX
  8
0
 10
4338.51909477
 20
-63.84724187
  0
SEQEND
  0
POLYLINE
  8
Default Layer
 66
   1
 39
0.000000
 70
    0
  0
VERTEX
  8
0
 10
-633.29561528
 20
1208.67835926
  0
VERTEX
  8
0
 10
-599.42894861
 20
1208.67835926
  0
SEQEND
  0
POLYLINE
  8
Default Layer
 66
   1
 39
0.000000
 70
    0
  0
VERTEX
  8
0
 10
-616.36228194
 20
1208.67835926
  0
VERTEX
  8
0
 10
-616.36228194
 20
1157.87835926
  0
SEQEND
  0
POLYLINE
  8
Default Layer
 66
   1
 39
0.000000
 70
    0
  0
VERTEX
  8
0
 10
-674.71004243
 20
785.14851485
  0
VERTEX
  8
0
 10
-674.71004243
 20
835.94851485
  0
VERTEX
  8
0
 10
-657.77670910
 20
802.08184818
  0
VERTEX
  8
0
 10
-640.84337577
 20
835.94851485
  0
VERTEX
  8
0
 10
-640.84337577
 20
785.14851485
  0
SEQEND
  0
POLYLINE
  8
Default Layer
 66
   1
 39
0.000000
 70
    0
  0
VERTEX
  8
0
 10
-660.90523338
 20
246.76096181
  0
VERTEX
  8
0
 10
-635.50523338
 20
246.76096181
  0
VERTEX
  8
0
 10
-627.03856671
 20
255.22762848
  0
VERTEX
  8
0
 10
-627.03856671
 20
263.69429514
  0
VERTEX
  8
0
 10
-635.50523338
 20
272.16096181
  0
VERTEX
  8
0
 10
-652.43856671
 20
272.16096181
  0
SEQEND
  0
POLYLINE
  8
Default Layer
 66
   1
 39
0.000000
 70
    0
  0
VERTEX
  8
0
 10
-635.50523338
 20
272.16096181
  0
VERTEX
  8
0
 10
-627.03856671
 20
280.62762848
  0
VERTEX
  8
0
 10
-627.03856671
 20
289.09429514
  0
VERTEX
  8
0
 10
-635.50523338
 20
297.56096181
  0
VERTEX
  8
0
 10
-660.90523338
 20
297.56096181
  0
SEQEND
  0
POLYLINE
  8
Default Layer
 66
   1
 39
0.000000
 70
    0
  0
VERTEX
  8
0
 10
-652.43856671
 20
297.56096181
  0
VERTEX
  8
0
 10
-652.43856671
 20
246.76096181
  0
SEQEND
  0
POLYLINE
  8
Default Layer
 66
   1
 39
0.000000
 70
    0
  0
VERTEX
  8
0
 10
3673.80480905
 20
1208.67835926
  0
VERTEX
  8
0
 10
3707.67147572
 20
1208.67835926
  0
SEQEND
  0
POLYLINE
  8
Default Layer
 66
   1
 39
0.000000
 70
    0
  0
VERTEX
  8
0
 10
3690.73814239
 20
1208.67835926
  0
VERTEX
  8
0
 10
3690.73814239
 20
1157.87835926
  0
SEQEND
  0
POLYLINE
  8
Default Layer
 66
   1
 39
0.000000
 70
    0
  0
VERTEX
  8
0
 10
3632.39038190
 20
785.14851485
  0
VERTEX
  8
0
 10
3632.39038190
 20
835.94851485
  0
VERTEX
  8
0
 10
3649.32371523
 20
802.08184818
  0
VERTEX
  8
0
 10
3666.25704856
 20
835.94851485
  0
VERTEX
  8
0
 10
3666.25704856
 20
785.14851485
  0
SEQEND
  0
POLYLINE
  8
Default Layer
 66
   1
 39
0.000000
 70
    0
  0
VERTEX
  8
0
 10
3646.19519095
 20
246.76096181
  0
VERTEX
  8
0
 10
3671.59519095
 20
246.76096181
  0
VERTEX
  8
0
 10
3680.06185761
 20
255.22762848
  0
VERTEX
  8
0
 10
3680.06185761
 20
263.69429514
  0
VERTEX
  8
0
 10
3671.59519095
 20
272.16096181
  0
VERTEX
  8
0
 10
3654.66185761
 20
272.16096181
  0
SEQEND
  0
POLYLINE
  8
Default Layer
 66
   1
 39
0.000000
 70
    0
  0
VERTEX
  8
0
 10
3671.59519095
 20
272.16096181
  0
VERTEX
  8
0
 10
3680.06185761
 20
280.62762848
  0
VERTEX
  8
0
 10
3680.06185761
 20
289.09429514
  0
VERTEX
  8
0
 10
3671.59519095
 20
297.56096181
  0
VERTEX
  8
0
 10
3646.19519095
 20
297.56096181
  0
SEQEND
  0
POLYLINE
  8
Default Layer
 66
   1
 39
0.000000
 70
    0
  0
VERTEX
  8
0
 10
3654.66185761
 20
297.56096181
  0
VERTEX
  8
0
 10
3654.66185761
 20
246.76096181
  0
SEQEND
  0
ENDSEC
  0
EOF
