  0
SECTION
  2
HEADER
  9
$ACADVER
  1
AC1009
  9
$EXTMIN
 10
-1023.65997171
 20
-802.40452617
 30
0.0
  9
$EXTMAX
 10
3243.54002829
 20
2804.92248939
 30
0.0
  0
ENDSEC
  0
SECTION
  2
TABLES
  0
TABLE
  2
LAYER
 70
1
 0
LAYER
 2
Default Layer
 70
0
 62
1
 6
CONTINUOUS
 0
ENDTAB
 0
ENDSEC
  0
SECTION
  2
ENTITIES
  0
POLYLINE
  8
Default Layer
 66
   1
 39
0.000000
 70
    1
  0
VERTEX
  8
0
 10
593.70446605
 20
2002.47365276
  0
VERTEX
  8
0
 10
593.71479183
 20
2002.67814114
  0
VERTEX
  8
0
 10
593.74509895
 20
2002.87672252
  0
VERTEX
  8
0
 10
593.79438210
 20
2003.06839158
  0
VERTEX
  8
0
 10
593.86163597
 20
2003.25214302
  0
VERTEX
  8
0
 10
593.94585525
 20
2003.42697152
  0
VERTEX
  8
0
 10
594.04603464
 20
2003.59187178
  0
VERTEX
  8
0
 10
594.16116883
 20
2003.74583848
  0
VERTEX
  8
0
 10
594.29025249
 20
2003.88786632
  0
VERTEX
  8
0
 10
594.43228033
 20
2004.01694999
  0
VERTEX
  8
0
 10
594.58624704
 20
2004.13208417
  0
VERTEX
  8
0
 10
594.75114729
 20
2004.23226356
  0
VERTEX
  8
0
 10
594.92597580
 20
2004.31648284
  0
VERTEX
  8
0
 10
595.10972723
 20
2004.38373672
  0
VERTEX
  8
0
 10
595.30139630
 20
2004.43301987
  0
VERTEX
  8
0
 10
595.49997767
 20
2004.46332698
  0
VERTEX
  8
0
 10
595.70446605
 20
2004.47365276
  0
VERTEX
  8
0
 10
595.90895444
 20
2004.46332698
  0
VERTEX
  8
0
 10
596.10753581
 20
2004.43301987
  0
VERTEX
  8
0
 10
596.29920487
 20
2004.38373672
  0
VERTEX
  8
0
 10
596.48295631
 20
2004.31648284
  0
VERTEX
  8
0
 10
596.65778481
 20
2004.23226356
  0
VERTEX
  8
0
 10
596.82268507
 20
2004.13208417
  0
VERTEX
  8
0
 10
596.97665178
 20
2004.01694999
  0
VERTEX
  8
0
 10
597.11867962
 20
2003.88786632
  0
VERTEX
  8
0
 10
597.24776328
 20
2003.74583848
  0
VERTEX
  8
0
 10
597.36289746
 20
2003.59187178
  0
VERTEX
  8
0
 10
597.46307685
 20
2003.42697152
  0
VERTEX
  8
0
 10
597.54729614
 20
2003.25214302
  0
VERTEX
  8
0
 10
597.61455001
 20
2003.06839158
  0
VERTEX
  8
0
 10
597.66383316
 20
2002.87672252
  0
VERTEX
  8
0
 10
597.69414028
 20
2002.67814114
  0
VERTEX
  8
0
 10
597.70446605
 20
2002.47365276
  0
VERTEX
  8
0
 10
597.69414028
 20
2002.26916438
  0
VERTEX
  8
0
 10
597.66383316
 20
2002.07058300
  0
VERTEX
  8
0
 10
597.61455001
 20
2001.87891394
  0
VERTEX
  8
0
 10
597.54729614
 20
2001.69516250
  0
VERTEX
  8
0
 10
597.46307685
 20
2001.52033400
  0
VERTEX
  8
0
 10
597.36289746
 20
2001.35543374
  0
VERTEX
  8
0
 10
597.24776328
 20
2001.20146704
  0
VERTEX
  8
0
 10
597.11867962
 20
2001.05943920
  0
VERTEX
  8
0
 10
596.97665178
 20
2000.93035553
  0
VERTEX
  8
0
 10
596.82268507
 20
2000.81522135
  0
VERTEX
  8
0
 10
596.65778481
 20
2000.71504196
  0
VERTEX
  8
0
 10
596.48295631
 20
2000.63082267
  0
VERTEX
  8
0
 10
596.29920487
 20
2000.56356880
  0
VERTEX
  8
0
 10
596.10753581
 20
2000.51428565
  0
VERTEX
  8
0
 10
595.90895444
 20
2000.48397853
  0
VERTEX
  8
0
 10
595.70446605
 20
2000.47365276
  0
VERTEX
  8
0
 10
595.49997767
 20
2000.48397853
  0
VERTEX
  8
0
 10
595.30139630
 20
2000.51428565
  0
VERTEX
  8
0
 10
595.10972723
 20
2000.56356880
  0
VERTEX
  8
0
 10
594.92597580
 20
2000.63082267
  0
VERTEX
  8
0
 10
594.75114729
 20
2000.71504196
  0
VERTEX
  8
0
 10
594.58624704
 20
2000.81522135
  0
VERTEX
  8
0
 10
594.43228033
 20
2000.93035553
  0
VERTEX
  8
0
 10
594.29025249
 20
2001.05943920
  0
VERTEX
  8
0
 10
594.16116883
 20
2001.20146704
  0
VERTEX
  8
0
 10
594.04603464
 20
2001.35543374
  0
VERTEX
  8
0
 10
593.94585525
 20
2001.52033400
  0
VERTEX
  8
0
 10
593.86163597
 20
2001.69516250
  0
VERTEX
  8
0
 10
593.79438210
 20
2001.87891394
  0
VERTEX
  8
0
 10
593.74509895
 20
2002.07058300
  0
VERTEX
  8
0
 10
593.71479183
 20
2002.26916438
  0
VERTEX
  8
0
 10
593.70446605
 20
2002.47365276
  0
SEQEND
  0
POLYLINE
  8
Default Layer
 66
   1
 39
0.000000
 70
    1
  0
VERTEX
  8
0
 10
911.94067539
 20
2002.47365276
  0
VERTEX
  8
0
 10
911.95100116
 20
2002.67814114
  0
VERTEX
  8
0
 10
911.98130828
 20
2002.87672252
  0
VERTEX
  8
0
 10
912.03059143
 20
2003.06839158
  0
VERTEX
  8
0
 10
912.09784530
 20
2003.25214302
  0
VERTEX
  8
0
 10
912.18206459
 20
2003.42697152
  0
VERTEX
  8
0
 10
912.28224398
 20
2003.59187178
  0
VERTEX
  8
0
 10
912.39737816
 20
2003.74583848
  0
VERTEX
  8
0
 10
912.52646183
 20
2003.88786632
  0
VERTEX
  8
0
 10
912.66848967
 20
2004.01694999
  0
VERTEX
  8
0
 10
912.82245637
 20
2004.13208417
  0
VERTEX
  8
0
 10
912.98735663
 20
2004.23226356
  0
VERTEX
  8
0
 10
913.16218513
 20
2004.31648284
  0
VERTEX
  8
0
 10
913.34593657
 20
2004.38373672
  0
VERTEX
  8
0
 10
913.53760563
 20
2004.43301987
  0
VERTEX
  8
0
 10
913.73618701
 20
2004.46332698
  0
VERTEX
  8
0
 10
913.94067539
 20
2004.47365276
  0
VERTEX
  8
0
 10
914.14516377
 20
2004.46332698
  0
VERTEX
  8
0
 10
914.34374515
 20
2004.43301987
  0
VERTEX
  8
0
 10
914.53541421
 20
2004.38373672
  0
VERTEX
  8
0
 10
914.71916565
 20
2004.31648284
  0
VERTEX
  8
0
 10
914.89399415
 20
2004.23226356
  0
VERTEX
  8
0
 10
915.05889441
 20
2004.13208417
  0
VERTEX
  8
0
 10
915.21286111
 20
2004.01694999
  0
VERTEX
  8
0
 10
915.35488895
 20
2003.88786632
  0
VERTEX
  8
0
 10
915.48397262
 20
2003.74583848
  0
VERTEX
  8
0
 10
915.59910680
 20
2003.59187178
  0
VERTEX
  8
0
 10
915.69928619
 20
2003.42697152
  0
VERTEX
  8
0
 10
915.78350547
 20
2003.25214302
  0
VERTEX
  8
0
 10
915.85075935
 20
2003.06839158
  0
VERTEX
  8
0
 10
915.90004250
 20
2002.87672252
  0
VERTEX
  8
0
 10
915.93034961
 20
2002.67814114
  0
VERTEX
  8
0
 10
915.94067539
 20
2002.47365276
  0
VERTEX
  8
0
 10
915.93034961
 20
2002.26916438
  0
VERTEX
  8
0
 10
915.90004250
 20
2002.07058300
  0
VERTEX
  8
0
 10
915.85075935
 20
2001.87891394
  0
VERTEX
  8
0
 10
915.78350547
 20
2001.69516250
  0
VERTEX
  8
0
 10
915.69928619
 20
2001.52033400
  0
VERTEX
  8
0
 10
915.59910680
 20
2001.35543374
  0
VERTEX
  8
0
 10
915.48397262
 20
2001.20146704
  0
VERTEX
  8
0
 10
915.35488895
 20
2001.05943920
  0
VERTEX
  8
0
 10
915.21286111
 20
2000.93035553
  0
VERTEX
  8
0
 10
915.05889441
 20
2000.81522135
  0
VERTEX
  8
0
 10
914.89399415
 20
2000.71504196
  0
VERTEX
  8
0
 10
914.71916565
 20
2000.63082267
  0
VERTEX
  8
0
 10
914.53541421
 20
2000.56356880
  0
VERTEX
  8
0
 10
914.34374515
 20
2000.51428565
  0
VERTEX
  8
0
 10
914.14516377
 20
2000.48397853
  0
VERTEX
  8
0
 10
913.94067539
 20
2000.47365276
  0
VERTEX
  8
0
 10
913.73618701
 20
2000.48397853
  0
VERTEX
  8
0
 10
913.53760563
 20
2000.51428565
  0
VERTEX
  8
0
 10
913.34593657
 20
2000.56356880
  0
VERTEX
  8
0
 10
913.16218513
 20
2000.63082267
  0
VERTEX
  8
0
 10
912.98735663
 20
2000.71504196
  0
VERTEX
  8
0
 10
912.82245637
 20
2000.81522135
  0
VERTEX
  8
0
 10
912.66848967
 20
2000.93035553
  0
VERTEX
  8
0
 10
912.52646183
 20
2001.05943920
  0
VERTEX
  8
0
 10
912.39737816
 20
2001.20146704
  0
VERTEX
  8
0
 10
912.28224398
 20
2001.35543374
  0
VERTEX
  8
0
 10
912.18206459
 20
2001.52033400
  0
VERTEX
  8
0
 10
912.09784530
 20
2001.69516250
  0
VERTEX
  8
0
 10
912.03059143
 20
2001.87891394
  0
VERTEX
  8
0
 10
911.98130828
 20
2002.07058300
  0
VERTEX
  8
0
 10
911.95100116
 20
2002.26916438
  0
VERTEX
  8
0
 10
911.94067539
 20
2002.47365276
  0
SEQEND
  0
POLYLINE
  8
Default Layer
 66
   1
 39
0.000000
 70
    1
  0
VERTEX
  8
0
 10
1201.70446605
 20
2001.82655233
  0
VERTEX
  8
0
 10
1201.71479183
 20
2002.03104072
  0
VERTEX
  8
0
 10
1201.74509895
 20
2002.22962209
  0
VERTEX
  8
0
 10
1201.79438210
 20
2002.42129115
  0
VERTEX
  8
0
 10
1201.86163597
 20
2002.60504259
  0
VERTEX
  8
0
 10
1201.94585525
 20
2002.77987109
  0
VERTEX
  8
0
 10
1202.04603464
 20
2002.94477135
  0
VERTEX
  8
0
 10
1202.16116883
 20
2003.09873806
  0
VERTEX
  8
0
 10
1202.29025249
 20
2003.24076590
  0
VERTEX
  8
0
 10
1202.43228033
 20
2003.36984956
  0
VERTEX
  8
0
 10
1202.58624704
 20
2003.48498374
  0
VERTEX
  8
0
 10
1202.75114729
 20
2003.58516313
  0
VERTEX
  8
0
 10
1202.92597580
 20
2003.66938242
  0
VERTEX
  8
0
 10
1203.10972723
 20
2003.73663629
  0
VERTEX
  8
0
 10
1203.30139630
 20
2003.78591944
  0
VERTEX
  8
0
 10
1203.49997767
 20
2003.81622656
  0
VERTEX
  8
0
 10
1203.70446605
 20
2003.82655233
  0
VERTEX
  8
0
 10
1203.90895444
 20
2003.81622656
  0
VERTEX
  8
0
 10
1204.10753581
 20
2003.78591944
  0
VERTEX
  8
0
 10
1204.29920487
 20
2003.73663629
  0
VERTEX
  8
0
 10
1204.48295631
 20
2003.66938242
  0
VERTEX
  8
0
 10
1204.65778481
 20
2003.58516313
  0
VERTEX
  8
0
 10
1204.82268507
 20
2003.48498374
  0
VERTEX
  8
0
 10
1204.97665178
 20
2003.36984956
  0
VERTEX
  8
0
 10
1205.11867962
 20
2003.24076590
  0
VERTEX
  8
0
 10
1205.24776328
 20
2003.09873806
  0
VERTEX
  8
0
 10
1205.36289746
 20
2002.94477135
  0
VERTEX
  8
0
 10
1205.46307685
 20
2002.77987109
  0
VERTEX
  8
0
 10
1205.54729614
 20
2002.60504259
  0
VERTEX
  8
0
 10
1205.61455001
 20
2002.42129115
  0
VERTEX
  8
0
 10
1205.66383316
 20
2002.22962209
  0
VERTEX
  8
0
 10
1205.69414028
 20
2002.03104072
  0
VERTEX
  8
0
 10
1205.70446605
 20
2001.82655233
  0
VERTEX
  8
0
 10
1205.69414028
 20
2001.62206395
  0
VERTEX
  8
0
 10
1205.66383316
 20
2001.42348258
  0
VERTEX
  8
0
 10
1205.61455001
 20
2001.23181351
  0
VERTEX
  8
0
 10
1205.54729614
 20
2001.04806208
  0
VERTEX
  8
0
 10
1205.46307685
 20
2000.87323357
  0
VERTEX
  8
0
 10
1205.36289746
 20
2000.70833332
  0
VERTEX
  8
0
 10
1205.24776328
 20
2000.55436661
  0
VERTEX
  8
0
 10
1205.11867962
 20
2000.41233877
  0
VERTEX
  8
0
 10
1204.97665178
 20
2000.28325511
  0
VERTEX
  8
0
 10
1204.82268507
 20
2000.16812092
  0
VERTEX
  8
0
 10
1204.65778481
 20
2000.06794153
  0
VERTEX
  8
0
 10
1204.48295631
 20
1999.98372225
  0
VERTEX
  8
0
 10
1204.29920487
 20
1999.91646838
  0
VERTEX
  8
0
 10
1204.10753581
 20
1999.86718523
  0
VERTEX
  8
0
 10
1203.90895444
 20
1999.83687811
  0
VERTEX
  8
0
 10
1203.70446605
 20
1999.82655233
  0
VERTEX
  8
0
 10
1203.49997767
 20
1999.83687811
  0
VERTEX
  8
0
 10
1203.30139630
 20
1999.86718523
  0
VERTEX
  8
0
 10
1203.10972723
 20
1999.91646838
  0
VERTEX
  8
0
 10
1202.92597580
 20
1999.98372225
  0
VERTEX
  8
0
 10
1202.75114729
 20
2000.06794153
  0
VERTEX
  8
0
 10
1202.58624704
 20
2000.16812092
  0
VERTEX
  8
0
 10
1202.43228033
 20
2000.28325511
  0
VERTEX
  8
0
 10
1202.29025249
 20
2000.41233877
  0
VERTEX
  8
0
 10
1202.16116883
 20
2000.55436661
  0
VERTEX
  8
0
 10
1202.04603464
 20
2000.70833332
  0
VERTEX
  8
0
 10
1201.94585525
 20
2000.87323357
  0
VERTEX
  8
0
 10
1201.86163597
 20
2001.04806208
  0
VERTEX
  8
0
 10
1201.79438210
 20
2001.23181351
  0
VERTEX
  8
0
 10
1201.74509895
 20
2001.42348258
  0
VERTEX
  8
0
 10
1201.71479183
 20
2001.62206395
  0
VERTEX
  8
0
 10
1201.70446605
 20
2001.82655233
  0
SEQEND
  0
POLYLINE
  8
Default Layer
 66
   1
 39
0.000000
 70
    1
  0
VERTEX
  8
0
 10
593.70446605
 20
1791.00252829
  0
VERTEX
  8
0
 10
593.71479183
 20
1791.20701667
  0
VERTEX
  8
0
 10
593.74509895
 20
1791.40559805
  0
VERTEX
  8
0
 10
593.79438210
 20
1791.59726711
  0
VERTEX
  8
0
 10
593.86163597
 20
1791.78101855
  0
VERTEX
  8
0
 10
593.94585525
 20
1791.95584705
  0
VERTEX
  8
0
 10
594.04603464
 20
1792.12074731
  0
VERTEX
  8
0
 10
594.16116883
 20
1792.27471401
  0
VERTEX
  8
0
 10
594.29025249
 20
1792.41674185
  0
VERTEX
  8
0
 10
594.43228033
 20
1792.54582552
  0
VERTEX
  8
0
 10
594.58624704
 20
1792.66095970
  0
VERTEX
  8
0
 10
594.75114729
 20
1792.76113909
  0
VERTEX
  8
0
 10
594.92597580
 20
1792.84535837
  0
VERTEX
  8
0
 10
595.10972723
 20
1792.91261225
  0
VERTEX
  8
0
 10
595.30139630
 20
1792.96189540
  0
VERTEX
  8
0
 10
595.49997767
 20
1792.99220251
  0
VERTEX
  8
0
 10
595.70446605
 20
1793.00252829
  0
VERTEX
  8
0
 10
595.90895444
 20
1792.99220251
  0
VERTEX
  8
0
 10
596.10753581
 20
1792.96189540
  0
VERTEX
  8
0
 10
596.29920487
 20
1792.91261225
  0
VERTEX
  8
0
 10
596.48295631
 20
1792.84535837
  0
VERTEX
  8
0
 10
596.65778481
 20
1792.76113909
  0
VERTEX
  8
0
 10
596.82268507
 20
1792.66095970
  0
VERTEX
  8
0
 10
596.97665178
 20
1792.54582552
  0
VERTEX
  8
0
 10
597.11867962
 20
1792.41674185
  0
VERTEX
  8
0
 10
597.24776328
 20
1792.27471401
  0
VERTEX
  8
0
 10
597.36289746
 20
1792.12074731
  0
VERTEX
  8
0
 10
597.46307685
 20
1791.95584705
  0
VERTEX
  8
0
 10
597.54729614
 20
1791.78101855
  0
VERTEX
  8
0
 10
597.61455001
 20
1791.59726711
  0
VERTEX
  8
0
 10
597.66383316
 20
1791.40559805
  0
VERTEX
  8
0
 10
597.69414028
 20
1791.20701667
  0
VERTEX
  8
0
 10
597.70446605
 20
1791.00252829
  0
VERTEX
  8
0
 10
597.69414028
 20
1790.79803991
  0
VERTEX
  8
0
 10
597.66383316
 20
1790.59945853
  0
VERTEX
  8
0
 10
597.61455001
 20
1790.40778947
  0
VERTEX
  8
0
 10
597.54729614
 20
1790.22403803
  0
VERTEX
  8
0
 10
597.46307685
 20
1790.04920953
  0
VERTEX
  8
0
 10
597.36289746
 20
1789.88430927
  0
VERTEX
  8
0
 10
597.24776328
 20
1789.73034257
  0
VERTEX
  8
0
 10
597.11867962
 20
1789.58831473
  0
VERTEX
  8
0
 10
596.97665178
 20
1789.45923106
  0
VERTEX
  8
0
 10
596.82268507
 20
1789.34409688
  0
VERTEX
  8
0
 10
596.65778481
 20
1789.24391749
  0
VERTEX
  8
0
 10
596.48295631
 20
1789.15969820
  0
VERTEX
  8
0
 10
596.29920487
 20
1789.09244433
  0
VERTEX
  8
0
 10
596.10753581
 20
1789.04316118
  0
VERTEX
  8
0
 10
595.90895444
 20
1789.01285406
  0
VERTEX
  8
0
 10
595.70446605
 20
1789.00252829
  0
VERTEX
  8
0
 10
595.49997767
 20
1789.01285406
  0
VERTEX
  8
0
 10
595.30139630
 20
1789.04316118
  0
VERTEX
  8
0
 10
595.10972723
 20
1789.09244433
  0
VERTEX
  8
0
 10
594.92597580
 20
1789.15969820
  0
VERTEX
  8
0
 10
594.75114729
 20
1789.24391749
  0
VERTEX
  8
0
 10
594.58624704
 20
1789.34409688
  0
VERTEX
  8
0
 10
594.43228033
 20
1789.45923106
  0
VERTEX
  8
0
 10
594.29025249
 20
1789.58831473
  0
VERTEX
  8
0
 10
594.16116883
 20
1789.73034257
  0
VERTEX
  8
0
 10
594.04603464
 20
1789.88430927
  0
VERTEX
  8
0
 10
593.94585525
 20
1790.04920953
  0
VERTEX
  8
0
 10
593.86163597
 20
1790.22403803
  0
VERTEX
  8
0
 10
593.79438210
 20
1790.40778947
  0
VERTEX
  8
0
 10
593.74509895
 20
1790.59945853
  0
VERTEX
  8
0
 10
593.71479183
 20
1790.79803991
  0
VERTEX
  8
0
 10
593.70446605
 20
1791.00252829
  0
SEQEND
  0
POLYLINE
  8
Default Layer
 66
   1
 39
0.000000
 70
    1
  0
VERTEX
  8
0
 10
898.67611121
 20
1785.31343706
  0
VERTEX
  8
0
 10
928.69113950
 20
1785.31343706
  0
VERTEX
  8
0
 10
928.69113950
 20
1797.61343706
  0
VERTEX
  8
0
 10
898.67611121
 20
1797.61343706
  0
VERTEX
  8
0
 10
898.67611121
 20
1785.31343706
  0
SEQEND
  0
POLYLINE
  8
Default Layer
 66
   1
 39
0.000000
 70
    1
  0
VERTEX
  8
0
 10
593.70446605
 20
1581.69660184
  0
VERTEX
  8
0
 10
593.71479183
 20
1581.90109022
  0
VERTEX
  8
0
 10
593.74509895
 20
1582.09967160
  0
VERTEX
  8
0
 10
593.79438210
 20
1582.29134066
  0
VERTEX
  8
0
 10
593.86163597
 20
1582.47509210
  0
VERTEX
  8
0
 10
593.94585525
 20
1582.64992060
  0
VERTEX
  8
0
 10
594.04603464
 20
1582.81482086
  0
VERTEX
  8
0
 10
594.16116883
 20
1582.96878756
  0
VERTEX
  8
0
 10
594.29025249
 20
1583.11081540
  0
VERTEX
  8
0
 10
594.43228033
 20
1583.23989907
  0
VERTEX
  8
0
 10
594.58624704
 20
1583.35503325
  0
VERTEX
  8
0
 10
594.75114729
 20
1583.45521264
  0
VERTEX
  8
0
 10
594.92597580
 20
1583.53943192
  0
VERTEX
  8
0
 10
595.10972723
 20
1583.60668580
  0
VERTEX
  8
0
 10
595.30139630
 20
1583.65596895
  0
VERTEX
  8
0
 10
595.49997767
 20
1583.68627606
  0
VERTEX
  8
0
 10
595.70446605
 20
1583.69660184
  0
VERTEX
  8
0
 10
595.90895444
 20
1583.68627606
  0
VERTEX
  8
0
 10
596.10753581
 20
1583.65596895
  0
VERTEX
  8
0
 10
596.29920487
 20
1583.60668580
  0
VERTEX
  8
0
 10
596.48295631
 20
1583.53943192
  0
VERTEX
  8
0
 10
596.65778481
 20
1583.45521264
  0
VERTEX
  8
0
 10
596.82268507
 20
1583.35503325
  0
VERTEX
  8
0
 10
596.97665178
 20
1583.23989907
  0
VERTEX
  8
0
 10
597.11867962
 20
1583.11081540
  0
VERTEX
  8
0
 10
597.24776328
 20
1582.96878756
  0
VERTEX
  8
0
 10
597.36289746
 20
1582.81482086
  0
VERTEX
  8
0
 10
597.46307685
 20
1582.64992060
  0
VERTEX
  8
0
 10
597.54729614
 20
1582.47509210
  0
VERTEX
  8
0
 10
597.61455001
 20
1582.29134066
  0
VERTEX
  8
0
 10
597.66383316
 20
1582.09967160
  0
VERTEX
  8
0
 10
597.69414028
 20
1581.90109022
  0
VERTEX
  8
0
 10
597.70446605
 20
1581.69660184
  0
VERTEX
  8
0
 10
597.69414028
 20
1581.49211346
  0
VERTEX
  8
0
 10
597.66383316
 20
1581.29353208
  0
VERTEX
  8
0
 10
597.61455001
 20
1581.10186302
  0
VERTEX
  8
0
 10
597.54729614
 20
1580.91811158
  0
VERTEX
  8
0
 10
597.46307685
 20
1580.74328308
  0
VERTEX
  8
0
 10
597.36289746
 20
1580.57838282
  0
VERTEX
  8
0
 10
597.24776328
 20
1580.42441612
  0
VERTEX
  8
0
 10
597.11867962
 20
1580.28238828
  0
VERTEX
  8
0
 10
596.97665178
 20
1580.15330461
  0
VERTEX
  8
0
 10
596.82268507
 20
1580.03817043
  0
VERTEX
  8
0
 10
596.65778481
 20
1579.93799104
  0
VERTEX
  8
0
 10
596.48295631
 20
1579.85377175
  0
VERTEX
  8
0
 10
596.29920487
 20
1579.78651788
  0
VERTEX
  8
0
 10
596.10753581
 20
1579.73723473
  0
VERTEX
  8
0
 10
595.90895444
 20
1579.70692761
  0
VERTEX
  8
0
 10
595.70446605
 20
1579.69660184
  0
VERTEX
  8
0
 10
595.49997767
 20
1579.70692761
  0
VERTEX
  8
0
 10
595.30139630
 20
1579.73723473
  0
VERTEX
  8
0
 10
595.10972723
 20
1579.78651788
  0
VERTEX
  8
0
 10
594.92597580
 20
1579.85377175
  0
VERTEX
  8
0
 10
594.75114729
 20
1579.93799104
  0
VERTEX
  8
0
 10
594.58624704
 20
1580.03817043
  0
VERTEX
  8
0
 10
594.43228033
 20
1580.15330461
  0
VERTEX
  8
0
 10
594.29025249
 20
1580.28238828
  0
VERTEX
  8
0
 10
594.16116883
 20
1580.42441612
  0
VERTEX
  8
0
 10
594.04603464
 20
1580.57838282
  0
VERTEX
  8
0
 10
593.94585525
 20
1580.74328308
  0
VERTEX
  8
0
 10
593.86163597
 20
1580.91811158
  0
VERTEX
  8
0
 10
593.79438210
 20
1581.10186302
  0
VERTEX
  8
0
 10
593.74509895
 20
1581.29353208
  0
VERTEX
  8
0
 10
593.71479183
 20
1581.49211346
  0
VERTEX
  8
0
 10
593.70446605
 20
1581.69660184
  0
SEQEND
  0
POLYLINE
  8
Default Layer
 66
   1
 39
0.000000
 70
    1
  0
VERTEX
  8
0
 10
911.94067539
 20
1581.69660184
  0
VERTEX
  8
0
 10
911.95100116
 20
1581.90109022
  0
VERTEX
  8
0
 10
911.98130828
 20
1582.09967160
  0
VERTEX
  8
0
 10
912.03059143
 20
1582.29134066
  0
VERTEX
  8
0
 10
912.09784530
 20
1582.47509210
  0
VERTEX
  8
0
 10
912.18206459
 20
1582.64992060
  0
VERTEX
  8
0
 10
912.28224398
 20
1582.81482086
  0
VERTEX
  8
0
 10
912.39737816
 20
1582.96878756
  0
VERTEX
  8
0
 10
912.52646183
 20
1583.11081540
  0
VERTEX
  8
0
 10
912.66848967
 20
1583.23989907
  0
VERTEX
  8
0
 10
912.82245637
 20
1583.35503325
  0
VERTEX
  8
0
 10
912.98735663
 20
1583.45521264
  0
VERTEX
  8
0
 10
913.16218513
 20
1583.53943192
  0
VERTEX
  8
0
 10
913.34593657
 20
1583.60668580
  0
VERTEX
  8
0
 10
913.53760563
 20
1583.65596895
  0
VERTEX
  8
0
 10
913.73618701
 20
1583.68627606
  0
VERTEX
  8
0
 10
913.94067539
 20
1583.69660184
  0
VERTEX
  8
0
 10
914.14516377
 20
1583.68627606
  0
VERTEX
  8
0
 10
914.34374515
 20
1583.65596895
  0
VERTEX
  8
0
 10
914.53541421
 20
1583.60668580
  0
VERTEX
  8
0
 10
914.71916565
 20
1583.53943192
  0
VERTEX
  8
0
 10
914.89399415
 20
1583.45521264
  0
VERTEX
  8
0
 10
915.05889441
 20
1583.35503325
  0
VERTEX
  8
0
 10
915.21286111
 20
1583.23989907
  0
VERTEX
  8
0
 10
915.35488895
 20
1583.11081540
  0
VERTEX
  8
0
 10
915.48397262
 20
1582.96878756
  0
VERTEX
  8
0
 10
915.59910680
 20
1582.81482086
  0
VERTEX
  8
0
 10
915.69928619
 20
1582.64992060
  0
VERTEX
  8
0
 10
915.78350547
 20
1582.47509210
  0
VERTEX
  8
0
 10
915.85075935
 20
1582.29134066
  0
VERTEX
  8
0
 10
915.90004250
 20
1582.09967160
  0
VERTEX
  8
0
 10
915.93034961
 20
1581.90109022
  0
VERTEX
  8
0
 10
915.94067539
 20
1581.69660184
  0
VERTEX
  8
0
 10
915.93034961
 20
1581.49211346
  0
VERTEX
  8
0
 10
915.90004250
 20
1581.29353208
  0
VERTEX
  8
0
 10
915.85075935
 20
1581.10186302
  0
VERTEX
  8
0
 10
915.78350547
 20
1580.91811158
  0
VERTEX
  8
0
 10
915.69928619
 20
1580.74328308
  0
VERTEX
  8
0
 10
915.59910680
 20
1580.57838282
  0
VERTEX
  8
0
 10
915.48397262
 20
1580.42441612
  0
VERTEX
  8
0
 10
915.35488895
 20
1580.28238828
  0
VERTEX
  8
0
 10
915.21286111
 20
1580.15330461
  0
VERTEX
  8
0
 10
915.05889441
 20
1580.03817043
  0
VERTEX
  8
0
 10
914.89399415
 20
1579.93799104
  0
VERTEX
  8
0
 10
914.71916565
 20
1579.85377175
  0
VERTEX
  8
0
 10
914.53541421
 20
1579.78651788
  0
VERTEX
  8
0
 10
914.34374515
 20
1579.73723473
  0
VERTEX
  8
0
 10
914.14516377
 20
1579.70692761
  0
VERTEX
  8
0
 10
913.94067539
 20
1579.69660184
  0
VERTEX
  8
0
 10
913.73618701
 20
1579.70692761
  0
VERTEX
  8
0
 10
913.53760563
 20
1579.73723473
  0
VERTEX
  8
0
 10
913.34593657
 20
1579.78651788
  0
VERTEX
  8
0
 10
913.16218513
 20
1579.85377175
  0
VERTEX
  8
0
 10
912.98735663
 20
1579.93799104
  0
VERTEX
  8
0
 10
912.82245637
 20
1580.03817043
  0
VERTEX
  8
0
 10
912.66848967
 20
1580.15330461
  0
VERTEX
  8
0
 10
912.52646183
 20
1580.28238828
  0
VERTEX
  8
0
 10
912.39737816
 20
1580.42441612
  0
VERTEX
  8
0
 10
912.28224398
 20
1580.57838282
  0
VERTEX
  8
0
 10
912.18206459
 20
1580.74328308
  0
VERTEX
  8
0
 10
912.09784530
 20
1580.91811158
  0
VERTEX
  8
0
 10
912.03059143
 20
1581.10186302
  0
VERTEX
  8
0
 10
911.98130828
 20
1581.29353208
  0
VERTEX
  8
0
 10
911.95100116
 20
1581.49211346
  0
VERTEX
  8
0
 10
911.94067539
 20
1581.69660184
  0
SEQEND
  0
POLYLINE
  8
Default Layer
 66
   1
 39
0.000000
 70
    1
  0
VERTEX
  8
0
 10
1201.70446605
 20
1581.69660184
  0
VERTEX
  8
0
 10
1201.71479183
 20
1581.90109022
  0
VERTEX
  8
0
 10
1201.74509895
 20
1582.09967160
  0
VERTEX
  8
0
 10
1201.79438210
 20
1582.29134066
  0
VERTEX
  8
0
 10
1201.86163597
 20
1582.47509210
  0
VERTEX
  8
0
 10
1201.94585525
 20
1582.64992060
  0
VERTEX
  8
0
 10
1202.04603464
 20
1582.81482086
  0
VERTEX
  8
0
 10
1202.16116883
 20
1582.96878756
  0
VERTEX
  8
0
 10
1202.29025249
 20
1583.11081540
  0
VERTEX
  8
0
 10
1202.43228033
 20
1583.23989907
  0
VERTEX
  8
0
 10
1202.58624704
 20
1583.35503325
  0
VERTEX
  8
0
 10
1202.75114729
 20
1583.45521264
  0
VERTEX
  8
0
 10
1202.92597580
 20
1583.53943192
  0
VERTEX
  8
0
 10
1203.10972723
 20
1583.60668580
  0
VERTEX
  8
0
 10
1203.30139630
 20
1583.65596895
  0
VERTEX
  8
0
 10
1203.49997767
 20
1583.68627606
  0
VERTEX
  8
0
 10
1203.70446605
 20
1583.69660184
  0
VERTEX
  8
0
 10
1203.90895444
 20
1583.68627606
  0
VERTEX
  8
0
 10
1204.10753581
 20
1583.65596895
  0
VERTEX
  8
0
 10
1204.29920487
 20
1583.60668580
  0
VERTEX
  8
0
 10
1204.48295631
 20
1583.53943192
  0
VERTEX
  8
0
 10
1204.65778481
 20
1583.45521264
  0
VERTEX
  8
0
 10
1204.82268507
 20
1583.35503325
  0
VERTEX
  8
0
 10
1204.97665178
 20
1583.23989907
  0
VERTEX
  8
0
 10
1205.11867962
 20
1583.11081540
  0
VERTEX
  8
0
 10
1205.24776328
 20
1582.96878756
  0
VERTEX
  8
0
 10
1205.36289746
 20
1582.81482086
  0
VERTEX
  8
0
 10
1205.46307685
 20
1582.64992060
  0
VERTEX
  8
0
 10
1205.54729614
 20
1582.47509210
  0
VERTEX
  8
0
 10
1205.61455001
 20
1582.29134066
  0
VERTEX
  8
0
 10
1205.66383316
 20
1582.09967160
  0
VERTEX
  8
0
 10
1205.69414028
 20
1581.90109022
  0
VERTEX
  8
0
 10
1205.70446605
 20
1581.69660184
  0
VERTEX
  8
0
 10
1205.69414028
 20
1581.49211346
  0
VERTEX
  8
0
 10
1205.66383316
 20
1581.29353208
  0
VERTEX
  8
0
 10
1205.61455001
 20
1581.10186302
  0
VERTEX
  8
0
 10
1205.54729614
 20
1580.91811158
  0
VERTEX
  8
0
 10
1205.46307685
 20
1580.74328308
  0
VERTEX
  8
0
 10
1205.36289746
 20
1580.57838282
  0
VERTEX
  8
0
 10
1205.24776328
 20
1580.42441612
  0
VERTEX
  8
0
 10
1205.11867962
 20
1580.28238828
  0
VERTEX
  8
0
 10
1204.97665178
 20
1580.15330461
  0
VERTEX
  8
0
 10
1204.82268507
 20
1580.03817043
  0
VERTEX
  8
0
 10
1204.65778481
 20
1579.93799104
  0
VERTEX
  8
0
 10
1204.48295631
 20
1579.85377175
  0
VERTEX
  8
0
 10
1204.29920487
 20
1579.78651788
  0
VERTEX
  8
0
 10
1204.10753581
 20
1579.73723473
  0
VERTEX
  8
0
 10
1203.90895444
 20
1579.70692761
  0
VERTEX
  8
0
 10
1203.70446605
 20
1579.69660184
  0
VERTEX
  8
0
 10
1203.49997767
 20
1579.70692761
  0
VERTEX
  8
0
 10
1203.30139630
 20
1579.73723473
  0
VERTEX
  8
0
 10
1203.10972723
 20
1579.78651788
  0
VERTEX
  8
0
 10
1202.92597580
 20
1579.85377175
  0
VERTEX
  8
0
 10
1202.75114729
 20
1579.93799104
  0
VERTEX
  8
0
 10
1202.58624704
 20
1580.03817043
  0
VERTEX
  8
0
 10
1202.43228033
 20
1580.15330461
  0
VERTEX
  8
0
 10
1202.29025249
 20
1580.28238828
  0
VERTEX
  8
0
 10
1202.16116883
 20
1580.42441612
  0
VERTEX
  8
0
 10
1202.04603464
 20
1580.57838282
  0
VERTEX
  8
0
 10
1201.94585525
 20
1580.74328308
  0
VERTEX
  8
0
 10
1201.86163597
 20
1580.91811158
  0
VERTEX
  8
0
 10
1201.79438210
 20
1581.10186302
  0
VERTEX
  8
0
 10
1201.74509895
 20
1581.29353208
  0
VERTEX
  8
0
 10
1201.71479183
 20
1581.49211346
  0
VERTEX
  8
0
 10
1201.70446605
 20
1581.69660184
  0
SEQEND
  0
POLYLINE
  8
Default Layer
 66
   1
 39
0.000000
 70
    1
  0
VERTEX
  8
0
 10
593.70446605
 20
1371.55073904
  0
VERTEX
  8
0
 10
593.71479183
 20
1371.75522742
  0
VERTEX
  8
0
 10
593.74509895
 20
1371.95380880
  0
VERTEX
  8
0
 10
593.79438210
 20
1372.14547786
  0
VERTEX
  8
0
 10
593.86163597
 20
1372.32922930
  0
VERTEX
  8
0
 10
593.94585525
 20
1372.50405780
  0
VERTEX
  8
0
 10
594.04603464
 20
1372.66895806
  0
VERTEX
  8
0
 10
594.16116883
 20
1372.82292476
  0
VERTEX
  8
0
 10
594.29025249
 20
1372.96495260
  0
VERTEX
  8
0
 10
594.43228033
 20
1373.09403627
  0
VERTEX
  8
0
 10
594.58624704
 20
1373.20917045
  0
VERTEX
  8
0
 10
594.75114729
 20
1373.30934984
  0
VERTEX
  8
0
 10
594.92597580
 20
1373.39356912
  0
VERTEX
  8
0
 10
595.10972723
 20
1373.46082300
  0
VERTEX
  8
0
 10
595.30139630
 20
1373.51010615
  0
VERTEX
  8
0
 10
595.49997767
 20
1373.54041326
  0
VERTEX
  8
0
 10
595.70446605
 20
1373.55073904
  0
VERTEX
  8
0
 10
595.90895444
 20
1373.54041326
  0
VERTEX
  8
0
 10
596.10753581
 20
1373.51010615
  0
VERTEX
  8
0
 10
596.29920487
 20
1373.46082300
  0
VERTEX
  8
0
 10
596.48295631
 20
1373.39356912
  0
VERTEX
  8
0
 10
596.65778481
 20
1373.30934984
  0
VERTEX
  8
0
 10
596.82268507
 20
1373.20917045
  0
VERTEX
  8
0
 10
596.97665178
 20
1373.09403627
  0
VERTEX
  8
0
 10
597.11867962
 20
1372.96495260
  0
VERTEX
  8
0
 10
597.24776328
 20
1372.82292476
  0
VERTEX
  8
0
 10
597.36289746
 20
1372.66895806
  0
VERTEX
  8
0
 10
597.46307685
 20
1372.50405780
  0
VERTEX
  8
0
 10
597.54729614
 20
1372.32922930
  0
VERTEX
  8
0
 10
597.61455001
 20
1372.14547786
  0
VERTEX
  8
0
 10
597.66383316
 20
1371.95380880
  0
VERTEX
  8
0
 10
597.69414028
 20
1371.75522742
  0
VERTEX
  8
0
 10
597.70446605
 20
1371.55073904
  0
VERTEX
  8
0
 10
597.69414028
 20
1371.34625066
  0
VERTEX
  8
0
 10
597.66383316
 20
1371.14766928
  0
VERTEX
  8
0
 10
597.61455001
 20
1370.95600022
  0
VERTEX
  8
0
 10
597.54729614
 20
1370.77224878
  0
VERTEX
  8
0
 10
597.46307685
 20
1370.59742028
  0
VERTEX
  8
0
 10
597.36289746
 20
1370.43252002
  0
VERTEX
  8
0
 10
597.24776328
 20
1370.27855332
  0
VERTEX
  8
0
 10
597.11867962
 20
1370.13652548
  0
VERTEX
  8
0
 10
596.97665178
 20
1370.00744181
  0
VERTEX
  8
0
 10
596.82268507
 20
1369.89230763
  0
VERTEX
  8
0
 10
596.65778481
 20
1369.79212824
  0
VERTEX
  8
0
 10
596.48295631
 20
1369.70790895
  0
VERTEX
  8
0
 10
596.29920487
 20
1369.64065508
  0
VERTEX
  8
0
 10
596.10753581
 20
1369.59137193
  0
VERTEX
  8
0
 10
595.90895444
 20
1369.56106481
  0
VERTEX
  8
0
 10
595.70446605
 20
1369.55073904
  0
VERTEX
  8
0
 10
595.49997767
 20
1369.56106481
  0
VERTEX
  8
0
 10
595.30139630
 20
1369.59137193
  0
VERTEX
  8
0
 10
595.10972723
 20
1369.64065508
  0
VERTEX
  8
0
 10
594.92597580
 20
1369.70790895
  0
VERTEX
  8
0
 10
594.75114729
 20
1369.79212824
  0
VERTEX
  8
0
 10
594.58624704
 20
1369.89230763
  0
VERTEX
  8
0
 10
594.43228033
 20
1370.00744181
  0
VERTEX
  8
0
 10
594.29025249
 20
1370.13652548
  0
VERTEX
  8
0
 10
594.16116883
 20
1370.27855332
  0
VERTEX
  8
0
 10
594.04603464
 20
1370.43252002
  0
VERTEX
  8
0
 10
593.94585525
 20
1370.59742028
  0
VERTEX
  8
0
 10
593.86163597
 20
1370.77224878
  0
VERTEX
  8
0
 10
593.79438210
 20
1370.95600022
  0
VERTEX
  8
0
 10
593.74509895
 20
1371.14766928
  0
VERTEX
  8
0
 10
593.71479183
 20
1371.34625066
  0
VERTEX
  8
0
 10
593.70446605
 20
1371.55073904
  0
SEQEND
  0
POLYLINE
  8
Default Layer
 66
   1
 39
0.000000
 70
    1
  0
VERTEX
  8
0
 10
911.94067539
 20
1371.55073904
  0
VERTEX
  8
0
 10
911.95100116
 20
1371.75522742
  0
VERTEX
  8
0
 10
911.98130828
 20
1371.95380880
  0
VERTEX
  8
0
 10
912.03059143
 20
1372.14547786
  0
VERTEX
  8
0
 10
912.09784530
 20
1372.32922930
  0
VERTEX
  8
0
 10
912.18206459
 20
1372.50405780
  0
VERTEX
  8
0
 10
912.28224398
 20
1372.66895806
  0
VERTEX
  8
0
 10
912.39737816
 20
1372.82292476
  0
VERTEX
  8
0
 10
912.52646183
 20
1372.96495260
  0
VERTEX
  8
0
 10
912.66848967
 20
1373.09403627
  0
VERTEX
  8
0
 10
912.82245637
 20
1373.20917045
  0
VERTEX
  8
0
 10
912.98735663
 20
1373.30934984
  0
VERTEX
  8
0
 10
913.16218513
 20
1373.39356912
  0
VERTEX
  8
0
 10
913.34593657
 20
1373.46082300
  0
VERTEX
  8
0
 10
913.53760563
 20
1373.51010615
  0
VERTEX
  8
0
 10
913.73618701
 20
1373.54041326
  0
VERTEX
  8
0
 10
913.94067539
 20
1373.55073904
  0
VERTEX
  8
0
 10
914.14516377
 20
1373.54041326
  0
VERTEX
  8
0
 10
914.34374515
 20
1373.51010615
  0
VERTEX
  8
0
 10
914.53541421
 20
1373.46082300
  0
VERTEX
  8
0
 10
914.71916565
 20
1373.39356912
  0
VERTEX
  8
0
 10
914.89399415
 20
1373.30934984
  0
VERTEX
  8
0
 10
915.05889441
 20
1373.20917045
  0
VERTEX
  8
0
 10
915.21286111
 20
1373.09403627
  0
VERTEX
  8
0
 10
915.35488895
 20
1372.96495260
  0
VERTEX
  8
0
 10
915.48397262
 20
1372.82292476
  0
VERTEX
  8
0
 10
915.59910680
 20
1372.66895806
  0
VERTEX
  8
0
 10
915.69928619
 20
1372.50405780
  0
VERTEX
  8
0
 10
915.78350547
 20
1372.32922930
  0
VERTEX
  8
0
 10
915.85075935
 20
1372.14547786
  0
VERTEX
  8
0
 10
915.90004250
 20
1371.95380880
  0
VERTEX
  8
0
 10
915.93034961
 20
1371.75522742
  0
VERTEX
  8
0
 10
915.94067539
 20
1371.55073904
  0
VERTEX
  8
0
 10
915.93034961
 20
1371.34625066
  0
VERTEX
  8
0
 10
915.90004250
 20
1371.14766928
  0
VERTEX
  8
0
 10
915.85075935
 20
1370.95600022
  0
VERTEX
  8
0
 10
915.78350547
 20
1370.77224878
  0
VERTEX
  8
0
 10
915.69928619
 20
1370.59742028
  0
VERTEX
  8
0
 10
915.59910680
 20
1370.43252002
  0
VERTEX
  8
0
 10
915.48397262
 20
1370.27855332
  0
VERTEX
  8
0
 10
915.35488895
 20
1370.13652548
  0
VERTEX
  8
0
 10
915.21286111
 20
1370.00744181
  0
VERTEX
  8
0
 10
915.05889441
 20
1369.89230763
  0
VERTEX
  8
0
 10
914.89399415
 20
1369.79212824
  0
VERTEX
  8
0
 10
914.71916565
 20
1369.70790895
  0
VERTEX
  8
0
 10
914.53541421
 20
1369.64065508
  0
VERTEX
  8
0
 10
914.34374515
 20
1369.59137193
  0
VERTEX
  8
0
 10
914.14516377
 20
1369.56106481
  0
VERTEX
  8
0
 10
913.94067539
 20
1369.55073904
  0
VERTEX
  8
0
 10
913.73618701
 20
1369.56106481
  0
VERTEX
  8
0
 10
913.53760563
 20
1369.59137193
  0
VERTEX
  8
0
 10
913.34593657
 20
1369.64065508
  0
VERTEX
  8
0
 10
913.16218513
 20
1369.70790895
  0
VERTEX
  8
0
 10
912.98735663
 20
1369.79212824
  0
VERTEX
  8
0
 10
912.82245637
 20
1369.89230763
  0
VERTEX
  8
0
 10
912.66848967
 20
1370.00744181
  0
VERTEX
  8
0
 10
912.52646183
 20
1370.13652548
  0
VERTEX
  8
0
 10
912.39737816
 20
1370.27855332
  0
VERTEX
  8
0
 10
912.28224398
 20
1370.43252002
  0
VERTEX
  8
0
 10
912.18206459
 20
1370.59742028
  0
VERTEX
  8
0
 10
912.09784530
 20
1370.77224878
  0
VERTEX
  8
0
 10
912.03059143
 20
1370.95600022
  0
VERTEX
  8
0
 10
911.98130828
 20
1371.14766928
  0
VERTEX
  8
0
 10
911.95100116
 20
1371.34625066
  0
VERTEX
  8
0
 10
911.94067539
 20
1371.55073904
  0
SEQEND
  0
POLYLINE
  8
Default Layer
 66
   1
 39
0.000000
 70
    1
  0
VERTEX
  8
0
 10
1201.70446605
 20
1371.55073904
  0
VERTEX
  8
0
 10
1201.71479183
 20
1371.75522742
  0
VERTEX
  8
0
 10
1201.74509895
 20
1371.95380880
  0
VERTEX
  8
0
 10
1201.79438210
 20
1372.14547786
  0
VERTEX
  8
0
 10
1201.86163597
 20
1372.32922930
  0
VERTEX
  8
0
 10
1201.94585525
 20
1372.50405780
  0
VERTEX
  8
0
 10
1202.04603464
 20
1372.66895806
  0
VERTEX
  8
0
 10
1202.16116883
 20
1372.82292476
  0
VERTEX
  8
0
 10
1202.29025249
 20
1372.96495260
  0
VERTEX
  8
0
 10
1202.43228033
 20
1373.09403627
  0
VERTEX
  8
0
 10
1202.58624704
 20
1373.20917045
  0
VERTEX
  8
0
 10
1202.75114729
 20
1373.30934984
  0
VERTEX
  8
0
 10
1202.92597580
 20
1373.39356912
  0
VERTEX
  8
0
 10
1203.10972723
 20
1373.46082300
  0
VERTEX
  8
0
 10
1203.30139630
 20
1373.51010615
  0
VERTEX
  8
0
 10
1203.49997767
 20
1373.54041326
  0
VERTEX
  8
0
 10
1203.70446605
 20
1373.55073904
  0
VERTEX
  8
0
 10
1203.90895444
 20
1373.54041326
  0
VERTEX
  8
0
 10
1204.10753581
 20
1373.51010615
  0
VERTEX
  8
0
 10
1204.29920487
 20
1373.46082300
  0
VERTEX
  8
0
 10
1204.48295631
 20
1373.39356912
  0
VERTEX
  8
0
 10
1204.65778481
 20
1373.30934984
  0
VERTEX
  8
0
 10
1204.82268507
 20
1373.20917045
  0
VERTEX
  8
0
 10
1204.97665178
 20
1373.09403627
  0
VERTEX
  8
0
 10
1205.11867962
 20
1372.96495260
  0
VERTEX
  8
0
 10
1205.24776328
 20
1372.82292476
  0
VERTEX
  8
0
 10
1205.36289746
 20
1372.66895806
  0
VERTEX
  8
0
 10
1205.46307685
 20
1372.50405780
  0
VERTEX
  8
0
 10
1205.54729614
 20
1372.32922930
  0
VERTEX
  8
0
 10
1205.61455001
 20
1372.14547786
  0
VERTEX
  8
0
 10
1205.66383316
 20
1371.95380880
  0
VERTEX
  8
0
 10
1205.69414028
 20
1371.75522742
  0
VERTEX
  8
0
 10
1205.70446605
 20
1371.55073904
  0
VERTEX
  8
0
 10
1205.69414028
 20
1371.34625066
  0
VERTEX
  8
0
 10
1205.66383316
 20
1371.14766928
  0
VERTEX
  8
0
 10
1205.61455001
 20
1370.95600022
  0
VERTEX
  8
0
 10
1205.54729614
 20
1370.77224878
  0
VERTEX
  8
0
 10
1205.46307685
 20
1370.59742028
  0
VERTEX
  8
0
 10
1205.36289746
 20
1370.43252002
  0
VERTEX
  8
0
 10
1205.24776328
 20
1370.27855332
  0
VERTEX
  8
0
 10
1205.11867962
 20
1370.13652548
  0
VERTEX
  8
0
 10
1204.97665178
 20
1370.00744181
  0
VERTEX
  8
0
 10
1204.82268507
 20
1369.89230763
  0
VERTEX
  8
0
 10
1204.65778481
 20
1369.79212824
  0
VERTEX
  8
0
 10
1204.48295631
 20
1369.70790895
  0
VERTEX
  8
0
 10
1204.29920487
 20
1369.64065508
  0
VERTEX
  8
0
 10
1204.10753581
 20
1369.59137193
  0
VERTEX
  8
0
 10
1203.90895444
 20
1369.56106481
  0
VERTEX
  8
0
 10
1203.70446605
 20
1369.55073904
  0
VERTEX
  8
0
 10
1203.49997767
 20
1369.56106481
  0
VERTEX
  8
0
 10
1203.30139630
 20
1369.59137193
  0
VERTEX
  8
0
 10
1203.10972723
 20
1369.64065508
  0
VERTEX
  8
0
 10
1202.92597580
 20
1369.70790895
  0
VERTEX
  8
0
 10
1202.75114729
 20
1369.79212824
  0
VERTEX
  8
0
 10
1202.58624704
 20
1369.89230763
  0
VERTEX
  8
0
 10
1202.43228033
 20
1370.00744181
  0
VERTEX
  8
0
 10
1202.29025249
 20
1370.13652548
  0
VERTEX
  8
0
 10
1202.16116883
 20
1370.27855332
  0
VERTEX
  8
0
 10
1202.04603464
 20
1370.43252002
  0
VERTEX
  8
0
 10
1201.94585525
 20
1370.59742028
  0
VERTEX
  8
0
 10
1201.86163597
 20
1370.77224878
  0
VERTEX
  8
0
 10
1201.79438210
 20
1370.95600022
  0
VERTEX
  8
0
 10
1201.74509895
 20
1371.14766928
  0
VERTEX
  8
0
 10
1201.71479183
 20
1371.34625066
  0
VERTEX
  8
0
 10
1201.70446605
 20
1371.55073904
  0
SEQEND
  0
POLYLINE
  8
Default Layer
 66
   1
 39
0.000000
 70
    1
  0
VERTEX
  8
0
 10
1383.70497525
 20
2135.22462730
  0
VERTEX
  8
0
 10
1370.75010750
 20
2135.22462730
  0
VERTEX
  8
0
 10
1370.75010750
 20
2165.22462730
  0
VERTEX
  8
0
 10
1383.70497525
 20
2165.22462730
  0
VERTEX
  8
0
 10
1383.70497525
 20
2205.31824611
  0
VERTEX
  8
0
 10
443.70662306
 20
2205.31824611
  0
VERTEX
  8
0
 10
443.70662306
 20
2165.31932885
  0
VERTEX
  8
0
 10
456.63226379
 20
2165.31932885
  0
VERTEX
  8
0
 10
456.63226379
 20
2135.31932885
  0
VERTEX
  8
0
 10
443.70662306
 20
2135.31932885
  0
VERTEX
  8
0
 10
443.70662306
 20
1365.31610325
  0
VERTEX
  8
0
 10
1383.70497525
 20
1365.31610325
  0
VERTEX
  8
0
 10
1383.70497525
 20
2135.22462730
  0
SEQEND
  0
POLYLINE
  8
Default Layer
 66
   1
 39
0.000000
 70
    1
  0
VERTEX
  8
0
 10
1201.70446605
 20
1791.08341584
  0
VERTEX
  8
0
 10
1201.71479183
 20
1791.28790422
  0
VERTEX
  8
0
 10
1201.74509895
 20
1791.48648560
  0
VERTEX
  8
0
 10
1201.79438210
 20
1791.67815466
  0
VERTEX
  8
0
 10
1201.86163597
 20
1791.86190610
  0
VERTEX
  8
0
 10
1201.94585525
 20
1792.03673460
  0
VERTEX
  8
0
 10
1202.04603464
 20
1792.20163486
  0
VERTEX
  8
0
 10
1202.16116883
 20
1792.35560156
  0
VERTEX
  8
0
 10
1202.29025249
 20
1792.49762940
  0
VERTEX
  8
0
 10
1202.43228033
 20
1792.62671307
  0
VERTEX
  8
0
 10
1202.58624704
 20
1792.74184725
  0
VERTEX
  8
0
 10
1202.75114729
 20
1792.84202664
  0
VERTEX
  8
0
 10
1202.92597580
 20
1792.92624593
  0
VERTEX
  8
0
 10
1203.10972723
 20
1792.99349980
  0
VERTEX
  8
0
 10
1203.30139630
 20
1793.04278295
  0
VERTEX
  8
0
 10
1203.49997767
 20
1793.07309007
  0
VERTEX
  8
0
 10
1203.70446605
 20
1793.08341584
  0
VERTEX
  8
0
 10
1203.90895444
 20
1793.07309007
  0
VERTEX
  8
0
 10
1204.10753581
 20
1793.04278295
  0
VERTEX
  8
0
 10
1204.29920487
 20
1792.99349980
  0
VERTEX
  8
0
 10
1204.48295631
 20
1792.92624593
  0
VERTEX
  8
0
 10
1204.65778481
 20
1792.84202664
  0
VERTEX
  8
0
 10
1204.82268507
 20
1792.74184725
  0
VERTEX
  8
0
 10
1204.97665178
 20
1792.62671307
  0
VERTEX
  8
0
 10
1205.11867962
 20
1792.49762940
  0
VERTEX
  8
0
 10
1205.24776328
 20
1792.35560156
  0
VERTEX
  8
0
 10
1205.36289746
 20
1792.20163486
  0
VERTEX
  8
0
 10
1205.46307685
 20
1792.03673460
  0
VERTEX
  8
0
 10
1205.54729614
 20
1791.86190610
  0
VERTEX
  8
0
 10
1205.61455001
 20
1791.67815466
  0
VERTEX
  8
0
 10
1205.66383316
 20
1791.48648560
  0
VERTEX
  8
0
 10
1205.69414028
 20
1791.28790422
  0
VERTEX
  8
0
 10
1205.70446605
 20
1791.08341584
  0
VERTEX
  8
0
 10
1205.69414028
 20
1790.87892746
  0
VERTEX
  8
0
 10
1205.66383316
 20
1790.68034608
  0
VERTEX
  8
0
 10
1205.61455001
 20
1790.48867702
  0
VERTEX
  8
0
 10
1205.54729614
 20
1790.30492558
  0
VERTEX
  8
0
 10
1205.46307685
 20
1790.13009708
  0
VERTEX
  8
0
 10
1205.36289746
 20
1789.96519682
  0
VERTEX
  8
0
 10
1205.24776328
 20
1789.81123012
  0
VERTEX
  8
0
 10
1205.11867962
 20
1789.66920228
  0
VERTEX
  8
0
 10
1204.97665178
 20
1789.54011861
  0
VERTEX
  8
0
 10
1204.82268507
 20
1789.42498443
  0
VERTEX
  8
0
 10
1204.65778481
 20
1789.32480504
  0
VERTEX
  8
0
 10
1204.48295631
 20
1789.24058576
  0
VERTEX
  8
0
 10
1204.29920487
 20
1789.17333188
  0
VERTEX
  8
0
 10
1204.10753581
 20
1789.12404873
  0
VERTEX
  8
0
 10
1203.90895444
 20
1789.09374162
  0
VERTEX
  8
0
 10
1203.70446605
 20
1789.08341584
  0
VERTEX
  8
0
 10
1203.49997767
 20
1789.09374162
  0
VERTEX
  8
0
 10
1203.30139630
 20
1789.12404873
  0
VERTEX
  8
0
 10
1203.10972723
 20
1789.17333188
  0
VERTEX
  8
0
 10
1202.92597580
 20
1789.24058576
  0
VERTEX
  8
0
 10
1202.75114729
 20
1789.32480504
  0
VERTEX
  8
0
 10
1202.58624704
 20
1789.42498443
  0
VERTEX
  8
0
 10
1202.43228033
 20
1789.54011861
  0
VERTEX
  8
0
 10
1202.29025249
 20
1789.66920228
  0
VERTEX
  8
0
 10
1202.16116883
 20
1789.81123012
  0
VERTEX
  8
0
 10
1202.04603464
 20
1789.96519682
  0
VERTEX
  8
0
 10
1201.94585525
 20
1790.13009708
  0
VERTEX
  8
0
 10
1201.86163597
 20
1790.30492558
  0
VERTEX
  8
0
 10
1201.79438210
 20
1790.48867702
  0
VERTEX
  8
0
 10
1201.74509895
 20
1790.68034608
  0
VERTEX
  8
0
 10
1201.71479183
 20
1790.87892746
  0
VERTEX
  8
0
 10
1201.70446605
 20
1791.08341584
  0
SEQEND
  0
POLYLINE
  8
Default Layer
 66
   1
 39
0.000000
 70
    1
  0
VERTEX
  8
0
 10
516.83257603
 20
-802.40151485
  0
VERTEX
  8
0
 10
516.83257603
 20
-673.15149819
  0
VERTEX
  8
0
 10
504.53766796
 20
-674.22170580
  0
VERTEX
  8
0
 10
504.53766796
 20
-571.22488826
  0
VERTEX
  8
0
 10
516.84254774
 20
-572.20150071
  0
VERTEX
  8
0
 10
516.84292963
 20
-442.07442857
  0
VERTEX
  8
0
 10
1432.25049505
 20
-442.07442857
  0
VERTEX
  8
0
 10
1432.24893918
 20
-572.23085007
  0
VERTEX
  8
0
 10
1444.54540311
 20
-571.17095610
  0
VERTEX
  8
0
 10
1444.54540311
 20
-674.23420200
  0
VERTEX
  8
0
 10
1432.24893918
 20
-673.22642645
  0
VERTEX
  8
0
 10
1432.24893918
 20
-802.40452617
  0
VERTEX
  8
0
 10
516.83257603
 20
-802.40151485
  0
SEQEND
  0
POLYLINE
  8
Default Layer
 66
   1
 39
0.000000
 70
    1
  0
VERTEX
  8
0
 10
814.22979049
 20
-675.55580357
  0
VERTEX
  8
0
 10
814.22979049
 20
-568.59231347
  0
VERTEX
  8
0
 10
826.42979049
 20
-568.59231347
  0
VERTEX
  8
0
 10
826.42979049
 20
-675.55580357
  0
VERTEX
  8
0
 10
814.22979049
 20
-675.55580357
  0
SEQEND
  0
POLYLINE
  8
Default Layer
 66
   1
 39
0.000000
 70
    1
  0
VERTEX
  8
0
 10
1122.42484883
 20
-675.55580357
  0
VERTEX
  8
0
 10
1122.42484883
 20
-568.61253536
  0
VERTEX
  8
0
 10
1134.62484883
 20
-568.61253536
  0
VERTEX
  8
0
 10
1134.62484883
 20
-675.55580357
  0
VERTEX
  8
0
 10
1122.42484883
 20
-675.55580357
  0
SEQEND
  0
POLYLINE
  8
Default Layer
 66
   1
 39
0.000000
 70
    1
  0
VERTEX
  8
0
 10
818.23353501
 20
-520.47420792
  0
VERTEX
  8
0
 10
818.24386078
 20
-520.26971954
  0
VERTEX
  8
0
 10
818.27416790
 20
-520.07113816
  0
VERTEX
  8
0
 10
818.32345105
 20
-519.87946910
  0
VERTEX
  8
0
 10
818.39070492
 20
-519.69571766
  0
VERTEX
  8
0
 10
818.47492421
 20
-519.52088916
  0
VERTEX
  8
0
 10
818.57510360
 20
-519.35598890
  0
VERTEX
  8
0
 10
818.69023778
 20
-519.20202220
  0
VERTEX
  8
0
 10
818.81932144
 20
-519.05999436
  0
VERTEX
  8
0
 10
818.96134928
 20
-518.93091069
  0
VERTEX
  8
0
 10
819.11531599
 20
-518.81577651
  0
VERTEX
  8
0
 10
819.28021625
 20
-518.71559712
  0
VERTEX
  8
0
 10
819.45504475
 20
-518.63137783
  0
VERTEX
  8
0
 10
819.63879619
 20
-518.56412396
  0
VERTEX
  8
0
 10
819.83046525
 20
-518.51484081
  0
VERTEX
  8
0
 10
820.02904663
 20
-518.48453370
  0
VERTEX
  8
0
 10
820.23353501
 20
-518.47420792
  0
VERTEX
  8
0
 10
820.43802339
 20
-518.48453370
  0
VERTEX
  8
0
 10
820.63660477
 20
-518.51484081
  0
VERTEX
  8
0
 10
820.82827383
 20
-518.56412396
  0
VERTEX
  8
0
 10
821.01202526
 20
-518.63137783
  0
VERTEX
  8
0
 10
821.18685377
 20
-518.71559712
  0
VERTEX
  8
0
 10
821.35175403
 20
-518.81577651
  0
VERTEX
  8
0
 10
821.50572073
 20
-518.93091069
  0
VERTEX
  8
0
 10
821.64774857
 20
-519.05999436
  0
VERTEX
  8
0
 10
821.77683224
 20
-519.20202220
  0
VERTEX
  8
0
 10
821.89196642
 20
-519.35598890
  0
VERTEX
  8
0
 10
821.99214581
 20
-519.52088916
  0
VERTEX
  8
0
 10
822.07636509
 20
-519.69571766
  0
VERTEX
  8
0
 10
822.14361897
 20
-519.87946910
  0
VERTEX
  8
0
 10
822.19290212
 20
-520.07113816
  0
VERTEX
  8
0
 10
822.22320923
 20
-520.26971954
  0
VERTEX
  8
0
 10
822.23353501
 20
-520.47420792
  0
VERTEX
  8
0
 10
822.22320923
 20
-520.67869630
  0
VERTEX
  8
0
 10
822.19290212
 20
-520.87727768
  0
VERTEX
  8
0
 10
822.14361897
 20
-521.06894674
  0
VERTEX
  8
0
 10
822.07636509
 20
-521.25269818
  0
VERTEX
  8
0
 10
821.99214581
 20
-521.42752668
  0
VERTEX
  8
0
 10
821.89196642
 20
-521.59242694
  0
VERTEX
  8
0
 10
821.77683224
 20
-521.74639364
  0
VERTEX
  8
0
 10
821.64774857
 20
-521.88842148
  0
VERTEX
  8
0
 10
821.50572073
 20
-522.01750515
  0
VERTEX
  8
0
 10
821.35175403
 20
-522.13263933
  0
VERTEX
  8
0
 10
821.18685377
 20
-522.23281872
  0
VERTEX
  8
0
 10
821.01202526
 20
-522.31703801
  0
VERTEX
  8
0
 10
820.82827383
 20
-522.38429188
  0
VERTEX
  8
0
 10
820.63660477
 20
-522.43357503
  0
VERTEX
  8
0
 10
820.43802339
 20
-522.46388215
  0
VERTEX
  8
0
 10
820.23353501
 20
-522.47420792
  0
VERTEX
  8
0
 10
820.02904663
 20
-522.46388215
  0
VERTEX
  8
0
 10
819.83046525
 20
-522.43357503
  0
VERTEX
  8
0
 10
819.63879619
 20
-522.38429188
  0
VERTEX
  8
0
 10
819.45504475
 20
-522.31703801
  0
VERTEX
  8
0
 10
819.28021625
 20
-522.23281872
  0
VERTEX
  8
0
 10
819.11531599
 20
-522.13263933
  0
VERTEX
  8
0
 10
818.96134928
 20
-522.01750515
  0
VERTEX
  8
0
 10
818.81932144
 20
-521.88842148
  0
VERTEX
  8
0
 10
818.69023778
 20
-521.74639364
  0
VERTEX
  8
0
 10
818.57510360
 20
-521.59242694
  0
VERTEX
  8
0
 10
818.47492421
 20
-521.42752668
  0
VERTEX
  8
0
 10
818.39070492
 20
-521.25269818
  0
VERTEX
  8
0
 10
818.32345105
 20
-521.06894674
  0
VERTEX
  8
0
 10
818.27416790
 20
-520.87727768
  0
VERTEX
  8
0
 10
818.24386078
 20
-520.67869630
  0
VERTEX
  8
0
 10
818.23353501
 20
-520.47420792
  0
SEQEND
  0
POLYLINE
  8
Default Layer
 66
   1
 39
0.000000
 70
    1
  0
VERTEX
  8
0
 10
1126.42859335
 20
-520.47420792
  0
VERTEX
  8
0
 10
1126.43891913
 20
-520.26971954
  0
VERTEX
  8
0
 10
1126.46922624
 20
-520.07113816
  0
VERTEX
  8
0
 10
1126.51850939
 20
-519.87946910
  0
VERTEX
  8
0
 10
1126.58576327
 20
-519.69571766
  0
VERTEX
  8
0
 10
1126.66998255
 20
-519.52088916
  0
VERTEX
  8
0
 10
1126.77016194
 20
-519.35598890
  0
VERTEX
  8
0
 10
1126.88529612
 20
-519.20202220
  0
VERTEX
  8
0
 10
1127.01437979
 20
-519.05999436
  0
VERTEX
  8
0
 10
1127.15640763
 20
-518.93091069
  0
VERTEX
  8
0
 10
1127.31037433
 20
-518.81577651
  0
VERTEX
  8
0
 10
1127.47527459
 20
-518.71559712
  0
VERTEX
  8
0
 10
1127.65010309
 20
-518.63137783
  0
VERTEX
  8
0
 10
1127.83385453
 20
-518.56412396
  0
VERTEX
  8
0
 10
1128.02552359
 20
-518.51484081
  0
VERTEX
  8
0
 10
1128.22410497
 20
-518.48453370
  0
VERTEX
  8
0
 10
1128.42859335
 20
-518.47420792
  0
VERTEX
  8
0
 10
1128.63308173
 20
-518.48453370
  0
VERTEX
  8
0
 10
1128.83166311
 20
-518.51484081
  0
VERTEX
  8
0
 10
1129.02333217
 20
-518.56412396
  0
VERTEX
  8
0
 10
1129.20708361
 20
-518.63137783
  0
VERTEX
  8
0
 10
1129.38191211
 20
-518.71559712
  0
VERTEX
  8
0
 10
1129.54681237
 20
-518.81577651
  0
VERTEX
  8
0
 10
1129.70077907
 20
-518.93091069
  0
VERTEX
  8
0
 10
1129.84280691
 20
-519.05999436
  0
VERTEX
  8
0
 10
1129.97189058
 20
-519.20202220
  0
VERTEX
  8
0
 10
1130.08702476
 20
-519.35598890
  0
VERTEX
  8
0
 10
1130.18720415
 20
-519.52088916
  0
VERTEX
  8
0
 10
1130.27142344
 20
-519.69571766
  0
VERTEX
  8
0
 10
1130.33867731
 20
-519.87946910
  0
VERTEX
  8
0
 10
1130.38796046
 20
-520.07113816
  0
VERTEX
  8
0
 10
1130.41826758
 20
-520.26971954
  0
VERTEX
  8
0
 10
1130.42859335
 20
-520.47420792
  0
VERTEX
  8
0
 10
1130.41826758
 20
-520.67869630
  0
VERTEX
  8
0
 10
1130.38796046
 20
-520.87727768
  0
VERTEX
  8
0
 10
1130.33867731
 20
-521.06894674
  0
VERTEX
  8
0
 10
1130.27142344
 20
-521.25269818
  0
VERTEX
  8
0
 10
1130.18720415
 20
-521.42752668
  0
VERTEX
  8
0
 10
1130.08702476
 20
-521.59242694
  0
VERTEX
  8
0
 10
1129.97189058
 20
-521.74639364
  0
VERTEX
  8
0
 10
1129.84280691
 20
-521.88842148
  0
VERTEX
  8
0
 10
1129.70077907
 20
-522.01750515
  0
VERTEX
  8
0
 10
1129.54681237
 20
-522.13263933
  0
VERTEX
  8
0
 10
1129.38191211
 20
-522.23281872
  0
VERTEX
  8
0
 10
1129.20708361
 20
-522.31703801
  0
VERTEX
  8
0
 10
1129.02333217
 20
-522.38429188
  0
VERTEX
  8
0
 10
1128.83166311
 20
-522.43357503
  0
VERTEX
  8
0
 10
1128.63308173
 20
-522.46388215
  0
VERTEX
  8
0
 10
1128.42859335
 20
-522.47420792
  0
VERTEX
  8
0
 10
1128.22410497
 20
-522.46388215
  0
VERTEX
  8
0
 10
1128.02552359
 20
-522.43357503
  0
VERTEX
  8
0
 10
1127.83385453
 20
-522.38429188
  0
VERTEX
  8
0
 10
1127.65010309
 20
-522.31703801
  0
VERTEX
  8
0
 10
1127.47527459
 20
-522.23281872
  0
VERTEX
  8
0
 10
1127.31037433
 20
-522.13263933
  0
VERTEX
  8
0
 10
1127.15640763
 20
-522.01750515
  0
VERTEX
  8
0
 10
1127.01437979
 20
-521.88842148
  0
VERTEX
  8
0
 10
1126.88529612
 20
-521.74639364
  0
VERTEX
  8
0
 10
1126.77016194
 20
-521.59242694
  0
VERTEX
  8
0
 10
1126.66998255
 20
-521.42752668
  0
VERTEX
  8
0
 10
1126.58576327
 20
-521.25269818
  0
VERTEX
  8
0
 10
1126.51850939
 20
-521.06894674
  0
VERTEX
  8
0
 10
1126.46922624
 20
-520.87727768
  0
VERTEX
  8
0
 10
1126.43891913
 20
-520.67869630
  0
VERTEX
  8
0
 10
1126.42859335
 20
-520.47420792
  0
SEQEND
  0
POLYLINE
  8
Default Layer
 66
   1
 39
0.000000
 70
    1
  0
VERTEX
  8
0
 10
818.23353501
 20
-723.57920792
  0
VERTEX
  8
0
 10
818.24386078
 20
-723.37471954
  0
VERTEX
  8
0
 10
818.27416790
 20
-723.17613816
  0
VERTEX
  8
0
 10
818.32345105
 20
-722.98446910
  0
VERTEX
  8
0
 10
818.39070492
 20
-722.80071766
  0
VERTEX
  8
0
 10
818.47492421
 20
-722.62588916
  0
VERTEX
  8
0
 10
818.57510360
 20
-722.46098890
  0
VERTEX
  8
0
 10
818.69023778
 20
-722.30702220
  0
VERTEX
  8
0
 10
818.81932144
 20
-722.16499436
  0
VERTEX
  8
0
 10
818.96134928
 20
-722.03591069
  0
VERTEX
  8
0
 10
819.11531599
 20
-721.92077651
  0
VERTEX
  8
0
 10
819.28021625
 20
-721.82059712
  0
VERTEX
  8
0
 10
819.45504475
 20
-721.73637783
  0
VERTEX
  8
0
 10
819.63879619
 20
-721.66912396
  0
VERTEX
  8
0
 10
819.83046525
 20
-721.61984081
  0
VERTEX
  8
0
 10
820.02904663
 20
-721.58953370
  0
VERTEX
  8
0
 10
820.23353501
 20
-721.57920792
  0
VERTEX
  8
0
 10
820.43802339
 20
-721.58953370
  0
VERTEX
  8
0
 10
820.63660477
 20
-721.61984081
  0
VERTEX
  8
0
 10
820.82827383
 20
-721.66912396
  0
VERTEX
  8
0
 10
821.01202526
 20
-721.73637783
  0
VERTEX
  8
0
 10
821.18685377
 20
-721.82059712
  0
VERTEX
  8
0
 10
821.35175403
 20
-721.92077651
  0
VERTEX
  8
0
 10
821.50572073
 20
-722.03591069
  0
VERTEX
  8
0
 10
821.64774857
 20
-722.16499436
  0
VERTEX
  8
0
 10
821.77683224
 20
-722.30702220
  0
VERTEX
  8
0
 10
821.89196642
 20
-722.46098890
  0
VERTEX
  8
0
 10
821.99214581
 20
-722.62588916
  0
VERTEX
  8
0
 10
822.07636509
 20
-722.80071766
  0
VERTEX
  8
0
 10
822.14361897
 20
-722.98446910
  0
VERTEX
  8
0
 10
822.19290212
 20
-723.17613816
  0
VERTEX
  8
0
 10
822.22320923
 20
-723.37471954
  0
VERTEX
  8
0
 10
822.23353501
 20
-723.57920792
  0
VERTEX
  8
0
 10
822.22320923
 20
-723.78369630
  0
VERTEX
  8
0
 10
822.19290212
 20
-723.98227768
  0
VERTEX
  8
0
 10
822.14361897
 20
-724.17394674
  0
VERTEX
  8
0
 10
822.07636509
 20
-724.35769818
  0
VERTEX
  8
0
 10
821.99214581
 20
-724.53252668
  0
VERTEX
  8
0
 10
821.89196642
 20
-724.69742694
  0
VERTEX
  8
0
 10
821.77683224
 20
-724.85139364
  0
VERTEX
  8
0
 10
821.64774857
 20
-724.99342148
  0
VERTEX
  8
0
 10
821.50572073
 20
-725.12250515
  0
VERTEX
  8
0
 10
821.35175403
 20
-725.23763933
  0
VERTEX
  8
0
 10
821.18685377
 20
-725.33781872
  0
VERTEX
  8
0
 10
821.01202526
 20
-725.42203801
  0
VERTEX
  8
0
 10
820.82827383
 20
-725.48929188
  0
VERTEX
  8
0
 10
820.63660477
 20
-725.53857503
  0
VERTEX
  8
0
 10
820.43802339
 20
-725.56888215
  0
VERTEX
  8
0
 10
820.23353501
 20
-725.57920792
  0
VERTEX
  8
0
 10
820.02904663
 20
-725.56888215
  0
VERTEX
  8
0
 10
819.83046525
 20
-725.53857503
  0
VERTEX
  8
0
 10
819.63879619
 20
-725.48929188
  0
VERTEX
  8
0
 10
819.45504475
 20
-725.42203801
  0
VERTEX
  8
0
 10
819.28021625
 20
-725.33781872
  0
VERTEX
  8
0
 10
819.11531599
 20
-725.23763933
  0
VERTEX
  8
0
 10
818.96134928
 20
-725.12250515
  0
VERTEX
  8
0
 10
818.81932144
 20
-724.99342148
  0
VERTEX
  8
0
 10
818.69023778
 20
-724.85139364
  0
VERTEX
  8
0
 10
818.57510360
 20
-724.69742694
  0
VERTEX
  8
0
 10
818.47492421
 20
-724.53252668
  0
VERTEX
  8
0
 10
818.39070492
 20
-724.35769818
  0
VERTEX
  8
0
 10
818.32345105
 20
-724.17394674
  0
VERTEX
  8
0
 10
818.27416790
 20
-723.98227768
  0
VERTEX
  8
0
 10
818.24386078
 20
-723.78369630
  0
VERTEX
  8
0
 10
818.23353501
 20
-723.57920792
  0
SEQEND
  0
POLYLINE
  8
Default Layer
 66
   1
 39
0.000000
 70
    1
  0
VERTEX
  8
0
 10
1126.42859335
 20
-723.57920792
  0
VERTEX
  8
0
 10
1126.43891913
 20
-723.37471954
  0
VERTEX
  8
0
 10
1126.46922624
 20
-723.17613816
  0
VERTEX
  8
0
 10
1126.51850939
 20
-722.98446910
  0
VERTEX
  8
0
 10
1126.58576327
 20
-722.80071766
  0
VERTEX
  8
0
 10
1126.66998255
 20
-722.62588916
  0
VERTEX
  8
0
 10
1126.77016194
 20
-722.46098890
  0
VERTEX
  8
0
 10
1126.88529612
 20
-722.30702220
  0
VERTEX
  8
0
 10
1127.01437979
 20
-722.16499436
  0
VERTEX
  8
0
 10
1127.15640763
 20
-722.03591069
  0
VERTEX
  8
0
 10
1127.31037433
 20
-721.92077651
  0
VERTEX
  8
0
 10
1127.47527459
 20
-721.82059712
  0
VERTEX
  8
0
 10
1127.65010309
 20
-721.73637783
  0
VERTEX
  8
0
 10
1127.83385453
 20
-721.66912396
  0
VERTEX
  8
0
 10
1128.02552359
 20
-721.61984081
  0
VERTEX
  8
0
 10
1128.22410497
 20
-721.58953370
  0
VERTEX
  8
0
 10
1128.42859335
 20
-721.57920792
  0
VERTEX
  8
0
 10
1128.63308173
 20
-721.58953370
  0
VERTEX
  8
0
 10
1128.83166311
 20
-721.61984081
  0
VERTEX
  8
0
 10
1129.02333217
 20
-721.66912396
  0
VERTEX
  8
0
 10
1129.20708361
 20
-721.73637783
  0
VERTEX
  8
0
 10
1129.38191211
 20
-721.82059712
  0
VERTEX
  8
0
 10
1129.54681237
 20
-721.92077651
  0
VERTEX
  8
0
 10
1129.70077907
 20
-722.03591069
  0
VERTEX
  8
0
 10
1129.84280691
 20
-722.16499436
  0
VERTEX
  8
0
 10
1129.97189058
 20
-722.30702220
  0
VERTEX
  8
0
 10
1130.08702476
 20
-722.46098890
  0
VERTEX
  8
0
 10
1130.18720415
 20
-722.62588916
  0
VERTEX
  8
0
 10
1130.27142344
 20
-722.80071766
  0
VERTEX
  8
0
 10
1130.33867731
 20
-722.98446910
  0
VERTEX
  8
0
 10
1130.38796046
 20
-723.17613816
  0
VERTEX
  8
0
 10
1130.41826758
 20
-723.37471954
  0
VERTEX
  8
0
 10
1130.42859335
 20
-723.57920792
  0
VERTEX
  8
0
 10
1130.41826758
 20
-723.78369630
  0
VERTEX
  8
0
 10
1130.38796046
 20
-723.98227768
  0
VERTEX
  8
0
 10
1130.33867731
 20
-724.17394674
  0
VERTEX
  8
0
 10
1130.27142344
 20
-724.35769818
  0
VERTEX
  8
0
 10
1130.18720415
 20
-724.53252668
  0
VERTEX
  8
0
 10
1130.08702476
 20
-724.69742694
  0
VERTEX
  8
0
 10
1129.97189058
 20
-724.85139364
  0
VERTEX
  8
0
 10
1129.84280691
 20
-724.99342148
  0
VERTEX
  8
0
 10
1129.70077907
 20
-725.12250515
  0
VERTEX
  8
0
 10
1129.54681237
 20
-725.23763933
  0
VERTEX
  8
0
 10
1129.38191211
 20
-725.33781872
  0
VERTEX
  8
0
 10
1129.20708361
 20
-725.42203801
  0
VERTEX
  8
0
 10
1129.02333217
 20
-725.48929188
  0
VERTEX
  8
0
 10
1128.83166311
 20
-725.53857503
  0
VERTEX
  8
0
 10
1128.63308173
 20
-725.56888215
  0
VERTEX
  8
0
 10
1128.42859335
 20
-725.57920792
  0
VERTEX
  8
0
 10
1128.22410497
 20
-725.56888215
  0
VERTEX
  8
0
 10
1128.02552359
 20
-725.53857503
  0
VERTEX
  8
0
 10
1127.83385453
 20
-725.48929188
  0
VERTEX
  8
0
 10
1127.65010309
 20
-725.42203801
  0
VERTEX
  8
0
 10
1127.47527459
 20
-725.33781872
  0
VERTEX
  8
0
 10
1127.31037433
 20
-725.23763933
  0
VERTEX
  8
0
 10
1127.15640763
 20
-725.12250515
  0
VERTEX
  8
0
 10
1127.01437979
 20
-724.99342148
  0
VERTEX
  8
0
 10
1126.88529612
 20
-724.85139364
  0
VERTEX
  8
0
 10
1126.77016194
 20
-724.69742694
  0
VERTEX
  8
0
 10
1126.66998255
 20
-724.53252668
  0
VERTEX
  8
0
 10
1126.58576327
 20
-724.35769818
  0
VERTEX
  8
0
 10
1126.51850939
 20
-724.17394674
  0
VERTEX
  8
0
 10
1126.46922624
 20
-723.98227768
  0
VERTEX
  8
0
 10
1126.43891913
 20
-723.78369630
  0
VERTEX
  8
0
 10
1126.42859335
 20
-723.57920792
  0
SEQEND
  0
POLYLINE
  8
Default Layer
 66
   1
 39
0.000000
 70
    1
  0
VERTEX
  8
0
 10
826.42979049
 20
-42.58351061
  0
VERTEX
  8
0
 10
826.42979049
 20
-227.76230994
  0
VERTEX
  8
0
 10
814.22979049
 20
-227.76230994
  0
VERTEX
  8
0
 10
814.22979049
 20
-42.58351061
  0
VERTEX
  8
0
 10
516.84292963
 20
-42.58351061
  0
VERTEX
  8
0
 10
516.84254774
 20
-172.71058274
  0
VERTEX
  8
0
 10
504.53766796
 20
-171.73397030
  0
VERTEX
  8
0
 10
504.53766796
 20
-274.73078784
  0
VERTEX
  8
0
 10
516.83257603
 20
-273.66058022
  0
VERTEX
  8
0
 10
516.83257603
 20
-402.91059689
  0
VERTEX
  8
0
 10
1432.24893918
 20
-402.91360820
  0
VERTEX
  8
0
 10
1432.24893918
 20
-273.73550849
  0
VERTEX
  8
0
 10
1444.54540311
 20
-274.74328404
  0
VERTEX
  8
0
 10
1444.54540311
 20
-171.68003814
  0
VERTEX
  8
0
 10
1432.24893918
 20
-172.73993211
  0
VERTEX
  8
0
 10
1432.25049505
 20
-42.58351061
  0
VERTEX
  8
0
 10
1134.62484883
 20
-42.58351061
  0
VERTEX
  8
0
 10
1134.62484883
 20
-227.76230994
  0
VERTEX
  8
0
 10
1122.42484883
 20
-227.76230994
  0
VERTEX
  8
0
 10
1122.42484883
 20
-42.58351061
  0
VERTEX
  8
0
 10
826.42979049
 20
-42.58351061
  0
SEQEND
  0
POLYLINE
  8
Default Layer
 66
   1
 39
0.000000
 70
    1
  0
VERTEX
  8
0
 10
963.35890559
 20
357.32455163
  0
VERTEX
  8
0
 10
963.35890559
 20
363.78081612
  0
VERTEX
  8
0
 10
985.36032001
 20
363.78081612
  0
VERTEX
  8
0
 10
985.36032001
 20
357.32455163
  0
VERTEX
  8
0
 10
1122.42484883
 20
357.32455163
  0
VERTEX
  8
0
 10
1122.42484883
 20
172.14575230
  0
VERTEX
  8
0
 10
1134.62484883
 20
172.14575230
  0
VERTEX
  8
0
 10
1134.62484883
 20
357.32455163
  0
VERTEX
  8
0
 10
1432.25049505
 20
357.32455163
  0
VERTEX
  8
0
 10
1432.24893918
 20
227.16813013
  0
VERTEX
  8
0
 10
1444.54540311
 20
228.22802410
  0
VERTEX
  8
0
 10
1444.54540311
 20
125.16477819
  0
VERTEX
  8
0
 10
1432.24893918
 20
126.17255375
  0
VERTEX
  8
0
 10
1432.24893918
 20
-3.00554597
  0
VERTEX
  8
0
 10
516.83257603
 20
-3.00253465
  0
VERTEX
  8
0
 10
516.83257603
 20
126.24748201
  0
VERTEX
  8
0
 10
504.53766796
 20
125.17727440
  0
VERTEX
  8
0
 10
504.53766796
 20
228.17409194
  0
VERTEX
  8
0
 10
516.84254774
 20
227.19747949
  0
VERTEX
  8
0
 10
516.84292963
 20
357.32455163
  0
VERTEX
  8
0
 10
814.22979049
 20
357.32455163
  0
VERTEX
  8
0
 10
814.22979049
 20
172.14575230
  0
VERTEX
  8
0
 10
826.42979049
 20
172.14575230
  0
VERTEX
  8
0
 10
826.42979049
 20
357.32455163
  0
VERTEX
  8
0
 10
963.35890559
 20
357.32455163
  0
SEQEND
  0
POLYLINE
  8
Default Layer
 66
   1
 39
0.000000
 70
    1
  0
VERTEX
  8
0
 10
1545.29085042
 20
457.13867857
  0
VERTEX
  8
0
 10
2460.70721358
 20
457.13566726
  0
VERTEX
  8
0
 10
2460.70721358
 20
505.74976414
  0
VERTEX
  8
0
 10
2473.00367751
 20
504.74198859
  0
VERTEX
  8
0
 10
2473.00367751
 20
589.03932219
  0
VERTEX
  8
0
 10
2460.70721358
 20
587.97942822
  0
VERTEX
  8
0
 10
2460.70876945
 20
636.92474646
  0
VERTEX
  8
0
 10
1545.30120403
 20
636.92474646
  0
VERTEX
  8
0
 10
1545.30082214
 20
588.00877758
  0
VERTEX
  8
0
 10
1532.99594236
 20
588.98539003
  0
VERTEX
  8
0
 10
1532.99594236
 20
504.91625990
  0
VERTEX
  8
0
 10
1545.29085042
 20
505.98646751
  0
VERTEX
  8
0
 10
1545.29085042
 20
457.13867857
  0
SEQEND
  0
POLYLINE
  8
Default Layer
 66
   1
 39
0.000000
 70
    1
  0
VERTEX
  8
0
 10
1842.68806489
 20
504.71458787
  0
VERTEX
  8
0
 10
1854.88806489
 20
504.71458787
  0
VERTEX
  8
0
 10
1854.88806489
 20
589.35311333
  0
VERTEX
  8
0
 10
1842.68806489
 20
589.35311333
  0
VERTEX
  8
0
 10
1842.68806489
 20
504.71458787
  0
SEQEND
  0
POLYLINE
  8
Default Layer
 66
   1
 39
0.000000
 70
    1
  0
VERTEX
  8
0
 10
1846.69180941
 20
615.46980446
  0
VERTEX
  8
0
 10
1846.70213518
 20
615.26531607
  0
VERTEX
  8
0
 10
1846.73244230
 20
615.06673470
  0
VERTEX
  8
0
 10
1846.78172545
 20
614.87506563
  0
VERTEX
  8
0
 10
1846.84897932
 20
614.69131420
  0
VERTEX
  8
0
 10
1846.93319861
 20
614.51648570
  0
VERTEX
  8
0
 10
1847.03337799
 20
614.35158544
  0
VERTEX
  8
0
 10
1847.14851218
 20
614.19761873
  0
VERTEX
  8
0
 10
1847.27759584
 20
614.05559089
  0
VERTEX
  8
0
 10
1847.41962368
 20
613.92650723
  0
VERTEX
  8
0
 10
1847.57359039
 20
613.81137304
  0
VERTEX
  8
0
 10
1847.73849065
 20
613.71119366
  0
VERTEX
  8
0
 10
1847.91331915
 20
613.62697437
  0
VERTEX
  8
0
 10
1848.09707059
 20
613.55972050
  0
VERTEX
  8
0
 10
1848.28873965
 20
613.51043735
  0
VERTEX
  8
0
 10
1848.48732102
 20
613.48013023
  0
VERTEX
  8
0
 10
1848.69180941
 20
613.46980446
  0
VERTEX
  8
0
 10
1848.89629779
 20
613.48013023
  0
VERTEX
  8
0
 10
1849.09487916
 20
613.51043735
  0
VERTEX
  8
0
 10
1849.28654823
 20
613.55972050
  0
VERTEX
  8
0
 10
1849.47029966
 20
613.62697437
  0
VERTEX
  8
0
 10
1849.64512817
 20
613.71119366
  0
VERTEX
  8
0
 10
1849.81002842
 20
613.81137304
  0
VERTEX
  8
0
 10
1849.96399513
 20
613.92650723
  0
VERTEX
  8
0
 10
1850.10602297
 20
614.05559089
  0
VERTEX
  8
0
 10
1850.23510663
 20
614.19761873
  0
VERTEX
  8
0
 10
1850.35024082
 20
614.35158544
  0
VERTEX
  8
0
 10
1850.45042021
 20
614.51648570
  0
VERTEX
  8
0
 10
1850.53463949
 20
614.69131420
  0
VERTEX
  8
0
 10
1850.60189336
 20
614.87506563
  0
VERTEX
  8
0
 10
1850.65117651
 20
615.06673470
  0
VERTEX
  8
0
 10
1850.68148363
 20
615.26531607
  0
VERTEX
  8
0
 10
1850.69180941
 20
615.46980446
  0
VERTEX
  8
0
 10
1850.68148363
 20
615.67429284
  0
VERTEX
  8
0
 10
1850.65117651
 20
615.87287421
  0
VERTEX
  8
0
 10
1850.60189336
 20
616.06454328
  0
VERTEX
  8
0
 10
1850.53463949
 20
616.24829471
  0
VERTEX
  8
0
 10
1850.45042021
 20
616.42312322
  0
VERTEX
  8
0
 10
1850.35024082
 20
616.58802347
  0
VERTEX
  8
0
 10
1850.23510663
 20
616.74199018
  0
VERTEX
  8
0
 10
1850.10602297
 20
616.88401802
  0
VERTEX
  8
0
 10
1849.96399513
 20
617.01310168
  0
VERTEX
  8
0
 10
1849.81002842
 20
617.12823587
  0
VERTEX
  8
0
 10
1849.64512817
 20
617.22841526
  0
VERTEX
  8
0
 10
1849.47029966
 20
617.31263454
  0
VERTEX
  8
0
 10
1849.28654823
 20
617.37988841
  0
VERTEX
  8
0
 10
1849.09487916
 20
617.42917156
  0
VERTEX
  8
0
 10
1848.89629779
 20
617.45947868
  0
VERTEX
  8
0
 10
1848.69180941
 20
617.46980446
  0
VERTEX
  8
0
 10
1848.48732102
 20
617.45947868
  0
VERTEX
  8
0
 10
1848.28873965
 20
617.42917156
  0
VERTEX
  8
0
 10
1848.09707059
 20
617.37988841
  0
VERTEX
  8
0
 10
1847.91331915
 20
617.31263454
  0
VERTEX
  8
0
 10
1847.73849065
 20
617.22841526
  0
VERTEX
  8
0
 10
1847.57359039
 20
617.12823587
  0
VERTEX
  8
0
 10
1847.41962368
 20
617.01310168
  0
VERTEX
  8
0
 10
1847.27759584
 20
616.88401802
  0
VERTEX
  8
0
 10
1847.14851218
 20
616.74199018
  0
VERTEX
  8
0
 10
1847.03337799
 20
616.58802347
  0
VERTEX
  8
0
 10
1846.93319861
 20
616.42312322
  0
VERTEX
  8
0
 10
1846.84897932
 20
616.24829471
  0
VERTEX
  8
0
 10
1846.78172545
 20
616.06454328
  0
VERTEX
  8
0
 10
1846.73244230
 20
615.87287421
  0
VERTEX
  8
0
 10
1846.70213518
 20
615.67429284
  0
VERTEX
  8
0
 10
1846.69180941
 20
615.46980446
  0
SEQEND
  0
POLYLINE
  8
Default Layer
 66
   1
 39
0.000000
 70
    1
  0
VERTEX
  8
0
 10
1846.69180941
 20
482.25165028
  0
VERTEX
  8
0
 10
1846.70213518
 20
482.04716190
  0
VERTEX
  8
0
 10
1846.73244230
 20
481.84858052
  0
VERTEX
  8
0
 10
1846.78172545
 20
481.65691146
  0
VERTEX
  8
0
 10
1846.84897932
 20
481.47316003
  0
VERTEX
  8
0
 10
1846.93319861
 20
481.29833152
  0
VERTEX
  8
0
 10
1847.03337799
 20
481.13343126
  0
VERTEX
  8
0
 10
1847.14851218
 20
480.97946456
  0
VERTEX
  8
0
 10
1847.27759584
 20
480.83743672
  0
VERTEX
  8
0
 10
1847.41962368
 20
480.70835305
  0
VERTEX
  8
0
 10
1847.57359039
 20
480.59321887
  0
VERTEX
  8
0
 10
1847.73849065
 20
480.49303948
  0
VERTEX
  8
0
 10
1847.91331915
 20
480.40882020
  0
VERTEX
  8
0
 10
1848.09707059
 20
480.34156632
  0
VERTEX
  8
0
 10
1848.28873965
 20
480.29228317
  0
VERTEX
  8
0
 10
1848.48732102
 20
480.26197606
  0
VERTEX
  8
0
 10
1848.69180941
 20
480.25165028
  0
VERTEX
  8
0
 10
1848.89629779
 20
480.26197606
  0
VERTEX
  8
0
 10
1849.09487916
 20
480.29228317
  0
VERTEX
  8
0
 10
1849.28654823
 20
480.34156632
  0
VERTEX
  8
0
 10
1849.47029966
 20
480.40882020
  0
VERTEX
  8
0
 10
1849.64512817
 20
480.49303948
  0
VERTEX
  8
0
 10
1849.81002842
 20
480.59321887
  0
VERTEX
  8
0
 10
1849.96399513
 20
480.70835305
  0
VERTEX
  8
0
 10
1850.10602297
 20
480.83743672
  0
VERTEX
  8
0
 10
1850.23510663
 20
480.97946456
  0
VERTEX
  8
0
 10
1850.35024082
 20
481.13343126
  0
VERTEX
  8
0
 10
1850.45042021
 20
481.29833152
  0
VERTEX
  8
0
 10
1850.53463949
 20
481.47316003
  0
VERTEX
  8
0
 10
1850.60189336
 20
481.65691146
  0
VERTEX
  8
0
 10
1850.65117651
 20
481.84858052
  0
VERTEX
  8
0
 10
1850.68148363
 20
482.04716190
  0
VERTEX
  8
0
 10
1850.69180941
 20
482.25165028
  0
VERTEX
  8
0
 10
1850.68148363
 20
482.45613866
  0
VERTEX
  8
0
 10
1850.65117651
 20
482.65472004
  0
VERTEX
  8
0
 10
1850.60189336
 20
482.84638910
  0
VERTEX
  8
0
 10
1850.53463949
 20
483.03014054
  0
VERTEX
  8
0
 10
1850.45042021
 20
483.20496904
  0
VERTEX
  8
0
 10
1850.35024082
 20
483.36986930
  0
VERTEX
  8
0
 10
1850.23510663
 20
483.52383601
  0
VERTEX
  8
0
 10
1850.10602297
 20
483.66586385
  0
VERTEX
  8
0
 10
1849.96399513
 20
483.79494751
  0
VERTEX
  8
0
 10
1849.81002842
 20
483.91008169
  0
VERTEX
  8
0
 10
1849.64512817
 20
484.01026108
  0
VERTEX
  8
0
 10
1849.47029966
 20
484.09448037
  0
VERTEX
  8
0
 10
1849.28654823
 20
484.16173424
  0
VERTEX
  8
0
 10
1849.09487916
 20
484.21101739
  0
VERTEX
  8
0
 10
1848.89629779
 20
484.24132451
  0
VERTEX
  8
0
 10
1848.69180941
 20
484.25165028
  0
VERTEX
  8
0
 10
1848.48732102
 20
484.24132451
  0
VERTEX
  8
0
 10
1848.28873965
 20
484.21101739
  0
VERTEX
  8
0
 10
1848.09707059
 20
484.16173424
  0
VERTEX
  8
0
 10
1847.91331915
 20
484.09448037
  0
VERTEX
  8
0
 10
1847.73849065
 20
484.01026108
  0
VERTEX
  8
0
 10
1847.57359039
 20
483.91008169
  0
VERTEX
  8
0
 10
1847.41962368
 20
483.79494751
  0
VERTEX
  8
0
 10
1847.27759584
 20
483.66586385
  0
VERTEX
  8
0
 10
1847.14851218
 20
483.52383601
  0
VERTEX
  8
0
 10
1847.03337799
 20
483.36986930
  0
VERTEX
  8
0
 10
1846.93319861
 20
483.20496904
  0
VERTEX
  8
0
 10
1846.84897932
 20
483.03014054
  0
VERTEX
  8
0
 10
1846.78172545
 20
482.84638910
  0
VERTEX
  8
0
 10
1846.73244230
 20
482.65472004
  0
VERTEX
  8
0
 10
1846.70213518
 20
482.45613866
  0
VERTEX
  8
0
 10
1846.69180941
 20
482.25165028
  0
SEQEND
  0
POLYLINE
  8
Default Layer
 66
   1
 39
0.000000
 70
    1
  0
VERTEX
  8
0
 10
2152.18406471
 20
504.71458787
  0
VERTEX
  8
0
 10
2164.38406471
 20
504.71458787
  0
VERTEX
  8
0
 10
2164.38406471
 20
589.35311333
  0
VERTEX
  8
0
 10
2152.18406471
 20
589.35311333
  0
VERTEX
  8
0
 10
2152.18406471
 20
504.71458787
  0
SEQEND
  0
POLYLINE
  8
Default Layer
 66
   1
 39
0.000000
 70
    1
  0
VERTEX
  8
0
 10
2156.18780923
 20
615.46980446
  0
VERTEX
  8
0
 10
2156.19813500
 20
615.26531607
  0
VERTEX
  8
0
 10
2156.22844212
 20
615.06673470
  0
VERTEX
  8
0
 10
2156.27772527
 20
614.87506563
  0
VERTEX
  8
0
 10
2156.34497914
 20
614.69131420
  0
VERTEX
  8
0
 10
2156.42919843
 20
614.51648570
  0
VERTEX
  8
0
 10
2156.52937782
 20
614.35158544
  0
VERTEX
  8
0
 10
2156.64451200
 20
614.19761873
  0
VERTEX
  8
0
 10
2156.77359567
 20
614.05559089
  0
VERTEX
  8
0
 10
2156.91562351
 20
613.92650723
  0
VERTEX
  8
0
 10
2157.06959021
 20
613.81137304
  0
VERTEX
  8
0
 10
2157.23449047
 20
613.71119366
  0
VERTEX
  8
0
 10
2157.40931897
 20
613.62697437
  0
VERTEX
  8
0
 10
2157.59307041
 20
613.55972050
  0
VERTEX
  8
0
 10
2157.78473947
 20
613.51043735
  0
VERTEX
  8
0
 10
2157.98332085
 20
613.48013023
  0
VERTEX
  8
0
 10
2158.18780923
 20
613.46980446
  0
VERTEX
  8
0
 10
2158.39229761
 20
613.48013023
  0
VERTEX
  8
0
 10
2158.59087899
 20
613.51043735
  0
VERTEX
  8
0
 10
2158.78254805
 20
613.55972050
  0
VERTEX
  8
0
 10
2158.96629949
 20
613.62697437
  0
VERTEX
  8
0
 10
2159.14112799
 20
613.71119366
  0
VERTEX
  8
0
 10
2159.30602825
 20
613.81137304
  0
VERTEX
  8
0
 10
2159.45999495
 20
613.92650723
  0
VERTEX
  8
0
 10
2159.60202279
 20
614.05559089
  0
VERTEX
  8
0
 10
2159.73110646
 20
614.19761873
  0
VERTEX
  8
0
 10
2159.84624064
 20
614.35158544
  0
VERTEX
  8
0
 10
2159.94642003
 20
614.51648570
  0
VERTEX
  8
0
 10
2160.03063931
 20
614.69131420
  0
VERTEX
  8
0
 10
2160.09789319
 20
614.87506563
  0
VERTEX
  8
0
 10
2160.14717634
 20
615.06673470
  0
VERTEX
  8
0
 10
2160.17748345
 20
615.26531607
  0
VERTEX
  8
0
 10
2160.18780923
 20
615.46980446
  0
VERTEX
  8
0
 10
2160.17748345
 20
615.67429284
  0
VERTEX
  8
0
 10
2160.14717634
 20
615.87287421
  0
VERTEX
  8
0
 10
2160.09789319
 20
616.06454328
  0
VERTEX
  8
0
 10
2160.03063931
 20
616.24829471
  0
VERTEX
  8
0
 10
2159.94642003
 20
616.42312322
  0
VERTEX
  8
0
 10
2159.84624064
 20
616.58802347
  0
VERTEX
  8
0
 10
2159.73110646
 20
616.74199018
  0
VERTEX
  8
0
 10
2159.60202279
 20
616.88401802
  0
VERTEX
  8
0
 10
2159.45999495
 20
617.01310168
  0
VERTEX
  8
0
 10
2159.30602825
 20
617.12823587
  0
VERTEX
  8
0
 10
2159.14112799
 20
617.22841526
  0
VERTEX
  8
0
 10
2158.96629949
 20
617.31263454
  0
VERTEX
  8
0
 10
2158.78254805
 20
617.37988841
  0
VERTEX
  8
0
 10
2158.59087899
 20
617.42917156
  0
VERTEX
  8
0
 10
2158.39229761
 20
617.45947868
  0
VERTEX
  8
0
 10
2158.18780923
 20
617.46980446
  0
VERTEX
  8
0
 10
2157.98332085
 20
617.45947868
  0
VERTEX
  8
0
 10
2157.78473947
 20
617.42917156
  0
VERTEX
  8
0
 10
2157.59307041
 20
617.37988841
  0
VERTEX
  8
0
 10
2157.40931897
 20
617.31263454
  0
VERTEX
  8
0
 10
2157.23449047
 20
617.22841526
  0
VERTEX
  8
0
 10
2157.06959021
 20
617.12823587
  0
VERTEX
  8
0
 10
2156.91562351
 20
617.01310168
  0
VERTEX
  8
0
 10
2156.77359567
 20
616.88401802
  0
VERTEX
  8
0
 10
2156.64451200
 20
616.74199018
  0
VERTEX
  8
0
 10
2156.52937782
 20
616.58802347
  0
VERTEX
  8
0
 10
2156.42919843
 20
616.42312322
  0
VERTEX
  8
0
 10
2156.34497914
 20
616.24829471
  0
VERTEX
  8
0
 10
2156.27772527
 20
616.06454328
  0
VERTEX
  8
0
 10
2156.22844212
 20
615.87287421
  0
VERTEX
  8
0
 10
2156.19813500
 20
615.67429284
  0
VERTEX
  8
0
 10
2156.18780923
 20
615.46980446
  0
SEQEND
  0
POLYLINE
  8
Default Layer
 66
   1
 39
0.000000
 70
    1
  0
VERTEX
  8
0
 10
2156.18780923
 20
482.25165028
  0
VERTEX
  8
0
 10
2156.19813500
 20
482.04716190
  0
VERTEX
  8
0
 10
2156.22844212
 20
481.84858052
  0
VERTEX
  8
0
 10
2156.27772527
 20
481.65691146
  0
VERTEX
  8
0
 10
2156.34497914
 20
481.47316003
  0
VERTEX
  8
0
 10
2156.42919843
 20
481.29833152
  0
VERTEX
  8
0
 10
2156.52937782
 20
481.13343126
  0
VERTEX
  8
0
 10
2156.64451200
 20
480.97946456
  0
VERTEX
  8
0
 10
2156.77359567
 20
480.83743672
  0
VERTEX
  8
0
 10
2156.91562351
 20
480.70835305
  0
VERTEX
  8
0
 10
2157.06959021
 20
480.59321887
  0
VERTEX
  8
0
 10
2157.23449047
 20
480.49303948
  0
VERTEX
  8
0
 10
2157.40931897
 20
480.40882020
  0
VERTEX
  8
0
 10
2157.59307041
 20
480.34156632
  0
VERTEX
  8
0
 10
2157.78473947
 20
480.29228317
  0
VERTEX
  8
0
 10
2157.98332085
 20
480.26197606
  0
VERTEX
  8
0
 10
2158.18780923
 20
480.25165028
  0
VERTEX
  8
0
 10
2158.39229761
 20
480.26197606
  0
VERTEX
  8
0
 10
2158.59087899
 20
480.29228317
  0
VERTEX
  8
0
 10
2158.78254805
 20
480.34156632
  0
VERTEX
  8
0
 10
2158.96629949
 20
480.40882020
  0
VERTEX
  8
0
 10
2159.14112799
 20
480.49303948
  0
VERTEX
  8
0
 10
2159.30602825
 20
480.59321887
  0
VERTEX
  8
0
 10
2159.45999495
 20
480.70835305
  0
VERTEX
  8
0
 10
2159.60202279
 20
480.83743672
  0
VERTEX
  8
0
 10
2159.73110646
 20
480.97946456
  0
VERTEX
  8
0
 10
2159.84624064
 20
481.13343126
  0
VERTEX
  8
0
 10
2159.94642003
 20
481.29833152
  0
VERTEX
  8
0
 10
2160.03063931
 20
481.47316003
  0
VERTEX
  8
0
 10
2160.09789319
 20
481.65691146
  0
VERTEX
  8
0
 10
2160.14717634
 20
481.84858052
  0
VERTEX
  8
0
 10
2160.17748345
 20
482.04716190
  0
VERTEX
  8
0
 10
2160.18780923
 20
482.25165028
  0
VERTEX
  8
0
 10
2160.17748345
 20
482.45613866
  0
VERTEX
  8
0
 10
2160.14717634
 20
482.65472004
  0
VERTEX
  8
0
 10
2160.09789319
 20
482.84638910
  0
VERTEX
  8
0
 10
2160.03063931
 20
483.03014054
  0
VERTEX
  8
0
 10
2159.94642003
 20
483.20496904
  0
VERTEX
  8
0
 10
2159.84624064
 20
483.36986930
  0
VERTEX
  8
0
 10
2159.73110646
 20
483.52383601
  0
VERTEX
  8
0
 10
2159.60202279
 20
483.66586385
  0
VERTEX
  8
0
 10
2159.45999495
 20
483.79494751
  0
VERTEX
  8
0
 10
2159.30602825
 20
483.91008169
  0
VERTEX
  8
0
 10
2159.14112799
 20
484.01026108
  0
VERTEX
  8
0
 10
2158.96629949
 20
484.09448037
  0
VERTEX
  8
0
 10
2158.78254805
 20
484.16173424
  0
VERTEX
  8
0
 10
2158.59087899
 20
484.21101739
  0
VERTEX
  8
0
 10
2158.39229761
 20
484.24132451
  0
VERTEX
  8
0
 10
2158.18780923
 20
484.25165028
  0
VERTEX
  8
0
 10
2157.98332085
 20
484.24132451
  0
VERTEX
  8
0
 10
2157.78473947
 20
484.21101739
  0
VERTEX
  8
0
 10
2157.59307041
 20
484.16173424
  0
VERTEX
  8
0
 10
2157.40931897
 20
484.09448037
  0
VERTEX
  8
0
 10
2157.23449047
 20
484.01026108
  0
VERTEX
  8
0
 10
2157.06959021
 20
483.91008169
  0
VERTEX
  8
0
 10
2156.91562351
 20
483.79494751
  0
VERTEX
  8
0
 10
2156.77359567
 20
483.66586385
  0
VERTEX
  8
0
 10
2156.64451200
 20
483.52383601
  0
VERTEX
  8
0
 10
2156.52937782
 20
483.36986930
  0
VERTEX
  8
0
 10
2156.42919843
 20
483.20496904
  0
VERTEX
  8
0
 10
2156.34497914
 20
483.03014054
  0
VERTEX
  8
0
 10
2156.27772527
 20
482.84638910
  0
VERTEX
  8
0
 10
2156.22844212
 20
482.65472004
  0
VERTEX
  8
0
 10
2156.19813500
 20
482.45613866
  0
VERTEX
  8
0
 10
2156.18780923
 20
482.25165028
  0
SEQEND
  0
POLYLINE
  8
Default Layer
 66
   1
 39
0.000000
 70
    1
  0
VERTEX
  8
0
 10
1624.24328147
 20
-270.91937765
  0
VERTEX
  8
0
 10
2564.24328147
 20
-270.91937765
  0
VERTEX
  8
0
 10
2564.24328147
 20
-210.91937765
  0
VERTEX
  8
0
 10
1624.24328147
 20
-210.91937765
  0
VERTEX
  8
0
 10
1624.24328147
 20
-270.91937765
  0
SEQEND
  0
POLYLINE
  8
Default Layer
 66
   1
 39
0.000000
 70
    1
  0
VERTEX
  8
0
 10
1624.24328147
 20
-202.81937765
  0
VERTEX
  8
0
 10
2564.24328147
 20
-202.81937765
  0
VERTEX
  8
0
 10
2564.24328147
 20
-142.81937765
  0
VERTEX
  8
0
 10
1624.24328147
 20
-142.81937765
  0
VERTEX
  8
0
 10
1624.24328147
 20
-202.81937765
  0
SEQEND
  0
POLYLINE
  8
Default Layer
 66
   1
 39
0.000000
 70
    1
  0
VERTEX
  8
0
 10
1624.24328147
 20
-134.71937765
  0
VERTEX
  8
0
 10
2564.24328147
 20
-134.71937765
  0
VERTEX
  8
0
 10
2564.24328147
 20
-74.71937765
  0
VERTEX
  8
0
 10
1624.24328147
 20
-74.71937765
  0
VERTEX
  8
0
 10
1624.24328147
 20
-134.71937765
  0
SEQEND
  0
POLYLINE
  8
Default Layer
 66
   1
 39
0.000000
 70
    1
  0
VERTEX
  8
0
 10
1794.23285714
 20
1396.49355198
  0
VERTEX
  8
0
 10
1687.23285714
 20
1396.49355198
  0
VERTEX
  8
0
 10
1687.23285714
 20
1408.79355198
  0
VERTEX
  8
0
 10
1794.23285714
 20
1408.79355198
  0
VERTEX
  8
0
 10
1794.23285714
 20
1396.49355198
  0
SEQEND
  0
POLYLINE
  8
Default Layer
 66
   1
 39
0.000000
 70
    1
  0
VERTEX
  8
0
 10
1844.95513154
 20
1402.49954774
  0
VERTEX
  8
0
 10
1844.94480577
 20
1402.29505936
  0
VERTEX
  8
0
 10
1844.91449865
 20
1402.09647798
  0
VERTEX
  8
0
 10
1844.86521550
 20
1401.90480892
  0
VERTEX
  8
0
 10
1844.79796163
 20
1401.72105748
  0
VERTEX
  8
0
 10
1844.71374234
 20
1401.54622898
  0
VERTEX
  8
0
 10
1844.61356295
 20
1401.38132872
  0
VERTEX
  8
0
 10
1844.49842877
 20
1401.22736201
  0
VERTEX
  8
0
 10
1844.36934510
 20
1401.08533417
  0
VERTEX
  8
0
 10
1844.22731726
 20
1400.95625051
  0
VERTEX
  8
0
 10
1844.07335056
 20
1400.84111633
  0
VERTEX
  8
0
 10
1843.90845030
 20
1400.74093694
  0
VERTEX
  8
0
 10
1843.73362180
 20
1400.65671765
  0
VERTEX
  8
0
 10
1843.54987036
 20
1400.58946378
  0
VERTEX
  8
0
 10
1843.35820130
 20
1400.54018063
  0
VERTEX
  8
0
 10
1843.15961992
 20
1400.50987351
  0
VERTEX
  8
0
 10
1842.95513154
 20
1400.49954774
  0
VERTEX
  8
0
 10
1842.75064316
 20
1400.50987351
  0
VERTEX
  8
0
 10
1842.55206178
 20
1400.54018063
  0
VERTEX
  8
0
 10
1842.36039272
 20
1400.58946378
  0
VERTEX
  8
0
 10
1842.17664128
 20
1400.65671765
  0
VERTEX
  8
0
 10
1842.00181278
 20
1400.74093694
  0
VERTEX
  8
0
 10
1841.83691252
 20
1400.84111633
  0
VERTEX
  8
0
 10
1841.68294582
 20
1400.95625051
  0
VERTEX
  8
0
 10
1841.54091798
 20
1401.08533417
  0
VERTEX
  8
0
 10
1841.41183431
 20
1401.22736201
  0
VERTEX
  8
0
 10
1841.29670013
 20
1401.38132872
  0
VERTEX
  8
0
 10
1841.19652074
 20
1401.54622898
  0
VERTEX
  8
0
 10
1841.11230146
 20
1401.72105748
  0
VERTEX
  8
0
 10
1841.04504758
 20
1401.90480892
  0
VERTEX
  8
0
 10
1840.99576443
 20
1402.09647798
  0
VERTEX
  8
0
 10
1840.96545732
 20
1402.29505936
  0
VERTEX
  8
0
 10
1840.95513154
 20
1402.49954774
  0
VERTEX
  8
0
 10
1840.96545732
 20
1402.70403612
  0
VERTEX
  8
0
 10
1840.99576443
 20
1402.90261750
  0
VERTEX
  8
0
 10
1841.04504758
 20
1403.09428656
  0
VERTEX
  8
0
 10
1841.11230146
 20
1403.27803799
  0
VERTEX
  8
0
 10
1841.19652074
 20
1403.45286650
  0
VERTEX
  8
0
 10
1841.29670013
 20
1403.61776676
  0
VERTEX
  8
0
 10
1841.41183431
 20
1403.77173346
  0
VERTEX
  8
0
 10
1841.54091798
 20
1403.91376130
  0
VERTEX
  8
0
 10
1841.68294582
 20
1404.04284497
  0
VERTEX
  8
0
 10
1841.83691252
 20
1404.15797915
  0
VERTEX
  8
0
 10
1842.00181278
 20
1404.25815854
  0
VERTEX
  8
0
 10
1842.17664128
 20
1404.34237782
  0
VERTEX
  8
0
 10
1842.36039272
 20
1404.40963170
  0
VERTEX
  8
0
 10
1842.55206178
 20
1404.45891485
  0
VERTEX
  8
0
 10
1842.75064316
 20
1404.48922196
  0
VERTEX
  8
0
 10
1842.95513154
 20
1404.49954774
  0
VERTEX
  8
0
 10
1843.15961992
 20
1404.48922196
  0
VERTEX
  8
0
 10
1843.35820130
 20
1404.45891485
  0
VERTEX
  8
0
 10
1843.54987036
 20
1404.40963170
  0
VERTEX
  8
0
 10
1843.73362180
 20
1404.34237782
  0
VERTEX
  8
0
 10
1843.90845030
 20
1404.25815854
  0
VERTEX
  8
0
 10
1844.07335056
 20
1404.15797915
  0
VERTEX
  8
0
 10
1844.22731726
 20
1404.04284497
  0
VERTEX
  8
0
 10
1844.36934510
 20
1403.91376130
  0
VERTEX
  8
0
 10
1844.49842877
 20
1403.77173346
  0
VERTEX
  8
0
 10
1844.61356295
 20
1403.61776676
  0
VERTEX
  8
0
 10
1844.71374234
 20
1403.45286650
  0
VERTEX
  8
0
 10
1844.79796163
 20
1403.27803799
  0
VERTEX
  8
0
 10
1844.86521550
 20
1403.09428656
  0
VERTEX
  8
0
 10
1844.91449865
 20
1402.90261750
  0
VERTEX
  8
0
 10
1844.94480577
 20
1402.70403612
  0
VERTEX
  8
0
 10
1844.95513154
 20
1402.49954774
  0
SEQEND
  0
POLYLINE
  8
Default Layer
 66
   1
 39
0.000000
 70
    1
  0
VERTEX
  8
0
 10
1640.06913154
 20
1402.49954774
  0
VERTEX
  8
0
 10
1640.05880577
 20
1402.29505936
  0
VERTEX
  8
0
 10
1640.02849865
 20
1402.09647798
  0
VERTEX
  8
0
 10
1639.97921550
 20
1401.90480892
  0
VERTEX
  8
0
 10
1639.91196163
 20
1401.72105748
  0
VERTEX
  8
0
 10
1639.82774234
 20
1401.54622898
  0
VERTEX
  8
0
 10
1639.72756295
 20
1401.38132872
  0
VERTEX
  8
0
 10
1639.61242877
 20
1401.22736201
  0
VERTEX
  8
0
 10
1639.48334510
 20
1401.08533417
  0
VERTEX
  8
0
 10
1639.34131726
 20
1400.95625051
  0
VERTEX
  8
0
 10
1639.18735056
 20
1400.84111633
  0
VERTEX
  8
0
 10
1639.02245030
 20
1400.74093694
  0
VERTEX
  8
0
 10
1638.84762180
 20
1400.65671765
  0
VERTEX
  8
0
 10
1638.66387036
 20
1400.58946378
  0
VERTEX
  8
0
 10
1638.47220130
 20
1400.54018063
  0
VERTEX
  8
0
 10
1638.27361992
 20
1400.50987351
  0
VERTEX
  8
0
 10
1638.06913154
 20
1400.49954774
  0
VERTEX
  8
0
 10
1637.86464316
 20
1400.50987351
  0
VERTEX
  8
0
 10
1637.66606178
 20
1400.54018063
  0
VERTEX
  8
0
 10
1637.47439272
 20
1400.58946378
  0
VERTEX
  8
0
 10
1637.29064128
 20
1400.65671765
  0
VERTEX
  8
0
 10
1637.11581278
 20
1400.74093694
  0
VERTEX
  8
0
 10
1636.95091252
 20
1400.84111633
  0
VERTEX
  8
0
 10
1636.79694582
 20
1400.95625051
  0
VERTEX
  8
0
 10
1636.65491798
 20
1401.08533417
  0
VERTEX
  8
0
 10
1636.52583431
 20
1401.22736201
  0
VERTEX
  8
0
 10
1636.41070013
 20
1401.38132872
  0
VERTEX
  8
0
 10
1636.31052074
 20
1401.54622898
  0
VERTEX
  8
0
 10
1636.22630146
 20
1401.72105748
  0
VERTEX
  8
0
 10
1636.15904758
 20
1401.90480892
  0
VERTEX
  8
0
 10
1636.10976443
 20
1402.09647798
  0
VERTEX
  8
0
 10
1636.07945732
 20
1402.29505936
  0
VERTEX
  8
0
 10
1636.06913154
 20
1402.49954774
  0
VERTEX
  8
0
 10
1636.07945732
 20
1402.70403612
  0
VERTEX
  8
0
 10
1636.10976443
 20
1402.90261750
  0
VERTEX
  8
0
 10
1636.15904758
 20
1403.09428656
  0
VERTEX
  8
0
 10
1636.22630146
 20
1403.27803799
  0
VERTEX
  8
0
 10
1636.31052074
 20
1403.45286650
  0
VERTEX
  8
0
 10
1636.41070013
 20
1403.61776676
  0
VERTEX
  8
0
 10
1636.52583431
 20
1403.77173346
  0
VERTEX
  8
0
 10
1636.65491798
 20
1403.91376130
  0
VERTEX
  8
0
 10
1636.79694582
 20
1404.04284497
  0
VERTEX
  8
0
 10
1636.95091252
 20
1404.15797915
  0
VERTEX
  8
0
 10
1637.11581278
 20
1404.25815854
  0
VERTEX
  8
0
 10
1637.29064128
 20
1404.34237782
  0
VERTEX
  8
0
 10
1637.47439272
 20
1404.40963170
  0
VERTEX
  8
0
 10
1637.66606178
 20
1404.45891485
  0
VERTEX
  8
0
 10
1637.86464316
 20
1404.48922196
  0
VERTEX
  8
0
 10
1638.06913154
 20
1404.49954774
  0
VERTEX
  8
0
 10
1638.27361992
 20
1404.48922196
  0
VERTEX
  8
0
 10
1638.47220130
 20
1404.45891485
  0
VERTEX
  8
0
 10
1638.66387036
 20
1404.40963170
  0
VERTEX
  8
0
 10
1638.84762180
 20
1404.34237782
  0
VERTEX
  8
0
 10
1639.02245030
 20
1404.25815854
  0
VERTEX
  8
0
 10
1639.18735056
 20
1404.15797915
  0
VERTEX
  8
0
 10
1639.34131726
 20
1404.04284497
  0
VERTEX
  8
0
 10
1639.48334510
 20
1403.91376130
  0
VERTEX
  8
0
 10
1639.61242877
 20
1403.77173346
  0
VERTEX
  8
0
 10
1639.72756295
 20
1403.61776676
  0
VERTEX
  8
0
 10
1639.82774234
 20
1403.45286650
  0
VERTEX
  8
0
 10
1639.91196163
 20
1403.27803799
  0
VERTEX
  8
0
 10
1639.97921550
 20
1403.09428656
  0
VERTEX
  8
0
 10
1640.02849865
 20
1402.90261750
  0
VERTEX
  8
0
 10
1640.05880577
 20
1402.70403612
  0
VERTEX
  8
0
 10
1640.06913154
 20
1402.49954774
  0
SEQEND
  0
POLYLINE
  8
Default Layer
 66
   1
 39
0.000000
 70
    1
  0
VERTEX
  8
0
 10
1560.59052334
 20
2167.49539700
  0
VERTEX
  8
0
 10
1554.59265084
 20
2167.49539700
  0
VERTEX
  8
0
 10
1554.59265084
 20
2195.49539700
  0
VERTEX
  8
0
 10
1560.59052334
 20
2195.49539700
  0
VERTEX
  8
0
 10
1560.59052334
 20
2236.50039781
  0
VERTEX
  8
0
 10
1651.70563647
 20
2236.50039781
  0
VERTEX
  8
0
 10
1740.76599859
 20
2131.48345969
  0
VERTEX
  8
0
 10
1741.32884890
 20
1957.51939589
  0
VERTEX
  8
0
 10
1920.59405941
 20
1875.70599590
  0
VERTEX
  8
0
 10
1920.59405941
 20
1166.50636492
  0
VERTEX
  8
0
 10
1560.59052334
 20
1166.50636492
  0
VERTEX
  8
0
 10
1560.59052334
 20
2167.49539700
  0
SEQEND
  0
POLYLINE
  8
Default Layer
 66
   1
 39
0.000000
 70
    1
  0
VERTEX
  8
0
 10
1794.23285714
 20
1606.47763967
  0
VERTEX
  8
0
 10
1687.23285714
 20
1606.47763967
  0
VERTEX
  8
0
 10
1687.23285714
 20
1618.77763967
  0
VERTEX
  8
0
 10
1794.23285714
 20
1618.77763967
  0
VERTEX
  8
0
 10
1794.23285714
 20
1606.47763967
  0
SEQEND
  0
POLYLINE
  8
Default Layer
 66
   1
 39
0.000000
 70
    1
  0
VERTEX
  8
0
 10
1844.95513154
 20
1612.48363543
  0
VERTEX
  8
0
 10
1844.94480577
 20
1612.27914705
  0
VERTEX
  8
0
 10
1844.91449865
 20
1612.08056567
  0
VERTEX
  8
0
 10
1844.86521550
 20
1611.88889661
  0
VERTEX
  8
0
 10
1844.79796163
 20
1611.70514517
  0
VERTEX
  8
0
 10
1844.71374234
 20
1611.53031667
  0
VERTEX
  8
0
 10
1844.61356295
 20
1611.36541641
  0
VERTEX
  8
0
 10
1844.49842877
 20
1611.21144971
  0
VERTEX
  8
0
 10
1844.36934510
 20
1611.06942187
  0
VERTEX
  8
0
 10
1844.22731726
 20
1610.94033820
  0
VERTEX
  8
0
 10
1844.07335056
 20
1610.82520402
  0
VERTEX
  8
0
 10
1843.90845030
 20
1610.72502463
  0
VERTEX
  8
0
 10
1843.73362180
 20
1610.64080535
  0
VERTEX
  8
0
 10
1843.54987036
 20
1610.57355147
  0
VERTEX
  8
0
 10
1843.35820130
 20
1610.52426832
  0
VERTEX
  8
0
 10
1843.15961992
 20
1610.49396121
  0
VERTEX
  8
0
 10
1842.95513154
 20
1610.48363543
  0
VERTEX
  8
0
 10
1842.75064316
 20
1610.49396121
  0
VERTEX
  8
0
 10
1842.55206178
 20
1610.52426832
  0
VERTEX
  8
0
 10
1842.36039272
 20
1610.57355147
  0
VERTEX
  8
0
 10
1842.17664128
 20
1610.64080535
  0
VERTEX
  8
0
 10
1842.00181278
 20
1610.72502463
  0
VERTEX
  8
0
 10
1841.83691252
 20
1610.82520402
  0
VERTEX
  8
0
 10
1841.68294582
 20
1610.94033820
  0
VERTEX
  8
0
 10
1841.54091798
 20
1611.06942187
  0
VERTEX
  8
0
 10
1841.41183431
 20
1611.21144971
  0
VERTEX
  8
0
 10
1841.29670013
 20
1611.36541641
  0
VERTEX
  8
0
 10
1841.19652074
 20
1611.53031667
  0
VERTEX
  8
0
 10
1841.11230146
 20
1611.70514517
  0
VERTEX
  8
0
 10
1841.04504758
 20
1611.88889661
  0
VERTEX
  8
0
 10
1840.99576443
 20
1612.08056567
  0
VERTEX
  8
0
 10
1840.96545732
 20
1612.27914705
  0
VERTEX
  8
0
 10
1840.95513154
 20
1612.48363543
  0
VERTEX
  8
0
 10
1840.96545732
 20
1612.68812381
  0
VERTEX
  8
0
 10
1840.99576443
 20
1612.88670519
  0
VERTEX
  8
0
 10
1841.04504758
 20
1613.07837425
  0
VERTEX
  8
0
 10
1841.11230146
 20
1613.26212569
  0
VERTEX
  8
0
 10
1841.19652074
 20
1613.43695419
  0
VERTEX
  8
0
 10
1841.29670013
 20
1613.60185445
  0
VERTEX
  8
0
 10
1841.41183431
 20
1613.75582115
  0
VERTEX
  8
0
 10
1841.54091798
 20
1613.89784899
  0
VERTEX
  8
0
 10
1841.68294582
 20
1614.02693266
  0
VERTEX
  8
0
 10
1841.83691252
 20
1614.14206684
  0
VERTEX
  8
0
 10
1842.00181278
 20
1614.24224623
  0
VERTEX
  8
0
 10
1842.17664128
 20
1614.32646552
  0
VERTEX
  8
0
 10
1842.36039272
 20
1614.39371939
  0
VERTEX
  8
0
 10
1842.55206178
 20
1614.44300254
  0
VERTEX
  8
0
 10
1842.75064316
 20
1614.47330966
  0
VERTEX
  8
0
 10
1842.95513154
 20
1614.48363543
  0
VERTEX
  8
0
 10
1843.15961992
 20
1614.47330966
  0
VERTEX
  8
0
 10
1843.35820130
 20
1614.44300254
  0
VERTEX
  8
0
 10
1843.54987036
 20
1614.39371939
  0
VERTEX
  8
0
 10
1843.73362180
 20
1614.32646552
  0
VERTEX
  8
0
 10
1843.90845030
 20
1614.24224623
  0
VERTEX
  8
0
 10
1844.07335056
 20
1614.14206684
  0
VERTEX
  8
0
 10
1844.22731726
 20
1614.02693266
  0
VERTEX
  8
0
 10
1844.36934510
 20
1613.89784899
  0
VERTEX
  8
0
 10
1844.49842877
 20
1613.75582115
  0
VERTEX
  8
0
 10
1844.61356295
 20
1613.60185445
  0
VERTEX
  8
0
 10
1844.71374234
 20
1613.43695419
  0
VERTEX
  8
0
 10
1844.79796163
 20
1613.26212569
  0
VERTEX
  8
0
 10
1844.86521550
 20
1613.07837425
  0
VERTEX
  8
0
 10
1844.91449865
 20
1612.88670519
  0
VERTEX
  8
0
 10
1844.94480577
 20
1612.68812381
  0
VERTEX
  8
0
 10
1844.95513154
 20
1612.48363543
  0
SEQEND
  0
POLYLINE
  8
Default Layer
 66
   1
 39
0.000000
 70
    1
  0
VERTEX
  8
0
 10
1640.06913154
 20
1612.48363543
  0
VERTEX
  8
0
 10
1640.05880577
 20
1612.27914705
  0
VERTEX
  8
0
 10
1640.02849865
 20
1612.08056567
  0
VERTEX
  8
0
 10
1639.97921550
 20
1611.88889661
  0
VERTEX
  8
0
 10
1639.91196163
 20
1611.70514517
  0
VERTEX
  8
0
 10
1639.82774234
 20
1611.53031667
  0
VERTEX
  8
0
 10
1639.72756295
 20
1611.36541641
  0
VERTEX
  8
0
 10
1639.61242877
 20
1611.21144971
  0
VERTEX
  8
0
 10
1639.48334510
 20
1611.06942187
  0
VERTEX
  8
0
 10
1639.34131726
 20
1610.94033820
  0
VERTEX
  8
0
 10
1639.18735056
 20
1610.82520402
  0
VERTEX
  8
0
 10
1639.02245030
 20
1610.72502463
  0
VERTEX
  8
0
 10
1638.84762180
 20
1610.64080535
  0
VERTEX
  8
0
 10
1638.66387036
 20
1610.57355147
  0
VERTEX
  8
0
 10
1638.47220130
 20
1610.52426832
  0
VERTEX
  8
0
 10
1638.27361992
 20
1610.49396121
  0
VERTEX
  8
0
 10
1638.06913154
 20
1610.48363543
  0
VERTEX
  8
0
 10
1637.86464316
 20
1610.49396121
  0
VERTEX
  8
0
 10
1637.66606178
 20
1610.52426832
  0
VERTEX
  8
0
 10
1637.47439272
 20
1610.57355147
  0
VERTEX
  8
0
 10
1637.29064128
 20
1610.64080535
  0
VERTEX
  8
0
 10
1637.11581278
 20
1610.72502463
  0
VERTEX
  8
0
 10
1636.95091252
 20
1610.82520402
  0
VERTEX
  8
0
 10
1636.79694582
 20
1610.94033820
  0
VERTEX
  8
0
 10
1636.65491798
 20
1611.06942187
  0
VERTEX
  8
0
 10
1636.52583431
 20
1611.21144971
  0
VERTEX
  8
0
 10
1636.41070013
 20
1611.36541641
  0
VERTEX
  8
0
 10
1636.31052074
 20
1611.53031667
  0
VERTEX
  8
0
 10
1636.22630146
 20
1611.70514517
  0
VERTEX
  8
0
 10
1636.15904758
 20
1611.88889661
  0
VERTEX
  8
0
 10
1636.10976443
 20
1612.08056567
  0
VERTEX
  8
0
 10
1636.07945732
 20
1612.27914705
  0
VERTEX
  8
0
 10
1636.06913154
 20
1612.48363543
  0
VERTEX
  8
0
 10
1636.07945732
 20
1612.68812381
  0
VERTEX
  8
0
 10
1636.10976443
 20
1612.88670519
  0
VERTEX
  8
0
 10
1636.15904758
 20
1613.07837425
  0
VERTEX
  8
0
 10
1636.22630146
 20
1613.26212569
  0
VERTEX
  8
0
 10
1636.31052074
 20
1613.43695419
  0
VERTEX
  8
0
 10
1636.41070013
 20
1613.60185445
  0
VERTEX
  8
0
 10
1636.52583431
 20
1613.75582115
  0
VERTEX
  8
0
 10
1636.65491798
 20
1613.89784899
  0
VERTEX
  8
0
 10
1636.79694582
 20
1614.02693266
  0
VERTEX
  8
0
 10
1636.95091252
 20
1614.14206684
  0
VERTEX
  8
0
 10
1637.11581278
 20
1614.24224623
  0
VERTEX
  8
0
 10
1637.29064128
 20
1614.32646552
  0
VERTEX
  8
0
 10
1637.47439272
 20
1614.39371939
  0
VERTEX
  8
0
 10
1637.66606178
 20
1614.44300254
  0
VERTEX
  8
0
 10
1637.86464316
 20
1614.47330966
  0
VERTEX
  8
0
 10
1638.06913154
 20
1614.48363543
  0
VERTEX
  8
0
 10
1638.27361992
 20
1614.47330966
  0
VERTEX
  8
0
 10
1638.47220130
 20
1614.44300254
  0
VERTEX
  8
0
 10
1638.66387036
 20
1614.39371939
  0
VERTEX
  8
0
 10
1638.84762180
 20
1614.32646552
  0
VERTEX
  8
0
 10
1639.02245030
 20
1614.24224623
  0
VERTEX
  8
0
 10
1639.18735056
 20
1614.14206684
  0
VERTEX
  8
0
 10
1639.34131726
 20
1614.02693266
  0
VERTEX
  8
0
 10
1639.48334510
 20
1613.89784899
  0
VERTEX
  8
0
 10
1639.61242877
 20
1613.75582115
  0
VERTEX
  8
0
 10
1639.72756295
 20
1613.60185445
  0
VERTEX
  8
0
 10
1639.82774234
 20
1613.43695419
  0
VERTEX
  8
0
 10
1639.91196163
 20
1613.26212569
  0
VERTEX
  8
0
 10
1639.97921550
 20
1613.07837425
  0
VERTEX
  8
0
 10
1640.02849865
 20
1612.88670519
  0
VERTEX
  8
0
 10
1640.05880577
 20
1612.68812381
  0
VERTEX
  8
0
 10
1640.06913154
 20
1612.48363543
  0
SEQEND
  0
POLYLINE
  8
Default Layer
 66
   1
 39
0.000000
 70
    1
  0
VERTEX
  8
0
 10
1794.23285714
 20
1816.50217115
  0
VERTEX
  8
0
 10
1687.23285714
 20
1816.50217115
  0
VERTEX
  8
0
 10
1687.23285714
 20
1828.80217115
  0
VERTEX
  8
0
 10
1794.23285714
 20
1828.80217115
  0
VERTEX
  8
0
 10
1794.23285714
 20
1816.50217115
  0
SEQEND
  0
POLYLINE
  8
Default Layer
 66
   1
 39
0.000000
 70
    1
  0
VERTEX
  8
0
 10
1844.95513154
 20
1822.50816690
  0
VERTEX
  8
0
 10
1844.94480577
 20
1822.30367852
  0
VERTEX
  8
0
 10
1844.91449865
 20
1822.10509714
  0
VERTEX
  8
0
 10
1844.86521550
 20
1821.91342808
  0
VERTEX
  8
0
 10
1844.79796163
 20
1821.72967664
  0
VERTEX
  8
0
 10
1844.71374234
 20
1821.55484814
  0
VERTEX
  8
0
 10
1844.61356295
 20
1821.38994788
  0
VERTEX
  8
0
 10
1844.49842877
 20
1821.23598118
  0
VERTEX
  8
0
 10
1844.36934510
 20
1821.09395334
  0
VERTEX
  8
0
 10
1844.22731726
 20
1820.96486967
  0
VERTEX
  8
0
 10
1844.07335056
 20
1820.84973549
  0
VERTEX
  8
0
 10
1843.90845030
 20
1820.74955610
  0
VERTEX
  8
0
 10
1843.73362180
 20
1820.66533682
  0
VERTEX
  8
0
 10
1843.54987036
 20
1820.59808294
  0
VERTEX
  8
0
 10
1843.35820130
 20
1820.54879979
  0
VERTEX
  8
0
 10
1843.15961992
 20
1820.51849268
  0
VERTEX
  8
0
 10
1842.95513154
 20
1820.50816690
  0
VERTEX
  8
0
 10
1842.75064316
 20
1820.51849268
  0
VERTEX
  8
0
 10
1842.55206178
 20
1820.54879979
  0
VERTEX
  8
0
 10
1842.36039272
 20
1820.59808294
  0
VERTEX
  8
0
 10
1842.17664128
 20
1820.66533682
  0
VERTEX
  8
0
 10
1842.00181278
 20
1820.74955610
  0
VERTEX
  8
0
 10
1841.83691252
 20
1820.84973549
  0
VERTEX
  8
0
 10
1841.68294582
 20
1820.96486967
  0
VERTEX
  8
0
 10
1841.54091798
 20
1821.09395334
  0
VERTEX
  8
0
 10
1841.41183431
 20
1821.23598118
  0
VERTEX
  8
0
 10
1841.29670013
 20
1821.38994788
  0
VERTEX
  8
0
 10
1841.19652074
 20
1821.55484814
  0
VERTEX
  8
0
 10
1841.11230146
 20
1821.72967664
  0
VERTEX
  8
0
 10
1841.04504758
 20
1821.91342808
  0
VERTEX
  8
0
 10
1840.99576443
 20
1822.10509714
  0
VERTEX
  8
0
 10
1840.96545732
 20
1822.30367852
  0
VERTEX
  8
0
 10
1840.95513154
 20
1822.50816690
  0
VERTEX
  8
0
 10
1840.96545732
 20
1822.71265528
  0
VERTEX
  8
0
 10
1840.99576443
 20
1822.91123666
  0
VERTEX
  8
0
 10
1841.04504758
 20
1823.10290572
  0
VERTEX
  8
0
 10
1841.11230146
 20
1823.28665716
  0
VERTEX
  8
0
 10
1841.19652074
 20
1823.46148566
  0
VERTEX
  8
0
 10
1841.29670013
 20
1823.62638592
  0
VERTEX
  8
0
 10
1841.41183431
 20
1823.78035262
  0
VERTEX
  8
0
 10
1841.54091798
 20
1823.92238046
  0
VERTEX
  8
0
 10
1841.68294582
 20
1824.05146413
  0
VERTEX
  8
0
 10
1841.83691252
 20
1824.16659831
  0
VERTEX
  8
0
 10
1842.00181278
 20
1824.26677770
  0
VERTEX
  8
0
 10
1842.17664128
 20
1824.35099699
  0
VERTEX
  8
0
 10
1842.36039272
 20
1824.41825086
  0
VERTEX
  8
0
 10
1842.55206178
 20
1824.46753401
  0
VERTEX
  8
0
 10
1842.75064316
 20
1824.49784113
  0
VERTEX
  8
0
 10
1842.95513154
 20
1824.50816690
  0
VERTEX
  8
0
 10
1843.15961992
 20
1824.49784113
  0
VERTEX
  8
0
 10
1843.35820130
 20
1824.46753401
  0
VERTEX
  8
0
 10
1843.54987036
 20
1824.41825086
  0
VERTEX
  8
0
 10
1843.73362180
 20
1824.35099699
  0
VERTEX
  8
0
 10
1843.90845030
 20
1824.26677770
  0
VERTEX
  8
0
 10
1844.07335056
 20
1824.16659831
  0
VERTEX
  8
0
 10
1844.22731726
 20
1824.05146413
  0
VERTEX
  8
0
 10
1844.36934510
 20
1823.92238046
  0
VERTEX
  8
0
 10
1844.49842877
 20
1823.78035262
  0
VERTEX
  8
0
 10
1844.61356295
 20
1823.62638592
  0
VERTEX
  8
0
 10
1844.71374234
 20
1823.46148566
  0
VERTEX
  8
0
 10
1844.79796163
 20
1823.28665716
  0
VERTEX
  8
0
 10
1844.86521550
 20
1823.10290572
  0
VERTEX
  8
0
 10
1844.91449865
 20
1822.91123666
  0
VERTEX
  8
0
 10
1844.94480577
 20
1822.71265528
  0
VERTEX
  8
0
 10
1844.95513154
 20
1822.50816690
  0
SEQEND
  0
POLYLINE
  8
Default Layer
 66
   1
 39
0.000000
 70
    1
  0
VERTEX
  8
0
 10
1640.06913154
 20
1822.50816690
  0
VERTEX
  8
0
 10
1640.05880577
 20
1822.30367852
  0
VERTEX
  8
0
 10
1640.02849865
 20
1822.10509714
  0
VERTEX
  8
0
 10
1639.97921550
 20
1821.91342808
  0
VERTEX
  8
0
 10
1639.91196163
 20
1821.72967664
  0
VERTEX
  8
0
 10
1639.82774234
 20
1821.55484814
  0
VERTEX
  8
0
 10
1639.72756295
 20
1821.38994788
  0
VERTEX
  8
0
 10
1639.61242877
 20
1821.23598118
  0
VERTEX
  8
0
 10
1639.48334510
 20
1821.09395334
  0
VERTEX
  8
0
 10
1639.34131726
 20
1820.96486967
  0
VERTEX
  8
0
 10
1639.18735056
 20
1820.84973549
  0
VERTEX
  8
0
 10
1639.02245030
 20
1820.74955610
  0
VERTEX
  8
0
 10
1638.84762180
 20
1820.66533682
  0
VERTEX
  8
0
 10
1638.66387036
 20
1820.59808294
  0
VERTEX
  8
0
 10
1638.47220130
 20
1820.54879979
  0
VERTEX
  8
0
 10
1638.27361992
 20
1820.51849268
  0
VERTEX
  8
0
 10
1638.06913154
 20
1820.50816690
  0
VERTEX
  8
0
 10
1637.86464316
 20
1820.51849268
  0
VERTEX
  8
0
 10
1637.66606178
 20
1820.54879979
  0
VERTEX
  8
0
 10
1637.47439272
 20
1820.59808294
  0
VERTEX
  8
0
 10
1637.29064128
 20
1820.66533682
  0
VERTEX
  8
0
 10
1637.11581278
 20
1820.74955610
  0
VERTEX
  8
0
 10
1636.95091252
 20
1820.84973549
  0
VERTEX
  8
0
 10
1636.79694582
 20
1820.96486967
  0
VERTEX
  8
0
 10
1636.65491798
 20
1821.09395334
  0
VERTEX
  8
0
 10
1636.52583431
 20
1821.23598118
  0
VERTEX
  8
0
 10
1636.41070013
 20
1821.38994788
  0
VERTEX
  8
0
 10
1636.31052074
 20
1821.55484814
  0
VERTEX
  8
0
 10
1636.22630146
 20
1821.72967664
  0
VERTEX
  8
0
 10
1636.15904758
 20
1821.91342808
  0
VERTEX
  8
0
 10
1636.10976443
 20
1822.10509714
  0
VERTEX
  8
0
 10
1636.07945732
 20
1822.30367852
  0
VERTEX
  8
0
 10
1636.06913154
 20
1822.50816690
  0
VERTEX
  8
0
 10
1636.07945732
 20
1822.71265528
  0
VERTEX
  8
0
 10
1636.10976443
 20
1822.91123666
  0
VERTEX
  8
0
 10
1636.15904758
 20
1823.10290572
  0
VERTEX
  8
0
 10
1636.22630146
 20
1823.28665716
  0
VERTEX
  8
0
 10
1636.31052074
 20
1823.46148566
  0
VERTEX
  8
0
 10
1636.41070013
 20
1823.62638592
  0
VERTEX
  8
0
 10
1636.52583431
 20
1823.78035262
  0
VERTEX
  8
0
 10
1636.65491798
 20
1823.92238046
  0
VERTEX
  8
0
 10
1636.79694582
 20
1824.05146413
  0
VERTEX
  8
0
 10
1636.95091252
 20
1824.16659831
  0
VERTEX
  8
0
 10
1637.11581278
 20
1824.26677770
  0
VERTEX
  8
0
 10
1637.29064128
 20
1824.35099699
  0
VERTEX
  8
0
 10
1637.47439272
 20
1824.41825086
  0
VERTEX
  8
0
 10
1637.66606178
 20
1824.46753401
  0
VERTEX
  8
0
 10
1637.86464316
 20
1824.49784113
  0
VERTEX
  8
0
 10
1638.06913154
 20
1824.50816690
  0
VERTEX
  8
0
 10
1638.27361992
 20
1824.49784113
  0
VERTEX
  8
0
 10
1638.47220130
 20
1824.46753401
  0
VERTEX
  8
0
 10
1638.66387036
 20
1824.41825086
  0
VERTEX
  8
0
 10
1638.84762180
 20
1824.35099699
  0
VERTEX
  8
0
 10
1639.02245030
 20
1824.26677770
  0
VERTEX
  8
0
 10
1639.18735056
 20
1824.16659831
  0
VERTEX
  8
0
 10
1639.34131726
 20
1824.05146413
  0
VERTEX
  8
0
 10
1639.48334510
 20
1823.92238046
  0
VERTEX
  8
0
 10
1639.61242877
 20
1823.78035262
  0
VERTEX
  8
0
 10
1639.72756295
 20
1823.62638592
  0
VERTEX
  8
0
 10
1639.82774234
 20
1823.46148566
  0
VERTEX
  8
0
 10
1639.91196163
 20
1823.28665716
  0
VERTEX
  8
0
 10
1639.97921550
 20
1823.10290572
  0
VERTEX
  8
0
 10
1640.02849865
 20
1822.91123666
  0
VERTEX
  8
0
 10
1640.05880577
 20
1822.71265528
  0
VERTEX
  8
0
 10
1640.06913154
 20
1822.50816690
  0
SEQEND
  0
POLYLINE
  8
Default Layer
 66
   1
 39
0.000000
 70
    1
  0
VERTEX
  8
0
 10
1692.77158416
 20
2026.53170297
  0
VERTEX
  8
0
 10
1692.77158416
 20
2038.83170297
  0
VERTEX
  8
0
 10
1608.77158416
 20
2038.83170297
  0
VERTEX
  8
0
 10
1608.77158416
 20
2026.53170297
  0
VERTEX
  8
0
 10
1692.77158416
 20
2026.53170297
  0
SEQEND
  0
POLYLINE
  8
Default Layer
 66
   1
 39
0.000000
 70
    1
  0
VERTEX
  8
0
 10
-24.30534653
 20
1431.00557461
  0
VERTEX
  8
0
 10
82.69465347
 20
1431.00557461
  0
VERTEX
  8
0
 10
82.69465347
 20
1443.30557461
  0
VERTEX
  8
0
 10
-24.30534653
 20
1443.30557461
  0
VERTEX
  8
0
 10
-24.30534653
 20
1431.00557461
  0
SEQEND
  0
POLYLINE
  8
Default Layer
 66
   1
 39
0.000000
 70
    1
  0
VERTEX
  8
0
 10
-75.02762093
 20
1437.01157037
  0
VERTEX
  8
0
 10
-75.01729516
 20
1436.80708199
  0
VERTEX
  8
0
 10
-74.98698804
 20
1436.60850061
  0
VERTEX
  8
0
 10
-74.93770489
 20
1436.41683155
  0
VERTEX
  8
0
 10
-74.87045102
 20
1436.23308011
  0
VERTEX
  8
0
 10
-74.78623173
 20
1436.05825161
  0
VERTEX
  8
0
 10
-74.68605234
 20
1435.89335135
  0
VERTEX
  8
0
 10
-74.57091816
 20
1435.73938465
  0
VERTEX
  8
0
 10
-74.44183450
 20
1435.59735681
  0
VERTEX
  8
0
 10
-74.29980666
 20
1435.46827314
  0
VERTEX
  8
0
 10
-74.14583995
 20
1435.35313896
  0
VERTEX
  8
0
 10
-73.98093969
 20
1435.25295957
  0
VERTEX
  8
0
 10
-73.80611119
 20
1435.16874028
  0
VERTEX
  8
0
 10
-73.62235975
 20
1435.10148641
  0
VERTEX
  8
0
 10
-73.43069069
 20
1435.05220326
  0
VERTEX
  8
0
 10
-73.23210932
 20
1435.02189614
  0
VERTEX
  8
0
 10
-73.02762093
 20
1435.01157037
  0
VERTEX
  8
0
 10
-72.82313255
 20
1435.02189614
  0
VERTEX
  8
0
 10
-72.62455117
 20
1435.05220326
  0
VERTEX
  8
0
 10
-72.43288211
 20
1435.10148641
  0
VERTEX
  8
0
 10
-72.24913068
 20
1435.16874028
  0
VERTEX
  8
0
 10
-72.07430217
 20
1435.25295957
  0
VERTEX
  8
0
 10
-71.90940192
 20
1435.35313896
  0
VERTEX
  8
0
 10
-71.75543521
 20
1435.46827314
  0
VERTEX
  8
0
 10
-71.61340737
 20
1435.59735681
  0
VERTEX
  8
0
 10
-71.48432371
 20
1435.73938465
  0
VERTEX
  8
0
 10
-71.36918952
 20
1435.89335135
  0
VERTEX
  8
0
 10
-71.26901013
 20
1436.05825161
  0
VERTEX
  8
0
 10
-71.18479085
 20
1436.23308011
  0
VERTEX
  8
0
 10
-71.11753697
 20
1436.41683155
  0
VERTEX
  8
0
 10
-71.06825383
 20
1436.60850061
  0
VERTEX
  8
0
 10
-71.03794671
 20
1436.80708199
  0
VERTEX
  8
0
 10
-71.02762093
 20
1437.01157037
  0
VERTEX
  8
0
 10
-71.03794671
 20
1437.21605875
  0
VERTEX
  8
0
 10
-71.06825383
 20
1437.41464013
  0
VERTEX
  8
0
 10
-71.11753697
 20
1437.60630919
  0
VERTEX
  8
0
 10
-71.18479085
 20
1437.79006063
  0
VERTEX
  8
0
 10
-71.26901013
 20
1437.96488913
  0
VERTEX
  8
0
 10
-71.36918952
 20
1438.12978939
  0
VERTEX
  8
0
 10
-71.48432371
 20
1438.28375609
  0
VERTEX
  8
0
 10
-71.61340737
 20
1438.42578393
  0
VERTEX
  8
0
 10
-71.75543521
 20
1438.55486760
  0
VERTEX
  8
0
 10
-71.90940192
 20
1438.67000178
  0
VERTEX
  8
0
 10
-72.07430217
 20
1438.77018117
  0
VERTEX
  8
0
 10
-72.24913068
 20
1438.85440045
  0
VERTEX
  8
0
 10
-72.43288211
 20
1438.92165433
  0
VERTEX
  8
0
 10
-72.62455117
 20
1438.97093748
  0
VERTEX
  8
0
 10
-72.82313255
 20
1439.00124459
  0
VERTEX
  8
0
 10
-73.02762093
 20
1439.01157037
  0
VERTEX
  8
0
 10
-73.23210932
 20
1439.00124459
  0
VERTEX
  8
0
 10
-73.43069069
 20
1438.97093748
  0
VERTEX
  8
0
 10
-73.62235975
 20
1438.92165433
  0
VERTEX
  8
0
 10
-73.80611119
 20
1438.85440045
  0
VERTEX
  8
0
 10
-73.98093969
 20
1438.77018117
  0
VERTEX
  8
0
 10
-74.14583995
 20
1438.67000178
  0
VERTEX
  8
0
 10
-74.29980666
 20
1438.55486760
  0
VERTEX
  8
0
 10
-74.44183450
 20
1438.42578393
  0
VERTEX
  8
0
 10
-74.57091816
 20
1438.28375609
  0
VERTEX
  8
0
 10
-74.68605234
 20
1438.12978939
  0
VERTEX
  8
0
 10
-74.78623173
 20
1437.96488913
  0
VERTEX
  8
0
 10
-74.87045102
 20
1437.79006063
  0
VERTEX
  8
0
 10
-74.93770489
 20
1437.60630919
  0
VERTEX
  8
0
 10
-74.98698804
 20
1437.41464013
  0
VERTEX
  8
0
 10
-75.01729516
 20
1437.21605875
  0
VERTEX
  8
0
 10
-75.02762093
 20
1437.01157037
  0
SEQEND
  0
POLYLINE
  8
Default Layer
 66
   1
 39
0.000000
 70
    1
  0
VERTEX
  8
0
 10
129.85837907
 20
1437.01157037
  0
VERTEX
  8
0
 10
129.86870484
 20
1436.80708199
  0
VERTEX
  8
0
 10
129.89901196
 20
1436.60850061
  0
VERTEX
  8
0
 10
129.94829511
 20
1436.41683155
  0
VERTEX
  8
0
 10
130.01554898
 20
1436.23308011
  0
VERTEX
  8
0
 10
130.09976827
 20
1436.05825161
  0
VERTEX
  8
0
 10
130.19994766
 20
1435.89335135
  0
VERTEX
  8
0
 10
130.31508184
 20
1435.73938465
  0
VERTEX
  8
0
 10
130.44416550
 20
1435.59735681
  0
VERTEX
  8
0
 10
130.58619334
 20
1435.46827314
  0
VERTEX
  8
0
 10
130.74016005
 20
1435.35313896
  0
VERTEX
  8
0
 10
130.90506031
 20
1435.25295957
  0
VERTEX
  8
0
 10
131.07988881
 20
1435.16874028
  0
VERTEX
  8
0
 10
131.26364025
 20
1435.10148641
  0
VERTEX
  8
0
 10
131.45530931
 20
1435.05220326
  0
VERTEX
  8
0
 10
131.65389068
 20
1435.02189614
  0
VERTEX
  8
0
 10
131.85837907
 20
1435.01157037
  0
VERTEX
  8
0
 10
132.06286745
 20
1435.02189614
  0
VERTEX
  8
0
 10
132.26144883
 20
1435.05220326
  0
VERTEX
  8
0
 10
132.45311789
 20
1435.10148641
  0
VERTEX
  8
0
 10
132.63686932
 20
1435.16874028
  0
VERTEX
  8
0
 10
132.81169783
 20
1435.25295957
  0
VERTEX
  8
0
 10
132.97659808
 20
1435.35313896
  0
VERTEX
  8
0
 10
133.13056479
 20
1435.46827314
  0
VERTEX
  8
0
 10
133.27259263
 20
1435.59735681
  0
VERTEX
  8
0
 10
133.40167629
 20
1435.73938465
  0
VERTEX
  8
0
 10
133.51681048
 20
1435.89335135
  0
VERTEX
  8
0
 10
133.61698987
 20
1436.05825161
  0
VERTEX
  8
0
 10
133.70120915
 20
1436.23308011
  0
VERTEX
  8
0
 10
133.76846303
 20
1436.41683155
  0
VERTEX
  8
0
 10
133.81774617
 20
1436.60850061
  0
VERTEX
  8
0
 10
133.84805329
 20
1436.80708199
  0
VERTEX
  8
0
 10
133.85837907
 20
1437.01157037
  0
VERTEX
  8
0
 10
133.84805329
 20
1437.21605875
  0
VERTEX
  8
0
 10
133.81774617
 20
1437.41464013
  0
VERTEX
  8
0
 10
133.76846303
 20
1437.60630919
  0
VERTEX
  8
0
 10
133.70120915
 20
1437.79006063
  0
VERTEX
  8
0
 10
133.61698987
 20
1437.96488913
  0
VERTEX
  8
0
 10
133.51681048
 20
1438.12978939
  0
VERTEX
  8
0
 10
133.40167629
 20
1438.28375609
  0
VERTEX
  8
0
 10
133.27259263
 20
1438.42578393
  0
VERTEX
  8
0
 10
133.13056479
 20
1438.55486760
  0
VERTEX
  8
0
 10
132.97659808
 20
1438.67000178
  0
VERTEX
  8
0
 10
132.81169783
 20
1438.77018117
  0
VERTEX
  8
0
 10
132.63686932
 20
1438.85440045
  0
VERTEX
  8
0
 10
132.45311789
 20
1438.92165433
  0
VERTEX
  8
0
 10
132.26144883
 20
1438.97093748
  0
VERTEX
  8
0
 10
132.06286745
 20
1439.00124459
  0
VERTEX
  8
0
 10
131.85837907
 20
1439.01157037
  0
VERTEX
  8
0
 10
131.65389068
 20
1439.00124459
  0
VERTEX
  8
0
 10
131.45530931
 20
1438.97093748
  0
VERTEX
  8
0
 10
131.26364025
 20
1438.92165433
  0
VERTEX
  8
0
 10
131.07988881
 20
1438.85440045
  0
VERTEX
  8
0
 10
130.90506031
 20
1438.77018117
  0
VERTEX
  8
0
 10
130.74016005
 20
1438.67000178
  0
VERTEX
  8
0
 10
130.58619334
 20
1438.55486760
  0
VERTEX
  8
0
 10
130.44416550
 20
1438.42578393
  0
VERTEX
  8
0
 10
130.31508184
 20
1438.28375609
  0
VERTEX
  8
0
 10
130.19994766
 20
1438.12978939
  0
VERTEX
  8
0
 10
130.09976827
 20
1437.96488913
  0
VERTEX
  8
0
 10
130.01554898
 20
1437.79006063
  0
VERTEX
  8
0
 10
129.94829511
 20
1437.60630919
  0
VERTEX
  8
0
 10
129.89901196
 20
1437.41464013
  0
VERTEX
  8
0
 10
129.86870484
 20
1437.21605875
  0
VERTEX
  8
0
 10
129.85837907
 20
1437.01157037
  0
SEQEND
  0
POLYLINE
  8
Default Layer
 66
   1
 39
0.000000
 70
    1
  0
VERTEX
  8
0
 10
209.33698727
 20
2202.00741963
  0
VERTEX
  8
0
 10
215.33485977
 20
2202.00741963
  0
VERTEX
  8
0
 10
215.33485977
 20
2230.00741963
  0
VERTEX
  8
0
 10
209.33698727
 20
2230.00741963
  0
VERTEX
  8
0
 10
209.33698727
 20
2271.01242044
  0
VERTEX
  8
0
 10
118.22187414
 20
2271.01242044
  0
VERTEX
  8
0
 10
29.16151202
 20
2165.99548232
  0
VERTEX
  8
0
 10
28.59866171
 20
1992.03141853
  0
VERTEX
  8
0
 10
-150.66654880
 20
1910.21801853
  0
VERTEX
  8
0
 10
-150.66654880
 20
1201.01838755
  0
VERTEX
  8
0
 10
209.33698727
 20
1201.01838755
  0
VERTEX
  8
0
 10
209.33698727
 20
2202.00741963
  0
SEQEND
  0
POLYLINE
  8
Default Layer
 66
   1
 39
0.000000
 70
    1
  0
VERTEX
  8
0
 10
-24.30534653
 20
1640.98966231
  0
VERTEX
  8
0
 10
82.69465347
 20
1640.98966231
  0
VERTEX
  8
0
 10
82.69465347
 20
1653.28966231
  0
VERTEX
  8
0
 10
-24.30534653
 20
1653.28966231
  0
VERTEX
  8
0
 10
-24.30534653
 20
1640.98966231
  0
SEQEND
  0
POLYLINE
  8
Default Layer
 66
   1
 39
0.000000
 70
    1
  0
VERTEX
  8
0
 10
-75.02762093
 20
1646.99565806
  0
VERTEX
  8
0
 10
-75.01729516
 20
1646.79116968
  0
VERTEX
  8
0
 10
-74.98698804
 20
1646.59258830
  0
VERTEX
  8
0
 10
-74.93770489
 20
1646.40091924
  0
VERTEX
  8
0
 10
-74.87045102
 20
1646.21716780
  0
VERTEX
  8
0
 10
-74.78623173
 20
1646.04233930
  0
VERTEX
  8
0
 10
-74.68605234
 20
1645.87743904
  0
VERTEX
  8
0
 10
-74.57091816
 20
1645.72347234
  0
VERTEX
  8
0
 10
-74.44183450
 20
1645.58144450
  0
VERTEX
  8
0
 10
-74.29980666
 20
1645.45236083
  0
VERTEX
  8
0
 10
-74.14583995
 20
1645.33722665
  0
VERTEX
  8
0
 10
-73.98093969
 20
1645.23704726
  0
VERTEX
  8
0
 10
-73.80611119
 20
1645.15282798
  0
VERTEX
  8
0
 10
-73.62235975
 20
1645.08557410
  0
VERTEX
  8
0
 10
-73.43069069
 20
1645.03629095
  0
VERTEX
  8
0
 10
-73.23210932
 20
1645.00598384
  0
VERTEX
  8
0
 10
-73.02762093
 20
1644.99565806
  0
VERTEX
  8
0
 10
-72.82313255
 20
1645.00598384
  0
VERTEX
  8
0
 10
-72.62455117
 20
1645.03629095
  0
VERTEX
  8
0
 10
-72.43288211
 20
1645.08557410
  0
VERTEX
  8
0
 10
-72.24913068
 20
1645.15282798
  0
VERTEX
  8
0
 10
-72.07430217
 20
1645.23704726
  0
VERTEX
  8
0
 10
-71.90940192
 20
1645.33722665
  0
VERTEX
  8
0
 10
-71.75543521
 20
1645.45236083
  0
VERTEX
  8
0
 10
-71.61340737
 20
1645.58144450
  0
VERTEX
  8
0
 10
-71.48432371
 20
1645.72347234
  0
VERTEX
  8
0
 10
-71.36918952
 20
1645.87743904
  0
VERTEX
  8
0
 10
-71.26901013
 20
1646.04233930
  0
VERTEX
  8
0
 10
-71.18479085
 20
1646.21716780
  0
VERTEX
  8
0
 10
-71.11753697
 20
1646.40091924
  0
VERTEX
  8
0
 10
-71.06825383
 20
1646.59258830
  0
VERTEX
  8
0
 10
-71.03794671
 20
1646.79116968
  0
VERTEX
  8
0
 10
-71.02762093
 20
1646.99565806
  0
VERTEX
  8
0
 10
-71.03794671
 20
1647.20014644
  0
VERTEX
  8
0
 10
-71.06825383
 20
1647.39872782
  0
VERTEX
  8
0
 10
-71.11753697
 20
1647.59039688
  0
VERTEX
  8
0
 10
-71.18479085
 20
1647.77414832
  0
VERTEX
  8
0
 10
-71.26901013
 20
1647.94897682
  0
VERTEX
  8
0
 10
-71.36918952
 20
1648.11387708
  0
VERTEX
  8
0
 10
-71.48432371
 20
1648.26784378
  0
VERTEX
  8
0
 10
-71.61340737
 20
1648.40987162
  0
VERTEX
  8
0
 10
-71.75543521
 20
1648.53895529
  0
VERTEX
  8
0
 10
-71.90940192
 20
1648.65408947
  0
VERTEX
  8
0
 10
-72.07430217
 20
1648.75426886
  0
VERTEX
  8
0
 10
-72.24913068
 20
1648.83848815
  0
VERTEX
  8
0
 10
-72.43288211
 20
1648.90574202
  0
VERTEX
  8
0
 10
-72.62455117
 20
1648.95502517
  0
VERTEX
  8
0
 10
-72.82313255
 20
1648.98533229
  0
VERTEX
  8
0
 10
-73.02762093
 20
1648.99565806
  0
VERTEX
  8
0
 10
-73.23210932
 20
1648.98533229
  0
VERTEX
  8
0
 10
-73.43069069
 20
1648.95502517
  0
VERTEX
  8
0
 10
-73.62235975
 20
1648.90574202
  0
VERTEX
  8
0
 10
-73.80611119
 20
1648.83848815
  0
VERTEX
  8
0
 10
-73.98093969
 20
1648.75426886
  0
VERTEX
  8
0
 10
-74.14583995
 20
1648.65408947
  0
VERTEX
  8
0
 10
-74.29980666
 20
1648.53895529
  0
VERTEX
  8
0
 10
-74.44183450
 20
1648.40987162
  0
VERTEX
  8
0
 10
-74.57091816
 20
1648.26784378
  0
VERTEX
  8
0
 10
-74.68605234
 20
1648.11387708
  0
VERTEX
  8
0
 10
-74.78623173
 20
1647.94897682
  0
VERTEX
  8
0
 10
-74.87045102
 20
1647.77414832
  0
VERTEX
  8
0
 10
-74.93770489
 20
1647.59039688
  0
VERTEX
  8
0
 10
-74.98698804
 20
1647.39872782
  0
VERTEX
  8
0
 10
-75.01729516
 20
1647.20014644
  0
VERTEX
  8
0
 10
-75.02762093
 20
1646.99565806
  0
SEQEND
  0
POLYLINE
  8
Default Layer
 66
   1
 39
0.000000
 70
    1
  0
VERTEX
  8
0
 10
129.85837907
 20
1646.99565806
  0
VERTEX
  8
0
 10
129.86870484
 20
1646.79116968
  0
VERTEX
  8
0
 10
129.89901196
 20
1646.59258830
  0
VERTEX
  8
0
 10
129.94829511
 20
1646.40091924
  0
VERTEX
  8
0
 10
130.01554898
 20
1646.21716780
  0
VERTEX
  8
0
 10
130.09976827
 20
1646.04233930
  0
VERTEX
  8
0
 10
130.19994766
 20
1645.87743904
  0
VERTEX
  8
0
 10
130.31508184
 20
1645.72347234
  0
VERTEX
  8
0
 10
130.44416550
 20
1645.58144450
  0
VERTEX
  8
0
 10
130.58619334
 20
1645.45236083
  0
VERTEX
  8
0
 10
130.74016005
 20
1645.33722665
  0
VERTEX
  8
0
 10
130.90506031
 20
1645.23704726
  0
VERTEX
  8
0
 10
131.07988881
 20
1645.15282798
  0
VERTEX
  8
0
 10
131.26364025
 20
1645.08557410
  0
VERTEX
  8
0
 10
131.45530931
 20
1645.03629095
  0
VERTEX
  8
0
 10
131.65389068
 20
1645.00598384
  0
VERTEX
  8
0
 10
131.85837907
 20
1644.99565806
  0
VERTEX
  8
0
 10
132.06286745
 20
1645.00598384
  0
VERTEX
  8
0
 10
132.26144883
 20
1645.03629095
  0
VERTEX
  8
0
 10
132.45311789
 20
1645.08557410
  0
VERTEX
  8
0
 10
132.63686932
 20
1645.15282798
  0
VERTEX
  8
0
 10
132.81169783
 20
1645.23704726
  0
VERTEX
  8
0
 10
132.97659808
 20
1645.33722665
  0
VERTEX
  8
0
 10
133.13056479
 20
1645.45236083
  0
VERTEX
  8
0
 10
133.27259263
 20
1645.58144450
  0
VERTEX
  8
0
 10
133.40167629
 20
1645.72347234
  0
VERTEX
  8
0
 10
133.51681048
 20
1645.87743904
  0
VERTEX
  8
0
 10
133.61698987
 20
1646.04233930
  0
VERTEX
  8
0
 10
133.70120915
 20
1646.21716780
  0
VERTEX
  8
0
 10
133.76846303
 20
1646.40091924
  0
VERTEX
  8
0
 10
133.81774617
 20
1646.59258830
  0
VERTEX
  8
0
 10
133.84805329
 20
1646.79116968
  0
VERTEX
  8
0
 10
133.85837907
 20
1646.99565806
  0
VERTEX
  8
0
 10
133.84805329
 20
1647.20014644
  0
VERTEX
  8
0
 10
133.81774617
 20
1647.39872782
  0
VERTEX
  8
0
 10
133.76846303
 20
1647.59039688
  0
VERTEX
  8
0
 10
133.70120915
 20
1647.77414832
  0
VERTEX
  8
0
 10
133.61698987
 20
1647.94897682
  0
VERTEX
  8
0
 10
133.51681048
 20
1648.11387708
  0
VERTEX
  8
0
 10
133.40167629
 20
1648.26784378
  0
VERTEX
  8
0
 10
133.27259263
 20
1648.40987162
  0
VERTEX
  8
0
 10
133.13056479
 20
1648.53895529
  0
VERTEX
  8
0
 10
132.97659808
 20
1648.65408947
  0
VERTEX
  8
0
 10
132.81169783
 20
1648.75426886
  0
VERTEX
  8
0
 10
132.63686932
 20
1648.83848815
  0
VERTEX
  8
0
 10
132.45311789
 20
1648.90574202
  0
VERTEX
  8
0
 10
132.26144883
 20
1648.95502517
  0
VERTEX
  8
0
 10
132.06286745
 20
1648.98533229
  0
VERTEX
  8
0
 10
131.85837907
 20
1648.99565806
  0
VERTEX
  8
0
 10
131.65389068
 20
1648.98533229
  0
VERTEX
  8
0
 10
131.45530931
 20
1648.95502517
  0
VERTEX
  8
0
 10
131.26364025
 20
1648.90574202
  0
VERTEX
  8
0
 10
131.07988881
 20
1648.83848815
  0
VERTEX
  8
0
 10
130.90506031
 20
1648.75426886
  0
VERTEX
  8
0
 10
130.74016005
 20
1648.65408947
  0
VERTEX
  8
0
 10
130.58619334
 20
1648.53895529
  0
VERTEX
  8
0
 10
130.44416550
 20
1648.40987162
  0
VERTEX
  8
0
 10
130.31508184
 20
1648.26784378
  0
VERTEX
  8
0
 10
130.19994766
 20
1648.11387708
  0
VERTEX
  8
0
 10
130.09976827
 20
1647.94897682
  0
VERTEX
  8
0
 10
130.01554898
 20
1647.77414832
  0
VERTEX
  8
0
 10
129.94829511
 20
1647.59039688
  0
VERTEX
  8
0
 10
129.89901196
 20
1647.39872782
  0
VERTEX
  8
0
 10
129.86870484
 20
1647.20014644
  0
VERTEX
  8
0
 10
129.85837907
 20
1646.99565806
  0
SEQEND
  0
POLYLINE
  8
Default Layer
 66
   1
 39
0.000000
 70
    1
  0
VERTEX
  8
0
 10
-24.30534653
 20
1851.01419378
  0
VERTEX
  8
0
 10
82.69465347
 20
1851.01419378
  0
VERTEX
  8
0
 10
82.69465347
 20
1863.31419378
  0
VERTEX
  8
0
 10
-24.30534653
 20
1863.31419378
  0
VERTEX
  8
0
 10
-24.30534653
 20
1851.01419378
  0
SEQEND
  0
POLYLINE
  8
Default Layer
 66
   1
 39
0.000000
 70
    1
  0
VERTEX
  8
0
 10
-75.02762093
 20
1857.02018953
  0
VERTEX
  8
0
 10
-75.01729516
 20
1856.81570115
  0
VERTEX
  8
0
 10
-74.98698804
 20
1856.61711977
  0
VERTEX
  8
0
 10
-74.93770489
 20
1856.42545071
  0
VERTEX
  8
0
 10
-74.87045102
 20
1856.24169928
  0
VERTEX
  8
0
 10
-74.78623173
 20
1856.06687077
  0
VERTEX
  8
0
 10
-74.68605234
 20
1855.90197051
  0
VERTEX
  8
0
 10
-74.57091816
 20
1855.74800381
  0
VERTEX
  8
0
 10
-74.44183450
 20
1855.60597597
  0
VERTEX
  8
0
 10
-74.29980666
 20
1855.47689230
  0
VERTEX
  8
0
 10
-74.14583995
 20
1855.36175812
  0
VERTEX
  8
0
 10
-73.98093969
 20
1855.26157873
  0
VERTEX
  8
0
 10
-73.80611119
 20
1855.17735945
  0
VERTEX
  8
0
 10
-73.62235975
 20
1855.11010557
  0
VERTEX
  8
0
 10
-73.43069069
 20
1855.06082242
  0
VERTEX
  8
0
 10
-73.23210932
 20
1855.03051531
  0
VERTEX
  8
0
 10
-73.02762093
 20
1855.02018953
  0
VERTEX
  8
0
 10
-72.82313255
 20
1855.03051531
  0
VERTEX
  8
0
 10
-72.62455117
 20
1855.06082242
  0
VERTEX
  8
0
 10
-72.43288211
 20
1855.11010557
  0
VERTEX
  8
0
 10
-72.24913068
 20
1855.17735945
  0
VERTEX
  8
0
 10
-72.07430217
 20
1855.26157873
  0
VERTEX
  8
0
 10
-71.90940192
 20
1855.36175812
  0
VERTEX
  8
0
 10
-71.75543521
 20
1855.47689230
  0
VERTEX
  8
0
 10
-71.61340737
 20
1855.60597597
  0
VERTEX
  8
0
 10
-71.48432371
 20
1855.74800381
  0
VERTEX
  8
0
 10
-71.36918952
 20
1855.90197051
  0
VERTEX
  8
0
 10
-71.26901013
 20
1856.06687077
  0
VERTEX
  8
0
 10
-71.18479085
 20
1856.24169928
  0
VERTEX
  8
0
 10
-71.11753697
 20
1856.42545071
  0
VERTEX
  8
0
 10
-71.06825383
 20
1856.61711977
  0
VERTEX
  8
0
 10
-71.03794671
 20
1856.81570115
  0
VERTEX
  8
0
 10
-71.02762093
 20
1857.02018953
  0
VERTEX
  8
0
 10
-71.03794671
 20
1857.22467792
  0
VERTEX
  8
0
 10
-71.06825383
 20
1857.42325929
  0
VERTEX
  8
0
 10
-71.11753697
 20
1857.61492835
  0
VERTEX
  8
0
 10
-71.18479085
 20
1857.79867979
  0
VERTEX
  8
0
 10
-71.26901013
 20
1857.97350829
  0
VERTEX
  8
0
 10
-71.36918952
 20
1858.13840855
  0
VERTEX
  8
0
 10
-71.48432371
 20
1858.29237526
  0
VERTEX
  8
0
 10
-71.61340737
 20
1858.43440310
  0
VERTEX
  8
0
 10
-71.75543521
 20
1858.56348676
  0
VERTEX
  8
0
 10
-71.90940192
 20
1858.67862094
  0
VERTEX
  8
0
 10
-72.07430217
 20
1858.77880033
  0
VERTEX
  8
0
 10
-72.24913068
 20
1858.86301962
  0
VERTEX
  8
0
 10
-72.43288211
 20
1858.93027349
  0
VERTEX
  8
0
 10
-72.62455117
 20
1858.97955664
  0
VERTEX
  8
0
 10
-72.82313255
 20
1859.00986376
  0
VERTEX
  8
0
 10
-73.02762093
 20
1859.02018953
  0
VERTEX
  8
0
 10
-73.23210932
 20
1859.00986376
  0
VERTEX
  8
0
 10
-73.43069069
 20
1858.97955664
  0
VERTEX
  8
0
 10
-73.62235975
 20
1858.93027349
  0
VERTEX
  8
0
 10
-73.80611119
 20
1858.86301962
  0
VERTEX
  8
0
 10
-73.98093969
 20
1858.77880033
  0
VERTEX
  8
0
 10
-74.14583995
 20
1858.67862094
  0
VERTEX
  8
0
 10
-74.29980666
 20
1858.56348676
  0
VERTEX
  8
0
 10
-74.44183450
 20
1858.43440310
  0
VERTEX
  8
0
 10
-74.57091816
 20
1858.29237526
  0
VERTEX
  8
0
 10
-74.68605234
 20
1858.13840855
  0
VERTEX
  8
0
 10
-74.78623173
 20
1857.97350829
  0
VERTEX
  8
0
 10
-74.87045102
 20
1857.79867979
  0
VERTEX
  8
0
 10
-74.93770489
 20
1857.61492835
  0
VERTEX
  8
0
 10
-74.98698804
 20
1857.42325929
  0
VERTEX
  8
0
 10
-75.01729516
 20
1857.22467792
  0
VERTEX
  8
0
 10
-75.02762093
 20
1857.02018953
  0
SEQEND
  0
POLYLINE
  8
Default Layer
 66
   1
 39
0.000000
 70
    1
  0
VERTEX
  8
0
 10
129.85837907
 20
1857.02018953
  0
VERTEX
  8
0
 10
129.86870484
 20
1856.81570115
  0
VERTEX
  8
0
 10
129.89901196
 20
1856.61711977
  0
VERTEX
  8
0
 10
129.94829511
 20
1856.42545071
  0
VERTEX
  8
0
 10
130.01554898
 20
1856.24169928
  0
VERTEX
  8
0
 10
130.09976827
 20
1856.06687077
  0
VERTEX
  8
0
 10
130.19994766
 20
1855.90197051
  0
VERTEX
  8
0
 10
130.31508184
 20
1855.74800381
  0
VERTEX
  8
0
 10
130.44416550
 20
1855.60597597
  0
VERTEX
  8
0
 10
130.58619334
 20
1855.47689230
  0
VERTEX
  8
0
 10
130.74016005
 20
1855.36175812
  0
VERTEX
  8
0
 10
130.90506031
 20
1855.26157873
  0
VERTEX
  8
0
 10
131.07988881
 20
1855.17735945
  0
VERTEX
  8
0
 10
131.26364025
 20
1855.11010557
  0
VERTEX
  8
0
 10
131.45530931
 20
1855.06082242
  0
VERTEX
  8
0
 10
131.65389068
 20
1855.03051531
  0
VERTEX
  8
0
 10
131.85837907
 20
1855.02018953
  0
VERTEX
  8
0
 10
132.06286745
 20
1855.03051531
  0
VERTEX
  8
0
 10
132.26144883
 20
1855.06082242
  0
VERTEX
  8
0
 10
132.45311789
 20
1855.11010557
  0
VERTEX
  8
0
 10
132.63686932
 20
1855.17735945
  0
VERTEX
  8
0
 10
132.81169783
 20
1855.26157873
  0
VERTEX
  8
0
 10
132.97659808
 20
1855.36175812
  0
VERTEX
  8
0
 10
133.13056479
 20
1855.47689230
  0
VERTEX
  8
0
 10
133.27259263
 20
1855.60597597
  0
VERTEX
  8
0
 10
133.40167629
 20
1855.74800381
  0
VERTEX
  8
0
 10
133.51681048
 20
1855.90197051
  0
VERTEX
  8
0
 10
133.61698987
 20
1856.06687077
  0
VERTEX
  8
0
 10
133.70120915
 20
1856.24169928
  0
VERTEX
  8
0
 10
133.76846303
 20
1856.42545071
  0
VERTEX
  8
0
 10
133.81774617
 20
1856.61711977
  0
VERTEX
  8
0
 10
133.84805329
 20
1856.81570115
  0
VERTEX
  8
0
 10
133.85837907
 20
1857.02018953
  0
VERTEX
  8
0
 10
133.84805329
 20
1857.22467792
  0
VERTEX
  8
0
 10
133.81774617
 20
1857.42325929
  0
VERTEX
  8
0
 10
133.76846303
 20
1857.61492835
  0
VERTEX
  8
0
 10
133.70120915
 20
1857.79867979
  0
VERTEX
  8
0
 10
133.61698987
 20
1857.97350829
  0
VERTEX
  8
0
 10
133.51681048
 20
1858.13840855
  0
VERTEX
  8
0
 10
133.40167629
 20
1858.29237526
  0
VERTEX
  8
0
 10
133.27259263
 20
1858.43440310
  0
VERTEX
  8
0
 10
133.13056479
 20
1858.56348676
  0
VERTEX
  8
0
 10
132.97659808
 20
1858.67862094
  0
VERTEX
  8
0
 10
132.81169783
 20
1858.77880033
  0
VERTEX
  8
0
 10
132.63686932
 20
1858.86301962
  0
VERTEX
  8
0
 10
132.45311789
 20
1858.93027349
  0
VERTEX
  8
0
 10
132.26144883
 20
1858.97955664
  0
VERTEX
  8
0
 10
132.06286745
 20
1859.00986376
  0
VERTEX
  8
0
 10
131.85837907
 20
1859.02018953
  0
VERTEX
  8
0
 10
131.65389068
 20
1859.00986376
  0
VERTEX
  8
0
 10
131.45530931
 20
1858.97955664
  0
VERTEX
  8
0
 10
131.26364025
 20
1858.93027349
  0
VERTEX
  8
0
 10
131.07988881
 20
1858.86301962
  0
VERTEX
  8
0
 10
130.90506031
 20
1858.77880033
  0
VERTEX
  8
0
 10
130.74016005
 20
1858.67862094
  0
VERTEX
  8
0
 10
130.58619334
 20
1858.56348676
  0
VERTEX
  8
0
 10
130.44416550
 20
1858.43440310
  0
VERTEX
  8
0
 10
130.31508184
 20
1858.29237526
  0
VERTEX
  8
0
 10
130.19994766
 20
1858.13840855
  0
VERTEX
  8
0
 10
130.09976827
 20
1857.97350829
  0
VERTEX
  8
0
 10
130.01554898
 20
1857.79867979
  0
VERTEX
  8
0
 10
129.94829511
 20
1857.61492835
  0
VERTEX
  8
0
 10
129.89901196
 20
1857.42325929
  0
VERTEX
  8
0
 10
129.86870484
 20
1857.22467792
  0
VERTEX
  8
0
 10
129.85837907
 20
1857.02018953
  0
SEQEND
  0
POLYLINE
  8
Default Layer
 66
   1
 39
0.000000
 70
    1
  0
VERTEX
  8
0
 10
77.15592645
 20
2061.04372560
  0
VERTEX
  8
0
 10
77.15592645
 20
2073.34372560
  0
VERTEX
  8
0
 10
161.15592645
 20
2073.34372560
  0
VERTEX
  8
0
 10
161.15592645
 20
2061.04372560
  0
VERTEX
  8
0
 10
77.15592645
 20
2061.04372560
  0
SEQEND
  0
POLYLINE
  8
Default Layer
 66
   1
 39
0.000000
 70
    1
  0
VERTEX
  8
0
 10
1658.75530410
 20
-781.53553748
  0
VERTEX
  8
0
 10
1708.51445278
 20
-781.79424115
  0
VERTEX
  8
0
 10
1799.46112109
 20
-643.21346536
 42
-0.25268718
  0
VERTEX
  8
0
 10
1966.66902393
 20
-554.24151344
  0
VERTEX
  8
0
 10
2290.35589161
 20
-554.24151344
 42
-0.25191543
  0
VERTEX
  8
0
 10
2457.24461617
 20
-642.72864986
  0
VERTEX
  8
0
 10
2548.94170785
 20
-781.57274665
  0
VERTEX
  8
0
 10
2598.75530410
 20
-781.69731259
  0
VERTEX
  8
0
 10
2598.75530410
 20
-492.94731259
  0
VERTEX
  8
0
 10
1658.75530410
 20
-492.94731259
  0
VERTEX
  8
0
 10
1658.75530410
 20
-781.53553748
  0
SEQEND
  0
POLYLINE
  8
Default Layer
 66
   1
 39
0.000000
 70
    1
  0
VERTEX
  8
0
 10
2546.84041443
 20
-548.34391796
  0
VERTEX
  8
0
 10
2546.85074020
 20
-548.13942958
  0
VERTEX
  8
0
 10
2546.88104732
 20
-547.94084820
  0
VERTEX
  8
0
 10
2546.93033047
 20
-547.74917914
  0
VERTEX
  8
0
 10
2546.99758434
 20
-547.56542771
  0
VERTEX
  8
0
 10
2547.08180363
 20
-547.39059920
  0
VERTEX
  8
0
 10
2547.18198302
 20
-547.22569894
  0
VERTEX
  8
0
 10
2547.29711720
 20
-547.07173224
  0
VERTEX
  8
0
 10
2547.42620086
 20
-546.92970440
  0
VERTEX
  8
0
 10
2547.56822870
 20
-546.80062073
  0
VERTEX
  8
0
 10
2547.72219541
 20
-546.68548655
  0
VERTEX
  8
0
 10
2547.88709567
 20
-546.58530716
  0
VERTEX
  8
0
 10
2548.06192417
 20
-546.50108788
  0
VERTEX
  8
0
 10
2548.24567561
 20
-546.43383400
  0
VERTEX
  8
0
 10
2548.43734467
 20
-546.38455085
  0
VERTEX
  8
0
 10
2548.63592605
 20
-546.35424374
  0
VERTEX
  8
0
 10
2548.84041443
 20
-546.34391796
  0
VERTEX
  8
0
 10
2549.04490281
 20
-546.35424374
  0
VERTEX
  8
0
 10
2549.24348419
 20
-546.38455085
  0
VERTEX
  8
0
 10
2549.43515325
 20
-546.43383400
  0
VERTEX
  8
0
 10
2549.61890468
 20
-546.50108788
  0
VERTEX
  8
0
 10
2549.79373319
 20
-546.58530716
  0
VERTEX
  8
0
 10
2549.95863345
 20
-546.68548655
  0
VERTEX
  8
0
 10
2550.11260015
 20
-546.80062073
  0
VERTEX
  8
0
 10
2550.25462799
 20
-546.92970440
  0
VERTEX
  8
0
 10
2550.38371166
 20
-547.07173224
  0
VERTEX
  8
0
 10
2550.49884584
 20
-547.22569894
  0
VERTEX
  8
0
 10
2550.59902523
 20
-547.39059920
  0
VERTEX
  8
0
 10
2550.68324451
 20
-547.56542771
  0
VERTEX
  8
0
 10
2550.75049839
 20
-547.74917914
  0
VERTEX
  8
0
 10
2550.79978154
 20
-547.94084820
  0
VERTEX
  8
0
 10
2550.83008865
 20
-548.13942958
  0
VERTEX
  8
0
 10
2550.84041443
 20
-548.34391796
  0
VERTEX
  8
0
 10
2550.83008865
 20
-548.54840635
  0
VERTEX
  8
0
 10
2550.79978154
 20
-548.74698772
  0
VERTEX
  8
0
 10
2550.75049839
 20
-548.93865678
  0
VERTEX
  8
0
 10
2550.68324451
 20
-549.12240822
  0
VERTEX
  8
0
 10
2550.59902523
 20
-549.29723672
  0
VERTEX
  8
0
 10
2550.49884584
 20
-549.46213698
  0
VERTEX
  8
0
 10
2550.38371166
 20
-549.61610369
  0
VERTEX
  8
0
 10
2550.25462799
 20
-549.75813153
  0
VERTEX
  8
0
 10
2550.11260015
 20
-549.88721519
  0
VERTEX
  8
0
 10
2549.95863345
 20
-550.00234937
  0
VERTEX
  8
0
 10
2549.79373319
 20
-550.10252876
  0
VERTEX
  8
0
 10
2549.61890468
 20
-550.18674805
  0
VERTEX
  8
0
 10
2549.43515325
 20
-550.25400192
  0
VERTEX
  8
0
 10
2549.24348419
 20
-550.30328507
  0
VERTEX
  8
0
 10
2549.04490281
 20
-550.33359219
  0
VERTEX
  8
0
 10
2548.84041443
 20
-550.34391796
  0
VERTEX
  8
0
 10
2548.63592605
 20
-550.33359219
  0
VERTEX
  8
0
 10
2548.43734467
 20
-550.30328507
  0
VERTEX
  8
0
 10
2548.24567561
 20
-550.25400192
  0
VERTEX
  8
0
 10
2548.06192417
 20
-550.18674805
  0
VERTEX
  8
0
 10
2547.88709567
 20
-550.10252876
  0
VERTEX
  8
0
 10
2547.72219541
 20
-550.00234937
  0
VERTEX
  8
0
 10
2547.56822870
 20
-549.88721519
  0
VERTEX
  8
0
 10
2547.42620086
 20
-549.75813153
  0
VERTEX
  8
0
 10
2547.29711720
 20
-549.61610369
  0
VERTEX
  8
0
 10
2547.18198302
 20
-549.46213698
  0
VERTEX
  8
0
 10
2547.08180363
 20
-549.29723672
  0
VERTEX
  8
0
 10
2546.99758434
 20
-549.12240822
  0
VERTEX
  8
0
 10
2546.93033047
 20
-548.93865678
  0
VERTEX
  8
0
 10
2546.88104732
 20
-548.74698772
  0
VERTEX
  8
0
 10
2546.85074020
 20
-548.54840635
  0
VERTEX
  8
0
 10
2546.84041443
 20
-548.34391796
  0
SEQEND
  0
POLYLINE
  8
Default Layer
 66
   1
 39
0.000000
 70
    1
  0
VERTEX
  8
0
 10
1972.12537199
 20
-548.34391796
  0
VERTEX
  8
0
 10
1972.13569777
 20
-548.13942958
  0
VERTEX
  8
0
 10
1972.16600489
 20
-547.94084820
  0
VERTEX
  8
0
 10
1972.21528804
 20
-547.74917914
  0
VERTEX
  8
0
 10
1972.28254191
 20
-547.56542771
  0
VERTEX
  8
0
 10
1972.36676119
 20
-547.39059920
  0
VERTEX
  8
0
 10
1972.46694058
 20
-547.22569894
  0
VERTEX
  8
0
 10
1972.58207477
 20
-547.07173224
  0
VERTEX
  8
0
 10
1972.71115843
 20
-546.92970440
  0
VERTEX
  8
0
 10
1972.85318627
 20
-546.80062073
  0
VERTEX
  8
0
 10
1973.00715298
 20
-546.68548655
  0
VERTEX
  8
0
 10
1973.17205323
 20
-546.58530716
  0
VERTEX
  8
0
 10
1973.34688174
 20
-546.50108788
  0
VERTEX
  8
0
 10
1973.53063317
 20
-546.43383400
  0
VERTEX
  8
0
 10
1973.72230224
 20
-546.38455085
  0
VERTEX
  8
0
 10
1973.92088361
 20
-546.35424374
  0
VERTEX
  8
0
 10
1974.12537199
 20
-546.34391796
  0
VERTEX
  8
0
 10
1974.32986038
 20
-546.35424374
  0
VERTEX
  8
0
 10
1974.52844175
 20
-546.38455085
  0
VERTEX
  8
0
 10
1974.72011081
 20
-546.43383400
  0
VERTEX
  8
0
 10
1974.90386225
 20
-546.50108788
  0
VERTEX
  8
0
 10
1975.07869075
 20
-546.58530716
  0
VERTEX
  8
0
 10
1975.24359101
 20
-546.68548655
  0
VERTEX
  8
0
 10
1975.39755772
 20
-546.80062073
  0
VERTEX
  8
0
 10
1975.53958556
 20
-546.92970440
  0
VERTEX
  8
0
 10
1975.66866922
 20
-547.07173224
  0
VERTEX
  8
0
 10
1975.78380341
 20
-547.22569894
  0
VERTEX
  8
0
 10
1975.88398279
 20
-547.39059920
  0
VERTEX
  8
0
 10
1975.96820208
 20
-547.56542771
  0
VERTEX
  8
0
 10
1976.03545595
 20
-547.74917914
  0
VERTEX
  8
0
 10
1976.08473910
 20
-547.94084820
  0
VERTEX
  8
0
 10
1976.11504622
 20
-548.13942958
  0
VERTEX
  8
0
 10
1976.12537199
 20
-548.34391796
  0
VERTEX
  8
0
 10
1976.11504622
 20
-548.54840635
  0
VERTEX
  8
0
 10
1976.08473910
 20
-548.74698772
  0
VERTEX
  8
0
 10
1976.03545595
 20
-548.93865678
  0
VERTEX
  8
0
 10
1975.96820208
 20
-549.12240822
  0
VERTEX
  8
0
 10
1975.88398279
 20
-549.29723672
  0
VERTEX
  8
0
 10
1975.78380341
 20
-549.46213698
  0
VERTEX
  8
0
 10
1975.66866922
 20
-549.61610369
  0
VERTEX
  8
0
 10
1975.53958556
 20
-549.75813153
  0
VERTEX
  8
0
 10
1975.39755772
 20
-549.88721519
  0
VERTEX
  8
0
 10
1975.24359101
 20
-550.00234937
  0
VERTEX
  8
0
 10
1975.07869075
 20
-550.10252876
  0
VERTEX
  8
0
 10
1974.90386225
 20
-550.18674805
  0
VERTEX
  8
0
 10
1974.72011081
 20
-550.25400192
  0
VERTEX
  8
0
 10
1974.52844175
 20
-550.30328507
  0
VERTEX
  8
0
 10
1974.32986038
 20
-550.33359219
  0
VERTEX
  8
0
 10
1974.12537199
 20
-550.34391796
  0
VERTEX
  8
0
 10
1973.92088361
 20
-550.33359219
  0
VERTEX
  8
0
 10
1973.72230224
 20
-550.30328507
  0
VERTEX
  8
0
 10
1973.53063317
 20
-550.25400192
  0
VERTEX
  8
0
 10
1973.34688174
 20
-550.18674805
  0
VERTEX
  8
0
 10
1973.17205323
 20
-550.10252876
  0
VERTEX
  8
0
 10
1973.00715298
 20
-550.00234937
  0
VERTEX
  8
0
 10
1972.85318627
 20
-549.88721519
  0
VERTEX
  8
0
 10
1972.71115843
 20
-549.75813153
  0
VERTEX
  8
0
 10
1972.58207477
 20
-549.61610369
  0
VERTEX
  8
0
 10
1972.46694058
 20
-549.46213698
  0
VERTEX
  8
0
 10
1972.36676119
 20
-549.29723672
  0
VERTEX
  8
0
 10
1972.28254191
 20
-549.12240822
  0
VERTEX
  8
0
 10
1972.21528804
 20
-548.93865678
  0
VERTEX
  8
0
 10
1972.16600489
 20
-548.74698772
  0
VERTEX
  8
0
 10
1972.13569777
 20
-548.54840635
  0
VERTEX
  8
0
 10
1972.12537199
 20
-548.34391796
  0
SEQEND
  0
POLYLINE
  8
Default Layer
 66
   1
 39
0.000000
 70
    1
  0
VERTEX
  8
0
 10
2302.25767044
 20
-548.34391796
  0
VERTEX
  8
0
 10
2302.26799621
 20
-548.13942958
  0
VERTEX
  8
0
 10
2302.29830333
 20
-547.94084820
  0
VERTEX
  8
0
 10
2302.34758648
 20
-547.74917914
  0
VERTEX
  8
0
 10
2302.41484035
 20
-547.56542771
  0
VERTEX
  8
0
 10
2302.49905964
 20
-547.39059920
  0
VERTEX
  8
0
 10
2302.59923903
 20
-547.22569894
  0
VERTEX
  8
0
 10
2302.71437321
 20
-547.07173224
  0
VERTEX
  8
0
 10
2302.84345688
 20
-546.92970440
  0
VERTEX
  8
0
 10
2302.98548472
 20
-546.80062073
  0
VERTEX
  8
0
 10
2303.13945142
 20
-546.68548655
  0
VERTEX
  8
0
 10
2303.30435168
 20
-546.58530716
  0
VERTEX
  8
0
 10
2303.47918018
 20
-546.50108788
  0
VERTEX
  8
0
 10
2303.66293162
 20
-546.43383400
  0
VERTEX
  8
0
 10
2303.85460068
 20
-546.38455085
  0
VERTEX
  8
0
 10
2304.05318206
 20
-546.35424374
  0
VERTEX
  8
0
 10
2304.25767044
 20
-546.34391796
  0
VERTEX
  8
0
 10
2304.46215882
 20
-546.35424374
  0
VERTEX
  8
0
 10
2304.66074020
 20
-546.38455085
  0
VERTEX
  8
0
 10
2304.85240926
 20
-546.43383400
  0
VERTEX
  8
0
 10
2305.03616070
 20
-546.50108788
  0
VERTEX
  8
0
 10
2305.21098920
 20
-546.58530716
  0
VERTEX
  8
0
 10
2305.37588946
 20
-546.68548655
  0
VERTEX
  8
0
 10
2305.52985616
 20
-546.80062073
  0
VERTEX
  8
0
 10
2305.67188400
 20
-546.92970440
  0
VERTEX
  8
0
 10
2305.80096767
 20
-547.07173224
  0
VERTEX
  8
0
 10
2305.91610185
 20
-547.22569894
  0
VERTEX
  8
0
 10
2306.01628124
 20
-547.39059920
  0
VERTEX
  8
0
 10
2306.10050052
 20
-547.56542771
  0
VERTEX
  8
0
 10
2306.16775440
 20
-547.74917914
  0
VERTEX
  8
0
 10
2306.21703755
 20
-547.94084820
  0
VERTEX
  8
0
 10
2306.24734466
 20
-548.13942958
  0
VERTEX
  8
0
 10
2306.25767044
 20
-548.34391796
  0
VERTEX
  8
0
 10
2306.24734466
 20
-548.54840635
  0
VERTEX
  8
0
 10
2306.21703755
 20
-548.74698772
  0
VERTEX
  8
0
 10
2306.16775440
 20
-548.93865678
  0
VERTEX
  8
0
 10
2306.10050052
 20
-549.12240822
  0
VERTEX
  8
0
 10
2306.01628124
 20
-549.29723672
  0
VERTEX
  8
0
 10
2305.91610185
 20
-549.46213698
  0
VERTEX
  8
0
 10
2305.80096767
 20
-549.61610369
  0
VERTEX
  8
0
 10
2305.67188400
 20
-549.75813153
  0
VERTEX
  8
0
 10
2305.52985616
 20
-549.88721519
  0
VERTEX
  8
0
 10
2305.37588946
 20
-550.00234937
  0
VERTEX
  8
0
 10
2305.21098920
 20
-550.10252876
  0
VERTEX
  8
0
 10
2305.03616070
 20
-550.18674805
  0
VERTEX
  8
0
 10
2304.85240926
 20
-550.25400192
  0
VERTEX
  8
0
 10
2304.66074020
 20
-550.30328507
  0
VERTEX
  8
0
 10
2304.46215882
 20
-550.33359219
  0
VERTEX
  8
0
 10
2304.25767044
 20
-550.34391796
  0
VERTEX
  8
0
 10
2304.05318206
 20
-550.33359219
  0
VERTEX
  8
0
 10
2303.85460068
 20
-550.30328507
  0
VERTEX
  8
0
 10
2303.66293162
 20
-550.25400192
  0
VERTEX
  8
0
 10
2303.47918018
 20
-550.18674805
  0
VERTEX
  8
0
 10
2303.30435168
 20
-550.10252876
  0
VERTEX
  8
0
 10
2303.13945142
 20
-550.00234937
  0
VERTEX
  8
0
 10
2302.98548472
 20
-549.88721519
  0
VERTEX
  8
0
 10
2302.84345688
 20
-549.75813153
  0
VERTEX
  8
0
 10
2302.71437321
 20
-549.61610369
  0
VERTEX
  8
0
 10
2302.59923903
 20
-549.46213698
  0
VERTEX
  8
0
 10
2302.49905964
 20
-549.29723672
  0
VERTEX
  8
0
 10
2302.41484035
 20
-549.12240822
  0
VERTEX
  8
0
 10
2302.34758648
 20
-548.93865678
  0
VERTEX
  8
0
 10
2302.29830333
 20
-548.74698772
  0
VERTEX
  8
0
 10
2302.26799621
 20
-548.54840635
  0
VERTEX
  8
0
 10
2302.25767044
 20
-548.34391796
  0
SEQEND
  0
POLYLINE
  8
Default Layer
 66
   1
 39
0.000000
 70
    1
  0
VERTEX
  8
0
 10
922.79155587
 20
691.42680339
  0
VERTEX
  8
0
 10
1103.41407355
 20
691.42680339
  0
VERTEX
  8
0
 10
1103.41407355
 20
703.72680339
  0
VERTEX
  8
0
 10
922.79155587
 20
703.72680339
  0
VERTEX
  8
0
 10
922.79155587
 20
901.45133487
  0
VERTEX
  8
0
 10
1103.41407355
 20
901.45133487
  0
VERTEX
  8
0
 10
1103.41407355
 20
913.75133487
  0
VERTEX
  8
0
 10
922.79155587
 20
913.75133487
  0
VERTEX
  8
0
 10
922.79155587
 20
960.65515962
  0
VERTEX
  8
0
 10
1102.05676638
 20
1042.46855961
  0
VERTEX
  8
0
 10
1102.27976048
 20
1111.39089781
  0
VERTEX
  8
0
 10
1151.90823197
 20
1111.39089781
  0
VERTEX
  8
0
 10
1151.90823197
 20
1123.78086669
  0
VERTEX
  8
0
 10
1233.31983027
 20
1123.78086669
  0
VERTEX
  8
0
 10
1233.31983027
 20
1111.39089781
  0
VERTEX
  8
0
 10
1282.79509194
 20
1111.39089781
  0
VERTEX
  8
0
 10
1282.79509194
 20
493.70596146
  0
VERTEX
  8
0
 10
1156.15275813
 20
493.70596146
  0
VERTEX
  8
0
 10
1156.15275813
 20
481.44271570
  0
VERTEX
  8
0
 10
1049.15275813
 20
481.44271570
  0
VERTEX
  8
0
 10
1049.15275813
 20
493.70596146
  0
VERTEX
  8
0
 10
922.79155587
 20
493.70596146
  0
VERTEX
  8
0
 10
922.79155587
 20
691.42680339
  0
SEQEND
  0
POLYLINE
  8
Default Layer
 66
   1
 39
0.000000
 70
    1
  0
VERTEX
  8
0
 10
294.67274399
 20
691.42680339
  0
VERTEX
  8
0
 10
475.29526167
 20
691.42680339
  0
VERTEX
  8
0
 10
475.29526167
 20
703.72680339
  0
VERTEX
  8
0
 10
294.67274399
 20
703.72680339
  0
VERTEX
  8
0
 10
294.67274399
 20
901.45133487
  0
VERTEX
  8
0
 10
475.29526167
 20
901.45133487
  0
VERTEX
  8
0
 10
475.29526167
 20
913.75133487
  0
VERTEX
  8
0
 10
294.67274399
 20
913.75133487
  0
VERTEX
  8
0
 10
294.67274399
 20
960.65515962
  0
VERTEX
  8
0
 10
473.93795450
 20
1042.46855961
  0
VERTEX
  8
0
 10
474.16094859
 20
1111.39089781
  0
VERTEX
  8
0
 10
523.78942008
 20
1111.39089781
  0
VERTEX
  8
0
 10
523.78942008
 20
1123.78086669
  0
VERTEX
  8
0
 10
605.20101839
 20
1123.78086669
  0
VERTEX
  8
0
 10
605.20101839
 20
1111.39089781
  0
VERTEX
  8
0
 10
654.67628006
 20
1111.39089781
  0
VERTEX
  8
0
 10
654.67628006
 20
493.70596146
  0
VERTEX
  8
0
 10
528.03394625
 20
493.70596146
  0
VERTEX
  8
0
 10
528.03394625
 20
481.44271570
  0
VERTEX
  8
0
 10
421.03394625
 20
481.44271570
  0
VERTEX
  8
0
 10
421.03394625
 20
493.70596146
  0
VERTEX
  8
0
 10
294.67274399
 20
493.70596146
  0
VERTEX
  8
0
 10
294.67274399
 20
691.42680339
  0
SEQEND
  0
POLYLINE
  8
Default Layer
 66
   1
 39
0.000000
 70
    1
  0
VERTEX
  8
0
 10
1703.53035785
 20
-548.97943209
  0
VERTEX
  8
0
 10
1703.54068362
 20
-548.77494371
  0
VERTEX
  8
0
 10
1703.57099074
 20
-548.57636233
  0
VERTEX
  8
0
 10
1703.62027389
 20
-548.38469327
  0
VERTEX
  8
0
 10
1703.68752776
 20
-548.20094184
  0
VERTEX
  8
0
 10
1703.77174705
 20
-548.02611333
  0
VERTEX
  8
0
 10
1703.87192644
 20
-547.86121308
  0
VERTEX
  8
0
 10
1703.98706062
 20
-547.70724637
  0
VERTEX
  8
0
 10
1704.11614429
 20
-547.56521853
  0
VERTEX
  8
0
 10
1704.25817213
 20
-547.43613486
  0
VERTEX
  8
0
 10
1704.41213883
 20
-547.32100068
  0
VERTEX
  8
0
 10
1704.57703909
 20
-547.22082129
  0
VERTEX
  8
0
 10
1704.75186759
 20
-547.13660201
  0
VERTEX
  8
0
 10
1704.93561903
 20
-547.06934813
  0
VERTEX
  8
0
 10
1705.12728809
 20
-547.02006499
  0
VERTEX
  8
0
 10
1705.32586947
 20
-546.98975787
  0
VERTEX
  8
0
 10
1705.53035785
 20
-546.97943209
  0
VERTEX
  8
0
 10
1705.73484623
 20
-546.98975787
  0
VERTEX
  8
0
 10
1705.93342761
 20
-547.02006499
  0
VERTEX
  8
0
 10
1706.12509667
 20
-547.06934813
  0
VERTEX
  8
0
 10
1706.30884811
 20
-547.13660201
  0
VERTEX
  8
0
 10
1706.48367661
 20
-547.22082129
  0
VERTEX
  8
0
 10
1706.64857687
 20
-547.32100068
  0
VERTEX
  8
0
 10
1706.80254357
 20
-547.43613486
  0
VERTEX
  8
0
 10
1706.94457141
 20
-547.56521853
  0
VERTEX
  8
0
 10
1707.07365508
 20
-547.70724637
  0
VERTEX
  8
0
 10
1707.18878926
 20
-547.86121308
  0
VERTEX
  8
0
 10
1707.28896865
 20
-548.02611333
  0
VERTEX
  8
0
 10
1707.37318794
 20
-548.20094184
  0
VERTEX
  8
0
 10
1707.44044181
 20
-548.38469327
  0
VERTEX
  8
0
 10
1707.48972496
 20
-548.57636233
  0
VERTEX
  8
0
 10
1707.52003208
 20
-548.77494371
  0
VERTEX
  8
0
 10
1707.53035785
 20
-548.97943209
  0
VERTEX
  8
0
 10
1707.52003208
 20
-549.18392048
  0
VERTEX
  8
0
 10
1707.48972496
 20
-549.38250185
  0
VERTEX
  8
0
 10
1707.44044181
 20
-549.57417091
  0
VERTEX
  8
0
 10
1707.37318794
 20
-549.75792235
  0
VERTEX
  8
0
 10
1707.28896865
 20
-549.93275085
  0
VERTEX
  8
0
 10
1707.18878926
 20
-550.09765111
  0
VERTEX
  8
0
 10
1707.07365508
 20
-550.25161782
  0
VERTEX
  8
0
 10
1706.94457141
 20
-550.39364566
  0
VERTEX
  8
0
 10
1706.80254357
 20
-550.52272932
  0
VERTEX
  8
0
 10
1706.64857687
 20
-550.63786350
  0
VERTEX
  8
0
 10
1706.48367661
 20
-550.73804289
  0
VERTEX
  8
0
 10
1706.30884811
 20
-550.82226218
  0
VERTEX
  8
0
 10
1706.12509667
 20
-550.88951605
  0
VERTEX
  8
0
 10
1705.93342761
 20
-550.93879920
  0
VERTEX
  8
0
 10
1705.73484623
 20
-550.96910632
  0
VERTEX
  8
0
 10
1705.53035785
 20
-550.97943209
  0
VERTEX
  8
0
 10
1705.32586947
 20
-550.96910632
  0
VERTEX
  8
0
 10
1705.12728809
 20
-550.93879920
  0
VERTEX
  8
0
 10
1704.93561903
 20
-550.88951605
  0
VERTEX
  8
0
 10
1704.75186759
 20
-550.82226218
  0
VERTEX
  8
0
 10
1704.57703909
 20
-550.73804289
  0
VERTEX
  8
0
 10
1704.41213883
 20
-550.63786350
  0
VERTEX
  8
0
 10
1704.25817213
 20
-550.52272932
  0
VERTEX
  8
0
 10
1704.11614429
 20
-550.39364566
  0
VERTEX
  8
0
 10
1703.98706062
 20
-550.25161782
  0
VERTEX
  8
0
 10
1703.87192644
 20
-550.09765111
  0
VERTEX
  8
0
 10
1703.77174705
 20
-549.93275085
  0
VERTEX
  8
0
 10
1703.68752776
 20
-549.75792235
  0
VERTEX
  8
0
 10
1703.62027389
 20
-549.57417091
  0
VERTEX
  8
0
 10
1703.57099074
 20
-549.38250185
  0
VERTEX
  8
0
 10
1703.54068362
 20
-549.18392048
  0
VERTEX
  8
0
 10
1703.53035785
 20
-548.97943209
  0
SEQEND
  0
POLYLINE
  8
Default Layer
 66
   1
 39
0.000000
 70
    0
  0
VERTEX
  8
0
 10
-1023.65997171
 20
2576.32248939
  0
VERTEX
  8
0
 10
-1023.65997171
 20
2804.92248939
  0
VERTEX
  8
0
 10
-947.45997171
 20
2652.52248939
  0
VERTEX
  8
0
 10
-871.25997171
 20
2804.92248939
  0
VERTEX
  8
0
 10
-871.25997171
 20
2576.32248939
  0
SEQEND
  0
POLYLINE
  8
Default Layer
 66
   1
 39
0.000000
 70
    1
  0
VERTEX
  8
0
 10
-795.05997171
 20
2576.32248939
  0
VERTEX
  8
0
 10
-795.05997171
 20
2804.92248939
  0
VERTEX
  8
0
 10
-642.65997171
 20
2804.92248939
  0
VERTEX
  8
0
 10
-642.65997171
 20
2576.32248939
  0
VERTEX
  8
0
 10
-795.05997171
 20
2576.32248939
  0
SEQEND
  0
POLYLINE
  8
Default Layer
 66
   1
 39
0.000000
 70
    0
  0
VERTEX
  8
0
 10
-566.45997171
 20
2576.32248939
  0
VERTEX
  8
0
 10
-452.15997171
 20
2576.32248939
  0
VERTEX
  8
0
 10
-414.05997171
 20
2614.42248939
  0
VERTEX
  8
0
 10
-414.05997171
 20
2766.82248939
  0
VERTEX
  8
0
 10
-452.15997171
 20
2804.92248939
  0
VERTEX
  8
0
 10
-566.45997171
 20
2804.92248939
  0
SEQEND
  0
POLYLINE
  8
Default Layer
 66
   1
 39
0.000000
 70
    0
  0
VERTEX
  8
0
 10
-528.35997171
 20
2804.92248939
  0
VERTEX
  8
0
 10
-528.35997171
 20
2576.32248939
  0
SEQEND
  0
POLYLINE
  8
Default Layer
 66
   1
 39
0.000000
 70
    0
  0
VERTEX
  8
0
 10
-337.85997171
 20
2804.92248939
  0
VERTEX
  8
0
 10
-337.85997171
 20
2614.42248939
  0
VERTEX
  8
0
 10
-299.75997171
 20
2576.32248939
  0
VERTEX
  8
0
 10
-223.55997171
 20
2576.32248939
  0
VERTEX
  8
0
 10
-185.45997171
 20
2614.42248939
  0
VERTEX
  8
0
 10
-185.45997171
 20
2804.92248939
  0
SEQEND
  0
POLYLINE
  8
Default Layer
 66
   1
 39
0.000000
 70
    0
  0
VERTEX
  8
0
 10
-109.25997171
 20
2804.92248939
  0
VERTEX
  8
0
 10
-109.25997171
 20
2576.32248939
  0
VERTEX
  8
0
 10
43.14002829
 20
2576.32248939
  0
SEQEND
  0
POLYLINE
  8
Default Layer
 66
   1
 39
0.000000
 70
    0
  0
VERTEX
  8
0
 10
119.34002829
 20
2576.32248939
  0
VERTEX
  8
0
 10
119.34002829
 20
2652.52248939
  0
VERTEX
  8
0
 10
195.54002829
 20
2804.92248939
  0
VERTEX
  8
0
 10
271.74002829
 20
2652.52248939
  0
VERTEX
  8
0
 10
271.74002829
 20
2576.32248939
  0
SEQEND
  0
POLYLINE
  8
Default Layer
 66
   1
 39
0.000000
 70
    0
  0
VERTEX
  8
0
 10
119.34002829
 20
2652.52248939
  0
VERTEX
  8
0
 10
271.74002829
 20
2652.52248939
  0
SEQEND
  0
POLYLINE
  8
Default Layer
 66
   1
 39
0.000000
 70
    0
  0
VERTEX
  8
0
 10
347.94002829
 20
2576.32248939
  0
VERTEX
  8
0
 10
347.94002829
 20
2804.92248939
  0
VERTEX
  8
0
 10
462.24002829
 20
2804.92248939
  0
VERTEX
  8
0
 10
500.34002829
 20
2766.82248939
  0
VERTEX
  8
0
 10
500.34002829
 20
2728.72248939
  0
VERTEX
  8
0
 10
462.24002829
 20
2690.62248939
  0
VERTEX
  8
0
 10
347.94002829
 20
2690.62248939
  0
SEQEND
  0
POLYLINE
  8
Default Layer
 66
   1
 39
0.000000
 70
    0
  0
VERTEX
  8
0
 10
386.04002829
 20
2690.62248939
  0
VERTEX
  8
0
 10
500.34002829
 20
2576.32248939
  0
SEQEND
  0
POLYLINE
  8
Default Layer
 66
   1
 39
0.000000
 70
    0
  0
VERTEX
  8
0
 10
805.14002829
 20
2576.32248939
  0
VERTEX
  8
0
 10
805.14002829
 20
2804.92248939
  0
VERTEX
  8
0
 10
919.44002829
 20
2804.92248939
  0
VERTEX
  8
0
 10
957.54002829
 20
2766.82248939
  0
VERTEX
  8
0
 10
957.54002829
 20
2728.72248939
  0
VERTEX
  8
0
 10
919.44002829
 20
2690.62248939
  0
VERTEX
  8
0
 10
805.14002829
 20
2690.62248939
  0
SEQEND
  0
POLYLINE
  8
Default Layer
 66
   1
 39
0.000000
 70
    0
  0
VERTEX
  8
0
 10
843.24002829
 20
2690.62248939
  0
VERTEX
  8
0
 10
957.54002829
 20
2576.32248939
  0
SEQEND
  0
POLYLINE
  8
Default Layer
 66
   1
 39
0.000000
 70
    0
  0
VERTEX
  8
0
 10
1033.74002829
 20
2576.32248939
  0
VERTEX
  8
0
 10
1033.74002829
 20
2652.52248939
  0
VERTEX
  8
0
 10
1109.94002829
 20
2804.92248939
  0
VERTEX
  8
0
 10
1186.14002829
 20
2652.52248939
  0
VERTEX
  8
0
 10
1186.14002829
 20
2576.32248939
  0
SEQEND
  0
POLYLINE
  8
Default Layer
 66
   1
 39
0.000000
 70
    0
  0
VERTEX
  8
0
 10
1033.74002829
 20
2652.52248939
  0
VERTEX
  8
0
 10
1186.14002829
 20
2652.52248939
  0
SEQEND
  0
POLYLINE
  8
Default Layer
 66
   1
 39
0.000000
 70
    0
  0
VERTEX
  8
0
 10
1414.74002829
 20
2614.42248939
  0
VERTEX
  8
0
 10
1376.64002829
 20
2576.32248939
  0
VERTEX
  8
0
 10
1300.44002829
 20
2576.32248939
  0
VERTEX
  8
0
 10
1262.34002829
 20
2614.42248939
  0
VERTEX
  8
0
 10
1262.34002829
 20
2766.82248939
  0
VERTEX
  8
0
 10
1300.44002829
 20
2804.92248939
  0
VERTEX
  8
0
 10
1376.64002829
 20
2804.92248939
  0
VERTEX
  8
0
 10
1414.74002829
 20
2766.82248939
  0
SEQEND
  0
POLYLINE
  8
Default Layer
 66
   1
 39
0.000000
 70
    0
  0
VERTEX
  8
0
 10
1490.94002829
 20
2576.32248939
  0
VERTEX
  8
0
 10
1490.94002829
 20
2804.92248939
  0
SEQEND
  0
POLYLINE
  8
Default Layer
 66
   1
 39
0.000000
 70
    0
  0
VERTEX
  8
0
 10
1643.34002829
 20
2804.92248939
  0
VERTEX
  8
0
 10
1529.04002829
 20
2690.62248939
  0
VERTEX
  8
0
 10
1490.94002829
 20
2690.62248939
  0
SEQEND
  0
POLYLINE
  8
Default Layer
 66
   1
 39
0.000000
 70
    0
  0
VERTEX
  8
0
 10
1529.04002829
 20
2690.62248939
  0
VERTEX
  8
0
 10
1643.34002829
 20
2576.32248939
  0
SEQEND
  0
POLYLINE
  8
Default Layer
 66
   1
 39
0.000000
 70
    0
  0
VERTEX
  8
0
 10
1948.14002829
 20
2804.92248939
  0
VERTEX
  8
0
 10
2100.54002829
 20
2804.92248939
  0
SEQEND
  0
POLYLINE
  8
Default Layer
 66
   1
 39
0.000000
 70
    0
  0
VERTEX
  8
0
 10
2024.34002829
 20
2804.92248939
  0
VERTEX
  8
0
 10
2024.34002829
 20
2576.32248939
  0
SEQEND
  0
POLYLINE
  8
Default Layer
 66
   1
 39
0.000000
 70
    0
  0
VERTEX
  8
0
 10
2176.74002829
 20
2804.92248939
  0
VERTEX
  8
0
 10
2252.94002829
 20
2690.62248939
  0
VERTEX
  8
0
 10
2252.94002829
 20
2576.32248939
  0
SEQEND
  0
POLYLINE
  8
Default Layer
 66
   1
 39
0.000000
 70
    0
  0
VERTEX
  8
0
 10
2252.94002829
 20
2690.62248939
  0
VERTEX
  8
0
 10
2329.14002829
 20
2804.92248939
  0
SEQEND
  0
POLYLINE
  8
Default Layer
 66
   1
 39
0.000000
 70
    0
  0
VERTEX
  8
0
 10
2405.34002829
 20
2576.32248939
  0
VERTEX
  8
0
 10
2405.34002829
 20
2804.92248939
  0
VERTEX
  8
0
 10
2519.64002829
 20
2804.92248939
  0
VERTEX
  8
0
 10
2557.74002829
 20
2766.82248939
  0
VERTEX
  8
0
 10
2557.74002829
 20
2728.72248939
  0
VERTEX
  8
0
 10
2519.64002829
 20
2690.62248939
  0
VERTEX
  8
0
 10
2405.34002829
 20
2690.62248939
  0
SEQEND
  0
POLYLINE
  8
Default Layer
 66
   1
 39
0.000000
 70
    0
  0
VERTEX
  8
0
 10
2633.94002829
 20
2576.32248939
  0
VERTEX
  8
0
 10
2633.94002829
 20
2804.92248939
  0
VERTEX
  8
0
 10
2786.34002829
 20
2804.92248939
  0
SEQEND
  0
POLYLINE
  8
Default Layer
 66
   1
 39
0.000000
 70
    0
  0
VERTEX
  8
0
 10
2633.94002829
 20
2690.62248939
  0
VERTEX
  8
0
 10
2710.14002829
 20
2690.62248939
  0
SEQEND
  0
POLYLINE
  8
Default Layer
 66
   1
 39
0.000000
 70
    0
  0
VERTEX
  8
0
 10
2633.94002829
 20
2576.32248939
  0
VERTEX
  8
0
 10
2786.34002829
 20
2576.32248939
  0
SEQEND
  0
POLYLINE
  8
Default Layer
 66
   1
 39
0.000000
 70
    0
  0
VERTEX
  8
0
 10
3091.14002829
 20
2766.82248939
  0
VERTEX
  8
0
 10
3129.24002829
 20
2804.92248939
  0
VERTEX
  8
0
 10
3205.44002829
 20
2804.92248939
  0
VERTEX
  8
0
 10
3243.54002829
 20
2766.82248939
  0
VERTEX
  8
0
 10
3243.54002829
 20
2728.72248939
  0
VERTEX
  8
0
 10
3205.44002829
 20
2690.62248939
  0
VERTEX
  8
0
 10
3129.24002829
 20
2690.62248939
  0
VERTEX
  8
0
 10
3091.14002829
 20
2652.52248939
  0
VERTEX
  8
0
 10
3091.14002829
 20
2576.32248939
  0
VERTEX
  8
0
 10
3243.54002829
 20
2576.32248939
  0
SEQEND
  0
ENDSEC
  0
EOF
