  0
SECTION
  2
HEADER
  9
$ACADVER
  1
AC1009
  9
$EXTMIN
 10
-163.93210750
 20
2113.86138614
 30
0.0
  9
$EXTMAX
 10
4027.06789250
 20
6650.53422914
 30
0.0
  0
ENDSEC
  0
SECTION
  2
TABLES
  0
TABLE
  2
LAYER
 70
1
 0
LAYER
 2
Default Layer
 70
0
 62
1
 6
CONTINUOUS
 0
ENDTAB
 0
ENDSEC
  0
SECTION
  2
ENTITIES
  0
POLYLINE
  8
Default Layer
 66
   1
 39
0.000000
 70
    1
  0
VERTEX
  8
0
 10
1334.14263013
 20
2383.16879632
  0
VERTEX
  8
0
 10
2554.14263013
 20
2383.16879632
  0
VERTEX
  8
0
 10
2554.14263013
 20
2333.16879632
  0
VERTEX
  8
0
 10
1334.14263013
 20
2333.16879632
  0
VERTEX
  8
0
 10
1334.14263013
 20
2383.16879632
  0
SEQEND
  0
POLYLINE
  8
Default Layer
 66
   1
 39
0.000000
 70
    1
  0
VERTEX
  8
0
 10
1334.13212376
 20
2113.86138614
  0
VERTEX
  8
0
 10
2554.13212376
 20
2113.86138614
  0
VERTEX
  8
0
 10
2554.13212376
 20
2178.86138614
  0
VERTEX
  8
0
 10
1334.13212376
 20
2178.86138614
  0
VERTEX
  8
0
 10
1334.13212376
 20
2113.86138614
  0
SEQEND
  0
POLYLINE
  8
Default Layer
 66
   1
 39
0.000000
 70
    1
  0
VERTEX
  8
0
 10
1334.13212376
 20
2186.96138614
  0
VERTEX
  8
0
 10
2554.13212376
 20
2186.96138614
  0
VERTEX
  8
0
 10
2554.13212376
 20
2251.96138614
  0
VERTEX
  8
0
 10
1334.13212376
 20
2251.96138614
  0
VERTEX
  8
0
 10
1334.13212376
 20
2186.96138614
  0
SEQEND
  0
POLYLINE
  8
Default Layer
 66
   1
 39
0.000000
 70
    1
  0
VERTEX
  8
0
 10
1334.13212376
 20
2260.06138614
  0
VERTEX
  8
0
 10
2554.13212376
 20
2260.06138614
  0
VERTEX
  8
0
 10
2554.13212376
 20
2325.06138614
  0
VERTEX
  8
0
 10
1334.13212376
 20
2325.06138614
  0
VERTEX
  8
0
 10
1334.13212376
 20
2260.06138614
  0
SEQEND
  0
POLYLINE
  8
Default Layer
 66
   1
 39
0.000000
 70
    1
  0
VERTEX
  8
0
 10
1456.17722772
 20
4974.90806223
  0
VERTEX
  8
0
 10
1456.17722772
 20
4962.31935997
  0
VERTEX
  8
0
 10
1559.17722772
 20
4962.31935997
  0
VERTEX
  8
0
 10
1559.17722772
 20
4974.90806223
  0
VERTEX
  8
0
 10
1661.17455233
 20
4974.90806223
  0
VERTEX
  8
0
 10
1661.17455233
 20
5862.30278465
  0
VERTEX
  8
0
 10
1356.17455233
 20
5862.30278465
  0
VERTEX
  8
0
 10
1356.17455233
 20
5824.63405233
  0
VERTEX
  8
0
 10
1506.05979986
 20
5824.63405233
  0
VERTEX
  8
0
 10
1506.05979986
 20
5812.33405233
  0
VERTEX
  8
0
 10
1356.17455233
 20
5812.33405233
  0
VERTEX
  8
0
 10
1356.17455233
 20
5540.63785361
  0
VERTEX
  8
0
 10
1506.05979986
 20
5540.63785361
  0
VERTEX
  8
0
 10
1506.05979986
 20
5528.33785361
  0
VERTEX
  8
0
 10
1356.17455233
 20
5528.33785361
  0
VERTEX
  8
0
 10
1356.17455233
 20
5257.61230552
  0
VERTEX
  8
0
 10
1506.05979986
 20
5257.61230552
  0
VERTEX
  8
0
 10
1506.05979986
 20
5245.31230552
  0
VERTEX
  8
0
 10
1356.17455233
 20
5245.31230552
  0
VERTEX
  8
0
 10
1356.17455233
 20
4974.90806223
  0
VERTEX
  8
0
 10
1456.17722772
 20
4974.90806223
  0
SEQEND
  0
POLYLINE
  8
Default Layer
 66
   1
 39
0.000000
 70
    1
  0
VERTEX
  8
0
 10
1862.45968883
 20
4974.90806223
  0
VERTEX
  8
0
 10
1862.45968883
 20
4962.31935997
  0
VERTEX
  8
0
 10
1965.45968883
 20
4962.31935997
  0
VERTEX
  8
0
 10
1965.45968883
 20
4974.90806223
  0
VERTEX
  8
0
 10
2067.45701344
 20
4974.90806223
  0
VERTEX
  8
0
 10
2067.45701344
 20
5862.30278465
  0
VERTEX
  8
0
 10
1762.45701344
 20
5862.30278465
  0
VERTEX
  8
0
 10
1762.45701344
 20
5824.63405233
  0
VERTEX
  8
0
 10
1912.34226096
 20
5824.63405233
  0
VERTEX
  8
0
 10
1912.34226096
 20
5812.33405233
  0
VERTEX
  8
0
 10
1762.45701344
 20
5812.33405233
  0
VERTEX
  8
0
 10
1762.45701344
 20
5540.63785361
  0
VERTEX
  8
0
 10
1912.34226096
 20
5540.63785361
  0
VERTEX
  8
0
 10
1912.34226096
 20
5528.33785361
  0
VERTEX
  8
0
 10
1762.45701344
 20
5528.33785361
  0
VERTEX
  8
0
 10
1762.45701344
 20
5257.61230552
  0
VERTEX
  8
0
 10
1912.34226096
 20
5257.61230552
  0
VERTEX
  8
0
 10
1912.34226096
 20
5245.31230552
  0
VERTEX
  8
0
 10
1762.45701344
 20
5245.31230552
  0
VERTEX
  8
0
 10
1762.45701344
 20
4974.90806223
  0
VERTEX
  8
0
 10
1862.45968883
 20
4974.90806223
  0
SEQEND
  0
POLYLINE
  8
Default Layer
 66
   1
 39
0.000000
 70
    1
  0
VERTEX
  8
0
 10
2284.27256011
 20
4974.90806223
  0
VERTEX
  8
0
 10
2284.27256011
 20
4962.31935997
  0
VERTEX
  8
0
 10
2387.27256011
 20
4962.31935997
  0
VERTEX
  8
0
 10
2387.27256011
 20
4974.90806223
  0
VERTEX
  8
0
 10
2489.26988472
 20
4974.90806223
  0
VERTEX
  8
0
 10
2489.26988472
 20
5862.30278465
  0
VERTEX
  8
0
 10
2184.26988472
 20
5862.30278465
  0
VERTEX
  8
0
 10
2184.26988472
 20
5824.63405233
  0
VERTEX
  8
0
 10
2334.15513225
 20
5824.63405233
  0
VERTEX
  8
0
 10
2334.15513225
 20
5812.33405233
  0
VERTEX
  8
0
 10
2184.26988472
 20
5812.33405233
  0
VERTEX
  8
0
 10
2184.26988472
 20
5540.63785361
  0
VERTEX
  8
0
 10
2334.15513225
 20
5540.63785361
  0
VERTEX
  8
0
 10
2334.15513225
 20
5528.33785361
  0
VERTEX
  8
0
 10
2184.26988472
 20
5528.33785361
  0
VERTEX
  8
0
 10
2184.26988472
 20
5257.61230552
  0
VERTEX
  8
0
 10
2334.15513225
 20
5257.61230552
  0
VERTEX
  8
0
 10
2334.15513225
 20
5245.31230552
  0
VERTEX
  8
0
 10
2184.26988472
 20
5245.31230552
  0
VERTEX
  8
0
 10
2184.26988472
 20
4974.90806223
  0
VERTEX
  8
0
 10
2284.27256011
 20
4974.90806223
  0
SEQEND
  0
POLYLINE
  8
Default Layer
 66
   1
 39
0.000000
 70
    1
  0
VERTEX
  8
0
 10
1329.00316435
 20
2433.10003336
  0
VERTEX
  8
0
 10
1329.00316435
 20
2535.17183220
  0
VERTEX
  8
0
 10
1316.70825629
 20
2534.10162459
  0
VERTEX
  8
0
 10
1316.70825629
 20
2637.09844213
  0
VERTEX
  8
0
 10
1329.01313606
 20
2636.12182968
  0
VERTEX
  8
0
 10
1329.01351796
 20
2738.10003336
  0
VERTEX
  8
0
 10
2524.41334823
 20
2738.10003336
  0
VERTEX
  8
0
 10
2524.41179236
 20
2636.09248032
  0
VERTEX
  8
0
 10
2536.70825629
 20
2637.15237429
  0
VERTEX
  8
0
 10
2536.70825629
 20
2534.08912838
  0
VERTEX
  8
0
 10
2524.41179236
 20
2535.09690394
  0
VERTEX
  8
0
 10
2524.41179236
 20
2433.09702204
  0
VERTEX
  8
0
 10
1329.00316435
 20
2433.10003336
  0
SEQEND
  0
POLYLINE
  8
Default Layer
 66
   1
 39
0.000000
 70
    1
  0
VERTEX
  8
0
 10
1615.72322181
 20
2532.12042639
  0
VERTEX
  8
0
 10
1615.72322181
 20
2639.08391649
  0
VERTEX
  8
0
 10
1627.92322181
 20
2639.08391649
  0
VERTEX
  8
0
 10
1627.92322181
 20
2532.12042639
  0
VERTEX
  8
0
 10
1615.72322181
 20
2532.12042639
  0
SEQEND
  0
POLYLINE
  8
Default Layer
 66
   1
 39
0.000000
 70
    1
  0
VERTEX
  8
0
 10
1920.68277804
 20
2532.12042639
  0
VERTEX
  8
0
 10
1920.68277804
 20
2639.06369460
  0
VERTEX
  8
0
 10
1932.88277804
 20
2639.06369460
  0
VERTEX
  8
0
 10
1932.88277804
 20
2532.12042639
  0
VERTEX
  8
0
 10
1920.68277804
 20
2532.12042639
  0
SEQEND
  0
POLYLINE
  8
Default Layer
 66
   1
 39
0.000000
 70
    1
  0
VERTEX
  8
0
 10
2225.70251460
 20
2532.12042639
  0
VERTEX
  8
0
 10
2225.70251460
 20
2639.04347271
  0
VERTEX
  8
0
 10
2237.90251460
 20
2639.04347271
  0
VERTEX
  8
0
 10
2237.90251460
 20
2532.12042639
  0
VERTEX
  8
0
 10
2225.70251460
 20
2532.12042639
  0
SEQEND
  0
POLYLINE
  8
Default Layer
 66
   1
 39
0.000000
 70
    1
  0
VERTEX
  8
0
 10
1619.72696633
 20
2687.20202204
  0
VERTEX
  8
0
 10
1619.73729211
 20
2687.40651042
  0
VERTEX
  8
0
 10
1619.76759922
 20
2687.60509180
  0
VERTEX
  8
0
 10
1619.81688237
 20
2687.79676086
  0
VERTEX
  8
0
 10
1619.88413624
 20
2687.98051230
  0
VERTEX
  8
0
 10
1619.96835553
 20
2688.15534080
  0
VERTEX
  8
0
 10
1620.06853492
 20
2688.32024106
  0
VERTEX
  8
0
 10
1620.18366910
 20
2688.47420776
  0
VERTEX
  8
0
 10
1620.31275277
 20
2688.61623560
  0
VERTEX
  8
0
 10
1620.45478061
 20
2688.74531927
  0
VERTEX
  8
0
 10
1620.60874731
 20
2688.86045345
  0
VERTEX
  8
0
 10
1620.77364757
 20
2688.96063284
  0
VERTEX
  8
0
 10
1620.94847607
 20
2689.04485213
  0
VERTEX
  8
0
 10
1621.13222751
 20
2689.11210600
  0
VERTEX
  8
0
 10
1621.32389657
 20
2689.16138915
  0
VERTEX
  8
0
 10
1621.52247795
 20
2689.19169627
  0
VERTEX
  8
0
 10
1621.72696633
 20
2689.20202204
  0
VERTEX
  8
0
 10
1621.93145471
 20
2689.19169627
  0
VERTEX
  8
0
 10
1622.13003609
 20
2689.16138915
  0
VERTEX
  8
0
 10
1622.32170515
 20
2689.11210600
  0
VERTEX
  8
0
 10
1622.50545659
 20
2689.04485213
  0
VERTEX
  8
0
 10
1622.68028509
 20
2688.96063284
  0
VERTEX
  8
0
 10
1622.84518535
 20
2688.86045345
  0
VERTEX
  8
0
 10
1622.99915205
 20
2688.74531927
  0
VERTEX
  8
0
 10
1623.14117989
 20
2688.61623560
  0
VERTEX
  8
0
 10
1623.27026356
 20
2688.47420776
  0
VERTEX
  8
0
 10
1623.38539774
 20
2688.32024106
  0
VERTEX
  8
0
 10
1623.48557713
 20
2688.15534080
  0
VERTEX
  8
0
 10
1623.56979642
 20
2687.98051230
  0
VERTEX
  8
0
 10
1623.63705029
 20
2687.79676086
  0
VERTEX
  8
0
 10
1623.68633344
 20
2687.60509180
  0
VERTEX
  8
0
 10
1623.71664056
 20
2687.40651042
  0
VERTEX
  8
0
 10
1623.72696633
 20
2687.20202204
  0
VERTEX
  8
0
 10
1623.71664056
 20
2686.99753366
  0
VERTEX
  8
0
 10
1623.68633344
 20
2686.79895228
  0
VERTEX
  8
0
 10
1623.63705029
 20
2686.60728322
  0
VERTEX
  8
0
 10
1623.56979642
 20
2686.42353178
  0
VERTEX
  8
0
 10
1623.48557713
 20
2686.24870328
  0
VERTEX
  8
0
 10
1623.38539774
 20
2686.08380302
  0
VERTEX
  8
0
 10
1623.27026356
 20
2685.92983632
  0
VERTEX
  8
0
 10
1623.14117989
 20
2685.78780848
  0
VERTEX
  8
0
 10
1622.99915205
 20
2685.65872481
  0
VERTEX
  8
0
 10
1622.84518535
 20
2685.54359063
  0
VERTEX
  8
0
 10
1622.68028509
 20
2685.44341124
  0
VERTEX
  8
0
 10
1622.50545659
 20
2685.35919196
  0
VERTEX
  8
0
 10
1622.32170515
 20
2685.29193808
  0
VERTEX
  8
0
 10
1622.13003609
 20
2685.24265493
  0
VERTEX
  8
0
 10
1621.93145471
 20
2685.21234782
  0
VERTEX
  8
0
 10
1621.72696633
 20
2685.20202204
  0
VERTEX
  8
0
 10
1621.52247795
 20
2685.21234782
  0
VERTEX
  8
0
 10
1621.32389657
 20
2685.24265493
  0
VERTEX
  8
0
 10
1621.13222751
 20
2685.29193808
  0
VERTEX
  8
0
 10
1620.94847607
 20
2685.35919196
  0
VERTEX
  8
0
 10
1620.77364757
 20
2685.44341124
  0
VERTEX
  8
0
 10
1620.60874731
 20
2685.54359063
  0
VERTEX
  8
0
 10
1620.45478061
 20
2685.65872481
  0
VERTEX
  8
0
 10
1620.31275277
 20
2685.78780848
  0
VERTEX
  8
0
 10
1620.18366910
 20
2685.92983632
  0
VERTEX
  8
0
 10
1620.06853492
 20
2686.08380302
  0
VERTEX
  8
0
 10
1619.96835553
 20
2686.24870328
  0
VERTEX
  8
0
 10
1619.88413624
 20
2686.42353178
  0
VERTEX
  8
0
 10
1619.81688237
 20
2686.60728322
  0
VERTEX
  8
0
 10
1619.76759922
 20
2686.79895228
  0
VERTEX
  8
0
 10
1619.73729211
 20
2686.99753366
  0
VERTEX
  8
0
 10
1619.72696633
 20
2687.20202204
  0
SEQEND
  0
POLYLINE
  8
Default Layer
 66
   1
 39
0.000000
 70
    1
  0
VERTEX
  8
0
 10
1924.68652255
 20
2687.20202204
  0
VERTEX
  8
0
 10
1924.69684833
 20
2687.40651042
  0
VERTEX
  8
0
 10
1924.72715545
 20
2687.60509180
  0
VERTEX
  8
0
 10
1924.77643860
 20
2687.79676086
  0
VERTEX
  8
0
 10
1924.84369247
 20
2687.98051230
  0
VERTEX
  8
0
 10
1924.92791175
 20
2688.15534080
  0
VERTEX
  8
0
 10
1925.02809114
 20
2688.32024106
  0
VERTEX
  8
0
 10
1925.14322533
 20
2688.47420776
  0
VERTEX
  8
0
 10
1925.27230899
 20
2688.61623560
  0
VERTEX
  8
0
 10
1925.41433683
 20
2688.74531927
  0
VERTEX
  8
0
 10
1925.56830354
 20
2688.86045345
  0
VERTEX
  8
0
 10
1925.73320379
 20
2688.96063284
  0
VERTEX
  8
0
 10
1925.90803230
 20
2689.04485213
  0
VERTEX
  8
0
 10
1926.09178373
 20
2689.11210600
  0
VERTEX
  8
0
 10
1926.28345280
 20
2689.16138915
  0
VERTEX
  8
0
 10
1926.48203417
 20
2689.19169627
  0
VERTEX
  8
0
 10
1926.68652255
 20
2689.20202204
  0
VERTEX
  8
0
 10
1926.89101094
 20
2689.19169627
  0
VERTEX
  8
0
 10
1927.08959231
 20
2689.16138915
  0
VERTEX
  8
0
 10
1927.28126137
 20
2689.11210600
  0
VERTEX
  8
0
 10
1927.46501281
 20
2689.04485213
  0
VERTEX
  8
0
 10
1927.63984131
 20
2688.96063284
  0
VERTEX
  8
0
 10
1927.80474157
 20
2688.86045345
  0
VERTEX
  8
0
 10
1927.95870828
 20
2688.74531927
  0
VERTEX
  8
0
 10
1928.10073612
 20
2688.61623560
  0
VERTEX
  8
0
 10
1928.22981978
 20
2688.47420776
  0
VERTEX
  8
0
 10
1928.34495397
 20
2688.32024106
  0
VERTEX
  8
0
 10
1928.44513335
 20
2688.15534080
  0
VERTEX
  8
0
 10
1928.52935264
 20
2687.98051230
  0
VERTEX
  8
0
 10
1928.59660651
 20
2687.79676086
  0
VERTEX
  8
0
 10
1928.64588966
 20
2687.60509180
  0
VERTEX
  8
0
 10
1928.67619678
 20
2687.40651042
  0
VERTEX
  8
0
 10
1928.68652255
 20
2687.20202204
  0
VERTEX
  8
0
 10
1928.67619678
 20
2686.99753366
  0
VERTEX
  8
0
 10
1928.64588966
 20
2686.79895228
  0
VERTEX
  8
0
 10
1928.59660651
 20
2686.60728322
  0
VERTEX
  8
0
 10
1928.52935264
 20
2686.42353178
  0
VERTEX
  8
0
 10
1928.44513335
 20
2686.24870328
  0
VERTEX
  8
0
 10
1928.34495397
 20
2686.08380302
  0
VERTEX
  8
0
 10
1928.22981978
 20
2685.92983632
  0
VERTEX
  8
0
 10
1928.10073612
 20
2685.78780848
  0
VERTEX
  8
0
 10
1927.95870828
 20
2685.65872481
  0
VERTEX
  8
0
 10
1927.80474157
 20
2685.54359063
  0
VERTEX
  8
0
 10
1927.63984131
 20
2685.44341124
  0
VERTEX
  8
0
 10
1927.46501281
 20
2685.35919196
  0
VERTEX
  8
0
 10
1927.28126137
 20
2685.29193808
  0
VERTEX
  8
0
 10
1927.08959231
 20
2685.24265493
  0
VERTEX
  8
0
 10
1926.89101094
 20
2685.21234782
  0
VERTEX
  8
0
 10
1926.68652255
 20
2685.20202204
  0
VERTEX
  8
0
 10
1926.48203417
 20
2685.21234782
  0
VERTEX
  8
0
 10
1926.28345280
 20
2685.24265493
  0
VERTEX
  8
0
 10
1926.09178373
 20
2685.29193808
  0
VERTEX
  8
0
 10
1925.90803230
 20
2685.35919196
  0
VERTEX
  8
0
 10
1925.73320379
 20
2685.44341124
  0
VERTEX
  8
0
 10
1925.56830354
 20
2685.54359063
  0
VERTEX
  8
0
 10
1925.41433683
 20
2685.65872481
  0
VERTEX
  8
0
 10
1925.27230899
 20
2685.78780848
  0
VERTEX
  8
0
 10
1925.14322533
 20
2685.92983632
  0
VERTEX
  8
0
 10
1925.02809114
 20
2686.08380302
  0
VERTEX
  8
0
 10
1924.92791175
 20
2686.24870328
  0
VERTEX
  8
0
 10
1924.84369247
 20
2686.42353178
  0
VERTEX
  8
0
 10
1924.77643860
 20
2686.60728322
  0
VERTEX
  8
0
 10
1924.72715545
 20
2686.79895228
  0
VERTEX
  8
0
 10
1924.69684833
 20
2686.99753366
  0
VERTEX
  8
0
 10
1924.68652255
 20
2687.20202204
  0
SEQEND
  0
POLYLINE
  8
Default Layer
 66
   1
 39
0.000000
 70
    1
  0
VERTEX
  8
0
 10
1619.72696633
 20
2484.09702204
  0
VERTEX
  8
0
 10
1619.73729211
 20
2484.30151042
  0
VERTEX
  8
0
 10
1619.76759922
 20
2484.50009180
  0
VERTEX
  8
0
 10
1619.81688237
 20
2484.69176086
  0
VERTEX
  8
0
 10
1619.88413624
 20
2484.87551230
  0
VERTEX
  8
0
 10
1619.96835553
 20
2485.05034080
  0
VERTEX
  8
0
 10
1620.06853492
 20
2485.21524106
  0
VERTEX
  8
0
 10
1620.18366910
 20
2485.36920776
  0
VERTEX
  8
0
 10
1620.31275277
 20
2485.51123560
  0
VERTEX
  8
0
 10
1620.45478061
 20
2485.64031927
  0
VERTEX
  8
0
 10
1620.60874731
 20
2485.75545345
  0
VERTEX
  8
0
 10
1620.77364757
 20
2485.85563284
  0
VERTEX
  8
0
 10
1620.94847607
 20
2485.93985213
  0
VERTEX
  8
0
 10
1621.13222751
 20
2486.00710600
  0
VERTEX
  8
0
 10
1621.32389657
 20
2486.05638915
  0
VERTEX
  8
0
 10
1621.52247795
 20
2486.08669627
  0
VERTEX
  8
0
 10
1621.72696633
 20
2486.09702204
  0
VERTEX
  8
0
 10
1621.93145471
 20
2486.08669627
  0
VERTEX
  8
0
 10
1622.13003609
 20
2486.05638915
  0
VERTEX
  8
0
 10
1622.32170515
 20
2486.00710600
  0
VERTEX
  8
0
 10
1622.50545659
 20
2485.93985213
  0
VERTEX
  8
0
 10
1622.68028509
 20
2485.85563284
  0
VERTEX
  8
0
 10
1622.84518535
 20
2485.75545345
  0
VERTEX
  8
0
 10
1622.99915205
 20
2485.64031927
  0
VERTEX
  8
0
 10
1623.14117989
 20
2485.51123560
  0
VERTEX
  8
0
 10
1623.27026356
 20
2485.36920776
  0
VERTEX
  8
0
 10
1623.38539774
 20
2485.21524106
  0
VERTEX
  8
0
 10
1623.48557713
 20
2485.05034080
  0
VERTEX
  8
0
 10
1623.56979642
 20
2484.87551230
  0
VERTEX
  8
0
 10
1623.63705029
 20
2484.69176086
  0
VERTEX
  8
0
 10
1623.68633344
 20
2484.50009180
  0
VERTEX
  8
0
 10
1623.71664056
 20
2484.30151042
  0
VERTEX
  8
0
 10
1623.72696633
 20
2484.09702204
  0
VERTEX
  8
0
 10
1623.71664056
 20
2483.89253366
  0
VERTEX
  8
0
 10
1623.68633344
 20
2483.69395228
  0
VERTEX
  8
0
 10
1623.63705029
 20
2483.50228322
  0
VERTEX
  8
0
 10
1623.56979642
 20
2483.31853178
  0
VERTEX
  8
0
 10
1623.48557713
 20
2483.14370328
  0
VERTEX
  8
0
 10
1623.38539774
 20
2482.97880302
  0
VERTEX
  8
0
 10
1623.27026356
 20
2482.82483632
  0
VERTEX
  8
0
 10
1623.14117989
 20
2482.68280848
  0
VERTEX
  8
0
 10
1622.99915205
 20
2482.55372481
  0
VERTEX
  8
0
 10
1622.84518535
 20
2482.43859063
  0
VERTEX
  8
0
 10
1622.68028509
 20
2482.33841124
  0
VERTEX
  8
0
 10
1622.50545659
 20
2482.25419196
  0
VERTEX
  8
0
 10
1622.32170515
 20
2482.18693808
  0
VERTEX
  8
0
 10
1622.13003609
 20
2482.13765493
  0
VERTEX
  8
0
 10
1621.93145471
 20
2482.10734782
  0
VERTEX
  8
0
 10
1621.72696633
 20
2482.09702204
  0
VERTEX
  8
0
 10
1621.52247795
 20
2482.10734782
  0
VERTEX
  8
0
 10
1621.32389657
 20
2482.13765493
  0
VERTEX
  8
0
 10
1621.13222751
 20
2482.18693808
  0
VERTEX
  8
0
 10
1620.94847607
 20
2482.25419196
  0
VERTEX
  8
0
 10
1620.77364757
 20
2482.33841124
  0
VERTEX
  8
0
 10
1620.60874731
 20
2482.43859063
  0
VERTEX
  8
0
 10
1620.45478061
 20
2482.55372481
  0
VERTEX
  8
0
 10
1620.31275277
 20
2482.68280848
  0
VERTEX
  8
0
 10
1620.18366910
 20
2482.82483632
  0
VERTEX
  8
0
 10
1620.06853492
 20
2482.97880302
  0
VERTEX
  8
0
 10
1619.96835553
 20
2483.14370328
  0
VERTEX
  8
0
 10
1619.88413624
 20
2483.31853178
  0
VERTEX
  8
0
 10
1619.81688237
 20
2483.50228322
  0
VERTEX
  8
0
 10
1619.76759922
 20
2483.69395228
  0
VERTEX
  8
0
 10
1619.73729211
 20
2483.89253366
  0
VERTEX
  8
0
 10
1619.72696633
 20
2484.09702204
  0
SEQEND
  0
POLYLINE
  8
Default Layer
 66
   1
 39
0.000000
 70
    1
  0
VERTEX
  8
0
 10
1924.68652255
 20
2484.09702204
  0
VERTEX
  8
0
 10
1924.69684833
 20
2484.30151042
  0
VERTEX
  8
0
 10
1924.72715545
 20
2484.50009180
  0
VERTEX
  8
0
 10
1924.77643860
 20
2484.69176086
  0
VERTEX
  8
0
 10
1924.84369247
 20
2484.87551230
  0
VERTEX
  8
0
 10
1924.92791175
 20
2485.05034080
  0
VERTEX
  8
0
 10
1925.02809114
 20
2485.21524106
  0
VERTEX
  8
0
 10
1925.14322533
 20
2485.36920776
  0
VERTEX
  8
0
 10
1925.27230899
 20
2485.51123560
  0
VERTEX
  8
0
 10
1925.41433683
 20
2485.64031927
  0
VERTEX
  8
0
 10
1925.56830354
 20
2485.75545345
  0
VERTEX
  8
0
 10
1925.73320379
 20
2485.85563284
  0
VERTEX
  8
0
 10
1925.90803230
 20
2485.93985213
  0
VERTEX
  8
0
 10
1926.09178373
 20
2486.00710600
  0
VERTEX
  8
0
 10
1926.28345280
 20
2486.05638915
  0
VERTEX
  8
0
 10
1926.48203417
 20
2486.08669627
  0
VERTEX
  8
0
 10
1926.68652255
 20
2486.09702204
  0
VERTEX
  8
0
 10
1926.89101094
 20
2486.08669627
  0
VERTEX
  8
0
 10
1927.08959231
 20
2486.05638915
  0
VERTEX
  8
0
 10
1927.28126137
 20
2486.00710600
  0
VERTEX
  8
0
 10
1927.46501281
 20
2485.93985213
  0
VERTEX
  8
0
 10
1927.63984131
 20
2485.85563284
  0
VERTEX
  8
0
 10
1927.80474157
 20
2485.75545345
  0
VERTEX
  8
0
 10
1927.95870828
 20
2485.64031927
  0
VERTEX
  8
0
 10
1928.10073612
 20
2485.51123560
  0
VERTEX
  8
0
 10
1928.22981978
 20
2485.36920776
  0
VERTEX
  8
0
 10
1928.34495397
 20
2485.21524106
  0
VERTEX
  8
0
 10
1928.44513335
 20
2485.05034080
  0
VERTEX
  8
0
 10
1928.52935264
 20
2484.87551230
  0
VERTEX
  8
0
 10
1928.59660651
 20
2484.69176086
  0
VERTEX
  8
0
 10
1928.64588966
 20
2484.50009180
  0
VERTEX
  8
0
 10
1928.67619678
 20
2484.30151042
  0
VERTEX
  8
0
 10
1928.68652255
 20
2484.09702204
  0
VERTEX
  8
0
 10
1928.67619678
 20
2483.89253366
  0
VERTEX
  8
0
 10
1928.64588966
 20
2483.69395228
  0
VERTEX
  8
0
 10
1928.59660651
 20
2483.50228322
  0
VERTEX
  8
0
 10
1928.52935264
 20
2483.31853178
  0
VERTEX
  8
0
 10
1928.44513335
 20
2483.14370328
  0
VERTEX
  8
0
 10
1928.34495397
 20
2482.97880302
  0
VERTEX
  8
0
 10
1928.22981978
 20
2482.82483632
  0
VERTEX
  8
0
 10
1928.10073612
 20
2482.68280848
  0
VERTEX
  8
0
 10
1927.95870828
 20
2482.55372481
  0
VERTEX
  8
0
 10
1927.80474157
 20
2482.43859063
  0
VERTEX
  8
0
 10
1927.63984131
 20
2482.33841124
  0
VERTEX
  8
0
 10
1927.46501281
 20
2482.25419196
  0
VERTEX
  8
0
 10
1927.28126137
 20
2482.18693808
  0
VERTEX
  8
0
 10
1927.08959231
 20
2482.13765493
  0
VERTEX
  8
0
 10
1926.89101094
 20
2482.10734782
  0
VERTEX
  8
0
 10
1926.68652255
 20
2482.09702204
  0
VERTEX
  8
0
 10
1926.48203417
 20
2482.10734782
  0
VERTEX
  8
0
 10
1926.28345280
 20
2482.13765493
  0
VERTEX
  8
0
 10
1926.09178373
 20
2482.18693808
  0
VERTEX
  8
0
 10
1925.90803230
 20
2482.25419196
  0
VERTEX
  8
0
 10
1925.73320379
 20
2482.33841124
  0
VERTEX
  8
0
 10
1925.56830354
 20
2482.43859063
  0
VERTEX
  8
0
 10
1925.41433683
 20
2482.55372481
  0
VERTEX
  8
0
 10
1925.27230899
 20
2482.68280848
  0
VERTEX
  8
0
 10
1925.14322533
 20
2482.82483632
  0
VERTEX
  8
0
 10
1925.02809114
 20
2482.97880302
  0
VERTEX
  8
0
 10
1924.92791175
 20
2483.14370328
  0
VERTEX
  8
0
 10
1924.84369247
 20
2483.31853178
  0
VERTEX
  8
0
 10
1924.77643860
 20
2483.50228322
  0
VERTEX
  8
0
 10
1924.72715545
 20
2483.69395228
  0
VERTEX
  8
0
 10
1924.69684833
 20
2483.89253366
  0
VERTEX
  8
0
 10
1924.68652255
 20
2484.09702204
  0
SEQEND
  0
POLYLINE
  8
Default Layer
 66
   1
 39
0.000000
 70
    1
  0
VERTEX
  8
0
 10
2229.70625912
 20
2484.09702204
  0
VERTEX
  8
0
 10
2229.71658489
 20
2484.30151042
  0
VERTEX
  8
0
 10
2229.74689201
 20
2484.50009180
  0
VERTEX
  8
0
 10
2229.79617516
 20
2484.69176086
  0
VERTEX
  8
0
 10
2229.86342903
 20
2484.87551230
  0
VERTEX
  8
0
 10
2229.94764832
 20
2485.05034080
  0
VERTEX
  8
0
 10
2230.04782771
 20
2485.21524106
  0
VERTEX
  8
0
 10
2230.16296189
 20
2485.36920776
  0
VERTEX
  8
0
 10
2230.29204555
 20
2485.51123560
  0
VERTEX
  8
0
 10
2230.43407339
 20
2485.64031927
  0
VERTEX
  8
0
 10
2230.58804010
 20
2485.75545345
  0
VERTEX
  8
0
 10
2230.75294036
 20
2485.85563284
  0
VERTEX
  8
0
 10
2230.92776886
 20
2485.93985213
  0
VERTEX
  8
0
 10
2231.11152030
 20
2486.00710600
  0
VERTEX
  8
0
 10
2231.30318936
 20
2486.05638915
  0
VERTEX
  8
0
 10
2231.50177074
 20
2486.08669627
  0
VERTEX
  8
0
 10
2231.70625912
 20
2486.09702204
  0
VERTEX
  8
0
 10
2231.91074750
 20
2486.08669627
  0
VERTEX
  8
0
 10
2232.10932888
 20
2486.05638915
  0
VERTEX
  8
0
 10
2232.30099794
 20
2486.00710600
  0
VERTEX
  8
0
 10
2232.48474937
 20
2485.93985213
  0
VERTEX
  8
0
 10
2232.65957788
 20
2485.85563284
  0
VERTEX
  8
0
 10
2232.82447814
 20
2485.75545345
  0
VERTEX
  8
0
 10
2232.97844484
 20
2485.64031927
  0
VERTEX
  8
0
 10
2233.12047268
 20
2485.51123560
  0
VERTEX
  8
0
 10
2233.24955635
 20
2485.36920776
  0
VERTEX
  8
0
 10
2233.36469053
 20
2485.21524106
  0
VERTEX
  8
0
 10
2233.46486992
 20
2485.05034080
  0
VERTEX
  8
0
 10
2233.54908920
 20
2484.87551230
  0
VERTEX
  8
0
 10
2233.61634308
 20
2484.69176086
  0
VERTEX
  8
0
 10
2233.66562623
 20
2484.50009180
  0
VERTEX
  8
0
 10
2233.69593334
 20
2484.30151042
  0
VERTEX
  8
0
 10
2233.70625912
 20
2484.09702204
  0
VERTEX
  8
0
 10
2233.69593334
 20
2483.89253366
  0
VERTEX
  8
0
 10
2233.66562623
 20
2483.69395228
  0
VERTEX
  8
0
 10
2233.61634308
 20
2483.50228322
  0
VERTEX
  8
0
 10
2233.54908920
 20
2483.31853178
  0
VERTEX
  8
0
 10
2233.46486992
 20
2483.14370328
  0
VERTEX
  8
0
 10
2233.36469053
 20
2482.97880302
  0
VERTEX
  8
0
 10
2233.24955635
 20
2482.82483632
  0
VERTEX
  8
0
 10
2233.12047268
 20
2482.68280848
  0
VERTEX
  8
0
 10
2232.97844484
 20
2482.55372481
  0
VERTEX
  8
0
 10
2232.82447814
 20
2482.43859063
  0
VERTEX
  8
0
 10
2232.65957788
 20
2482.33841124
  0
VERTEX
  8
0
 10
2232.48474937
 20
2482.25419196
  0
VERTEX
  8
0
 10
2232.30099794
 20
2482.18693808
  0
VERTEX
  8
0
 10
2232.10932888
 20
2482.13765493
  0
VERTEX
  8
0
 10
2231.91074750
 20
2482.10734782
  0
VERTEX
  8
0
 10
2231.70625912
 20
2482.09702204
  0
VERTEX
  8
0
 10
2231.50177074
 20
2482.10734782
  0
VERTEX
  8
0
 10
2231.30318936
 20
2482.13765493
  0
VERTEX
  8
0
 10
2231.11152030
 20
2482.18693808
  0
VERTEX
  8
0
 10
2230.92776886
 20
2482.25419196
  0
VERTEX
  8
0
 10
2230.75294036
 20
2482.33841124
  0
VERTEX
  8
0
 10
2230.58804010
 20
2482.43859063
  0
VERTEX
  8
0
 10
2230.43407339
 20
2482.55372481
  0
VERTEX
  8
0
 10
2230.29204555
 20
2482.68280848
  0
VERTEX
  8
0
 10
2230.16296189
 20
2482.82483632
  0
VERTEX
  8
0
 10
2230.04782771
 20
2482.97880302
  0
VERTEX
  8
0
 10
2229.94764832
 20
2483.14370328
  0
VERTEX
  8
0
 10
2229.86342903
 20
2483.31853178
  0
VERTEX
  8
0
 10
2229.79617516
 20
2483.50228322
  0
VERTEX
  8
0
 10
2229.74689201
 20
2483.69395228
  0
VERTEX
  8
0
 10
2229.71658489
 20
2483.89253366
  0
VERTEX
  8
0
 10
2229.70625912
 20
2484.09702204
  0
SEQEND
  0
POLYLINE
  8
Default Layer
 66
   1
 39
0.000000
 70
    1
  0
VERTEX
  8
0
 10
2229.70625912
 20
2687.20202204
  0
VERTEX
  8
0
 10
2229.71658489
 20
2687.40651042
  0
VERTEX
  8
0
 10
2229.74689201
 20
2687.60509180
  0
VERTEX
  8
0
 10
2229.79617516
 20
2687.79676086
  0
VERTEX
  8
0
 10
2229.86342903
 20
2687.98051230
  0
VERTEX
  8
0
 10
2229.94764832
 20
2688.15534080
  0
VERTEX
  8
0
 10
2230.04782771
 20
2688.32024106
  0
VERTEX
  8
0
 10
2230.16296189
 20
2688.47420776
  0
VERTEX
  8
0
 10
2230.29204555
 20
2688.61623560
  0
VERTEX
  8
0
 10
2230.43407339
 20
2688.74531927
  0
VERTEX
  8
0
 10
2230.58804010
 20
2688.86045345
  0
VERTEX
  8
0
 10
2230.75294036
 20
2688.96063284
  0
VERTEX
  8
0
 10
2230.92776886
 20
2689.04485213
  0
VERTEX
  8
0
 10
2231.11152030
 20
2689.11210600
  0
VERTEX
  8
0
 10
2231.30318936
 20
2689.16138915
  0
VERTEX
  8
0
 10
2231.50177074
 20
2689.19169627
  0
VERTEX
  8
0
 10
2231.70625912
 20
2689.20202204
  0
VERTEX
  8
0
 10
2231.91074750
 20
2689.19169627
  0
VERTEX
  8
0
 10
2232.10932888
 20
2689.16138915
  0
VERTEX
  8
0
 10
2232.30099794
 20
2689.11210600
  0
VERTEX
  8
0
 10
2232.48474937
 20
2689.04485213
  0
VERTEX
  8
0
 10
2232.65957788
 20
2688.96063284
  0
VERTEX
  8
0
 10
2232.82447814
 20
2688.86045345
  0
VERTEX
  8
0
 10
2232.97844484
 20
2688.74531927
  0
VERTEX
  8
0
 10
2233.12047268
 20
2688.61623560
  0
VERTEX
  8
0
 10
2233.24955635
 20
2688.47420776
  0
VERTEX
  8
0
 10
2233.36469053
 20
2688.32024106
  0
VERTEX
  8
0
 10
2233.46486992
 20
2688.15534080
  0
VERTEX
  8
0
 10
2233.54908920
 20
2687.98051230
  0
VERTEX
  8
0
 10
2233.61634308
 20
2687.79676086
  0
VERTEX
  8
0
 10
2233.66562623
 20
2687.60509180
  0
VERTEX
  8
0
 10
2233.69593334
 20
2687.40651042
  0
VERTEX
  8
0
 10
2233.70625912
 20
2687.20202204
  0
VERTEX
  8
0
 10
2233.69593334
 20
2686.99753366
  0
VERTEX
  8
0
 10
2233.66562623
 20
2686.79895228
  0
VERTEX
  8
0
 10
2233.61634308
 20
2686.60728322
  0
VERTEX
  8
0
 10
2233.54908920
 20
2686.42353178
  0
VERTEX
  8
0
 10
2233.46486992
 20
2686.24870328
  0
VERTEX
  8
0
 10
2233.36469053
 20
2686.08380302
  0
VERTEX
  8
0
 10
2233.24955635
 20
2685.92983632
  0
VERTEX
  8
0
 10
2233.12047268
 20
2685.78780848
  0
VERTEX
  8
0
 10
2232.97844484
 20
2685.65872481
  0
VERTEX
  8
0
 10
2232.82447814
 20
2685.54359063
  0
VERTEX
  8
0
 10
2232.65957788
 20
2685.44341124
  0
VERTEX
  8
0
 10
2232.48474937
 20
2685.35919196
  0
VERTEX
  8
0
 10
2232.30099794
 20
2685.29193808
  0
VERTEX
  8
0
 10
2232.10932888
 20
2685.24265493
  0
VERTEX
  8
0
 10
2231.91074750
 20
2685.21234782
  0
VERTEX
  8
0
 10
2231.70625912
 20
2685.20202204
  0
VERTEX
  8
0
 10
2231.50177074
 20
2685.21234782
  0
VERTEX
  8
0
 10
2231.30318936
 20
2685.24265493
  0
VERTEX
  8
0
 10
2231.11152030
 20
2685.29193808
  0
VERTEX
  8
0
 10
2230.92776886
 20
2685.35919196
  0
VERTEX
  8
0
 10
2230.75294036
 20
2685.44341124
  0
VERTEX
  8
0
 10
2230.58804010
 20
2685.54359063
  0
VERTEX
  8
0
 10
2230.43407339
 20
2685.65872481
  0
VERTEX
  8
0
 10
2230.29204555
 20
2685.78780848
  0
VERTEX
  8
0
 10
2230.16296189
 20
2685.92983632
  0
VERTEX
  8
0
 10
2230.04782771
 20
2686.08380302
  0
VERTEX
  8
0
 10
2229.94764832
 20
2686.24870328
  0
VERTEX
  8
0
 10
2229.86342903
 20
2686.42353178
  0
VERTEX
  8
0
 10
2229.79617516
 20
2686.60728322
  0
VERTEX
  8
0
 10
2229.74689201
 20
2686.79895228
  0
VERTEX
  8
0
 10
2229.71658489
 20
2686.99753366
  0
VERTEX
  8
0
 10
2229.70625912
 20
2687.20202204
  0
SEQEND
  0
POLYLINE
  8
Default Layer
 66
   1
 39
0.000000
 70
    1
  0
VERTEX
  8
0
 10
2102.77259575
 20
3082.26386504
  0
VERTEX
  8
0
 10
2225.72322181
 20
3082.26386504
  0
VERTEX
  8
0
 10
2225.72322181
 20
2924.95082773
  0
VERTEX
  8
0
 10
2237.92322181
 20
2924.95082773
  0
VERTEX
  8
0
 10
2237.92322181
 20
3082.26386504
  0
VERTEX
  8
0
 10
2524.41334823
 20
3082.26386504
  0
VERTEX
  8
0
 10
2524.41179236
 20
2980.25631200
  0
VERTEX
  8
0
 10
2536.70825629
 20
2981.31620597
  0
VERTEX
  8
0
 10
2536.70825629
 20
2878.25296007
  0
VERTEX
  8
0
 10
2524.41179236
 20
2879.26073562
  0
VERTEX
  8
0
 10
2524.41179236
 20
2777.26085372
  0
VERTEX
  8
0
 10
1329.00316435
 20
2777.26386504
  0
VERTEX
  8
0
 10
1329.00316435
 20
2879.33566388
  0
VERTEX
  8
0
 10
1316.70825629
 20
2878.26545627
  0
VERTEX
  8
0
 10
1316.70825629
 20
2981.26227381
  0
VERTEX
  8
0
 10
1329.01313606
 20
2980.28566136
  0
VERTEX
  8
0
 10
1329.01351796
 20
3082.26386504
  0
VERTEX
  8
0
 10
1615.68277804
 20
3082.26386504
  0
VERTEX
  8
0
 10
1615.68277804
 20
2924.95082773
  0
VERTEX
  8
0
 10
1627.88277804
 20
2924.95082773
  0
VERTEX
  8
0
 10
1627.88277804
 20
3082.26386504
  0
VERTEX
  8
0
 10
1751.56025487
 20
3082.26386504
  0
VERTEX
  8
0
 10
1751.56025487
 20
3089.23029220
  0
VERTEX
  8
0
 10
1773.56025487
 20
3089.23029220
  0
VERTEX
  8
0
 10
1773.56025487
 20
3082.26386504
  0
VERTEX
  8
0
 10
1920.72322181
 20
3082.26386504
  0
VERTEX
  8
0
 10
1920.72322181
 20
2924.95082773
  0
VERTEX
  8
0
 10
1932.92322181
 20
2924.95082773
  0
VERTEX
  8
0
 10
1932.92322181
 20
3082.26386504
  0
VERTEX
  8
0
 10
2080.77259575
 20
3082.26386504
  0
VERTEX
  8
0
 10
2080.77259575
 20
3089.23029220
  0
VERTEX
  8
0
 10
2102.77259575
 20
3089.23029220
  0
VERTEX
  8
0
 10
2102.77259575
 20
3082.26386504
  0
SEQEND
  0
POLYLINE
  8
Default Layer
 66
   1
 39
0.000000
 70
    1
  0
VERTEX
  8
0
 10
941.38418670
 20
3913.00907885
  0
VERTEX
  8
0
 10
941.38418670
 20
3925.30907885
  0
VERTEX
  8
0
 10
1048.38418670
 20
3925.30907885
  0
VERTEX
  8
0
 10
1048.38418670
 20
3913.00907885
  0
VERTEX
  8
0
 10
941.38418670
 20
3913.00907885
  0
SEQEND
  0
POLYLINE
  8
Default Layer
 66
   1
 39
0.000000
 70
    1
  0
VERTEX
  8
0
 10
941.38418670
 20
4195.71107673
  0
VERTEX
  8
0
 10
941.38418670
 20
4208.01107673
  0
VERTEX
  8
0
 10
1048.38418670
 20
4208.01107673
  0
VERTEX
  8
0
 10
1048.38418670
 20
4195.71107673
  0
VERTEX
  8
0
 10
941.38418670
 20
4195.71107673
  0
SEQEND
  0
POLYLINE
  8
Default Layer
 66
   1
 39
0.000000
 70
    1
  0
VERTEX
  8
0
 10
941.38418670
 20
4478.73662482
  0
VERTEX
  8
0
 10
941.38418670
 20
4491.03662482
  0
VERTEX
  8
0
 10
1048.38418670
 20
4491.03662482
  0
VERTEX
  8
0
 10
1048.38418670
 20
4478.73662482
  0
VERTEX
  8
0
 10
941.38418670
 20
4478.73662482
  0
SEQEND
  0
POLYLINE
  8
Default Layer
 66
   1
 39
0.000000
 70
    1
  0
VERTEX
  8
0
 10
941.38418670
 20
4762.73282355
  0
VERTEX
  8
0
 10
941.38418670
 20
4775.03282355
  0
VERTEX
  8
0
 10
1048.38418670
 20
4775.03282355
  0
VERTEX
  8
0
 10
1048.38418670
 20
4762.73282355
  0
VERTEX
  8
0
 10
941.38418670
 20
4762.73282355
  0
SEQEND
  0
POLYLINE
  8
Default Layer
 66
   1
 39
0.000000
 70
    1
  0
VERTEX
  8
0
 10
890.66191231
 20
4768.64307461
  0
VERTEX
  8
0
 10
890.67223808
 20
4768.84756299
  0
VERTEX
  8
0
 10
890.70254520
 20
4769.04614437
  0
VERTEX
  8
0
 10
890.75182835
 20
4769.23781343
  0
VERTEX
  8
0
 10
890.81908222
 20
4769.42156487
  0
VERTEX
  8
0
 10
890.90330151
 20
4769.59639337
  0
VERTEX
  8
0
 10
891.00348089
 20
4769.76129363
  0
VERTEX
  8
0
 10
891.11861508
 20
4769.91526033
  0
VERTEX
  8
0
 10
891.24769874
 20
4770.05728817
  0
VERTEX
  8
0
 10
891.38972658
 20
4770.18637184
  0
VERTEX
  8
0
 10
891.54369329
 20
4770.30150602
  0
VERTEX
  8
0
 10
891.70859355
 20
4770.40168541
  0
VERTEX
  8
0
 10
891.88342205
 20
4770.48590470
  0
VERTEX
  8
0
 10
892.06717348
 20
4770.55315857
  0
VERTEX
  8
0
 10
892.25884255
 20
4770.60244172
  0
VERTEX
  8
0
 10
892.45742392
 20
4770.63274884
  0
VERTEX
  8
0
 10
892.66191231
 20
4770.64307461
  0
VERTEX
  8
0
 10
892.86640069
 20
4770.63274884
  0
VERTEX
  8
0
 10
893.06498206
 20
4770.60244172
  0
VERTEX
  8
0
 10
893.25665113
 20
4770.55315857
  0
VERTEX
  8
0
 10
893.44040256
 20
4770.48590470
  0
VERTEX
  8
0
 10
893.61523107
 20
4770.40168541
  0
VERTEX
  8
0
 10
893.78013132
 20
4770.30150602
  0
VERTEX
  8
0
 10
893.93409803
 20
4770.18637184
  0
VERTEX
  8
0
 10
894.07612587
 20
4770.05728817
  0
VERTEX
  8
0
 10
894.20520953
 20
4769.91526033
  0
VERTEX
  8
0
 10
894.32034372
 20
4769.76129363
  0
VERTEX
  8
0
 10
894.42052311
 20
4769.59639337
  0
VERTEX
  8
0
 10
894.50474239
 20
4769.42156487
  0
VERTEX
  8
0
 10
894.57199626
 20
4769.23781343
  0
VERTEX
  8
0
 10
894.62127941
 20
4769.04614437
  0
VERTEX
  8
0
 10
894.65158653
 20
4768.84756299
  0
VERTEX
  8
0
 10
894.66191231
 20
4768.64307461
  0
VERTEX
  8
0
 10
894.65158653
 20
4768.43858623
  0
VERTEX
  8
0
 10
894.62127941
 20
4768.24000485
  0
VERTEX
  8
0
 10
894.57199626
 20
4768.04833579
  0
VERTEX
  8
0
 10
894.50474239
 20
4767.86458435
  0
VERTEX
  8
0
 10
894.42052311
 20
4767.68975585
  0
VERTEX
  8
0
 10
894.32034372
 20
4767.52485559
  0
VERTEX
  8
0
 10
894.20520953
 20
4767.37088889
  0
VERTEX
  8
0
 10
894.07612587
 20
4767.22886105
  0
VERTEX
  8
0
 10
893.93409803
 20
4767.09977738
  0
VERTEX
  8
0
 10
893.78013132
 20
4766.98464320
  0
VERTEX
  8
0
 10
893.61523107
 20
4766.88446381
  0
VERTEX
  8
0
 10
893.44040256
 20
4766.80024453
  0
VERTEX
  8
0
 10
893.25665113
 20
4766.73299065
  0
VERTEX
  8
0
 10
893.06498206
 20
4766.68370750
  0
VERTEX
  8
0
 10
892.86640069
 20
4766.65340039
  0
VERTEX
  8
0
 10
892.66191231
 20
4766.64307461
  0
VERTEX
  8
0
 10
892.45742392
 20
4766.65340039
  0
VERTEX
  8
0
 10
892.25884255
 20
4766.68370750
  0
VERTEX
  8
0
 10
892.06717348
 20
4766.73299065
  0
VERTEX
  8
0
 10
891.88342205
 20
4766.80024453
  0
VERTEX
  8
0
 10
891.70859355
 20
4766.88446381
  0
VERTEX
  8
0
 10
891.54369329
 20
4766.98464320
  0
VERTEX
  8
0
 10
891.38972658
 20
4767.09977738
  0
VERTEX
  8
0
 10
891.24769874
 20
4767.22886105
  0
VERTEX
  8
0
 10
891.11861508
 20
4767.37088889
  0
VERTEX
  8
0
 10
891.00348089
 20
4767.52485559
  0
VERTEX
  8
0
 10
890.90330151
 20
4767.68975585
  0
VERTEX
  8
0
 10
890.81908222
 20
4767.86458435
  0
VERTEX
  8
0
 10
890.75182835
 20
4768.04833579
  0
VERTEX
  8
0
 10
890.70254520
 20
4768.24000485
  0
VERTEX
  8
0
 10
890.67223808
 20
4768.43858623
  0
VERTEX
  8
0
 10
890.66191231
 20
4768.64307461
  0
SEQEND
  0
POLYLINE
  8
Default Layer
 66
   1
 39
0.000000
 70
    1
  0
VERTEX
  8
0
 10
1095.54791231
 20
4768.64307461
  0
VERTEX
  8
0
 10
1095.55823808
 20
4768.84756299
  0
VERTEX
  8
0
 10
1095.58854520
 20
4769.04614437
  0
VERTEX
  8
0
 10
1095.63782835
 20
4769.23781343
  0
VERTEX
  8
0
 10
1095.70508222
 20
4769.42156487
  0
VERTEX
  8
0
 10
1095.78930151
 20
4769.59639337
  0
VERTEX
  8
0
 10
1095.88948089
 20
4769.76129363
  0
VERTEX
  8
0
 10
1096.00461508
 20
4769.91526033
  0
VERTEX
  8
0
 10
1096.13369874
 20
4770.05728817
  0
VERTEX
  8
0
 10
1096.27572658
 20
4770.18637184
  0
VERTEX
  8
0
 10
1096.42969329
 20
4770.30150602
  0
VERTEX
  8
0
 10
1096.59459355
 20
4770.40168541
  0
VERTEX
  8
0
 10
1096.76942205
 20
4770.48590470
  0
VERTEX
  8
0
 10
1096.95317348
 20
4770.55315857
  0
VERTEX
  8
0
 10
1097.14484255
 20
4770.60244172
  0
VERTEX
  8
0
 10
1097.34342392
 20
4770.63274884
  0
VERTEX
  8
0
 10
1097.54791231
 20
4770.64307461
  0
VERTEX
  8
0
 10
1097.75240069
 20
4770.63274884
  0
VERTEX
  8
0
 10
1097.95098206
 20
4770.60244172
  0
VERTEX
  8
0
 10
1098.14265113
 20
4770.55315857
  0
VERTEX
  8
0
 10
1098.32640256
 20
4770.48590470
  0
VERTEX
  8
0
 10
1098.50123107
 20
4770.40168541
  0
VERTEX
  8
0
 10
1098.66613132
 20
4770.30150602
  0
VERTEX
  8
0
 10
1098.82009803
 20
4770.18637184
  0
VERTEX
  8
0
 10
1098.96212587
 20
4770.05728817
  0
VERTEX
  8
0
 10
1099.09120953
 20
4769.91526033
  0
VERTEX
  8
0
 10
1099.20634372
 20
4769.76129363
  0
VERTEX
  8
0
 10
1099.30652311
 20
4769.59639337
  0
VERTEX
  8
0
 10
1099.39074239
 20
4769.42156487
  0
VERTEX
  8
0
 10
1099.45799626
 20
4769.23781343
  0
VERTEX
  8
0
 10
1099.50727941
 20
4769.04614437
  0
VERTEX
  8
0
 10
1099.53758653
 20
4768.84756299
  0
VERTEX
  8
0
 10
1099.54791231
 20
4768.64307461
  0
VERTEX
  8
0
 10
1099.53758653
 20
4768.43858623
  0
VERTEX
  8
0
 10
1099.50727941
 20
4768.24000485
  0
VERTEX
  8
0
 10
1099.45799626
 20
4768.04833579
  0
VERTEX
  8
0
 10
1099.39074239
 20
4767.86458435
  0
VERTEX
  8
0
 10
1099.30652311
 20
4767.68975585
  0
VERTEX
  8
0
 10
1099.20634372
 20
4767.52485559
  0
VERTEX
  8
0
 10
1099.09120953
 20
4767.37088889
  0
VERTEX
  8
0
 10
1098.96212587
 20
4767.22886105
  0
VERTEX
  8
0
 10
1098.82009803
 20
4767.09977738
  0
VERTEX
  8
0
 10
1098.66613132
 20
4766.98464320
  0
VERTEX
  8
0
 10
1098.50123107
 20
4766.88446381
  0
VERTEX
  8
0
 10
1098.32640256
 20
4766.80024453
  0
VERTEX
  8
0
 10
1098.14265113
 20
4766.73299065
  0
VERTEX
  8
0
 10
1097.95098206
 20
4766.68370750
  0
VERTEX
  8
0
 10
1097.75240069
 20
4766.65340039
  0
VERTEX
  8
0
 10
1097.54791231
 20
4766.64307461
  0
VERTEX
  8
0
 10
1097.34342392
 20
4766.65340039
  0
VERTEX
  8
0
 10
1097.14484255
 20
4766.68370750
  0
VERTEX
  8
0
 10
1096.95317348
 20
4766.73299065
  0
VERTEX
  8
0
 10
1096.76942205
 20
4766.80024453
  0
VERTEX
  8
0
 10
1096.59459355
 20
4766.88446381
  0
VERTEX
  8
0
 10
1096.42969329
 20
4766.98464320
  0
VERTEX
  8
0
 10
1096.27572658
 20
4767.09977738
  0
VERTEX
  8
0
 10
1096.13369874
 20
4767.22886105
  0
VERTEX
  8
0
 10
1096.00461508
 20
4767.37088889
  0
VERTEX
  8
0
 10
1095.88948089
 20
4767.52485559
  0
VERTEX
  8
0
 10
1095.78930151
 20
4767.68975585
  0
VERTEX
  8
0
 10
1095.70508222
 20
4767.86458435
  0
VERTEX
  8
0
 10
1095.63782835
 20
4768.04833579
  0
VERTEX
  8
0
 10
1095.58854520
 20
4768.24000485
  0
VERTEX
  8
0
 10
1095.55823808
 20
4768.43858623
  0
VERTEX
  8
0
 10
1095.54791231
 20
4768.64307461
  0
SEQEND
  0
POLYLINE
  8
Default Layer
 66
   1
 39
0.000000
 70
    1
  0
VERTEX
  8
0
 10
890.66191231
 20
4484.86107461
  0
VERTEX
  8
0
 10
890.67223808
 20
4485.06556299
  0
VERTEX
  8
0
 10
890.70254520
 20
4485.26414437
  0
VERTEX
  8
0
 10
890.75182835
 20
4485.45581343
  0
VERTEX
  8
0
 10
890.81908222
 20
4485.63956487
  0
VERTEX
  8
0
 10
890.90330151
 20
4485.81439337
  0
VERTEX
  8
0
 10
891.00348089
 20
4485.97929363
  0
VERTEX
  8
0
 10
891.11861508
 20
4486.13326033
  0
VERTEX
  8
0
 10
891.24769874
 20
4486.27528817
  0
VERTEX
  8
0
 10
891.38972658
 20
4486.40437184
  0
VERTEX
  8
0
 10
891.54369329
 20
4486.51950602
  0
VERTEX
  8
0
 10
891.70859355
 20
4486.61968541
  0
VERTEX
  8
0
 10
891.88342205
 20
4486.70390470
  0
VERTEX
  8
0
 10
892.06717348
 20
4486.77115857
  0
VERTEX
  8
0
 10
892.25884255
 20
4486.82044172
  0
VERTEX
  8
0
 10
892.45742392
 20
4486.85074884
  0
VERTEX
  8
0
 10
892.66191231
 20
4486.86107461
  0
VERTEX
  8
0
 10
892.86640069
 20
4486.85074884
  0
VERTEX
  8
0
 10
893.06498206
 20
4486.82044172
  0
VERTEX
  8
0
 10
893.25665113
 20
4486.77115857
  0
VERTEX
  8
0
 10
893.44040256
 20
4486.70390470
  0
VERTEX
  8
0
 10
893.61523107
 20
4486.61968541
  0
VERTEX
  8
0
 10
893.78013132
 20
4486.51950602
  0
VERTEX
  8
0
 10
893.93409803
 20
4486.40437184
  0
VERTEX
  8
0
 10
894.07612587
 20
4486.27528817
  0
VERTEX
  8
0
 10
894.20520953
 20
4486.13326033
  0
VERTEX
  8
0
 10
894.32034372
 20
4485.97929363
  0
VERTEX
  8
0
 10
894.42052311
 20
4485.81439337
  0
VERTEX
  8
0
 10
894.50474239
 20
4485.63956487
  0
VERTEX
  8
0
 10
894.57199626
 20
4485.45581343
  0
VERTEX
  8
0
 10
894.62127941
 20
4485.26414437
  0
VERTEX
  8
0
 10
894.65158653
 20
4485.06556299
  0
VERTEX
  8
0
 10
894.66191231
 20
4484.86107461
  0
VERTEX
  8
0
 10
894.65158653
 20
4484.65658623
  0
VERTEX
  8
0
 10
894.62127941
 20
4484.45800485
  0
VERTEX
  8
0
 10
894.57199626
 20
4484.26633579
  0
VERTEX
  8
0
 10
894.50474239
 20
4484.08258435
  0
VERTEX
  8
0
 10
894.42052311
 20
4483.90775585
  0
VERTEX
  8
0
 10
894.32034372
 20
4483.74285559
  0
VERTEX
  8
0
 10
894.20520953
 20
4483.58888889
  0
VERTEX
  8
0
 10
894.07612587
 20
4483.44686105
  0
VERTEX
  8
0
 10
893.93409803
 20
4483.31777738
  0
VERTEX
  8
0
 10
893.78013132
 20
4483.20264320
  0
VERTEX
  8
0
 10
893.61523107
 20
4483.10246381
  0
VERTEX
  8
0
 10
893.44040256
 20
4483.01824453
  0
VERTEX
  8
0
 10
893.25665113
 20
4482.95099065
  0
VERTEX
  8
0
 10
893.06498206
 20
4482.90170750
  0
VERTEX
  8
0
 10
892.86640069
 20
4482.87140039
  0
VERTEX
  8
0
 10
892.66191231
 20
4482.86107461
  0
VERTEX
  8
0
 10
892.45742392
 20
4482.87140039
  0
VERTEX
  8
0
 10
892.25884255
 20
4482.90170750
  0
VERTEX
  8
0
 10
892.06717348
 20
4482.95099065
  0
VERTEX
  8
0
 10
891.88342205
 20
4483.01824453
  0
VERTEX
  8
0
 10
891.70859355
 20
4483.10246381
  0
VERTEX
  8
0
 10
891.54369329
 20
4483.20264320
  0
VERTEX
  8
0
 10
891.38972658
 20
4483.31777738
  0
VERTEX
  8
0
 10
891.24769874
 20
4483.44686105
  0
VERTEX
  8
0
 10
891.11861508
 20
4483.58888889
  0
VERTEX
  8
0
 10
891.00348089
 20
4483.74285559
  0
VERTEX
  8
0
 10
890.90330151
 20
4483.90775585
  0
VERTEX
  8
0
 10
890.81908222
 20
4484.08258435
  0
VERTEX
  8
0
 10
890.75182835
 20
4484.26633579
  0
VERTEX
  8
0
 10
890.70254520
 20
4484.45800485
  0
VERTEX
  8
0
 10
890.67223808
 20
4484.65658623
  0
VERTEX
  8
0
 10
890.66191231
 20
4484.86107461
  0
SEQEND
  0
POLYLINE
  8
Default Layer
 66
   1
 39
0.000000
 70
    1
  0
VERTEX
  8
0
 10
1095.54791231
 20
4484.86107461
  0
VERTEX
  8
0
 10
1095.55823808
 20
4485.06556299
  0
VERTEX
  8
0
 10
1095.58854520
 20
4485.26414437
  0
VERTEX
  8
0
 10
1095.63782835
 20
4485.45581343
  0
VERTEX
  8
0
 10
1095.70508222
 20
4485.63956487
  0
VERTEX
  8
0
 10
1095.78930151
 20
4485.81439337
  0
VERTEX
  8
0
 10
1095.88948089
 20
4485.97929363
  0
VERTEX
  8
0
 10
1096.00461508
 20
4486.13326033
  0
VERTEX
  8
0
 10
1096.13369874
 20
4486.27528817
  0
VERTEX
  8
0
 10
1096.27572658
 20
4486.40437184
  0
VERTEX
  8
0
 10
1096.42969329
 20
4486.51950602
  0
VERTEX
  8
0
 10
1096.59459355
 20
4486.61968541
  0
VERTEX
  8
0
 10
1096.76942205
 20
4486.70390470
  0
VERTEX
  8
0
 10
1096.95317348
 20
4486.77115857
  0
VERTEX
  8
0
 10
1097.14484255
 20
4486.82044172
  0
VERTEX
  8
0
 10
1097.34342392
 20
4486.85074884
  0
VERTEX
  8
0
 10
1097.54791231
 20
4486.86107461
  0
VERTEX
  8
0
 10
1097.75240069
 20
4486.85074884
  0
VERTEX
  8
0
 10
1097.95098206
 20
4486.82044172
  0
VERTEX
  8
0
 10
1098.14265113
 20
4486.77115857
  0
VERTEX
  8
0
 10
1098.32640256
 20
4486.70390470
  0
VERTEX
  8
0
 10
1098.50123107
 20
4486.61968541
  0
VERTEX
  8
0
 10
1098.66613132
 20
4486.51950602
  0
VERTEX
  8
0
 10
1098.82009803
 20
4486.40437184
  0
VERTEX
  8
0
 10
1098.96212587
 20
4486.27528817
  0
VERTEX
  8
0
 10
1099.09120953
 20
4486.13326033
  0
VERTEX
  8
0
 10
1099.20634372
 20
4485.97929363
  0
VERTEX
  8
0
 10
1099.30652311
 20
4485.81439337
  0
VERTEX
  8
0
 10
1099.39074239
 20
4485.63956487
  0
VERTEX
  8
0
 10
1099.45799626
 20
4485.45581343
  0
VERTEX
  8
0
 10
1099.50727941
 20
4485.26414437
  0
VERTEX
  8
0
 10
1099.53758653
 20
4485.06556299
  0
VERTEX
  8
0
 10
1099.54791231
 20
4484.86107461
  0
VERTEX
  8
0
 10
1099.53758653
 20
4484.65658623
  0
VERTEX
  8
0
 10
1099.50727941
 20
4484.45800485
  0
VERTEX
  8
0
 10
1099.45799626
 20
4484.26633579
  0
VERTEX
  8
0
 10
1099.39074239
 20
4484.08258435
  0
VERTEX
  8
0
 10
1099.30652311
 20
4483.90775585
  0
VERTEX
  8
0
 10
1099.20634372
 20
4483.74285559
  0
VERTEX
  8
0
 10
1099.09120953
 20
4483.58888889
  0
VERTEX
  8
0
 10
1098.96212587
 20
4483.44686105
  0
VERTEX
  8
0
 10
1098.82009803
 20
4483.31777738
  0
VERTEX
  8
0
 10
1098.66613132
 20
4483.20264320
  0
VERTEX
  8
0
 10
1098.50123107
 20
4483.10246381
  0
VERTEX
  8
0
 10
1098.32640256
 20
4483.01824453
  0
VERTEX
  8
0
 10
1098.14265113
 20
4482.95099065
  0
VERTEX
  8
0
 10
1097.95098206
 20
4482.90170750
  0
VERTEX
  8
0
 10
1097.75240069
 20
4482.87140039
  0
VERTEX
  8
0
 10
1097.54791231
 20
4482.86107461
  0
VERTEX
  8
0
 10
1097.34342392
 20
4482.87140039
  0
VERTEX
  8
0
 10
1097.14484255
 20
4482.90170750
  0
VERTEX
  8
0
 10
1096.95317348
 20
4482.95099065
  0
VERTEX
  8
0
 10
1096.76942205
 20
4483.01824453
  0
VERTEX
  8
0
 10
1096.59459355
 20
4483.10246381
  0
VERTEX
  8
0
 10
1096.42969329
 20
4483.20264320
  0
VERTEX
  8
0
 10
1096.27572658
 20
4483.31777738
  0
VERTEX
  8
0
 10
1096.13369874
 20
4483.44686105
  0
VERTEX
  8
0
 10
1096.00461508
 20
4483.58888889
  0
VERTEX
  8
0
 10
1095.88948089
 20
4483.74285559
  0
VERTEX
  8
0
 10
1095.78930151
 20
4483.90775585
  0
VERTEX
  8
0
 10
1095.70508222
 20
4484.08258435
  0
VERTEX
  8
0
 10
1095.63782835
 20
4484.26633579
  0
VERTEX
  8
0
 10
1095.58854520
 20
4484.45800485
  0
VERTEX
  8
0
 10
1095.55823808
 20
4484.65658623
  0
VERTEX
  8
0
 10
1095.54791231
 20
4484.86107461
  0
SEQEND
  0
POLYLINE
  8
Default Layer
 66
   1
 39
0.000000
 70
    1
  0
VERTEX
  8
0
 10
1095.54791231
 20
4202.17507461
  0
VERTEX
  8
0
 10
1095.55823808
 20
4202.37956299
  0
VERTEX
  8
0
 10
1095.58854520
 20
4202.57814437
  0
VERTEX
  8
0
 10
1095.63782835
 20
4202.76981343
  0
VERTEX
  8
0
 10
1095.70508222
 20
4202.95356487
  0
VERTEX
  8
0
 10
1095.78930151
 20
4203.12839337
  0
VERTEX
  8
0
 10
1095.88948089
 20
4203.29329363
  0
VERTEX
  8
0
 10
1096.00461508
 20
4203.44726033
  0
VERTEX
  8
0
 10
1096.13369874
 20
4203.58928817
  0
VERTEX
  8
0
 10
1096.27572658
 20
4203.71837184
  0
VERTEX
  8
0
 10
1096.42969329
 20
4203.83350602
  0
VERTEX
  8
0
 10
1096.59459355
 20
4203.93368541
  0
VERTEX
  8
0
 10
1096.76942205
 20
4204.01790470
  0
VERTEX
  8
0
 10
1096.95317348
 20
4204.08515857
  0
VERTEX
  8
0
 10
1097.14484255
 20
4204.13444172
  0
VERTEX
  8
0
 10
1097.34342392
 20
4204.16474884
  0
VERTEX
  8
0
 10
1097.54791231
 20
4204.17507461
  0
VERTEX
  8
0
 10
1097.75240069
 20
4204.16474884
  0
VERTEX
  8
0
 10
1097.95098206
 20
4204.13444172
  0
VERTEX
  8
0
 10
1098.14265113
 20
4204.08515857
  0
VERTEX
  8
0
 10
1098.32640256
 20
4204.01790470
  0
VERTEX
  8
0
 10
1098.50123107
 20
4203.93368541
  0
VERTEX
  8
0
 10
1098.66613132
 20
4203.83350602
  0
VERTEX
  8
0
 10
1098.82009803
 20
4203.71837184
  0
VERTEX
  8
0
 10
1098.96212587
 20
4203.58928817
  0
VERTEX
  8
0
 10
1099.09120953
 20
4203.44726033
  0
VERTEX
  8
0
 10
1099.20634372
 20
4203.29329363
  0
VERTEX
  8
0
 10
1099.30652311
 20
4203.12839337
  0
VERTEX
  8
0
 10
1099.39074239
 20
4202.95356487
  0
VERTEX
  8
0
 10
1099.45799626
 20
4202.76981343
  0
VERTEX
  8
0
 10
1099.50727941
 20
4202.57814437
  0
VERTEX
  8
0
 10
1099.53758653
 20
4202.37956299
  0
VERTEX
  8
0
 10
1099.54791231
 20
4202.17507461
  0
VERTEX
  8
0
 10
1099.53758653
 20
4201.97058623
  0
VERTEX
  8
0
 10
1099.50727941
 20
4201.77200485
  0
VERTEX
  8
0
 10
1099.45799626
 20
4201.58033579
  0
VERTEX
  8
0
 10
1099.39074239
 20
4201.39658435
  0
VERTEX
  8
0
 10
1099.30652311
 20
4201.22175585
  0
VERTEX
  8
0
 10
1099.20634372
 20
4201.05685559
  0
VERTEX
  8
0
 10
1099.09120953
 20
4200.90288889
  0
VERTEX
  8
0
 10
1098.96212587
 20
4200.76086105
  0
VERTEX
  8
0
 10
1098.82009803
 20
4200.63177738
  0
VERTEX
  8
0
 10
1098.66613132
 20
4200.51664320
  0
VERTEX
  8
0
 10
1098.50123107
 20
4200.41646381
  0
VERTEX
  8
0
 10
1098.32640256
 20
4200.33224453
  0
VERTEX
  8
0
 10
1098.14265113
 20
4200.26499065
  0
VERTEX
  8
0
 10
1097.95098206
 20
4200.21570750
  0
VERTEX
  8
0
 10
1097.75240069
 20
4200.18540039
  0
VERTEX
  8
0
 10
1097.54791231
 20
4200.17507461
  0
VERTEX
  8
0
 10
1097.34342392
 20
4200.18540039
  0
VERTEX
  8
0
 10
1097.14484255
 20
4200.21570750
  0
VERTEX
  8
0
 10
1096.95317348
 20
4200.26499065
  0
VERTEX
  8
0
 10
1096.76942205
 20
4200.33224453
  0
VERTEX
  8
0
 10
1096.59459355
 20
4200.41646381
  0
VERTEX
  8
0
 10
1096.42969329
 20
4200.51664320
  0
VERTEX
  8
0
 10
1096.27572658
 20
4200.63177738
  0
VERTEX
  8
0
 10
1096.13369874
 20
4200.76086105
  0
VERTEX
  8
0
 10
1096.00461508
 20
4200.90288889
  0
VERTEX
  8
0
 10
1095.88948089
 20
4201.05685559
  0
VERTEX
  8
0
 10
1095.78930151
 20
4201.22175585
  0
VERTEX
  8
0
 10
1095.70508222
 20
4201.39658435
  0
VERTEX
  8
0
 10
1095.63782835
 20
4201.58033579
  0
VERTEX
  8
0
 10
1095.58854520
 20
4201.77200485
  0
VERTEX
  8
0
 10
1095.55823808
 20
4201.97058623
  0
VERTEX
  8
0
 10
1095.54791231
 20
4202.17507461
  0
SEQEND
  0
POLYLINE
  8
Default Layer
 66
   1
 39
0.000000
 70
    1
  0
VERTEX
  8
0
 10
890.66191231
 20
4202.17507461
  0
VERTEX
  8
0
 10
890.67223808
 20
4202.37956299
  0
VERTEX
  8
0
 10
890.70254520
 20
4202.57814437
  0
VERTEX
  8
0
 10
890.75182835
 20
4202.76981343
  0
VERTEX
  8
0
 10
890.81908222
 20
4202.95356487
  0
VERTEX
  8
0
 10
890.90330151
 20
4203.12839337
  0
VERTEX
  8
0
 10
891.00348089
 20
4203.29329363
  0
VERTEX
  8
0
 10
891.11861508
 20
4203.44726033
  0
VERTEX
  8
0
 10
891.24769874
 20
4203.58928817
  0
VERTEX
  8
0
 10
891.38972658
 20
4203.71837184
  0
VERTEX
  8
0
 10
891.54369329
 20
4203.83350602
  0
VERTEX
  8
0
 10
891.70859355
 20
4203.93368541
  0
VERTEX
  8
0
 10
891.88342205
 20
4204.01790470
  0
VERTEX
  8
0
 10
892.06717348
 20
4204.08515857
  0
VERTEX
  8
0
 10
892.25884255
 20
4204.13444172
  0
VERTEX
  8
0
 10
892.45742392
 20
4204.16474884
  0
VERTEX
  8
0
 10
892.66191231
 20
4204.17507461
  0
VERTEX
  8
0
 10
892.86640069
 20
4204.16474884
  0
VERTEX
  8
0
 10
893.06498206
 20
4204.13444172
  0
VERTEX
  8
0
 10
893.25665113
 20
4204.08515857
  0
VERTEX
  8
0
 10
893.44040256
 20
4204.01790470
  0
VERTEX
  8
0
 10
893.61523107
 20
4203.93368541
  0
VERTEX
  8
0
 10
893.78013132
 20
4203.83350602
  0
VERTEX
  8
0
 10
893.93409803
 20
4203.71837184
  0
VERTEX
  8
0
 10
894.07612587
 20
4203.58928817
  0
VERTEX
  8
0
 10
894.20520953
 20
4203.44726033
  0
VERTEX
  8
0
 10
894.32034372
 20
4203.29329363
  0
VERTEX
  8
0
 10
894.42052311
 20
4203.12839337
  0
VERTEX
  8
0
 10
894.50474239
 20
4202.95356487
  0
VERTEX
  8
0
 10
894.57199626
 20
4202.76981343
  0
VERTEX
  8
0
 10
894.62127941
 20
4202.57814437
  0
VERTEX
  8
0
 10
894.65158653
 20
4202.37956299
  0
VERTEX
  8
0
 10
894.66191231
 20
4202.17507461
  0
VERTEX
  8
0
 10
894.65158653
 20
4201.97058623
  0
VERTEX
  8
0
 10
894.62127941
 20
4201.77200485
  0
VERTEX
  8
0
 10
894.57199626
 20
4201.58033579
  0
VERTEX
  8
0
 10
894.50474239
 20
4201.39658435
  0
VERTEX
  8
0
 10
894.42052311
 20
4201.22175585
  0
VERTEX
  8
0
 10
894.32034372
 20
4201.05685559
  0
VERTEX
  8
0
 10
894.20520953
 20
4200.90288889
  0
VERTEX
  8
0
 10
894.07612587
 20
4200.76086105
  0
VERTEX
  8
0
 10
893.93409803
 20
4200.63177738
  0
VERTEX
  8
0
 10
893.78013132
 20
4200.51664320
  0
VERTEX
  8
0
 10
893.61523107
 20
4200.41646381
  0
VERTEX
  8
0
 10
893.44040256
 20
4200.33224453
  0
VERTEX
  8
0
 10
893.25665113
 20
4200.26499065
  0
VERTEX
  8
0
 10
893.06498206
 20
4200.21570750
  0
VERTEX
  8
0
 10
892.86640069
 20
4200.18540039
  0
VERTEX
  8
0
 10
892.66191231
 20
4200.17507461
  0
VERTEX
  8
0
 10
892.45742392
 20
4200.18540039
  0
VERTEX
  8
0
 10
892.25884255
 20
4200.21570750
  0
VERTEX
  8
0
 10
892.06717348
 20
4200.26499065
  0
VERTEX
  8
0
 10
891.88342205
 20
4200.33224453
  0
VERTEX
  8
0
 10
891.70859355
 20
4200.41646381
  0
VERTEX
  8
0
 10
891.54369329
 20
4200.51664320
  0
VERTEX
  8
0
 10
891.38972658
 20
4200.63177738
  0
VERTEX
  8
0
 10
891.24769874
 20
4200.76086105
  0
VERTEX
  8
0
 10
891.11861508
 20
4200.90288889
  0
VERTEX
  8
0
 10
891.00348089
 20
4201.05685559
  0
VERTEX
  8
0
 10
890.90330151
 20
4201.22175585
  0
VERTEX
  8
0
 10
890.81908222
 20
4201.39658435
  0
VERTEX
  8
0
 10
890.75182835
 20
4201.58033579
  0
VERTEX
  8
0
 10
890.70254520
 20
4201.77200485
  0
VERTEX
  8
0
 10
890.67223808
 20
4201.97058623
  0
VERTEX
  8
0
 10
890.66191231
 20
4202.17507461
  0
SEQEND
  0
POLYLINE
  8
Default Layer
 66
   1
 39
0.000000
 70
    1
  0
VERTEX
  8
0
 10
890.66191231
 20
3919.01507461
  0
VERTEX
  8
0
 10
890.67223808
 20
3919.21956299
  0
VERTEX
  8
0
 10
890.70254520
 20
3919.41814437
  0
VERTEX
  8
0
 10
890.75182835
 20
3919.60981343
  0
VERTEX
  8
0
 10
890.81908222
 20
3919.79356487
  0
VERTEX
  8
0
 10
890.90330151
 20
3919.96839337
  0
VERTEX
  8
0
 10
891.00348089
 20
3920.13329363
  0
VERTEX
  8
0
 10
891.11861508
 20
3920.28726033
  0
VERTEX
  8
0
 10
891.24769874
 20
3920.42928817
  0
VERTEX
  8
0
 10
891.38972658
 20
3920.55837184
  0
VERTEX
  8
0
 10
891.54369329
 20
3920.67350602
  0
VERTEX
  8
0
 10
891.70859355
 20
3920.77368541
  0
VERTEX
  8
0
 10
891.88342205
 20
3920.85790470
  0
VERTEX
  8
0
 10
892.06717348
 20
3920.92515857
  0
VERTEX
  8
0
 10
892.25884255
 20
3920.97444172
  0
VERTEX
  8
0
 10
892.45742392
 20
3921.00474884
  0
VERTEX
  8
0
 10
892.66191231
 20
3921.01507461
  0
VERTEX
  8
0
 10
892.86640069
 20
3921.00474884
  0
VERTEX
  8
0
 10
893.06498206
 20
3920.97444172
  0
VERTEX
  8
0
 10
893.25665113
 20
3920.92515857
  0
VERTEX
  8
0
 10
893.44040256
 20
3920.85790470
  0
VERTEX
  8
0
 10
893.61523107
 20
3920.77368541
  0
VERTEX
  8
0
 10
893.78013132
 20
3920.67350602
  0
VERTEX
  8
0
 10
893.93409803
 20
3920.55837184
  0
VERTEX
  8
0
 10
894.07612587
 20
3920.42928817
  0
VERTEX
  8
0
 10
894.20520953
 20
3920.28726033
  0
VERTEX
  8
0
 10
894.32034372
 20
3920.13329363
  0
VERTEX
  8
0
 10
894.42052311
 20
3919.96839337
  0
VERTEX
  8
0
 10
894.50474239
 20
3919.79356487
  0
VERTEX
  8
0
 10
894.57199626
 20
3919.60981343
  0
VERTEX
  8
0
 10
894.62127941
 20
3919.41814437
  0
VERTEX
  8
0
 10
894.65158653
 20
3919.21956299
  0
VERTEX
  8
0
 10
894.66191231
 20
3919.01507461
  0
VERTEX
  8
0
 10
894.65158653
 20
3918.81058623
  0
VERTEX
  8
0
 10
894.62127941
 20
3918.61200485
  0
VERTEX
  8
0
 10
894.57199626
 20
3918.42033579
  0
VERTEX
  8
0
 10
894.50474239
 20
3918.23658435
  0
VERTEX
  8
0
 10
894.42052311
 20
3918.06175585
  0
VERTEX
  8
0
 10
894.32034372
 20
3917.89685559
  0
VERTEX
  8
0
 10
894.20520953
 20
3917.74288889
  0
VERTEX
  8
0
 10
894.07612587
 20
3917.60086105
  0
VERTEX
  8
0
 10
893.93409803
 20
3917.47177738
  0
VERTEX
  8
0
 10
893.78013132
 20
3917.35664320
  0
VERTEX
  8
0
 10
893.61523107
 20
3917.25646381
  0
VERTEX
  8
0
 10
893.44040256
 20
3917.17224453
  0
VERTEX
  8
0
 10
893.25665113
 20
3917.10499065
  0
VERTEX
  8
0
 10
893.06498206
 20
3917.05570750
  0
VERTEX
  8
0
 10
892.86640069
 20
3917.02540039
  0
VERTEX
  8
0
 10
892.66191231
 20
3917.01507461
  0
VERTEX
  8
0
 10
892.45742392
 20
3917.02540039
  0
VERTEX
  8
0
 10
892.25884255
 20
3917.05570750
  0
VERTEX
  8
0
 10
892.06717348
 20
3917.10499065
  0
VERTEX
  8
0
 10
891.88342205
 20
3917.17224453
  0
VERTEX
  8
0
 10
891.70859355
 20
3917.25646381
  0
VERTEX
  8
0
 10
891.54369329
 20
3917.35664320
  0
VERTEX
  8
0
 10
891.38972658
 20
3917.47177738
  0
VERTEX
  8
0
 10
891.24769874
 20
3917.60086105
  0
VERTEX
  8
0
 10
891.11861508
 20
3917.74288889
  0
VERTEX
  8
0
 10
891.00348089
 20
3917.89685559
  0
VERTEX
  8
0
 10
890.90330151
 20
3918.06175585
  0
VERTEX
  8
0
 10
890.81908222
 20
3918.23658435
  0
VERTEX
  8
0
 10
890.75182835
 20
3918.42033579
  0
VERTEX
  8
0
 10
890.70254520
 20
3918.61200485
  0
VERTEX
  8
0
 10
890.67223808
 20
3918.81058623
  0
VERTEX
  8
0
 10
890.66191231
 20
3919.01507461
  0
SEQEND
  0
POLYLINE
  8
Default Layer
 66
   1
 39
0.000000
 70
    1
  0
VERTEX
  8
0
 10
1095.54791231
 20
3919.01507461
  0
VERTEX
  8
0
 10
1095.55823808
 20
3919.21956299
  0
VERTEX
  8
0
 10
1095.58854520
 20
3919.41814437
  0
VERTEX
  8
0
 10
1095.63782835
 20
3919.60981343
  0
VERTEX
  8
0
 10
1095.70508222
 20
3919.79356487
  0
VERTEX
  8
0
 10
1095.78930151
 20
3919.96839337
  0
VERTEX
  8
0
 10
1095.88948089
 20
3920.13329363
  0
VERTEX
  8
0
 10
1096.00461508
 20
3920.28726033
  0
VERTEX
  8
0
 10
1096.13369874
 20
3920.42928817
  0
VERTEX
  8
0
 10
1096.27572658
 20
3920.55837184
  0
VERTEX
  8
0
 10
1096.42969329
 20
3920.67350602
  0
VERTEX
  8
0
 10
1096.59459355
 20
3920.77368541
  0
VERTEX
  8
0
 10
1096.76942205
 20
3920.85790470
  0
VERTEX
  8
0
 10
1096.95317348
 20
3920.92515857
  0
VERTEX
  8
0
 10
1097.14484255
 20
3920.97444172
  0
VERTEX
  8
0
 10
1097.34342392
 20
3921.00474884
  0
VERTEX
  8
0
 10
1097.54791231
 20
3921.01507461
  0
VERTEX
  8
0
 10
1097.75240069
 20
3921.00474884
  0
VERTEX
  8
0
 10
1097.95098206
 20
3920.97444172
  0
VERTEX
  8
0
 10
1098.14265113
 20
3920.92515857
  0
VERTEX
  8
0
 10
1098.32640256
 20
3920.85790470
  0
VERTEX
  8
0
 10
1098.50123107
 20
3920.77368541
  0
VERTEX
  8
0
 10
1098.66613132
 20
3920.67350602
  0
VERTEX
  8
0
 10
1098.82009803
 20
3920.55837184
  0
VERTEX
  8
0
 10
1098.96212587
 20
3920.42928817
  0
VERTEX
  8
0
 10
1099.09120953
 20
3920.28726033
  0
VERTEX
  8
0
 10
1099.20634372
 20
3920.13329363
  0
VERTEX
  8
0
 10
1099.30652311
 20
3919.96839337
  0
VERTEX
  8
0
 10
1099.39074239
 20
3919.79356487
  0
VERTEX
  8
0
 10
1099.45799626
 20
3919.60981343
  0
VERTEX
  8
0
 10
1099.50727941
 20
3919.41814437
  0
VERTEX
  8
0
 10
1099.53758653
 20
3919.21956299
  0
VERTEX
  8
0
 10
1099.54791231
 20
3919.01507461
  0
VERTEX
  8
0
 10
1099.53758653
 20
3918.81058623
  0
VERTEX
  8
0
 10
1099.50727941
 20
3918.61200485
  0
VERTEX
  8
0
 10
1099.45799626
 20
3918.42033579
  0
VERTEX
  8
0
 10
1099.39074239
 20
3918.23658435
  0
VERTEX
  8
0
 10
1099.30652311
 20
3918.06175585
  0
VERTEX
  8
0
 10
1099.20634372
 20
3917.89685559
  0
VERTEX
  8
0
 10
1099.09120953
 20
3917.74288889
  0
VERTEX
  8
0
 10
1098.96212587
 20
3917.60086105
  0
VERTEX
  8
0
 10
1098.82009803
 20
3917.47177738
  0
VERTEX
  8
0
 10
1098.66613132
 20
3917.35664320
  0
VERTEX
  8
0
 10
1098.50123107
 20
3917.25646381
  0
VERTEX
  8
0
 10
1098.32640256
 20
3917.17224453
  0
VERTEX
  8
0
 10
1098.14265113
 20
3917.10499065
  0
VERTEX
  8
0
 10
1097.95098206
 20
3917.05570750
  0
VERTEX
  8
0
 10
1097.75240069
 20
3917.02540039
  0
VERTEX
  8
0
 10
1097.54791231
 20
3917.01507461
  0
VERTEX
  8
0
 10
1097.34342392
 20
3917.02540039
  0
VERTEX
  8
0
 10
1097.14484255
 20
3917.05570750
  0
VERTEX
  8
0
 10
1096.95317348
 20
3917.10499065
  0
VERTEX
  8
0
 10
1096.76942205
 20
3917.17224453
  0
VERTEX
  8
0
 10
1096.59459355
 20
3917.25646381
  0
VERTEX
  8
0
 10
1096.42969329
 20
3917.35664320
  0
VERTEX
  8
0
 10
1096.27572658
 20
3917.47177738
  0
VERTEX
  8
0
 10
1096.13369874
 20
3917.60086105
  0
VERTEX
  8
0
 10
1096.00461508
 20
3917.74288889
  0
VERTEX
  8
0
 10
1095.88948089
 20
3917.89685559
  0
VERTEX
  8
0
 10
1095.78930151
 20
3918.06175585
  0
VERTEX
  8
0
 10
1095.70508222
 20
3918.23658435
  0
VERTEX
  8
0
 10
1095.63782835
 20
3918.42033579
  0
VERTEX
  8
0
 10
1095.58854520
 20
3918.61200485
  0
VERTEX
  8
0
 10
1095.55823808
 20
3918.81058623
  0
VERTEX
  8
0
 10
1095.54791231
 20
3919.01507461
  0
SEQEND
  0
POLYLINE
  8
Default Layer
 66
   1
 39
0.000000
 70
    1
  0
VERTEX
  8
0
 10
1932.92322181
 20
3433.38573208
  0
VERTEX
  8
0
 10
1932.92322181
 20
3276.07269478
  0
VERTEX
  8
0
 10
1920.72322181
 20
3276.07269478
  0
VERTEX
  8
0
 10
1920.72322181
 20
3433.38573208
  0
VERTEX
  8
0
 10
1627.88277804
 20
3433.38573208
  0
VERTEX
  8
0
 10
1627.88277804
 20
3276.07269478
  0
VERTEX
  8
0
 10
1615.68277804
 20
3276.07269478
  0
VERTEX
  8
0
 10
1615.68277804
 20
3433.38573208
  0
VERTEX
  8
0
 10
1329.01351796
 20
3433.38573208
  0
VERTEX
  8
0
 10
1329.01313606
 20
3331.40752841
  0
VERTEX
  8
0
 10
1316.70825629
 20
3332.38414085
  0
VERTEX
  8
0
 10
1316.70825629
 20
3229.38732331
  0
VERTEX
  8
0
 10
1329.00316435
 20
3230.45753093
  0
VERTEX
  8
0
 10
1329.00316435
 20
3128.38573208
  0
VERTEX
  8
0
 10
2524.41179236
 20
3128.38272077
  0
VERTEX
  8
0
 10
2524.41179236
 20
3230.38260266
  0
VERTEX
  8
0
 10
2536.70825629
 20
3229.37482711
  0
VERTEX
  8
0
 10
2536.70825629
 20
3332.43807301
  0
VERTEX
  8
0
 10
2524.41179236
 20
3331.37817904
  0
VERTEX
  8
0
 10
2524.41334823
 20
3433.38573208
  0
VERTEX
  8
0
 10
2237.92322181
 20
3433.38573208
  0
VERTEX
  8
0
 10
2237.92322181
 20
3276.07269478
  0
VERTEX
  8
0
 10
2225.72322181
 20
3276.07269478
  0
VERTEX
  8
0
 10
2225.72322181
 20
3433.38573208
  0
VERTEX
  8
0
 10
1932.92322181
 20
3433.38573208
  0
SEQEND
  0
POLYLINE
  8
Default Layer
 66
   1
 39
0.000000
 70
    1
  0
VERTEX
  8
0
 10
1932.92322181
 20
3793.07997395
  0
VERTEX
  8
0
 10
1932.92322181
 20
3635.76693665
  0
VERTEX
  8
0
 10
1920.72322181
 20
3635.76693665
  0
VERTEX
  8
0
 10
1920.72322181
 20
3793.07997395
  0
VERTEX
  8
0
 10
1627.88277804
 20
3793.07997395
  0
VERTEX
  8
0
 10
1627.88277804
 20
3635.76693665
  0
VERTEX
  8
0
 10
1615.68277804
 20
3635.76693665
  0
VERTEX
  8
0
 10
1615.68277804
 20
3793.07997395
  0
VERTEX
  8
0
 10
1329.01351796
 20
3793.07997395
  0
VERTEX
  8
0
 10
1329.01313606
 20
3691.10177027
  0
VERTEX
  8
0
 10
1316.70825629
 20
3692.07838272
  0
VERTEX
  8
0
 10
1316.70825629
 20
3589.08156518
  0
VERTEX
  8
0
 10
1329.00316435
 20
3590.15177280
  0
VERTEX
  8
0
 10
1329.00316435
 20
3488.07997395
  0
VERTEX
  8
0
 10
2524.41179236
 20
3488.07696264
  0
VERTEX
  8
0
 10
2524.41179236
 20
3590.07684453
  0
VERTEX
  8
0
 10
2536.70825629
 20
3589.06906898
  0
VERTEX
  8
0
 10
2536.70825629
 20
3692.13231488
  0
VERTEX
  8
0
 10
2524.41179236
 20
3691.07242091
  0
VERTEX
  8
0
 10
2524.41334823
 20
3793.07997395
  0
VERTEX
  8
0
 10
2237.92322181
 20
3793.07997395
  0
VERTEX
  8
0
 10
2237.92322181
 20
3635.76693665
  0
VERTEX
  8
0
 10
2225.72322181
 20
3635.76693665
  0
VERTEX
  8
0
 10
2225.72322181
 20
3793.07997395
  0
VERTEX
  8
0
 10
1932.92322181
 20
3793.07997395
  0
SEQEND
  0
POLYLINE
  8
Default Layer
 66
   1
 39
0.000000
 70
    1
  0
VERTEX
  8
0
 10
1147.52475248
 20
4743.69655506
  0
VERTEX
  8
0
 10
1147.52475248
 20
3592.70155587
  0
VERTEX
  8
0
 10
842.52475248
 20
3592.70155587
  0
VERTEX
  8
0
 10
842.52475248
 20
4812.70155587
  0
VERTEX
  8
0
 10
1147.52475248
 20
4812.70155587
  0
VERTEX
  8
0
 10
1147.52475248
 20
4771.69655506
  0
VERTEX
  8
0
 10
1153.52262497
 20
4771.69655506
  0
VERTEX
  8
0
 10
1153.52262497
 20
4743.69655506
  0
VERTEX
  8
0
 10
1147.52475248
 20
4743.69655506
  0
SEQEND
  0
POLYLINE
  8
Default Layer
 66
   1
 39
0.000000
 70
    1
  0
VERTEX
  8
0
 10
2974.43618105
 20
3944.06989922
  0
VERTEX
  8
0
 10
2974.43618105
 20
3956.36989922
  0
VERTEX
  8
0
 10
2867.43618105
 20
3956.36989922
  0
VERTEX
  8
0
 10
2867.43618105
 20
3944.06989922
  0
VERTEX
  8
0
 10
2974.43618105
 20
3944.06989922
  0
SEQEND
  0
POLYLINE
  8
Default Layer
 66
   1
 39
0.000000
 70
    1
  0
VERTEX
  8
0
 10
2974.43618105
 20
4226.77189710
  0
VERTEX
  8
0
 10
2974.43618105
 20
4239.07189710
  0
VERTEX
  8
0
 10
2867.43618105
 20
4239.07189710
  0
VERTEX
  8
0
 10
2867.43618105
 20
4226.77189710
  0
VERTEX
  8
0
 10
2974.43618105
 20
4226.77189710
  0
SEQEND
  0
POLYLINE
  8
Default Layer
 66
   1
 39
0.000000
 70
    1
  0
VERTEX
  8
0
 10
2974.43618105
 20
4509.79744519
  0
VERTEX
  8
0
 10
2974.43618105
 20
4522.09744519
  0
VERTEX
  8
0
 10
2867.43618105
 20
4522.09744519
  0
VERTEX
  8
0
 10
2867.43618105
 20
4509.79744519
  0
VERTEX
  8
0
 10
2974.43618105
 20
4509.79744519
  0
SEQEND
  0
POLYLINE
  8
Default Layer
 66
   1
 39
0.000000
 70
    1
  0
VERTEX
  8
0
 10
2974.43618105
 20
4793.79364392
  0
VERTEX
  8
0
 10
2974.43618105
 20
4806.09364392
  0
VERTEX
  8
0
 10
2867.43618105
 20
4806.09364392
  0
VERTEX
  8
0
 10
2867.43618105
 20
4793.79364392
  0
VERTEX
  8
0
 10
2974.43618105
 20
4793.79364392
  0
SEQEND
  0
POLYLINE
  8
Default Layer
 66
   1
 39
0.000000
 70
    1
  0
VERTEX
  8
0
 10
3025.15845545
 20
4799.70389498
  0
VERTEX
  8
0
 10
3025.14812967
 20
4799.90838336
  0
VERTEX
  8
0
 10
3025.11782255
 20
4800.10696474
  0
VERTEX
  8
0
 10
3025.06853940
 20
4800.29863380
  0
VERTEX
  8
0
 10
3025.00128553
 20
4800.48238524
  0
VERTEX
  8
0
 10
3024.91706625
 20
4800.65721374
  0
VERTEX
  8
0
 10
3024.81688686
 20
4800.82211400
  0
VERTEX
  8
0
 10
3024.70175267
 20
4800.97608070
  0
VERTEX
  8
0
 10
3024.57266901
 20
4801.11810854
  0
VERTEX
  8
0
 10
3024.43064117
 20
4801.24719221
  0
VERTEX
  8
0
 10
3024.27667446
 20
4801.36232639
  0
VERTEX
  8
0
 10
3024.11177421
 20
4801.46250578
  0
VERTEX
  8
0
 10
3023.93694570
 20
4801.54672506
  0
VERTEX
  8
0
 10
3023.75319427
 20
4801.61397894
  0
VERTEX
  8
0
 10
3023.56152520
 20
4801.66326209
  0
VERTEX
  8
0
 10
3023.36294383
 20
4801.69356920
  0
VERTEX
  8
0
 10
3023.15845545
 20
4801.70389498
  0
VERTEX
  8
0
 10
3022.95396706
 20
4801.69356920
  0
VERTEX
  8
0
 10
3022.75538569
 20
4801.66326209
  0
VERTEX
  8
0
 10
3022.56371663
 20
4801.61397894
  0
VERTEX
  8
0
 10
3022.37996519
 20
4801.54672506
  0
VERTEX
  8
0
 10
3022.20513669
 20
4801.46250578
  0
VERTEX
  8
0
 10
3022.04023643
 20
4801.36232639
  0
VERTEX
  8
0
 10
3021.88626972
 20
4801.24719221
  0
VERTEX
  8
0
 10
3021.74424188
 20
4801.11810854
  0
VERTEX
  8
0
 10
3021.61515822
 20
4800.97608070
  0
VERTEX
  8
0
 10
3021.50002403
 20
4800.82211400
  0
VERTEX
  8
0
 10
3021.39984465
 20
4800.65721374
  0
VERTEX
  8
0
 10
3021.31562536
 20
4800.48238524
  0
VERTEX
  8
0
 10
3021.24837149
 20
4800.29863380
  0
VERTEX
  8
0
 10
3021.19908834
 20
4800.10696474
  0
VERTEX
  8
0
 10
3021.16878122
 20
4799.90838336
  0
VERTEX
  8
0
 10
3021.15845545
 20
4799.70389498
  0
VERTEX
  8
0
 10
3021.16878122
 20
4799.49940660
  0
VERTEX
  8
0
 10
3021.19908834
 20
4799.30082522
  0
VERTEX
  8
0
 10
3021.24837149
 20
4799.10915616
  0
VERTEX
  8
0
 10
3021.31562536
 20
4798.92540472
  0
VERTEX
  8
0
 10
3021.39984465
 20
4798.75057622
  0
VERTEX
  8
0
 10
3021.50002403
 20
4798.58567596
  0
VERTEX
  8
0
 10
3021.61515822
 20
4798.43170926
  0
VERTEX
  8
0
 10
3021.74424188
 20
4798.28968142
  0
VERTEX
  8
0
 10
3021.88626972
 20
4798.16059775
  0
VERTEX
  8
0
 10
3022.04023643
 20
4798.04546357
  0
VERTEX
  8
0
 10
3022.20513669
 20
4797.94528418
  0
VERTEX
  8
0
 10
3022.37996519
 20
4797.86106489
  0
VERTEX
  8
0
 10
3022.56371663
 20
4797.79381102
  0
VERTEX
  8
0
 10
3022.75538569
 20
4797.74452787
  0
VERTEX
  8
0
 10
3022.95396706
 20
4797.71422075
  0
VERTEX
  8
0
 10
3023.15845545
 20
4797.70389498
  0
VERTEX
  8
0
 10
3023.36294383
 20
4797.71422075
  0
VERTEX
  8
0
 10
3023.56152520
 20
4797.74452787
  0
VERTEX
  8
0
 10
3023.75319427
 20
4797.79381102
  0
VERTEX
  8
0
 10
3023.93694570
 20
4797.86106489
  0
VERTEX
  8
0
 10
3024.11177421
 20
4797.94528418
  0
VERTEX
  8
0
 10
3024.27667446
 20
4798.04546357
  0
VERTEX
  8
0
 10
3024.43064117
 20
4798.16059775
  0
VERTEX
  8
0
 10
3024.57266901
 20
4798.28968142
  0
VERTEX
  8
0
 10
3024.70175267
 20
4798.43170926
  0
VERTEX
  8
0
 10
3024.81688686
 20
4798.58567596
  0
VERTEX
  8
0
 10
3024.91706625
 20
4798.75057622
  0
VERTEX
  8
0
 10
3025.00128553
 20
4798.92540472
  0
VERTEX
  8
0
 10
3025.06853940
 20
4799.10915616
  0
VERTEX
  8
0
 10
3025.11782255
 20
4799.30082522
  0
VERTEX
  8
0
 10
3025.14812967
 20
4799.49940660
  0
VERTEX
  8
0
 10
3025.15845545
 20
4799.70389498
  0
SEQEND
  0
POLYLINE
  8
Default Layer
 66
   1
 39
0.000000
 70
    1
  0
VERTEX
  8
0
 10
2820.27245545
 20
4799.70389498
  0
VERTEX
  8
0
 10
2820.26212967
 20
4799.90838336
  0
VERTEX
  8
0
 10
2820.23182255
 20
4800.10696474
  0
VERTEX
  8
0
 10
2820.18253940
 20
4800.29863380
  0
VERTEX
  8
0
 10
2820.11528553
 20
4800.48238524
  0
VERTEX
  8
0
 10
2820.03106625
 20
4800.65721374
  0
VERTEX
  8
0
 10
2819.93088686
 20
4800.82211400
  0
VERTEX
  8
0
 10
2819.81575267
 20
4800.97608070
  0
VERTEX
  8
0
 10
2819.68666901
 20
4801.11810854
  0
VERTEX
  8
0
 10
2819.54464117
 20
4801.24719221
  0
VERTEX
  8
0
 10
2819.39067446
 20
4801.36232639
  0
VERTEX
  8
0
 10
2819.22577421
 20
4801.46250578
  0
VERTEX
  8
0
 10
2819.05094570
 20
4801.54672506
  0
VERTEX
  8
0
 10
2818.86719427
 20
4801.61397894
  0
VERTEX
  8
0
 10
2818.67552520
 20
4801.66326209
  0
VERTEX
  8
0
 10
2818.47694383
 20
4801.69356920
  0
VERTEX
  8
0
 10
2818.27245545
 20
4801.70389498
  0
VERTEX
  8
0
 10
2818.06796706
 20
4801.69356920
  0
VERTEX
  8
0
 10
2817.86938569
 20
4801.66326209
  0
VERTEX
  8
0
 10
2817.67771663
 20
4801.61397894
  0
VERTEX
  8
0
 10
2817.49396519
 20
4801.54672506
  0
VERTEX
  8
0
 10
2817.31913669
 20
4801.46250578
  0
VERTEX
  8
0
 10
2817.15423643
 20
4801.36232639
  0
VERTEX
  8
0
 10
2817.00026972
 20
4801.24719221
  0
VERTEX
  8
0
 10
2816.85824188
 20
4801.11810854
  0
VERTEX
  8
0
 10
2816.72915822
 20
4800.97608070
  0
VERTEX
  8
0
 10
2816.61402403
 20
4800.82211400
  0
VERTEX
  8
0
 10
2816.51384465
 20
4800.65721374
  0
VERTEX
  8
0
 10
2816.42962536
 20
4800.48238524
  0
VERTEX
  8
0
 10
2816.36237149
 20
4800.29863380
  0
VERTEX
  8
0
 10
2816.31308834
 20
4800.10696474
  0
VERTEX
  8
0
 10
2816.28278122
 20
4799.90838336
  0
VERTEX
  8
0
 10
2816.27245545
 20
4799.70389498
  0
VERTEX
  8
0
 10
2816.28278122
 20
4799.49940660
  0
VERTEX
  8
0
 10
2816.31308834
 20
4799.30082522
  0
VERTEX
  8
0
 10
2816.36237149
 20
4799.10915616
  0
VERTEX
  8
0
 10
2816.42962536
 20
4798.92540472
  0
VERTEX
  8
0
 10
2816.51384465
 20
4798.75057622
  0
VERTEX
  8
0
 10
2816.61402403
 20
4798.58567596
  0
VERTEX
  8
0
 10
2816.72915822
 20
4798.43170926
  0
VERTEX
  8
0
 10
2816.85824188
 20
4798.28968142
  0
VERTEX
  8
0
 10
2817.00026972
 20
4798.16059775
  0
VERTEX
  8
0
 10
2817.15423643
 20
4798.04546357
  0
VERTEX
  8
0
 10
2817.31913669
 20
4797.94528418
  0
VERTEX
  8
0
 10
2817.49396519
 20
4797.86106489
  0
VERTEX
  8
0
 10
2817.67771663
 20
4797.79381102
  0
VERTEX
  8
0
 10
2817.86938569
 20
4797.74452787
  0
VERTEX
  8
0
 10
2818.06796706
 20
4797.71422075
  0
VERTEX
  8
0
 10
2818.27245545
 20
4797.70389498
  0
VERTEX
  8
0
 10
2818.47694383
 20
4797.71422075
  0
VERTEX
  8
0
 10
2818.67552520
 20
4797.74452787
  0
VERTEX
  8
0
 10
2818.86719427
 20
4797.79381102
  0
VERTEX
  8
0
 10
2819.05094570
 20
4797.86106489
  0
VERTEX
  8
0
 10
2819.22577421
 20
4797.94528418
  0
VERTEX
  8
0
 10
2819.39067446
 20
4798.04546357
  0
VERTEX
  8
0
 10
2819.54464117
 20
4798.16059775
  0
VERTEX
  8
0
 10
2819.68666901
 20
4798.28968142
  0
VERTEX
  8
0
 10
2819.81575267
 20
4798.43170926
  0
VERTEX
  8
0
 10
2819.93088686
 20
4798.58567596
  0
VERTEX
  8
0
 10
2820.03106625
 20
4798.75057622
  0
VERTEX
  8
0
 10
2820.11528553
 20
4798.92540472
  0
VERTEX
  8
0
 10
2820.18253940
 20
4799.10915616
  0
VERTEX
  8
0
 10
2820.23182255
 20
4799.30082522
  0
VERTEX
  8
0
 10
2820.26212967
 20
4799.49940660
  0
VERTEX
  8
0
 10
2820.27245545
 20
4799.70389498
  0
SEQEND
  0
POLYLINE
  8
Default Layer
 66
   1
 39
0.000000
 70
    1
  0
VERTEX
  8
0
 10
3025.15845545
 20
4515.92189498
  0
VERTEX
  8
0
 10
3025.14812967
 20
4516.12638336
  0
VERTEX
  8
0
 10
3025.11782255
 20
4516.32496474
  0
VERTEX
  8
0
 10
3025.06853940
 20
4516.51663380
  0
VERTEX
  8
0
 10
3025.00128553
 20
4516.70038524
  0
VERTEX
  8
0
 10
3024.91706625
 20
4516.87521374
  0
VERTEX
  8
0
 10
3024.81688686
 20
4517.04011400
  0
VERTEX
  8
0
 10
3024.70175267
 20
4517.19408070
  0
VERTEX
  8
0
 10
3024.57266901
 20
4517.33610854
  0
VERTEX
  8
0
 10
3024.43064117
 20
4517.46519221
  0
VERTEX
  8
0
 10
3024.27667446
 20
4517.58032639
  0
VERTEX
  8
0
 10
3024.11177421
 20
4517.68050578
  0
VERTEX
  8
0
 10
3023.93694570
 20
4517.76472506
  0
VERTEX
  8
0
 10
3023.75319427
 20
4517.83197894
  0
VERTEX
  8
0
 10
3023.56152520
 20
4517.88126209
  0
VERTEX
  8
0
 10
3023.36294383
 20
4517.91156920
  0
VERTEX
  8
0
 10
3023.15845545
 20
4517.92189498
  0
VERTEX
  8
0
 10
3022.95396706
 20
4517.91156920
  0
VERTEX
  8
0
 10
3022.75538569
 20
4517.88126209
  0
VERTEX
  8
0
 10
3022.56371663
 20
4517.83197894
  0
VERTEX
  8
0
 10
3022.37996519
 20
4517.76472506
  0
VERTEX
  8
0
 10
3022.20513669
 20
4517.68050578
  0
VERTEX
  8
0
 10
3022.04023643
 20
4517.58032639
  0
VERTEX
  8
0
 10
3021.88626972
 20
4517.46519221
  0
VERTEX
  8
0
 10
3021.74424188
 20
4517.33610854
  0
VERTEX
  8
0
 10
3021.61515822
 20
4517.19408070
  0
VERTEX
  8
0
 10
3021.50002403
 20
4517.04011400
  0
VERTEX
  8
0
 10
3021.39984465
 20
4516.87521374
  0
VERTEX
  8
0
 10
3021.31562536
 20
4516.70038524
  0
VERTEX
  8
0
 10
3021.24837149
 20
4516.51663380
  0
VERTEX
  8
0
 10
3021.19908834
 20
4516.32496474
  0
VERTEX
  8
0
 10
3021.16878122
 20
4516.12638336
  0
VERTEX
  8
0
 10
3021.15845545
 20
4515.92189498
  0
VERTEX
  8
0
 10
3021.16878122
 20
4515.71740660
  0
VERTEX
  8
0
 10
3021.19908834
 20
4515.51882522
  0
VERTEX
  8
0
 10
3021.24837149
 20
4515.32715616
  0
VERTEX
  8
0
 10
3021.31562536
 20
4515.14340472
  0
VERTEX
  8
0
 10
3021.39984465
 20
4514.96857622
  0
VERTEX
  8
0
 10
3021.50002403
 20
4514.80367596
  0
VERTEX
  8
0
 10
3021.61515822
 20
4514.64970926
  0
VERTEX
  8
0
 10
3021.74424188
 20
4514.50768142
  0
VERTEX
  8
0
 10
3021.88626972
 20
4514.37859775
  0
VERTEX
  8
0
 10
3022.04023643
 20
4514.26346357
  0
VERTEX
  8
0
 10
3022.20513669
 20
4514.16328418
  0
VERTEX
  8
0
 10
3022.37996519
 20
4514.07906489
  0
VERTEX
  8
0
 10
3022.56371663
 20
4514.01181102
  0
VERTEX
  8
0
 10
3022.75538569
 20
4513.96252787
  0
VERTEX
  8
0
 10
3022.95396706
 20
4513.93222075
  0
VERTEX
  8
0
 10
3023.15845545
 20
4513.92189498
  0
VERTEX
  8
0
 10
3023.36294383
 20
4513.93222075
  0
VERTEX
  8
0
 10
3023.56152520
 20
4513.96252787
  0
VERTEX
  8
0
 10
3023.75319427
 20
4514.01181102
  0
VERTEX
  8
0
 10
3023.93694570
 20
4514.07906489
  0
VERTEX
  8
0
 10
3024.11177421
 20
4514.16328418
  0
VERTEX
  8
0
 10
3024.27667446
 20
4514.26346357
  0
VERTEX
  8
0
 10
3024.43064117
 20
4514.37859775
  0
VERTEX
  8
0
 10
3024.57266901
 20
4514.50768142
  0
VERTEX
  8
0
 10
3024.70175267
 20
4514.64970926
  0
VERTEX
  8
0
 10
3024.81688686
 20
4514.80367596
  0
VERTEX
  8
0
 10
3024.91706625
 20
4514.96857622
  0
VERTEX
  8
0
 10
3025.00128553
 20
4515.14340472
  0
VERTEX
  8
0
 10
3025.06853940
 20
4515.32715616
  0
VERTEX
  8
0
 10
3025.11782255
 20
4515.51882522
  0
VERTEX
  8
0
 10
3025.14812967
 20
4515.71740660
  0
VERTEX
  8
0
 10
3025.15845545
 20
4515.92189498
  0
SEQEND
  0
POLYLINE
  8
Default Layer
 66
   1
 39
0.000000
 70
    1
  0
VERTEX
  8
0
 10
2820.27245545
 20
4515.92189498
  0
VERTEX
  8
0
 10
2820.26212967
 20
4516.12638336
  0
VERTEX
  8
0
 10
2820.23182255
 20
4516.32496474
  0
VERTEX
  8
0
 10
2820.18253940
 20
4516.51663380
  0
VERTEX
  8
0
 10
2820.11528553
 20
4516.70038524
  0
VERTEX
  8
0
 10
2820.03106625
 20
4516.87521374
  0
VERTEX
  8
0
 10
2819.93088686
 20
4517.04011400
  0
VERTEX
  8
0
 10
2819.81575267
 20
4517.19408070
  0
VERTEX
  8
0
 10
2819.68666901
 20
4517.33610854
  0
VERTEX
  8
0
 10
2819.54464117
 20
4517.46519221
  0
VERTEX
  8
0
 10
2819.39067446
 20
4517.58032639
  0
VERTEX
  8
0
 10
2819.22577421
 20
4517.68050578
  0
VERTEX
  8
0
 10
2819.05094570
 20
4517.76472506
  0
VERTEX
  8
0
 10
2818.86719427
 20
4517.83197894
  0
VERTEX
  8
0
 10
2818.67552520
 20
4517.88126209
  0
VERTEX
  8
0
 10
2818.47694383
 20
4517.91156920
  0
VERTEX
  8
0
 10
2818.27245545
 20
4517.92189498
  0
VERTEX
  8
0
 10
2818.06796706
 20
4517.91156920
  0
VERTEX
  8
0
 10
2817.86938569
 20
4517.88126209
  0
VERTEX
  8
0
 10
2817.67771663
 20
4517.83197894
  0
VERTEX
  8
0
 10
2817.49396519
 20
4517.76472506
  0
VERTEX
  8
0
 10
2817.31913669
 20
4517.68050578
  0
VERTEX
  8
0
 10
2817.15423643
 20
4517.58032639
  0
VERTEX
  8
0
 10
2817.00026972
 20
4517.46519221
  0
VERTEX
  8
0
 10
2816.85824188
 20
4517.33610854
  0
VERTEX
  8
0
 10
2816.72915822
 20
4517.19408070
  0
VERTEX
  8
0
 10
2816.61402403
 20
4517.04011400
  0
VERTEX
  8
0
 10
2816.51384465
 20
4516.87521374
  0
VERTEX
  8
0
 10
2816.42962536
 20
4516.70038524
  0
VERTEX
  8
0
 10
2816.36237149
 20
4516.51663380
  0
VERTEX
  8
0
 10
2816.31308834
 20
4516.32496474
  0
VERTEX
  8
0
 10
2816.28278122
 20
4516.12638336
  0
VERTEX
  8
0
 10
2816.27245545
 20
4515.92189498
  0
VERTEX
  8
0
 10
2816.28278122
 20
4515.71740660
  0
VERTEX
  8
0
 10
2816.31308834
 20
4515.51882522
  0
VERTEX
  8
0
 10
2816.36237149
 20
4515.32715616
  0
VERTEX
  8
0
 10
2816.42962536
 20
4515.14340472
  0
VERTEX
  8
0
 10
2816.51384465
 20
4514.96857622
  0
VERTEX
  8
0
 10
2816.61402403
 20
4514.80367596
  0
VERTEX
  8
0
 10
2816.72915822
 20
4514.64970926
  0
VERTEX
  8
0
 10
2816.85824188
 20
4514.50768142
  0
VERTEX
  8
0
 10
2817.00026972
 20
4514.37859775
  0
VERTEX
  8
0
 10
2817.15423643
 20
4514.26346357
  0
VERTEX
  8
0
 10
2817.31913669
 20
4514.16328418
  0
VERTEX
  8
0
 10
2817.49396519
 20
4514.07906489
  0
VERTEX
  8
0
 10
2817.67771663
 20
4514.01181102
  0
VERTEX
  8
0
 10
2817.86938569
 20
4513.96252787
  0
VERTEX
  8
0
 10
2818.06796706
 20
4513.93222075
  0
VERTEX
  8
0
 10
2818.27245545
 20
4513.92189498
  0
VERTEX
  8
0
 10
2818.47694383
 20
4513.93222075
  0
VERTEX
  8
0
 10
2818.67552520
 20
4513.96252787
  0
VERTEX
  8
0
 10
2818.86719427
 20
4514.01181102
  0
VERTEX
  8
0
 10
2819.05094570
 20
4514.07906489
  0
VERTEX
  8
0
 10
2819.22577421
 20
4514.16328418
  0
VERTEX
  8
0
 10
2819.39067446
 20
4514.26346357
  0
VERTEX
  8
0
 10
2819.54464117
 20
4514.37859775
  0
VERTEX
  8
0
 10
2819.68666901
 20
4514.50768142
  0
VERTEX
  8
0
 10
2819.81575267
 20
4514.64970926
  0
VERTEX
  8
0
 10
2819.93088686
 20
4514.80367596
  0
VERTEX
  8
0
 10
2820.03106625
 20
4514.96857622
  0
VERTEX
  8
0
 10
2820.11528553
 20
4515.14340472
  0
VERTEX
  8
0
 10
2820.18253940
 20
4515.32715616
  0
VERTEX
  8
0
 10
2820.23182255
 20
4515.51882522
  0
VERTEX
  8
0
 10
2820.26212967
 20
4515.71740660
  0
VERTEX
  8
0
 10
2820.27245545
 20
4515.92189498
  0
SEQEND
  0
POLYLINE
  8
Default Layer
 66
   1
 39
0.000000
 70
    1
  0
VERTEX
  8
0
 10
2820.27245545
 20
4233.23589498
  0
VERTEX
  8
0
 10
2820.26212967
 20
4233.44038336
  0
VERTEX
  8
0
 10
2820.23182255
 20
4233.63896474
  0
VERTEX
  8
0
 10
2820.18253940
 20
4233.83063380
  0
VERTEX
  8
0
 10
2820.11528553
 20
4234.01438524
  0
VERTEX
  8
0
 10
2820.03106625
 20
4234.18921374
  0
VERTEX
  8
0
 10
2819.93088686
 20
4234.35411400
  0
VERTEX
  8
0
 10
2819.81575267
 20
4234.50808070
  0
VERTEX
  8
0
 10
2819.68666901
 20
4234.65010854
  0
VERTEX
  8
0
 10
2819.54464117
 20
4234.77919221
  0
VERTEX
  8
0
 10
2819.39067446
 20
4234.89432639
  0
VERTEX
  8
0
 10
2819.22577421
 20
4234.99450578
  0
VERTEX
  8
0
 10
2819.05094570
 20
4235.07872506
  0
VERTEX
  8
0
 10
2818.86719427
 20
4235.14597894
  0
VERTEX
  8
0
 10
2818.67552520
 20
4235.19526209
  0
VERTEX
  8
0
 10
2818.47694383
 20
4235.22556920
  0
VERTEX
  8
0
 10
2818.27245545
 20
4235.23589498
  0
VERTEX
  8
0
 10
2818.06796706
 20
4235.22556920
  0
VERTEX
  8
0
 10
2817.86938569
 20
4235.19526209
  0
VERTEX
  8
0
 10
2817.67771663
 20
4235.14597894
  0
VERTEX
  8
0
 10
2817.49396519
 20
4235.07872506
  0
VERTEX
  8
0
 10
2817.31913669
 20
4234.99450578
  0
VERTEX
  8
0
 10
2817.15423643
 20
4234.89432639
  0
VERTEX
  8
0
 10
2817.00026972
 20
4234.77919221
  0
VERTEX
  8
0
 10
2816.85824188
 20
4234.65010854
  0
VERTEX
  8
0
 10
2816.72915822
 20
4234.50808070
  0
VERTEX
  8
0
 10
2816.61402403
 20
4234.35411400
  0
VERTEX
  8
0
 10
2816.51384465
 20
4234.18921374
  0
VERTEX
  8
0
 10
2816.42962536
 20
4234.01438524
  0
VERTEX
  8
0
 10
2816.36237149
 20
4233.83063380
  0
VERTEX
  8
0
 10
2816.31308834
 20
4233.63896474
  0
VERTEX
  8
0
 10
2816.28278122
 20
4233.44038336
  0
VERTEX
  8
0
 10
2816.27245545
 20
4233.23589498
  0
VERTEX
  8
0
 10
2816.28278122
 20
4233.03140660
  0
VERTEX
  8
0
 10
2816.31308834
 20
4232.83282522
  0
VERTEX
  8
0
 10
2816.36237149
 20
4232.64115616
  0
VERTEX
  8
0
 10
2816.42962536
 20
4232.45740472
  0
VERTEX
  8
0
 10
2816.51384465
 20
4232.28257622
  0
VERTEX
  8
0
 10
2816.61402403
 20
4232.11767596
  0
VERTEX
  8
0
 10
2816.72915822
 20
4231.96370926
  0
VERTEX
  8
0
 10
2816.85824188
 20
4231.82168142
  0
VERTEX
  8
0
 10
2817.00026972
 20
4231.69259775
  0
VERTEX
  8
0
 10
2817.15423643
 20
4231.57746357
  0
VERTEX
  8
0
 10
2817.31913669
 20
4231.47728418
  0
VERTEX
  8
0
 10
2817.49396519
 20
4231.39306489
  0
VERTEX
  8
0
 10
2817.67771663
 20
4231.32581102
  0
VERTEX
  8
0
 10
2817.86938569
 20
4231.27652787
  0
VERTEX
  8
0
 10
2818.06796706
 20
4231.24622075
  0
VERTEX
  8
0
 10
2818.27245545
 20
4231.23589498
  0
VERTEX
  8
0
 10
2818.47694383
 20
4231.24622075
  0
VERTEX
  8
0
 10
2818.67552520
 20
4231.27652787
  0
VERTEX
  8
0
 10
2818.86719427
 20
4231.32581102
  0
VERTEX
  8
0
 10
2819.05094570
 20
4231.39306489
  0
VERTEX
  8
0
 10
2819.22577421
 20
4231.47728418
  0
VERTEX
  8
0
 10
2819.39067446
 20
4231.57746357
  0
VERTEX
  8
0
 10
2819.54464117
 20
4231.69259775
  0
VERTEX
  8
0
 10
2819.68666901
 20
4231.82168142
  0
VERTEX
  8
0
 10
2819.81575267
 20
4231.96370926
  0
VERTEX
  8
0
 10
2819.93088686
 20
4232.11767596
  0
VERTEX
  8
0
 10
2820.03106625
 20
4232.28257622
  0
VERTEX
  8
0
 10
2820.11528553
 20
4232.45740472
  0
VERTEX
  8
0
 10
2820.18253940
 20
4232.64115616
  0
VERTEX
  8
0
 10
2820.23182255
 20
4232.83282522
  0
VERTEX
  8
0
 10
2820.26212967
 20
4233.03140660
  0
VERTEX
  8
0
 10
2820.27245545
 20
4233.23589498
  0
SEQEND
  0
POLYLINE
  8
Default Layer
 66
   1
 39
0.000000
 70
    1
  0
VERTEX
  8
0
 10
3025.15845545
 20
4233.23589498
  0
VERTEX
  8
0
 10
3025.14812967
 20
4233.44038336
  0
VERTEX
  8
0
 10
3025.11782255
 20
4233.63896474
  0
VERTEX
  8
0
 10
3025.06853940
 20
4233.83063380
  0
VERTEX
  8
0
 10
3025.00128553
 20
4234.01438524
  0
VERTEX
  8
0
 10
3024.91706625
 20
4234.18921374
  0
VERTEX
  8
0
 10
3024.81688686
 20
4234.35411400
  0
VERTEX
  8
0
 10
3024.70175267
 20
4234.50808070
  0
VERTEX
  8
0
 10
3024.57266901
 20
4234.65010854
  0
VERTEX
  8
0
 10
3024.43064117
 20
4234.77919221
  0
VERTEX
  8
0
 10
3024.27667446
 20
4234.89432639
  0
VERTEX
  8
0
 10
3024.11177421
 20
4234.99450578
  0
VERTEX
  8
0
 10
3023.93694570
 20
4235.07872506
  0
VERTEX
  8
0
 10
3023.75319427
 20
4235.14597894
  0
VERTEX
  8
0
 10
3023.56152520
 20
4235.19526209
  0
VERTEX
  8
0
 10
3023.36294383
 20
4235.22556920
  0
VERTEX
  8
0
 10
3023.15845545
 20
4235.23589498
  0
VERTEX
  8
0
 10
3022.95396706
 20
4235.22556920
  0
VERTEX
  8
0
 10
3022.75538569
 20
4235.19526209
  0
VERTEX
  8
0
 10
3022.56371663
 20
4235.14597894
  0
VERTEX
  8
0
 10
3022.37996519
 20
4235.07872506
  0
VERTEX
  8
0
 10
3022.20513669
 20
4234.99450578
  0
VERTEX
  8
0
 10
3022.04023643
 20
4234.89432639
  0
VERTEX
  8
0
 10
3021.88626972
 20
4234.77919221
  0
VERTEX
  8
0
 10
3021.74424188
 20
4234.65010854
  0
VERTEX
  8
0
 10
3021.61515822
 20
4234.50808070
  0
VERTEX
  8
0
 10
3021.50002403
 20
4234.35411400
  0
VERTEX
  8
0
 10
3021.39984465
 20
4234.18921374
  0
VERTEX
  8
0
 10
3021.31562536
 20
4234.01438524
  0
VERTEX
  8
0
 10
3021.24837149
 20
4233.83063380
  0
VERTEX
  8
0
 10
3021.19908834
 20
4233.63896474
  0
VERTEX
  8
0
 10
3021.16878122
 20
4233.44038336
  0
VERTEX
  8
0
 10
3021.15845545
 20
4233.23589498
  0
VERTEX
  8
0
 10
3021.16878122
 20
4233.03140660
  0
VERTEX
  8
0
 10
3021.19908834
 20
4232.83282522
  0
VERTEX
  8
0
 10
3021.24837149
 20
4232.64115616
  0
VERTEX
  8
0
 10
3021.31562536
 20
4232.45740472
  0
VERTEX
  8
0
 10
3021.39984465
 20
4232.28257622
  0
VERTEX
  8
0
 10
3021.50002403
 20
4232.11767596
  0
VERTEX
  8
0
 10
3021.61515822
 20
4231.96370926
  0
VERTEX
  8
0
 10
3021.74424188
 20
4231.82168142
  0
VERTEX
  8
0
 10
3021.88626972
 20
4231.69259775
  0
VERTEX
  8
0
 10
3022.04023643
 20
4231.57746357
  0
VERTEX
  8
0
 10
3022.20513669
 20
4231.47728418
  0
VERTEX
  8
0
 10
3022.37996519
 20
4231.39306489
  0
VERTEX
  8
0
 10
3022.56371663
 20
4231.32581102
  0
VERTEX
  8
0
 10
3022.75538569
 20
4231.27652787
  0
VERTEX
  8
0
 10
3022.95396706
 20
4231.24622075
  0
VERTEX
  8
0
 10
3023.15845545
 20
4231.23589498
  0
VERTEX
  8
0
 10
3023.36294383
 20
4231.24622075
  0
VERTEX
  8
0
 10
3023.56152520
 20
4231.27652787
  0
VERTEX
  8
0
 10
3023.75319427
 20
4231.32581102
  0
VERTEX
  8
0
 10
3023.93694570
 20
4231.39306489
  0
VERTEX
  8
0
 10
3024.11177421
 20
4231.47728418
  0
VERTEX
  8
0
 10
3024.27667446
 20
4231.57746357
  0
VERTEX
  8
0
 10
3024.43064117
 20
4231.69259775
  0
VERTEX
  8
0
 10
3024.57266901
 20
4231.82168142
  0
VERTEX
  8
0
 10
3024.70175267
 20
4231.96370926
  0
VERTEX
  8
0
 10
3024.81688686
 20
4232.11767596
  0
VERTEX
  8
0
 10
3024.91706625
 20
4232.28257622
  0
VERTEX
  8
0
 10
3025.00128553
 20
4232.45740472
  0
VERTEX
  8
0
 10
3025.06853940
 20
4232.64115616
  0
VERTEX
  8
0
 10
3025.11782255
 20
4232.83282522
  0
VERTEX
  8
0
 10
3025.14812967
 20
4233.03140660
  0
VERTEX
  8
0
 10
3025.15845545
 20
4233.23589498
  0
SEQEND
  0
POLYLINE
  8
Default Layer
 66
   1
 39
0.000000
 70
    1
  0
VERTEX
  8
0
 10
3025.15845545
 20
3950.07589498
  0
VERTEX
  8
0
 10
3025.14812967
 20
3950.28038336
  0
VERTEX
  8
0
 10
3025.11782255
 20
3950.47896474
  0
VERTEX
  8
0
 10
3025.06853940
 20
3950.67063380
  0
VERTEX
  8
0
 10
3025.00128553
 20
3950.85438524
  0
VERTEX
  8
0
 10
3024.91706625
 20
3951.02921374
  0
VERTEX
  8
0
 10
3024.81688686
 20
3951.19411400
  0
VERTEX
  8
0
 10
3024.70175267
 20
3951.34808070
  0
VERTEX
  8
0
 10
3024.57266901
 20
3951.49010854
  0
VERTEX
  8
0
 10
3024.43064117
 20
3951.61919221
  0
VERTEX
  8
0
 10
3024.27667446
 20
3951.73432639
  0
VERTEX
  8
0
 10
3024.11177421
 20
3951.83450578
  0
VERTEX
  8
0
 10
3023.93694570
 20
3951.91872506
  0
VERTEX
  8
0
 10
3023.75319427
 20
3951.98597894
  0
VERTEX
  8
0
 10
3023.56152520
 20
3952.03526209
  0
VERTEX
  8
0
 10
3023.36294383
 20
3952.06556920
  0
VERTEX
  8
0
 10
3023.15845545
 20
3952.07589498
  0
VERTEX
  8
0
 10
3022.95396706
 20
3952.06556920
  0
VERTEX
  8
0
 10
3022.75538569
 20
3952.03526209
  0
VERTEX
  8
0
 10
3022.56371663
 20
3951.98597894
  0
VERTEX
  8
0
 10
3022.37996519
 20
3951.91872506
  0
VERTEX
  8
0
 10
3022.20513669
 20
3951.83450578
  0
VERTEX
  8
0
 10
3022.04023643
 20
3951.73432639
  0
VERTEX
  8
0
 10
3021.88626972
 20
3951.61919221
  0
VERTEX
  8
0
 10
3021.74424188
 20
3951.49010854
  0
VERTEX
  8
0
 10
3021.61515822
 20
3951.34808070
  0
VERTEX
  8
0
 10
3021.50002403
 20
3951.19411400
  0
VERTEX
  8
0
 10
3021.39984465
 20
3951.02921374
  0
VERTEX
  8
0
 10
3021.31562536
 20
3950.85438524
  0
VERTEX
  8
0
 10
3021.24837149
 20
3950.67063380
  0
VERTEX
  8
0
 10
3021.19908834
 20
3950.47896474
  0
VERTEX
  8
0
 10
3021.16878122
 20
3950.28038336
  0
VERTEX
  8
0
 10
3021.15845545
 20
3950.07589498
  0
VERTEX
  8
0
 10
3021.16878122
 20
3949.87140660
  0
VERTEX
  8
0
 10
3021.19908834
 20
3949.67282522
  0
VERTEX
  8
0
 10
3021.24837149
 20
3949.48115616
  0
VERTEX
  8
0
 10
3021.31562536
 20
3949.29740472
  0
VERTEX
  8
0
 10
3021.39984465
 20
3949.12257622
  0
VERTEX
  8
0
 10
3021.50002403
 20
3948.95767596
  0
VERTEX
  8
0
 10
3021.61515822
 20
3948.80370926
  0
VERTEX
  8
0
 10
3021.74424188
 20
3948.66168142
  0
VERTEX
  8
0
 10
3021.88626972
 20
3948.53259775
  0
VERTEX
  8
0
 10
3022.04023643
 20
3948.41746357
  0
VERTEX
  8
0
 10
3022.20513669
 20
3948.31728418
  0
VERTEX
  8
0
 10
3022.37996519
 20
3948.23306489
  0
VERTEX
  8
0
 10
3022.56371663
 20
3948.16581102
  0
VERTEX
  8
0
 10
3022.75538569
 20
3948.11652787
  0
VERTEX
  8
0
 10
3022.95396706
 20
3948.08622075
  0
VERTEX
  8
0
 10
3023.15845545
 20
3948.07589498
  0
VERTEX
  8
0
 10
3023.36294383
 20
3948.08622075
  0
VERTEX
  8
0
 10
3023.56152520
 20
3948.11652787
  0
VERTEX
  8
0
 10
3023.75319427
 20
3948.16581102
  0
VERTEX
  8
0
 10
3023.93694570
 20
3948.23306489
  0
VERTEX
  8
0
 10
3024.11177421
 20
3948.31728418
  0
VERTEX
  8
0
 10
3024.27667446
 20
3948.41746357
  0
VERTEX
  8
0
 10
3024.43064117
 20
3948.53259775
  0
VERTEX
  8
0
 10
3024.57266901
 20
3948.66168142
  0
VERTEX
  8
0
 10
3024.70175267
 20
3948.80370926
  0
VERTEX
  8
0
 10
3024.81688686
 20
3948.95767596
  0
VERTEX
  8
0
 10
3024.91706625
 20
3949.12257622
  0
VERTEX
  8
0
 10
3025.00128553
 20
3949.29740472
  0
VERTEX
  8
0
 10
3025.06853940
 20
3949.48115616
  0
VERTEX
  8
0
 10
3025.11782255
 20
3949.67282522
  0
VERTEX
  8
0
 10
3025.14812967
 20
3949.87140660
  0
VERTEX
  8
0
 10
3025.15845545
 20
3950.07589498
  0
SEQEND
  0
POLYLINE
  8
Default Layer
 66
   1
 39
0.000000
 70
    1
  0
VERTEX
  8
0
 10
2820.27245545
 20
3950.07589498
  0
VERTEX
  8
0
 10
2820.26212967
 20
3950.28038336
  0
VERTEX
  8
0
 10
2820.23182255
 20
3950.47896474
  0
VERTEX
  8
0
 10
2820.18253940
 20
3950.67063380
  0
VERTEX
  8
0
 10
2820.11528553
 20
3950.85438524
  0
VERTEX
  8
0
 10
2820.03106625
 20
3951.02921374
  0
VERTEX
  8
0
 10
2819.93088686
 20
3951.19411400
  0
VERTEX
  8
0
 10
2819.81575267
 20
3951.34808070
  0
VERTEX
  8
0
 10
2819.68666901
 20
3951.49010854
  0
VERTEX
  8
0
 10
2819.54464117
 20
3951.61919221
  0
VERTEX
  8
0
 10
2819.39067446
 20
3951.73432639
  0
VERTEX
  8
0
 10
2819.22577421
 20
3951.83450578
  0
VERTEX
  8
0
 10
2819.05094570
 20
3951.91872506
  0
VERTEX
  8
0
 10
2818.86719427
 20
3951.98597894
  0
VERTEX
  8
0
 10
2818.67552520
 20
3952.03526209
  0
VERTEX
  8
0
 10
2818.47694383
 20
3952.06556920
  0
VERTEX
  8
0
 10
2818.27245545
 20
3952.07589498
  0
VERTEX
  8
0
 10
2818.06796706
 20
3952.06556920
  0
VERTEX
  8
0
 10
2817.86938569
 20
3952.03526209
  0
VERTEX
  8
0
 10
2817.67771663
 20
3951.98597894
  0
VERTEX
  8
0
 10
2817.49396519
 20
3951.91872506
  0
VERTEX
  8
0
 10
2817.31913669
 20
3951.83450578
  0
VERTEX
  8
0
 10
2817.15423643
 20
3951.73432639
  0
VERTEX
  8
0
 10
2817.00026972
 20
3951.61919221
  0
VERTEX
  8
0
 10
2816.85824188
 20
3951.49010854
  0
VERTEX
  8
0
 10
2816.72915822
 20
3951.34808070
  0
VERTEX
  8
0
 10
2816.61402403
 20
3951.19411400
  0
VERTEX
  8
0
 10
2816.51384465
 20
3951.02921374
  0
VERTEX
  8
0
 10
2816.42962536
 20
3950.85438524
  0
VERTEX
  8
0
 10
2816.36237149
 20
3950.67063380
  0
VERTEX
  8
0
 10
2816.31308834
 20
3950.47896474
  0
VERTEX
  8
0
 10
2816.28278122
 20
3950.28038336
  0
VERTEX
  8
0
 10
2816.27245545
 20
3950.07589498
  0
VERTEX
  8
0
 10
2816.28278122
 20
3949.87140660
  0
VERTEX
  8
0
 10
2816.31308834
 20
3949.67282522
  0
VERTEX
  8
0
 10
2816.36237149
 20
3949.48115616
  0
VERTEX
  8
0
 10
2816.42962536
 20
3949.29740472
  0
VERTEX
  8
0
 10
2816.51384465
 20
3949.12257622
  0
VERTEX
  8
0
 10
2816.61402403
 20
3948.95767596
  0
VERTEX
  8
0
 10
2816.72915822
 20
3948.80370926
  0
VERTEX
  8
0
 10
2816.85824188
 20
3948.66168142
  0
VERTEX
  8
0
 10
2817.00026972
 20
3948.53259775
  0
VERTEX
  8
0
 10
2817.15423643
 20
3948.41746357
  0
VERTEX
  8
0
 10
2817.31913669
 20
3948.31728418
  0
VERTEX
  8
0
 10
2817.49396519
 20
3948.23306489
  0
VERTEX
  8
0
 10
2817.67771663
 20
3948.16581102
  0
VERTEX
  8
0
 10
2817.86938569
 20
3948.11652787
  0
VERTEX
  8
0
 10
2818.06796706
 20
3948.08622075
  0
VERTEX
  8
0
 10
2818.27245545
 20
3948.07589498
  0
VERTEX
  8
0
 10
2818.47694383
 20
3948.08622075
  0
VERTEX
  8
0
 10
2818.67552520
 20
3948.11652787
  0
VERTEX
  8
0
 10
2818.86719427
 20
3948.16581102
  0
VERTEX
  8
0
 10
2819.05094570
 20
3948.23306489
  0
VERTEX
  8
0
 10
2819.22577421
 20
3948.31728418
  0
VERTEX
  8
0
 10
2819.39067446
 20
3948.41746357
  0
VERTEX
  8
0
 10
2819.54464117
 20
3948.53259775
  0
VERTEX
  8
0
 10
2819.68666901
 20
3948.66168142
  0
VERTEX
  8
0
 10
2819.81575267
 20
3948.80370926
  0
VERTEX
  8
0
 10
2819.93088686
 20
3948.95767596
  0
VERTEX
  8
0
 10
2820.03106625
 20
3949.12257622
  0
VERTEX
  8
0
 10
2820.11528553
 20
3949.29740472
  0
VERTEX
  8
0
 10
2820.18253940
 20
3949.48115616
  0
VERTEX
  8
0
 10
2820.23182255
 20
3949.67282522
  0
VERTEX
  8
0
 10
2820.26212967
 20
3949.87140660
  0
VERTEX
  8
0
 10
2820.27245545
 20
3950.07589498
  0
SEQEND
  0
POLYLINE
  8
Default Layer
 66
   1
 39
0.000000
 70
    1
  0
VERTEX
  8
0
 10
2768.29561528
 20
4774.75737543
  0
VERTEX
  8
0
 10
2768.29561528
 20
3623.76237624
  0
VERTEX
  8
0
 10
3073.29561528
 20
3623.76237624
  0
VERTEX
  8
0
 10
3073.29561528
 20
4843.76237624
  0
VERTEX
  8
0
 10
2768.29561528
 20
4843.76237624
  0
VERTEX
  8
0
 10
2768.29561528
 20
4802.75737543
  0
VERTEX
  8
0
 10
2762.29774278
 20
4802.75737543
  0
VERTEX
  8
0
 10
2762.29774278
 20
4774.75737543
  0
VERTEX
  8
0
 10
2768.29561528
 20
4774.75737543
  0
SEQEND
  0
POLYLINE
  8
Default Layer
 66
   1
 39
0.000000
 70
    1
  0
VERTEX
  8
0
 10
1434.52866337
 20
4733.05930835
  0
VERTEX
  8
0
 10
1434.53898914
 20
4732.85481996
  0
VERTEX
  8
0
 10
1434.56929626
 20
4732.65623859
  0
VERTEX
  8
0
 10
1434.61857941
 20
4732.46456952
  0
VERTEX
  8
0
 10
1434.68583328
 20
4732.28081809
  0
VERTEX
  8
0
 10
1434.77005257
 20
4732.10598958
  0
VERTEX
  8
0
 10
1434.87023196
 20
4731.94108933
  0
VERTEX
  8
0
 10
1434.98536614
 20
4731.78712262
  0
VERTEX
  8
0
 10
1435.11444980
 20
4731.64509478
  0
VERTEX
  8
0
 10
1435.25647764
 20
4731.51601112
  0
VERTEX
  8
0
 10
1435.41044435
 20
4731.40087693
  0
VERTEX
  8
0
 10
1435.57534461
 20
4731.30069755
  0
VERTEX
  8
0
 10
1435.75017311
 20
4731.21647826
  0
VERTEX
  8
0
 10
1435.93392455
 20
4731.14922439
  0
VERTEX
  8
0
 10
1436.12559361
 20
4731.09994124
  0
VERTEX
  8
0
 10
1436.32417498
 20
4731.06963412
  0
VERTEX
  8
0
 10
1436.52866337
 20
4731.05930835
  0
VERTEX
  8
0
 10
1436.73315175
 20
4731.06963412
  0
VERTEX
  8
0
 10
1436.93173313
 20
4731.09994124
  0
VERTEX
  8
0
 10
1437.12340219
 20
4731.14922439
  0
VERTEX
  8
0
 10
1437.30715362
 20
4731.21647826
  0
VERTEX
  8
0
 10
1437.48198213
 20
4731.30069755
  0
VERTEX
  8
0
 10
1437.64688238
 20
4731.40087693
  0
VERTEX
  8
0
 10
1437.80084909
 20
4731.51601112
  0
VERTEX
  8
0
 10
1437.94287693
 20
4731.64509478
  0
VERTEX
  8
0
 10
1438.07196059
 20
4731.78712262
  0
VERTEX
  8
0
 10
1438.18709478
 20
4731.94108933
  0
VERTEX
  8
0
 10
1438.28727417
 20
4732.10598958
  0
VERTEX
  8
0
 10
1438.37149345
 20
4732.28081809
  0
VERTEX
  8
0
 10
1438.43874732
 20
4732.46456952
  0
VERTEX
  8
0
 10
1438.48803047
 20
4732.65623859
  0
VERTEX
  8
0
 10
1438.51833759
 20
4732.85481996
  0
VERTEX
  8
0
 10
1438.52866337
 20
4733.05930835
  0
VERTEX
  8
0
 10
1438.51833759
 20
4733.26379673
  0
VERTEX
  8
0
 10
1438.48803047
 20
4733.46237810
  0
VERTEX
  8
0
 10
1438.43874732
 20
4733.65404717
  0
VERTEX
  8
0
 10
1438.37149345
 20
4733.83779860
  0
VERTEX
  8
0
 10
1438.28727417
 20
4734.01262711
  0
VERTEX
  8
0
 10
1438.18709478
 20
4734.17752736
  0
VERTEX
  8
0
 10
1438.07196059
 20
4734.33149407
  0
VERTEX
  8
0
 10
1437.94287693
 20
4734.47352191
  0
VERTEX
  8
0
 10
1437.80084909
 20
4734.60260557
  0
VERTEX
  8
0
 10
1437.64688238
 20
4734.71773976
  0
VERTEX
  8
0
 10
1437.48198213
 20
4734.81791915
  0
VERTEX
  8
0
 10
1437.30715362
 20
4734.90213843
  0
VERTEX
  8
0
 10
1437.12340219
 20
4734.96939230
  0
VERTEX
  8
0
 10
1436.93173313
 20
4735.01867545
  0
VERTEX
  8
0
 10
1436.73315175
 20
4735.04898257
  0
VERTEX
  8
0
 10
1436.52866337
 20
4735.05930835
  0
VERTEX
  8
0
 10
1436.32417498
 20
4735.04898257
  0
VERTEX
  8
0
 10
1436.12559361
 20
4735.01867545
  0
VERTEX
  8
0
 10
1435.93392455
 20
4734.96939230
  0
VERTEX
  8
0
 10
1435.75017311
 20
4734.90213843
  0
VERTEX
  8
0
 10
1435.57534461
 20
4734.81791915
  0
VERTEX
  8
0
 10
1435.41044435
 20
4734.71773976
  0
VERTEX
  8
0
 10
1435.25647764
 20
4734.60260557
  0
VERTEX
  8
0
 10
1435.11444980
 20
4734.47352191
  0
VERTEX
  8
0
 10
1434.98536614
 20
4734.33149407
  0
VERTEX
  8
0
 10
1434.87023196
 20
4734.17752736
  0
VERTEX
  8
0
 10
1434.77005257
 20
4734.01262711
  0
VERTEX
  8
0
 10
1434.68583328
 20
4733.83779860
  0
VERTEX
  8
0
 10
1434.61857941
 20
4733.65404717
  0
VERTEX
  8
0
 10
1434.56929626
 20
4733.46237810
  0
VERTEX
  8
0
 10
1434.53898914
 20
4733.26379673
  0
VERTEX
  8
0
 10
1434.52866337
 20
4733.05930835
  0
SEQEND
  0
POLYLINE
  8
Default Layer
 66
   1
 39
0.000000
 70
    1
  0
VERTEX
  8
0
 10
1738.52866337
 20
4733.05930835
  0
VERTEX
  8
0
 10
1738.53898914
 20
4732.85481996
  0
VERTEX
  8
0
 10
1738.56929626
 20
4732.65623859
  0
VERTEX
  8
0
 10
1738.61857941
 20
4732.46456952
  0
VERTEX
  8
0
 10
1738.68583328
 20
4732.28081809
  0
VERTEX
  8
0
 10
1738.77005257
 20
4732.10598958
  0
VERTEX
  8
0
 10
1738.87023196
 20
4731.94108933
  0
VERTEX
  8
0
 10
1738.98536614
 20
4731.78712262
  0
VERTEX
  8
0
 10
1739.11444980
 20
4731.64509478
  0
VERTEX
  8
0
 10
1739.25647764
 20
4731.51601112
  0
VERTEX
  8
0
 10
1739.41044435
 20
4731.40087693
  0
VERTEX
  8
0
 10
1739.57534461
 20
4731.30069755
  0
VERTEX
  8
0
 10
1739.75017311
 20
4731.21647826
  0
VERTEX
  8
0
 10
1739.93392455
 20
4731.14922439
  0
VERTEX
  8
0
 10
1740.12559361
 20
4731.09994124
  0
VERTEX
  8
0
 10
1740.32417498
 20
4731.06963412
  0
VERTEX
  8
0
 10
1740.52866337
 20
4731.05930835
  0
VERTEX
  8
0
 10
1740.73315175
 20
4731.06963412
  0
VERTEX
  8
0
 10
1740.93173313
 20
4731.09994124
  0
VERTEX
  8
0
 10
1741.12340219
 20
4731.14922439
  0
VERTEX
  8
0
 10
1741.30715362
 20
4731.21647826
  0
VERTEX
  8
0
 10
1741.48198213
 20
4731.30069755
  0
VERTEX
  8
0
 10
1741.64688238
 20
4731.40087693
  0
VERTEX
  8
0
 10
1741.80084909
 20
4731.51601112
  0
VERTEX
  8
0
 10
1741.94287693
 20
4731.64509478
  0
VERTEX
  8
0
 10
1742.07196059
 20
4731.78712262
  0
VERTEX
  8
0
 10
1742.18709478
 20
4731.94108933
  0
VERTEX
  8
0
 10
1742.28727417
 20
4732.10598958
  0
VERTEX
  8
0
 10
1742.37149345
 20
4732.28081809
  0
VERTEX
  8
0
 10
1742.43874732
 20
4732.46456952
  0
VERTEX
  8
0
 10
1742.48803047
 20
4732.65623859
  0
VERTEX
  8
0
 10
1742.51833759
 20
4732.85481996
  0
VERTEX
  8
0
 10
1742.52866337
 20
4733.05930835
  0
VERTEX
  8
0
 10
1742.51833759
 20
4733.26379673
  0
VERTEX
  8
0
 10
1742.48803047
 20
4733.46237810
  0
VERTEX
  8
0
 10
1742.43874732
 20
4733.65404717
  0
VERTEX
  8
0
 10
1742.37149345
 20
4733.83779860
  0
VERTEX
  8
0
 10
1742.28727417
 20
4734.01262711
  0
VERTEX
  8
0
 10
1742.18709478
 20
4734.17752736
  0
VERTEX
  8
0
 10
1742.07196059
 20
4734.33149407
  0
VERTEX
  8
0
 10
1741.94287693
 20
4734.47352191
  0
VERTEX
  8
0
 10
1741.80084909
 20
4734.60260557
  0
VERTEX
  8
0
 10
1741.64688238
 20
4734.71773976
  0
VERTEX
  8
0
 10
1741.48198213
 20
4734.81791915
  0
VERTEX
  8
0
 10
1741.30715362
 20
4734.90213843
  0
VERTEX
  8
0
 10
1741.12340219
 20
4734.96939230
  0
VERTEX
  8
0
 10
1740.93173313
 20
4735.01867545
  0
VERTEX
  8
0
 10
1740.73315175
 20
4735.04898257
  0
VERTEX
  8
0
 10
1740.52866337
 20
4735.05930835
  0
VERTEX
  8
0
 10
1740.32417498
 20
4735.04898257
  0
VERTEX
  8
0
 10
1740.12559361
 20
4735.01867545
  0
VERTEX
  8
0
 10
1739.93392455
 20
4734.96939230
  0
VERTEX
  8
0
 10
1739.75017311
 20
4734.90213843
  0
VERTEX
  8
0
 10
1739.57534461
 20
4734.81791915
  0
VERTEX
  8
0
 10
1739.41044435
 20
4734.71773976
  0
VERTEX
  8
0
 10
1739.25647764
 20
4734.60260557
  0
VERTEX
  8
0
 10
1739.11444980
 20
4734.47352191
  0
VERTEX
  8
0
 10
1738.98536614
 20
4734.33149407
  0
VERTEX
  8
0
 10
1738.87023196
 20
4734.17752736
  0
VERTEX
  8
0
 10
1738.77005257
 20
4734.01262711
  0
VERTEX
  8
0
 10
1738.68583328
 20
4733.83779860
  0
VERTEX
  8
0
 10
1738.61857941
 20
4733.65404717
  0
VERTEX
  8
0
 10
1738.56929626
 20
4733.46237810
  0
VERTEX
  8
0
 10
1738.53898914
 20
4733.26379673
  0
VERTEX
  8
0
 10
1738.52866337
 20
4733.05930835
  0
SEQEND
  0
POLYLINE
  8
Default Layer
 66
   1
 39
0.000000
 70
    1
  0
VERTEX
  8
0
 10
2042.52866337
 20
4733.05930835
  0
VERTEX
  8
0
 10
2042.53898914
 20
4732.85481996
  0
VERTEX
  8
0
 10
2042.56929626
 20
4732.65623859
  0
VERTEX
  8
0
 10
2042.61857941
 20
4732.46456952
  0
VERTEX
  8
0
 10
2042.68583328
 20
4732.28081809
  0
VERTEX
  8
0
 10
2042.77005257
 20
4732.10598958
  0
VERTEX
  8
0
 10
2042.87023196
 20
4731.94108933
  0
VERTEX
  8
0
 10
2042.98536614
 20
4731.78712262
  0
VERTEX
  8
0
 10
2043.11444980
 20
4731.64509478
  0
VERTEX
  8
0
 10
2043.25647764
 20
4731.51601112
  0
VERTEX
  8
0
 10
2043.41044435
 20
4731.40087693
  0
VERTEX
  8
0
 10
2043.57534461
 20
4731.30069755
  0
VERTEX
  8
0
 10
2043.75017311
 20
4731.21647826
  0
VERTEX
  8
0
 10
2043.93392455
 20
4731.14922439
  0
VERTEX
  8
0
 10
2044.12559361
 20
4731.09994124
  0
VERTEX
  8
0
 10
2044.32417498
 20
4731.06963412
  0
VERTEX
  8
0
 10
2044.52866337
 20
4731.05930835
  0
VERTEX
  8
0
 10
2044.73315175
 20
4731.06963412
  0
VERTEX
  8
0
 10
2044.93173313
 20
4731.09994124
  0
VERTEX
  8
0
 10
2045.12340219
 20
4731.14922439
  0
VERTEX
  8
0
 10
2045.30715362
 20
4731.21647826
  0
VERTEX
  8
0
 10
2045.48198213
 20
4731.30069755
  0
VERTEX
  8
0
 10
2045.64688238
 20
4731.40087693
  0
VERTEX
  8
0
 10
2045.80084909
 20
4731.51601112
  0
VERTEX
  8
0
 10
2045.94287693
 20
4731.64509478
  0
VERTEX
  8
0
 10
2046.07196059
 20
4731.78712262
  0
VERTEX
  8
0
 10
2046.18709478
 20
4731.94108933
  0
VERTEX
  8
0
 10
2046.28727417
 20
4732.10598958
  0
VERTEX
  8
0
 10
2046.37149345
 20
4732.28081809
  0
VERTEX
  8
0
 10
2046.43874732
 20
4732.46456952
  0
VERTEX
  8
0
 10
2046.48803047
 20
4732.65623859
  0
VERTEX
  8
0
 10
2046.51833759
 20
4732.85481996
  0
VERTEX
  8
0
 10
2046.52866337
 20
4733.05930835
  0
VERTEX
  8
0
 10
2046.51833759
 20
4733.26379673
  0
VERTEX
  8
0
 10
2046.48803047
 20
4733.46237810
  0
VERTEX
  8
0
 10
2046.43874732
 20
4733.65404717
  0
VERTEX
  8
0
 10
2046.37149345
 20
4733.83779860
  0
VERTEX
  8
0
 10
2046.28727417
 20
4734.01262711
  0
VERTEX
  8
0
 10
2046.18709478
 20
4734.17752736
  0
VERTEX
  8
0
 10
2046.07196059
 20
4734.33149407
  0
VERTEX
  8
0
 10
2045.94287693
 20
4734.47352191
  0
VERTEX
  8
0
 10
2045.80084909
 20
4734.60260557
  0
VERTEX
  8
0
 10
2045.64688238
 20
4734.71773976
  0
VERTEX
  8
0
 10
2045.48198213
 20
4734.81791915
  0
VERTEX
  8
0
 10
2045.30715362
 20
4734.90213843
  0
VERTEX
  8
0
 10
2045.12340219
 20
4734.96939230
  0
VERTEX
  8
0
 10
2044.93173313
 20
4735.01867545
  0
VERTEX
  8
0
 10
2044.73315175
 20
4735.04898257
  0
VERTEX
  8
0
 10
2044.52866337
 20
4735.05930835
  0
VERTEX
  8
0
 10
2044.32417498
 20
4735.04898257
  0
VERTEX
  8
0
 10
2044.12559361
 20
4735.01867545
  0
VERTEX
  8
0
 10
2043.93392455
 20
4734.96939230
  0
VERTEX
  8
0
 10
2043.75017311
 20
4734.90213843
  0
VERTEX
  8
0
 10
2043.57534461
 20
4734.81791915
  0
VERTEX
  8
0
 10
2043.41044435
 20
4734.71773976
  0
VERTEX
  8
0
 10
2043.25647764
 20
4734.60260557
  0
VERTEX
  8
0
 10
2043.11444980
 20
4734.47352191
  0
VERTEX
  8
0
 10
2042.98536614
 20
4734.33149407
  0
VERTEX
  8
0
 10
2042.87023196
 20
4734.17752736
  0
VERTEX
  8
0
 10
2042.77005257
 20
4734.01262711
  0
VERTEX
  8
0
 10
2042.68583328
 20
4733.83779860
  0
VERTEX
  8
0
 10
2042.61857941
 20
4733.65404717
  0
VERTEX
  8
0
 10
2042.56929626
 20
4733.46237810
  0
VERTEX
  8
0
 10
2042.53898914
 20
4733.26379673
  0
VERTEX
  8
0
 10
2042.52866337
 20
4733.05930835
  0
SEQEND
  0
POLYLINE
  8
Default Layer
 66
   1
 39
0.000000
 70
    1
  0
VERTEX
  8
0
 10
2346.74966337
 20
4733.05930835
  0
VERTEX
  8
0
 10
2346.75998914
 20
4732.85481996
  0
VERTEX
  8
0
 10
2346.79029626
 20
4732.65623859
  0
VERTEX
  8
0
 10
2346.83957941
 20
4732.46456952
  0
VERTEX
  8
0
 10
2346.90683328
 20
4732.28081809
  0
VERTEX
  8
0
 10
2346.99105257
 20
4732.10598958
  0
VERTEX
  8
0
 10
2347.09123196
 20
4731.94108933
  0
VERTEX
  8
0
 10
2347.20636614
 20
4731.78712262
  0
VERTEX
  8
0
 10
2347.33544980
 20
4731.64509478
  0
VERTEX
  8
0
 10
2347.47747764
 20
4731.51601112
  0
VERTEX
  8
0
 10
2347.63144435
 20
4731.40087693
  0
VERTEX
  8
0
 10
2347.79634461
 20
4731.30069755
  0
VERTEX
  8
0
 10
2347.97117311
 20
4731.21647826
  0
VERTEX
  8
0
 10
2348.15492455
 20
4731.14922439
  0
VERTEX
  8
0
 10
2348.34659361
 20
4731.09994124
  0
VERTEX
  8
0
 10
2348.54517498
 20
4731.06963412
  0
VERTEX
  8
0
 10
2348.74966337
 20
4731.05930835
  0
VERTEX
  8
0
 10
2348.95415175
 20
4731.06963412
  0
VERTEX
  8
0
 10
2349.15273313
 20
4731.09994124
  0
VERTEX
  8
0
 10
2349.34440219
 20
4731.14922439
  0
VERTEX
  8
0
 10
2349.52815362
 20
4731.21647826
  0
VERTEX
  8
0
 10
2349.70298213
 20
4731.30069755
  0
VERTEX
  8
0
 10
2349.86788238
 20
4731.40087693
  0
VERTEX
  8
0
 10
2350.02184909
 20
4731.51601112
  0
VERTEX
  8
0
 10
2350.16387693
 20
4731.64509478
  0
VERTEX
  8
0
 10
2350.29296059
 20
4731.78712262
  0
VERTEX
  8
0
 10
2350.40809478
 20
4731.94108933
  0
VERTEX
  8
0
 10
2350.50827417
 20
4732.10598958
  0
VERTEX
  8
0
 10
2350.59249345
 20
4732.28081809
  0
VERTEX
  8
0
 10
2350.65974732
 20
4732.46456952
  0
VERTEX
  8
0
 10
2350.70903047
 20
4732.65623859
  0
VERTEX
  8
0
 10
2350.73933759
 20
4732.85481996
  0
VERTEX
  8
0
 10
2350.74966337
 20
4733.05930835
  0
VERTEX
  8
0
 10
2350.73933759
 20
4733.26379673
  0
VERTEX
  8
0
 10
2350.70903047
 20
4733.46237810
  0
VERTEX
  8
0
 10
2350.65974732
 20
4733.65404717
  0
VERTEX
  8
0
 10
2350.59249345
 20
4733.83779860
  0
VERTEX
  8
0
 10
2350.50827417
 20
4734.01262711
  0
VERTEX
  8
0
 10
2350.40809478
 20
4734.17752736
  0
VERTEX
  8
0
 10
2350.29296059
 20
4734.33149407
  0
VERTEX
  8
0
 10
2350.16387693
 20
4734.47352191
  0
VERTEX
  8
0
 10
2350.02184909
 20
4734.60260557
  0
VERTEX
  8
0
 10
2349.86788238
 20
4734.71773976
  0
VERTEX
  8
0
 10
2349.70298213
 20
4734.81791915
  0
VERTEX
  8
0
 10
2349.52815362
 20
4734.90213843
  0
VERTEX
  8
0
 10
2349.34440219
 20
4734.96939230
  0
VERTEX
  8
0
 10
2349.15273313
 20
4735.01867545
  0
VERTEX
  8
0
 10
2348.95415175
 20
4735.04898257
  0
VERTEX
  8
0
 10
2348.74966337
 20
4735.05930835
  0
VERTEX
  8
0
 10
2348.54517498
 20
4735.04898257
  0
VERTEX
  8
0
 10
2348.34659361
 20
4735.01867545
  0
VERTEX
  8
0
 10
2348.15492455
 20
4734.96939230
  0
VERTEX
  8
0
 10
2347.97117311
 20
4734.90213843
  0
VERTEX
  8
0
 10
2347.79634461
 20
4734.81791915
  0
VERTEX
  8
0
 10
2347.63144435
 20
4734.71773976
  0
VERTEX
  8
0
 10
2347.47747764
 20
4734.60260557
  0
VERTEX
  8
0
 10
2347.33544980
 20
4734.47352191
  0
VERTEX
  8
0
 10
2347.20636614
 20
4734.33149407
  0
VERTEX
  8
0
 10
2347.09123196
 20
4734.17752736
  0
VERTEX
  8
0
 10
2346.99105257
 20
4734.01262711
  0
VERTEX
  8
0
 10
2346.90683328
 20
4733.83779860
  0
VERTEX
  8
0
 10
2346.83957941
 20
4733.65404717
  0
VERTEX
  8
0
 10
2346.79029626
 20
4733.46237810
  0
VERTEX
  8
0
 10
2346.75998914
 20
4733.26379673
  0
VERTEX
  8
0
 10
2346.74966337
 20
4733.05930835
  0
SEQEND
  0
POLYLINE
  8
Default Layer
 66
   1
 39
0.000000
 70
    1
  0
VERTEX
  8
0
 10
1434.52866337
 20
4449.06310962
  0
VERTEX
  8
0
 10
1434.53898914
 20
4448.85862124
  0
VERTEX
  8
0
 10
1434.56929626
 20
4448.66003986
  0
VERTEX
  8
0
 10
1434.61857941
 20
4448.46837080
  0
VERTEX
  8
0
 10
1434.68583328
 20
4448.28461936
  0
VERTEX
  8
0
 10
1434.77005257
 20
4448.10979086
  0
VERTEX
  8
0
 10
1434.87023196
 20
4447.94489060
  0
VERTEX
  8
0
 10
1434.98536614
 20
4447.79092390
  0
VERTEX
  8
0
 10
1435.11444980
 20
4447.64889606
  0
VERTEX
  8
0
 10
1435.25647764
 20
4447.51981239
  0
VERTEX
  8
0
 10
1435.41044435
 20
4447.40467821
  0
VERTEX
  8
0
 10
1435.57534461
 20
4447.30449882
  0
VERTEX
  8
0
 10
1435.75017311
 20
4447.22027953
  0
VERTEX
  8
0
 10
1435.93392455
 20
4447.15302566
  0
VERTEX
  8
0
 10
1436.12559361
 20
4447.10374251
  0
VERTEX
  8
0
 10
1436.32417498
 20
4447.07343539
  0
VERTEX
  8
0
 10
1436.52866337
 20
4447.06310962
  0
VERTEX
  8
0
 10
1436.73315175
 20
4447.07343539
  0
VERTEX
  8
0
 10
1436.93173313
 20
4447.10374251
  0
VERTEX
  8
0
 10
1437.12340219
 20
4447.15302566
  0
VERTEX
  8
0
 10
1437.30715362
 20
4447.22027953
  0
VERTEX
  8
0
 10
1437.48198213
 20
4447.30449882
  0
VERTEX
  8
0
 10
1437.64688238
 20
4447.40467821
  0
VERTEX
  8
0
 10
1437.80084909
 20
4447.51981239
  0
VERTEX
  8
0
 10
1437.94287693
 20
4447.64889606
  0
VERTEX
  8
0
 10
1438.07196059
 20
4447.79092390
  0
VERTEX
  8
0
 10
1438.18709478
 20
4447.94489060
  0
VERTEX
  8
0
 10
1438.28727417
 20
4448.10979086
  0
VERTEX
  8
0
 10
1438.37149345
 20
4448.28461936
  0
VERTEX
  8
0
 10
1438.43874732
 20
4448.46837080
  0
VERTEX
  8
0
 10
1438.48803047
 20
4448.66003986
  0
VERTEX
  8
0
 10
1438.51833759
 20
4448.85862124
  0
VERTEX
  8
0
 10
1438.52866337
 20
4449.06310962
  0
VERTEX
  8
0
 10
1438.51833759
 20
4449.26759800
  0
VERTEX
  8
0
 10
1438.48803047
 20
4449.46617938
  0
VERTEX
  8
0
 10
1438.43874732
 20
4449.65784844
  0
VERTEX
  8
0
 10
1438.37149345
 20
4449.84159988
  0
VERTEX
  8
0
 10
1438.28727417
 20
4450.01642838
  0
VERTEX
  8
0
 10
1438.18709478
 20
4450.18132864
  0
VERTEX
  8
0
 10
1438.07196059
 20
4450.33529534
  0
VERTEX
  8
0
 10
1437.94287693
 20
4450.47732318
  0
VERTEX
  8
0
 10
1437.80084909
 20
4450.60640685
  0
VERTEX
  8
0
 10
1437.64688238
 20
4450.72154103
  0
VERTEX
  8
0
 10
1437.48198213
 20
4450.82172042
  0
VERTEX
  8
0
 10
1437.30715362
 20
4450.90593970
  0
VERTEX
  8
0
 10
1437.12340219
 20
4450.97319358
  0
VERTEX
  8
0
 10
1436.93173313
 20
4451.02247673
  0
VERTEX
  8
0
 10
1436.73315175
 20
4451.05278384
  0
VERTEX
  8
0
 10
1436.52866337
 20
4451.06310962
  0
VERTEX
  8
0
 10
1436.32417498
 20
4451.05278384
  0
VERTEX
  8
0
 10
1436.12559361
 20
4451.02247673
  0
VERTEX
  8
0
 10
1435.93392455
 20
4450.97319358
  0
VERTEX
  8
0
 10
1435.75017311
 20
4450.90593970
  0
VERTEX
  8
0
 10
1435.57534461
 20
4450.82172042
  0
VERTEX
  8
0
 10
1435.41044435
 20
4450.72154103
  0
VERTEX
  8
0
 10
1435.25647764
 20
4450.60640685
  0
VERTEX
  8
0
 10
1435.11444980
 20
4450.47732318
  0
VERTEX
  8
0
 10
1434.98536614
 20
4450.33529534
  0
VERTEX
  8
0
 10
1434.87023196
 20
4450.18132864
  0
VERTEX
  8
0
 10
1434.77005257
 20
4450.01642838
  0
VERTEX
  8
0
 10
1434.68583328
 20
4449.84159988
  0
VERTEX
  8
0
 10
1434.61857941
 20
4449.65784844
  0
VERTEX
  8
0
 10
1434.56929626
 20
4449.46617938
  0
VERTEX
  8
0
 10
1434.53898914
 20
4449.26759800
  0
VERTEX
  8
0
 10
1434.52866337
 20
4449.06310962
  0
SEQEND
  0
POLYLINE
  8
Default Layer
 66
   1
 39
0.000000
 70
    1
  0
VERTEX
  8
0
 10
2346.74966337
 20
4449.06310962
  0
VERTEX
  8
0
 10
2346.75998914
 20
4448.85862124
  0
VERTEX
  8
0
 10
2346.79029626
 20
4448.66003986
  0
VERTEX
  8
0
 10
2346.83957941
 20
4448.46837080
  0
VERTEX
  8
0
 10
2346.90683328
 20
4448.28461936
  0
VERTEX
  8
0
 10
2346.99105257
 20
4448.10979086
  0
VERTEX
  8
0
 10
2347.09123196
 20
4447.94489060
  0
VERTEX
  8
0
 10
2347.20636614
 20
4447.79092390
  0
VERTEX
  8
0
 10
2347.33544980
 20
4447.64889606
  0
VERTEX
  8
0
 10
2347.47747764
 20
4447.51981239
  0
VERTEX
  8
0
 10
2347.63144435
 20
4447.40467821
  0
VERTEX
  8
0
 10
2347.79634461
 20
4447.30449882
  0
VERTEX
  8
0
 10
2347.97117311
 20
4447.22027953
  0
VERTEX
  8
0
 10
2348.15492455
 20
4447.15302566
  0
VERTEX
  8
0
 10
2348.34659361
 20
4447.10374251
  0
VERTEX
  8
0
 10
2348.54517498
 20
4447.07343539
  0
VERTEX
  8
0
 10
2348.74966337
 20
4447.06310962
  0
VERTEX
  8
0
 10
2348.95415175
 20
4447.07343539
  0
VERTEX
  8
0
 10
2349.15273313
 20
4447.10374251
  0
VERTEX
  8
0
 10
2349.34440219
 20
4447.15302566
  0
VERTEX
  8
0
 10
2349.52815362
 20
4447.22027953
  0
VERTEX
  8
0
 10
2349.70298213
 20
4447.30449882
  0
VERTEX
  8
0
 10
2349.86788238
 20
4447.40467821
  0
VERTEX
  8
0
 10
2350.02184909
 20
4447.51981239
  0
VERTEX
  8
0
 10
2350.16387693
 20
4447.64889606
  0
VERTEX
  8
0
 10
2350.29296059
 20
4447.79092390
  0
VERTEX
  8
0
 10
2350.40809478
 20
4447.94489060
  0
VERTEX
  8
0
 10
2350.50827417
 20
4448.10979086
  0
VERTEX
  8
0
 10
2350.59249345
 20
4448.28461936
  0
VERTEX
  8
0
 10
2350.65974732
 20
4448.46837080
  0
VERTEX
  8
0
 10
2350.70903047
 20
4448.66003986
  0
VERTEX
  8
0
 10
2350.73933759
 20
4448.85862124
  0
VERTEX
  8
0
 10
2350.74966337
 20
4449.06310962
  0
VERTEX
  8
0
 10
2350.73933759
 20
4449.26759800
  0
VERTEX
  8
0
 10
2350.70903047
 20
4449.46617938
  0
VERTEX
  8
0
 10
2350.65974732
 20
4449.65784844
  0
VERTEX
  8
0
 10
2350.59249345
 20
4449.84159988
  0
VERTEX
  8
0
 10
2350.50827417
 20
4450.01642838
  0
VERTEX
  8
0
 10
2350.40809478
 20
4450.18132864
  0
VERTEX
  8
0
 10
2350.29296059
 20
4450.33529534
  0
VERTEX
  8
0
 10
2350.16387693
 20
4450.47732318
  0
VERTEX
  8
0
 10
2350.02184909
 20
4450.60640685
  0
VERTEX
  8
0
 10
2349.86788238
 20
4450.72154103
  0
VERTEX
  8
0
 10
2349.70298213
 20
4450.82172042
  0
VERTEX
  8
0
 10
2349.52815362
 20
4450.90593970
  0
VERTEX
  8
0
 10
2349.34440219
 20
4450.97319358
  0
VERTEX
  8
0
 10
2349.15273313
 20
4451.02247673
  0
VERTEX
  8
0
 10
2348.95415175
 20
4451.05278384
  0
VERTEX
  8
0
 10
2348.74966337
 20
4451.06310962
  0
VERTEX
  8
0
 10
2348.54517498
 20
4451.05278384
  0
VERTEX
  8
0
 10
2348.34659361
 20
4451.02247673
  0
VERTEX
  8
0
 10
2348.15492455
 20
4450.97319358
  0
VERTEX
  8
0
 10
2347.97117311
 20
4450.90593970
  0
VERTEX
  8
0
 10
2347.79634461
 20
4450.82172042
  0
VERTEX
  8
0
 10
2347.63144435
 20
4450.72154103
  0
VERTEX
  8
0
 10
2347.47747764
 20
4450.60640685
  0
VERTEX
  8
0
 10
2347.33544980
 20
4450.47732318
  0
VERTEX
  8
0
 10
2347.20636614
 20
4450.33529534
  0
VERTEX
  8
0
 10
2347.09123196
 20
4450.18132864
  0
VERTEX
  8
0
 10
2346.99105257
 20
4450.01642838
  0
VERTEX
  8
0
 10
2346.90683328
 20
4449.84159988
  0
VERTEX
  8
0
 10
2346.83957941
 20
4449.65784844
  0
VERTEX
  8
0
 10
2346.79029626
 20
4449.46617938
  0
VERTEX
  8
0
 10
2346.75998914
 20
4449.26759800
  0
VERTEX
  8
0
 10
2346.74966337
 20
4449.06310962
  0
SEQEND
  0
POLYLINE
  8
Default Layer
 66
   1
 39
0.000000
 70
    1
  0
VERTEX
  8
0
 10
2042.63315417
 20
4443.37401839
  0
VERTEX
  8
0
 10
2042.63315417
 20
4455.67401839
  0
VERTEX
  8
0
 10
2071.61143017
 20
4455.67401839
  0
VERTEX
  8
0
 10
2071.61143017
 20
4443.37401839
  0
VERTEX
  8
0
 10
2042.63315417
 20
4443.37401839
  0
SEQEND
  0
POLYLINE
  8
Default Layer
 66
   1
 39
0.000000
 70
    1
  0
VERTEX
  8
0
 10
1713.61629155
 20
4443.37401839
  0
VERTEX
  8
0
 10
1713.61629155
 20
4455.67401839
  0
VERTEX
  8
0
 10
1742.66066920
 20
4455.67401839
  0
VERTEX
  8
0
 10
1742.66066920
 20
4443.37401839
  0
VERTEX
  8
0
 10
1713.61629155
 20
4443.37401839
  0
SEQEND
  0
POLYLINE
  8
Default Layer
 66
   1
 39
0.000000
 70
    1
  0
VERTEX
  8
0
 10
1434.52866337
 20
4166.03756153
  0
VERTEX
  8
0
 10
1434.53898914
 20
4165.83307315
  0
VERTEX
  8
0
 10
1434.56929626
 20
4165.63449177
  0
VERTEX
  8
0
 10
1434.61857941
 20
4165.44282271
  0
VERTEX
  8
0
 10
1434.68583328
 20
4165.25907127
  0
VERTEX
  8
0
 10
1434.77005257
 20
4165.08424277
  0
VERTEX
  8
0
 10
1434.87023196
 20
4164.91934251
  0
VERTEX
  8
0
 10
1434.98536614
 20
4164.76537581
  0
VERTEX
  8
0
 10
1435.11444980
 20
4164.62334797
  0
VERTEX
  8
0
 10
1435.25647764
 20
4164.49426430
  0
VERTEX
  8
0
 10
1435.41044435
 20
4164.37913012
  0
VERTEX
  8
0
 10
1435.57534461
 20
4164.27895073
  0
VERTEX
  8
0
 10
1435.75017311
 20
4164.19473144
  0
VERTEX
  8
0
 10
1435.93392455
 20
4164.12747757
  0
VERTEX
  8
0
 10
1436.12559361
 20
4164.07819442
  0
VERTEX
  8
0
 10
1436.32417498
 20
4164.04788730
  0
VERTEX
  8
0
 10
1436.52866337
 20
4164.03756153
  0
VERTEX
  8
0
 10
1436.73315175
 20
4164.04788730
  0
VERTEX
  8
0
 10
1436.93173313
 20
4164.07819442
  0
VERTEX
  8
0
 10
1437.12340219
 20
4164.12747757
  0
VERTEX
  8
0
 10
1437.30715362
 20
4164.19473144
  0
VERTEX
  8
0
 10
1437.48198213
 20
4164.27895073
  0
VERTEX
  8
0
 10
1437.64688238
 20
4164.37913012
  0
VERTEX
  8
0
 10
1437.80084909
 20
4164.49426430
  0
VERTEX
  8
0
 10
1437.94287693
 20
4164.62334797
  0
VERTEX
  8
0
 10
1438.07196059
 20
4164.76537581
  0
VERTEX
  8
0
 10
1438.18709478
 20
4164.91934251
  0
VERTEX
  8
0
 10
1438.28727417
 20
4165.08424277
  0
VERTEX
  8
0
 10
1438.37149345
 20
4165.25907127
  0
VERTEX
  8
0
 10
1438.43874732
 20
4165.44282271
  0
VERTEX
  8
0
 10
1438.48803047
 20
4165.63449177
  0
VERTEX
  8
0
 10
1438.51833759
 20
4165.83307315
  0
VERTEX
  8
0
 10
1438.52866337
 20
4166.03756153
  0
VERTEX
  8
0
 10
1438.51833759
 20
4166.24204991
  0
VERTEX
  8
0
 10
1438.48803047
 20
4166.44063129
  0
VERTEX
  8
0
 10
1438.43874732
 20
4166.63230035
  0
VERTEX
  8
0
 10
1438.37149345
 20
4166.81605179
  0
VERTEX
  8
0
 10
1438.28727417
 20
4166.99088029
  0
VERTEX
  8
0
 10
1438.18709478
 20
4167.15578055
  0
VERTEX
  8
0
 10
1438.07196059
 20
4167.30974725
  0
VERTEX
  8
0
 10
1437.94287693
 20
4167.45177509
  0
VERTEX
  8
0
 10
1437.80084909
 20
4167.58085876
  0
VERTEX
  8
0
 10
1437.64688238
 20
4167.69599294
  0
VERTEX
  8
0
 10
1437.48198213
 20
4167.79617233
  0
VERTEX
  8
0
 10
1437.30715362
 20
4167.88039161
  0
VERTEX
  8
0
 10
1437.12340219
 20
4167.94764549
  0
VERTEX
  8
0
 10
1436.93173313
 20
4167.99692864
  0
VERTEX
  8
0
 10
1436.73315175
 20
4168.02723575
  0
VERTEX
  8
0
 10
1436.52866337
 20
4168.03756153
  0
VERTEX
  8
0
 10
1436.32417498
 20
4168.02723575
  0
VERTEX
  8
0
 10
1436.12559361
 20
4167.99692864
  0
VERTEX
  8
0
 10
1435.93392455
 20
4167.94764549
  0
VERTEX
  8
0
 10
1435.75017311
 20
4167.88039161
  0
VERTEX
  8
0
 10
1435.57534461
 20
4167.79617233
  0
VERTEX
  8
0
 10
1435.41044435
 20
4167.69599294
  0
VERTEX
  8
0
 10
1435.25647764
 20
4167.58085876
  0
VERTEX
  8
0
 10
1435.11444980
 20
4167.45177509
  0
VERTEX
  8
0
 10
1434.98536614
 20
4167.30974725
  0
VERTEX
  8
0
 10
1434.87023196
 20
4167.15578055
  0
VERTEX
  8
0
 10
1434.77005257
 20
4166.99088029
  0
VERTEX
  8
0
 10
1434.68583328
 20
4166.81605179
  0
VERTEX
  8
0
 10
1434.61857941
 20
4166.63230035
  0
VERTEX
  8
0
 10
1434.56929626
 20
4166.44063129
  0
VERTEX
  8
0
 10
1434.53898914
 20
4166.24204991
  0
VERTEX
  8
0
 10
1434.52866337
 20
4166.03756153
  0
SEQEND
  0
POLYLINE
  8
Default Layer
 66
   1
 39
0.000000
 70
    1
  0
VERTEX
  8
0
 10
1738.52866337
 20
4166.03756153
  0
VERTEX
  8
0
 10
1738.53898914
 20
4165.83307315
  0
VERTEX
  8
0
 10
1738.56929626
 20
4165.63449177
  0
VERTEX
  8
0
 10
1738.61857941
 20
4165.44282271
  0
VERTEX
  8
0
 10
1738.68583328
 20
4165.25907127
  0
VERTEX
  8
0
 10
1738.77005257
 20
4165.08424277
  0
VERTEX
  8
0
 10
1738.87023196
 20
4164.91934251
  0
VERTEX
  8
0
 10
1738.98536614
 20
4164.76537581
  0
VERTEX
  8
0
 10
1739.11444980
 20
4164.62334797
  0
VERTEX
  8
0
 10
1739.25647764
 20
4164.49426430
  0
VERTEX
  8
0
 10
1739.41044435
 20
4164.37913012
  0
VERTEX
  8
0
 10
1739.57534461
 20
4164.27895073
  0
VERTEX
  8
0
 10
1739.75017311
 20
4164.19473144
  0
VERTEX
  8
0
 10
1739.93392455
 20
4164.12747757
  0
VERTEX
  8
0
 10
1740.12559361
 20
4164.07819442
  0
VERTEX
  8
0
 10
1740.32417498
 20
4164.04788730
  0
VERTEX
  8
0
 10
1740.52866337
 20
4164.03756153
  0
VERTEX
  8
0
 10
1740.73315175
 20
4164.04788730
  0
VERTEX
  8
0
 10
1740.93173313
 20
4164.07819442
  0
VERTEX
  8
0
 10
1741.12340219
 20
4164.12747757
  0
VERTEX
  8
0
 10
1741.30715362
 20
4164.19473144
  0
VERTEX
  8
0
 10
1741.48198213
 20
4164.27895073
  0
VERTEX
  8
0
 10
1741.64688238
 20
4164.37913012
  0
VERTEX
  8
0
 10
1741.80084909
 20
4164.49426430
  0
VERTEX
  8
0
 10
1741.94287693
 20
4164.62334797
  0
VERTEX
  8
0
 10
1742.07196059
 20
4164.76537581
  0
VERTEX
  8
0
 10
1742.18709478
 20
4164.91934251
  0
VERTEX
  8
0
 10
1742.28727417
 20
4165.08424277
  0
VERTEX
  8
0
 10
1742.37149345
 20
4165.25907127
  0
VERTEX
  8
0
 10
1742.43874732
 20
4165.44282271
  0
VERTEX
  8
0
 10
1742.48803047
 20
4165.63449177
  0
VERTEX
  8
0
 10
1742.51833759
 20
4165.83307315
  0
VERTEX
  8
0
 10
1742.52866337
 20
4166.03756153
  0
VERTEX
  8
0
 10
1742.51833759
 20
4166.24204991
  0
VERTEX
  8
0
 10
1742.48803047
 20
4166.44063129
  0
VERTEX
  8
0
 10
1742.43874732
 20
4166.63230035
  0
VERTEX
  8
0
 10
1742.37149345
 20
4166.81605179
  0
VERTEX
  8
0
 10
1742.28727417
 20
4166.99088029
  0
VERTEX
  8
0
 10
1742.18709478
 20
4167.15578055
  0
VERTEX
  8
0
 10
1742.07196059
 20
4167.30974725
  0
VERTEX
  8
0
 10
1741.94287693
 20
4167.45177509
  0
VERTEX
  8
0
 10
1741.80084909
 20
4167.58085876
  0
VERTEX
  8
0
 10
1741.64688238
 20
4167.69599294
  0
VERTEX
  8
0
 10
1741.48198213
 20
4167.79617233
  0
VERTEX
  8
0
 10
1741.30715362
 20
4167.88039161
  0
VERTEX
  8
0
 10
1741.12340219
 20
4167.94764549
  0
VERTEX
  8
0
 10
1740.93173313
 20
4167.99692864
  0
VERTEX
  8
0
 10
1740.73315175
 20
4168.02723575
  0
VERTEX
  8
0
 10
1740.52866337
 20
4168.03756153
  0
VERTEX
  8
0
 10
1740.32417498
 20
4168.02723575
  0
VERTEX
  8
0
 10
1740.12559361
 20
4167.99692864
  0
VERTEX
  8
0
 10
1739.93392455
 20
4167.94764549
  0
VERTEX
  8
0
 10
1739.75017311
 20
4167.88039161
  0
VERTEX
  8
0
 10
1739.57534461
 20
4167.79617233
  0
VERTEX
  8
0
 10
1739.41044435
 20
4167.69599294
  0
VERTEX
  8
0
 10
1739.25647764
 20
4167.58085876
  0
VERTEX
  8
0
 10
1739.11444980
 20
4167.45177509
  0
VERTEX
  8
0
 10
1738.98536614
 20
4167.30974725
  0
VERTEX
  8
0
 10
1738.87023196
 20
4167.15578055
  0
VERTEX
  8
0
 10
1738.77005257
 20
4166.99088029
  0
VERTEX
  8
0
 10
1738.68583328
 20
4166.81605179
  0
VERTEX
  8
0
 10
1738.61857941
 20
4166.63230035
  0
VERTEX
  8
0
 10
1738.56929626
 20
4166.44063129
  0
VERTEX
  8
0
 10
1738.53898914
 20
4166.24204991
  0
VERTEX
  8
0
 10
1738.52866337
 20
4166.03756153
  0
SEQEND
  0
POLYLINE
  8
Default Layer
 66
   1
 39
0.000000
 70
    1
  0
VERTEX
  8
0
 10
2042.52866337
 20
4166.03756153
  0
VERTEX
  8
0
 10
2042.53898914
 20
4165.83307315
  0
VERTEX
  8
0
 10
2042.56929626
 20
4165.63449177
  0
VERTEX
  8
0
 10
2042.61857941
 20
4165.44282271
  0
VERTEX
  8
0
 10
2042.68583328
 20
4165.25907127
  0
VERTEX
  8
0
 10
2042.77005257
 20
4165.08424277
  0
VERTEX
  8
0
 10
2042.87023196
 20
4164.91934251
  0
VERTEX
  8
0
 10
2042.98536614
 20
4164.76537581
  0
VERTEX
  8
0
 10
2043.11444980
 20
4164.62334797
  0
VERTEX
  8
0
 10
2043.25647764
 20
4164.49426430
  0
VERTEX
  8
0
 10
2043.41044435
 20
4164.37913012
  0
VERTEX
  8
0
 10
2043.57534461
 20
4164.27895073
  0
VERTEX
  8
0
 10
2043.75017311
 20
4164.19473144
  0
VERTEX
  8
0
 10
2043.93392455
 20
4164.12747757
  0
VERTEX
  8
0
 10
2044.12559361
 20
4164.07819442
  0
VERTEX
  8
0
 10
2044.32417498
 20
4164.04788730
  0
VERTEX
  8
0
 10
2044.52866337
 20
4164.03756153
  0
VERTEX
  8
0
 10
2044.73315175
 20
4164.04788730
  0
VERTEX
  8
0
 10
2044.93173313
 20
4164.07819442
  0
VERTEX
  8
0
 10
2045.12340219
 20
4164.12747757
  0
VERTEX
  8
0
 10
2045.30715362
 20
4164.19473144
  0
VERTEX
  8
0
 10
2045.48198213
 20
4164.27895073
  0
VERTEX
  8
0
 10
2045.64688238
 20
4164.37913012
  0
VERTEX
  8
0
 10
2045.80084909
 20
4164.49426430
  0
VERTEX
  8
0
 10
2045.94287693
 20
4164.62334797
  0
VERTEX
  8
0
 10
2046.07196059
 20
4164.76537581
  0
VERTEX
  8
0
 10
2046.18709478
 20
4164.91934251
  0
VERTEX
  8
0
 10
2046.28727417
 20
4165.08424277
  0
VERTEX
  8
0
 10
2046.37149345
 20
4165.25907127
  0
VERTEX
  8
0
 10
2046.43874732
 20
4165.44282271
  0
VERTEX
  8
0
 10
2046.48803047
 20
4165.63449177
  0
VERTEX
  8
0
 10
2046.51833759
 20
4165.83307315
  0
VERTEX
  8
0
 10
2046.52866337
 20
4166.03756153
  0
VERTEX
  8
0
 10
2046.51833759
 20
4166.24204991
  0
VERTEX
  8
0
 10
2046.48803047
 20
4166.44063129
  0
VERTEX
  8
0
 10
2046.43874732
 20
4166.63230035
  0
VERTEX
  8
0
 10
2046.37149345
 20
4166.81605179
  0
VERTEX
  8
0
 10
2046.28727417
 20
4166.99088029
  0
VERTEX
  8
0
 10
2046.18709478
 20
4167.15578055
  0
VERTEX
  8
0
 10
2046.07196059
 20
4167.30974725
  0
VERTEX
  8
0
 10
2045.94287693
 20
4167.45177509
  0
VERTEX
  8
0
 10
2045.80084909
 20
4167.58085876
  0
VERTEX
  8
0
 10
2045.64688238
 20
4167.69599294
  0
VERTEX
  8
0
 10
2045.48198213
 20
4167.79617233
  0
VERTEX
  8
0
 10
2045.30715362
 20
4167.88039161
  0
VERTEX
  8
0
 10
2045.12340219
 20
4167.94764549
  0
VERTEX
  8
0
 10
2044.93173313
 20
4167.99692864
  0
VERTEX
  8
0
 10
2044.73315175
 20
4168.02723575
  0
VERTEX
  8
0
 10
2044.52866337
 20
4168.03756153
  0
VERTEX
  8
0
 10
2044.32417498
 20
4168.02723575
  0
VERTEX
  8
0
 10
2044.12559361
 20
4167.99692864
  0
VERTEX
  8
0
 10
2043.93392455
 20
4167.94764549
  0
VERTEX
  8
0
 10
2043.75017311
 20
4167.88039161
  0
VERTEX
  8
0
 10
2043.57534461
 20
4167.79617233
  0
VERTEX
  8
0
 10
2043.41044435
 20
4167.69599294
  0
VERTEX
  8
0
 10
2043.25647764
 20
4167.58085876
  0
VERTEX
  8
0
 10
2043.11444980
 20
4167.45177509
  0
VERTEX
  8
0
 10
2042.98536614
 20
4167.30974725
  0
VERTEX
  8
0
 10
2042.87023196
 20
4167.15578055
  0
VERTEX
  8
0
 10
2042.77005257
 20
4166.99088029
  0
VERTEX
  8
0
 10
2042.68583328
 20
4166.81605179
  0
VERTEX
  8
0
 10
2042.61857941
 20
4166.63230035
  0
VERTEX
  8
0
 10
2042.56929626
 20
4166.44063129
  0
VERTEX
  8
0
 10
2042.53898914
 20
4166.24204991
  0
VERTEX
  8
0
 10
2042.52866337
 20
4166.03756153
  0
SEQEND
  0
POLYLINE
  8
Default Layer
 66
   1
 39
0.000000
 70
    1
  0
VERTEX
  8
0
 10
2346.74966337
 20
4166.03756153
  0
VERTEX
  8
0
 10
2346.75998914
 20
4165.83307315
  0
VERTEX
  8
0
 10
2346.79029626
 20
4165.63449177
  0
VERTEX
  8
0
 10
2346.83957941
 20
4165.44282271
  0
VERTEX
  8
0
 10
2346.90683328
 20
4165.25907127
  0
VERTEX
  8
0
 10
2346.99105257
 20
4165.08424277
  0
VERTEX
  8
0
 10
2347.09123196
 20
4164.91934251
  0
VERTEX
  8
0
 10
2347.20636614
 20
4164.76537581
  0
VERTEX
  8
0
 10
2347.33544980
 20
4164.62334797
  0
VERTEX
  8
0
 10
2347.47747764
 20
4164.49426430
  0
VERTEX
  8
0
 10
2347.63144435
 20
4164.37913012
  0
VERTEX
  8
0
 10
2347.79634461
 20
4164.27895073
  0
VERTEX
  8
0
 10
2347.97117311
 20
4164.19473144
  0
VERTEX
  8
0
 10
2348.15492455
 20
4164.12747757
  0
VERTEX
  8
0
 10
2348.34659361
 20
4164.07819442
  0
VERTEX
  8
0
 10
2348.54517498
 20
4164.04788730
  0
VERTEX
  8
0
 10
2348.74966337
 20
4164.03756153
  0
VERTEX
  8
0
 10
2348.95415175
 20
4164.04788730
  0
VERTEX
  8
0
 10
2349.15273313
 20
4164.07819442
  0
VERTEX
  8
0
 10
2349.34440219
 20
4164.12747757
  0
VERTEX
  8
0
 10
2349.52815362
 20
4164.19473144
  0
VERTEX
  8
0
 10
2349.70298213
 20
4164.27895073
  0
VERTEX
  8
0
 10
2349.86788238
 20
4164.37913012
  0
VERTEX
  8
0
 10
2350.02184909
 20
4164.49426430
  0
VERTEX
  8
0
 10
2350.16387693
 20
4164.62334797
  0
VERTEX
  8
0
 10
2350.29296059
 20
4164.76537581
  0
VERTEX
  8
0
 10
2350.40809478
 20
4164.91934251
  0
VERTEX
  8
0
 10
2350.50827417
 20
4165.08424277
  0
VERTEX
  8
0
 10
2350.59249345
 20
4165.25907127
  0
VERTEX
  8
0
 10
2350.65974732
 20
4165.44282271
  0
VERTEX
  8
0
 10
2350.70903047
 20
4165.63449177
  0
VERTEX
  8
0
 10
2350.73933759
 20
4165.83307315
  0
VERTEX
  8
0
 10
2350.74966337
 20
4166.03756153
  0
VERTEX
  8
0
 10
2350.73933759
 20
4166.24204991
  0
VERTEX
  8
0
 10
2350.70903047
 20
4166.44063129
  0
VERTEX
  8
0
 10
2350.65974732
 20
4166.63230035
  0
VERTEX
  8
0
 10
2350.59249345
 20
4166.81605179
  0
VERTEX
  8
0
 10
2350.50827417
 20
4166.99088029
  0
VERTEX
  8
0
 10
2350.40809478
 20
4167.15578055
  0
VERTEX
  8
0
 10
2350.29296059
 20
4167.30974725
  0
VERTEX
  8
0
 10
2350.16387693
 20
4167.45177509
  0
VERTEX
  8
0
 10
2350.02184909
 20
4167.58085876
  0
VERTEX
  8
0
 10
2349.86788238
 20
4167.69599294
  0
VERTEX
  8
0
 10
2349.70298213
 20
4167.79617233
  0
VERTEX
  8
0
 10
2349.52815362
 20
4167.88039161
  0
VERTEX
  8
0
 10
2349.34440219
 20
4167.94764549
  0
VERTEX
  8
0
 10
2349.15273313
 20
4167.99692864
  0
VERTEX
  8
0
 10
2348.95415175
 20
4168.02723575
  0
VERTEX
  8
0
 10
2348.74966337
 20
4168.03756153
  0
VERTEX
  8
0
 10
2348.54517498
 20
4168.02723575
  0
VERTEX
  8
0
 10
2348.34659361
 20
4167.99692864
  0
VERTEX
  8
0
 10
2348.15492455
 20
4167.94764549
  0
VERTEX
  8
0
 10
2347.97117311
 20
4167.88039161
  0
VERTEX
  8
0
 10
2347.79634461
 20
4167.79617233
  0
VERTEX
  8
0
 10
2347.63144435
 20
4167.69599294
  0
VERTEX
  8
0
 10
2347.47747764
 20
4167.58085876
  0
VERTEX
  8
0
 10
2347.33544980
 20
4167.45177509
  0
VERTEX
  8
0
 10
2347.20636614
 20
4167.30974725
  0
VERTEX
  8
0
 10
2347.09123196
 20
4167.15578055
  0
VERTEX
  8
0
 10
2346.99105257
 20
4166.99088029
  0
VERTEX
  8
0
 10
2346.90683328
 20
4166.81605179
  0
VERTEX
  8
0
 10
2346.83957941
 20
4166.63230035
  0
VERTEX
  8
0
 10
2346.79029626
 20
4166.44063129
  0
VERTEX
  8
0
 10
2346.75998914
 20
4166.24204991
  0
VERTEX
  8
0
 10
2346.74966337
 20
4166.03756153
  0
SEQEND
  0
POLYLINE
  8
Default Layer
 66
   1
 39
0.000000
 70
    1
  0
VERTEX
  8
0
 10
1434.52866337
 20
3883.41645120
  0
VERTEX
  8
0
 10
1434.53898914
 20
3883.21196282
  0
VERTEX
  8
0
 10
1434.56929626
 20
3883.01338144
  0
VERTEX
  8
0
 10
1434.61857941
 20
3882.82171238
  0
VERTEX
  8
0
 10
1434.68583328
 20
3882.63796094
  0
VERTEX
  8
0
 10
1434.77005257
 20
3882.46313244
  0
VERTEX
  8
0
 10
1434.87023196
 20
3882.29823218
  0
VERTEX
  8
0
 10
1434.98536614
 20
3882.14426548
  0
VERTEX
  8
0
 10
1435.11444980
 20
3882.00223764
  0
VERTEX
  8
0
 10
1435.25647764
 20
3881.87315397
  0
VERTEX
  8
0
 10
1435.41044435
 20
3881.75801979
  0
VERTEX
  8
0
 10
1435.57534461
 20
3881.65784040
  0
VERTEX
  8
0
 10
1435.75017311
 20
3881.57362112
  0
VERTEX
  8
0
 10
1435.93392455
 20
3881.50636724
  0
VERTEX
  8
0
 10
1436.12559361
 20
3881.45708409
  0
VERTEX
  8
0
 10
1436.32417498
 20
3881.42677698
  0
VERTEX
  8
0
 10
1436.52866337
 20
3881.41645120
  0
VERTEX
  8
0
 10
1436.73315175
 20
3881.42677698
  0
VERTEX
  8
0
 10
1436.93173313
 20
3881.45708409
  0
VERTEX
  8
0
 10
1437.12340219
 20
3881.50636724
  0
VERTEX
  8
0
 10
1437.30715362
 20
3881.57362112
  0
VERTEX
  8
0
 10
1437.48198213
 20
3881.65784040
  0
VERTEX
  8
0
 10
1437.64688238
 20
3881.75801979
  0
VERTEX
  8
0
 10
1437.80084909
 20
3881.87315397
  0
VERTEX
  8
0
 10
1437.94287693
 20
3882.00223764
  0
VERTEX
  8
0
 10
1438.07196059
 20
3882.14426548
  0
VERTEX
  8
0
 10
1438.18709478
 20
3882.29823218
  0
VERTEX
  8
0
 10
1438.28727417
 20
3882.46313244
  0
VERTEX
  8
0
 10
1438.37149345
 20
3882.63796094
  0
VERTEX
  8
0
 10
1438.43874732
 20
3882.82171238
  0
VERTEX
  8
0
 10
1438.48803047
 20
3883.01338144
  0
VERTEX
  8
0
 10
1438.51833759
 20
3883.21196282
  0
VERTEX
  8
0
 10
1438.52866337
 20
3883.41645120
  0
VERTEX
  8
0
 10
1438.51833759
 20
3883.62093958
  0
VERTEX
  8
0
 10
1438.48803047
 20
3883.81952096
  0
VERTEX
  8
0
 10
1438.43874732
 20
3884.01119002
  0
VERTEX
  8
0
 10
1438.37149345
 20
3884.19494146
  0
VERTEX
  8
0
 10
1438.28727417
 20
3884.36976996
  0
VERTEX
  8
0
 10
1438.18709478
 20
3884.53467022
  0
VERTEX
  8
0
 10
1438.07196059
 20
3884.68863692
  0
VERTEX
  8
0
 10
1437.94287693
 20
3884.83066476
  0
VERTEX
  8
0
 10
1437.80084909
 20
3884.95974843
  0
VERTEX
  8
0
 10
1437.64688238
 20
3885.07488261
  0
VERTEX
  8
0
 10
1437.48198213
 20
3885.17506200
  0
VERTEX
  8
0
 10
1437.30715362
 20
3885.25928129
  0
VERTEX
  8
0
 10
1437.12340219
 20
3885.32653516
  0
VERTEX
  8
0
 10
1436.93173313
 20
3885.37581831
  0
VERTEX
  8
0
 10
1436.73315175
 20
3885.40612543
  0
VERTEX
  8
0
 10
1436.52866337
 20
3885.41645120
  0
VERTEX
  8
0
 10
1436.32417498
 20
3885.40612543
  0
VERTEX
  8
0
 10
1436.12559361
 20
3885.37581831
  0
VERTEX
  8
0
 10
1435.93392455
 20
3885.32653516
  0
VERTEX
  8
0
 10
1435.75017311
 20
3885.25928129
  0
VERTEX
  8
0
 10
1435.57534461
 20
3885.17506200
  0
VERTEX
  8
0
 10
1435.41044435
 20
3885.07488261
  0
VERTEX
  8
0
 10
1435.25647764
 20
3884.95974843
  0
VERTEX
  8
0
 10
1435.11444980
 20
3884.83066476
  0
VERTEX
  8
0
 10
1434.98536614
 20
3884.68863692
  0
VERTEX
  8
0
 10
1434.87023196
 20
3884.53467022
  0
VERTEX
  8
0
 10
1434.77005257
 20
3884.36976996
  0
VERTEX
  8
0
 10
1434.68583328
 20
3884.19494146
  0
VERTEX
  8
0
 10
1434.61857941
 20
3884.01119002
  0
VERTEX
  8
0
 10
1434.56929626
 20
3883.81952096
  0
VERTEX
  8
0
 10
1434.53898914
 20
3883.62093958
  0
VERTEX
  8
0
 10
1434.52866337
 20
3883.41645120
  0
SEQEND
  0
POLYLINE
  8
Default Layer
 66
   1
 39
0.000000
 70
    1
  0
VERTEX
  8
0
 10
1738.52866337
 20
3883.41645120
  0
VERTEX
  8
0
 10
1738.53898914
 20
3883.21196282
  0
VERTEX
  8
0
 10
1738.56929626
 20
3883.01338144
  0
VERTEX
  8
0
 10
1738.61857941
 20
3882.82171238
  0
VERTEX
  8
0
 10
1738.68583328
 20
3882.63796094
  0
VERTEX
  8
0
 10
1738.77005257
 20
3882.46313244
  0
VERTEX
  8
0
 10
1738.87023196
 20
3882.29823218
  0
VERTEX
  8
0
 10
1738.98536614
 20
3882.14426548
  0
VERTEX
  8
0
 10
1739.11444980
 20
3882.00223764
  0
VERTEX
  8
0
 10
1739.25647764
 20
3881.87315397
  0
VERTEX
  8
0
 10
1739.41044435
 20
3881.75801979
  0
VERTEX
  8
0
 10
1739.57534461
 20
3881.65784040
  0
VERTEX
  8
0
 10
1739.75017311
 20
3881.57362112
  0
VERTEX
  8
0
 10
1739.93392455
 20
3881.50636724
  0
VERTEX
  8
0
 10
1740.12559361
 20
3881.45708409
  0
VERTEX
  8
0
 10
1740.32417498
 20
3881.42677698
  0
VERTEX
  8
0
 10
1740.52866337
 20
3881.41645120
  0
VERTEX
  8
0
 10
1740.73315175
 20
3881.42677698
  0
VERTEX
  8
0
 10
1740.93173313
 20
3881.45708409
  0
VERTEX
  8
0
 10
1741.12340219
 20
3881.50636724
  0
VERTEX
  8
0
 10
1741.30715362
 20
3881.57362112
  0
VERTEX
  8
0
 10
1741.48198213
 20
3881.65784040
  0
VERTEX
  8
0
 10
1741.64688238
 20
3881.75801979
  0
VERTEX
  8
0
 10
1741.80084909
 20
3881.87315397
  0
VERTEX
  8
0
 10
1741.94287693
 20
3882.00223764
  0
VERTEX
  8
0
 10
1742.07196059
 20
3882.14426548
  0
VERTEX
  8
0
 10
1742.18709478
 20
3882.29823218
  0
VERTEX
  8
0
 10
1742.28727417
 20
3882.46313244
  0
VERTEX
  8
0
 10
1742.37149345
 20
3882.63796094
  0
VERTEX
  8
0
 10
1742.43874732
 20
3882.82171238
  0
VERTEX
  8
0
 10
1742.48803047
 20
3883.01338144
  0
VERTEX
  8
0
 10
1742.51833759
 20
3883.21196282
  0
VERTEX
  8
0
 10
1742.52866337
 20
3883.41645120
  0
VERTEX
  8
0
 10
1742.51833759
 20
3883.62093958
  0
VERTEX
  8
0
 10
1742.48803047
 20
3883.81952096
  0
VERTEX
  8
0
 10
1742.43874732
 20
3884.01119002
  0
VERTEX
  8
0
 10
1742.37149345
 20
3884.19494146
  0
VERTEX
  8
0
 10
1742.28727417
 20
3884.36976996
  0
VERTEX
  8
0
 10
1742.18709478
 20
3884.53467022
  0
VERTEX
  8
0
 10
1742.07196059
 20
3884.68863692
  0
VERTEX
  8
0
 10
1741.94287693
 20
3884.83066476
  0
VERTEX
  8
0
 10
1741.80084909
 20
3884.95974843
  0
VERTEX
  8
0
 10
1741.64688238
 20
3885.07488261
  0
VERTEX
  8
0
 10
1741.48198213
 20
3885.17506200
  0
VERTEX
  8
0
 10
1741.30715362
 20
3885.25928129
  0
VERTEX
  8
0
 10
1741.12340219
 20
3885.32653516
  0
VERTEX
  8
0
 10
1740.93173313
 20
3885.37581831
  0
VERTEX
  8
0
 10
1740.73315175
 20
3885.40612543
  0
VERTEX
  8
0
 10
1740.52866337
 20
3885.41645120
  0
VERTEX
  8
0
 10
1740.32417498
 20
3885.40612543
  0
VERTEX
  8
0
 10
1740.12559361
 20
3885.37581831
  0
VERTEX
  8
0
 10
1739.93392455
 20
3885.32653516
  0
VERTEX
  8
0
 10
1739.75017311
 20
3885.25928129
  0
VERTEX
  8
0
 10
1739.57534461
 20
3885.17506200
  0
VERTEX
  8
0
 10
1739.41044435
 20
3885.07488261
  0
VERTEX
  8
0
 10
1739.25647764
 20
3884.95974843
  0
VERTEX
  8
0
 10
1739.11444980
 20
3884.83066476
  0
VERTEX
  8
0
 10
1738.98536614
 20
3884.68863692
  0
VERTEX
  8
0
 10
1738.87023196
 20
3884.53467022
  0
VERTEX
  8
0
 10
1738.77005257
 20
3884.36976996
  0
VERTEX
  8
0
 10
1738.68583328
 20
3884.19494146
  0
VERTEX
  8
0
 10
1738.61857941
 20
3884.01119002
  0
VERTEX
  8
0
 10
1738.56929626
 20
3883.81952096
  0
VERTEX
  8
0
 10
1738.53898914
 20
3883.62093958
  0
VERTEX
  8
0
 10
1738.52866337
 20
3883.41645120
  0
SEQEND
  0
POLYLINE
  8
Default Layer
 66
   1
 39
0.000000
 70
    1
  0
VERTEX
  8
0
 10
2042.52866337
 20
3883.41645120
  0
VERTEX
  8
0
 10
2042.53898914
 20
3883.21196282
  0
VERTEX
  8
0
 10
2042.56929626
 20
3883.01338144
  0
VERTEX
  8
0
 10
2042.61857941
 20
3882.82171238
  0
VERTEX
  8
0
 10
2042.68583328
 20
3882.63796094
  0
VERTEX
  8
0
 10
2042.77005257
 20
3882.46313244
  0
VERTEX
  8
0
 10
2042.87023196
 20
3882.29823218
  0
VERTEX
  8
0
 10
2042.98536614
 20
3882.14426548
  0
VERTEX
  8
0
 10
2043.11444980
 20
3882.00223764
  0
VERTEX
  8
0
 10
2043.25647764
 20
3881.87315397
  0
VERTEX
  8
0
 10
2043.41044435
 20
3881.75801979
  0
VERTEX
  8
0
 10
2043.57534461
 20
3881.65784040
  0
VERTEX
  8
0
 10
2043.75017311
 20
3881.57362112
  0
VERTEX
  8
0
 10
2043.93392455
 20
3881.50636724
  0
VERTEX
  8
0
 10
2044.12559361
 20
3881.45708409
  0
VERTEX
  8
0
 10
2044.32417498
 20
3881.42677698
  0
VERTEX
  8
0
 10
2044.52866337
 20
3881.41645120
  0
VERTEX
  8
0
 10
2044.73315175
 20
3881.42677698
  0
VERTEX
  8
0
 10
2044.93173313
 20
3881.45708409
  0
VERTEX
  8
0
 10
2045.12340219
 20
3881.50636724
  0
VERTEX
  8
0
 10
2045.30715362
 20
3881.57362112
  0
VERTEX
  8
0
 10
2045.48198213
 20
3881.65784040
  0
VERTEX
  8
0
 10
2045.64688238
 20
3881.75801979
  0
VERTEX
  8
0
 10
2045.80084909
 20
3881.87315397
  0
VERTEX
  8
0
 10
2045.94287693
 20
3882.00223764
  0
VERTEX
  8
0
 10
2046.07196059
 20
3882.14426548
  0
VERTEX
  8
0
 10
2046.18709478
 20
3882.29823218
  0
VERTEX
  8
0
 10
2046.28727417
 20
3882.46313244
  0
VERTEX
  8
0
 10
2046.37149345
 20
3882.63796094
  0
VERTEX
  8
0
 10
2046.43874732
 20
3882.82171238
  0
VERTEX
  8
0
 10
2046.48803047
 20
3883.01338144
  0
VERTEX
  8
0
 10
2046.51833759
 20
3883.21196282
  0
VERTEX
  8
0
 10
2046.52866337
 20
3883.41645120
  0
VERTEX
  8
0
 10
2046.51833759
 20
3883.62093958
  0
VERTEX
  8
0
 10
2046.48803047
 20
3883.81952096
  0
VERTEX
  8
0
 10
2046.43874732
 20
3884.01119002
  0
VERTEX
  8
0
 10
2046.37149345
 20
3884.19494146
  0
VERTEX
  8
0
 10
2046.28727417
 20
3884.36976996
  0
VERTEX
  8
0
 10
2046.18709478
 20
3884.53467022
  0
VERTEX
  8
0
 10
2046.07196059
 20
3884.68863692
  0
VERTEX
  8
0
 10
2045.94287693
 20
3884.83066476
  0
VERTEX
  8
0
 10
2045.80084909
 20
3884.95974843
  0
VERTEX
  8
0
 10
2045.64688238
 20
3885.07488261
  0
VERTEX
  8
0
 10
2045.48198213
 20
3885.17506200
  0
VERTEX
  8
0
 10
2045.30715362
 20
3885.25928129
  0
VERTEX
  8
0
 10
2045.12340219
 20
3885.32653516
  0
VERTEX
  8
0
 10
2044.93173313
 20
3885.37581831
  0
VERTEX
  8
0
 10
2044.73315175
 20
3885.40612543
  0
VERTEX
  8
0
 10
2044.52866337
 20
3885.41645120
  0
VERTEX
  8
0
 10
2044.32417498
 20
3885.40612543
  0
VERTEX
  8
0
 10
2044.12559361
 20
3885.37581831
  0
VERTEX
  8
0
 10
2043.93392455
 20
3885.32653516
  0
VERTEX
  8
0
 10
2043.75017311
 20
3885.25928129
  0
VERTEX
  8
0
 10
2043.57534461
 20
3885.17506200
  0
VERTEX
  8
0
 10
2043.41044435
 20
3885.07488261
  0
VERTEX
  8
0
 10
2043.25647764
 20
3884.95974843
  0
VERTEX
  8
0
 10
2043.11444980
 20
3884.83066476
  0
VERTEX
  8
0
 10
2042.98536614
 20
3884.68863692
  0
VERTEX
  8
0
 10
2042.87023196
 20
3884.53467022
  0
VERTEX
  8
0
 10
2042.77005257
 20
3884.36976996
  0
VERTEX
  8
0
 10
2042.68583328
 20
3884.19494146
  0
VERTEX
  8
0
 10
2042.61857941
 20
3884.01119002
  0
VERTEX
  8
0
 10
2042.56929626
 20
3883.81952096
  0
VERTEX
  8
0
 10
2042.53898914
 20
3883.62093958
  0
VERTEX
  8
0
 10
2042.52866337
 20
3883.41645120
  0
SEQEND
  0
POLYLINE
  8
Default Layer
 66
   1
 39
0.000000
 70
    1
  0
VERTEX
  8
0
 10
2346.74966337
 20
3883.41645120
  0
VERTEX
  8
0
 10
2346.75998914
 20
3883.21196282
  0
VERTEX
  8
0
 10
2346.79029626
 20
3883.01338144
  0
VERTEX
  8
0
 10
2346.83957941
 20
3882.82171238
  0
VERTEX
  8
0
 10
2346.90683328
 20
3882.63796094
  0
VERTEX
  8
0
 10
2346.99105257
 20
3882.46313244
  0
VERTEX
  8
0
 10
2347.09123196
 20
3882.29823218
  0
VERTEX
  8
0
 10
2347.20636614
 20
3882.14426548
  0
VERTEX
  8
0
 10
2347.33544980
 20
3882.00223764
  0
VERTEX
  8
0
 10
2347.47747764
 20
3881.87315397
  0
VERTEX
  8
0
 10
2347.63144435
 20
3881.75801979
  0
VERTEX
  8
0
 10
2347.79634461
 20
3881.65784040
  0
VERTEX
  8
0
 10
2347.97117311
 20
3881.57362112
  0
VERTEX
  8
0
 10
2348.15492455
 20
3881.50636724
  0
VERTEX
  8
0
 10
2348.34659361
 20
3881.45708409
  0
VERTEX
  8
0
 10
2348.54517498
 20
3881.42677698
  0
VERTEX
  8
0
 10
2348.74966337
 20
3881.41645120
  0
VERTEX
  8
0
 10
2348.95415175
 20
3881.42677698
  0
VERTEX
  8
0
 10
2349.15273313
 20
3881.45708409
  0
VERTEX
  8
0
 10
2349.34440219
 20
3881.50636724
  0
VERTEX
  8
0
 10
2349.52815362
 20
3881.57362112
  0
VERTEX
  8
0
 10
2349.70298213
 20
3881.65784040
  0
VERTEX
  8
0
 10
2349.86788238
 20
3881.75801979
  0
VERTEX
  8
0
 10
2350.02184909
 20
3881.87315397
  0
VERTEX
  8
0
 10
2350.16387693
 20
3882.00223764
  0
VERTEX
  8
0
 10
2350.29296059
 20
3882.14426548
  0
VERTEX
  8
0
 10
2350.40809478
 20
3882.29823218
  0
VERTEX
  8
0
 10
2350.50827417
 20
3882.46313244
  0
VERTEX
  8
0
 10
2350.59249345
 20
3882.63796094
  0
VERTEX
  8
0
 10
2350.65974732
 20
3882.82171238
  0
VERTEX
  8
0
 10
2350.70903047
 20
3883.01338144
  0
VERTEX
  8
0
 10
2350.73933759
 20
3883.21196282
  0
VERTEX
  8
0
 10
2350.74966337
 20
3883.41645120
  0
VERTEX
  8
0
 10
2350.73933759
 20
3883.62093958
  0
VERTEX
  8
0
 10
2350.70903047
 20
3883.81952096
  0
VERTEX
  8
0
 10
2350.65974732
 20
3884.01119002
  0
VERTEX
  8
0
 10
2350.59249345
 20
3884.19494146
  0
VERTEX
  8
0
 10
2350.50827417
 20
3884.36976996
  0
VERTEX
  8
0
 10
2350.40809478
 20
3884.53467022
  0
VERTEX
  8
0
 10
2350.29296059
 20
3884.68863692
  0
VERTEX
  8
0
 10
2350.16387693
 20
3884.83066476
  0
VERTEX
  8
0
 10
2350.02184909
 20
3884.95974843
  0
VERTEX
  8
0
 10
2349.86788238
 20
3885.07488261
  0
VERTEX
  8
0
 10
2349.70298213
 20
3885.17506200
  0
VERTEX
  8
0
 10
2349.52815362
 20
3885.25928129
  0
VERTEX
  8
0
 10
2349.34440219
 20
3885.32653516
  0
VERTEX
  8
0
 10
2349.15273313
 20
3885.37581831
  0
VERTEX
  8
0
 10
2348.95415175
 20
3885.40612543
  0
VERTEX
  8
0
 10
2348.74966337
 20
3885.41645120
  0
VERTEX
  8
0
 10
2348.54517498
 20
3885.40612543
  0
VERTEX
  8
0
 10
2348.34659361
 20
3885.37581831
  0
VERTEX
  8
0
 10
2348.15492455
 20
3885.32653516
  0
VERTEX
  8
0
 10
2347.97117311
 20
3885.25928129
  0
VERTEX
  8
0
 10
2347.79634461
 20
3885.17506200
  0
VERTEX
  8
0
 10
2347.63144435
 20
3885.07488261
  0
VERTEX
  8
0
 10
2347.47747764
 20
3884.95974843
  0
VERTEX
  8
0
 10
2347.33544980
 20
3884.83066476
  0
VERTEX
  8
0
 10
2347.20636614
 20
3884.68863692
  0
VERTEX
  8
0
 10
2347.09123196
 20
3884.53467022
  0
VERTEX
  8
0
 10
2346.99105257
 20
3884.36976996
  0
VERTEX
  8
0
 10
2346.90683328
 20
3884.19494146
  0
VERTEX
  8
0
 10
2346.83957941
 20
3884.01119002
  0
VERTEX
  8
0
 10
2346.79029626
 20
3883.81952096
  0
VERTEX
  8
0
 10
2346.75998914
 20
3883.62093958
  0
VERTEX
  8
0
 10
2346.74966337
 20
3883.41645120
  0
SEQEND
  0
POLYLINE
  8
Default Layer
 66
   1
 39
0.000000
 70
    1
  0
VERTEX
  8
0
 10
2504.53082037
 20
4707.27067893
  0
VERTEX
  8
0
 10
2504.53082037
 20
3877.36429774
  0
VERTEX
  8
0
 10
1284.53082037
 20
3877.36429774
  0
VERTEX
  8
0
 10
1284.53082037
 20
4707.36538048
  0
VERTEX
  8
0
 10
1297.45646110
 20
4707.36538048
  0
VERTEX
  8
0
 10
1297.45646110
 20
4737.36538048
  0
VERTEX
  8
0
 10
1284.53082037
 20
4737.36538048
  0
VERTEX
  8
0
 10
1284.53082037
 20
4777.36429774
  0
VERTEX
  8
0
 10
2504.53082037
 20
4777.36429774
  0
VERTEX
  8
0
 10
2504.53082037
 20
4737.27067893
  0
VERTEX
  8
0
 10
2491.57595262
 20
4737.27067893
  0
VERTEX
  8
0
 10
2491.57595262
 20
4707.27067893
  0
VERTEX
  8
0
 10
2504.53082037
 20
4707.27067893
  0
SEQEND
  0
POLYLINE
  8
Default Layer
 66
   1
 39
0.000000
 70
    0
  0
VERTEX
  8
0
 10
-163.93210750
 20
6421.93422914
  0
VERTEX
  8
0
 10
-163.93210750
 20
6650.53422914
  0
VERTEX
  8
0
 10
-87.73210750
 20
6498.13422914
  0
VERTEX
  8
0
 10
-11.53210750
 20
6650.53422914
  0
VERTEX
  8
0
 10
-11.53210750
 20
6421.93422914
  0
SEQEND
  0
POLYLINE
  8
Default Layer
 66
   1
 39
0.000000
 70
    1
  0
VERTEX
  8
0
 10
64.66789250
 20
6421.93422914
  0
VERTEX
  8
0
 10
64.66789250
 20
6650.53422914
  0
VERTEX
  8
0
 10
217.06789250
 20
6650.53422914
  0
VERTEX
  8
0
 10
217.06789250
 20
6421.93422914
  0
VERTEX
  8
0
 10
64.66789250
 20
6421.93422914
  0
SEQEND
  0
POLYLINE
  8
Default Layer
 66
   1
 39
0.000000
 70
    0
  0
VERTEX
  8
0
 10
293.26789250
 20
6421.93422914
  0
VERTEX
  8
0
 10
407.56789250
 20
6421.93422914
  0
VERTEX
  8
0
 10
445.66789250
 20
6460.03422914
  0
VERTEX
  8
0
 10
445.66789250
 20
6612.43422914
  0
VERTEX
  8
0
 10
407.56789250
 20
6650.53422914
  0
VERTEX
  8
0
 10
293.26789250
 20
6650.53422914
  0
SEQEND
  0
POLYLINE
  8
Default Layer
 66
   1
 39
0.000000
 70
    0
  0
VERTEX
  8
0
 10
331.36789250
 20
6650.53422914
  0
VERTEX
  8
0
 10
331.36789250
 20
6421.93422914
  0
SEQEND
  0
POLYLINE
  8
Default Layer
 66
   1
 39
0.000000
 70
    0
  0
VERTEX
  8
0
 10
521.86789250
 20
6650.53422914
  0
VERTEX
  8
0
 10
521.86789250
 20
6460.03422914
  0
VERTEX
  8
0
 10
559.96789250
 20
6421.93422914
  0
VERTEX
  8
0
 10
636.16789250
 20
6421.93422914
  0
VERTEX
  8
0
 10
674.26789250
 20
6460.03422914
  0
VERTEX
  8
0
 10
674.26789250
 20
6650.53422914
  0
SEQEND
  0
POLYLINE
  8
Default Layer
 66
   1
 39
0.000000
 70
    0
  0
VERTEX
  8
0
 10
750.46789250
 20
6650.53422914
  0
VERTEX
  8
0
 10
750.46789250
 20
6421.93422914
  0
VERTEX
  8
0
 10
902.86789250
 20
6421.93422914
  0
SEQEND
  0
POLYLINE
  8
Default Layer
 66
   1
 39
0.000000
 70
    0
  0
VERTEX
  8
0
 10
979.06789250
 20
6421.93422914
  0
VERTEX
  8
0
 10
979.06789250
 20
6498.13422914
  0
VERTEX
  8
0
 10
1055.26789250
 20
6650.53422914
  0
VERTEX
  8
0
 10
1131.46789250
 20
6498.13422914
  0
VERTEX
  8
0
 10
1131.46789250
 20
6421.93422914
  0
SEQEND
  0
POLYLINE
  8
Default Layer
 66
   1
 39
0.000000
 70
    0
  0
VERTEX
  8
0
 10
979.06789250
 20
6498.13422914
  0
VERTEX
  8
0
 10
1131.46789250
 20
6498.13422914
  0
SEQEND
  0
POLYLINE
  8
Default Layer
 66
   1
 39
0.000000
 70
    0
  0
VERTEX
  8
0
 10
1207.66789250
 20
6421.93422914
  0
VERTEX
  8
0
 10
1207.66789250
 20
6650.53422914
  0
VERTEX
  8
0
 10
1321.96789250
 20
6650.53422914
  0
VERTEX
  8
0
 10
1360.06789250
 20
6612.43422914
  0
VERTEX
  8
0
 10
1360.06789250
 20
6574.33422914
  0
VERTEX
  8
0
 10
1321.96789250
 20
6536.23422914
  0
VERTEX
  8
0
 10
1207.66789250
 20
6536.23422914
  0
SEQEND
  0
POLYLINE
  8
Default Layer
 66
   1
 39
0.000000
 70
    0
  0
VERTEX
  8
0
 10
1245.76789250
 20
6536.23422914
  0
VERTEX
  8
0
 10
1360.06789250
 20
6421.93422914
  0
SEQEND
  0
POLYLINE
  8
Default Layer
 66
   1
 39
0.000000
 70
    0
  0
VERTEX
  8
0
 10
1664.86789250
 20
6421.93422914
  0
VERTEX
  8
0
 10
1664.86789250
 20
6650.53422914
  0
VERTEX
  8
0
 10
1779.16789250
 20
6650.53422914
  0
VERTEX
  8
0
 10
1817.26789250
 20
6612.43422914
  0
VERTEX
  8
0
 10
1817.26789250
 20
6574.33422914
  0
VERTEX
  8
0
 10
1779.16789250
 20
6536.23422914
  0
VERTEX
  8
0
 10
1664.86789250
 20
6536.23422914
  0
SEQEND
  0
POLYLINE
  8
Default Layer
 66
   1
 39
0.000000
 70
    0
  0
VERTEX
  8
0
 10
1702.96789250
 20
6536.23422914
  0
VERTEX
  8
0
 10
1817.26789250
 20
6421.93422914
  0
SEQEND
  0
POLYLINE
  8
Default Layer
 66
   1
 39
0.000000
 70
    0
  0
VERTEX
  8
0
 10
1893.46789250
 20
6421.93422914
  0
VERTEX
  8
0
 10
1893.46789250
 20
6498.13422914
  0
VERTEX
  8
0
 10
1969.66789250
 20
6650.53422914
  0
VERTEX
  8
0
 10
2045.86789250
 20
6498.13422914
  0
VERTEX
  8
0
 10
2045.86789250
 20
6421.93422914
  0
SEQEND
  0
POLYLINE
  8
Default Layer
 66
   1
 39
0.000000
 70
    0
  0
VERTEX
  8
0
 10
1893.46789250
 20
6498.13422914
  0
VERTEX
  8
0
 10
2045.86789250
 20
6498.13422914
  0
SEQEND
  0
POLYLINE
  8
Default Layer
 66
   1
 39
0.000000
 70
    0
  0
VERTEX
  8
0
 10
2274.46789250
 20
6460.03422914
  0
VERTEX
  8
0
 10
2236.36789250
 20
6421.93422914
  0
VERTEX
  8
0
 10
2160.16789250
 20
6421.93422914
  0
VERTEX
  8
0
 10
2122.06789250
 20
6460.03422914
  0
VERTEX
  8
0
 10
2122.06789250
 20
6612.43422914
  0
VERTEX
  8
0
 10
2160.16789250
 20
6650.53422914
  0
VERTEX
  8
0
 10
2236.36789250
 20
6650.53422914
  0
VERTEX
  8
0
 10
2274.46789250
 20
6612.43422914
  0
SEQEND
  0
POLYLINE
  8
Default Layer
 66
   1
 39
0.000000
 70
    0
  0
VERTEX
  8
0
 10
2350.66789250
 20
6421.93422914
  0
VERTEX
  8
0
 10
2350.66789250
 20
6650.53422914
  0
SEQEND
  0
POLYLINE
  8
Default Layer
 66
   1
 39
0.000000
 70
    0
  0
VERTEX
  8
0
 10
2503.06789250
 20
6650.53422914
  0
VERTEX
  8
0
 10
2388.76789250
 20
6536.23422914
  0
VERTEX
  8
0
 10
2350.66789250
 20
6536.23422914
  0
SEQEND
  0
POLYLINE
  8
Default Layer
 66
   1
 39
0.000000
 70
    0
  0
VERTEX
  8
0
 10
2388.76789250
 20
6536.23422914
  0
VERTEX
  8
0
 10
2503.06789250
 20
6421.93422914
  0
SEQEND
  0
POLYLINE
  8
Default Layer
 66
   1
 39
0.000000
 70
    0
  0
VERTEX
  8
0
 10
2807.86789250
 20
6650.53422914
  0
VERTEX
  8
0
 10
2960.26789250
 20
6650.53422914
  0
SEQEND
  0
POLYLINE
  8
Default Layer
 66
   1
 39
0.000000
 70
    0
  0
VERTEX
  8
0
 10
2884.06789250
 20
6650.53422914
  0
VERTEX
  8
0
 10
2884.06789250
 20
6421.93422914
  0
SEQEND
  0
POLYLINE
  8
Default Layer
 66
   1
 39
0.000000
 70
    0
  0
VERTEX
  8
0
 10
3036.46789250
 20
6650.53422914
  0
VERTEX
  8
0
 10
3112.66789250
 20
6536.23422914
  0
VERTEX
  8
0
 10
3112.66789250
 20
6421.93422914
  0
SEQEND
  0
POLYLINE
  8
Default Layer
 66
   1
 39
0.000000
 70
    0
  0
VERTEX
  8
0
 10
3112.66789250
 20
6536.23422914
  0
VERTEX
  8
0
 10
3188.86789250
 20
6650.53422914
  0
SEQEND
  0
POLYLINE
  8
Default Layer
 66
   1
 39
0.000000
 70
    0
  0
VERTEX
  8
0
 10
3265.06789250
 20
6421.93422914
  0
VERTEX
  8
0
 10
3265.06789250
 20
6650.53422914
  0
VERTEX
  8
0
 10
3379.36789250
 20
6650.53422914
  0
VERTEX
  8
0
 10
3417.46789250
 20
6612.43422914
  0
VERTEX
  8
0
 10
3417.46789250
 20
6574.33422914
  0
VERTEX
  8
0
 10
3379.36789250
 20
6536.23422914
  0
VERTEX
  8
0
 10
3265.06789250
 20
6536.23422914
  0
SEQEND
  0
POLYLINE
  8
Default Layer
 66
   1
 39
0.000000
 70
    0
  0
VERTEX
  8
0
 10
3493.66789250
 20
6421.93422914
  0
VERTEX
  8
0
 10
3493.66789250
 20
6650.53422914
  0
VERTEX
  8
0
 10
3646.06789250
 20
6650.53422914
  0
SEQEND
  0
POLYLINE
  8
Default Layer
 66
   1
 39
0.000000
 70
    0
  0
VERTEX
  8
0
 10
3493.66789250
 20
6536.23422914
  0
VERTEX
  8
0
 10
3569.86789250
 20
6536.23422914
  0
SEQEND
  0
POLYLINE
  8
Default Layer
 66
   1
 39
0.000000
 70
    0
  0
VERTEX
  8
0
 10
3493.66789250
 20
6421.93422914
  0
VERTEX
  8
0
 10
3646.06789250
 20
6421.93422914
  0
SEQEND
  0
POLYLINE
  8
Default Layer
 66
   1
 39
0.000000
 70
    0
  0
VERTEX
  8
0
 10
3950.86789250
 20
6612.43422914
  0
VERTEX
  8
0
 10
3988.96789250
 20
6650.53422914
  0
VERTEX
  8
0
 10
3988.96789250
 20
6421.93422914
  0
SEQEND
  0
POLYLINE
  8
Default Layer
 66
   1
 39
0.000000
 70
    0
  0
VERTEX
  8
0
 10
3950.86789250
 20
6421.93422914
  0
VERTEX
  8
0
 10
4027.06789250
 20
6421.93422914
  0
SEQEND
  0
POLYLINE
  8
Default Layer
 66
   1
 39
0.000000
 70
    0
  0
VERTEX
  8
0
 10
1436.26789250
 20
6204.21994342
  0
VERTEX
  8
0
 10
1474.36789250
 20
6242.31994342
  0
VERTEX
  8
0
 10
1474.36789250
 20
6013.71994342
  0
SEQEND
  0
POLYLINE
  8
Default Layer
 66
   1
 39
0.000000
 70
    0
  0
VERTEX
  8
0
 10
1436.26789250
 20
6013.71994342
  0
VERTEX
  8
0
 10
1512.46789250
 20
6013.71994342
  0
SEQEND
  0
POLYLINE
  8
Default Layer
 66
   1
 39
0.000000
 70
    0
  0
VERTEX
  8
0
 10
1588.66789250
 20
6204.21994342
  0
VERTEX
  8
0
 10
1626.76789250
 20
6242.31994342
  0
VERTEX
  8
0
 10
1702.96789250
 20
6242.31994342
  0
VERTEX
  8
0
 10
1741.06789250
 20
6204.21994342
  0
VERTEX
  8
0
 10
1741.06789250
 20
6166.11994342
  0
VERTEX
  8
0
 10
1702.96789250
 20
6128.01994342
  0
VERTEX
  8
0
 10
1626.76789250
 20
6128.01994342
  0
VERTEX
  8
0
 10
1588.66789250
 20
6089.91994342
  0
VERTEX
  8
0
 10
1588.66789250
 20
6013.71994342
  0
VERTEX
  8
0
 10
1741.06789250
 20
6013.71994342
  0
SEQEND
  0
POLYLINE
  8
Default Layer
 66
   1
 39
0.000000
 70
    0
  0
VERTEX
  8
0
 10
2045.86789250
 20
6013.71994342
  0
VERTEX
  8
0
 10
2045.86789250
 20
6242.31994342
  0
VERTEX
  8
0
 10
2122.06789250
 20
6089.91994342
  0
VERTEX
  8
0
 10
2198.26789250
 20
6242.31994342
  0
VERTEX
  8
0
 10
2198.26789250
 20
6013.71994342
  0
SEQEND
  0
POLYLINE
  8
Default Layer
 66
   1
 39
0.000000
 70
    0
  0
VERTEX
  8
0
 10
2274.46789250
 20
6013.71994342
  0
VERTEX
  8
0
 10
2274.46789250
 20
6242.31994342
  0
VERTEX
  8
0
 10
2350.66789250
 20
6089.91994342
  0
VERTEX
  8
0
 10
2426.86789250
 20
6242.31994342
  0
VERTEX
  8
0
 10
2426.86789250
 20
6013.71994342
  0
SEQEND
  0
ENDSEC
  0
EOF
