  0
SECTION
  2
HEADER
  9
$ACADVER
  1
AC1009
  9
$EXTMIN
 10
936.81151013
 20
-7169.59297131
 30
0.0
  9
$EXTMAX
 10
7554.59986003
 20
-1759.38529274
 30
0.0
  0
ENDSEC
  0
SECTION
  2
TABLES
  0
TABLE
  2
LAYER
 70
1
 0
LAYER
 2
Default_Layer
 70
0
 62
1
 6
CONTINUOUS
 0
ENDTAB
 0
ENDSEC
  0
SECTION
  2
ENTITIES
  0
POLYLINE
  8
Default_Layer
 66
   1
 39
0.000000
 70
    1
  0
VERTEX
  8
0
 10
3469.73682422
 20
-3877.75199508
  0
VERTEX
  8
0
 10
3560.89482422
 20
-3879.95719508
  0
VERTEX
  8
0
 10
3705.98382422
 20
-3719.57289508
 42
-0.00510000
  0
VERTEX
  8
0
 10
3715.26082422
 20
-3709.70289508
 42
-0.01040000
  0
VERTEX
  8
0
 10
3722.64482422
 20
-3702.31749508
 42
-0.01670000
  0
VERTEX
  8
0
 10
3729.04282422
 20
-3696.57479508
 42
-0.02490000
  0
VERTEX
  8
0
 10
3735.12782422
 20
-3691.96229508
 42
-0.03580000
  0
VERTEX
  8
0
 10
3741.63982422
 20
-3688.17029508
 42
-0.05980000
  0
VERTEX
  8
0
 10
3751.83882422
 20
-3684.64199508
 42
-0.03000000
  0
VERTEX
  8
0
 10
3758.89182422
 20
-3683.55479508
 42
-0.01910000
  0
VERTEX
  8
0
 10
3766.33182422
 20
-3683.14689508
 42
-0.00840000
  0
VERTEX
  8
0
 10
3772.44882422
 20
-3683.13729508
  0
VERTEX
  8
0
 10
3954.06782422
 20
-3687.85769508
  0
VERTEX
  8
0
 10
3956.12282422
 20
-3687.92849508
 42
-0.00530000
  0
VERTEX
  8
0
 10
3963.27382422
 20
-3688.21979508
 42
-0.01720000
  0
VERTEX
  8
0
 10
3969.18682422
 20
-3688.72459508
 42
-0.03160000
  0
VERTEX
  8
0
 10
3974.75582422
 20
-3689.75279508
 42
-0.07240000
  0
VERTEX
  8
0
 10
3983.76382422
 20
-3693.48569508
 42
-0.03470000
  0
VERTEX
  8
0
 10
3988.88482422
 20
-3697.04369508
 42
-0.02450000
  0
VERTEX
  8
0
 10
3994.00782422
 20
-3701.58259508
 42
-0.01760000
  0
VERTEX
  8
0
 10
3999.79182422
 20
-3707.64419508
 42
-0.01240000
  0
VERTEX
  8
0
 10
4006.73482422
 20
-3715.84619508
 42
-0.00250000
  0
VERTEX
  8
0
 10
4008.73982422
 20
-3718.34949508
  0
VERTEX
  8
0
 10
4174.44082422
 20
-3913.47719508
  0
VERTEX
  8
0
 10
4286.46082422
 20
-3916.29379508
  0
VERTEX
  8
0
 10
4288.45282422
 20
-3870.89709508
  0
VERTEX
  8
0
 10
4286.61182422
 20
-3135.47009508
 42
0.01010000
  0
VERTEX
  8
0
 10
4286.68282422
 20
-3117.72449508
 42
0.01430000
  0
VERTEX
  8
0
 10
4285.96482422
 20
-3101.66749508
 42
0.01860000
  0
VERTEX
  8
0
 10
4284.36682422
 20
-3087.25709508
 42
0.02350000
  0
VERTEX
  8
0
 10
4281.72482422
 20
-3073.84259508
 42
0.03170000
  0
VERTEX
  8
0
 10
4277.26882422
 20
-3059.68079508
 42
0.05380000
  0
VERTEX
  8
0
 10
4266.79082422
 20
-3039.41249508
 42
0.02860000
  0
VERTEX
  8
0
 10
4258.38282422
 20
-3028.16709508
 42
0.02180000
  0
VERTEX
  8
0
 10
4249.09782422
 20
-3018.05369508
 42
0.01630000
  0
VERTEX
  8
0
 10
4238.64382422
 20
-3008.27299508
 42
0.01170000
  0
VERTEX
  8
0
 10
4226.55482422
 20
-2998.16719508
 42
0.00760000
  0
VERTEX
  8
0
 10
4212.52482422
 20
-2987.32679508
 42
0.00370000
  0
VERTEX
  8
0
 10
4196.06682422
 20
-2975.19079508
  0
VERTEX
  8
0
 10
4185.87982422
 20
-2967.79679508
  0
VERTEX
  8
0
 10
4183.52882422
 20
-2966.09189508
  0
VERTEX
  8
0
 10
4184.63382422
 20
-2929.22530102
 42
0.08960000
  0
VERTEX
  8
0
 10
4182.79782422
 20
-2917.06420102
 42
0.06380000
  0
VERTEX
  8
0
 10
4178.65682422
 20
-2908.68610102
 42
0.05030000
  0
VERTEX
  8
0
 10
4173.09782422
 20
-2901.90780102
 42
0.04440000
  0
VERTEX
  8
0
 10
4165.84082422
 20
-2895.85810102
 42
0.04490000
  0
VERTEX
  8
0
 10
4155.83882422
 20
-2890.17670102
 42
0.05510000
  0
VERTEX
  8
0
 10
4141.54382422
 20
-2885.45430102
 42
0.03670000
  0
VERTEX
  8
0
 10
4133.37082422
 20
-2884.33350102
 42
0.01080000
  0
VERTEX
  8
0
 10
4131.41682422
 20
-2884.25930102
  0
VERTEX
  8
0
 10
3703.25682422
 20
-2882.03800781
 42
0.09570000
  0
VERTEX
  8
0
 10
3701.53882422
 20
-2882.70750781
 42
0.06010000
  0
VERTEX
  8
0
 10
3699.90482422
 20
-2884.02820781
 42
0.04260000
  0
VERTEX
  8
0
 10
3698.02982422
 20
-2886.31470781
 42
0.02900000
  0
VERTEX
  8
0
 10
3695.90582422
 20
-2889.81410781
 42
0.02060000
  0
VERTEX
  8
0
 10
3693.34082422
 20
-2895.16300781
 42
0.01370000
  0
VERTEX
  8
0
 10
3689.64072379
 20
-2902.82120781
 42
-0.01091524
  0
VERTEX
  8
0
 10
3674.55263399
 20
-2930.83122691
 42
-0.01220000
  0
VERTEX
  8
0
 10
3671.92482422
 20
-2935.92849508
 42
-0.02470000
  0
VERTEX
  8
0
 10
3669.61082422
 20
-2940.36099508
 42
-0.03920000
  0
VERTEX
  8
0
 10
3667.04682422
 20
-2944.04419508
 42
-0.06140000
  0
VERTEX
  8
0
 10
3663.58782422
 20
-2947.34199508
 42
-0.07520000
  0
VERTEX
  8
0
 10
3658.75882422
 20
-2949.86599508
 42
-0.04470000
  0
VERTEX
  8
0
 10
3654.41182422
 20
-2950.93599508
 42
-0.02900000
  0
VERTEX
  8
0
 10
3649.55482422
 20
-2951.39509508
 42
-0.01560000
  0
VERTEX
  8
0
 10
3643.90282422
 20
-2951.42669508
 42
-0.00310000
  0
VERTEX
  8
0
 10
3640.84882422
 20
-2951.34099508
  0
VERTEX
  8
0
 10
2845.37282422
 20
-2956.34029508
 42
0.06480000
  0
VERTEX
  8
0
 10
2841.61982422
 20
-2957.99829508
 42
0.04890000
  0
VERTEX
  8
0
 10
2838.06082422
 20
-2960.66409508
 42
0.03900000
  0
VERTEX
  8
0
 10
2834.41982422
 20
-2964.55209508
 42
0.03190000
  0
VERTEX
  8
0
 10
2830.65382422
 20
-2969.92309508
 42
0.02830000
  0
VERTEX
  8
0
 10
2826.65682422
 20
-2977.39049508
 42
0.03520000
  0
VERTEX
  8
0
 10
2821.83182422
 20
-2989.99709508
 42
0.01170000
  0
VERTEX
  8
0
 10
2817.60282422
 20
-3006.32629508
 42
0.00960000
  0
VERTEX
  8
0
 10
2813.18082422
 20
-3026.98349508
 42
0.00770000
  0
VERTEX
  8
0
 10
2808.64582422
 20
-3052.44239508
 42
0.00620000
  0
VERTEX
  8
0
 10
2803.91982422
 20
-3084.04669508
 42
0.00460000
  0
VERTEX
  8
0
 10
2799.11882422
 20
-3121.67289508
 42
0.00300000
  0
VERTEX
  8
0
 10
2794.27382422
 20
-3164.88579508
 42
0.00140000
  0
VERTEX
  8
0
 10
2789.39282422
 20
-3212.16969508
  0
VERTEX
  8
0
 10
2788.10382422
 20
-3224.95399508
  0
VERTEX
  8
0
 10
2783.41782422
 20
-3270.89508508
 42
-0.00260000
  0
VERTEX
  8
0
 10
2778.94282422
 20
-3311.92526508
 42
-0.00430000
  0
VERTEX
  8
0
 10
2774.71582422
 20
-3346.29136508
 42
-0.00550000
  0
VERTEX
  8
0
 10
2770.96682422
 20
-3372.51722508
  0
VERTEX
  8
0
 10
2763.94582422
 20
-3423.43890508
  0
VERTEX
  8
0
 10
2754.71182422
 20
-3490.59199508
 42
0.00200000
  0
VERTEX
  8
0
 10
2745.00582422
 20
-3564.12899508
 42
0.00350000
  0
VERTEX
  8
0
 10
2735.05182422
 20
-3646.53159508
 42
0.00520000
  0
VERTEX
  8
0
 10
2724.70082422
 20
-3746.87249508
 42
0.00890000
  0
VERTEX
  8
0
 10
2713.35982422
 20
-3898.73139508
 42
0.00920000
  0
VERTEX
  8
0
 10
2707.30082422
 20
-4057.02129508
 42
0.00240000
  0
VERTEX
  8
0
 10
2706.64682422
 20
-4099.49499508
  0
VERTEX
  8
0
 10
3221.22782422
 20
-4102.29869508
 42
0.00270000
  0
VERTEX
  8
0
 10
3248.61782422
 20
-4101.99069508
 42
0.00520000
  0
VERTEX
  8
0
 10
3268.45882422
 20
-4101.45599508
 42
0.00850000
  0
VERTEX
  8
0
 10
3284.35682422
 20
-4100.59769508
 42
0.01230000
  0
VERTEX
  8
0
 10
3297.12982422
 20
-4099.37709508
 42
0.01690000
  0
VERTEX
  8
0
 10
3307.83682422
 20
-4097.72059508
 42
0.02340000
  0
VERTEX
  8
0
 10
3317.67482422
 20
-4095.37659508
 42
0.03520000
  0
VERTEX
  8
0
 10
3328.41982422
 20
-4091.44139508
 42
0.03760000
  0
VERTEX
  8
0
 10
3338.90882422
 20
-4085.71419508
 42
0.02240000
  0
VERTEX
  8
0
 10
3346.63782422
 20
-4080.19789508
 42
0.01460000
  0
VERTEX
  8
0
 10
3354.35882422
 20
-4073.77669508
 42
0.00820000
  0
VERTEX
  8
0
 10
3362.93082422
 20
-4065.96489508
 42
0.00280000
  0
VERTEX
  8
0
 10
3373.58782422
 20
-4055.82129508
  0
VERTEX
  8
0
 10
3374.59282422
 20
-4054.85759508
 42
0.00830000
  0
VERTEX
  8
0
 10
3383.89482422
 20
-4044.67509508
 42
0.01470000
  0
VERTEX
  8
0
 10
3392.84582422
 20
-4033.92419508
 42
0.02310000
  0
VERTEX
  8
0
 10
3402.18982422
 20
-4020.80029508
 42
0.04140000
  0
VERTEX
  8
0
 10
3414.37682422
 20
-3997.86379508
 42
0.02460000
  0
VERTEX
  8
0
 10
3420.59582422
 20
-3981.14779508
 42
0.01960000
  0
VERTEX
  8
0
 10
3425.25282422
 20
-3964.17939508
 42
0.01630000
  0
VERTEX
  8
0
 10
3428.93482422
 20
-3945.67249508
 42
0.01370000
  0
VERTEX
  8
0
 10
3431.80182422
 20
-3924.81579508
 42
0.01010000
  0
VERTEX
  8
0
 10
3433.64182422
 20
-3904.27749508
 42
0.01340000
  0
VERTEX
  8
0
 10
3434.55782422
 20
-3899.64769508
  0
VERTEX
  8
0
 10
3434.70982422
 20
-3898.78569508
 42
-0.00920000
  0
VERTEX
  8
0
 10
3435.50882422
 20
-3894.52889508
 42
-0.02870000
  0
VERTEX
  8
0
 10
3436.54782422
 20
-3890.63719508
 42
-0.04990000
  0
VERTEX
  8
0
 10
3438.12782422
 20
-3887.07929508
 42
-0.11500000
  0
VERTEX
  8
0
 10
3442.70982422
 20
-3882.16029508
 42
-0.05370000
  0
VERTEX
  8
0
 10
3446.37982422
 20
-3880.23039508
 42
-0.03990000
  0
VERTEX
  8
0
 10
3450.81382422
 20
-3878.87089508
 42
-0.03040000
  0
VERTEX
  8
0
 10
3456.37382422
 20
-3877.98669508
 42
-0.02340000
  0
VERTEX
  8
0
 10
3463.48782422
 20
-3877.62439508
 42
-0.01330000
  0
VERTEX
  8
0
 10
3469.73682422
 20
-3877.75199508
  0
SEQEND
  0
POLYLINE
  8
Default_Layer
 66
   1
 39
0.000000
 70
    1
  0
VERTEX
  8
0
 10
6413.77631250
 20
-5059.11419874
 42
-0.17100000
  0
VERTEX
  8
0
 10
6409.96431250
 20
-5078.13519874
 42
-0.17980000
  0
VERTEX
  8
0
 10
6400.12831250
 20
-5082.56319874
 42
-0.07180000
  0
VERTEX
  8
0
 10
6374.73131250
 20
-5084.81619874
  0
VERTEX
  8
0
 10
6246.26331250
 20
-5084.67119874
  0
VERTEX
  8
0
 10
6244.36831250
 20
-5084.63419874
  0
VERTEX
  8
0
 10
6239.25231250
 20
-5084.53319874
 42
0.00450000
  0
VERTEX
  8
0
 10
6227.94731250
 20
-5084.39719874
 42
0.01110000
  0
VERTEX
  8
0
 10
6219.71331250
 20
-5084.55119874
 42
0.01980000
  0
VERTEX
  8
0
 10
6212.85931250
 20
-5085.10219874
 42
0.03490000
  0
VERTEX
  8
0
 10
6205.45631250
 20
-5086.52219874
 42
0.03530000
  0
VERTEX
  8
0
 10
6198.29531250
 20
-5089.01419874
 42
0.02010000
  0
VERTEX
  8
0
 10
6192.08431250
 20
-5091.98019874
 42
0.01130000
  0
VERTEX
  8
0
 10
6184.83531250
 20
-5096.01319874
 42
0.00340000
  0
VERTEX
  8
0
 10
6180.17231250
 20
-5098.79719874
 42
0.00270000
  0
VERTEX
  8
0
 10
6168.29231250
 20
-5106.11519874
 42
-0.00220000
  0
VERTEX
  8
0
 10
6156.08331250
 20
-5113.64319874
 42
-0.00700000
  0
VERTEX
  8
0
 10
6144.01931250
 20
-5120.78519874
 42
-0.01130000
  0
VERTEX
  8
0
 10
6134.68731250
 20
-5125.86319874
 42
-0.01620000
  0
VERTEX
  8
0
 10
6127.75531250
 20
-5129.15919874
 42
-0.02290000
  0
VERTEX
  8
0
 10
6122.69931250
 20
-5131.10019874
 42
-0.03220000
  0
VERTEX
  8
0
 10
6119.09831250
 20
-5132.05019874
 42
-0.04550000
  0
VERTEX
  8
0
 10
6116.56331250
 20
-5132.31519874
  0
VERTEX
  8
0
 10
5792.31031250
 20
-5133.15819874
 42
-0.01300000
  0
VERTEX
  8
0
 10
5789.71431250
 20
-5133.17319874
 42
-0.03520000
  0
VERTEX
  8
0
 10
5785.02731250
 20
-5132.77019874
 42
-0.05010000
  0
VERTEX
  8
0
 10
5780.92331250
 20
-5131.69619874
 42
-0.10070000
  0
VERTEX
  8
0
 10
5775.51531250
 20
-5128.32419874
 42
-0.05190000
  0
VERTEX
  8
0
 10
5772.83831250
 20
-5125.17419874
 42
-0.03350000
  0
VERTEX
  8
0
 10
5770.63831250
 20
-5121.45219874
 42
-0.01990000
  0
VERTEX
  8
0
 10
5768.48231250
 20
-5116.71719874
 42
-0.00700000
  0
VERTEX
  8
0
 10
5766.17531250
 20
-5110.84119874
  0
VERTEX
  8
0
 10
5749.63031250
 20
-5062.28619874
 42
-0.01460000
  0
VERTEX
  8
0
 10
5749.22331250
 20
-5060.77119874
 42
-0.02800000
  0
VERTEX
  8
0
 10
5748.44831250
 20
-5056.31519874
 42
-0.01710000
  0
VERTEX
  8
0
 10
5747.96531250
 20
-5050.49419874
 42
-0.00930000
  0
VERTEX
  8
0
 10
5747.71131250
 20
-5042.26119874
  0
VERTEX
  8
0
 10
5740.31331250
 20
-4755.86619874
 42
-0.01010000
  0
VERTEX
  8
0
 10
5740.59431250
 20
-4738.12119874
 42
-0.01440000
  0
VERTEX
  8
0
 10
5741.76031250
 20
-4720.04219874
 42
-0.01770000
  0
VERTEX
  8
0
 10
5743.84831250
 20
-4703.88119874
 42
-0.02140000
  0
VERTEX
  8
0
 10
5746.87031250
 20
-4689.46919874
 42
-0.02560000
  0
VERTEX
  8
0
 10
5750.87931250
 20
-4676.54319874
 42
-0.03130000
  0
VERTEX
  8
0
 10
5756.16031250
 20
-4664.53819874
 42
-0.03840000
  0
VERTEX
  8
0
 10
5763.15631250
 20
-4653.22419874
 42
-0.05940000
  0
VERTEX
  8
0
 10
5775.51831250
 20
-4639.93619874
 42
-0.04880000
  0
VERTEX
  8
0
 10
5788.11431250
 20
-4631.26219874
 42
-0.03660000
  0
VERTEX
  8
0
 10
5800.12931250
 20
-4625.71819874
 42
-0.03040000
  0
VERTEX
  8
0
 10
5812.93131250
 20
-4621.78219874
 42
-0.02530000
  0
VERTEX
  8
0
 10
5826.70131250
 20
-4619.17519874
 42
-0.02160000
  0
VERTEX
  8
0
 10
5842.00131250
 20
-4617.74019874
 42
-0.01800000
  0
VERTEX
  8
0
 10
5858.74131250
 20
-4617.49719874
  0
VERTEX
  8
0
 10
6285.18831250
 20
-4628.20419874
 42
-0.00350000
  0
VERTEX
  8
0
 10
6290.29931250
 20
-4628.95619874
 42
-0.01720000
  0
VERTEX
  8
0
 10
6311.65131250
 20
-4632.97619874
 42
-0.01940000
  0
VERTEX
  8
0
 10
6330.44431250
 20
-4637.95719874
 42
-0.02190000
  0
VERTEX
  8
0
 10
6346.92531250
 20
-4643.81519874
 42
-0.02510000
  0
VERTEX
  8
0
 10
6361.49431250
 20
-4650.59219874
 42
-0.02860000
  0
VERTEX
  8
0
 10
6374.22531250
 20
-4658.26919874
 42
-0.03350000
  0
VERTEX
  8
0
 10
6385.57031250
 20
-4667.19419874
 42
-0.04130000
  0
VERTEX
  8
0
 10
6395.99131250
 20
-4678.27219874
 42
-0.06230000
  0
VERTEX
  8
0
 10
6406.73531250
 20
-4695.88819874
 42
-0.05080000
  0
VERTEX
  8
0
 10
6412.17031250
 20
-4712.29219874
 42
-0.03860000
  0
VERTEX
  8
0
 10
6414.27231250
 20
-4727.08019874
  0
VERTEX
  8
0
 10
6413.77631250
 20
-5059.11419874
  0
SEQEND
  0
POLYLINE
  8
Default_Layer
 66
   1
 39
0.000000
 70
    1
  0
VERTEX
  8
0
 10
6171.56237473
 20
-5539.68097951
 42
-0.07660000
  0
VERTEX
  8
0
 10
6162.78437473
 20
-5567.86797951
 42
-0.06060000
  0
VERTEX
  8
0
 10
6131.33337473
 20
-5621.49997951
 42
-0.12660000
  0
VERTEX
  8
0
 10
6109.79637473
 20
-5638.00697951
 42
-0.07080000
  0
VERTEX
  8
0
 10
6087.96637473
 20
-5644.94697951
  0
VERTEX
  8
0
 10
5841.12237473
 20
-5658.50497951
 42
-0.00810000
  0
VERTEX
  8
0
 10
5836.98037473
 20
-5658.58197951
 42
-0.03040000
  0
VERTEX
  8
0
 10
5823.40437473
 20
-5657.81597951
 42
-0.03570000
  0
VERTEX
  8
0
 10
5810.46537473
 20
-5655.34897951
 42
-0.04390000
  0
VERTEX
  8
0
 10
5797.48837473
 20
-5650.64797951
 42
-0.08000000
  0
VERTEX
  8
0
 10
5778.68937473
 20
-5637.91497951
 42
-0.04760000
  0
VERTEX
  8
0
 10
5769.12337473
 20
-5626.98897951
 42
-0.03800000
  0
VERTEX
  8
0
 10
5762.10637473
 20
-5615.49097951
 42
-0.03220000
  0
VERTEX
  8
0
 10
5756.64537473
 20
-5602.84497951
 42
-0.02750000
  0
VERTEX
  8
0
 10
5752.51037473
 20
-5588.90397951
 42
-0.02360000
  0
VERTEX
  8
0
 10
5749.63637473
 20
-5573.66197951
 42
-0.03740000
  0
VERTEX
  8
0
 10
5744.94837473
 20
-5503.27797951
  0
VERTEX
  8
0
 10
5749.76237473
 20
-5274.73997951
  0
VERTEX
  8
0
 10
5750.08337473
 20
-5270.26997951
  0
VERTEX
  8
0
 10
5750.62737473
 20
-5262.78397951
 42
-0.00670000
  0
VERTEX
  8
0
 10
5752.20137473
 20
-5244.67997951
 42
-0.01140000
  0
VERTEX
  8
0
 10
5754.52937473
 20
-5225.83997951
 42
-0.01450000
  0
VERTEX
  8
0
 10
5757.50037473
 20
-5209.00197951
 42
-0.01760000
  0
VERTEX
  8
0
 10
5761.04737473
 20
-5194.42697951
 42
-0.02090000
  0
VERTEX
  8
0
 10
5765.05637473
 20
-5182.15797951
 42
-0.02490000
  0
VERTEX
  8
0
 10
5769.47137473
 20
-5171.92097951
 42
-0.02910000
  0
VERTEX
  8
0
 10
5774.20337473
 20
-5163.55897951
 42
-0.03480000
  0
VERTEX
  8
0
 10
5779.38237473
 20
-5156.64097951
 42
-0.04430000
  0
VERTEX
  8
0
 10
5785.47437473
 20
-5150.72997951
 42
-0.05710000
  0
VERTEX
  8
0
 10
5793.00037473
 20
-5145.93397951
 42
-0.08280000
  0
VERTEX
  8
0
 10
5804.59537473
 20
-5142.53397951
 42
-0.05070000
  0
VERTEX
  8
0
 10
5813.24237473
 20
-5142.37697951
 42
-0.00750000
  0
VERTEX
  8
0
 10
6110.77637473
 20
-5149.51297951
 42
-0.09800000
  0
VERTEX
  8
0
 10
6140.35337473
 20
-5158.32297951
 42
-0.15950000
  0
VERTEX
  8
0
 10
6160.68837473
 20
-5182.00697951
 42
-0.07080000
  0
VERTEX
  8
0
 10
6172.47837473
 20
-5289.59897951
  0
VERTEX
  8
0
 10
6171.56237473
 20
-5539.68097951
  0
SEQEND
  0
POLYLINE
  8
Default_Layer
 66
   1
 39
0.000000
 70
    1
  0
VERTEX
  8
0
 10
5292.02504580
 20
-6134.82733355
  0
VERTEX
  8
0
 10
5293.87802630
 20
-6180.73388404
  0
VERTEX
  8
0
 10
5292.03702630
 20
-6916.16088404
 42
-0.01010000
  0
VERTEX
  8
0
 10
5292.10802630
 20
-6933.90648404
 42
-0.01430000
  0
VERTEX
  8
0
 10
5291.39002630
 20
-6949.96348404
 42
-0.01860000
  0
VERTEX
  8
0
 10
5289.79202630
 20
-6964.37388404
 42
-0.02350000
  0
VERTEX
  8
0
 10
5287.15002630
 20
-6977.78838404
 42
-0.03170000
  0
VERTEX
  8
0
 10
5282.69402630
 20
-6991.95018404
 42
-0.05380000
  0
VERTEX
  8
0
 10
5272.21602630
 20
-7012.21848404
 42
-0.02860000
  0
VERTEX
  8
0
 10
5263.80802630
 20
-7023.46388404
 42
-0.02180000
  0
VERTEX
  8
0
 10
5254.52302630
 20
-7033.57728404
 42
-0.01630000
  0
VERTEX
  8
0
 10
5244.06902630
 20
-7043.35798404
 42
-0.01170000
  0
VERTEX
  8
0
 10
5231.98002630
 20
-7053.46378404
 42
-0.00760000
  0
VERTEX
  8
0
 10
5217.95002630
 20
-7064.30418404
 42
-0.00370000
  0
VERTEX
  8
0
 10
5201.49202630
 20
-7076.44018404
  0
VERTEX
  8
0
 10
5191.30502630
 20
-7083.83418404
  0
VERTEX
  8
0
 10
5188.95402630
 20
-7085.53908404
  0
VERTEX
  8
0
 10
5190.05902630
 20
-7122.40567810
 42
-0.08960000
  0
VERTEX
  8
0
 10
5188.22302630
 20
-7134.56677810
 42
-0.06380000
  0
VERTEX
  8
0
 10
5184.08202630
 20
-7142.94487810
 42
-0.05030000
  0
VERTEX
  8
0
 10
5178.52302630
 20
-7149.72317810
 42
-0.04440000
  0
VERTEX
  8
0
 10
5171.26602630
 20
-7155.77287810
 42
-0.04490000
  0
VERTEX
  8
0
 10
5161.26402630
 20
-7161.45427810
 42
-0.05510000
  0
VERTEX
  8
0
 10
5146.96902630
 20
-7166.17667810
 42
-0.03670000
  0
VERTEX
  8
0
 10
5138.79602630
 20
-7167.29747810
 42
-0.01080000
  0
VERTEX
  8
0
 10
5136.84202630
 20
-7167.37167810
  0
VERTEX
  8
0
 10
4708.68202630
 20
-7169.59297131
 42
-0.09570000
  0
VERTEX
  8
0
 10
4706.96402630
 20
-7168.92347131
 42
-0.06010000
  0
VERTEX
  8
0
 10
4705.33002630
 20
-7167.60277131
 42
-0.04260000
  0
VERTEX
  8
0
 10
4703.45502630
 20
-7165.31627131
 42
-0.02900000
  0
VERTEX
  8
0
 10
4701.33102630
 20
-7161.81687131
 42
-0.02060000
  0
VERTEX
  8
0
 10
4698.76602630
 20
-7156.46797131
 42
-0.01370000
  0
VERTEX
  8
0
 10
4695.06592587
 20
-7148.80977131
 42
0.01091524
  0
VERTEX
  8
0
 10
4679.97783607
 20
-7120.79975222
 42
0.01220000
  0
VERTEX
  8
0
 10
4677.35002630
 20
-7115.70248404
 42
0.02470000
  0
VERTEX
  8
0
 10
4675.03602630
 20
-7111.26998404
 42
0.03920000
  0
VERTEX
  8
0
 10
4672.47202630
 20
-7107.58678404
 42
0.06140000
  0
VERTEX
  8
0
 10
4669.01302630
 20
-7104.28898404
 42
0.07520000
  0
VERTEX
  8
0
 10
4664.18402630
 20
-7101.76498404
 42
0.04470000
  0
VERTEX
  8
0
 10
4659.83702630
 20
-7100.69498404
 42
0.02900000
  0
VERTEX
  8
0
 10
4654.98002630
 20
-7100.23588404
 42
0.01560000
  0
VERTEX
  8
0
 10
4649.32802630
 20
-7100.20428404
 42
0.00310000
  0
VERTEX
  8
0
 10
4646.27402630
 20
-7100.28998404
  0
VERTEX
  8
0
 10
3850.79802630
 20
-7095.29068404
 42
-0.06480000
  0
VERTEX
  8
0
 10
3847.04502630
 20
-7093.63268404
 42
-0.04890000
  0
VERTEX
  8
0
 10
3843.48602630
 20
-7090.96688404
 42
-0.03900000
  0
VERTEX
  8
0
 10
3839.84502630
 20
-7087.07888404
 42
-0.03190000
  0
VERTEX
  8
0
 10
3836.07902630
 20
-7081.70788404
 42
-0.02830000
  0
VERTEX
  8
0
 10
3832.08202630
 20
-7074.24048404
 42
-0.03520000
  0
VERTEX
  8
0
 10
3827.25702630
 20
-7061.63388404
 42
-0.01170000
  0
VERTEX
  8
0
 10
3823.02802630
 20
-7045.30468404
 42
-0.00960000
  0
VERTEX
  8
0
 10
3818.60602630
 20
-7024.64748404
 42
-0.00770000
  0
VERTEX
  8
0
 10
3814.07102630
 20
-6999.18858404
 42
-0.00620000
  0
VERTEX
  8
0
 10
3809.34502630
 20
-6967.58428404
 42
-0.00460000
  0
VERTEX
  8
0
 10
3804.54402630
 20
-6929.95808404
 42
-0.00300000
  0
VERTEX
  8
0
 10
3799.69902630
 20
-6886.74518404
 42
-0.00140000
  0
VERTEX
  8
0
 10
3794.81802630
 20
-6839.46128404
  0
VERTEX
  8
0
 10
3793.52902630
 20
-6826.67698404
  0
VERTEX
  8
0
 10
3788.84302630
 20
-6780.73589404
 42
0.00260000
  0
VERTEX
  8
0
 10
3784.36802630
 20
-6739.70571404
 42
0.00430000
  0
VERTEX
  8
0
 10
3780.14102630
 20
-6705.33961404
 42
0.00550000
  0
VERTEX
  8
0
 10
3776.39202630
 20
-6679.11375404
  0
VERTEX
  8
0
 10
3769.37102630
 20
-6628.19207404
  0
VERTEX
  8
0
 10
3760.13702630
 20
-6561.03898404
 42
-0.00200000
  0
VERTEX
  8
0
 10
3750.43102630
 20
-6487.50198404
 42
-0.00350000
  0
VERTEX
  8
0
 10
3740.47702630
 20
-6405.09938404
 42
-0.00520000
  0
VERTEX
  8
0
 10
3730.12602630
 20
-6304.75848404
 42
-0.00890000
  0
VERTEX
  8
0
 10
3718.78502630
 20
-6152.89958404
 42
-0.00920000
  0
VERTEX
  8
0
 10
3712.72602630
 20
-5994.60968404
 42
-0.00240000
  0
VERTEX
  8
0
 10
3712.07202630
 20
-5952.13598404
  0
VERTEX
  8
0
 10
4226.65302630
 20
-5949.33228404
 42
-0.00270000
  0
VERTEX
  8
0
 10
4254.04302630
 20
-5949.64028404
 42
-0.00520000
  0
VERTEX
  8
0
 10
4273.88402630
 20
-5950.17498404
 42
-0.00850000
  0
VERTEX
  8
0
 10
4289.78202630
 20
-5951.03328404
 42
-0.01230000
  0
VERTEX
  8
0
 10
4302.55502630
 20
-5952.25388404
 42
-0.01690000
  0
VERTEX
  8
0
 10
4313.26202630
 20
-5953.91038404
 42
-0.02340000
  0
VERTEX
  8
0
 10
4323.10002630
 20
-5956.25438404
 42
-0.03520000
  0
VERTEX
  8
0
 10
4333.84502630
 20
-5960.18958404
 42
-0.03760000
  0
VERTEX
  8
0
 10
4344.33402630
 20
-5965.91678404
 42
-0.02240000
  0
VERTEX
  8
0
 10
4352.06302630
 20
-5971.43308404
 42
-0.01460000
  0
VERTEX
  8
0
 10
4359.78402630
 20
-5977.85428404
 42
-0.00820000
  0
VERTEX
  8
0
 10
4368.35602630
 20
-5985.66608404
 42
-0.00280000
  0
VERTEX
  8
0
 10
4379.01302630
 20
-5995.80968404
  0
VERTEX
  8
0
 10
4380.01802630
 20
-5996.77338404
 42
-0.00830000
  0
VERTEX
  8
0
 10
4389.32002630
 20
-6006.95588404
 42
-0.01470000
  0
VERTEX
  8
0
 10
4398.27102630
 20
-6017.70678404
 42
-0.02310000
  0
VERTEX
  8
0
 10
4407.61502630
 20
-6030.83068404
 42
-0.04140000
  0
VERTEX
  8
0
 10
4419.80202630
 20
-6053.76718404
 42
-0.02460000
  0
VERTEX
  8
0
 10
4426.02102630
 20
-6070.48318404
 42
-0.01960000
  0
VERTEX
  8
0
 10
4430.67802630
 20
-6087.45158404
 42
-0.01630000
  0
VERTEX
  8
0
 10
4434.36002630
 20
-6105.95848404
 42
-0.01370000
  0
VERTEX
  8
0
 10
4437.22702630
 20
-6126.81518404
 42
-0.01010000
  0
VERTEX
  8
0
 10
4439.06702630
 20
-6147.35348404
 42
-0.01340000
  0
VERTEX
  8
0
 10
4439.98302630
 20
-6151.98328404
  0
VERTEX
  8
0
 10
4440.13502630
 20
-6152.84528404
 42
0.00920000
  0
VERTEX
  8
0
 10
4440.93402630
 20
-6157.10208404
 42
0.02870000
  0
VERTEX
  8
0
 10
4441.97302630
 20
-6160.99378404
 42
0.04990000
  0
VERTEX
  8
0
 10
4443.55302630
 20
-6164.55168404
 42
0.11500000
  0
VERTEX
  8
0
 10
4448.13502630
 20
-6169.47068404
 42
0.05370000
  0
VERTEX
  8
0
 10
4451.80502630
 20
-6171.40058404
 42
0.03990000
  0
VERTEX
  8
0
 10
4456.23902630
 20
-6172.76008404
 42
0.03040000
  0
VERTEX
  8
0
 10
4461.79902630
 20
-6173.64428404
 42
0.02340000
  0
VERTEX
  8
0
 10
4468.91302630
 20
-6174.00658404
 42
0.01330000
  0
VERTEX
  8
0
 10
4475.16202630
 20
-6173.87898404
  0
VERTEX
  8
0
 10
4570.25805522
 20
-6171.70214083
  0
VERTEX
  8
0
 10
4674.21283964
 20
-6340.82029394
 42
0.00860000
  0
VERTEX
  8
0
 10
4676.91583964
 20
-6343.67029394
 42
0.03510000
  0
VERTEX
  8
0
 10
4687.62583964
 20
-6353.18229394
 42
0.04760000
  0
VERTEX
  8
0
 10
4701.94583964
 20
-6362.17629394
 42
0.04990000
  0
VERTEX
  8
0
 10
4718.33583964
 20
-6368.41729394
 42
0.03130000
  0
VERTEX
  8
0
 10
4730.93883964
 20
-6370.98829394
 42
0.02140000
  0
VERTEX
  8
0
 10
4742.46483964
 20
-6372.09429394
 42
0.01250000
  0
VERTEX
  8
0
 10
4753.18383964
 20
-6372.39029394
 42
0.00370000
  0
VERTEX
  8
0
 10
4763.04683964
 20
-6372.34329394
 42
0.00200000
  0
VERTEX
  8
0
 10
5040.56383964
 20
-6365.99129394
 42
0.01040000
  0
VERTEX
  8
0
 10
5045.11983964
 20
-6365.75529394
 42
0.03580000
  0
VERTEX
  8
0
 10
5059.30083964
 20
-6363.71929394
 42
0.03910000
  0
VERTEX
  8
0
 10
5072.01783964
 20
-6359.89229394
 42
0.04720000
  0
VERTEX
  8
0
 10
5084.30983964
 20
-6353.72929394
 42
0.09080000
  0
VERTEX
  8
0
 10
5101.88283964
 20
-6337.66429394
 42
0.04610000
  0
VERTEX
  8
0
 10
5108.85683964
 20
-6326.44229394
  0
VERTEX
  8
0
 10
5197.43660210
 20
-6134.82733355
  0
VERTEX
  8
0
 10
5292.02504580
 20
-6134.82733355
  0
SEQEND
  0
POLYLINE
  8
Default_Layer
 66
   1
 39
0.000000
 70
    1
  0
VERTEX
  8
0
 10
4418.13469430
 20
-5743.83780955
 42
-0.02574199
  0
VERTEX
  8
0
 10
3815.93846734
 20
-5742.84617448
 42
0.13639240
  0
VERTEX
  8
0
 10
3797.81365687
 20
-5656.41800751
  0
VERTEX
  8
0
 10
3799.19265687
 20
-4335.41780751
 42
0.14430000
  0
VERTEX
  8
0
 10
3814.82265687
 20
-4274.69490751
  0
VERTEX
  8
0
 10
3814.78265687
 20
-4253.89140751
 42
-0.02630000
  0
VERTEX
  8
0
 10
4423.54365687
 20
-4252.76150751
  0
VERTEX
  8
0
 10
4423.53365687
 20
-4260.14570751
  0
VERTEX
  8
0
 10
4423.51465687
 20
-4270.41720751
 42
0.00230000
  0
VERTEX
  8
0
 10
4423.51765687
 20
-4276.48760751
 42
-0.00330000
  0
VERTEX
  8
0
 10
4424.60365687
 20
-4278.62570751
 42
-0.00550000
  0
VERTEX
  8
0
 10
4428.23765687
 20
-4286.16330751
  0
VERTEX
  8
0
 10
4429.00365687
 20
-4287.78080751
 42
0.00800000
  0
VERTEX
  8
0
 10
4432.28465687
 20
-4294.48230751
 42
0.01930000
  0
VERTEX
  8
0
 10
4435.74465687
 20
-4300.67000751
 42
0.03240000
  0
VERTEX
  8
0
 10
4439.97865687
 20
-4306.68590751
 42
0.06080000
  0
VERTEX
  8
0
 10
4447.67965687
 20
-4314.16440751
 42
0.04600000
  0
VERTEX
  8
0
 10
4455.11865687
 20
-4318.76520751
 42
0.03430000
  0
VERTEX
  8
0
 10
4462.85665687
 20
-4321.97720751
 42
0.02670000
  0
VERTEX
  8
0
 10
4471.48565687
 20
-4324.38320751
 42
0.02160000
  0
VERTEX
  8
0
 10
4481.61765687
 20
-4326.18020751
 42
0.01760000
  0
VERTEX
  8
0
 10
4493.66865687
 20
-4327.35850751
 42
0.01450000
  0
VERTEX
  8
0
 10
4508.43665687
 20
-4327.85270751
  0
VERTEX
  8
0
 10
4612.05065687
 20
-4328.34120751
 42
-0.01720000
  0
VERTEX
  8
0
 10
4612.33565687
 20
-4328.36100751
 42
-0.13230000
  0
VERTEX
  8
0
 10
4614.31165687
 20
-4329.13040751
 42
-0.06930000
  0
VERTEX
  8
0
 10
4615.64765687
 20
-4330.43440751
 42
-0.04230000
  0
VERTEX
  8
0
 10
4616.97065687
 20
-4332.47000751
 42
-0.02330000
  0
VERTEX
  8
0
 10
4618.45665687
 20
-4335.57120751
 42
-0.00740000
  0
VERTEX
  8
0
 10
4620.32565687
 20
-4340.16090751
 42
0.00310000
  0
VERTEX
  8
0
 10
4621.84365687
 20
-4343.94200751
 42
0.01730000
  0
VERTEX
  8
0
 10
4625.15565687
 20
-4351.35350751
 42
0.03320000
  0
VERTEX
  8
0
 10
4630.37165687
 20
-4360.42710751
 42
0.07960000
  0
VERTEX
  8
0
 10
4644.85465687
 20
-4376.04040751
  0
VERTEX
  8
0
 10
4651.10465687
 20
-4381.58180751
  0
VERTEX
  8
0
 10
4651.15365687
 20
-5618.57400751
  0
VERTEX
  8
0
 10
4644.00465687
 20
-5624.66500751
 42
0.04590000
  0
VERTEX
  8
0
 10
4634.77065687
 20
-5633.96300751
 42
0.03280000
  0
VERTEX
  8
0
 10
4628.27465687
 20
-5642.99100751
 42
0.01990000
  0
VERTEX
  8
0
 10
4623.61165687
 20
-5651.17200751
 42
0.00680000
  0
VERTEX
  8
0
 10
4620.19965687
 20
-5657.98300751
  0
VERTEX
  8
0
 10
4619.20965687
 20
-5660.00200751
 42
-0.01130000
  0
VERTEX
  8
0
 10
4616.91165687
 20
-5664.46200751
 42
-0.02580000
  0
VERTEX
  8
0
 10
4615.04865687
 20
-5667.50800751
 42
-0.04310000
  0
VERTEX
  8
0
 10
4613.43965687
 20
-5669.47800751
 42
-0.06810000
  0
VERTEX
  8
0
 10
4611.87065687
 20
-5670.71000751
 42
-0.12510000
  0
VERTEX
  8
0
 10
4609.72265687
 20
-5671.32700751
  0
VERTEX
  8
0
 10
4506.96065687
 20
-5670.33700751
 42
0.00460000
  0
VERTEX
  8
0
 10
4501.43365687
 20
-5670.37100751
 42
0.01510000
  0
VERTEX
  8
0
 10
4487.51265687
 20
-5670.97900751
 42
0.01860000
  0
VERTEX
  8
0
 10
4476.01365687
 20
-5672.25600751
 42
0.02300000
  0
VERTEX
  8
0
 10
4466.37665687
 20
-5674.14300751
 42
0.02870000
  0
VERTEX
  8
0
 10
4458.12165687
 20
-5676.66600751
 42
0.03650000
  0
VERTEX
  8
0
 10
4450.76565687
 20
-5680.01000751
 42
0.05380000
  0
VERTEX
  8
0
 10
4442.96665687
 20
-5685.43100751
 42
0.04920000
  0
VERTEX
  8
0
 10
4436.93165687
 20
-5691.86600751
 42
0.02890000
  0
VERTEX
  8
0
 10
4432.97465687
 20
-5697.68900751
 42
0.01670000
  0
VERTEX
  8
0
 10
4429.55765687
 20
-5703.86000751
 42
0.00550000
  0
VERTEX
  8
0
 10
4426.18765687
 20
-5710.63900751
  0
VERTEX
  8
0
 10
4425.41665687
 20
-5712.21700751
 42
-0.00622460
  0
VERTEX
  8
0
 10
4418.13469430
 20
-5743.83780955
  0
SEQEND
  0
POLYLINE
  8
Default_Layer
 66
   1
 39
0.000000
 70
    1
  0
VERTEX
  8
0
 10
4539.32165687
 20
-4540.61300751
 42
0.08030000
  0
VERTEX
  8
0
 10
4543.09865687
 20
-4549.18000751
 42
0.03300000
  0
VERTEX
  8
0
 10
4546.16765687
 20
-4553.26500751
 42
0.01070000
  0
VERTEX
  8
0
 10
4549.08265687
 20
-4556.50900751
 42
-0.00190000
  0
VERTEX
  8
0
 10
4550.22465687
 20
-4557.75000751
 42
-0.01950000
  0
VERTEX
  8
0
 10
4552.66065687
 20
-4560.59800751
 42
-0.04240000
  0
VERTEX
  8
0
 10
4554.66265687
 20
-4563.62900751
 42
-0.10220000
  0
VERTEX
  8
0
 10
4556.39865687
 20
-4569.36100751
 42
0.33560346
  0
VERTEX
  8
0
 10
4575.61650327
 20
-4583.93511791
 42
0.33560346
  0
VERTEX
  8
0
 10
4594.87065687
 20
-4569.40900751
 42
-0.06190000
  0
VERTEX
  8
0
 10
4595.64565687
 20
-4565.84400751
 42
-0.06010000
  0
VERTEX
  8
0
 10
4597.42165687
 20
-4562.29500751
 42
-0.03220000
  0
VERTEX
  8
0
 10
4599.60965687
 20
-4559.40800751
 42
-0.01060000
  0
VERTEX
  8
0
 10
4602.23065687
 20
-4556.50300751
 42
0.00820000
  0
VERTEX
  8
0
 10
4604.78265687
 20
-4553.69100751
 42
0.03010000
  0
VERTEX
  8
0
 10
4607.84265687
 20
-4549.76100751
 42
0.08510000
  0
VERTEX
  8
0
 10
4611.98065687
 20
-4540.74400751
 42
0.06320000
  0
VERTEX
  8
0
 10
4613.16965687
 20
-4531.37600751
 42
0.41421356
  0
VERTEX
  8
0
 10
4575.66965687
 20
-4493.87600751
 42
0.41421356
  0
VERTEX
  8
0
 10
4538.16965687
 20
-4531.37600751
 42
0.06350000
  0
VERTEX
  8
0
 10
4539.32165687
 20
-4540.61300751
  0
SEQEND
  0
POLYLINE
  8
Default_Layer
 66
   1
 39
0.000000
 70
    1
  0
VERTEX
  8
0
 10
3896.14965687
 20
-4451.06200751
 42
0.08030000
  0
VERTEX
  8
0
 10
3887.58265687
 20
-4454.83900751
 42
0.03300000
  0
VERTEX
  8
0
 10
3883.49765687
 20
-4457.90800751
 42
0.01070000
  0
VERTEX
  8
0
 10
3880.25365687
 20
-4460.82300751
 42
-0.00190000
  0
VERTEX
  8
0
 10
3879.01265687
 20
-4461.96500751
 42
-0.01950000
  0
VERTEX
  8
0
 10
3876.16465687
 20
-4464.40100751
 42
-0.04240000
  0
VERTEX
  8
0
 10
3873.13365687
 20
-4466.40300751
 42
-0.10220000
  0
VERTEX
  8
0
 10
3867.40165687
 20
-4468.13900751
 42
0.33560346
  0
VERTEX
  8
0
 10
3852.82716827
 20
-4487.35735391
 42
0.33560346
  0
VERTEX
  8
0
 10
3867.35365687
 20
-4506.61200751
 42
-0.06190000
  0
VERTEX
  8
0
 10
3870.91865687
 20
-4507.38600751
 42
-0.06010000
  0
VERTEX
  8
0
 10
3874.46765687
 20
-4509.16200751
 42
-0.03220000
  0
VERTEX
  8
0
 10
3877.35465687
 20
-4511.35000751
 42
-0.01060000
  0
VERTEX
  8
0
 10
3880.25965687
 20
-4513.97100751
 42
0.00820000
  0
VERTEX
  8
0
 10
3883.07165687
 20
-4516.52300751
 42
0.03010000
  0
VERTEX
  8
0
 10
3887.00165687
 20
-4519.58300751
 42
0.08510000
  0
VERTEX
  8
0
 10
3896.01865687
 20
-4523.72100751
 42
0.06320000
  0
VERTEX
  8
0
 10
3905.38665687
 20
-4524.91000751
 42
0.41421356
  0
VERTEX
  8
0
 10
3942.88665687
 20
-4487.41000751
 42
0.41421356
  0
VERTEX
  8
0
 10
3905.38665687
 20
-4449.91000751
 42
0.06350000
  0
VERTEX
  8
0
 10
3896.14965687
 20
-4451.06200751
  0
SEQEND
  0
POLYLINE
  8
Default_Layer
 66
   1
 39
0.000000
 70
    1
  0
VERTEX
  8
0
 10
3886.95765687
 20
-5473.09200751
 42
0.08030000
  0
VERTEX
  8
0
 10
3878.39065687
 20
-5476.87000751
 42
0.03300000
  0
VERTEX
  8
0
 10
3874.30565687
 20
-5479.93800751
 42
0.01070000
  0
VERTEX
  8
0
 10
3871.06065687
 20
-5482.85300751
 42
-0.00190000
  0
VERTEX
  8
0
 10
3869.82065687
 20
-5483.99600751
 42
-0.01950000
  0
VERTEX
  8
0
 10
3866.97165687
 20
-5486.43100751
 42
-0.04240000
  0
VERTEX
  8
0
 10
3863.94165687
 20
-5488.43400751
 42
-0.10220000
  0
VERTEX
  8
0
 10
3858.20965687
 20
-5490.16900751
 42
0.33560346
  0
VERTEX
  8
0
 10
3843.63516827
 20
-5509.38735391
 42
0.33560346
  0
VERTEX
  8
0
 10
3858.16165687
 20
-5528.64200751
 42
-0.06190000
  0
VERTEX
  8
0
 10
3861.72665687
 20
-5529.41600751
 42
-0.06010000
  0
VERTEX
  8
0
 10
3865.27565687
 20
-5531.19200751
 42
-0.03220000
  0
VERTEX
  8
0
 10
3868.16265687
 20
-5533.38100751
 42
-0.01060000
  0
VERTEX
  8
0
 10
3871.06765687
 20
-5536.00200751
 42
0.00820000
  0
VERTEX
  8
0
 10
3873.87865687
 20
-5538.55300751
 42
0.03010000
  0
VERTEX
  8
0
 10
3877.80965687
 20
-5541.61300751
 42
0.08510000
  0
VERTEX
  8
0
 10
3886.82665687
 20
-5545.75100751
 42
0.06320000
  0
VERTEX
  8
0
 10
3896.19365687
 20
-5546.94000751
 42
0.41421356
  0
VERTEX
  8
0
 10
3933.69365687
 20
-5509.44000751
 42
0.41421356
  0
VERTEX
  8
0
 10
3896.19365687
 20
-5471.94000751
 42
0.06350000
  0
VERTEX
  8
0
 10
3886.95765687
 20
-5473.09200751
  0
SEQEND
  0
POLYLINE
  8
Default_Layer
 66
   1
 39
0.000000
 70
    1
  0
VERTEX
  8
0
 10
4612.91065687
 20
-5460.60200751
 42
-0.06350000
  0
VERTEX
  8
0
 10
4614.06265687
 20
-5469.83800751
 42
-0.41421356
  0
VERTEX
  8
0
 10
4576.56265687
 20
-5507.33800751
 42
-0.41421356
  0
VERTEX
  8
0
 10
4539.06265687
 20
-5469.83800751
 42
-0.06320000
  0
VERTEX
  8
0
 10
4540.25065687
 20
-5460.47100751
 42
-0.08510000
  0
VERTEX
  8
0
 10
4544.38965687
 20
-5451.45400751
 42
-0.03010000
  0
VERTEX
  8
0
 10
4547.44965687
 20
-5447.52300751
 42
-0.00820000
  0
VERTEX
  8
0
 10
4550.00065687
 20
-5444.71200751
 42
0.01060000
  0
VERTEX
  8
0
 10
4552.62165687
 20
-5441.80700751
 42
0.03220000
  0
VERTEX
  8
0
 10
4554.81065687
 20
-5438.92000751
 42
0.06010000
  0
VERTEX
  8
0
 10
4556.58665687
 20
-5435.37100751
 42
0.06190000
  0
VERTEX
  8
0
 10
4557.36065687
 20
-5431.80600751
 42
-0.33560346
  0
VERTEX
  8
0
 10
4576.61531047
 20
-5417.27951891
 42
-0.33560346
  0
VERTEX
  8
0
 10
4595.83365687
 20
-5431.85400751
 42
0.10220000
  0
VERTEX
  8
0
 10
4597.56865687
 20
-5437.58600751
 42
0.04240000
  0
VERTEX
  8
0
 10
4599.57165687
 20
-5440.61700751
 42
0.01950000
  0
VERTEX
  8
0
 10
4602.00665687
 20
-5443.46500751
 42
0.00190000
  0
VERTEX
  8
0
 10
4603.14865687
 20
-5444.70500751
 42
-0.01070000
  0
VERTEX
  8
0
 10
4606.06465687
 20
-5447.95000751
 42
-0.03300000
  0
VERTEX
  8
0
 10
4609.13265687
 20
-5452.03500751
 42
-0.08030000
  0
VERTEX
  8
0
 10
4612.91065687
 20
-5460.60200751
  0
SEQEND
  0
POLYLINE
  8
Default_Layer
 66
   1
 39
0.000000
 70
    1
  0
VERTEX
  8
0
 10
5886.79560185
 20
-6277.44015766
  0
VERTEX
  8
0
 10
5886.79560185
 20
-6718.17115766
  0
VERTEX
  8
0
 10
6496.18610185
 20
-6718.17115766
  0
VERTEX
  8
0
 10
6626.70410185
 20
-6395.13115766
  0
VERTEX
  8
0
 10
6626.70410185
 20
-6277.44015766
  0
VERTEX
  8
0
 10
5886.79560185
 20
-6277.44015766
  0
SEQEND
  0
POLYLINE
  8
Default_Layer
 66
   1
 39
0.000000
 70
    1
  0
VERTEX
  8
0
 10
5790.27490677
 20
-6490.05261957
 42
-0.10220000
  0
VERTEX
  8
0
 10
5789.56900677
 20
-6494.17161957
 42
-0.08800000
  0
VERTEX
  8
0
 10
5787.55190677
 20
-6497.39961957
 42
-0.06040000
  0
VERTEX
  8
0
 10
5784.80160677
 20
-6499.79361957
 42
-0.04720000
  0
VERTEX
  8
0
 10
5781.01890677
 20
-6501.86861957
 42
-0.03830000
  0
VERTEX
  8
0
 10
5775.94610677
 20
-6503.61561957
 42
-0.03420000
  0
VERTEX
  8
0
 10
5769.02500677
 20
-6504.92661957
 42
-0.03040000
  0
VERTEX
  8
0
 10
5761.06470677
 20
-6505.40461957
  0
VERTEX
  8
0
 10
5732.61080677
 20
-6505.61461957
  0
VERTEX
  8
0
 10
5732.61080677
 20
-6725.88061957
  0
VERTEX
  8
0
 10
5865.61080677
 20
-6725.88061957
  0
VERTEX
  8
0
 10
5865.61080677
 20
-6285.24561957
  0
VERTEX
  8
0
 10
5800.38440677
 20
-6285.24561957
  0
VERTEX
  8
0
 10
5790.27490677
 20
-6490.05261957
  0
SEQEND
  0
POLYLINE
  8
Default_Layer
 66
   1
 39
0.000000
 70
    1
  0
VERTEX
  8
0
 10
5859.99342959
 20
-6964.87393891
  0
VERTEX
  8
0
 10
6468.66342959
 20
-6964.87393891
  0
VERTEX
  8
0
 10
6468.66342959
 20
-6822.87393891
  0
VERTEX
  8
0
 10
5859.99342959
 20
-6822.87393891
  0
VERTEX
  8
0
 10
5859.99342959
 20
-6964.87393891
  0
SEQEND
  0
POLYLINE
  8
Default_Layer
 66
   1
 39
0.000000
 70
    1
  0
VERTEX
  8
0
 10
6790.71957726
 20
-6269.94815278
  0
VERTEX
  8
0
 10
6657.71957726
 20
-6269.94815278
  0
VERTEX
  8
0
 10
6657.71957726
 20
-6617.94815278
  0
VERTEX
  8
0
 10
6790.71957726
 20
-6617.94815278
  0
VERTEX
  8
0
 10
6790.71957726
 20
-6269.94815278
  0
SEQEND
  0
POLYLINE
  8
Default_Layer
 66
   1
 39
0.000000
 70
    1
  0
VERTEX
  8
0
 10
4776.71857685
 20
-5610.19074535
 42
-0.05750000
  0
VERTEX
  8
0
 10
4790.16057685
 20
-5601.38374535
 42
-0.03970000
  0
VERTEX
  8
0
 10
4801.82857685
 20
-5596.64874535
 42
-0.03280000
  0
VERTEX
  8
0
 10
4813.96257685
 20
-5593.66974535
 42
-0.01810000
  0
VERTEX
  8
0
 10
4822.08557685
 20
-5592.52274535
  0
VERTEX
  8
0
 10
5429.22157685
 20
-5604.96474535
 42
-0.03420000
  0
VERTEX
  8
0
 10
5437.39957685
 20
-5605.68574535
 42
-0.04430000
  0
VERTEX
  8
0
 10
5445.29457685
 20
-5607.65774535
 42
-0.07110000
  0
VERTEX
  8
0
 10
5455.00957685
 20
-5612.66174535
 42
-0.05340000
  0
VERTEX
  8
0
 10
5461.52257685
 20
-5618.46474535
 42
-0.03860000
  0
VERTEX
  8
0
 10
5466.37957685
 20
-5624.73974535
 42
-0.03010000
  0
VERTEX
  8
0
 10
5470.58257685
 20
-5632.05574535
 42
-0.02330000
  0
VERTEX
  8
0
 10
5474.38557685
 20
-5640.69174535
 42
-0.01760000
  0
VERTEX
  8
0
 10
5477.94257685
 20
-5650.96074535
  0
VERTEX
  8
0
 10
5478.07257685
 20
-5651.38074535
 42
-0.04340000
  0
VERTEX
  8
0
 10
5500.69257685
 20
-5740.36274535
  0
VERTEX
  8
0
 10
5526.06457685
 20
-5740.56874535
  0
VERTEX
  8
0
 10
5573.06457685
 20
-5627.25174535
 42
0.07630000
  0
VERTEX
  8
0
 10
5574.39257685
 20
-5608.22974535
  0
VERTEX
  8
0
 10
5632.44657685
 20
-5608.62174535
  0
VERTEX
  8
0
 10
5633.39157685
 20
-4384.57104535
  0
VERTEX
  8
0
 10
5575.33657685
 20
-4384.44344535
 42
0.07630000
  0
VERTEX
  8
0
 10
5574.17857685
 20
-4365.41024535
  0
VERTEX
  8
0
 10
5528.19657685
 20
-4251.67664535
  0
VERTEX
  8
0
 10
5502.82357685
 20
-4251.65534535
 42
-0.04340000
  0
VERTEX
  8
0
 10
5479.40657685
 20
-4340.43124535
 42
-0.01740000
  0
VERTEX
  8
0
 10
5475.75557685
 20
-4350.75834535
 42
-0.02340000
  0
VERTEX
  8
0
 10
5471.84057685
 20
-4359.50034535
 42
-0.03000000
  0
VERTEX
  8
0
 10
5467.57757685
 20
-4366.81564535
 42
-0.03810000
  0
VERTEX
  8
0
 10
5462.72357685
 20
-4373.02244535
 42
-0.05300000
  0
VERTEX
  8
0
 10
5456.21457685
 20
-4378.78964535
 42
-0.07240000
  0
VERTEX
  8
0
 10
5446.31157685
 20
-4383.83364535
 42
-0.04430000
  0
VERTEX
  8
0
 10
5438.41957685
 20
-4385.74494535
 42
-0.03460000
  0
VERTEX
  8
0
 10
5430.14157685
 20
-4386.40784535
  0
VERTEX
  8
0
 10
4822.98357685
 20
-4392.35984535
 42
-0.02290000
  0
VERTEX
  8
0
 10
4810.81957685
 20
-4390.42814535
 42
-0.02730000
  0
VERTEX
  8
0
 10
4800.22057685
 20
-4387.63464535
 42
-0.03340000
  0
VERTEX
  8
0
 10
4790.64157685
 20
-4383.82124535
 42
-0.04290000
  0
VERTEX
  8
0
 10
4781.41157685
 20
-4378.39824535
 42
-0.02650000
  0
VERTEX
  8
0
 10
4776.71857685
 20
-4374.66664535
  0
VERTEX
  8
0
 10
4776.71857685
 20
-5610.19074535
  0
SEQEND
  0
POLYLINE
  8
Default_Layer
 66
   1
 39
0.000000
 70
    1
  0
VERTEX
  8
0
 10
5453.63657685
 20
-4539.69674535
 42
-0.06350000
  0
VERTEX
  8
0
 10
5452.48457685
 20
-4530.45974535
 42
-0.41421356
  0
VERTEX
  8
0
 10
5489.98457685
 20
-4492.95974535
 42
-0.41421356
  0
VERTEX
  8
0
 10
5527.48457685
 20
-4530.45974535
 42
-0.06320000
  0
VERTEX
  8
0
 10
5526.29557685
 20
-4539.82774535
 42
-0.08510000
  0
VERTEX
  8
0
 10
5522.15757685
 20
-4548.84474535
 42
-0.03010000
  0
VERTEX
  8
0
 10
5519.09757685
 20
-4552.77474535
 42
-0.00820000
  0
VERTEX
  8
0
 10
5516.54557685
 20
-4555.58674535
 42
0.01060000
  0
VERTEX
  8
0
 10
5513.92557685
 20
-4558.49074535
 42
0.03220000
  0
VERTEX
  8
0
 10
5511.73657685
 20
-4561.37774535
 42
0.06010000
  0
VERTEX
  8
0
 10
5509.96057685
 20
-4564.92674535
 42
0.06190000
  0
VERTEX
  8
0
 10
5509.18657685
 20
-4568.49174535
 42
-0.33560346
  0
VERTEX
  8
0
 10
5489.93230145
 20
-4583.01873395
 42
-0.33560346
  0
VERTEX
  8
0
 10
5470.71357685
 20
-4568.44474535
 42
0.10220000
  0
VERTEX
  8
0
 10
5468.97757685
 20
-4562.71274535
 42
0.04240000
  0
VERTEX
  8
0
 10
5466.97557685
 20
-4559.68174535
 42
0.01950000
  0
VERTEX
  8
0
 10
5464.53957685
 20
-4556.83374535
 42
0.00190000
  0
VERTEX
  8
0
 10
5463.39757685
 20
-4555.59274535
 42
-0.01070000
  0
VERTEX
  8
0
 10
5460.48257685
 20
-4552.34874535
 42
-0.03300000
  0
VERTEX
  8
0
 10
5457.41357685
 20
-4548.26274535
 42
-0.08030000
  0
VERTEX
  8
0
 10
5453.63657685
 20
-4539.69674535
  0
SEQEND
  0
POLYLINE
  8
Default_Layer
 66
   1
 39
0.000000
 70
    1
  0
VERTEX
  8
0
 10
5520.64357685
 20
-5451.69274535
 42
-0.06350000
  0
VERTEX
  8
0
 10
5521.79557685
 20
-5460.92874535
 42
-0.41421356
  0
VERTEX
  8
0
 10
5484.29557685
 20
-5498.42874535
 42
-0.41421356
  0
VERTEX
  8
0
 10
5446.79557685
 20
-5460.92874535
 42
-0.06320000
  0
VERTEX
  8
0
 10
5447.98457685
 20
-5451.56174535
 42
-0.08510000
  0
VERTEX
  8
0
 10
5452.12257685
 20
-5442.54474535
 42
-0.03010000
  0
VERTEX
  8
0
 10
5455.18257685
 20
-5438.61374535
 42
-0.00820000
  0
VERTEX
  8
0
 10
5457.73457685
 20
-5435.80274535
 42
0.01060000
  0
VERTEX
  8
0
 10
5460.35557685
 20
-5432.89774535
 42
0.03220000
  0
VERTEX
  8
0
 10
5462.54357685
 20
-5430.01074535
 42
0.06010000
  0
VERTEX
  8
0
 10
5464.31957685
 20
-5426.46174535
 42
0.06190000
  0
VERTEX
  8
0
 10
5465.09457685
 20
-5422.89674535
 42
-0.33560346
  0
VERTEX
  8
0
 10
5484.34873045
 20
-5408.37063495
 42
-0.33560346
  0
VERTEX
  8
0
 10
5503.56657685
 20
-5422.94474535
 42
0.10220000
  0
VERTEX
  8
0
 10
5505.30257685
 20
-5428.67674535
 42
0.04240000
  0
VERTEX
  8
0
 10
5507.30457685
 20
-5431.70774535
 42
0.01950000
  0
VERTEX
  8
0
 10
5509.74057685
 20
-5434.55574535
 42
0.00190000
  0
VERTEX
  8
0
 10
5510.88257685
 20
-5435.79574535
 42
-0.01070000
  0
VERTEX
  8
0
 10
5513.79757685
 20
-5439.04074535
 42
-0.03300000
  0
VERTEX
  8
0
 10
5516.86657685
 20
-5443.12574535
 42
-0.08030000
  0
VERTEX
  8
0
 10
5520.64357685
 20
-5451.69274535
  0
SEQEND
  0
POLYLINE
  8
Default_Layer
 66
   1
 39
0.000000
 70
    1
  0
VERTEX
  8
0
 10
5551.01292187
 20
-3854.61987705
  0
VERTEX
  8
0
 10
6290.92092187
 20
-3854.61987705
  0
VERTEX
  8
0
 10
6290.92092187
 20
-3736.92887705
  0
VERTEX
  8
0
 10
6160.40392187
 20
-3413.88887705
  0
VERTEX
  8
0
 10
5551.01292187
 20
-3413.88887705
  0
VERTEX
  8
0
 10
5551.01292187
 20
-3854.61987705
  0
SEQEND
  0
POLYLINE
  8
Default_Layer
 66
   1
 39
0.000000
 70
    1
  0
VERTEX
  8
0
 10
5455.30656261
 20
-3661.62887705
  0
VERTEX
  8
0
 10
5465.41556261
 20
-3866.43587705
  0
VERTEX
  8
0
 10
5530.64256261
 20
-3866.43587705
  0
VERTEX
  8
0
 10
5530.64256261
 20
-3425.80087705
  0
VERTEX
  8
0
 10
5397.64256261
 20
-3425.80087705
  0
VERTEX
  8
0
 10
5397.64256261
 20
-3646.06687705
  0
VERTEX
  8
0
 10
5426.09656261
 20
-3646.27687705
 42
-0.03790000
  0
VERTEX
  8
0
 10
5435.82156261
 20
-3646.99987705
 42
-0.03490000
  0
VERTEX
  8
0
 10
5442.28956261
 20
-3648.43887705
 42
-0.04010000
  0
VERTEX
  8
0
 10
5447.04456261
 20
-3650.27387705
 42
-0.04970000
  0
VERTEX
  8
0
 10
5450.55256261
 20
-3652.40987705
 42
-0.06540000
  0
VERTEX
  8
0
 10
5453.12956261
 20
-3654.94187705
 42
-0.10220000
  0
VERTEX
  8
0
 10
5454.98556261
 20
-3658.69387705
 42
-0.07010000
  0
VERTEX
  8
0
 10
5455.30656261
 20
-3661.62887705
  0
SEQEND
  0
POLYLINE
  8
Default_Layer
 66
   1
 39
0.000000
 70
    1
  0
VERTEX
  8
0
 10
5569.43692187
 20
-3257.38187705
  0
VERTEX
  8
0
 10
5569.43692187
 20
-3399.38187705
  0
VERTEX
  8
0
 10
6178.10692187
 20
-3399.38187705
  0
VERTEX
  8
0
 10
6178.10692187
 20
-3257.38187705
  0
VERTEX
  8
0
 10
5569.43692187
 20
-3257.38187705
  0
SEQEND
  0
POLYLINE
  8
Default_Layer
 66
   1
 39
0.000000
 70
    1
  0
VERTEX
  8
0
 10
6318.29330660
 20
-3742.34041595
  0
VERTEX
  8
0
 10
6451.29330660
 20
-3742.34041595
  0
VERTEX
  8
0
 10
6451.29330660
 20
-3394.34041595
  0
VERTEX
  8
0
 10
6318.29330660
 20
-3394.34041595
  0
VERTEX
  8
0
 10
6318.29330660
 20
-3742.34041595
  0
SEQEND
  0
POLYLINE
  8
Default_Layer
 66
   1
 39
0.000000
 70
    1
  0
VERTEX
  8
0
 10
2907.84024707
 20
-7034.95142789
  0
VERTEX
  8
0
 10
3336.04824707
 20
-7024.14442789
 42
0.03670000
  0
VERTEX
  8
0
 10
3343.56924707
 20
-7023.46942789
 42
0.04300000
  0
VERTEX
  8
0
 10
3354.55324707
 20
-7020.68942789
 42
0.05050000
  0
VERTEX
  8
0
 10
3366.94624707
 20
-7014.97642789
 42
0.04350000
  0
VERTEX
  8
0
 10
3375.11324707
 20
-7009.15142789
 42
0.04770000
  0
VERTEX
  8
0
 10
3381.37524707
 20
-7002.67942789
 42
0.05740000
  0
VERTEX
  8
0
 10
3386.11824707
 20
-6995.09642789
 42
0.11590000
  0
VERTEX
  8
0
 10
3389.45624707
 20
-6979.63142789
  0
VERTEX
  8
0
 10
3389.45124707
 20
-6979.39842789
  0
VERTEX
  8
0
 10
3388.53524707
 20
-6933.46842789
  0
VERTEX
  8
0
 10
3390.89424707
 20
-6931.77342789
 42
0.00180000
  0
VERTEX
  8
0
 10
3409.27424707
 20
-6918.50142789
 42
0.00560000
  0
VERTEX
  8
0
 10
3424.76824707
 20
-6906.96142789
 42
0.00940000
  0
VERTEX
  8
0
 10
3437.67524707
 20
-6896.73242789
 42
0.01350000
  0
VERTEX
  8
0
 10
3448.76424707
 20
-6887.08942789
 42
0.01810000
  0
VERTEX
  8
0
 10
3458.45724707
 20
-6877.52142789
 42
0.02390000
  0
VERTEX
  8
0
 10
3467.19524707
 20
-6867.31342789
 42
0.03350000
  0
VERTEX
  8
0
 10
3475.72724707
 20
-6854.65642789
 42
0.04820000
  0
VERTEX
  8
0
 10
3484.23824707
 20
-6835.99242789
 42
0.02880000
  0
VERTEX
  8
0
 10
3488.08124707
 20
-6822.30442789
 42
0.02210000
  0
VERTEX
  8
0
 10
3490.46724707
 20
-6808.55442789
 42
0.01700000
  0
VERTEX
  8
0
 10
3491.83724707
 20
-6793.95642789
 42
0.01290000
  0
VERTEX
  8
0
 10
3492.38624707
 20
-6777.77842789
 42
0.00710000
  0
VERTEX
  8
0
 10
3492.31824707
 20
-6764.51742789
  0
VERTEX
  8
0
 10
3497.19524707
 20
-6029.10442789
  0
VERTEX
  8
0
 10
3495.39124707
 20
-5983.70042789
  0
VERTEX
  8
0
 10
3399.84924707
 20
-5985.70742789
  0
VERTEX
  8
0
 10
3311.46524707
 20
-6176.96242789
 42
-0.04610000
  0
VERTEX
  8
0
 10
3304.49124707
 20
-6188.18442789
 42
-0.09080000
  0
VERTEX
  8
0
 10
3286.91824707
 20
-6204.24942789
 42
-0.04720000
  0
VERTEX
  8
0
 10
3274.62624707
 20
-6210.41242789
 42
-0.03910000
  0
VERTEX
  8
0
 10
3261.90924707
 20
-6214.23942789
 42
-0.03580000
  0
VERTEX
  8
0
 10
3247.72824707
 20
-6216.27542789
 42
-0.01040000
  0
VERTEX
  8
0
 10
3243.17224707
 20
-6216.51142789
 42
-0.00200000
  0
VERTEX
  8
0
 10
2965.65524707
 20
-6222.86342789
 42
-0.00370000
  0
VERTEX
  8
0
 10
2955.79224707
 20
-6222.91042789
 42
-0.01250000
  0
VERTEX
  8
0
 10
2945.07324707
 20
-6222.61442789
 42
-0.02140000
  0
VERTEX
  8
0
 10
2933.54724707
 20
-6221.50842789
 42
-0.03130000
  0
VERTEX
  8
0
 10
2920.94424707
 20
-6218.93742789
 42
-0.04990000
  0
VERTEX
  8
0
 10
2904.55424707
 20
-6212.69642789
 42
-0.04760000
  0
VERTEX
  8
0
 10
2890.23424707
 20
-6203.70242789
 42
-0.03510000
  0
VERTEX
  8
0
 10
2879.52424707
 20
-6194.19042789
 42
-0.00860000
  0
VERTEX
  8
0
 10
2876.82124707
 20
-6191.34042789
  0
VERTEX
  8
0
 10
2769.68124707
 20
-6017.04042789
  0
VERTEX
  8
0
 10
2678.51424707
 20
-6018.86942789
 42
0.02830000
  0
VERTEX
  8
0
 10
2702.11524707
 20
-6285.69942789
 42
0.01210000
  0
VERTEX
  8
0
 10
2702.71624707
 20
-6289.19042789
 42
0.03320000
  0
VERTEX
  8
0
 10
2703.36624707
 20
-6291.63842789
 42
0.05870000
  0
VERTEX
  8
0
 10
2704.13024707
 20
-6293.25742789
 42
0.10210000
  0
VERTEX
  8
0
 10
2705.21724707
 20
-6294.40042789
 42
0.11080000
  0
VERTEX
  8
0
 10
2706.73924707
 20
-6294.97642789
 42
0.04650000
  0
VERTEX
  8
0
 10
2708.07824707
 20
-6295.04842789
  0
VERTEX
  8
0
 10
2862.83424707
 20
-6291.81342789
 42
-0.05060000
  0
VERTEX
  8
0
 10
2866.74824707
 20
-6292.10142789
 42
-0.06910000
  0
VERTEX
  8
0
 10
2870.23524707
 20
-6293.22642789
 42
-0.13120000
  0
VERTEX
  8
0
 10
2874.49424707
 20
-6296.92742789
 42
-0.06540000
  0
VERTEX
  8
0
 10
2876.14124707
 20
-6300.22842789
 42
-0.04850000
  0
VERTEX
  8
0
 10
2877.09224707
 20
-6304.18842789
 42
-0.03510000
  0
VERTEX
  8
0
 10
2877.41224707
 20
-6308.74142789
  0
VERTEX
  8
0
 10
2878.17324707
 20
-6375.59542789
 42
-0.02880000
  0
VERTEX
  8
0
 10
2877.50324707
 20
-6382.16942789
 42
-0.03560000
  0
VERTEX
  8
0
 10
2876.30224707
 20
-6387.31042789
 42
-0.04520000
  0
VERTEX
  8
0
 10
2874.62724707
 20
-6391.38042789
 42
-0.05950000
  0
VERTEX
  8
0
 10
2872.39324707
 20
-6394.65242789
 42
-0.08670000
  0
VERTEX
  8
0
 10
2869.02724707
 20
-6397.37542789
 42
-0.09670000
  0
VERTEX
  8
0
 10
2864.51624707
 20
-6398.80042789
 42
-0.02490000
  0
VERTEX
  8
0
 10
2863.07024707
 20
-6398.90042789
  0
VERTEX
  8
0
 10
2751.08924707
 20
-6401.21142789
  0
VERTEX
  8
0
 10
2751.24524707
 20
-6409.04942789
  0
VERTEX
  8
0
 10
2790.68124707
 20
-6475.98642789
  0
VERTEX
  8
0
 10
2807.02524707
 20
-6938.41842789
 42
-0.02320000
  0
VERTEX
  8
0
 10
2812.70324707
 20
-6937.30542789
 42
-0.01810000
  0
VERTEX
  8
0
 10
2820.99224707
 20
-6936.37642789
 42
-0.01560000
  0
VERTEX
  8
0
 10
2832.97524707
 20
-6935.84042789
 42
-0.02200000
  0
VERTEX
  8
0
 10
2855.24224707
 20
-6936.48942789
 42
-0.00510000
  0
VERTEX
  8
0
 10
2859.18824707
 20
-6936.82442789
 42
-0.07730000
  0
VERTEX
  8
0
 10
2861.88924707
 20
-6937.88142789
 42
-0.05450000
  0
VERTEX
  8
0
 10
2864.40924707
 20
-6939.74142789
 42
-0.04070000
  0
VERTEX
  8
0
 10
2867.05924707
 20
-6942.61142789
 42
-0.03020000
  0
VERTEX
  8
0
 10
2869.90424707
 20
-6946.73042789
 42
-0.02280000
  0
VERTEX
  8
0
 10
2873.06624707
 20
-6952.53442789
 42
-0.01680000
  0
VERTEX
  8
0
 10
2876.58724707
 20
-6960.41642789
 42
-0.01170000
  0
VERTEX
  8
0
 10
2880.51324707
 20
-6970.74342789
 42
-0.00670000
  0
VERTEX
  8
0
 10
2884.83424707
 20
-6983.49942789
 42
-0.00130000
  0
VERTEX
  8
0
 10
2887.76024707
 20
-6992.57642789
 42
0.00300000
  0
VERTEX
  8
0
 10
2891.86624707
 20
-7005.22142789
 42
0.00860000
  0
VERTEX
  8
0
 10
2895.39324707
 20
-7015.29142789
 42
0.01460000
  0
VERTEX
  8
0
 10
2898.35924707
 20
-7022.65842789
 42
0.02160000
  0
VERTEX
  8
0
 10
2900.83224707
 20
-7027.71942789
 42
0.03110000
  0
VERTEX
  8
0
 10
2902.93224707
 20
-7031.07642789
 42
0.04410000
  0
VERTEX
  8
0
 10
2904.72924707
 20
-7033.17642789
 42
0.06460000
  0
VERTEX
  8
0
 10
2906.36924707
 20
-7034.41742789
 42
0.08410000
  0
VERTEX
  8
0
 10
2907.84024707
 20
-7034.95142789
  0
SEQEND
  0
POLYLINE
  8
Default_Layer
 66
   1
 39
0.000000
 70
    1
  0
VERTEX
  8
0
 10
1938.89671409
 20
-6950.52561475
 42
0.15210000
  0
VERTEX
  8
0
 10
1941.34071409
 20
-6970.87961475
 42
-0.17150000
  0
VERTEX
  8
0
 10
1937.69771409
 20
-7033.31961475
 42
0.25050000
  0
VERTEX
  8
0
 10
1937.88471409
 20
-7048.04861475
  0
VERTEX
  8
0
 10
1941.19371409
 20
-7054.92061475
 42
0.24370000
  0
VERTEX
  8
0
 10
1949.43671409
 20
-7061.66361475
  0
VERTEX
  8
0
 10
2523.03571409
 20
-7061.43561475
 42
0.04670000
  0
VERTEX
  8
0
 10
2535.62771409
 20
-7060.10061475
 42
0.07830000
  0
VERTEX
  8
0
 10
2557.11371409
 20
-7052.14361475
 42
0.05480000
  0
VERTEX
  8
0
 10
2570.98171409
 20
-7042.23061475
 42
0.04280000
  0
VERTEX
  8
0
 10
2581.17171409
 20
-7031.40561475
 42
0.03550000
  0
VERTEX
  8
0
 10
2589.21971409
 20
-7019.60961475
 42
0.03070000
  0
VERTEX
  8
0
 10
2595.80471409
 20
-7006.52861475
 42
0.02710000
  0
VERTEX
  8
0
 10
2601.17271409
 20
-6991.85961475
 42
0.02390000
  0
VERTEX
  8
0
 10
2605.33471409
 20
-6975.48661475
 42
0.02130000
  0
VERTEX
  8
0
 10
2608.26471409
 20
-6957.17361475
 42
0.01000000
  0
VERTEX
  8
0
 10
2609.25471409
 20
-6947.01361475
 42
-0.01590000
  0
VERTEX
  8
0
 10
2611.08371409
 20
-6886.49161475
 42
-0.01500000
  0
VERTEX
  8
0
 10
2616.83071409
 20
-6824.26461475
 42
-0.01130000
  0
VERTEX
  8
0
 10
2624.20071409
 20
-6773.65461475
 42
-0.00730000
  0
VERTEX
  8
0
 10
2624.89571409
 20
-6763.49261475
  0
VERTEX
  8
0
 10
2625.38271409
 20
-6757.61961475
 42
0.00380000
  0
VERTEX
  8
0
 10
2626.39071409
 20
-6744.85861475
 42
0.01100000
  0
VERTEX
  8
0
 10
2627.04371409
 20
-6731.57561475
 42
0.01720000
  0
VERTEX
  8
0
 10
2626.95071409
 20
-6718.79261475
 42
0.02270000
  0
VERTEX
  8
0
 10
2625.90371409
 20
-6706.79861475
 42
0.03000000
  0
VERTEX
  8
0
 10
2623.60071409
 20
-6694.97561475
 42
0.03670000
  0
VERTEX
  8
0
 10
2619.82371409
 20
-6683.80461475
 42
0.05160000
  0
VERTEX
  8
0
 10
2613.01871409
 20
-6671.42161475
 42
0.06230000
  0
VERTEX
  8
0
 10
2601.95971409
 20
-6659.12461475
 42
0.04110000
  0
VERTEX
  8
0
 10
2591.96371409
 20
-6651.81261475
 42
0.03340000
  0
VERTEX
  8
0
 10
2581.22771409
 20
-6646.18861475
 42
0.02810000
  0
VERTEX
  8
0
 10
2569.32571409
 20
-6641.71361475
 42
0.02420000
  0
VERTEX
  8
0
 10
2555.85371409
 20
-6638.20061475
 42
0.02090000
  0
VERTEX
  8
0
 10
2540.52071409
 20
-6635.64461475
 42
0.01730000
  0
VERTEX
  8
0
 10
2523.89971409
 20
-6634.15961475
 42
0.00800000
  0
VERTEX
  8
0
 10
2080.27571409
 20
-6603.22761475
 42
0.01870000
  0
VERTEX
  8
0
 10
2065.96271409
 20
-6602.87861475
 42
0.02320000
  0
VERTEX
  8
0
 10
2052.73871409
 20
-6603.66461475
 42
0.02920000
  0
VERTEX
  8
0
 10
2039.91271409
 20
-6605.78761475
 42
0.03710000
  0
VERTEX
  8
0
 10
2026.96771409
 20
-6609.74361475
 42
0.06820000
  0
VERTEX
  8
0
 10
2007.73971409
 20
-6620.42961475
 42
0.04050000
  0
VERTEX
  8
0
 10
1997.15371409
 20
-6629.82561475
 42
0.03180000
  0
VERTEX
  8
0
 10
1988.65171409
 20
-6639.91361475
 42
0.02610000
  0
VERTEX
  8
0
 10
1981.18671409
 20
-6651.19061475
 42
0.02190000
  0
VERTEX
  8
0
 10
1974.33471409
 20
-6664.07161475
 42
0.01230000
  0
VERTEX
  8
0
 10
1970.13871409
 20
-6673.42261475
 42
0.09600000
  0
VERTEX
  8
0
 10
1965.22971409
 20
-6690.55861475
 42
-0.01230000
  0
VERTEX
  8
0
 10
1965.19471409
 20
-6707.11861475
 42
-0.01550000
  0
VERTEX
  8
0
 10
1964.37271409
 20
-6721.40261475
 42
-0.01870000
  0
VERTEX
  8
0
 10
1962.87471409
 20
-6733.25161475
 42
-0.02280000
  0
VERTEX
  8
0
 10
1960.80471409
 20
-6743.03161475
 42
-0.02760000
  0
VERTEX
  8
0
 10
1958.28471409
 20
-6750.92061475
 42
-0.02130000
  0
VERTEX
  8
0
 10
1956.41771409
 20
-6755.22861475
  0
VERTEX
  8
0
 10
1938.89671409
 20
-6950.52561475
  0
SEQEND
  0
POLYLINE
  8
Default_Layer
 66
   1
 39
0.000000
 70
    1
  0
VERTEX
  8
0
 10
2762.85875550
 20
-4451.06200751
 42
-0.06350000
  0
VERTEX
  8
0
 10
2772.09575550
 20
-4449.91000751
 42
-0.41421356
  0
VERTEX
  8
0
 10
2809.59575550
 20
-4487.41000751
 42
-0.41421356
  0
VERTEX
  8
0
 10
2772.09575550
 20
-4524.91000751
 42
-0.06320000
  0
VERTEX
  8
0
 10
2762.72775550
 20
-4523.72100751
 42
-0.08510000
  0
VERTEX
  8
0
 10
2753.71075550
 20
-4519.58300751
 42
-0.03010000
  0
VERTEX
  8
0
 10
2749.78075550
 20
-4516.52300751
 42
-0.00820000
  0
VERTEX
  8
0
 10
2746.96875550
 20
-4513.97100751
 42
0.01060000
  0
VERTEX
  8
0
 10
2744.06375550
 20
-4511.35000751
 42
0.03220000
  0
VERTEX
  8
0
 10
2741.17675550
 20
-4509.16200751
 42
0.06010000
  0
VERTEX
  8
0
 10
2737.62775550
 20
-4507.38600751
 42
0.06190000
  0
VERTEX
  8
0
 10
2734.06275550
 20
-4506.61200751
 42
-0.33560346
  0
VERTEX
  8
0
 10
2719.53626690
 20
-4487.35735391
 42
-0.33560346
  0
VERTEX
  8
0
 10
2734.11075550
 20
-4468.13900751
 42
0.10220000
  0
VERTEX
  8
0
 10
2739.84275550
 20
-4466.40300751
 42
0.04240000
  0
VERTEX
  8
0
 10
2742.87375550
 20
-4464.40100751
 42
0.01950000
  0
VERTEX
  8
0
 10
2745.72175550
 20
-4461.96500751
 42
0.00190000
  0
VERTEX
  8
0
 10
2746.96275550
 20
-4460.82300751
 42
-0.01070000
  0
VERTEX
  8
0
 10
2750.20675550
 20
-4457.90800751
 42
-0.03300000
  0
VERTEX
  8
0
 10
2754.29175550
 20
-4454.83900751
 42
-0.08030000
  0
VERTEX
  8
0
 10
2762.85875550
 20
-4451.06200751
  0
SEQEND
  0
POLYLINE
  8
Default_Layer
 66
   1
 39
0.000000
 70
    1
  0
VERTEX
  8
0
 10
2753.66675550
 20
-5473.09200751
 42
-0.06350000
  0
VERTEX
  8
0
 10
2762.90275550
 20
-5471.94000751
 42
-0.41421356
  0
VERTEX
  8
0
 10
2800.40275550
 20
-5509.44000751
 42
-0.41421356
  0
VERTEX
  8
0
 10
2762.90275550
 20
-5546.94000751
 42
-0.06320000
  0
VERTEX
  8
0
 10
2753.53575550
 20
-5545.75100751
 42
-0.08510000
  0
VERTEX
  8
0
 10
2744.51875550
 20
-5541.61300751
 42
-0.03010000
  0
VERTEX
  8
0
 10
2740.58775550
 20
-5538.55300751
 42
-0.00820000
  0
VERTEX
  8
0
 10
2737.77675550
 20
-5536.00200751
 42
0.01060000
  0
VERTEX
  8
0
 10
2734.87175550
 20
-5533.38100751
 42
0.03220000
  0
VERTEX
  8
0
 10
2731.98475550
 20
-5531.19200751
 42
0.06010000
  0
VERTEX
  8
0
 10
2728.43575550
 20
-5529.41600751
 42
0.06190000
  0
VERTEX
  8
0
 10
2724.87075550
 20
-5528.64200751
 42
-0.33560346
  0
VERTEX
  8
0
 10
2710.34426690
 20
-5509.38735391
 42
-0.33560346
  0
VERTEX
  8
0
 10
2724.91875550
 20
-5490.16900751
 42
0.10220000
  0
VERTEX
  8
0
 10
2730.65075550
 20
-5488.43400751
 42
0.04240000
  0
VERTEX
  8
0
 10
2733.68075550
 20
-5486.43100751
 42
0.01950000
  0
VERTEX
  8
0
 10
2736.52975550
 20
-5483.99600751
 42
0.00190000
  0
VERTEX
  8
0
 10
2737.76975550
 20
-5482.85300751
 42
-0.01070000
  0
VERTEX
  8
0
 10
2741.01475550
 20
-5479.93800751
 42
-0.03300000
  0
VERTEX
  8
0
 10
2745.09975550
 20
-5476.87000751
 42
-0.08030000
  0
VERTEX
  8
0
 10
2753.66675550
 20
-5473.09200751
  0
SEQEND
  0
POLYLINE
  8
Default_Layer
 66
   1
 39
0.000000
 70
    1
  0
VERTEX
  8
0
 10
3479.61975550
 20
-5460.60200751
 42
-0.06350000
  0
VERTEX
  8
0
 10
3480.77175550
 20
-5469.83800751
 42
-0.41421356
  0
VERTEX
  8
0
 10
3443.27175550
 20
-5507.33800751
 42
-0.41421356
  0
VERTEX
  8
0
 10
3405.77175550
 20
-5469.83800751
 42
-0.06320000
  0
VERTEX
  8
0
 10
3406.95975550
 20
-5460.47100751
 42
-0.08510000
  0
VERTEX
  8
0
 10
3411.09875550
 20
-5451.45400751
 42
-0.03010000
  0
VERTEX
  8
0
 10
3414.15875550
 20
-5447.52300751
 42
-0.00820000
  0
VERTEX
  8
0
 10
3416.70975550
 20
-5444.71200751
 42
0.01060000
  0
VERTEX
  8
0
 10
3419.33075550
 20
-5441.80700751
 42
0.03220000
  0
VERTEX
  8
0
 10
3421.51975550
 20
-5438.92000751
 42
0.06010000
  0
VERTEX
  8
0
 10
3423.29575550
 20
-5435.37100751
 42
0.06190000
  0
VERTEX
  8
0
 10
3424.06975550
 20
-5431.80600751
 42
-0.33560346
  0
VERTEX
  8
0
 10
3443.32440910
 20
-5417.27951891
 42
-0.33560346
  0
VERTEX
  8
0
 10
3462.54275550
 20
-5431.85400751
 42
0.10220000
  0
VERTEX
  8
0
 10
3464.27775550
 20
-5437.58600751
 42
0.04240000
  0
VERTEX
  8
0
 10
3466.28075550
 20
-5440.61700751
 42
0.01950000
  0
VERTEX
  8
0
 10
3468.71575550
 20
-5443.46500751
 42
0.00190000
  0
VERTEX
  8
0
 10
3469.85775550
 20
-5444.70500751
 42
-0.01070000
  0
VERTEX
  8
0
 10
3472.77375550
 20
-5447.95000751
 42
-0.03300000
  0
VERTEX
  8
0
 10
3475.84175550
 20
-5452.03500751
 42
-0.08030000
  0
VERTEX
  8
0
 10
3479.61975550
 20
-5460.60200751
  0
SEQEND
  0
POLYLINE
  8
Default_Layer
 66
   1
 39
0.000000
 70
    1
  0
VERTEX
  8
0
 10
3406.03075550
 20
-4540.61300751
 42
-0.06350000
  0
VERTEX
  8
0
 10
3404.87875550
 20
-4531.37600751
 42
-0.41421356
  0
VERTEX
  8
0
 10
3442.37875550
 20
-4493.87600751
 42
-0.41421356
  0
VERTEX
  8
0
 10
3479.87875550
 20
-4531.37600751
 42
-0.06320000
  0
VERTEX
  8
0
 10
3478.68975550
 20
-4540.74400751
 42
-0.08510000
  0
VERTEX
  8
0
 10
3474.55175550
 20
-4549.76100751
 42
-0.03010000
  0
VERTEX
  8
0
 10
3471.49175550
 20
-4553.69100751
 42
-0.00820000
  0
VERTEX
  8
0
 10
3468.93975550
 20
-4556.50300751
 42
0.01060000
  0
VERTEX
  8
0
 10
3466.31875550
 20
-4559.40800751
 42
0.03220000
  0
VERTEX
  8
0
 10
3464.13075550
 20
-4562.29500751
 42
0.06010000
  0
VERTEX
  8
0
 10
3462.35475550
 20
-4565.84400751
 42
0.06190000
  0
VERTEX
  8
0
 10
3461.57975550
 20
-4569.40900751
 42
-0.33560346
  0
VERTEX
  8
0
 10
3442.32560190
 20
-4583.93511791
 42
-0.33560346
  0
VERTEX
  8
0
 10
3423.10775550
 20
-4569.36100751
 42
0.10220000
  0
VERTEX
  8
0
 10
3421.37175550
 20
-4563.62900751
 42
0.04240000
  0
VERTEX
  8
0
 10
3419.36975550
 20
-4560.59800751
 42
0.01950000
  0
VERTEX
  8
0
 10
3416.93375550
 20
-4557.75000751
 42
0.00190000
  0
VERTEX
  8
0
 10
3415.79175550
 20
-4556.50900751
 42
-0.01070000
  0
VERTEX
  8
0
 10
3412.87675550
 20
-4553.26500751
 42
-0.03300000
  0
VERTEX
  8
0
 10
3409.80775550
 20
-4549.18000751
 42
-0.08030000
  0
VERTEX
  8
0
 10
3406.03075550
 20
-4540.61300751
  0
SEQEND
  0
POLYLINE
  8
Default_Layer
 66
   1
 39
0.000000
 70
    1
  0
VERTEX
  8
0
 10
3375.14575550
 20
-4327.85270751
 42
-0.01450000
  0
VERTEX
  8
0
 10
3360.37775550
 20
-4327.35850751
 42
-0.01760000
  0
VERTEX
  8
0
 10
3348.32675550
 20
-4326.18020751
 42
-0.02160000
  0
VERTEX
  8
0
 10
3338.19475550
 20
-4324.38320751
 42
-0.02670000
  0
VERTEX
  8
0
 10
3329.56575550
 20
-4321.97720751
 42
-0.03430000
  0
VERTEX
  8
0
 10
3321.82775550
 20
-4318.76520751
 42
-0.04600000
  0
VERTEX
  8
0
 10
3314.38875550
 20
-4314.16440751
 42
-0.06080000
  0
VERTEX
  8
0
 10
3306.68775550
 20
-4306.68590751
 42
-0.03240000
  0
VERTEX
  8
0
 10
3302.45375550
 20
-4300.67000751
 42
-0.01930000
  0
VERTEX
  8
0
 10
3298.99375550
 20
-4294.48230751
 42
-0.00800000
  0
VERTEX
  8
0
 10
3295.71275550
 20
-4287.78080751
  0
VERTEX
  8
0
 10
3294.94675550
 20
-4286.16330751
 42
0.00550000
  0
VERTEX
  8
0
 10
3291.31275550
 20
-4278.62570751
 42
0.00330000
  0
VERTEX
  8
0
 10
3290.22675550
 20
-4276.48760751
 42
-0.00230000
  0
VERTEX
  8
0
 10
3290.22375550
 20
-4270.41720751
  0
VERTEX
  8
0
 10
3290.24275550
 20
-4260.14570751
  0
VERTEX
  8
0
 10
3290.25275550
 20
-4252.76150751
 42
0.02630000
  0
VERTEX
  8
0
 10
2681.49175550
 20
-4253.89140751
  0
VERTEX
  8
0
 10
2681.53175550
 20
-4274.69490751
 42
-0.14430000
  0
VERTEX
  8
0
 10
2665.90175550
 20
-4335.41780751
  0
VERTEX
  8
0
 10
2664.52275550
 20
-5656.41800751
 42
-0.17180000
  0
VERTEX
  8
0
 10
2679.61275550
 20
-5716.25300751
  0
VERTEX
  8
0
 10
3288.22175550
 20
-5719.94500751
 42
0.00790000
  0
VERTEX
  8
0
 10
3292.12575550
 20
-5712.21700751
  0
VERTEX
  8
0
 10
3292.89675550
 20
-5710.63900751
 42
-0.00550000
  0
VERTEX
  8
0
 10
3296.26675550
 20
-5703.86000751
 42
-0.01670000
  0
VERTEX
  8
0
 10
3299.68375550
 20
-5697.68900751
 42
-0.02890000
  0
VERTEX
  8
0
 10
3303.64075550
 20
-5691.86600751
 42
-0.04920000
  0
VERTEX
  8
0
 10
3309.67575550
 20
-5685.43100751
 42
-0.05380000
  0
VERTEX
  8
0
 10
3317.47475550
 20
-5680.01000751
 42
-0.03650000
  0
VERTEX
  8
0
 10
3324.83075550
 20
-5676.66600751
 42
-0.02870000
  0
VERTEX
  8
0
 10
3333.08575550
 20
-5674.14300751
 42
-0.02300000
  0
VERTEX
  8
0
 10
3342.72275550
 20
-5672.25600751
 42
-0.01860000
  0
VERTEX
  8
0
 10
3354.22175550
 20
-5670.97900751
 42
-0.01510000
  0
VERTEX
  8
0
 10
3368.14275550
 20
-5670.37100751
 42
-0.00460000
  0
VERTEX
  8
0
 10
3373.66975550
 20
-5670.33700751
  0
VERTEX
  8
0
 10
3476.43175550
 20
-5671.32700751
 42
0.12510000
  0
VERTEX
  8
0
 10
3478.57975550
 20
-5670.71000751
 42
0.06810000
  0
VERTEX
  8
0
 10
3480.14875550
 20
-5669.47800751
 42
0.04310000
  0
VERTEX
  8
0
 10
3481.75775550
 20
-5667.50800751
 42
0.02580000
  0
VERTEX
  8
0
 10
3483.62075550
 20
-5664.46200751
 42
0.01130000
  0
VERTEX
  8
0
 10
3485.91875550
 20
-5660.00200751
  0
VERTEX
  8
0
 10
3486.90875550
 20
-5657.98300751
 42
-0.00680000
  0
VERTEX
  8
0
 10
3490.32075550
 20
-5651.17200751
 42
-0.01990000
  0
VERTEX
  8
0
 10
3494.98375550
 20
-5642.99100751
 42
-0.03280000
  0
VERTEX
  8
0
 10
3501.47975550
 20
-5633.96300751
 42
-0.04590000
  0
VERTEX
  8
0
 10
3510.71375550
 20
-5624.66500751
  0
VERTEX
  8
0
 10
3517.86275550
 20
-5618.57400751
  0
VERTEX
  8
0
 10
3517.81375550
 20
-4381.58180751
  0
VERTEX
  8
0
 10
3511.56375550
 20
-4376.04040751
 42
-0.07960000
  0
VERTEX
  8
0
 10
3497.08075550
 20
-4360.42710751
 42
-0.03320000
  0
VERTEX
  8
0
 10
3491.86475550
 20
-4351.35350751
 42
-0.01730000
  0
VERTEX
  8
0
 10
3488.55275550
 20
-4343.94200751
 42
-0.00310000
  0
VERTEX
  8
0
 10
3487.03475550
 20
-4340.16090751
 42
0.00740000
  0
VERTEX
  8
0
 10
3485.16575550
 20
-4335.57120751
 42
0.02330000
  0
VERTEX
  8
0
 10
3483.67975550
 20
-4332.47000751
 42
0.04230000
  0
VERTEX
  8
0
 10
3482.35675550
 20
-4330.43440751
 42
0.06930000
  0
VERTEX
  8
0
 10
3481.02075550
 20
-4329.13040751
 42
0.13230000
  0
VERTEX
  8
0
 10
3479.04475550
 20
-4328.36100751
 42
0.01720000
  0
VERTEX
  8
0
 10
3478.75975550
 20
-4328.34120751
  0
VERTEX
  8
0
 10
3375.14575550
 20
-4327.85270751
  0
SEQEND
  0
POLYLINE
  8
Default_Layer
 66
   1
 39
0.000000
 70
    0
  0
VERTEX
  8
0
 10
4101.43373828
 20
-4804.23625000
  0
VERTEX
  8
0
 10
4101.43373828
 20
-4702.63625000
  0
SEQEND
  0
POLYLINE
  8
Default_Layer
 66
   1
 39
0.000000
 70
    0
  0
VERTEX
  8
0
 10
4101.43373828
 20
-4753.43625000
  0
VERTEX
  8
0
 10
4152.23373828
 20
-4702.63625000
  0
VERTEX
  8
0
 10
4177.63373828
 20
-4702.63625000
  0
VERTEX
  8
0
 10
4203.03373828
 20
-4728.03625000
  0
VERTEX
  8
0
 10
4203.03373828
 20
-4804.23625000
  0
SEQEND
  0
POLYLINE
  8
Default_Layer
 66
   1
 39
0.000000
 70
    1
  0
VERTEX
  8
0
 10
4330.03373828
 20
-4804.23625000
  0
VERTEX
  8
0
 10
4279.23373828
 20
-4804.23625000
  0
VERTEX
  8
0
 10
4253.83373828
 20
-4778.83625000
  0
VERTEX
  8
0
 10
4253.83373828
 20
-4728.03625000
  0
VERTEX
  8
0
 10
4279.23373828
 20
-4702.63625000
  0
VERTEX
  8
0
 10
4330.03373828
 20
-4702.63625000
  0
VERTEX
  8
0
 10
4355.43373828
 20
-4728.03625000
  0
VERTEX
  8
0
 10
4355.43373828
 20
-4778.83625000
  0
VERTEX
  8
0
 10
4330.03373828
 20
-4804.23625000
  0
SEQEND
  0
POLYLINE
  8
Default_Layer
 66
   1
 39
0.000000
 70
    0
  0
VERTEX
  8
0
 10
4101.43373828
 20
-5076.37910714
  0
VERTEX
  8
0
 10
4177.63373828
 20
-5076.37910714
  0
VERTEX
  8
0
 10
4203.03373828
 20
-5050.97910714
  0
VERTEX
  8
0
 10
4177.63373828
 20
-5025.57910714
  0
VERTEX
  8
0
 10
4126.83373828
 20
-5025.57910714
  0
VERTEX
  8
0
 10
4101.43373828
 20
-5000.17910714
  0
VERTEX
  8
0
 10
4126.83373828
 20
-4974.77910714
  0
VERTEX
  8
0
 10
4203.03373828
 20
-4974.77910714
  0
SEQEND
  0
POLYLINE
  8
Default_Layer
 66
   1
 39
0.000000
 70
    0
  0
VERTEX
  8
0
 10
4253.83373828
 20
-4923.97910714
  0
VERTEX
  8
0
 10
4253.83373828
 20
-5050.97910714
  0
VERTEX
  8
0
 10
4279.23373828
 20
-5076.37910714
  0
SEQEND
  0
POLYLINE
  8
Default_Layer
 66
   1
 39
0.000000
 70
    1
  0
VERTEX
  8
0
 10
4431.63373828
 20
-5025.57910714
  0
VERTEX
  8
0
 10
4380.83373828
 20
-5076.37910714
  0
VERTEX
  8
0
 10
4355.43373828
 20
-5076.37910714
  0
VERTEX
  8
0
 10
4330.03373828
 20
-5050.97910714
  0
VERTEX
  8
0
 10
4330.03373828
 20
-5000.17910714
  0
VERTEX
  8
0
 10
4355.43373828
 20
-4974.77910714
  0
VERTEX
  8
0
 10
4380.83373828
 20
-4974.77910714
  0
VERTEX
  8
0
 10
4431.63373828
 20
-5025.57910714
  0
SEQEND
  0
POLYLINE
  8
Default_Layer
 66
   1
 39
0.000000
 70
    0
  0
VERTEX
  8
0
 10
4431.63373828
 20
-4923.97910714
  0
VERTEX
  8
0
 10
4431.63373828
 20
-5076.37910714
  0
SEQEND
  0
POLYLINE
  8
Default_Layer
 66
   1
 39
0.000000
 70
    0
  0
VERTEX
  8
0
 10
2783.11575098
 20
-4799.20420287
  0
VERTEX
  8
0
 10
2808.51575098
 20
-4773.80420287
  0
VERTEX
  8
0
 10
2808.51575098
 20
-4926.20420287
  0
SEQEND
  0
POLYLINE
  8
Default_Layer
 66
   1
 39
0.000000
 70
    0
  0
VERTEX
  8
0
 10
2783.11575098
 20
-4926.20420287
  0
VERTEX
  8
0
 10
2833.91575098
 20
-4926.20420287
  0
SEQEND
  0
POLYLINE
  8
Default_Layer
 66
   1
 39
0.000000
 70
    0
  0
VERTEX
  8
0
 10
3037.11575098
 20
-4926.20420287
  0
VERTEX
  8
0
 10
3113.31575098
 20
-4926.20420287
  0
VERTEX
  8
0
 10
3138.71575098
 20
-4900.80420287
  0
VERTEX
  8
0
 10
3113.31575098
 20
-4875.40420287
  0
VERTEX
  8
0
 10
3062.51575098
 20
-4875.40420287
  0
VERTEX
  8
0
 10
3037.11575098
 20
-4850.00420287
  0
VERTEX
  8
0
 10
3062.51575098
 20
-4824.60420287
  0
VERTEX
  8
0
 10
3138.71575098
 20
-4824.60420287
  0
SEQEND
  0
POLYLINE
  8
Default_Layer
 66
   1
 39
0.000000
 70
    0
  0
VERTEX
  8
0
 10
3189.51575098
 20
-4773.80420287
  0
VERTEX
  8
0
 10
3189.51575098
 20
-4900.80420287
  0
VERTEX
  8
0
 10
3214.91575098
 20
-4926.20420287
  0
SEQEND
  0
POLYLINE
  8
Default_Layer
 66
   1
 39
0.000000
 70
    1
  0
VERTEX
  8
0
 10
3367.31575098
 20
-4875.40420287
  0
VERTEX
  8
0
 10
3316.51575098
 20
-4926.20420287
  0
VERTEX
  8
0
 10
3291.11575098
 20
-4926.20420287
  0
VERTEX
  8
0
 10
3265.71575098
 20
-4900.80420287
  0
VERTEX
  8
0
 10
3265.71575098
 20
-4850.00420287
  0
VERTEX
  8
0
 10
3291.11575098
 20
-4824.60420287
  0
VERTEX
  8
0
 10
3316.51575098
 20
-4824.60420287
  0
VERTEX
  8
0
 10
3367.31575098
 20
-4875.40420287
  0
SEQEND
  0
POLYLINE
  8
Default_Layer
 66
   1
 39
0.000000
 70
    0
  0
VERTEX
  8
0
 10
3367.31575098
 20
-4773.80420287
  0
VERTEX
  8
0
 10
3367.31575098
 20
-4926.20420287
  0
SEQEND
  0
POLYLINE
  8
Default_Layer
 66
   1
 39
0.000000
 70
    1
  0
VERTEX
  8
0
 10
1632.88677803
 20
-3936.87564584
  0
VERTEX
  8
0
 10
1716.34559019
 20
-3938.89459506
  0
VERTEX
  8
0
 10
1861.43459019
 20
-3778.51029506
 42
-0.00510000
  0
VERTEX
  8
0
 10
1870.71159019
 20
-3768.64029506
 42
-0.01040000
  0
VERTEX
  8
0
 10
1878.09559019
 20
-3761.25489506
 42
-0.01670000
  0
VERTEX
  8
0
 10
1884.49359019
 20
-3755.51219506
 42
-0.02490000
  0
VERTEX
  8
0
 10
1890.57859019
 20
-3750.89969506
 42
-0.03580000
  0
VERTEX
  8
0
 10
1897.09059019
 20
-3747.10769506
 42
-0.05980000
  0
VERTEX
  8
0
 10
1907.28959019
 20
-3743.57939506
 42
-0.03000000
  0
VERTEX
  8
0
 10
1914.34259019
 20
-3742.49219506
 42
-0.01910000
  0
VERTEX
  8
0
 10
1921.78259019
 20
-3742.08429506
 42
-0.00840000
  0
VERTEX
  8
0
 10
1927.89959019
 20
-3742.07469506
  0
VERTEX
  8
0
 10
2109.51859019
 20
-3746.79509506
  0
VERTEX
  8
0
 10
2111.57359019
 20
-3746.86589506
 42
-0.00530000
  0
VERTEX
  8
0
 10
2118.72459019
 20
-3747.15719506
 42
-0.01720000
  0
VERTEX
  8
0
 10
2124.63759019
 20
-3747.66199506
 42
-0.03160000
  0
VERTEX
  8
0
 10
2130.20659019
 20
-3748.69019506
 42
-0.07240000
  0
VERTEX
  8
0
 10
2139.21459019
 20
-3752.42309506
 42
-0.03470000
  0
VERTEX
  8
0
 10
2144.33559019
 20
-3755.98109506
 42
-0.02450000
  0
VERTEX
  8
0
 10
2149.45859019
 20
-3760.51999506
 42
-0.01760000
  0
VERTEX
  8
0
 10
2155.24259019
 20
-3766.58159506
 42
-0.01240000
  0
VERTEX
  8
0
 10
2162.18559019
 20
-3774.78359506
 42
-0.00250000
  0
VERTEX
  8
0
 10
2164.19059019
 20
-3777.28689506
  0
VERTEX
  8
0
 10
2329.89159019
 20
-3972.41459506
  0
VERTEX
  8
0
 10
2441.91159019
 20
-3975.23119506
  0
VERTEX
  8
0
 10
2443.90359019
 20
-3929.83449506
  0
VERTEX
  8
0
 10
2442.06259019
 20
-3194.40749506
 42
0.01010000
  0
VERTEX
  8
0
 10
2442.13359019
 20
-3176.66189506
 42
0.01430000
  0
VERTEX
  8
0
 10
2441.41559019
 20
-3160.60489506
 42
0.01860000
  0
VERTEX
  8
0
 10
2439.81759019
 20
-3146.19449506
 42
0.02350000
  0
VERTEX
  8
0
 10
2437.17559019
 20
-3132.77999506
 42
0.03170000
  0
VERTEX
  8
0
 10
2432.71959019
 20
-3118.61819506
 42
0.05380000
  0
VERTEX
  8
0
 10
2422.24159019
 20
-3098.34989506
 42
0.02860000
  0
VERTEX
  8
0
 10
2413.83359019
 20
-3087.10449506
 42
0.02180000
  0
VERTEX
  8
0
 10
2404.54859019
 20
-3076.99109506
 42
0.01630000
  0
VERTEX
  8
0
 10
2394.09459019
 20
-3067.21039506
 42
0.01170000
  0
VERTEX
  8
0
 10
2382.00559019
 20
-3057.10459506
 42
0.00760000
  0
VERTEX
  8
0
 10
2367.97559019
 20
-3046.26419506
 42
0.00370000
  0
VERTEX
  8
0
 10
2351.51759019
 20
-3034.12819506
  0
VERTEX
  8
0
 10
2341.33059019
 20
-3026.73419506
  0
VERTEX
  8
0
 10
2338.97959019
 20
-3025.02929506
  0
VERTEX
  8
0
 10
2340.08459019
 20
-2988.16270100
 42
0.08960000
  0
VERTEX
  8
0
 10
2338.24859019
 20
-2976.00160100
 42
0.06380000
  0
VERTEX
  8
0
 10
2334.10759019
 20
-2967.62350100
 42
0.05030000
  0
VERTEX
  8
0
 10
2328.54859019
 20
-2960.84520100
 42
0.04440000
  0
VERTEX
  8
0
 10
2321.29159019
 20
-2954.79550100
 42
0.04490000
  0
VERTEX
  8
0
 10
2311.28959019
 20
-2949.11410100
 42
0.05510000
  0
VERTEX
  8
0
 10
2296.99459019
 20
-2944.39170100
 42
0.03670000
  0
VERTEX
  8
0
 10
2288.82159019
 20
-2943.27090100
 42
0.01080000
  0
VERTEX
  8
0
 10
2286.86759019
 20
-2943.19670100
  0
VERTEX
  8
0
 10
1858.83955565
 20
-2940.97609242
 42
0.01726788
  0
VERTEX
  8
0
 10
1858.43285966
 20
-2941.34913749
 42
0.04410000
  0
VERTEX
  8
0
 10
1856.63585966
 20
-2943.44913749
 42
0.03110000
  0
VERTEX
  8
0
 10
1854.53585966
 20
-2946.80613749
 42
0.02160000
  0
VERTEX
  8
0
 10
1852.06285966
 20
-2951.86713749
 42
0.01460000
  0
VERTEX
  8
0
 10
1849.09685966
 20
-2959.23413749
 42
0.00860000
  0
VERTEX
  8
0
 10
1845.56985966
 20
-2969.30413749
 42
0.00300000
  0
VERTEX
  8
0
 10
1841.46385966
 20
-2981.94913749
 42
-0.00130000
  0
VERTEX
  8
0
 10
1838.53785966
 20
-2991.02613749
 42
-0.00670000
  0
VERTEX
  8
0
 10
1834.21685966
 20
-3003.78213749
 42
-0.01170000
  0
VERTEX
  8
0
 10
1830.29085966
 20
-3014.10913749
 42
-0.01680000
  0
VERTEX
  8
0
 10
1826.76985966
 20
-3021.99113749
 42
-0.02280000
  0
VERTEX
  8
0
 10
1823.60785966
 20
-3027.79513749
 42
-0.03020000
  0
VERTEX
  8
0
 10
1820.76285966
 20
-3031.91413749
 42
-0.04070000
  0
VERTEX
  8
0
 10
1818.11285966
 20
-3034.78413749
 42
-0.05450000
  0
VERTEX
  8
0
 10
1815.59285966
 20
-3036.64413749
 42
-0.07730000
  0
VERTEX
  8
0
 10
1812.89185966
 20
-3037.70113749
 42
-0.00510000
  0
VERTEX
  8
0
 10
1808.94585966
 20
-3038.03613749
 42
-0.02200000
  0
VERTEX
  8
0
 10
1786.67885966
 20
-3038.68513749
 42
-0.01560000
  0
VERTEX
  8
0
 10
1774.69585966
 20
-3038.14913749
 42
-0.01810000
  0
VERTEX
  8
0
 10
1766.40685966
 20
-3037.22013749
 42
-0.02320000
  0
VERTEX
  8
0
 10
1760.72885966
 20
-3036.10713749
  0
VERTEX
  8
0
 10
1744.38485966
 20
-3498.53913749
  0
VERTEX
  8
0
 10
1704.94885966
 20
-3565.47613749
  0
VERTEX
  8
0
 10
1704.79285966
 20
-3573.31413749
  0
VERTEX
  8
0
 10
1816.77385966
 20
-3575.62513749
 42
-0.02490000
  0
VERTEX
  8
0
 10
1818.21985966
 20
-3575.72513749
 42
-0.09670000
  0
VERTEX
  8
0
 10
1822.73085966
 20
-3577.15013749
 42
-0.08670000
  0
VERTEX
  8
0
 10
1826.09685966
 20
-3579.87313749
 42
-0.05950000
  0
VERTEX
  8
0
 10
1828.33085966
 20
-3583.14513749
 42
-0.04520000
  0
VERTEX
  8
0
 10
1830.00585966
 20
-3587.21513749
 42
-0.03560000
  0
VERTEX
  8
0
 10
1831.20685966
 20
-3592.35613749
 42
-0.02880000
  0
VERTEX
  8
0
 10
1831.87685966
 20
-3598.93013749
  0
VERTEX
  8
0
 10
1831.11585966
 20
-3665.78413749
 42
-0.03510000
  0
VERTEX
  8
0
 10
1830.79585966
 20
-3670.33713749
 42
-0.04850000
  0
VERTEX
  8
0
 10
1829.84485966
 20
-3674.29713749
 42
-0.06540000
  0
VERTEX
  8
0
 10
1828.19785966
 20
-3677.59813749
 42
-0.13120000
  0
VERTEX
  8
0
 10
1823.93885966
 20
-3681.29913749
 42
-0.06910000
  0
VERTEX
  8
0
 10
1820.45185966
 20
-3682.42413749
 42
-0.05060000
  0
VERTEX
  8
0
 10
1816.53785966
 20
-3682.71213749
  0
VERTEX
  8
0
 10
1661.78185966
 20
-3679.47713749
 42
0.04650000
  0
VERTEX
  8
0
 10
1660.44285966
 20
-3679.54913749
 42
0.11080000
  0
VERTEX
  8
0
 10
1658.92085966
 20
-3680.12513749
 42
0.10210000
  0
VERTEX
  8
0
 10
1657.83385966
 20
-3681.26813749
 42
0.05870000
  0
VERTEX
  8
0
 10
1657.06985966
 20
-3682.88713749
 42
0.03320000
  0
VERTEX
  8
0
 10
1656.41985966
 20
-3685.33513749
 42
0.01210000
  0
VERTEX
  8
0
 10
1655.81885966
 20
-3688.82613749
 42
0.02631473
  0
VERTEX
  8
0
 10
1632.88677803
 20
-3936.87564584
  0
SEQEND
  0
POLYLINE
  8
Default_Layer
 66
   1
 39
0.000000
 70
    1
  0
VERTEX
  8
0
 10
939.76181738
 20
-3203.51696066
 42
-0.15210000
  0
VERTEX
  8
0
 10
942.20581738
 20
-3183.16296066
 42
0.17150000
  0
VERTEX
  8
0
 10
938.56281738
 20
-3120.72296066
 42
-0.25050000
  0
VERTEX
  8
0
 10
938.74981738
 20
-3105.99396066
  0
VERTEX
  8
0
 10
942.05881738
 20
-3099.12196066
 42
-0.24370000
  0
VERTEX
  8
0
 10
950.30181738
 20
-3092.37896066
  0
VERTEX
  8
0
 10
1523.90081738
 20
-3092.60696066
 42
-0.04670000
  0
VERTEX
  8
0
 10
1536.49281738
 20
-3093.94196066
 42
-0.07830000
  0
VERTEX
  8
0
 10
1557.97881738
 20
-3101.89896066
 42
-0.05480000
  0
VERTEX
  8
0
 10
1571.84681738
 20
-3111.81196066
 42
-0.04280000
  0
VERTEX
  8
0
 10
1582.03681738
 20
-3122.63696066
 42
-0.03550000
  0
VERTEX
  8
0
 10
1590.08481738
 20
-3134.43296066
 42
-0.03070000
  0
VERTEX
  8
0
 10
1596.66981738
 20
-3147.51396066
 42
-0.02710000
  0
VERTEX
  8
0
 10
1602.03781738
 20
-3162.18296066
 42
-0.02390000
  0
VERTEX
  8
0
 10
1606.19981738
 20
-3178.55596066
 42
-0.02130000
  0
VERTEX
  8
0
 10
1609.12981738
 20
-3196.86896066
 42
-0.01000000
  0
VERTEX
  8
0
 10
1610.11981738
 20
-3207.02896066
 42
0.01590000
  0
VERTEX
  8
0
 10
1611.94881738
 20
-3267.55096066
 42
0.01500000
  0
VERTEX
  8
0
 10
1617.69581738
 20
-3329.77796066
 42
0.01130000
  0
VERTEX
  8
0
 10
1625.06581738
 20
-3380.38796066
 42
0.00730000
  0
VERTEX
  8
0
 10
1625.76081738
 20
-3390.54996066
  0
VERTEX
  8
0
 10
1626.24781738
 20
-3396.42296066
 42
-0.00380000
  0
VERTEX
  8
0
 10
1627.25581738
 20
-3409.18396066
 42
-0.01100000
  0
VERTEX
  8
0
 10
1627.90881738
 20
-3422.46696066
 42
-0.01720000
  0
VERTEX
  8
0
 10
1627.81581738
 20
-3435.24996066
 42
-0.02270000
  0
VERTEX
  8
0
 10
1626.76881738
 20
-3447.24396066
 42
-0.03000000
  0
VERTEX
  8
0
 10
1624.46581738
 20
-3459.06696066
 42
-0.03670000
  0
VERTEX
  8
0
 10
1620.68881738
 20
-3470.23796066
 42
-0.05160000
  0
VERTEX
  8
0
 10
1613.88381738
 20
-3482.62096066
 42
-0.06230000
  0
VERTEX
  8
0
 10
1602.82481738
 20
-3494.91796066
 42
-0.04110000
  0
VERTEX
  8
0
 10
1592.82881738
 20
-3502.22996066
 42
-0.03340000
  0
VERTEX
  8
0
 10
1582.09281738
 20
-3507.85396066
 42
-0.02810000
  0
VERTEX
  8
0
 10
1570.19081738
 20
-3512.32896066
 42
-0.02420000
  0
VERTEX
  8
0
 10
1556.71881738
 20
-3515.84196066
 42
-0.02090000
  0
VERTEX
  8
0
 10
1541.38581738
 20
-3518.39796066
 42
-0.01730000
  0
VERTEX
  8
0
 10
1524.76481738
 20
-3519.88296066
 42
-0.00800000
  0
VERTEX
  8
0
 10
1081.14081738
 20
-3550.81496066
 42
-0.01870000
  0
VERTEX
  8
0
 10
1066.82781738
 20
-3551.16396066
 42
-0.02320000
  0
VERTEX
  8
0
 10
1053.60381738
 20
-3550.37796066
 42
-0.02920000
  0
VERTEX
  8
0
 10
1040.77781738
 20
-3548.25496066
 42
-0.03710000
  0
VERTEX
  8
0
 10
1027.83281738
 20
-3544.29896066
 42
-0.06820000
  0
VERTEX
  8
0
 10
1008.60481738
 20
-3533.61296066
 42
-0.04050000
  0
VERTEX
  8
0
 10
998.01881738
 20
-3524.21696066
 42
-0.03180000
  0
VERTEX
  8
0
 10
989.51681738
 20
-3514.12896066
 42
-0.02610000
  0
VERTEX
  8
0
 10
982.05181738
 20
-3502.85196066
 42
-0.02190000
  0
VERTEX
  8
0
 10
975.19981738
 20
-3489.97096066
 42
-0.01230000
  0
VERTEX
  8
0
 10
971.00381738
 20
-3480.61996066
 42
-0.09600000
  0
VERTEX
  8
0
 10
966.09481738
 20
-3463.48396066
 42
0.01230000
  0
VERTEX
  8
0
 10
966.05981738
 20
-3446.92396066
 42
0.01550000
  0
VERTEX
  8
0
 10
965.23781738
 20
-3432.63996066
 42
0.01870000
  0
VERTEX
  8
0
 10
963.73981738
 20
-3420.79096066
 42
0.02280000
  0
VERTEX
  8
0
 10
961.66981738
 20
-3411.01096066
 42
0.02760000
  0
VERTEX
  8
0
 10
959.14981738
 20
-3403.12196066
 42
0.02130000
  0
VERTEX
  8
0
 10
957.28281738
 20
-3398.81396066
  0
VERTEX
  8
0
 10
939.76181738
 20
-3203.51696066
  0
SEQEND
  0
POLYLINE
  8
Default_Layer
 66
   1
 39
0.000000
 70
    1
  0
VERTEX
  8
0
 10
1560.71826465
 20
-4469.15393852
 42
0.08030000
  0
VERTEX
  8
0
 10
1552.15126465
 20
-4472.93093852
 42
0.03300000
  0
VERTEX
  8
0
 10
1548.06626465
 20
-4475.99993852
 42
0.01070000
  0
VERTEX
  8
0
 10
1544.82226465
 20
-4478.91493852
 42
-0.00190000
  0
VERTEX
  8
0
 10
1543.58126465
 20
-4480.05693852
 42
-0.01950000
  0
VERTEX
  8
0
 10
1540.73326465
 20
-4482.49293852
 42
-0.04240000
  0
VERTEX
  8
0
 10
1537.70226465
 20
-4484.49493852
 42
-0.10220000
  0
VERTEX
  8
0
 10
1531.97026465
 20
-4486.23093852
 42
0.33560346
  0
VERTEX
  8
0
 10
1517.39577605
 20
-4505.44928492
 42
0.33560346
  0
VERTEX
  8
0
 10
1531.92226465
 20
-4524.70393852
 42
-0.06190000
  0
VERTEX
  8
0
 10
1535.48726465
 20
-4525.47793852
 42
-0.06010000
  0
VERTEX
  8
0
 10
1539.03626465
 20
-4527.25393852
 42
-0.03220000
  0
VERTEX
  8
0
 10
1541.92326465
 20
-4529.44193852
 42
-0.01060000
  0
VERTEX
  8
0
 10
1544.82826465
 20
-4532.06293852
 42
0.00820000
  0
VERTEX
  8
0
 10
1547.64026465
 20
-4534.61493852
 42
0.03010000
  0
VERTEX
  8
0
 10
1551.57026465
 20
-4537.67493852
 42
0.08510000
  0
VERTEX
  8
0
 10
1560.58726465
 20
-4541.81293852
 42
0.06320000
  0
VERTEX
  8
0
 10
1569.95526465
 20
-4543.00193852
 42
0.41421356
  0
VERTEX
  8
0
 10
1607.45526465
 20
-4505.50193852
 42
0.41421356
  0
VERTEX
  8
0
 10
1569.95526465
 20
-4468.00193852
 42
0.06350000
  0
VERTEX
  8
0
 10
1560.71826465
 20
-4469.15393852
  0
SEQEND
  0
POLYLINE
  8
Default_Layer
 66
   1
 39
0.000000
 70
    1
  0
VERTEX
  8
0
 10
1551.52626465
 20
-5491.18393852
 42
0.08030000
  0
VERTEX
  8
0
 10
1542.95926465
 20
-5494.96193852
 42
0.03300000
  0
VERTEX
  8
0
 10
1538.87426465
 20
-5498.02993852
 42
0.01070000
  0
VERTEX
  8
0
 10
1535.62926465
 20
-5500.94493852
 42
-0.00190000
  0
VERTEX
  8
0
 10
1534.38926465
 20
-5502.08793852
 42
-0.01950000
  0
VERTEX
  8
0
 10
1531.54026465
 20
-5504.52293852
 42
-0.04240000
  0
VERTEX
  8
0
 10
1528.51026465
 20
-5506.52593852
 42
-0.10220000
  0
VERTEX
  8
0
 10
1522.77826465
 20
-5508.26093852
 42
0.33560346
  0
VERTEX
  8
0
 10
1508.20377605
 20
-5527.47928492
 42
0.33560346
  0
VERTEX
  8
0
 10
1522.73026465
 20
-5546.73393852
 42
-0.06190000
  0
VERTEX
  8
0
 10
1526.29526465
 20
-5547.50793852
 42
-0.06010000
  0
VERTEX
  8
0
 10
1529.84426465
 20
-5549.28393852
 42
-0.03220000
  0
VERTEX
  8
0
 10
1532.73126465
 20
-5551.47293852
 42
-0.01060000
  0
VERTEX
  8
0
 10
1535.63626465
 20
-5554.09393852
 42
0.00820000
  0
VERTEX
  8
0
 10
1538.44726465
 20
-5556.64493852
 42
0.03010000
  0
VERTEX
  8
0
 10
1542.37826465
 20
-5559.70493852
 42
0.08510000
  0
VERTEX
  8
0
 10
1551.39526465
 20
-5563.84293852
 42
0.06320000
  0
VERTEX
  8
0
 10
1560.76226465
 20
-5565.03193852
 42
0.41421356
  0
VERTEX
  8
0
 10
1598.26226465
 20
-5527.53193852
 42
0.41421356
  0
VERTEX
  8
0
 10
1560.76226465
 20
-5490.03193852
 42
0.06350000
  0
VERTEX
  8
0
 10
1551.52626465
 20
-5491.18393852
  0
SEQEND
  0
POLYLINE
  8
Default_Layer
 66
   1
 39
0.000000
 70
    1
  0
VERTEX
  8
0
 10
2277.47926465
 20
-5478.69393852
 42
0.08030000
  0
VERTEX
  8
0
 10
2273.70126465
 20
-5470.12693852
 42
0.03300000
  0
VERTEX
  8
0
 10
2270.63326465
 20
-5466.04193852
 42
0.01070000
  0
VERTEX
  8
0
 10
2267.71726465
 20
-5462.79693852
 42
-0.00190000
  0
VERTEX
  8
0
 10
2266.57526465
 20
-5461.55693852
 42
-0.01950000
  0
VERTEX
  8
0
 10
2264.14026465
 20
-5458.70893852
 42
-0.04240000
  0
VERTEX
  8
0
 10
2262.13726465
 20
-5455.67793852
 42
-0.10220000
  0
VERTEX
  8
0
 10
2260.40226465
 20
-5449.94593852
 42
0.33560346
  0
VERTEX
  8
0
 10
2241.18391825
 20
-5435.37144992
 42
0.33560346
  0
VERTEX
  8
0
 10
2221.92926465
 20
-5449.89793852
 42
-0.06190000
  0
VERTEX
  8
0
 10
2221.15526465
 20
-5453.46293852
 42
-0.06010000
  0
VERTEX
  8
0
 10
2219.37926465
 20
-5457.01193852
 42
-0.03220000
  0
VERTEX
  8
0
 10
2217.19026465
 20
-5459.89893852
 42
-0.01060000
  0
VERTEX
  8
0
 10
2214.56926465
 20
-5462.80393852
 42
0.00820000
  0
VERTEX
  8
0
 10
2212.01826465
 20
-5465.61493852
 42
0.03010000
  0
VERTEX
  8
0
 10
2208.95826465
 20
-5469.54593852
 42
0.08510000
  0
VERTEX
  8
0
 10
2204.81926465
 20
-5478.56293852
 42
0.06320000
  0
VERTEX
  8
0
 10
2203.63126465
 20
-5487.92993852
 42
0.41421356
  0
VERTEX
  8
0
 10
2241.13126465
 20
-5525.42993852
 42
0.41421356
  0
VERTEX
  8
0
 10
2278.63126465
 20
-5487.92993852
 42
0.06350000
  0
VERTEX
  8
0
 10
2277.47926465
 20
-5478.69393852
  0
SEQEND
  0
POLYLINE
  8
Default_Layer
 66
   1
 39
0.000000
 70
    1
  0
VERTEX
  8
0
 10
2203.89026465
 20
-4558.70493852
 42
0.08030000
  0
VERTEX
  8
0
 10
2207.66726465
 20
-4567.27193852
 42
0.03300000
  0
VERTEX
  8
0
 10
2210.73626465
 20
-4571.35693852
 42
0.01070000
  0
VERTEX
  8
0
 10
2213.65126465
 20
-4574.60093852
 42
-0.00190000
  0
VERTEX
  8
0
 10
2214.79326465
 20
-4575.84193852
 42
-0.01950000
  0
VERTEX
  8
0
 10
2217.22926465
 20
-4578.68993852
 42
-0.04240000
  0
VERTEX
  8
0
 10
2219.23126465
 20
-4581.72093852
 42
-0.10220000
  0
VERTEX
  8
0
 10
2220.96726465
 20
-4587.45293852
 42
0.33560346
  0
VERTEX
  8
0
 10
2240.18511105
 20
-4602.02704892
 42
0.33560346
  0
VERTEX
  8
0
 10
2259.43926465
 20
-4587.50093852
 42
-0.06190000
  0
VERTEX
  8
0
 10
2260.21426465
 20
-4583.93593852
 42
-0.06010000
  0
VERTEX
  8
0
 10
2261.99026465
 20
-4580.38693852
 42
-0.03220000
  0
VERTEX
  8
0
 10
2264.17826465
 20
-4577.49993852
 42
-0.01060000
  0
VERTEX
  8
0
 10
2266.79926465
 20
-4574.59493852
 42
0.00820000
  0
VERTEX
  8
0
 10
2269.35126465
 20
-4571.78293852
 42
0.03010000
  0
VERTEX
  8
0
 10
2272.41126465
 20
-4567.85293852
 42
0.08510000
  0
VERTEX
  8
0
 10
2276.54926465
 20
-4558.83593852
 42
0.06320000
  0
VERTEX
  8
0
 10
2277.73826465
 20
-4549.46793852
 42
0.41421356
  0
VERTEX
  8
0
 10
2240.23826465
 20
-4511.96793852
 42
0.41421356
  0
VERTEX
  8
0
 10
2202.73826465
 20
-4549.46793852
 42
0.06350000
  0
VERTEX
  8
0
 10
2203.89026465
 20
-4558.70493852
  0
SEQEND
  0
POLYLINE
  8
Default_Layer
 66
   1
 39
0.000000
 70
    1
  0
VERTEX
  8
0
 10
1479.38180468
 20
-4300.74297754
 42
-0.12603150
  0
VERTEX
  8
0
 10
1463.76126465
 20
-4353.50973852
  0
VERTEX
  8
0
 10
1462.38226465
 20
-5674.50993852
 42
-0.17180000
  0
VERTEX
  8
0
 10
1477.47226465
 20
-5734.34493852
  0
VERTEX
  8
0
 10
2086.08126465
 20
-5738.03693852
 42
0.00790000
  0
VERTEX
  8
0
 10
2089.98526465
 20
-5730.30893852
  0
VERTEX
  8
0
 10
2090.75626465
 20
-5728.73093852
 42
-0.00550000
  0
VERTEX
  8
0
 10
2094.12626465
 20
-5721.95193852
 42
-0.01670000
  0
VERTEX
  8
0
 10
2097.54326465
 20
-5715.78093852
 42
-0.02890000
  0
VERTEX
  8
0
 10
2101.50026465
 20
-5709.95793852
 42
-0.04920000
  0
VERTEX
  8
0
 10
2107.53526465
 20
-5703.52293852
 42
-0.05380000
  0
VERTEX
  8
0
 10
2115.33426465
 20
-5698.10193852
 42
-0.03650000
  0
VERTEX
  8
0
 10
2122.69026465
 20
-5694.75793852
 42
-0.02870000
  0
VERTEX
  8
0
 10
2130.94526465
 20
-5692.23493852
 42
-0.02300000
  0
VERTEX
  8
0
 10
2140.58226465
 20
-5690.34793852
 42
-0.01860000
  0
VERTEX
  8
0
 10
2152.08126465
 20
-5689.07093852
 42
-0.01510000
  0
VERTEX
  8
0
 10
2166.00226465
 20
-5688.46293852
 42
-0.00460000
  0
VERTEX
  8
0
 10
2171.52926465
 20
-5688.42893852
  0
VERTEX
  8
0
 10
2274.29126465
 20
-5689.41893852
 42
0.12510000
  0
VERTEX
  8
0
 10
2276.43926465
 20
-5688.80193852
 42
0.06810000
  0
VERTEX
  8
0
 10
2278.00826465
 20
-5687.56993852
 42
0.04310000
  0
VERTEX
  8
0
 10
2279.61726465
 20
-5685.59993852
 42
0.02580000
  0
VERTEX
  8
0
 10
2281.48026465
 20
-5682.55393852
 42
0.01130000
  0
VERTEX
  8
0
 10
2283.77826465
 20
-5678.09393852
  0
VERTEX
  8
0
 10
2284.76826465
 20
-5676.07493852
 42
-0.00680000
  0
VERTEX
  8
0
 10
2288.18026465
 20
-5669.26393852
 42
-0.01990000
  0
VERTEX
  8
0
 10
2292.84326465
 20
-5661.08293852
 42
-0.03280000
  0
VERTEX
  8
0
 10
2299.33926465
 20
-5652.05493852
 42
-0.04590000
  0
VERTEX
  8
0
 10
2308.57326465
 20
-5642.75693852
  0
VERTEX
  8
0
 10
2315.72226465
 20
-5636.66593852
  0
VERTEX
  8
0
 10
2315.67326465
 20
-4399.67373852
  0
VERTEX
  8
0
 10
2309.42326465
 20
-4394.13233852
 42
-0.07960000
  0
VERTEX
  8
0
 10
2294.94026465
 20
-4378.51903852
 42
-0.03320000
  0
VERTEX
  8
0
 10
2289.72426465
 20
-4369.44543852
 42
-0.01730000
  0
VERTEX
  8
0
 10
2286.41226465
 20
-4362.03393852
 42
-0.00310000
  0
VERTEX
  8
0
 10
2284.89426465
 20
-4358.25283852
 42
0.00740000
  0
VERTEX
  8
0
 10
2283.02526465
 20
-4353.66313852
 42
0.02330000
  0
VERTEX
  8
0
 10
2281.53926465
 20
-4350.56193852
 42
0.04230000
  0
VERTEX
  8
0
 10
2280.21626465
 20
-4348.52633852
 42
0.06930000
  0
VERTEX
  8
0
 10
2278.88026465
 20
-4347.22233852
 42
0.13230000
  0
VERTEX
  8
0
 10
2276.90426465
 20
-4346.45293852
 42
0.01720000
  0
VERTEX
  8
0
 10
2276.61926465
 20
-4346.43313852
  0
VERTEX
  8
0
 10
2173.00526465
 20
-4345.94463852
 42
-0.01450000
  0
VERTEX
  8
0
 10
2158.23726465
 20
-4345.45043852
 42
-0.01760000
  0
VERTEX
  8
0
 10
2146.18626465
 20
-4344.27213852
 42
-0.02160000
  0
VERTEX
  8
0
 10
2136.05426465
 20
-4342.47513852
 42
-0.02670000
  0
VERTEX
  8
0
 10
2127.42526465
 20
-4340.06913852
 42
-0.03430000
  0
VERTEX
  8
0
 10
2119.68726465
 20
-4336.85713852
 42
-0.04600000
  0
VERTEX
  8
0
 10
2112.24826465
 20
-4332.25633852
 42
-0.06080000
  0
VERTEX
  8
0
 10
2104.54726465
 20
-4324.77783852
 42
-0.03240000
  0
VERTEX
  8
0
 10
2100.31326465
 20
-4318.76193852
 42
-0.01930000
  0
VERTEX
  8
0
 10
2096.85326465
 20
-4312.57423852
 42
-0.00800000
  0
VERTEX
  8
0
 10
2093.57226465
 20
-4305.87273852
  0
VERTEX
  8
0
 10
2092.80626465
 20
-4304.25523852
 42
0.00522461
  0
VERTEX
  8
0
 10
2089.35815622
 20
-4297.09313163
  0
VERTEX
  8
0
 10
1479.38180468
 20
-4300.74297754
  0
SEQEND
  0
POLYLINE
  8
Default_Layer
 66
   1
 39
0.000000
 70
    0
  0
VERTEX
  8
0
 10
1690.91662168
 20
-4821.27921498
  0
VERTEX
  8
0
 10
1716.31662168
 20
-4795.87921498
  0
VERTEX
  8
0
 10
1767.11662168
 20
-4795.87921498
  0
VERTEX
  8
0
 10
1792.51662168
 20
-4821.27921498
  0
VERTEX
  8
0
 10
1792.51662168
 20
-4846.67921498
  0
VERTEX
  8
0
 10
1767.11662168
 20
-4872.07921498
  0
VERTEX
  8
0
 10
1716.31662168
 20
-4872.07921498
  0
VERTEX
  8
0
 10
1690.91662168
 20
-4897.47921498
  0
VERTEX
  8
0
 10
1690.91662168
 20
-4948.27921498
  0
VERTEX
  8
0
 10
1792.51662168
 20
-4948.27921498
  0
SEQEND
  0
POLYLINE
  8
Default_Layer
 66
   1
 39
0.000000
 70
    0
  0
VERTEX
  8
0
 10
1690.91662168
 20
-5195.02207212
  0
VERTEX
  8
0
 10
1716.31662168
 20
-5220.42207212
  0
VERTEX
  8
0
 10
1767.11662168
 20
-5220.42207212
  0
VERTEX
  8
0
 10
1792.51662168
 20
-5195.02207212
  0
VERTEX
  8
0
 10
1690.91662168
 20
-5093.42207212
  0
VERTEX
  8
0
 10
1716.31662168
 20
-5068.02207212
  0
VERTEX
  8
0
 10
1767.11662168
 20
-5068.02207212
  0
VERTEX
  8
0
 10
1792.51662168
 20
-5093.42207212
  0
SEQEND
  0
POLYLINE
  8
Default_Layer
 66
   1
 39
0.000000
 70
    0
  0
VERTEX
  8
0
 10
1843.31662168
 20
-5068.02207212
  0
VERTEX
  8
0
 10
1843.31662168
 20
-5220.42207212
  0
VERTEX
  8
0
 10
1944.91662168
 20
-5220.42207212
  0
SEQEND
  0
POLYLINE
  8
Default_Layer
 66
   1
 39
0.000000
 70
    0
  0
VERTEX
  8
0
 10
1995.71662168
 20
-5220.42207212
  0
VERTEX
  8
0
 10
2071.91662168
 20
-5220.42207212
  0
VERTEX
  8
0
 10
2097.31662168
 20
-5195.02207212
  0
VERTEX
  8
0
 10
2097.31662168
 20
-5093.42207212
  0
VERTEX
  8
0
 10
2071.91662168
 20
-5068.02207212
  0
VERTEX
  8
0
 10
1995.71662168
 20
-5068.02207212
  0
SEQEND
  0
POLYLINE
  8
Default_Layer
 66
   1
 39
0.000000
 70
    0
  0
VERTEX
  8
0
 10
2021.11662168
 20
-5068.02207212
  0
VERTEX
  8
0
 10
2021.11662168
 20
-5220.42207212
  0
SEQEND
  0
POLYLINE
  8
Default_Layer
 66
   1
 39
0.000000
 70
    0
  0
VERTEX
  8
0
 10
4926.34616309
 20
-4748.89168852
  0
VERTEX
  8
0
 10
4926.34616309
 20
-4647.29168852
  0
VERTEX
  8
0
 10
4977.14616309
 20
-4647.29168852
  0
VERTEX
  8
0
 10
4994.07949642
 20
-4664.22502186
  0
VERTEX
  8
0
 10
4994.07949642
 20
-4681.15835519
  0
VERTEX
  8
0
 10
4977.14616309
 20
-4698.09168852
  0
VERTEX
  8
0
 10
4926.34616309
 20
-4698.09168852
  0
SEQEND
  0
POLYLINE
  8
Default_Layer
 66
   1
 39
0.000000
 70
    0
  0
VERTEX
  8
0
 10
4943.27949642
 20
-4698.09168852
  0
VERTEX
  8
0
 10
4994.07949642
 20
-4748.89168852
  0
SEQEND
  0
POLYLINE
  8
Default_Layer
 66
   1
 39
0.000000
 70
    0
  0
VERTEX
  8
0
 10
5027.94616309
 20
-4748.89168852
  0
VERTEX
  8
0
 10
5027.94616309
 20
-4647.29168852
  0
VERTEX
  8
0
 10
5095.67949642
 20
-4647.29168852
  0
SEQEND
  0
POLYLINE
  8
Default_Layer
 66
   1
 39
0.000000
 70
    0
  0
VERTEX
  8
0
 10
5027.94616309
 20
-4698.09168852
  0
VERTEX
  8
0
 10
5061.81282975
 20
-4698.09168852
  0
SEQEND
  0
POLYLINE
  8
Default_Layer
 66
   1
 39
0.000000
 70
    0
  0
VERTEX
  8
0
 10
5027.94616309
 20
-4748.89168852
  0
VERTEX
  8
0
 10
5095.67949642
 20
-4748.89168852
  0
SEQEND
  0
POLYLINE
  8
Default_Layer
 66
   1
 39
0.000000
 70
    0
  0
VERTEX
  8
0
 10
5129.54616309
 20
-4748.89168852
  0
VERTEX
  8
0
 10
5129.54616309
 20
-4715.02502186
  0
VERTEX
  8
0
 10
5163.41282975
 20
-4647.29168852
  0
VERTEX
  8
0
 10
5197.27949642
 20
-4715.02502186
  0
VERTEX
  8
0
 10
5197.27949642
 20
-4748.89168852
  0
SEQEND
  0
POLYLINE
  8
Default_Layer
 66
   1
 39
0.000000
 70
    0
  0
VERTEX
  8
0
 10
5129.54616309
 20
-4715.02502186
  0
VERTEX
  8
0
 10
5197.27949642
 20
-4715.02502186
  0
SEQEND
  0
POLYLINE
  8
Default_Layer
 66
   1
 39
0.000000
 70
    0
  0
VERTEX
  8
0
 10
5231.14616309
 20
-4748.89168852
  0
VERTEX
  8
0
 10
5231.14616309
 20
-4647.29168852
  0
VERTEX
  8
0
 10
5281.94616309
 20
-4647.29168852
  0
VERTEX
  8
0
 10
5298.87949642
 20
-4664.22502186
  0
VERTEX
  8
0
 10
5298.87949642
 20
-4681.15835519
  0
VERTEX
  8
0
 10
5281.94616309
 20
-4698.09168852
  0
VERTEX
  8
0
 10
5231.14616309
 20
-4698.09168852
  0
SEQEND
  0
POLYLINE
  8
Default_Layer
 66
   1
 39
0.000000
 70
    0
  0
VERTEX
  8
0
 10
5248.07949642
 20
-4698.09168852
  0
VERTEX
  8
0
 10
5298.87949642
 20
-4748.89168852
  0
SEQEND
  0
POLYLINE
  8
Default_Layer
 66
   1
 39
0.000000
 70
    0
  0
VERTEX
  8
0
 10
4926.34616309
 20
-4930.32025995
  0
VERTEX
  8
0
 10
4926.34616309
 20
-4828.72025995
  0
VERTEX
  8
0
 10
4994.07949642
 20
-4828.72025995
  0
SEQEND
  0
POLYLINE
  8
Default_Layer
 66
   1
 39
0.000000
 70
    0
  0
VERTEX
  8
0
 10
4926.34616309
 20
-4879.52025995
  0
VERTEX
  8
0
 10
4960.21282975
 20
-4879.52025995
  0
SEQEND
  0
POLYLINE
  8
Default_Layer
 66
   1
 39
0.000000
 70
    0
  0
VERTEX
  8
0
 10
5027.94616309
 20
-4828.72025995
  0
VERTEX
  8
0
 10
5027.94616309
 20
-4930.32025995
  0
VERTEX
  8
0
 10
5095.67949642
 20
-4930.32025995
  0
SEQEND
  0
POLYLINE
  8
Default_Layer
 66
   1
 39
0.000000
 70
    1
  0
VERTEX
  8
0
 10
5129.54616309
 20
-4930.32025995
  0
VERTEX
  8
0
 10
5129.54616309
 20
-4828.72025995
  0
VERTEX
  8
0
 10
5197.27949642
 20
-4828.72025995
  0
VERTEX
  8
0
 10
5197.27949642
 20
-4930.32025995
  0
VERTEX
  8
0
 10
5129.54616309
 20
-4930.32025995
  0
SEQEND
  0
POLYLINE
  8
Default_Layer
 66
   1
 39
0.000000
 70
    1
  0
VERTEX
  8
0
 10
5231.14616309
 20
-4930.32025995
  0
VERTEX
  8
0
 10
5231.14616309
 20
-4828.72025995
  0
VERTEX
  8
0
 10
5298.87949642
 20
-4828.72025995
  0
VERTEX
  8
0
 10
5298.87949642
 20
-4930.32025995
  0
VERTEX
  8
0
 10
5231.14616309
 20
-4930.32025995
  0
SEQEND
  0
POLYLINE
  8
Default_Layer
 66
   1
 39
0.000000
 70
    0
  0
VERTEX
  8
0
 10
5332.74616309
 20
-4930.32025995
  0
VERTEX
  8
0
 10
5332.74616309
 20
-4828.72025995
  0
VERTEX
  8
0
 10
5383.54616309
 20
-4828.72025995
  0
VERTEX
  8
0
 10
5400.47949642
 20
-4845.65359329
  0
VERTEX
  8
0
 10
5400.47949642
 20
-4862.58692662
  0
VERTEX
  8
0
 10
5383.54616309
 20
-4879.52025995
  0
VERTEX
  8
0
 10
5332.74616309
 20
-4879.52025995
  0
SEQEND
  0
POLYLINE
  8
Default_Layer
 66
   1
 39
0.000000
 70
    0
  0
VERTEX
  8
0
 10
5349.67949642
 20
-4879.52025995
  0
VERTEX
  8
0
 10
5400.47949642
 20
-4930.32025995
  0
SEQEND
  0
POLYLINE
  8
Default_Layer
 66
   1
 39
0.000000
 70
    0
  0
VERTEX
  8
0
 10
4926.34616309
 20
-5094.81549805
  0
VERTEX
  8
0
 10
4943.27949642
 20
-5111.74883138
  0
VERTEX
  8
0
 10
4977.14616309
 20
-5111.74883138
  0
VERTEX
  8
0
 10
4994.07949642
 20
-5094.81549805
  0
VERTEX
  8
0
 10
4926.34616309
 20
-5027.08216472
  0
VERTEX
  8
0
 10
4943.27949642
 20
-5010.14883138
  0
VERTEX
  8
0
 10
4977.14616309
 20
-5010.14883138
  0
VERTEX
  8
0
 10
4994.07949642
 20
-5027.08216472
  0
SEQEND
  0
POLYLINE
  8
Default_Layer
 66
   1
 39
0.000000
 70
    0
  0
VERTEX
  8
0
 10
5027.94616309
 20
-5111.74883138
  0
VERTEX
  8
0
 10
5027.94616309
 20
-5077.88216472
  0
VERTEX
  8
0
 10
5061.81282975
 20
-5010.14883138
  0
VERTEX
  8
0
 10
5095.67949642
 20
-5077.88216472
  0
VERTEX
  8
0
 10
5095.67949642
 20
-5111.74883138
  0
SEQEND
  0
POLYLINE
  8
Default_Layer
 66
   1
 39
0.000000
 70
    0
  0
VERTEX
  8
0
 10
5027.94616309
 20
-5077.88216472
  0
VERTEX
  8
0
 10
5095.67949642
 20
-5077.88216472
  0
SEQEND
  0
POLYLINE
  8
Default_Layer
 66
   1
 39
0.000000
 70
    0
  0
VERTEX
  8
0
 10
5129.54616309
 20
-5111.74883138
  0
VERTEX
  8
0
 10
5129.54616309
 20
-5010.14883138
  0
VERTEX
  8
0
 10
5163.41282975
 20
-5077.88216472
  0
VERTEX
  8
0
 10
5197.27949642
 20
-5010.14883138
  0
VERTEX
  8
0
 10
5197.27949642
 20
-5111.74883138
  0
SEQEND
  0
POLYLINE
  8
Default_Layer
 66
   1
 39
0.000000
 70
    0
  0
VERTEX
  8
0
 10
5231.14616309
 20
-5111.74883138
  0
VERTEX
  8
0
 10
5231.14616309
 20
-5010.14883138
  0
VERTEX
  8
0
 10
5298.87949642
 20
-5010.14883138
  0
SEQEND
  0
POLYLINE
  8
Default_Layer
 66
   1
 39
0.000000
 70
    0
  0
VERTEX
  8
0
 10
5231.14616309
 20
-5060.94883138
  0
VERTEX
  8
0
 10
5265.01282975
 20
-5060.94883138
  0
SEQEND
  0
POLYLINE
  8
Default_Layer
 66
   1
 39
0.000000
 70
    0
  0
VERTEX
  8
0
 10
5231.14616309
 20
-5111.74883138
  0
VERTEX
  8
0
 10
5298.87949642
 20
-5111.74883138
  0
SEQEND
  0
POLYLINE
  8
Default_Layer
 66
   1
 39
0.000000
 70
    1
  0
VERTEX
  8
0
 10
4926.34616309
 20
-5293.17740281
  0
VERTEX
  8
0
 10
4926.34616309
 20
-5191.57740281
  0
VERTEX
  8
0
 10
4994.07949642
 20
-5191.57740281
  0
VERTEX
  8
0
 10
4994.07949642
 20
-5293.17740281
  0
VERTEX
  8
0
 10
4926.34616309
 20
-5293.17740281
  0
SEQEND
  0
POLYLINE
  8
Default_Layer
 66
   1
 39
0.000000
 70
    0
  0
VERTEX
  8
0
 10
5027.94616309
 20
-5293.17740281
  0
VERTEX
  8
0
 10
5027.94616309
 20
-5191.57740281
  0
VERTEX
  8
0
 10
5095.67949642
 20
-5293.17740281
  0
VERTEX
  8
0
 10
5095.67949642
 20
-5191.57740281
  0
SEQEND
  0
POLYLINE
  8
Default_Layer
 66
   1
 39
0.000000
 70
    0
  0
VERTEX
  8
0
 10
5231.14616309
 20
-5293.17740281
  0
VERTEX
  8
0
 10
5231.14616309
 20
-5259.31073614
  0
VERTEX
  8
0
 10
5265.01282975
 20
-5191.57740281
  0
VERTEX
  8
0
 10
5298.87949642
 20
-5259.31073614
  0
VERTEX
  8
0
 10
5298.87949642
 20
-5293.17740281
  0
SEQEND
  0
POLYLINE
  8
Default_Layer
 66
   1
 39
0.000000
 70
    0
  0
VERTEX
  8
0
 10
5231.14616309
 20
-5259.31073614
  0
VERTEX
  8
0
 10
5298.87949642
 20
-5259.31073614
  0
SEQEND
  0
POLYLINE
  8
Default_Layer
 66
   1
 39
0.000000
 70
    0
  0
VERTEX
  8
0
 10
5332.74616309
 20
-5191.57740281
  0
VERTEX
  8
0
 10
5332.74616309
 20
-5293.17740281
  0
VERTEX
  8
0
 10
5400.47949642
 20
-5293.17740281
  0
SEQEND
  0
POLYLINE
  8
Default_Layer
 66
   1
 39
0.000000
 70
    0
  0
VERTEX
  8
0
 10
5434.34616309
 20
-5191.57740281
  0
VERTEX
  8
0
 10
5434.34616309
 20
-5293.17740281
  0
VERTEX
  8
0
 10
5502.07949642
 20
-5293.17740281
  0
SEQEND
  0
POLYLINE
  8
Default_Layer
 66
   1
 39
0.000000
 70
    0
  0
VERTEX
  8
0
 10
992.93319336
 20
-1759.38529274
  0
VERTEX
  8
0
 10
1119.93319336
 20
-2013.38529274
  0
VERTEX
  8
0
 10
1246.93319336
 20
-1759.38529274
  0
SEQEND
  0
POLYLINE
  8
Default_Layer
 66
   1
 39
0.000000
 70
    0
  0
VERTEX
  8
0
 10
1331.59986003
 20
-2013.38529274
  0
VERTEX
  8
0
 10
1331.59986003
 20
-1928.71862607
  0
VERTEX
  8
0
 10
1416.26652669
 20
-1759.38529274
  0
VERTEX
  8
0
 10
1500.93319336
 20
-1928.71862607
  0
VERTEX
  8
0
 10
1500.93319336
 20
-2013.38529274
  0
SEQEND
  0
POLYLINE
  8
Default_Layer
 66
   1
 39
0.000000
 70
    0
  0
VERTEX
  8
0
 10
1331.59986003
 20
-1928.71862607
  0
VERTEX
  8
0
 10
1500.93319336
 20
-1928.71862607
  0
SEQEND
  0
POLYLINE
  8
Default_Layer
 66
   1
 39
0.000000
 70
    0
  0
VERTEX
  8
0
 10
1585.59986003
 20
-1759.38529274
  0
VERTEX
  8
0
 10
1585.59986003
 20
-1971.05195941
  0
VERTEX
  8
0
 10
1627.93319336
 20
-2013.38529274
  0
VERTEX
  8
0
 10
1712.59986003
 20
-2013.38529274
  0
VERTEX
  8
0
 10
1754.93319336
 20
-1971.05195941
  0
VERTEX
  8
0
 10
1754.93319336
 20
-1759.38529274
  0
SEQEND
  0
POLYLINE
  8
Default_Layer
 66
   1
 39
0.000000
 70
    0
  0
VERTEX
  8
0
 10
1839.59986003
 20
-2013.38529274
  0
VERTEX
  8
0
 10
2008.93319336
 20
-1759.38529274
  0
SEQEND
  0
POLYLINE
  8
Default_Layer
 66
   1
 39
0.000000
 70
    0
  0
VERTEX
  8
0
 10
1839.59986003
 20
-1759.38529274
  0
VERTEX
  8
0
 10
2008.93319336
 20
-2013.38529274
  0
SEQEND
  0
POLYLINE
  8
Default_Layer
 66
   1
 39
0.000000
 70
    0
  0
VERTEX
  8
0
 10
2516.93319336
 20
-1971.05195941
  0
VERTEX
  8
0
 10
2474.59986003
 20
-2013.38529274
  0
VERTEX
  8
0
 10
2389.93319336
 20
-2013.38529274
  0
VERTEX
  8
0
 10
2347.59986003
 20
-1971.05195941
  0
VERTEX
  8
0
 10
2347.59986003
 20
-1801.71862607
  0
VERTEX
  8
0
 10
2389.93319336
 20
-1759.38529274
  0
VERTEX
  8
0
 10
2474.59986003
 20
-1759.38529274
  0
VERTEX
  8
0
 10
2516.93319336
 20
-1801.71862607
  0
SEQEND
  0
POLYLINE
  8
Default_Layer
 66
   1
 39
0.000000
 70
    1
  0
VERTEX
  8
0
 10
2601.59986003
 20
-2013.38529274
  0
VERTEX
  8
0
 10
2601.59986003
 20
-1759.38529274
  0
VERTEX
  8
0
 10
2770.93319336
 20
-1759.38529274
  0
VERTEX
  8
0
 10
2770.93319336
 20
-2013.38529274
  0
VERTEX
  8
0
 10
2601.59986003
 20
-2013.38529274
  0
SEQEND
  0
POLYLINE
  8
Default_Layer
 66
   1
 39
0.000000
 70
    0
  0
VERTEX
  8
0
 10
2855.59986003
 20
-2013.38529274
  0
VERTEX
  8
0
 10
2855.59986003
 20
-1759.38529274
  0
VERTEX
  8
0
 10
2940.26652669
 20
-1928.71862607
  0
VERTEX
  8
0
 10
3024.93319336
 20
-1759.38529274
  0
VERTEX
  8
0
 10
3024.93319336
 20
-2013.38529274
  0
SEQEND
  0
POLYLINE
  8
Default_Layer
 66
   1
 39
0.000000
 70
    0
  0
VERTEX
  8
0
 10
3109.59986003
 20
-2013.38529274
  0
VERTEX
  8
0
 10
3236.59986003
 20
-2013.38529274
  0
VERTEX
  8
0
 10
3278.93319336
 20
-1971.05195941
  0
VERTEX
  8
0
 10
3278.93319336
 20
-1928.71862607
  0
VERTEX
  8
0
 10
3236.59986003
 20
-1886.38529274
  0
VERTEX
  8
0
 10
3151.93319336
 20
-1886.38529274
  0
SEQEND
  0
POLYLINE
  8
Default_Layer
 66
   1
 39
0.000000
 70
    0
  0
VERTEX
  8
0
 10
3236.59986003
 20
-1886.38529274
  0
VERTEX
  8
0
 10
3278.93319336
 20
-1844.05195941
  0
VERTEX
  8
0
 10
3278.93319336
 20
-1801.71862607
  0
VERTEX
  8
0
 10
3236.59986003
 20
-1759.38529274
  0
VERTEX
  8
0
 10
3109.59986003
 20
-1759.38529274
  0
SEQEND
  0
POLYLINE
  8
Default_Layer
 66
   1
 39
0.000000
 70
    0
  0
VERTEX
  8
0
 10
3151.93319336
 20
-1759.38529274
  0
VERTEX
  8
0
 10
3151.93319336
 20
-2013.38529274
  0
SEQEND
  0
POLYLINE
  8
Default_Layer
 66
   1
 39
0.000000
 70
    1
  0
VERTEX
  8
0
 10
3363.59986003
 20
-2013.38529274
  0
VERTEX
  8
0
 10
3363.59986003
 20
-1759.38529274
  0
VERTEX
  8
0
 10
3532.93319336
 20
-1759.38529274
  0
VERTEX
  8
0
 10
3532.93319336
 20
-2013.38529274
  0
VERTEX
  8
0
 10
3363.59986003
 20
-2013.38529274
  0
SEQEND
  0
POLYLINE
  8
Default_Layer
 66
   1
 39
0.000000
 70
    0
  0
VERTEX
  8
0
 10
3617.59986003
 20
-2013.38529274
  0
VERTEX
  8
0
 10
3786.93319336
 20
-1759.38529274
  0
SEQEND
  0
POLYLINE
  8
Default_Layer
 66
   1
 39
0.000000
 70
    0
  0
VERTEX
  8
0
 10
3871.59986003
 20
-2013.38529274
  0
VERTEX
  8
0
 10
3871.59986003
 20
-1759.38529274
  0
VERTEX
  8
0
 10
4040.93319336
 20
-1759.38529274
  0
SEQEND
  0
POLYLINE
  8
Default_Layer
 66
   1
 39
0.000000
 70
    0
  0
VERTEX
  8
0
 10
3871.59986003
 20
-1886.38529274
  0
VERTEX
  8
0
 10
3956.26652669
 20
-1886.38529274
  0
SEQEND
  0
POLYLINE
  8
Default_Layer
 66
   1
 39
0.000000
 70
    0
  0
VERTEX
  8
0
 10
4125.59986003
 20
-1759.38529274
  0
VERTEX
  8
0
 10
4210.26652669
 20
-1759.38529274
  0
SEQEND
  0
POLYLINE
  8
Default_Layer
 66
   1
 39
0.000000
 70
    0
  0
VERTEX
  8
0
 10
4167.93319336
 20
-1759.38529274
  0
VERTEX
  8
0
 10
4167.93319336
 20
-2013.38529274
  0
SEQEND
  0
POLYLINE
  8
Default_Layer
 66
   1
 39
0.000000
 70
    0
  0
VERTEX
  8
0
 10
4125.59986003
 20
-2013.38529274
  0
VERTEX
  8
0
 10
4210.26652669
 20
-2013.38529274
  0
SEQEND
  0
POLYLINE
  8
Default_Layer
 66
   1
 39
0.000000
 70
    0
  0
VERTEX
  8
0
 10
4294.93319336
 20
-2013.38529274
  0
VERTEX
  8
0
 10
4294.93319336
 20
-1928.71862607
  0
VERTEX
  8
0
 10
4379.59986003
 20
-1759.38529274
  0
VERTEX
  8
0
 10
4464.26652669
 20
-1928.71862607
  0
VERTEX
  8
0
 10
4464.26652669
 20
-2013.38529274
  0
SEQEND
  0
POLYLINE
  8
Default_Layer
 66
   1
 39
0.000000
 70
    0
  0
VERTEX
  8
0
 10
4294.93319336
 20
-1928.71862607
  0
VERTEX
  8
0
 10
4464.26652669
 20
-1928.71862607
  0
SEQEND
  0
POLYLINE
  8
Default_Layer
 66
   1
 39
0.000000
 70
    0
  0
VERTEX
  8
0
 10
4548.93319336
 20
-1759.38529274
  0
VERTEX
  8
0
 10
4718.26652669
 20
-1759.38529274
  0
SEQEND
  0
POLYLINE
  8
Default_Layer
 66
   1
 39
0.000000
 70
    0
  0
VERTEX
  8
0
 10
4633.59986003
 20
-1759.38529274
  0
VERTEX
  8
0
 10
4633.59986003
 20
-2013.38529274
  0
SEQEND
  0
POLYLINE
  8
Default_Layer
 66
   1
 39
0.000000
 70
    0
  0
VERTEX
  8
0
 10
5056.93319336
 20
-2013.38529274
  0
VERTEX
  8
0
 10
5183.93319336
 20
-2013.38529274
  0
VERTEX
  8
0
 10
5226.26652669
 20
-1971.05195941
  0
VERTEX
  8
0
 10
5226.26652669
 20
-1801.71862607
  0
VERTEX
  8
0
 10
5183.93319336
 20
-1759.38529274
  0
VERTEX
  8
0
 10
5056.93319336
 20
-1759.38529274
  0
SEQEND
  0
POLYLINE
  8
Default_Layer
 66
   1
 39
0.000000
 70
    0
  0
VERTEX
  8
0
 10
5099.26652669
 20
-1759.38529274
  0
VERTEX
  8
0
 10
5099.26652669
 20
-2013.38529274
  0
SEQEND
  0
POLYLINE
  8
Default_Layer
 66
   1
 39
0.000000
 70
    1
  0
VERTEX
  8
0
 10
5310.93319336
 20
-2013.38529274
  0
VERTEX
  8
0
 10
5310.93319336
 20
-1759.38529274
  0
VERTEX
  8
0
 10
5480.26652669
 20
-1759.38529274
  0
VERTEX
  8
0
 10
5480.26652669
 20
-2013.38529274
  0
VERTEX
  8
0
 10
5310.93319336
 20
-2013.38529274
  0
SEQEND
  0
POLYLINE
  8
Default_Layer
 66
   1
 39
0.000000
 70
    0
  0
VERTEX
  8
0
 10
5564.93319336
 20
-2013.38529274
  0
VERTEX
  8
0
 10
5691.93319336
 20
-2013.38529274
  0
VERTEX
  8
0
 10
5734.26652669
 20
-1971.05195941
  0
VERTEX
  8
0
 10
5734.26652669
 20
-1928.71862607
  0
VERTEX
  8
0
 10
5691.93319336
 20
-1886.38529274
  0
VERTEX
  8
0
 10
5607.26652669
 20
-1886.38529274
  0
SEQEND
  0
POLYLINE
  8
Default_Layer
 66
   1
 39
0.000000
 70
    0
  0
VERTEX
  8
0
 10
5691.93319336
 20
-1886.38529274
  0
VERTEX
  8
0
 10
5734.26652669
 20
-1844.05195941
  0
VERTEX
  8
0
 10
5734.26652669
 20
-1801.71862607
  0
VERTEX
  8
0
 10
5691.93319336
 20
-1759.38529274
  0
VERTEX
  8
0
 10
5564.93319336
 20
-1759.38529274
  0
SEQEND
  0
POLYLINE
  8
Default_Layer
 66
   1
 39
0.000000
 70
    0
  0
VERTEX
  8
0
 10
5607.26652669
 20
-1759.38529274
  0
VERTEX
  8
0
 10
5607.26652669
 20
-2013.38529274
  0
SEQEND
  0
POLYLINE
  8
Default_Layer
 66
   1
 39
0.000000
 70
    0
  0
VERTEX
  8
0
 10
5818.93319336
 20
-1759.38529274
  0
VERTEX
  8
0
 10
5818.93319336
 20
-2013.38529274
  0
VERTEX
  8
0
 10
5988.26652669
 20
-2013.38529274
  0
SEQEND
  0
POLYLINE
  8
Default_Layer
 66
   1
 39
0.000000
 70
    0
  0
VERTEX
  8
0
 10
6072.93319336
 20
-2013.38529274
  0
VERTEX
  8
0
 10
6072.93319336
 20
-1759.38529274
  0
VERTEX
  8
0
 10
6242.26652669
 20
-1759.38529274
  0
SEQEND
  0
POLYLINE
  8
Default_Layer
 66
   1
 39
0.000000
 70
    0
  0
VERTEX
  8
0
 10
6072.93319336
 20
-1886.38529274
  0
VERTEX
  8
0
 10
6157.59986003
 20
-1886.38529274
  0
SEQEND
  0
POLYLINE
  8
Default_Layer
 66
   1
 39
0.000000
 70
    0
  0
VERTEX
  8
0
 10
6072.93319336
 20
-2013.38529274
  0
VERTEX
  8
0
 10
6242.26652669
 20
-2013.38529274
  0
SEQEND
  0
POLYLINE
  8
Default_Layer
 66
   1
 39
0.000000
 70
    0
  0
VERTEX
  8
0
 10
6580.93319336
 20
-1801.71862607
  0
VERTEX
  8
0
 10
6623.26652669
 20
-1759.38529274
  0
VERTEX
  8
0
 10
6707.93319336
 20
-1759.38529274
  0
VERTEX
  8
0
 10
6750.26652669
 20
-1801.71862607
  0
VERTEX
  8
0
 10
6750.26652669
 20
-1844.05195941
  0
VERTEX
  8
0
 10
6707.93319336
 20
-1886.38529274
  0
VERTEX
  8
0
 10
6623.26652669
 20
-1886.38529274
  0
VERTEX
  8
0
 10
6580.93319336
 20
-1928.71862607
  0
VERTEX
  8
0
 10
6580.93319336
 20
-2013.38529274
  0
VERTEX
  8
0
 10
6750.26652669
 20
-2013.38529274
  0
SEQEND
  0
POLYLINE
  8
Default_Layer
 66
   1
 39
0.000000
 70
    1
  0
VERTEX
  8
0
 10
6877.26652669
 20
-2013.38529274
  0
VERTEX
  8
0
 10
6834.93319336
 20
-1971.05195941
  0
VERTEX
  8
0
 10
6834.93319336
 20
-1801.71862607
  0
VERTEX
  8
0
 10
6877.26652669
 20
-1759.38529274
  0
VERTEX
  8
0
 10
6919.59986003
 20
-1759.38529274
  0
VERTEX
  8
0
 10
6961.93319336
 20
-1801.71862607
  0
VERTEX
  8
0
 10
6961.93319336
 20
-1971.05195941
  0
VERTEX
  8
0
 10
6919.59986003
 20
-2013.38529274
  0
VERTEX
  8
0
 10
6877.26652669
 20
-2013.38529274
  0
SEQEND
  0
POLYLINE
  8
Default_Layer
 66
   1
 39
0.000000
 70
    0
  0
VERTEX
  8
0
 10
7046.59986003
 20
-1801.71862607
  0
VERTEX
  8
0
 10
7088.93319336
 20
-1759.38529274
  0
VERTEX
  8
0
 10
7088.93319336
 20
-2013.38529274
  0
SEQEND
  0
POLYLINE
  8
Default_Layer
 66
   1
 39
0.000000
 70
    0
  0
VERTEX
  8
0
 10
7046.59986003
 20
-2013.38529274
  0
VERTEX
  8
0
 10
7131.26652669
 20
-2013.38529274
  0
SEQEND
  0
POLYLINE
  8
Default_Layer
 66
   1
 39
0.000000
 70
    1
  0
VERTEX
  8
0
 10
7258.26652669
 20
-2013.38529274
  0
VERTEX
  8
0
 10
7215.93319336
 20
-1971.05195941
  0
VERTEX
  8
0
 10
7215.93319336
 20
-1801.71862607
  0
VERTEX
  8
0
 10
7258.26652669
 20
-1759.38529274
  0
VERTEX
  8
0
 10
7300.59986003
 20
-1759.38529274
  0
VERTEX
  8
0
 10
7342.93319336
 20
-1801.71862607
  0
VERTEX
  8
0
 10
7342.93319336
 20
-1971.05195941
  0
VERTEX
  8
0
 10
7300.59986003
 20
-2013.38529274
  0
VERTEX
  8
0
 10
7258.26652669
 20
-2013.38529274
  0
SEQEND
  0
POLYLINE
  8
Default_Layer
 66
   1
 39
0.000000
 70
    0
  0
VERTEX
  8
0
 10
7427.59986003
 20
-1759.38529274
  0
VERTEX
  8
0
 10
7554.59986003
 20
-1886.38529274
  0
VERTEX
  8
0
 10
7427.59986003
 20
-2013.38529274
  0
SEQEND
  0
POLYLINE
  8
Default_Layer
 66
   1
 39
0.000000
 70
    0
  0
VERTEX
  8
0
 10
992.93319336
 20
-2212.95672131
  0
VERTEX
  8
0
 10
992.93319336
 20
-2466.95672131
  0
VERTEX
  8
0
 10
1162.26652669
 20
-2466.95672131
  0
SEQEND
  0
POLYLINE
  8
Default_Layer
 66
   1
 39
0.000000
 70
    0
  0
VERTEX
  8
0
 10
1246.93319336
 20
-2255.29005464
  0
VERTEX
  8
0
 10
1289.26652669
 20
-2212.95672131
  0
VERTEX
  8
0
 10
1289.26652669
 20
-2466.95672131
  0
SEQEND
  0
POLYLINE
  8
Default_Layer
 66
   1
 39
0.000000
 70
    0
  0
VERTEX
  8
0
 10
1246.93319336
 20
-2466.95672131
  0
VERTEX
  8
0
 10
1331.59986003
 20
-2466.95672131
  0
SEQEND
  0
POLYLINE
  8
Default_Layer
 66
   1
 39
0.000000
 70
    0
  0
VERTEX
  8
0
 10
1670.26652669
 20
-2424.62338798
  0
VERTEX
  8
0
 10
1712.59986003
 20
-2466.95672131
  0
VERTEX
  8
0
 10
1797.26652669
 20
-2466.95672131
  0
VERTEX
  8
0
 10
1839.59986003
 20
-2424.62338798
  0
VERTEX
  8
0
 10
1670.26652669
 20
-2255.29005464
  0
VERTEX
  8
0
 10
1712.59986003
 20
-2212.95672131
  0
VERTEX
  8
0
 10
1797.26652669
 20
-2212.95672131
  0
VERTEX
  8
0
 10
1839.59986003
 20
-2255.29005464
  0
SEQEND
  0
POLYLINE
  8
Default_Layer
 66
   1
 39
0.000000
 70
    0
  0
VERTEX
  8
0
 10
1924.26652669
 20
-2212.95672131
  0
VERTEX
  8
0
 10
2008.93319336
 20
-2466.95672131
  0
VERTEX
  8
0
 10
2051.26652669
 20
-2339.95672131
  0
VERTEX
  8
0
 10
2093.59986003
 20
-2466.95672131
  0
VERTEX
  8
0
 10
2178.26652669
 20
-2212.95672131
  0
SEQEND
  0
POLYLINE
  8
Default_Layer
 66
   1
 39
0.000000
 70
    0
  0
VERTEX
  8
0
 10
2262.93319336
 20
-2466.95672131
  0
VERTEX
  8
0
 10
2389.93319336
 20
-2466.95672131
  0
VERTEX
  8
0
 10
2432.26652669
 20
-2424.62338798
  0
VERTEX
  8
0
 10
2432.26652669
 20
-2382.29005464
  0
VERTEX
  8
0
 10
2389.93319336
 20
-2339.95672131
  0
VERTEX
  8
0
 10
2305.26652669
 20
-2339.95672131
  0
SEQEND
  0
POLYLINE
  8
Default_Layer
 66
   1
 39
0.000000
 70
    0
  0
VERTEX
  8
0
 10
2389.93319336
 20
-2339.95672131
  0
VERTEX
  8
0
 10
2432.26652669
 20
-2297.62338798
  0
VERTEX
  8
0
 10
2432.26652669
 20
-2255.29005464
  0
VERTEX
  8
0
 10
2389.93319336
 20
-2212.95672131
  0
VERTEX
  8
0
 10
2262.93319336
 20
-2212.95672131
  0
SEQEND
  0
POLYLINE
  8
Default_Layer
 66
   1
 39
0.000000
 70
    0
  0
VERTEX
  8
0
 10
2305.26652669
 20
-2212.95672131
  0
VERTEX
  8
0
 10
2305.26652669
 20
-2466.95672131
  0
SEQEND
  0
POLYLINE
  8
Default_Layer
 66
   1
 39
0.000000
 70
    0
  0
VERTEX
  8
0
 10
2770.93319336
 20
-2466.95672131
  0
VERTEX
  8
0
 10
2770.93319336
 20
-2212.95672131
  0
VERTEX
  8
0
 10
2940.26652669
 20
-2466.95672131
  0
VERTEX
  8
0
 10
2940.26652669
 20
-2212.95672131
  0
SEQEND
  0
POLYLINE
  8
Default_Layer
 66
   1
 39
0.000000
 70
    1
  0
VERTEX
  8
0
 10
3024.93319336
 20
-2466.95672131
  0
VERTEX
  8
0
 10
3024.93319336
 20
-2212.95672131
  0
VERTEX
  8
0
 10
3194.26652669
 20
-2212.95672131
  0
VERTEX
  8
0
 10
3194.26652669
 20
-2466.95672131
  0
VERTEX
  8
0
 10
3024.93319336
 20
-2466.95672131
  0
SEQEND
  0
POLYLINE
  8
Default_Layer
 66
   1
 39
0.000000
 70
    0
  0
VERTEX
  8
0
 10
3278.93319336
 20
-2339.95672131
  0
VERTEX
  8
0
 10
3448.26652669
 20
-2339.95672131
  0
SEQEND
  0
POLYLINE
  8
Default_Layer
 66
   1
 39
0.000000
 70
    0
  0
VERTEX
  8
0
 10
3532.93319336
 20
-2255.29005464
  0
VERTEX
  8
0
 10
3575.26652669
 20
-2212.95672131
  0
VERTEX
  8
0
 10
3575.26652669
 20
-2466.95672131
  0
SEQEND
  0
POLYLINE
  8
Default_Layer
 66
   1
 39
0.000000
 70
    0
  0
VERTEX
  8
0
 10
3532.93319336
 20
-2466.95672131
  0
VERTEX
  8
0
 10
3617.59986003
 20
-2466.95672131
  0
SEQEND
  0
POLYLINE
  8
Default_Layer
 66
   1
 39
0.000000
 70
    0
  0
VERTEX
  8
0
 10
3702.26652669
 20
-2339.95672131
  0
VERTEX
  8
0
 10
3871.59986003
 20
-2339.95672131
  0
SEQEND
  0
POLYLINE
  8
Default_Layer
 66
   1
 39
0.000000
 70
    0
  0
VERTEX
  8
0
 10
3956.26652669
 20
-2255.29005464
  0
VERTEX
  8
0
 10
3998.59986003
 20
-2212.95672131
  0
VERTEX
  8
0
 10
4083.26652669
 20
-2212.95672131
  0
VERTEX
  8
0
 10
4125.59986003
 20
-2255.29005464
  0
VERTEX
  8
0
 10
4125.59986003
 20
-2297.62338798
  0
VERTEX
  8
0
 10
4083.26652669
 20
-2339.95672131
  0
VERTEX
  8
0
 10
3998.59986003
 20
-2339.95672131
  0
VERTEX
  8
0
 10
3956.26652669
 20
-2382.29005464
  0
VERTEX
  8
0
 10
3956.26652669
 20
-2466.95672131
  0
VERTEX
  8
0
 10
4125.59986003
 20
-2466.95672131
  0
SEQEND
  0
POLYLINE
  8
Default_Layer
 66
   1
 39
0.000000
 70
    0
  0
VERTEX
  8
0
 10
4464.26652669
 20
-2424.62338798
  0
VERTEX
  8
0
 10
4506.59986003
 20
-2466.95672131
  0
VERTEX
  8
0
 10
4591.26652669
 20
-2466.95672131
  0
VERTEX
  8
0
 10
4633.59986003
 20
-2424.62338798
  0
VERTEX
  8
0
 10
4464.26652669
 20
-2255.29005464
  0
VERTEX
  8
0
 10
4506.59986003
 20
-2212.95672131
  0
VERTEX
  8
0
 10
4591.26652669
 20
-2212.95672131
  0
VERTEX
  8
0
 10
4633.59986003
 20
-2255.29005464
  0
SEQEND
  0
POLYLINE
  8
Default_Layer
 66
   1
 39
0.000000
 70
    0
  0
VERTEX
  8
0
 10
4718.26652669
 20
-2212.95672131
  0
VERTEX
  8
0
 10
4718.26652669
 20
-2466.95672131
  0
VERTEX
  8
0
 10
4887.59986003
 20
-2466.95672131
  0
SEQEND
  0
POLYLINE
  8
Default_Layer
 66
   1
 39
0.000000
 70
    0
  0
VERTEX
  8
0
 10
4972.26652669
 20
-2466.95672131
  0
VERTEX
  8
0
 10
5099.26652669
 20
-2466.95672131
  0
VERTEX
  8
0
 10
5141.59986003
 20
-2424.62338798
  0
VERTEX
  8
0
 10
5141.59986003
 20
-2255.29005464
  0
VERTEX
  8
0
 10
5099.26652669
 20
-2212.95672131
  0
VERTEX
  8
0
 10
4972.26652669
 20
-2212.95672131
  0
SEQEND
  0
POLYLINE
  8
Default_Layer
 66
   1
 39
0.000000
 70
    0
  0
VERTEX
  8
0
 10
5014.59986003
 20
-2212.95672131
  0
VERTEX
  8
0
 10
5014.59986003
 20
-2466.95672131
  0
SEQEND
  0
POLYLINE
  8
Default_Layer
 66
   1
 39
0.000000
 70
    0
  0
VERTEX
  8
0
 10
5480.26652669
 20
-2466.95672131
  0
VERTEX
  8
0
 10
5480.26652669
 20
-2212.95672131
  0
VERTEX
  8
0
 10
5564.93319336
 20
-2382.29005464
  0
VERTEX
  8
0
 10
5649.59986003
 20
-2212.95672131
  0
VERTEX
  8
0
 10
5649.59986003
 20
-2466.95672131
  0
SEQEND
  0
POLYLINE
  8
Default_Layer
 66
   1
 39
0.000000
 70
    1
  0
VERTEX
  8
0
 10
5734.26652669
 20
-2466.95672131
  0
VERTEX
  8
0
 10
5734.26652669
 20
-2212.95672131
  0
VERTEX
  8
0
 10
5903.59986003
 20
-2212.95672131
  0
VERTEX
  8
0
 10
5903.59986003
 20
-2466.95672131
  0
VERTEX
  8
0
 10
5734.26652669
 20
-2466.95672131
  0
SEQEND
  0
POLYLINE
  8
Default_Layer
 66
   1
 39
0.000000
 70
    0
  0
VERTEX
  8
0
 10
5988.26652669
 20
-2466.95672131
  0
VERTEX
  8
0
 10
6115.26652669
 20
-2466.95672131
  0
VERTEX
  8
0
 10
6157.59986003
 20
-2424.62338798
  0
VERTEX
  8
0
 10
6157.59986003
 20
-2255.29005464
  0
VERTEX
  8
0
 10
6115.26652669
 20
-2212.95672131
  0
VERTEX
  8
0
 10
5988.26652669
 20
-2212.95672131
  0
SEQEND
  0
POLYLINE
  8
Default_Layer
 66
   1
 39
0.000000
 70
    0
  0
VERTEX
  8
0
 10
6030.59986003
 20
-2212.95672131
  0
VERTEX
  8
0
 10
6030.59986003
 20
-2466.95672131
  0
SEQEND
  0
POLYLINE
  8
Default_Layer
 66
   1
 39
0.000000
 70
    0
  0
VERTEX
  8
0
 10
6242.26652669
 20
-2466.95672131
  0
VERTEX
  8
0
 10
6242.26652669
 20
-2212.95672131
  0
VERTEX
  8
0
 10
6411.59986003
 20
-2212.95672131
  0
SEQEND
  0
POLYLINE
  8
Default_Layer
 66
   1
 39
0.000000
 70
    0
  0
VERTEX
  8
0
 10
6242.26652669
 20
-2339.95672131
  0
VERTEX
  8
0
 10
6326.93319336
 20
-2339.95672131
  0
SEQEND
  0
POLYLINE
  8
Default_Layer
 66
   1
 39
0.000000
 70
    0
  0
VERTEX
  8
0
 10
6242.26652669
 20
-2466.95672131
  0
VERTEX
  8
0
 10
6411.59986003
 20
-2466.95672131
  0
SEQEND
  0
POLYLINE
  8
Default_Layer
 66
   1
 39
0.000000
 70
    0
  0
VERTEX
  8
0
 10
6496.26652669
 20
-2212.95672131
  0
VERTEX
  8
0
 10
6496.26652669
 20
-2466.95672131
  0
VERTEX
  8
0
 10
6665.59986003
 20
-2466.95672131
  0
SEQEND
  0
POLYLINE
  8
Default_Layer
 66
   1
 39
0.000000
 70
    0
  0
VERTEX
  8
0
 10
6750.26652669
 20
-2424.62338798
  0
VERTEX
  8
0
 10
6792.59986003
 20
-2466.95672131
  0
VERTEX
  8
0
 10
6877.26652669
 20
-2466.95672131
  0
VERTEX
  8
0
 10
6919.59986003
 20
-2424.62338798
  0
VERTEX
  8
0
 10
6750.26652669
 20
-2255.29005464
  0
VERTEX
  8
0
 10
6792.59986003
 20
-2212.95672131
  0
VERTEX
  8
0
 10
6877.26652669
 20
-2212.95672131
  0
VERTEX
  8
0
 10
6919.59986003
 20
-2255.29005464
  0
SEQEND
  0
ENDSEC
  0
EOF
