  0
SECTION
  2
HEADER
  9
$ACADVER
  1
AC1009
  9
$EXTMIN
 10
98.48843115
 20
400.00000000
 30
0.0
  9
$EXTMAX
 10
6048.00000000
 20
6621.75000000
 30
0.0
  0
ENDSEC
  0
SECTION
  2
TABLES
  0
TABLE
  2
LAYER
 70
1
 0
LAYER
 2
Default Layer
 70
0
 62
1
 6
CONTINUOUS
 0
ENDTAB
 0
ENDSEC
  0
SECTION
  2
ENTITIES
  0
POLYLINE
  8
Default Layer
 66
   1
 39
0.000000
 70
    1
  0
VERTEX
  8
0
 10
1871.03916515
 20
1998.25264994
  0
VERTEX
  8
0
 10
1962.22176739
 20
1997.63871227
  0
VERTEX
  8
0
 10
2104.48957764
 20
2160.53073716
 42
-0.00510000
  0
VERTEX
  8
0
 10
2113.59290946
 20
2170.56113989
 42
-0.01040000
  0
VERTEX
  8
0
 10
2120.84689184
 20
2178.07428363
 42
-0.01670000
  0
VERTEX
  8
0
 10
2127.14369346
 20
2183.92776948
 42
-0.02490000
  0
VERTEX
  8
0
 10
2133.14726746
 20
2188.64576487
 42
-0.03580000
  0
VERTEX
  8
0
 10
2139.59209612
 20
2192.55083740
 42
-0.05980000
  0
VERTEX
  8
0
 10
2149.72796544
 20
2196.25659712
 42
-0.03000000
  0
VERTEX
  8
0
 10
2156.76091698
 20
2197.46672335
 42
-0.01910000
  0
VERTEX
  8
0
 10
2164.19266499
 20
2198.00440713
 42
-0.00840000
  0
VERTEX
  8
0
 10
2170.30856580
 20
2198.12076204
  0
VERTEX
  8
0
 10
2351.98228669
 20
2196.57076958
  0
VERTEX
  8
0
 10
2354.03820933
 20
2196.53584506
 42
-0.00530000
  0
VERTEX
  8
0
 10
2361.19320408
 20
2196.36939159
 42
-0.01720000
  0
VERTEX
  8
0
 10
2367.11411348
 20
2195.96786455
 42
-0.03160000
  0
VERTEX
  8
0
 10
2372.70020986
 20
2195.03701360
 42
-0.07240000
  0
VERTEX
  8
0
 10
2381.77198598
 20
2191.46189342
 42
-0.03470000
  0
VERTEX
  8
0
 10
2386.95430169
 20
2187.99380909
 42
-0.02450000
  0
VERTEX
  8
0
 10
2392.15573616
 20
2183.54500907
 42
-0.01760000
  0
VERTEX
  8
0
 10
2398.04464474
 20
2177.58527700
 42
-0.01240000
  0
VERTEX
  8
0
 10
2405.12973192
 20
2169.50569826
 42
-0.00250000
  0
VERTEX
  8
0
 10
2407.17811516
 20
2167.03777160
  0
VERTEX
  8
0
 10
2576.25932602
 20
1974.83167169
  0
VERTEX
  8
0
 10
2688.31142128
 20
1973.97051924
  0
VERTEX
  8
0
 10
2689.51083623
 20
2019.39507030
  0
VERTEX
  8
0
 10
2674.83514572
 20
2754.67793132
 42
0.01010000
  0
VERTEX
  8
0
 10
2674.59643148
 20
2772.42206770
 42
0.01430000
  0
VERTEX
  8
0
 10
2673.59830754
 20
2788.46409132
 42
0.01860000
  0
VERTEX
  8
0
 10
2671.74905477
 20
2802.84440760
 42
0.02350000
  0
VERTEX
  8
0
 10
2668.87334185
 20
2816.21075525
 42
0.03170000
  0
VERTEX
  8
0
 10
2664.17086303
 20
2830.29263041
 42
0.05380000
  0
VERTEX
  8
0
 10
2653.34072828
 20
2850.37497714
 42
0.02860000
  0
VERTEX
  8
0
 10
2644.73774956
 20
2861.47192457
 42
0.02180000
  0
VERTEX
  8
0
 10
2635.27766055
 20
2871.42173866
 42
0.01630000
  0
VERTEX
  8
0
 10
2624.65455599
 20
2881.01850156
 42
0.01170000
  0
VERTEX
  8
0
 10
2612.39102667
 20
2890.91178025
 42
0.00760000
  0
VERTEX
  8
0
 10
2598.17397244
 20
2901.50567195
 42
0.00370000
  0
VERTEX
  8
0
 10
2581.50667667
 20
2913.35259187
  0
VERTEX
  8
0
 10
2571.19218511
 20
2920.56767806
  0
VERTEX
  8
0
 10
2568.81178857
 20
2922.23128779
  0
VERTEX
  8
0
 10
2569.11510105
 20
2939.69715928
 42
0.08960000
  0
VERTEX
  8
0
 10
2567.06714023
 20
2951.82436446
 42
0.06380000
  0
VERTEX
  8
0
 10
2562.78055291
 20
2960.12891802
 42
0.05030000
  0
VERTEX
  8
0
 10
2557.10410193
 20
2966.80916773
 42
0.04440000
  0
VERTEX
  8
0
 10
2549.74262538
 20
2972.73129422
 42
0.04490000
  0
VERTEX
  8
0
 10
2539.64299463
 20
2978.23726994
 42
0.05510000
  0
VERTEX
  8
0
 10
2525.26775459
 20
2982.70946855
 42
0.03670000
  0
VERTEX
  8
0
 10
2517.07643872
 20
2983.68745933
 42
0.01080000
  0
VERTEX
  8
0
 10
2515.12144135
 20
2983.72754602
  0
VERTEX
  8
0
 10
2009.35164676
 20
2990.18010000
 42
0.09570000
  0
VERTEX
  8
0
 10
2007.64559281
 20
2989.48071873
 42
0.06010000
  0
VERTEX
  8
0
 10
2006.03489107
 20
2988.13170265
 42
0.04260000
  0
VERTEX
  8
0
 10
2004.20008156
 20
2985.81282763
 42
0.02900000
  0
VERTEX
  8
0
 10
2002.13747801
 20
2982.27689170
 42
0.02060000
  0
VERTEX
  8
0
 10
1999.66621985
 20
2976.88404094
 42
0.00247197
  0
VERTEX
  8
0
 10
1979.30374125
 20
2944.81336435
 42
-0.02470000
  0
VERTEX
  8
0
 10
1977.06745148
 20
2940.34115457
 42
-0.03920000
  0
VERTEX
  8
0
 10
1974.56812269
 20
2936.61376757
 42
-0.06140000
  0
VERTEX
  8
0
 10
1971.16720406
 20
2933.25610197
 42
-0.07520000
  0
VERTEX
  8
0
 10
1966.38298941
 20
2930.64820872
 42
-0.04470000
  0
VERTEX
  8
0
 10
1962.05532556
 20
2929.50250607
 42
-0.02900000
  0
VERTEX
  8
0
 10
1957.20707770
 20
2928.95870966
 42
-0.01560000
  0
VERTEX
  8
0
 10
1951.55649002
 20
2928.82847347
 42
-0.00310000
  0
VERTEX
  8
0
 10
1948.50145949
 20
2928.86086077
  0
VERTEX
  8
0
 10
853.48091209
 20
2915.21155896
 42
0.06480000
  0
VERTEX
  8
0
 10
849.75741978
 20
2913.48831260
 42
0.04890000
  0
VERTEX
  8
0
 10
846.24548646
 20
2910.76080550
 42
0.03900000
  0
VERTEX
  8
0
 10
842.67289595
 20
2906.80985345
 42
0.03190000
  0
VERTEX
  8
0
 10
839.00120641
 20
2901.37394572
 42
0.02830000
  0
VERTEX
  8
0
 10
835.13513927
 20
2893.83792577
 42
0.03520000
  0
VERTEX
  8
0
 10
830.53088965
 20
2881.14903795
 42
0.01170000
  0
VERTEX
  8
0
 10
826.58751758
 20
2864.74851874
 42
0.00960000
  0
VERTEX
  8
0
 10
822.52670892
 20
2844.01729039
 42
0.00770000
  0
VERTEX
  8
0
 10
818.43671870
 20
2818.48312125
 42
0.00620000
  0
VERTEX
  8
0
 10
814.26300958
 20
2786.80115466
 42
0.00460000
  0
VERTEX
  8
0
 10
810.11940853
 20
2749.09689631
 42
0.00300000
  0
VERTEX
  8
0
 10
806.02931554
 20
2705.80602093
 42
0.00140000
  0
VERTEX
  8
0
 10
801.97427678
 20
2658.44413731
  0
VERTEX
  8
0
 10
800.90858990
 20
2645.63928826
  0
VERTEX
  8
0
 10
797.02508618
 20
2599.62341334
 42
-0.00260000
  0
VERTEX
  8
0
 10
793.26684312
 20
2558.52138291
 42
-0.00430000
  0
VERTEX
  8
0
 10
789.64025805
 20
2524.08674572
 42
-0.00550000
  0
VERTEX
  8
0
 10
786.34953341
 20
2497.79945097
  0
VERTEX
  8
0
 10
780.21830860
 20
2446.76299324
  0
VERTEX
  8
0
 10
772.15769800
 20
2379.45897546
 42
0.00200000
  0
VERTEX
  8
0
 10
763.73657389
 20
2305.76378245
 42
0.00350000
  0
VERTEX
  8
0
 10
755.22221360
 20
2223.20001151
 42
0.00520000
  0
VERTEX
  8
0
 10
746.62398027
 20
2122.69374405
 42
0.00890000
  0
VERTEX
  8
0
 10
737.93501081
 20
1970.66004516
 42
0.00920000
  0
VERTEX
  8
0
 10
734.63947329
 20
1812.28850935
 42
0.00240000
  0
VERTEX
  8
0
 10
734.72684117
 20
1769.80986442
  0
VERTEX
  8
0
 10
1626.48689454
 20
1769.40306942
 42
0.00270000
  0
VERTEX
  8
0
 10
1653.86734757
 20
1770.18904392
 42
0.00520000
  0
VERTEX
  8
0
 10
1673.69599389
 20
1771.06993568
 42
0.00850000
  0
VERTEX
  8
0
 10
1689.57659315
 20
1772.20556332
 42
0.01230000
  0
VERTEX
  8
0
 10
1702.32634535
 20
1773.64889700
 42
0.01690000
  0
VERTEX
  8
0
 10
1713.00280471
 20
1775.49200762
 42
0.02340000
  0
VERTEX
  8
0
 10
1722.79839790
 20
1778.00734740
 42
0.03520000
  0
VERTEX
  8
0
 10
1733.47308267
 20
1782.12947415
 42
0.03760000
  0
VERTEX
  8
0
 10
1743.86053172
 20
1788.03886016
 42
0.02240000
  0
VERTEX
  8
0
 10
1751.49208185
 20
1793.68920965
 42
0.01460000
  0
VERTEX
  8
0
 10
1759.09984051
 20
1800.24418170
 42
0.00820000
  0
VERTEX
  8
0
 10
1767.53420025
 20
1808.20439396
 42
0.00280000
  0
VERTEX
  8
0
 10
1778.01254690
 20
1818.53243933
  0
VERTEX
  8
0
 10
1779.00057495
 20
1819.51353223
 42
0.00830000
  0
VERTEX
  8
0
 10
1788.12344908
 20
1829.85682367
 42
0.01470000
  0
VERTEX
  8
0
 10
1796.88545673
 20
1840.76230274
 42
0.02310000
  0
VERTEX
  8
0
 10
1805.99898995
 20
1854.04727919
 42
0.04140000
  0
VERTEX
  8
0
 10
1817.78383669
 20
1877.19297833
 42
0.02460000
  0
VERTEX
  8
0
 10
1823.71015508
 20
1894.01496892
 42
0.01960000
  0
VERTEX
  8
0
 10
1828.07030639
 20
1911.06206041
 42
0.01630000
  0
VERTEX
  8
0
 10
1831.42875566
 20
1929.63040148
 42
0.01370000
  0
VERTEX
  8
0
 10
1833.93131940
 20
1950.53396095
 42
0.01010000
  0
VERTEX
  8
0
 10
1835.41259640
 20
1971.10124529
 42
0.01340000
  0
VERTEX
  8
0
 10
1836.24765573
 20
1975.74632656
  0
VERTEX
  8
0
 10
1836.38458861
 20
1976.61084804
 42
-0.00920000
  0
VERTEX
  8
0
 10
1837.10917551
 20
1980.88094418
 42
-0.02870000
  0
VERTEX
  8
0
 10
1838.08009774
 20
1984.79018450
 42
-0.04990000
  0
VERTEX
  8
0
 10
1839.59776318
 20
1988.37511742
 42
-0.11500000
  0
VERTEX
  8
0
 10
1844.09321693
 20
1993.37333516
 42
-0.05370000
  0
VERTEX
  8
0
 10
1847.72897657
 20
1995.36699156
 42
-0.03990000
  0
VERTEX
  8
0
 10
1852.13857471
 20
1996.80366847
 42
-0.03040000
  0
VERTEX
  8
0
 10
1857.68229648
 20
1997.78476918
 42
-0.02340000
  0
VERTEX
  8
0
 10
1864.78888997
 20
1998.27117042
 42
-0.01330000
  0
VERTEX
  8
0
 10
1871.03916515
 20
1998.25264994
  0
SEQEND
  0
POLYLINE
  8
Default Layer
 66
   1
 39
0.000000
 70
    1
  0
VERTEX
  8
0
 10
2762.74100000
 20
1393.66093000
  0
VERTEX
  8
0
 10
2761.87800000
 20
1439.09293000
  0
VERTEX
  8
0
 10
2666.31500000
 20
1439.06693000
  0
VERTEX
  8
0
 10
2573.98400000
 20
1249.68603000
 42
-0.04610000
  0
VERTEX
  8
0
 10
2566.77800000
 20
1238.61173000
 42
-0.09080000
  0
VERTEX
  8
0
 10
2548.87600000
 20
1222.91463000
 42
-0.04720000
  0
VERTEX
  8
0
 10
2536.45900000
 20
1217.00763000
 42
-0.03910000
  0
VERTEX
  8
0
 10
2523.66500000
 20
1213.44553000
 42
-0.03580000
  0
VERTEX
  8
0
 10
2509.44500000
 20
1211.70413000
 42
-0.01040000
  0
VERTEX
  8
0
 10
2504.88500000
 20
1211.56223000
 42
-0.00200000
  0
VERTEX
  8
0
 10
2227.29600000
 20
1210.96653000
 42
-0.00370000
  0
VERTEX
  8
0
 10
2217.43400000
 20
1211.12383000
 42
-0.01250000
  0
VERTEX
  8
0
 10
2206.72400000
 20
1211.64293000
 42
-0.02140000
  0
VERTEX
  8
0
 10
2195.22300000
 20
1212.98703000
 42
-0.03130000
  0
VERTEX
  8
0
 10
2182.67600000
 20
1215.81873000
 42
-0.04990000
  0
VERTEX
  8
0
 10
2166.42000000
 20
1222.39853000
 42
-0.04760000
  0
VERTEX
  8
0
 10
2152.28900000
 20
1231.68793000
 42
-0.03510000
  0
VERTEX
  8
0
 10
2141.77800000
 20
1241.42033000
 42
-0.00860000
  0
VERTEX
  8
0
 10
2139.13500000
 20
1244.32483000
  0
VERTEX
  8
0
 10
2035.63200000
 20
1420.80993000
  0
VERTEX
  8
0
 10
1578.57700000
 20
1420.61993000
 42
0.02830000
  0
VERTEX
  8
0
 10
1596.64000000
 20
1153.35783000
 42
0.01210000
  0
VERTEX
  8
0
 10
1597.16900000
 20
1149.85513000
 42
0.03320000
  0
VERTEX
  8
0
 10
1597.76700000
 20
1147.39363000
 42
0.05870000
  0
VERTEX
  8
0
 10
1598.49700000
 20
1145.75963000
 42
0.10210000
  0
VERTEX
  8
0
 10
1599.56000000
 20
1144.59443000
 42
0.11080000
  0
VERTEX
  8
0
 10
1601.07100000
 20
1143.98643000
 42
0.04650000
  0
VERTEX
  8
0
 10
1602.40700000
 20
1143.88653000
  0
VERTEX
  8
0
 10
1757.19700000
 20
1143.91203000
 42
-0.05060000
  0
VERTEX
  8
0
 10
1761.10500000
 20
1143.54273000
 42
-0.06910000
  0
VERTEX
  8
0
 10
1764.56700000
 20
1142.34593000
 42
-0.13120000
  0
VERTEX
  8
0
 10
1768.74900000
 20
1138.55703000
 42
-0.06540000
  0
VERTEX
  8
0
 10
1770.32700000
 20
1135.22223000
 42
-0.04850000
  0
VERTEX
  8
0
 10
1771.19500000
 20
1131.24413000
 42
-0.03510000
  0
VERTEX
  8
0
 10
1771.42100000
 20
1126.68453000
  0
VERTEX
  8
0
 10
1770.79500000
 20
1059.83003000
 42
-0.02880000
  0
VERTEX
  8
0
 10
1769.99000000
 20
1053.27073000
 42
-0.03560000
  0
VERTEX
  8
0
 10
1768.68200000
 20
1048.15633000
 42
-0.04520000
  0
VERTEX
  8
0
 10
1766.92300000
 20
1044.12173000
 42
-0.05950000
  0
VERTEX
  8
0
 10
1764.62200000
 20
1040.89613000
 42
-0.08670000
  0
VERTEX
  8
0
 10
1761.19900000
 20
1038.24393000
 42
-0.09670000
  0
VERTEX
  8
0
 10
1756.66000000
 20
1036.91283000
 42
-0.02490000
  0
VERTEX
  8
0
 10
1755.21300000
 20
1036.84283000
  0
VERTEX
  8
0
 10
1643.20700000
 20
1036.85453000
  0
VERTEX
  8
0
 10
1643.20100000
 20
1029.01463000
  0
VERTEX
  8
0
 10
1681.24100000
 20
961.27473000
  0
VERTEX
  8
0
 10
1687.99000000
 20
498.60323000
 42
-0.02320000
  0
VERTEX
  8
0
 10
1693.69000000
 20
499.59783000
 42
-0.01810000
  0
VERTEX
  8
0
 10
1701.99700000
 20
500.35483000
 42
-0.01560000
  0
VERTEX
  8
0
 10
1713.98800000
 20
500.64213000
 42
-0.02200000
  0
VERTEX
  8
0
 10
1736.23700000
 20
499.53203000
 42
-0.00510000
  0
VERTEX
  8
0
 10
1740.17600000
 20
499.11503000
 42
-0.07730000
  0
VERTEX
  8
0
 10
1742.85400000
 20
498.00273000
 42
-0.05450000
  0
VERTEX
  8
0
 10
1745.33500000
 20
496.09053000
 42
-0.04070000
  0
VERTEX
  8
0
 10
1747.92500000
 20
493.16563000
 42
-0.03020000
  0
VERTEX
  8
0
 10
1750.68400000
 20
488.98883000
 42
-0.02280000
  0
VERTEX
  8
0
 10
1753.72500000
 20
483.12033000
 42
-0.01680000
  0
VERTEX
  8
0
 10
1757.08100000
 20
475.16721000
 42
-0.01170000
  0
VERTEX
  8
0
 10
1760.79200000
 20
464.76064000
 42
-0.00670000
  0
VERTEX
  8
0
 10
1764.84800000
 20
451.91791000
 42
-0.00130000
  0
VERTEX
  8
0
 10
1767.58500000
 20
442.78227000
 42
0.00300000
  0
VERTEX
  8
0
 10
1771.42800000
 20
430.05510000
 42
0.00860000
  0
VERTEX
  8
0
 10
1774.74500000
 20
419.91375000
 42
0.01460000
  0
VERTEX
  8
0
 10
1777.55800000
 20
412.48682000
 42
0.02160000
  0
VERTEX
  8
0
 10
1779.92600000
 20
407.37630000
 42
0.03110000
  0
VERTEX
  8
0
 10
1781.95500000
 20
403.97598000
 42
0.04410000
  0
VERTEX
  8
0
 10
1783.70900000
 20
401.83923000
 42
0.06460000
  0
VERTEX
  8
0
 10
1785.32200000
 20
400.56500000
 42
0.08410000
  0
VERTEX
  8
0
 10
1786.78200000
 20
400.00000000
  0
VERTEX
  8
0
 10
2098.71900000
 20
400.25996000
  0
VERTEX
  8
0
 10
2580.99300000
 20
402.17646000
 42
0.03670000
  0
VERTEX
  8
0
 10
2588.52600000
 20
402.69521000
 42
0.04300000
  0
VERTEX
  8
0
 10
2599.56500000
 20
405.24736000
 42
0.05050000
  0
VERTEX
  8
0
 10
2612.07400000
 20
410.70154000
 42
0.04350000
  0
VERTEX
  8
0
 10
2620.36000000
 20
416.35669000
 42
0.04770000
  0
VERTEX
  8
0
 10
2626.75500000
 20
422.69681000
 42
0.05740000
  0
VERTEX
  8
0
 10
2631.65400000
 20
430.18010000
 42
0.11590000
  0
VERTEX
  8
0
 10
2635.31100000
 20
445.57289000
  0
VERTEX
  8
0
 10
2635.31200000
 20
445.80518000
  0
VERTEX
  8
0
 10
2635.34900000
 20
491.74453000
  0
VERTEX
  8
0
 10
2637.74200000
 20
493.39033000
 42
0.00180000
  0
VERTEX
  8
0
 10
2656.39300000
 20
506.27813000
 42
0.00560000
  0
VERTEX
  8
0
 10
2672.12400000
 20
517.49473000
 42
0.00940000
  0
VERTEX
  8
0
 10
2685.24000000
 20
527.45343000
 42
0.01350000
  0
VERTEX
  8
0
 10
2696.52600000
 20
536.86463000
 42
0.01810000
  0
VERTEX
  8
0
 10
2706.41500000
 20
546.22923000
 42
0.02390000
  0
VERTEX
  8
0
 10
2715.36400000
 20
556.25393000
 42
0.03350000
  0
VERTEX
  8
0
 10
2724.15600000
 20
568.73173000
 42
0.04820000
  0
VERTEX
  8
0
 10
2733.05300000
 20
587.21483000
 42
0.02880000
  0
VERTEX
  8
0
 10
2737.17800000
 20
600.82063000
 42
0.02210000
  0
VERTEX
  8
0
 10
2739.84900000
 20
614.51793000
 42
0.01700000
  0
VERTEX
  8
0
 10
2741.52200000
 20
629.08493000
 42
0.01290000
  0
VERTEX
  8
0
 10
2742.40600000
 20
645.24793000
 42
0.00710000
  0
VERTEX
  8
0
 10
2742.61200000
 20
658.50703000
  0
VERTEX
  8
0
 10
2762.74100000
 20
1393.66093000
  0
SEQEND
  0
POLYLINE
  8
Default Layer
 66
   1
 39
0.000000
 70
    1
  0
VERTEX
  8
0
 10
3087.50400000
 20
3310.22500000
 42
-0.17100000
  0
VERTEX
  8
0
 10
3083.69200000
 20
3291.20400000
 42
-0.17980000
  0
VERTEX
  8
0
 10
3073.85700000
 20
3286.77600000
 42
-0.07180000
  0
VERTEX
  8
0
 10
3048.46000000
 20
3284.52200000
  0
VERTEX
  8
0
 10
2919.99200000
 20
3284.66700000
  0
VERTEX
  8
0
 10
2918.09700000
 20
3284.70500000
 42
0.00270000
  0
VERTEX
  8
0
 10
2904.92400000
 20
3284.92600000
 42
0.00870000
  0
VERTEX
  8
0
 10
2895.96700000
 20
3284.87600000
 42
0.01660000
  0
VERTEX
  8
0
 10
2888.80200000
 20
3284.47600000
 42
0.02810000
  0
VERTEX
  8
0
 10
2882.00000000
 20
3283.48400000
 42
0.04450000
  0
VERTEX
  8
0
 10
2873.30800000
 20
3280.85300000
 42
0.02220000
  0
VERTEX
  8
0
 10
2867.16300000
 20
3278.05300000
 42
0.01290000
  0
VERTEX
  8
0
 10
2860.28900000
 20
3274.32100000
  0
VERTEX
  8
0
 10
2858.56400000
 20
3273.32500000
 42
0.00540000
  0
VERTEX
  8
0
 10
2848.47300000
 20
3267.22000000
  0
VERTEX
  8
0
 10
2842.02000000
 20
3263.22300000
 42
-0.00270000
  0
VERTEX
  8
0
 10
2828.56100000
 20
3254.93600000
 42
-0.00740000
  0
VERTEX
  8
0
 10
2816.77600000
 20
3248.00100000
 42
-0.01190000
  0
VERTEX
  8
0
 10
2807.58400000
 20
3243.05300000
 42
-0.01700000
  0
VERTEX
  8
0
 10
2800.82200000
 20
3239.89700000
 42
-0.02360000
  0
VERTEX
  8
0
 10
2795.97600000
 20
3238.09400000
 42
-0.03340000
  0
VERTEX
  8
0
 10
2792.51100000
 20
3237.23200000
 42
-0.04140000
  0
VERTEX
  8
0
 10
2790.29100000
 20
3237.02400000
  0
VERTEX
  8
0
 10
2466.03900000
 20
3236.18100000
 42
-0.02980000
  0
VERTEX
  8
0
 10
2460.89700000
 20
3236.30100000
 42
-0.04220000
  0
VERTEX
  8
0
 10
2456.58000000
 20
3237.02800000
 42
-0.06260000
  0
VERTEX
  8
0
 10
2452.46600000
 20
3238.65200000
 42
-0.08090000
  0
VERTEX
  8
0
 10
2448.38600000
 20
3241.88300000
 42
-0.04590000
  0
VERTEX
  8
0
 10
2445.90200000
 20
3245.16900000
 42
-0.02930000
  0
VERTEX
  8
0
 10
2443.74500000
 20
3249.14600000
 42
-0.01600000
  0
VERTEX
  8
0
 10
2441.59400000
 20
3254.13800000
 42
-0.00390000
  0
VERTEX
  8
0
 10
2439.90400000
 20
3258.49700000
  0
VERTEX
  8
0
 10
2423.35900000
 20
3307.05200000
 42
-0.03320000
  0
VERTEX
  8
0
 10
2422.43900000
 20
3311.16700000
 42
-0.02090000
  0
VERTEX
  8
0
 10
2421.85200000
 20
3316.36300000
 42
-0.01210000
  0
VERTEX
  8
0
 10
2421.51300000
 20
3323.53200000
 42
-0.00290000
  0
VERTEX
  8
0
 10
2421.44000000
 20
3327.07700000
  0
VERTEX
  8
0
 10
2414.04100000
 20
3613.47300000
 42
-0.01180000
  0
VERTEX
  8
0
 10
2414.42400000
 20
3633.70500000
 42
-0.01460000
  0
VERTEX
  8
0
 10
2415.68700000
 20
3651.30900000
 42
-0.01820000
  0
VERTEX
  8
0
 10
2417.88400000
 20
3667.24800000
 42
-0.02190000
  0
VERTEX
  8
0
 10
2421.01600000
 20
3681.45600000
 42
-0.02660000
  0
VERTEX
  8
0
 10
2425.23000000
 20
3694.43900000
 42
-0.03230000
  0
VERTEX
  8
0
 10
2430.73200000
 20
3706.38600000
 42
-0.04050000
  0
VERTEX
  8
0
 10
2438.22000000
 20
3717.88500000
 42
-0.08500000
  0
VERTEX
  8
0
 10
2457.16900000
 20
3735.27200000
 42
-0.04050000
  0
VERTEX
  8
0
 10
2469.29200000
 20
3741.76100000
 42
-0.03240000
  0
VERTEX
  8
0
 10
2481.68100000
 20
3746.22600000
 42
-0.02680000
  0
VERTEX
  8
0
 10
2494.90600000
 20
3749.28900000
 42
-0.02300000
  0
VERTEX
  8
0
 10
2509.62100000
 20
3751.18300000
 42
-0.01960000
  0
VERTEX
  8
0
 10
2526.01700000
 20
3751.88900000
 42
-0.00640000
  0
VERTEX
  8
0
 10
2532.46900000
 20
3751.84200000
  0
VERTEX
  8
0
 10
2967.65400000
 20
3744.00000000
 42
-0.04630000
  0
VERTEX
  8
0
 10
2998.61600000
 20
3739.14500000
 42
-0.03630000
  0
VERTEX
  8
0
 10
3020.10500000
 20
3732.00900000
 42
-0.03500000
  0
VERTEX
  8
0
 10
3037.55900000
 20
3723.29300000
 42
-0.03710000
  0
VERTEX
  8
0
 10
3052.48900000
 20
3712.91600000
 42
-0.04020000
  0
VERTEX
  8
0
 10
3064.97300000
 20
3701.00500000
 42
-0.04570000
  0
VERTEX
  8
0
 10
3075.34500000
 20
3686.99100000
 42
-0.06050000
  0
VERTEX
  8
0
 10
3084.04900000
 20
3667.75200000
 42
-0.06370000
  0
VERTEX
  8
0
 10
3087.89400000
 20
3645.99700000
 42
-0.01020000
  0
VERTEX
  8
0
 10
3088.00000000
 20
3642.25900000
  0
VERTEX
  8
0
 10
3087.50400000
 20
3310.22500000
  0
SEQEND
  0
POLYLINE
  8
Default Layer
 66
   1
 39
0.000000
 70
    1
  0
VERTEX
  8
0
 10
973.17982603
 20
721.49086168
 42
0.15210000
  0
VERTEX
  8
0
 10
975.62382603
 20
701.13686168
 42
-0.17150000
  0
VERTEX
  8
0
 10
971.98082603
 20
638.69686168
 42
0.25050000
  0
VERTEX
  8
0
 10
972.16782603
 20
623.96786168
  0
VERTEX
  8
0
 10
975.47682603
 20
617.09586168
 42
0.24370000
  0
VERTEX
  8
0
 10
983.71982603
 20
610.35286168
  0
VERTEX
  8
0
 10
1557.31882603
 20
610.58086168
 42
0.04670000
  0
VERTEX
  8
0
 10
1569.91082603
 20
611.91586168
 42
0.07830000
  0
VERTEX
  8
0
 10
1591.39682603
 20
619.87286168
 42
0.05480000
  0
VERTEX
  8
0
 10
1605.26482603
 20
629.78586168
 42
0.04280000
  0
VERTEX
  8
0
 10
1615.45482603
 20
640.61086168
 42
0.03550000
  0
VERTEX
  8
0
 10
1623.50282603
 20
652.40686168
 42
0.03070000
  0
VERTEX
  8
0
 10
1630.08782603
 20
665.48786168
 42
0.02710000
  0
VERTEX
  8
0
 10
1635.45582603
 20
680.15686168
 42
0.02390000
  0
VERTEX
  8
0
 10
1639.61782603
 20
696.52986168
 42
0.02130000
  0
VERTEX
  8
0
 10
1642.54782603
 20
714.84286168
 42
0.01000000
  0
VERTEX
  8
0
 10
1643.53782603
 20
725.00286168
 42
-0.01590000
  0
VERTEX
  8
0
 10
1645.36682603
 20
785.52486168
 42
-0.01500000
  0
VERTEX
  8
0
 10
1651.11382603
 20
847.75186168
 42
-0.01130000
  0
VERTEX
  8
0
 10
1658.48382603
 20
898.36186168
 42
-0.00730000
  0
VERTEX
  8
0
 10
1659.17882603
 20
908.52386168
  0
VERTEX
  8
0
 10
1659.66582603
 20
914.39686168
 42
0.00380000
  0
VERTEX
  8
0
 10
1660.67382603
 20
927.15786168
 42
0.01100000
  0
VERTEX
  8
0
 10
1661.32682603
 20
940.44086168
 42
0.01720000
  0
VERTEX
  8
0
 10
1661.23382603
 20
953.22386168
 42
0.02270000
  0
VERTEX
  8
0
 10
1660.18682603
 20
965.21786168
 42
0.03000000
  0
VERTEX
  8
0
 10
1657.88382603
 20
977.04086168
 42
0.03670000
  0
VERTEX
  8
0
 10
1654.10682603
 20
988.21186168
 42
0.05160000
  0
VERTEX
  8
0
 10
1647.30182603
 20
1000.59486168
 42
0.06230000
  0
VERTEX
  8
0
 10
1636.24282603
 20
1012.89186168
 42
0.04110000
  0
VERTEX
  8
0
 10
1626.24682603
 20
1020.20386168
 42
0.03340000
  0
VERTEX
  8
0
 10
1615.51082603
 20
1025.82786168
 42
0.02810000
  0
VERTEX
  8
0
 10
1603.60882603
 20
1030.30286168
 42
0.02420000
  0
VERTEX
  8
0
 10
1590.13682603
 20
1033.81586168
 42
0.02090000
  0
VERTEX
  8
0
 10
1574.80382603
 20
1036.37186168
 42
0.01730000
  0
VERTEX
  8
0
 10
1558.18282603
 20
1037.85686168
 42
0.00800000
  0
VERTEX
  8
0
 10
1114.55882603
 20
1068.78886168
 42
0.01870000
  0
VERTEX
  8
0
 10
1100.24582603
 20
1069.13786168
 42
0.02320000
  0
VERTEX
  8
0
 10
1087.02182603
 20
1068.35186168
 42
0.02920000
  0
VERTEX
  8
0
 10
1074.19582603
 20
1066.22886168
 42
0.03710000
  0
VERTEX
  8
0
 10
1061.25082603
 20
1062.27286168
 42
0.06820000
  0
VERTEX
  8
0
 10
1042.02282603
 20
1051.58686168
 42
0.04050000
  0
VERTEX
  8
0
 10
1031.43682603
 20
1042.19086168
 42
0.03180000
  0
VERTEX
  8
0
 10
1022.93482603
 20
1032.10286168
 42
0.02610000
  0
VERTEX
  8
0
 10
1015.46982603
 20
1020.82586168
 42
0.02190000
  0
VERTEX
  8
0
 10
1008.61782603
 20
1007.94486168
 42
0.01230000
  0
VERTEX
  8
0
 10
1004.42182603
 20
998.59386168
 42
0.09600000
  0
VERTEX
  8
0
 10
999.51282603
 20
981.45786168
 42
-0.01230000
  0
VERTEX
  8
0
 10
999.47782603
 20
964.89786168
 42
-0.01550000
  0
VERTEX
  8
0
 10
998.65582603
 20
950.61386168
 42
-0.01870000
  0
VERTEX
  8
0
 10
997.15782603
 20
938.76486168
 42
-0.02280000
  0
VERTEX
  8
0
 10
995.08782603
 20
928.98486168
 42
-0.02760000
  0
VERTEX
  8
0
 10
992.56782603
 20
921.09586168
 42
-0.02130000
  0
VERTEX
  8
0
 10
990.70082603
 20
916.78786168
  0
VERTEX
  8
0
 10
973.17982603
 20
721.49086168
  0
SEQEND
  0
POLYLINE
  8
Default Layer
 66
   1
 39
0.000000
 70
    1
  0
VERTEX
  8
0
 10
3862.38030000
 20
2422.85310000
 42
-0.05750000
  0
VERTEX
  8
0
 10
3871.18730000
 20
2409.41110000
 42
-0.03970000
  0
VERTEX
  8
0
 10
3875.92230000
 20
2397.74310000
 42
-0.03280000
  0
VERTEX
  8
0
 10
3878.90130000
 20
2385.60910000
 42
-0.01810000
  0
VERTEX
  8
0
 10
3880.04830000
 20
2377.48610000
  0
VERTEX
  8
0
 10
3867.60630000
 20
1770.35010000
 42
-0.03420000
  0
VERTEX
  8
0
 10
3866.88530000
 20
1762.17210000
 42
-0.04430000
  0
VERTEX
  8
0
 10
3864.91330000
 20
1754.27710000
 42
-0.07110000
  0
VERTEX
  8
0
 10
3859.90930000
 20
1744.56210000
 42
-0.05340000
  0
VERTEX
  8
0
 10
3854.10630000
 20
1738.04910000
 42
-0.03860000
  0
VERTEX
  8
0
 10
3847.83130000
 20
1733.19210000
 42
-0.03010000
  0
VERTEX
  8
0
 10
3840.51530000
 20
1728.98910000
 42
-0.02330000
  0
VERTEX
  8
0
 10
3831.87930000
 20
1725.18610000
 42
-0.01760000
  0
VERTEX
  8
0
 10
3821.61030000
 20
1721.62910000
  0
VERTEX
  8
0
 10
3821.19030000
 20
1721.49910000
 42
-0.04340000
  0
VERTEX
  8
0
 10
3732.20830000
 20
1698.87910000
  0
VERTEX
  8
0
 10
3732.00230000
 20
1673.50710000
  0
VERTEX
  8
0
 10
3845.31930000
 20
1626.50710000
 42
0.07630000
  0
VERTEX
  8
0
 10
3864.34130000
 20
1625.17910000
  0
VERTEX
  8
0
 10
3863.94930000
 20
1567.12510000
  0
VERTEX
  8
0
 10
5088.00000000
 20
1566.18010000
  0
VERTEX
  8
0
 10
5088.12760000
 20
1624.23510000
 42
0.07630000
  0
VERTEX
  8
0
 10
5107.16080000
 20
1625.39310000
  0
VERTEX
  8
0
 10
5220.89440000
 20
1671.37510000
  0
VERTEX
  8
0
 10
5220.91570000
 20
1696.74810000
 42
-0.04340000
  0
VERTEX
  8
0
 10
5132.13980000
 20
1720.16510000
 42
-0.01740000
  0
VERTEX
  8
0
 10
5121.81270000
 20
1723.81610000
 42
-0.02340000
  0
VERTEX
  8
0
 10
5113.07070000
 20
1727.73110000
 42
-0.03000000
  0
VERTEX
  8
0
 10
5105.75540000
 20
1731.99410000
 42
-0.03810000
  0
VERTEX
  8
0
 10
5099.54860000
 20
1736.84810000
 42
-0.05300000
  0
VERTEX
  8
0
 10
5093.78140000
 20
1743.35710000
 42
-0.07240000
  0
VERTEX
  8
0
 10
5088.73740000
 20
1753.26010000
 42
-0.04430000
  0
VERTEX
  8
0
 10
5086.82610000
 20
1761.15210000
 42
-0.03460000
  0
VERTEX
  8
0
 10
5086.16320000
 20
1769.43010000
  0
VERTEX
  8
0
 10
5080.21120000
 20
2376.58810000
 42
-0.02290000
  0
VERTEX
  8
0
 10
5082.14290000
 20
2388.75210000
 42
-0.02730000
  0
VERTEX
  8
0
 10
5084.93640000
 20
2399.35110000
 42
-0.03340000
  0
VERTEX
  8
0
 10
5088.74980000
 20
2408.93010000
 42
-0.04290000
  0
VERTEX
  8
0
 10
5094.17280000
 20
2418.16010000
 42
-0.02650000
  0
VERTEX
  8
0
 10
5097.90440000
 20
2422.85310000
  0
VERTEX
  8
0
 10
3862.38030000
 20
2422.85310000
  0
SEQEND
  0
POLYLINE
  8
Default Layer
 66
   1
 39
0.000000
 70
    1
  0
VERTEX
  8
0
 10
4932.87430000
 20
1745.93510000
 42
-0.06350000
  0
VERTEX
  8
0
 10
4942.11130000
 20
1747.08710000
 42
-0.41421356
  0
VERTEX
  8
0
 10
4979.61130000
 20
1709.58710000
 42
-0.41421356
  0
VERTEX
  8
0
 10
4942.11130000
 20
1672.08710000
 42
-0.06320000
  0
VERTEX
  8
0
 10
4932.74330000
 20
1673.27610000
 42
-0.08510000
  0
VERTEX
  8
0
 10
4923.72630000
 20
1677.41410000
 42
-0.03010000
  0
VERTEX
  8
0
 10
4919.79630000
 20
1680.47410000
 42
-0.00820000
  0
VERTEX
  8
0
 10
4916.98430000
 20
1683.02610000
 42
0.01060000
  0
VERTEX
  8
0
 10
4914.08030000
 20
1685.64610000
 42
0.03220000
  0
VERTEX
  8
0
 10
4911.19330000
 20
1687.83510000
 42
0.06010000
  0
VERTEX
  8
0
 10
4907.64430000
 20
1689.61110000
 42
0.06190000
  0
VERTEX
  8
0
 10
4904.07930000
 20
1690.38510000
 42
-0.33560346
  0
VERTEX
  8
0
 10
4889.55231140
 20
1709.63937540
 42
-0.33560346
  0
VERTEX
  8
0
 10
4904.12630000
 20
1728.85810000
 42
0.10220000
  0
VERTEX
  8
0
 10
4909.85830000
 20
1730.59410000
 42
0.04240000
  0
VERTEX
  8
0
 10
4912.88930000
 20
1732.59610000
 42
0.01950000
  0
VERTEX
  8
0
 10
4915.73730000
 20
1735.03210000
 42
0.00190000
  0
VERTEX
  8
0
 10
4916.97830000
 20
1736.17410000
 42
-0.01070000
  0
VERTEX
  8
0
 10
4920.22230000
 20
1739.08910000
 42
-0.03300000
  0
VERTEX
  8
0
 10
4924.30830000
 20
1742.15810000
 42
-0.08030000
  0
VERTEX
  8
0
 10
4932.87430000
 20
1745.93510000
  0
SEQEND
  0
POLYLINE
  8
Default Layer
 66
   1
 39
0.000000
 70
    1
  0
VERTEX
  8
0
 10
4020.87830000
 20
1678.92810000
 42
-0.06350000
  0
VERTEX
  8
0
 10
4011.64230000
 20
1677.77610000
 42
-0.41421356
  0
VERTEX
  8
0
 10
3974.14230000
 20
1715.27610000
 42
-0.41421356
  0
VERTEX
  8
0
 10
4011.64230000
 20
1752.77610000
 42
-0.06320000
  0
VERTEX
  8
0
 10
4021.00930000
 20
1751.58710000
 42
-0.08510000
  0
VERTEX
  8
0
 10
4030.02630000
 20
1747.44910000
 42
-0.03010000
  0
VERTEX
  8
0
 10
4033.95730000
 20
1744.38910000
 42
-0.00820000
  0
VERTEX
  8
0
 10
4036.76830000
 20
1741.83710000
 42
0.01060000
  0
VERTEX
  8
0
 10
4039.67330000
 20
1739.21610000
 42
0.03220000
  0
VERTEX
  8
0
 10
4042.56030000
 20
1737.02810000
 42
0.06010000
  0
VERTEX
  8
0
 10
4046.10930000
 20
1735.25210000
 42
0.06190000
  0
VERTEX
  8
0
 10
4049.67430000
 20
1734.47710000
 42
-0.33560346
  0
VERTEX
  8
0
 10
4064.20041040
 20
1715.22294640
 42
-0.33560346
  0
VERTEX
  8
0
 10
4049.62630000
 20
1696.00510000
 42
0.10220000
  0
VERTEX
  8
0
 10
4043.89430000
 20
1694.26910000
 42
0.04240000
  0
VERTEX
  8
0
 10
4040.86330000
 20
1692.26710000
 42
0.01950000
  0
VERTEX
  8
0
 10
4038.01530000
 20
1689.83110000
 42
0.00190000
  0
VERTEX
  8
0
 10
4036.77530000
 20
1688.68910000
 42
-0.01070000
  0
VERTEX
  8
0
 10
4033.53030000
 20
1685.77410000
 42
-0.03300000
  0
VERTEX
  8
0
 10
4029.44530000
 20
1682.70510000
 42
-0.08030000
  0
VERTEX
  8
0
 10
4020.87830000
 20
1678.92810000
  0
SEQEND
  0
POLYLINE
  8
Default Layer
 66
   1
 39
0.000000
 70
    1
  0
VERTEX
  8
0
 10
5383.15446324
 20
2132.80974074
  0
VERTEX
  8
0
 10
5383.15446324
 20
1392.90174074
  0
VERTEX
  8
0
 10
5500.84546324
 20
1392.90174074
  0
VERTEX
  8
0
 10
5823.88546324
 20
1523.41874074
  0
VERTEX
  8
0
 10
5823.88546324
 20
2132.80974074
  0
VERTEX
  8
0
 10
5383.15446324
 20
2132.80974074
  0
SEQEND
  0
POLYLINE
  8
Default Layer
 66
   1
 39
0.000000
 70
    1
  0
VERTEX
  8
0
 10
5576.14546324
 20
2228.51610000
  0
VERTEX
  8
0
 10
5371.33846324
 20
2218.40710000
  0
VERTEX
  8
0
 10
5371.33846324
 20
2153.18010000
  0
VERTEX
  8
0
 10
5811.97346324
 20
2153.18010000
  0
VERTEX
  8
0
 10
5811.97346324
 20
2286.18010000
  0
VERTEX
  8
0
 10
5591.70746324
 20
2286.18010000
  0
VERTEX
  8
0
 10
5591.49746324
 20
2257.72610000
 42
-0.03790000
  0
VERTEX
  8
0
 10
5590.77446324
 20
2248.00110000
 42
-0.03490000
  0
VERTEX
  8
0
 10
5589.33546324
 20
2241.53310000
 42
-0.04010000
  0
VERTEX
  8
0
 10
5587.50046324
 20
2236.77810000
 42
-0.04970000
  0
VERTEX
  8
0
 10
5585.36446324
 20
2233.27010000
 42
-0.06540000
  0
VERTEX
  8
0
 10
5582.83246324
 20
2230.69310000
 42
-0.10220000
  0
VERTEX
  8
0
 10
5579.08046324
 20
2228.83710000
 42
-0.07010000
  0
VERTEX
  8
0
 10
5576.14546324
 20
2228.51610000
  0
SEQEND
  0
POLYLINE
  8
Default Layer
 66
   1
 39
0.000000
 70
    1
  0
VERTEX
  8
0
 10
5980.39246324
 20
2114.38574074
  0
VERTEX
  8
0
 10
5838.39246324
 20
2114.38574074
  0
VERTEX
  8
0
 10
5838.39246324
 20
1505.71574074
  0
VERTEX
  8
0
 10
5980.39246324
 20
1505.71574074
  0
VERTEX
  8
0
 10
5980.39246324
 20
2114.38574074
  0
SEQEND
  0
POLYLINE
  8
Default Layer
 66
   1
 39
0.000000
 70
    1
  0
VERTEX
  8
0
 10
5495.43392434
 20
1365.52935601
  0
VERTEX
  8
0
 10
5495.43392434
 20
1232.52935601
  0
VERTEX
  8
0
 10
5843.43392434
 20
1232.52935601
  0
VERTEX
  8
0
 10
5843.43392434
 20
1365.52935601
  0
VERTEX
  8
0
 10
5495.43392434
 20
1365.52935601
  0
SEQEND
  0
POLYLINE
  8
Default Layer
 66
   1
 39
0.000000
 70
    1
  0
VERTEX
  8
0
 10
5446.72000000
 20
2688.04276584
  0
VERTEX
  8
0
 10
5887.45100000
 20
2688.04276584
  0
VERTEX
  8
0
 10
5887.45100000
 20
3297.43326584
  0
VERTEX
  8
0
 10
5564.41100000
 20
3427.95126584
  0
VERTEX
  8
0
 10
5446.72000000
 20
3427.95126584
  0
VERTEX
  8
0
 10
5446.72000000
 20
2688.04276584
  0
SEQEND
  0
POLYLINE
  8
Default Layer
 66
   1
 39
0.000000
 70
    1
  0
VERTEX
  8
0
 10
5652.58558982
 20
2600.44869639
 42
-0.10220000
  0
VERTEX
  8
0
 10
5656.70458982
 20
2599.74279639
 42
-0.08800000
  0
VERTEX
  8
0
 10
5659.93258982
 20
2597.72569639
 42
-0.06040000
  0
VERTEX
  8
0
 10
5662.32658982
 20
2594.97539639
 42
-0.04720000
  0
VERTEX
  8
0
 10
5664.40158982
 20
2591.19269639
 42
-0.03830000
  0
VERTEX
  8
0
 10
5666.14858982
 20
2586.11989639
 42
-0.03420000
  0
VERTEX
  8
0
 10
5667.45958982
 20
2579.19879639
 42
-0.03040000
  0
VERTEX
  8
0
 10
5667.93758982
 20
2571.23849639
  0
VERTEX
  8
0
 10
5668.14758982
 20
2542.78459639
  0
VERTEX
  8
0
 10
5888.41358982
 20
2542.78459639
  0
VERTEX
  8
0
 10
5888.41358982
 20
2675.78459639
  0
VERTEX
  8
0
 10
5447.77858982
 20
2675.78459639
  0
VERTEX
  8
0
 10
5447.77858982
 20
2610.55819639
  0
VERTEX
  8
0
 10
5652.58558982
 20
2600.44869639
  0
SEQEND
  0
POLYLINE
  8
Default Layer
 66
   1
 39
0.000000
 70
    1
  0
VERTEX
  8
0
 10
5906.00000000
 20
3312.56026584
  0
VERTEX
  8
0
 10
5906.00000000
 20
2703.89026584
  0
VERTEX
  8
0
 10
6048.00000000
 20
2703.89026584
  0
VERTEX
  8
0
 10
6048.00000000
 20
3312.56026584
  0
VERTEX
  8
0
 10
5906.00000000
 20
3312.56026584
  0
SEQEND
  0
POLYLINE
  8
Default Layer
 66
   1
 39
0.000000
 70
    1
  0
VERTEX
  8
0
 10
5453.67600000
 20
3578.52523190
  0
VERTEX
  8
0
 10
5453.67600000
 20
3445.52523190
  0
VERTEX
  8
0
 10
5801.67600000
 20
3445.52523190
  0
VERTEX
  8
0
 10
5801.67600000
 20
3578.52523190
  0
VERTEX
  8
0
 10
5453.67600000
 20
3578.52523190
  0
SEQEND
  0
POLYLINE
  8
Default Layer
 66
   1
 39
0.000000
 70
    1
  0
VERTEX
  8
0
 10
5058.85381399
 20
3572.70710000
 42
-0.06350000
  0
VERTEX
  8
0
 10
5060.00581399
 20
3563.47110000
 42
-0.41421356
  0
VERTEX
  8
0
 10
5022.50581399
 20
3525.97110000
 42
-0.41421356
  0
VERTEX
  8
0
 10
4985.00581399
 20
3563.47110000
 42
-0.06320000
  0
VERTEX
  8
0
 10
4986.19481399
 20
3572.83810000
 42
-0.08510000
  0
VERTEX
  8
0
 10
4990.33281399
 20
3581.85510000
 42
-0.03010000
  0
VERTEX
  8
0
 10
4993.39281399
 20
3585.78510000
 42
-0.00820000
  0
VERTEX
  8
0
 10
4995.94381399
 20
3588.59710000
 42
0.01060000
  0
VERTEX
  8
0
 10
4998.56481399
 20
3591.50210000
 42
0.03220000
  0
VERTEX
  8
0
 10
5000.75381399
 20
3594.38910000
 42
0.06010000
  0
VERTEX
  8
0
 10
5002.52981399
 20
3597.93810000
 42
0.06190000
  0
VERTEX
  8
0
 10
5003.30381399
 20
3601.50310000
 42
-0.33560346
  0
VERTEX
  8
0
 10
5022.55846759
 20
3616.02958860
 42
-0.33560346
  0
VERTEX
  8
0
 10
5041.77681399
 20
3601.45510000
 42
0.10220000
  0
VERTEX
  8
0
 10
5043.51181399
 20
3595.72310000
 42
0.04240000
  0
VERTEX
  8
0
 10
5045.51481399
 20
3592.69210000
 42
0.01950000
  0
VERTEX
  8
0
 10
5047.95081399
 20
3589.84410000
 42
0.00190000
  0
VERTEX
  8
0
 10
5049.09281399
 20
3588.60310000
 42
-0.01070000
  0
VERTEX
  8
0
 10
5052.00781399
 20
3585.35910000
 42
-0.03300000
  0
VERTEX
  8
0
 10
5055.07681399
 20
3581.27410000
 42
-0.08030000
  0
VERTEX
  8
0
 10
5058.85381399
 20
3572.70710000
  0
SEQEND
  0
POLYLINE
  8
Default Layer
 66
   1
 39
0.000000
 70
    1
  0
VERTEX
  8
0
 10
4967.95681399
 20
2573.96310000
 42
-0.06350000
  0
VERTEX
  8
0
 10
4977.19381399
 20
2575.11510000
 42
-0.41421356
  0
VERTEX
  8
0
 10
5014.69381399
 20
2537.61510000
 42
-0.41421356
  0
VERTEX
  8
0
 10
4977.19381399
 20
2500.11510000
 42
-0.06320000
  0
VERTEX
  8
0
 10
4967.82581399
 20
2501.30410000
 42
-0.08510000
  0
VERTEX
  8
0
 10
4958.80881399
 20
2505.44210000
 42
-0.03010000
  0
VERTEX
  8
0
 10
4954.87881399
 20
2508.50210000
 42
-0.00820000
  0
VERTEX
  8
0
 10
4952.06681399
 20
2511.05410000
 42
0.01060000
  0
VERTEX
  8
0
 10
4949.16181399
 20
2513.67510000
 42
0.03220000
  0
VERTEX
  8
0
 10
4946.27581399
 20
2515.86310000
 42
0.06010000
  0
VERTEX
  8
0
 10
4942.72681399
 20
2517.63910000
 42
0.06190000
  0
VERTEX
  8
0
 10
4939.16081399
 20
2518.41410000
 42
-0.33560346
  0
VERTEX
  8
0
 10
4924.63470359
 20
2537.66825360
 42
-0.33560346
  0
VERTEX
  8
0
 10
4939.20881399
 20
2556.88610000
 42
0.10220000
  0
VERTEX
  8
0
 10
4944.94081399
 20
2558.62210000
 42
0.04240000
  0
VERTEX
  8
0
 10
4947.97181399
 20
2560.62410000
 42
0.01950000
  0
VERTEX
  8
0
 10
4950.81981399
 20
2563.06010000
 42
0.00190000
  0
VERTEX
  8
0
 10
4952.06081399
 20
2564.20210000
 42
-0.01070000
  0
VERTEX
  8
0
 10
4955.30481399
 20
2567.11710000
 42
-0.03300000
  0
VERTEX
  8
0
 10
4959.38981399
 20
2570.18610000
 42
-0.08030000
  0
VERTEX
  8
0
 10
4967.95681399
 20
2573.96310000
  0
SEQEND
  0
POLYLINE
  8
Default Layer
 66
   1
 39
0.000000
 70
    1
  0
VERTEX
  8
0
 10
4036.82381399
 20
3581.90010000
 42
-0.06350000
  0
VERTEX
  8
0
 10
4037.97481399
 20
3572.66310000
 42
-0.41421356
  0
VERTEX
  8
0
 10
4000.47481399
 20
3535.16310000
 42
-0.41421356
  0
VERTEX
  8
0
 10
3962.97481399
 20
3572.66310000
 42
-0.06320000
  0
VERTEX
  8
0
 10
3964.16381399
 20
3582.03110000
 42
-0.08510000
  0
VERTEX
  8
0
 10
3968.30281399
 20
3591.04810000
 42
-0.03010000
  0
VERTEX
  8
0
 10
3971.36181399
 20
3594.97810000
 42
-0.00820000
  0
VERTEX
  8
0
 10
3973.91381399
 20
3597.78910000
 42
0.01060000
  0
VERTEX
  8
0
 10
3976.53481399
 20
3600.69410000
 42
0.03220000
  0
VERTEX
  8
0
 10
3978.72381399
 20
3603.58110000
 42
0.06010000
  0
VERTEX
  8
0
 10
3980.49981399
 20
3607.13010000
 42
0.06190000
  0
VERTEX
  8
0
 10
3981.27381399
 20
3610.69510000
 42
-0.33560346
  0
VERTEX
  8
0
 10
4000.52846759
 20
3625.22158860
 42
-0.33560346
  0
VERTEX
  8
0
 10
4019.74681399
 20
3610.64710000
 42
0.10220000
  0
VERTEX
  8
0
 10
4021.48181399
 20
3604.91610000
 42
0.04240000
  0
VERTEX
  8
0
 10
4023.48381399
 20
3601.88510000
 42
0.01950000
  0
VERTEX
  8
0
 10
4025.91981399
 20
3599.03610000
 42
0.00190000
  0
VERTEX
  8
0
 10
4027.06181399
 20
3597.79610000
 42
-0.01070000
  0
VERTEX
  8
0
 10
4029.97781399
 20
3594.55210000
 42
-0.03300000
  0
VERTEX
  8
0
 10
4033.04581399
 20
3590.46610000
 42
-0.08030000
  0
VERTEX
  8
0
 10
4036.82381399
 20
3581.90010000
  0
SEQEND
  0
POLYLINE
  8
Default Layer
 66
   1
 39
0.000000
 70
    1
  0
VERTEX
  8
0
 10
4047.96781399
 20
2511.72410000
 42
-0.06350000
  0
VERTEX
  8
0
 10
4038.73181399
 20
2510.57210000
 42
-0.41421356
  0
VERTEX
  8
0
 10
4001.23181399
 20
2548.07210000
 42
-0.41421356
  0
VERTEX
  8
0
 10
4038.73181399
 20
2585.57210000
 42
-0.06320000
  0
VERTEX
  8
0
 10
4048.09881399
 20
2584.38410000
 42
-0.08510000
  0
VERTEX
  8
0
 10
4057.11581399
 20
2580.24510000
 42
-0.03010000
  0
VERTEX
  8
0
 10
4061.04681399
 20
2577.18510000
 42
-0.00820000
  0
VERTEX
  8
0
 10
4063.85781399
 20
2574.63410000
 42
0.01060000
  0
VERTEX
  8
0
 10
4066.76281399
 20
2572.01310000
 42
0.03220000
  0
VERTEX
  8
0
 10
4069.64981399
 20
2569.82410000
 42
0.06010000
  0
VERTEX
  8
0
 10
4073.19881399
 20
2568.04810000
 42
0.06190000
  0
VERTEX
  8
0
 10
4076.76381399
 20
2567.27410000
 42
-0.33560346
  0
VERTEX
  8
0
 10
4091.29030259
 20
2548.01944640
 42
-0.33560346
  0
VERTEX
  8
0
 10
4076.71581399
 20
2528.80110000
 42
0.10220000
  0
VERTEX
  8
0
 10
4070.98381399
 20
2527.06610000
 42
0.04240000
  0
VERTEX
  8
0
 10
4067.95381399
 20
2525.06310000
 42
0.01950000
  0
VERTEX
  8
0
 10
4065.10481399
 20
2522.62810000
 42
0.00190000
  0
VERTEX
  8
0
 10
4063.86481399
 20
2521.48610000
 42
-0.01070000
  0
VERTEX
  8
0
 10
4060.61981399
 20
2518.57010000
 42
-0.03300000
  0
VERTEX
  8
0
 10
4056.53481399
 20
2515.50210000
 42
-0.08030000
  0
VERTEX
  8
0
 10
4047.96781399
 20
2511.72410000
  0
SEQEND
  0
POLYLINE
  8
Default Layer
 66
   1
 39
0.000000
 70
    1
  0
VERTEX
  8
0
 10
3883.90481399
 20
2462.18010000
  0
VERTEX
  8
0
 10
5134.17981399
 20
2462.18010000
 42
-0.04720000
  0
VERTEX
  8
0
 10
5144.18081399
 20
2471.49210000
 42
-0.03060000
  0
VERTEX
  8
0
 10
5153.11581399
 20
2477.52610000
 42
-0.01770000
  0
VERTEX
  8
0
 10
5161.11581399
 20
2481.86710000
 42
-0.00480000
  0
VERTEX
  8
0
 10
5166.75581399
 20
2484.61010000
 42
0.00650000
  0
VERTEX
  8
0
 10
5171.86581399
 20
2487.10510000
 42
0.02020000
  0
VERTEX
  8
0
 10
5175.38681399
 20
2489.05910000
 42
0.03670000
  0
VERTEX
  8
0
 10
5177.74181399
 20
2490.73610000
 42
0.05790000
  0
VERTEX
  8
0
 10
5179.22081399
 20
2492.27710000
 42
0.09390000
  0
VERTEX
  8
0
 10
5180.08181399
 20
2494.00410000
 42
0.05740000
  0
VERTEX
  8
0
 10
5180.22881399
 20
2494.98410000
  0
VERTEX
  8
0
 10
5182.06281399
 20
2960.42010000
 42
-0.01390000
  0
VERTEX
  8
0
 10
5182.54281399
 20
2975.27410000
 42
-0.01700000
  0
VERTEX
  8
0
 10
5183.68281399
 20
2987.38310000
 42
-0.02100000
  0
VERTEX
  8
0
 10
5185.42481399
 20
2997.55210000
 42
-0.02620000
  0
VERTEX
  8
0
 10
5187.76081399
 20
3006.20310000
 42
-0.03290000
  0
VERTEX
  8
0
 10
5190.78781399
 20
3013.74510000
 42
-0.04420000
  0
VERTEX
  8
0
 10
5195.07881399
 20
3020.97310000
 42
-0.06430000
  0
VERTEX
  8
0
 10
5202.67381399
 20
3029.03210000
 42
-0.03280000
  0
VERTEX
  8
0
 10
5208.54581399
 20
3033.22810000
 42
-0.01980000
  0
VERTEX
  8
0
 10
5214.66781399
 20
3036.69510000
 42
-0.00830000
  0
VERTEX
  8
0
 10
5221.30981399
 20
3039.98110000
  0
VERTEX
  8
0
 10
5223.08681399
 20
3040.82910000
 42
0.00550000
  0
VERTEX
  8
0
 10
5232.19509595
 20
3045.04190458
 42
0.00270000
  0
VERTEX
  8
0
 10
5256.00000000
 20
3046.65541158
  0
VERTEX
  8
0
 10
5254.87010000
 20
3655.41641158
  0
VERTEX
  8
0
 10
5209.21311788
 20
3657.28250673
  0
VERTEX
  8
0
 10
5174.49781399
 20
3669.66410000
  0
VERTEX
  8
0
 10
3853.49781399
 20
3671.04310000
  0
VERTEX
  8
0
 10
3793.66281399
 20
3655.95310000
  0
VERTEX
  8
0
 10
3789.96981399
 20
3047.34410000
 42
0.00790000
  0
VERTEX
  8
0
 10
3797.69881399
 20
3043.44110000
  0
VERTEX
  8
0
 10
3799.27681399
 20
3042.66910000
 42
-0.00550000
  0
VERTEX
  8
0
 10
3806.05581399
 20
3039.29910000
 42
-0.01670000
  0
VERTEX
  8
0
 10
3812.22681399
 20
3035.88210000
 42
-0.02890000
  0
VERTEX
  8
0
 10
3818.04981399
 20
3031.92510000
 42
-0.04920000
  0
VERTEX
  8
0
 10
3824.48481399
 20
3025.89010000
 42
-0.05380000
  0
VERTEX
  8
0
 10
3829.90581399
 20
3018.09110000
 42
-0.03650000
  0
VERTEX
  8
0
 10
3833.24981399
 20
3010.73610000
 42
-0.02870000
  0
VERTEX
  8
0
 10
3835.77181399
 20
3002.48010000
 42
-0.02300000
  0
VERTEX
  8
0
 10
3837.65881399
 20
2992.84410000
 42
-0.01860000
  0
VERTEX
  8
0
 10
3838.93681399
 20
2981.34410000
 42
-0.01510000
  0
VERTEX
  8
0
 10
3839.54481399
 20
2967.42310000
 42
-0.00460000
  0
VERTEX
  8
0
 10
3839.57881399
 20
2961.89610000
  0
VERTEX
  8
0
 10
3837.24281399
 20
2496.46210000
 42
0.12510000
  0
VERTEX
  8
0
 10
3837.86081399
 20
2494.31410000
 42
0.06810000
  0
VERTEX
  8
0
 10
3839.09181399
 20
2492.74510000
 42
0.04310000
  0
VERTEX
  8
0
 10
3841.06181399
 20
2491.13610000
 42
0.02580000
  0
VERTEX
  8
0
 10
3844.10781399
 20
2489.27310000
 42
0.01130000
  0
VERTEX
  8
0
 10
3848.56781399
 20
2486.97510000
  0
VERTEX
  8
0
 10
3850.58681399
 20
2485.98510000
 42
-0.00680000
  0
VERTEX
  8
0
 10
3857.39781399
 20
2482.57310000
 42
-0.01990000
  0
VERTEX
  8
0
 10
3865.57881399
 20
2477.91010000
 42
-0.03280000
  0
VERTEX
  8
0
 10
3874.60681399
 20
2471.41410000
 42
-0.04590000
  0
VERTEX
  8
0
 10
3883.90481399
 20
2462.18010000
  0
SEQEND
  0
POLYLINE
  8
Default Layer
 66
   1
 39
0.000000
 70
    1
  0
VERTEX
  8
0
 10
2607.40833840
 20
4094.89086080
 42
0.07660000
  0
VERTEX
  8
0
 10
2616.18633840
 20
4066.70386080
 42
0.06060000
  0
VERTEX
  8
0
 10
2647.63733840
 20
4013.07186080
 42
0.12660000
  0
VERTEX
  8
0
 10
2669.17433840
 20
3996.56486080
 42
0.07080000
  0
VERTEX
  8
0
 10
2691.00433840
 20
3989.62386080
 42
0.02730000
  0
VERTEX
  8
0
 10
2946.97933840
 20
3979.70586080
 42
0.02020000
  0
VERTEX
  8
0
 10
2958.30333840
 20
3980.12786080
 42
0.02890000
  0
VERTEX
  8
0
 10
2971.43833840
 20
3981.90486080
 42
0.03290000
  0
VERTEX
  8
0
 10
2983.12633840
 20
3984.98886080
 42
0.03820000
  0
VERTEX
  8
0
 10
2993.61933840
 20
3989.42486080
 42
0.04590000
  0
VERTEX
  8
0
 10
3003.27933840
 20
3995.58986080
 42
0.06380000
  0
VERTEX
  8
0
 10
3013.13733840
 20
4005.48786080
 42
0.06650000
  0
VERTEX
  8
0
 10
3020.35433840
 20
4018.07486080
 42
0.04710000
  0
VERTEX
  8
0
 10
3023.73433840
 20
4029.26586080
 42
0.05440000
  0
VERTEX
  8
0
 10
3034.02333840
 20
4131.29386080
  0
VERTEX
  8
0
 10
3029.20933840
 20
4359.83086080
  0
VERTEX
  8
0
 10
3028.88733840
 20
4364.30086080
  0
VERTEX
  8
0
 10
3028.34333840
 20
4371.78786080
 42
0.00670000
  0
VERTEX
  8
0
 10
3026.76933840
 20
4389.89186080
 42
0.01140000
  0
VERTEX
  8
0
 10
3024.44133840
 20
4408.73086080
 42
0.01450000
  0
VERTEX
  8
0
 10
3021.47133840
 20
4425.56886080
 42
0.01760000
  0
VERTEX
  8
0
 10
3017.92333840
 20
4440.14486080
 42
0.02090000
  0
VERTEX
  8
0
 10
3013.91533840
 20
4452.41386080
 42
0.02490000
  0
VERTEX
  8
0
 10
3009.49933840
 20
4462.65086080
 42
0.02910000
  0
VERTEX
  8
0
 10
3004.76833840
 20
4471.01186080
 42
0.03480000
  0
VERTEX
  8
0
 10
2999.58833840
 20
4477.93086080
 42
0.04430000
  0
VERTEX
  8
0
 10
2993.49633840
 20
4483.84186080
 42
0.05710000
  0
VERTEX
  8
0
 10
2985.97133840
 20
4488.63786080
 42
0.08280000
  0
VERTEX
  8
0
 10
2974.37533840
 20
4492.03686080
 42
0.05070000
  0
VERTEX
  8
0
 10
2965.72933840
 20
4492.19386080
 42
0.00750000
  0
VERTEX
  8
0
 10
2668.19533840
 20
4485.05886080
 42
0.09800000
  0
VERTEX
  8
0
 10
2638.61833840
 20
4476.24786080
 42
0.15950000
  0
VERTEX
  8
0
 10
2618.28233840
 20
4452.56486080
 42
0.07080000
  0
VERTEX
  8
0
 10
2606.49333840
 20
4344.97286080
  0
VERTEX
  8
0
 10
2607.40833840
 20
4094.89086080
  0
SEQEND
  0
POLYLINE
  8
Default Layer
 66
   1
 39
0.000000
 70
    1
  0
VERTEX
  8
0
 10
1352.05204903
 20
3358.02294636
  0
VERTEX
  8
0
 10
896.83259880
 20
3358.21218332
 42
-0.02830000
  0
VERTEX
  8
0
 10
914.89559880
 20
3625.47428332
 42
-0.01210000
  0
VERTEX
  8
0
 10
915.42459880
 20
3628.97698332
 42
-0.03320000
  0
VERTEX
  8
0
 10
916.02259880
 20
3631.43848332
 42
-0.05870000
  0
VERTEX
  8
0
 10
916.75259880
 20
3633.07248332
 42
-0.10210000
  0
VERTEX
  8
0
 10
917.81559880
 20
3634.23768332
 42
-0.11080000
  0
VERTEX
  8
0
 10
919.32659880
 20
3634.84568332
 42
-0.04650000
  0
VERTEX
  8
0
 10
920.66259880
 20
3634.94558332
  0
VERTEX
  8
0
 10
1075.45259880
 20
3634.92008332
 42
0.05060000
  0
VERTEX
  8
0
 10
1079.36059880
 20
3635.28938332
 42
0.06910000
  0
VERTEX
  8
0
 10
1082.82259880
 20
3636.48618332
 42
0.13120000
  0
VERTEX
  8
0
 10
1087.00459880
 20
3640.27508332
 42
0.06540000
  0
VERTEX
  8
0
 10
1088.58259880
 20
3643.60988332
 42
0.04850000
  0
VERTEX
  8
0
 10
1089.45059880
 20
3647.58798332
 42
0.03510000
  0
VERTEX
  8
0
 10
1089.67659880
 20
3652.14758332
  0
VERTEX
  8
0
 10
1089.05059880
 20
3719.00208332
 42
0.02880000
  0
VERTEX
  8
0
 10
1088.24559880
 20
3725.56138332
 42
0.03560000
  0
VERTEX
  8
0
 10
1086.93759880
 20
3730.67578332
 42
0.04520000
  0
VERTEX
  8
0
 10
1085.17859880
 20
3734.71038332
 42
0.05950000
  0
VERTEX
  8
0
 10
1082.87759880
 20
3737.93598332
 42
0.08670000
  0
VERTEX
  8
0
 10
1079.45459880
 20
3740.58818332
 42
0.09670000
  0
VERTEX
  8
0
 10
1074.91559880
 20
3741.91928332
 42
0.02490000
  0
VERTEX
  8
0
 10
1073.46859880
 20
3741.98928332
  0
VERTEX
  8
0
 10
961.46259880
 20
3741.97758332
  0
VERTEX
  8
0
 10
961.45659880
 20
3749.81748332
  0
VERTEX
  8
0
 10
999.49659880
 20
3817.55738332
  0
VERTEX
  8
0
 10
1006.24559880
 20
4280.22888332
 42
0.02320000
  0
VERTEX
  8
0
 10
1011.94559880
 20
4279.23428332
 42
0.01810000
  0
VERTEX
  8
0
 10
1020.25259880
 20
4278.47728332
 42
0.01560000
  0
VERTEX
  8
0
 10
1032.24359880
 20
4278.18998332
 42
0.02200000
  0
VERTEX
  8
0
 10
1054.49259880
 20
4279.30008332
 42
0.00510000
  0
VERTEX
  8
0
 10
1058.43159880
 20
4279.71708332
 42
0.07730000
  0
VERTEX
  8
0
 10
1061.10959880
 20
4280.82938332
 42
0.05450000
  0
VERTEX
  8
0
 10
1063.59059880
 20
4282.74158332
 42
0.04070000
  0
VERTEX
  8
0
 10
1066.18059880
 20
4285.66648332
 42
0.03020000
  0
VERTEX
  8
0
 10
1068.93959880
 20
4289.84328332
 42
0.02280000
  0
VERTEX
  8
0
 10
1071.98059880
 20
4295.71178332
 42
0.01680000
  0
VERTEX
  8
0
 10
1075.33659880
 20
4303.66490332
 42
0.01170000
  0
VERTEX
  8
0
 10
1079.04759880
 20
4314.07147332
 42
0.00670000
  0
VERTEX
  8
0
 10
1083.10359880
 20
4326.91420332
 42
0.00130000
  0
VERTEX
  8
0
 10
1085.84059880
 20
4336.04984332
 42
-0.00300000
  0
VERTEX
  8
0
 10
1089.68359880
 20
4348.77701332
 42
-0.00860000
  0
VERTEX
  8
0
 10
1093.00059880
 20
4358.91836332
 42
-0.01460000
  0
VERTEX
  8
0
 10
1095.81359880
 20
4366.34529332
 42
-0.02160000
  0
VERTEX
  8
0
 10
1098.18159880
 20
4371.45581332
 42
-0.03110000
  0
VERTEX
  8
0
 10
1100.21059880
 20
4374.85613332
 42
-0.04410000
  0
VERTEX
  8
0
 10
1101.96459880
 20
4376.99288332
 42
-0.06460000
  0
VERTEX
  8
0
 10
1103.57759880
 20
4378.26711332
 42
-0.08410000
  0
VERTEX
  8
0
 10
1105.03759880
 20
4378.83211332
  0
VERTEX
  8
0
 10
1416.97459880
 20
4378.57215332
  0
VERTEX
  8
0
 10
1899.24859880
 20
4376.65565332
 42
-0.03670000
  0
VERTEX
  8
0
 10
1906.78159880
 20
4376.13690332
 42
-0.04300000
  0
VERTEX
  8
0
 10
1917.82059880
 20
4373.58475332
 42
-0.05050000
  0
VERTEX
  8
0
 10
1930.32959880
 20
4368.13057332
 42
-0.04350000
  0
VERTEX
  8
0
 10
1938.61559880
 20
4362.47542332
 42
-0.04770000
  0
VERTEX
  8
0
 10
1945.01059880
 20
4356.13530332
 42
-0.05740000
  0
VERTEX
  8
0
 10
1949.90959880
 20
4348.65201332
 42
-0.11590000
  0
VERTEX
  8
0
 10
1953.56659880
 20
4333.25922332
  0
VERTEX
  8
0
 10
1953.56759880
 20
4333.02693332
  0
VERTEX
  8
0
 10
1953.60459880
 20
4287.08758332
  0
VERTEX
  8
0
 10
1955.99759880
 20
4285.44178332
 42
-0.00180000
  0
VERTEX
  8
0
 10
1974.64859880
 20
4272.55398332
 42
-0.00560000
  0
VERTEX
  8
0
 10
1990.37959880
 20
4261.33738332
 42
-0.00940000
  0
VERTEX
  8
0
 10
2003.49559880
 20
4251.37868332
 42
-0.01350000
  0
VERTEX
  8
0
 10
2014.78159880
 20
4241.96748332
 42
-0.01810000
  0
VERTEX
  8
0
 10
2024.67059880
 20
4232.60288332
 42
-0.02390000
  0
VERTEX
  8
0
 10
2033.61959880
 20
4222.57818332
 42
-0.03350000
  0
VERTEX
  8
0
 10
2042.41159880
 20
4210.10038332
 42
-0.04820000
  0
VERTEX
  8
0
 10
2051.30859880
 20
4191.61728332
 42
-0.02880000
  0
VERTEX
  8
0
 10
2055.43359880
 20
4178.01148332
 42
-0.02210000
  0
VERTEX
  8
0
 10
2058.10459880
 20
4164.31418332
 42
-0.01700000
  0
VERTEX
  8
0
 10
2059.77759880
 20
4149.74718332
 42
-0.01290000
  0
VERTEX
  8
0
 10
2060.66159880
 20
4133.58418332
 42
-0.00710000
  0
VERTEX
  8
0
 10
2060.86759880
 20
4120.32508332
  0
VERTEX
  8
0
 10
2080.99659880
 20
3385.17118332
  0
VERTEX
  8
0
 10
2080.08864242
 20
3338.94092320
  0
VERTEX
  8
0
 10
1969.31903940
 20
3339.79221933
  0
VERTEX
  8
0
 10
1800.23782853
 20
3531.99831923
 42
0.00250000
  0
VERTEX
  8
0
 10
1798.18944529
 20
3534.46624589
 42
0.01240000
  0
VERTEX
  8
0
 10
1791.10435811
 20
3542.54582463
 42
0.01760000
  0
VERTEX
  8
0
 10
1785.21544953
 20
3548.50555670
 42
0.02450000
  0
VERTEX
  8
0
 10
1780.01401506
 20
3552.95435673
 42
0.03470000
  0
VERTEX
  8
0
 10
1774.83169936
 20
3556.42244105
 42
0.07240000
  0
VERTEX
  8
0
 10
1765.75992323
 20
3559.99756124
 42
0.03160000
  0
VERTEX
  8
0
 10
1760.17382685
 20
3560.92841219
 42
0.01720000
  0
VERTEX
  8
0
 10
1754.25291745
 20
3561.32993922
 42
0.00530000
  0
VERTEX
  8
0
 10
1747.09792270
 20
3561.49639270
  0
VERTEX
  8
0
 10
1745.04200006
 20
3561.53131722
  0
VERTEX
  8
0
 10
1563.36827917
 20
3563.08130967
 42
0.00840000
  0
VERTEX
  8
0
 10
1557.25237836
 20
3562.96495477
 42
0.01910000
  0
VERTEX
  8
0
 10
1549.82063035
 20
3562.42727099
 42
0.03000000
  0
VERTEX
  8
0
 10
1542.78767881
 20
3561.21714475
 42
0.05980000
  0
VERTEX
  8
0
 10
1532.65180949
 20
3557.51138503
 42
0.03580000
  0
VERTEX
  8
0
 10
1526.20698083
 20
3553.60631250
 42
0.02490000
  0
VERTEX
  8
0
 10
1520.20340683
 20
3548.88831712
 42
0.01670000
  0
VERTEX
  8
0
 10
1513.90660521
 20
3543.03483126
 42
0.01040000
  0
VERTEX
  8
0
 10
1506.65262283
 20
3535.52168752
 42
0.00510000
  0
VERTEX
  8
0
 10
1497.54929101
 20
3525.49128480
  0
VERTEX
  8
0
 10
1352.05204903
 20
3358.02294636
  0
SEQEND
  0
POLYLINE
  8
Default Layer
 66
   1
 39
0.000000
 70
    1
  0
VERTEX
  8
0
 10
101.43873840
 20
4247.26241780
 42
-0.15210000
  0
VERTEX
  8
0
 10
103.88273840
 20
4267.61641780
 42
0.17150000
  0
VERTEX
  8
0
 10
100.23973840
 20
4330.05641780
 42
-0.25050000
  0
VERTEX
  8
0
 10
100.42673840
 20
4344.78541780
  0
VERTEX
  8
0
 10
103.73573840
 20
4351.65741780
 42
-0.24370000
  0
VERTEX
  8
0
 10
111.97873840
 20
4358.40041780
  0
VERTEX
  8
0
 10
685.57773840
 20
4358.17241780
 42
-0.04670000
  0
VERTEX
  8
0
 10
698.16973840
 20
4356.83741780
 42
-0.07830000
  0
VERTEX
  8
0
 10
719.65573840
 20
4348.88041780
 42
-0.05480000
  0
VERTEX
  8
0
 10
733.52373840
 20
4338.96741780
 42
-0.04280000
  0
VERTEX
  8
0
 10
743.71373840
 20
4328.14241780
 42
-0.03550000
  0
VERTEX
  8
0
 10
751.76173840
 20
4316.34641780
 42
-0.03070000
  0
VERTEX
  8
0
 10
758.34673840
 20
4303.26541780
 42
-0.02710000
  0
VERTEX
  8
0
 10
763.71473840
 20
4288.59641780
 42
-0.02390000
  0
VERTEX
  8
0
 10
767.87673840
 20
4272.22341780
 42
-0.02130000
  0
VERTEX
  8
0
 10
770.80673840
 20
4253.91041780
 42
-0.01000000
  0
VERTEX
  8
0
 10
771.79673840
 20
4243.75041780
 42
0.01590000
  0
VERTEX
  8
0
 10
773.62573840
 20
4183.22841780
 42
0.01500000
  0
VERTEX
  8
0
 10
779.37273840
 20
4121.00141780
 42
0.01130000
  0
VERTEX
  8
0
 10
786.74273840
 20
4070.39141780
 42
0.00730000
  0
VERTEX
  8
0
 10
787.43773840
 20
4060.22941780
  0
VERTEX
  8
0
 10
787.92473840
 20
4054.35641780
 42
-0.00380000
  0
VERTEX
  8
0
 10
788.93273840
 20
4041.59541780
 42
-0.01100000
  0
VERTEX
  8
0
 10
789.58573840
 20
4028.31241780
 42
-0.01720000
  0
VERTEX
  8
0
 10
789.49273840
 20
4015.52941780
 42
-0.02270000
  0
VERTEX
  8
0
 10
788.44573840
 20
4003.53541780
 42
-0.03000000
  0
VERTEX
  8
0
 10
786.14273840
 20
3991.71241780
 42
-0.03670000
  0
VERTEX
  8
0
 10
782.36573840
 20
3980.54141780
 42
-0.05160000
  0
VERTEX
  8
0
 10
775.56073840
 20
3968.15841780
 42
-0.06230000
  0
VERTEX
  8
0
 10
764.50173840
 20
3955.86141780
 42
-0.04110000
  0
VERTEX
  8
0
 10
754.50573840
 20
3948.54941780
 42
-0.03340000
  0
VERTEX
  8
0
 10
743.76973840
 20
3942.92541780
 42
-0.02810000
  0
VERTEX
  8
0
 10
731.86773840
 20
3938.45041780
 42
-0.02420000
  0
VERTEX
  8
0
 10
718.39573840
 20
3934.93741780
 42
-0.02090000
  0
VERTEX
  8
0
 10
703.06273840
 20
3932.38141780
 42
-0.01730000
  0
VERTEX
  8
0
 10
686.44173840
 20
3930.89641780
 42
-0.00800000
  0
VERTEX
  8
0
 10
242.81773840
 20
3899.96441780
 42
-0.01870000
  0
VERTEX
  8
0
 10
228.50473840
 20
3899.61541780
 42
-0.02320000
  0
VERTEX
  8
0
 10
215.28073840
 20
3900.40141780
 42
-0.02920000
  0
VERTEX
  8
0
 10
202.45473840
 20
3902.52441780
 42
-0.03710000
  0
VERTEX
  8
0
 10
189.50973840
 20
3906.48041780
 42
-0.06820000
  0
VERTEX
  8
0
 10
170.28173840
 20
3917.16641780
 42
-0.04050000
  0
VERTEX
  8
0
 10
159.69573840
 20
3926.56241780
 42
-0.03180000
  0
VERTEX
  8
0
 10
151.19373840
 20
3936.65041780
 42
-0.02610000
  0
VERTEX
  8
0
 10
143.72873840
 20
3947.92741780
 42
-0.02190000
  0
VERTEX
  8
0
 10
136.87673840
 20
3960.80841780
 42
-0.01230000
  0
VERTEX
  8
0
 10
132.68073840
 20
3970.15941780
 42
-0.09600000
  0
VERTEX
  8
0
 10
127.77173840
 20
3987.29541780
 42
0.01230000
  0
VERTEX
  8
0
 10
127.73673840
 20
4003.85541780
 42
0.01550000
  0
VERTEX
  8
0
 10
126.91473840
 20
4018.13941780
 42
0.01870000
  0
VERTEX
  8
0
 10
125.41673840
 20
4029.98841780
 42
0.02280000
  0
VERTEX
  8
0
 10
123.34673840
 20
4039.76841780
 42
0.02760000
  0
VERTEX
  8
0
 10
120.82673840
 20
4047.65741780
 42
0.02130000
  0
VERTEX
  8
0
 10
118.95973840
 20
4051.96541780
  0
VERTEX
  8
0
 10
101.43873840
 20
4247.26241780
  0
SEQEND
  0
POLYLINE
  8
Default Layer
 66
   1
 39
0.000000
 70
    0
  0
VERTEX
  8
0
 10
2176.73437500
 20
6550.31250000
  0
VERTEX
  8
0
 10
2167.80468750
 20
6586.03125000
  0
VERTEX
  8
0
 10
2141.01562500
 20
6612.82031250
  0
VERTEX
  8
0
 10
2114.22656250
 20
6621.75000000
  0
VERTEX
  8
0
 10
2087.43750000
 20
6621.75000000
  0
VERTEX
  8
0
 10
2060.64843750
 20
6612.82031250
  0
VERTEX
  8
0
 10
2033.85937500
 20
6586.03125000
  0
VERTEX
  8
0
 10
2024.92968750
 20
6550.31250000
  0
VERTEX
  8
0
 10
2016.00000000
 20
6496.73437500
  0
VERTEX
  8
0
 10
2016.00000000
 20
6461.01562500
  0
VERTEX
  8
0
 10
2024.92968750
 20
6407.43750000
  0
VERTEX
  8
0
 10
2033.85937500
 20
6380.64843750
  0
VERTEX
  8
0
 10
2042.78906250
 20
6362.78906250
  0
VERTEX
  8
0
 10
2060.64843750
 20
6344.92968750
  0
VERTEX
  8
0
 10
2087.43750000
 20
6336.00000000
  0
VERTEX
  8
0
 10
2114.22656250
 20
6336.00000000
  0
VERTEX
  8
0
 10
2141.01562500
 20
6344.92968750
  0
VERTEX
  8
0
 10
2158.87500000
 20
6362.78906250
  0
VERTEX
  8
0
 10
2167.80468750
 20
6380.64843750
  0
VERTEX
  8
0
 10
2176.73437500
 20
6407.43750000
  0
SEQEND
  0
POLYLINE
  8
Default Layer
 66
   1
 39
0.000000
 70
    1
  0
VERTEX
  8
0
 10
2417.83593750
 20
6550.31250000
  0
VERTEX
  8
0
 10
2408.90625000
 20
6577.10156250
  0
VERTEX
  8
0
 10
2399.97656250
 20
6594.96093750
  0
VERTEX
  8
0
 10
2382.11718750
 20
6612.82031250
  0
VERTEX
  8
0
 10
2355.32812500
 20
6621.75000000
  0
VERTEX
  8
0
 10
2319.60937500
 20
6621.75000000
  0
VERTEX
  8
0
 10
2292.82031250
 20
6612.82031250
  0
VERTEX
  8
0
 10
2274.96093750
 20
6594.96093750
  0
VERTEX
  8
0
 10
2257.10156250
 20
6550.31250000
  0
VERTEX
  8
0
 10
2257.10156250
 20
6407.43750000
  0
VERTEX
  8
0
 10
2266.03125000
 20
6380.64843750
  0
VERTEX
  8
0
 10
2274.96093750
 20
6362.78906250
  0
VERTEX
  8
0
 10
2292.82031250
 20
6344.92968750
  0
VERTEX
  8
0
 10
2319.60937500
 20
6336.00000000
  0
VERTEX
  8
0
 10
2355.32812500
 20
6336.00000000
  0
VERTEX
  8
0
 10
2382.11718750
 20
6344.92968750
  0
VERTEX
  8
0
 10
2399.97656250
 20
6362.78906250
  0
VERTEX
  8
0
 10
2408.90625000
 20
6380.64843750
  0
VERTEX
  8
0
 10
2417.83593750
 20
6407.43750000
  0
VERTEX
  8
0
 10
2417.83593750
 20
6550.31250000
  0
SEQEND
  0
POLYLINE
  8
Default Layer
 66
   1
 39
0.000000
 70
    0
  0
VERTEX
  8
0
 10
2444.62500000
 20
6336.00000000
  0
VERTEX
  8
0
 10
2444.62500000
 20
6621.75000000
  0
VERTEX
  8
0
 10
2524.99218750
 20
6336.00000000
  0
VERTEX
  8
0
 10
2605.35937500
 20
6621.75000000
  0
VERTEX
  8
0
 10
2605.35937500
 20
6336.00000000
  0
SEQEND
  0
POLYLINE
  8
Default Layer
 66
   1
 39
0.000000
 70
    0
  0
VERTEX
  8
0
 10
2658.93750000
 20
6336.00000000
  0
VERTEX
  8
0
 10
2658.93750000
 20
6621.75000000
  0
VERTEX
  8
0
 10
2748.23437500
 20
6621.75000000
  0
VERTEX
  8
0
 10
2775.02343750
 20
6612.82031250
  0
VERTEX
  8
0
 10
2792.88281250
 20
6603.89062500
  0
VERTEX
  8
0
 10
2801.81250000
 20
6594.96093750
  0
VERTEX
  8
0
 10
2810.74218750
 20
6568.17187500
  0
VERTEX
  8
0
 10
2810.74218750
 20
6541.38281250
  0
VERTEX
  8
0
 10
2801.81250000
 20
6523.52343750
  0
VERTEX
  8
0
 10
2792.88281250
 20
6505.66406250
  0
VERTEX
  8
0
 10
2775.02343750
 20
6496.73437500
  0
VERTEX
  8
0
 10
2748.23437500
 20
6487.80468750
  0
VERTEX
  8
0
 10
2658.93750000
 20
6487.80468750
  0
SEQEND
  0
POLYLINE
  8
Default Layer
 66
   1
 39
0.000000
 70
    0
  0
VERTEX
  8
0
 10
2748.23437500
 20
6487.80468750
  0
VERTEX
  8
0
 10
2775.02343750
 20
6478.87500000
  0
VERTEX
  8
0
 10
2792.88281250
 20
6469.94531250
  0
VERTEX
  8
0
 10
2810.74218750
 20
6452.08593750
  0
VERTEX
  8
0
 10
2819.67187500
 20
6425.29687500
  0
VERTEX
  8
0
 10
2819.67187500
 20
6398.50781250
  0
VERTEX
  8
0
 10
2810.74218750
 20
6371.71875000
  0
VERTEX
  8
0
 10
2792.88281250
 20
6353.85937500
  0
VERTEX
  8
0
 10
2775.02343750
 20
6344.92968750
  0
VERTEX
  8
0
 10
2748.23437500
 20
6336.00000000
  0
VERTEX
  8
0
 10
2658.93750000
 20
6336.00000000
  0
SEQEND
  0
POLYLINE
  8
Default Layer
 66
   1
 39
0.000000
 70
    1
  0
VERTEX
  8
0
 10
3060.77343750
 20
6550.31250000
  0
VERTEX
  8
0
 10
3051.84375000
 20
6577.10156250
  0
VERTEX
  8
0
 10
3042.91406250
 20
6594.96093750
  0
VERTEX
  8
0
 10
3025.05468750
 20
6612.82031250
  0
VERTEX
  8
0
 10
2998.26562500
 20
6621.75000000
  0
VERTEX
  8
0
 10
2962.54687500
 20
6621.75000000
  0
VERTEX
  8
0
 10
2935.75781250
 20
6612.82031250
  0
VERTEX
  8
0
 10
2917.89843750
 20
6594.96093750
  0
VERTEX
  8
0
 10
2900.03906250
 20
6550.31250000
  0
VERTEX
  8
0
 10
2900.03906250
 20
6407.43750000
  0
VERTEX
  8
0
 10
2908.96875000
 20
6380.64843750
  0
VERTEX
  8
0
 10
2917.89843750
 20
6362.78906250
  0
VERTEX
  8
0
 10
2935.75781250
 20
6344.92968750
  0
VERTEX
  8
0
 10
2962.54687500
 20
6336.00000000
  0
VERTEX
  8
0
 10
2998.26562500
 20
6336.00000000
  0
VERTEX
  8
0
 10
3025.05468750
 20
6344.92968750
  0
VERTEX
  8
0
 10
3042.91406250
 20
6362.78906250
  0
VERTEX
  8
0
 10
3051.84375000
 20
6380.64843750
  0
VERTEX
  8
0
 10
3060.77343750
 20
6407.43750000
  0
VERTEX
  8
0
 10
3060.77343750
 20
6550.31250000
  0
SEQEND
  0
POLYLINE
  8
Default Layer
 66
   1
 39
0.000000
 70
    0
  0
VERTEX
  8
0
 10
3462.60937500
 20
6621.75000000
  0
VERTEX
  8
0
 10
3355.45312500
 20
6336.00000000
  0
SEQEND
  0
POLYLINE
  8
Default Layer
 66
   1
 39
0.000000
 70
    1
  0
VERTEX
  8
0
 10
3730.50000000
 20
6336.00000000
  0
VERTEX
  8
0
 10
3730.50000000
 20
6621.75000000
  0
VERTEX
  8
0
 10
3819.79687500
 20
6621.75000000
  0
VERTEX
  8
0
 10
3846.58593750
 20
6612.82031250
  0
VERTEX
  8
0
 10
3873.37500000
 20
6586.03125000
  0
VERTEX
  8
0
 10
3882.30468750
 20
6559.24218750
  0
VERTEX
  8
0
 10
3891.23437500
 20
6523.52343750
  0
VERTEX
  8
0
 10
3891.23437500
 20
6434.22656250
  0
VERTEX
  8
0
 10
3882.30468750
 20
6398.50781250
  0
VERTEX
  8
0
 10
3873.37500000
 20
6371.71875000
  0
VERTEX
  8
0
 10
3846.58593750
 20
6344.92968750
  0
VERTEX
  8
0
 10
3819.79687500
 20
6336.00000000
  0
VERTEX
  8
0
 10
3730.50000000
 20
6336.00000000
  0
SEQEND
  0
POLYLINE
  8
Default Layer
 66
   1
 39
0.000000
 70
    1
  0
VERTEX
  8
0
 10
4168.05468750
 20
6550.31250000
  0
VERTEX
  8
0
 10
4159.12500000
 20
6577.10156250
  0
VERTEX
  8
0
 10
4150.19531250
 20
6594.96093750
  0
VERTEX
  8
0
 10
4132.33593750
 20
6612.82031250
  0
VERTEX
  8
0
 10
4105.54687500
 20
6621.75000000
  0
VERTEX
  8
0
 10
4069.82812500
 20
6621.75000000
  0
VERTEX
  8
0
 10
4043.03906250
 20
6612.82031250
  0
VERTEX
  8
0
 10
4025.17968750
 20
6594.96093750
  0
VERTEX
  8
0
 10
4007.32031250
 20
6550.31250000
  0
VERTEX
  8
0
 10
4007.32031250
 20
6407.43750000
  0
VERTEX
  8
0
 10
4016.25000000
 20
6380.64843750
  0
VERTEX
  8
0
 10
4025.17968750
 20
6362.78906250
  0
VERTEX
  8
0
 10
4043.03906250
 20
6344.92968750
  0
VERTEX
  8
0
 10
4069.82812500
 20
6336.00000000
  0
VERTEX
  8
0
 10
4105.54687500
 20
6336.00000000
  0
VERTEX
  8
0
 10
4132.33593750
 20
6344.92968750
  0
VERTEX
  8
0
 10
4150.19531250
 20
6362.78906250
  0
VERTEX
  8
0
 10
4159.12500000
 20
6380.64843750
  0
VERTEX
  8
0
 10
4168.05468750
 20
6407.43750000
  0
VERTEX
  8
0
 10
4168.05468750
 20
6550.31250000
  0
SEQEND
  0
POLYLINE
  8
Default Layer
 66
   1
 39
0.000000
 70
    0
  0
VERTEX
  8
0
 10
4194.84375000
 20
6336.00000000
  0
VERTEX
  8
0
 10
4194.84375000
 20
6621.75000000
  0
VERTEX
  8
0
 10
4284.14062500
 20
6621.75000000
  0
VERTEX
  8
0
 10
4310.92968750
 20
6612.82031250
  0
VERTEX
  8
0
 10
4328.78906250
 20
6603.89062500
  0
VERTEX
  8
0
 10
4337.71875000
 20
6594.96093750
  0
VERTEX
  8
0
 10
4346.64843750
 20
6568.17187500
  0
VERTEX
  8
0
 10
4346.64843750
 20
6541.38281250
  0
VERTEX
  8
0
 10
4337.71875000
 20
6523.52343750
  0
VERTEX
  8
0
 10
4328.78906250
 20
6505.66406250
  0
VERTEX
  8
0
 10
4310.92968750
 20
6496.73437500
  0
VERTEX
  8
0
 10
4284.14062500
 20
6487.80468750
  0
VERTEX
  8
0
 10
4194.84375000
 20
6487.80468750
  0
SEQEND
  0
POLYLINE
  8
Default Layer
 66
   1
 39
0.000000
 70
    0
  0
VERTEX
  8
0
 10
4284.14062500
 20
6487.80468750
  0
VERTEX
  8
0
 10
4310.92968750
 20
6478.87500000
  0
VERTEX
  8
0
 10
4328.78906250
 20
6469.94531250
  0
VERTEX
  8
0
 10
4346.64843750
 20
6452.08593750
  0
VERTEX
  8
0
 10
4355.57812500
 20
6425.29687500
  0
VERTEX
  8
0
 10
4355.57812500
 20
6398.50781250
  0
VERTEX
  8
0
 10
4346.64843750
 20
6371.71875000
  0
VERTEX
  8
0
 10
4328.78906250
 20
6353.85937500
  0
VERTEX
  8
0
 10
4310.92968750
 20
6344.92968750
  0
VERTEX
  8
0
 10
4284.14062500
 20
6336.00000000
  0
VERTEX
  8
0
 10
4194.84375000
 20
6336.00000000
  0
SEQEND
  0
POLYLINE
  8
Default Layer
 66
   1
 39
0.000000
 70
    0
  0
VERTEX
  8
0
 10
4409.15625000
 20
6336.00000000
  0
VERTEX
  8
0
 10
4409.15625000
 20
6621.75000000
  0
SEQEND
  0
POLYLINE
  8
Default Layer
 66
   1
 39
0.000000
 70
    0
  0
VERTEX
  8
0
 10
4409.15625000
 20
6336.00000000
  0
VERTEX
  8
0
 10
4569.89062500
 20
6336.00000000
  0
SEQEND
  0
POLYLINE
  8
Default Layer
 66
   1
 39
0.000000
 70
    1
  0
VERTEX
  8
0
 10
4810.99218750
 20
6550.31250000
  0
VERTEX
  8
0
 10
4802.06250000
 20
6577.10156250
  0
VERTEX
  8
0
 10
4793.13281250
 20
6594.96093750
  0
VERTEX
  8
0
 10
4775.27343750
 20
6612.82031250
  0
VERTEX
  8
0
 10
4748.48437500
 20
6621.75000000
  0
VERTEX
  8
0
 10
4712.76562500
 20
6621.75000000
  0
VERTEX
  8
0
 10
4685.97656250
 20
6612.82031250
  0
VERTEX
  8
0
 10
4668.11718750
 20
6594.96093750
  0
VERTEX
  8
0
 10
4650.25781250
 20
6550.31250000
  0
VERTEX
  8
0
 10
4650.25781250
 20
6407.43750000
  0
VERTEX
  8
0
 10
4659.18750000
 20
6380.64843750
  0
VERTEX
  8
0
 10
4668.11718750
 20
6362.78906250
  0
VERTEX
  8
0
 10
4685.97656250
 20
6344.92968750
  0
VERTEX
  8
0
 10
4712.76562500
 20
6336.00000000
  0
VERTEX
  8
0
 10
4748.48437500
 20
6336.00000000
  0
VERTEX
  8
0
 10
4775.27343750
 20
6344.92968750
  0
VERTEX
  8
0
 10
4793.13281250
 20
6362.78906250
  0
VERTEX
  8
0
 10
4802.06250000
 20
6380.64843750
  0
VERTEX
  8
0
 10
4810.99218750
 20
6407.43750000
  0
VERTEX
  8
0
 10
4810.99218750
 20
6550.31250000
  0
SEQEND
  0
POLYLINE
  8
Default Layer
 66
   1
 39
0.000000
 70
    0
  0
VERTEX
  8
0
 10
5052.09375000
 20
6336.00000000
  0
VERTEX
  8
0
 10
5052.09375000
 20
6621.75000000
  0
SEQEND
  0
POLYLINE
  8
Default Layer
 66
   1
 39
0.000000
 70
    0
  0
VERTEX
  8
0
 10
5052.09375000
 20
6336.00000000
  0
VERTEX
  8
0
 10
5212.82812500
 20
6336.00000000
  0
SEQEND
  0
POLYLINE
  8
Default Layer
 66
   1
 39
0.000000
 70
    0
  0
VERTEX
  8
0
 10
5266.40625000
 20
6621.75000000
  0
VERTEX
  8
0
 10
5311.05468750
 20
6336.00000000
  0
VERTEX
  8
0
 10
5346.77343750
 20
6621.75000000
  0
VERTEX
  8
0
 10
5382.49218750
 20
6336.00000000
  0
VERTEX
  8
0
 10
5427.14062500
 20
6621.75000000
  0
SEQEND
  0
POLYLINE
  8
Default Layer
 66
   1
 39
0.000000
 70
    0
  0
VERTEX
  8
0
 10
5480.71875000
 20
6336.00000000
  0
VERTEX
  8
0
 10
5480.71875000
 20
6621.75000000
  0
VERTEX
  8
0
 10
5570.01562500
 20
6621.75000000
  0
VERTEX
  8
0
 10
5596.80468750
 20
6612.82031250
  0
VERTEX
  8
0
 10
5614.66406250
 20
6603.89062500
  0
VERTEX
  8
0
 10
5623.59375000
 20
6594.96093750
  0
VERTEX
  8
0
 10
5632.52343750
 20
6568.17187500
  0
VERTEX
  8
0
 10
5632.52343750
 20
6541.38281250
  0
VERTEX
  8
0
 10
5623.59375000
 20
6523.52343750
  0
VERTEX
  8
0
 10
5614.66406250
 20
6505.66406250
  0
VERTEX
  8
0
 10
5596.80468750
 20
6496.73437500
  0
VERTEX
  8
0
 10
5570.01562500
 20
6487.80468750
  0
VERTEX
  8
0
 10
5480.71875000
 20
6487.80468750
  0
SEQEND
  0
POLYLINE
  8
Default Layer
 66
   1
 39
0.000000
 70
    0
  0
VERTEX
  8
0
 10
5570.01562500
 20
6487.80468750
  0
VERTEX
  8
0
 10
5596.80468750
 20
6478.87500000
  0
VERTEX
  8
0
 10
5614.66406250
 20
6469.94531250
  0
VERTEX
  8
0
 10
5632.52343750
 20
6452.08593750
  0
VERTEX
  8
0
 10
5641.45312500
 20
6425.29687500
  0
VERTEX
  8
0
 10
5641.45312500
 20
6398.50781250
  0
VERTEX
  8
0
 10
5632.52343750
 20
6371.71875000
  0
VERTEX
  8
0
 10
5614.66406250
 20
6353.85937500
  0
VERTEX
  8
0
 10
5596.80468750
 20
6344.92968750
  0
VERTEX
  8
0
 10
5570.01562500
 20
6336.00000000
  0
VERTEX
  8
0
 10
5480.71875000
 20
6336.00000000
  0
SEQEND
  0
ENDSEC
  0
EOF
