  0
SECTION
  2
HEADER
  9
$ACADVER
  1
AC1009
  9
$EXTMIN
 10
-39.80789175
 20
8.36516174
 30
0.0
  9
$EXTMAX
 10
2834.38330976
 20
2436.61188119
 30
0.0
  0
ENDSEC
  0
SECTION
  2
TABLES
  0
TABLE
  2
LAYER
 70
2
 0
LAYER
 2
0
 70
0
 62
1
 6
CONTINUOUS
 0
LAYER
 2
Default Layer
 70
0
 62
1
 6
CONTINUOUS
 0
ENDTAB
 0
ENDSEC
  0
SECTION
  2
ENTITIES
  0
POLYLINE
  8
0
 66
   1
 39
0.000000
 70
    1
  0
VERTEX
  8
0
 10
1389.01426146
 20
8.36516174
  0
VERTEX
  8
0
 10
1389.01426146
 20
121.99396174
  0
VERTEX
  8
0
 10
1546.80916146
 20
121.99396174
  0
VERTEX
  8
0
 10
1545.70186616
 20
130.26499058
  0
VERTEX
  8
0
 10
1544.56443473
 20
138.65302491
  0
VERTEX
  8
0
 10
1542.27149018
 20
155.49929687
  0
VERTEX
  8
0
 10
1541.15214043
 20
163.81712791
  0
VERTEX
  8
0
 10
1540.07498127
 20
171.97115126
  0
VERTEX
  8
0
 10
1539.05809439
 20
179.89116364
  0
VERTEX
  8
0
 10
1538.11956146
 20
187.50696174
  0
VERTEX
  8
0
 10
1537.24782833
 20
194.94970906
  0
VERTEX
  8
0
 10
1536.41352758
 20
202.39671596
  0
VERTEX
  8
0
 10
1535.60802096
 20
209.84699947
  0
VERTEX
  8
0
 10
1534.82267023
 20
217.29957661
  0
VERTEX
  8
0
 10
1533.27788350
 20
232.20767981
  0
VERTEX
  8
0
 10
1532.50117101
 20
239.66123993
  0
VERTEX
  8
0
 10
1531.71006146
 20
247.11316174
  0
VERTEX
  8
0
 10
1530.20099059
 20
261.77863762
  0
VERTEX
  8
0
 10
1528.67332249
 20
276.44233074
  0
VERTEX
  8
0
 10
1527.91994938
 20
283.77518010
  0
VERTEX
  8
0
 10
1527.18284887
 20
291.10958937
  0
VERTEX
  8
0
 10
1526.46899490
 20
298.44622707
  0
VERTEX
  8
0
 10
1525.78536146
 20
305.78576174
  0
VERTEX
  8
0
 10
1524.35536272
 20
321.78390256
  0
VERTEX
  8
0
 10
1523.59949213
 20
330.50394359
  0
VERTEX
  8
0
 10
1522.84511188
 20
339.46834194
  0
VERTEX
  8
0
 10
1522.11377533
 20
348.49988025
  0
VERTEX
  8
0
 10
1521.42703584
 20
357.42134121
  0
VERTEX
  8
0
 10
1520.80644676
 20
366.05550749
  0
VERTEX
  8
0
 10
1520.52769405
 20
370.20947470
  0
VERTEX
  8
0
 10
1520.27356146
 20
374.22516174
  0
VERTEX
  8
0
 10
1519.80478995
 20
382.10467324
  0
VERTEX
  8
0
 10
1519.36555402
 20
389.98643748
  0
VERTEX
  8
0
 10
1518.96092467
 20
397.87027644
  0
VERTEX
  8
0
 10
1518.59597289
 20
405.75601212
  0
VERTEX
  8
0
 10
1518.27576967
 20
413.64346650
  0
VERTEX
  8
0
 10
1518.00538603
 20
421.53246157
  0
VERTEX
  8
0
 10
1517.78989296
 20
429.42281932
  0
VERTEX
  8
0
 10
1517.70431508
 20
433.36845357
  0
VERTEX
  8
0
 10
1517.63436146
 20
437.31436174
  0
VERTEX
  8
0
 10
1517.58286207
 20
441.33462123
  0
VERTEX
  8
0
 10
1517.55122306
 20
445.48954180
  0
VERTEX
  8
0
 10
1517.53794252
 20
449.75844974
  0
VERTEX
  8
0
 10
1517.54151859
 20
454.12067133
  0
VERTEX
  8
0
 10
1517.59323301
 20
463.04236058
  0
VERTEX
  8
0
 10
1517.69435126
 20
472.08921981
  0
VERTEX
  8
0
 10
1517.83285829
 20
481.09585928
  0
VERTEX
  8
0
 10
1517.99673903
 20
489.89688925
  0
VERTEX
  8
0
 10
1518.17397844
 20
498.32691999
  0
VERTEX
  8
0
 10
1518.35256146
 20
506.22056174
  0
VERTEX
  8
0
 10
1518.54195092
 20
513.95076600
  0
VERTEX
  8
0
 10
1518.75841848
 20
521.90917712
  0
VERTEX
  8
0
 10
1519.00016230
 20
529.95844462
  0
VERTEX
  8
0
 10
1519.26538056
 20
537.96121804
  0
VERTEX
  8
0
 10
1519.55227143
 20
545.78014693
  0
VERTEX
  8
0
 10
1519.85903309
 20
553.27788082
  0
VERTEX
  8
0
 10
1520.18386371
 20
560.31706924
  0
VERTEX
  8
0
 10
1520.52496146
 20
566.76036174
  0
VERTEX
  8
0
 10
1520.89295391
 20
573.02054688
  0
VERTEX
  8
0
 10
1521.29784756
 20
579.50956834
  0
VERTEX
  8
0
 10
1521.73690896
 20
586.08880828
  0
VERTEX
  8
0
 10
1522.20740466
 20
592.61964890
  0
VERTEX
  8
0
 10
1522.70660121
 20
598.96347238
  0
VERTEX
  8
0
 10
1522.96610810
 20
602.02193462
  0
VERTEX
  8
0
 10
1523.23176516
 20
604.98166089
  0
VERTEX
  8
0
 10
1523.50323071
 20
607.82532397
  0
VERTEX
  8
0
 10
1523.78016306
 20
610.53559662
  0
VERTEX
  8
0
 10
1524.06222054
 20
613.09515162
  0
VERTEX
  8
0
 10
1524.34906146
 20
615.48666174
  0
VERTEX
  8
0
 10
1524.66402491
 20
617.88859935
  0
VERTEX
  8
0
 10
1525.02556896
 20
620.46399512
  0
VERTEX
  8
0
 10
1525.42603043
 20
623.17235925
  0
VERTEX
  8
0
 10
1525.85774611
 20
625.97320196
  0
VERTEX
  8
0
 10
1526.78428738
 20
631.69036399
  0
VERTEX
  8
0
 10
1527.74388721
 20
637.29156291
  0
VERTEX
  8
0
 10
1528.67524008
 20
642.45288043
  0
VERTEX
  8
0
 10
1529.51704043
 20
646.85039827
  0
VERTEX
  8
0
 10
1529.88520044
 20
648.66150784
  0
VERTEX
  8
0
 10
1530.20798274
 20
650.16019814
  0
VERTEX
  8
0
 10
1530.47772414
 20
651.30597936
  0
VERTEX
  8
0
 10
1530.68676146
 20
652.05836174
  0
VERTEX
  8
0
 10
1531.05142507
 20
653.14293356
  0
VERTEX
  8
0
 10
1531.44455122
 20
654.22343104
  0
VERTEX
  8
0
 10
1531.87162814
 20
655.29314539
  0
VERTEX
  8
0
 10
1532.33814402
 20
656.34536778
  0
VERTEX
  8
0
 10
1532.84958708
 20
657.37338943
  0
VERTEX
  8
0
 10
1533.12387137
 20
657.87622846
  0
VERTEX
  8
0
 10
1533.41144553
 20
658.37050151
  0
VERTEX
  8
0
 10
1533.71299560
 20
658.85536996
  0
VERTEX
  8
0
 10
1534.02920759
 20
659.32999521
  0
VERTEX
  8
0
 10
1534.36076753
 20
659.79353867
  0
VERTEX
  8
0
 10
1534.70836146
 20
660.24516174
  0
VERTEX
  8
0
 10
1535.46114152
 20
661.14951783
  0
VERTEX
  8
0
 10
1536.29169398
 20
662.06608707
  0
VERTEX
  8
0
 10
1536.73405858
 20
662.52193647
  0
VERTEX
  8
0
 10
1537.19337476
 20
662.97242096
  0
VERTEX
  8
0
 10
1537.66881201
 20
663.41473448
  0
VERTEX
  8
0
 10
1538.15953982
 20
663.84607096
  0
VERTEX
  8
0
 10
1538.66472767
 20
664.26362435
  0
VERTEX
  8
0
 10
1539.18354507
 20
664.66458856
  0
VERTEX
  8
0
 10
1539.71516151
 20
665.04615755
  0
VERTEX
  8
0
 10
1540.25874647
 20
665.40552524
  0
VERTEX
  8
0
 10
1540.81346946
 20
665.73988557
  0
VERTEX
  8
0
 10
1541.37849996
 20
666.04643247
  0
VERTEX
  8
0
 10
1541.95300746
 20
666.32235988
  0
VERTEX
  8
0
 10
1542.53616146
 20
666.56486174
  0
VERTEX
  8
0
 10
1542.89623223
 20
666.66963467
  0
VERTEX
  8
0
 10
1543.38351032
 20
666.75984439
  0
VERTEX
  8
0
 10
1543.98939501
 20
666.83660792
  0
VERTEX
  8
0
 10
1544.70528556
 20
666.90104224
  0
VERTEX
  8
0
 10
1545.52258126
 20
666.95426436
  0
VERTEX
  8
0
 10
1546.43268138
 20
666.99739127
  0
VERTEX
  8
0
 10
1548.49689198
 20
667.05782747
  0
VERTEX
  8
0
 10
1550.82911155
 20
667.09128683
  0
VERTEX
  8
0
 10
1553.36053432
 20
667.10670535
  0
VERTEX
  8
0
 10
1558.74576620
 20
667.11916380
  0
VERTEX
  8
0
 10
1561.46196372
 20
667.13407571
  0
VERTEX
  8
0
 10
1564.10214124
 20
667.16669074
  0
VERTEX
  8
0
 10
1566.59749294
 20
667.22594487
  0
VERTEX
  8
0
 10
1568.87921305
 20
667.32077409
  0
VERTEX
  8
0
 10
1569.91845944
 20
667.38432186
  0
VERTEX
  8
0
 10
1570.87849575
 20
667.46011440
  0
VERTEX
  8
0
 10
1571.75072126
 20
667.54926871
  0
VERTEX
  8
0
 10
1572.52653525
 20
667.65290179
  0
VERTEX
  8
0
 10
1573.19733699
 20
667.77213063
  0
VERTEX
  8
0
 10
1573.75452575
 20
667.90807224
  0
VERTEX
  8
0
 10
1573.98782754
 20
667.98265939
  0
VERTEX
  8
0
 10
1574.18950082
 20
668.06184361
  0
VERTEX
  8
0
 10
1574.35847048
 20
668.14576452
  0
VERTEX
  8
0
 10
1574.49366146
 20
668.23456174
  0
VERTEX
  8
0
 10
1574.72139709
 20
668.42317315
  0
VERTEX
  8
0
 10
1574.93329348
 20
668.62351019
  0
VERTEX
  8
0
 10
1575.13004445
 20
668.83501863
  0
VERTEX
  8
0
 10
1575.31234382
 20
669.05714426
  0
VERTEX
  8
0
 10
1575.48088539
 20
669.28933282
  0
VERTEX
  8
0
 10
1575.63636299
 20
669.53103010
  0
VERTEX
  8
0
 10
1575.91090150
 20
670.04073389
  0
VERTEX
  8
0
 10
1576.14150989
 20
670.58182178
  0
VERTEX
  8
0
 10
1576.33373866
 20
671.14985994
  0
VERTEX
  8
0
 10
1576.49313833
 20
671.74041452
  0
VERTEX
  8
0
 10
1576.62525942
 20
672.34905170
  0
VERTEX
  8
0
 10
1576.73565245
 20
672.97133762
  0
VERTEX
  8
0
 10
1576.82986794
 20
673.60283846
  0
VERTEX
  8
0
 10
1576.99196835
 20
674.87574953
  0
VERTEX
  8
0
 10
1577.15596481
 20
676.13231419
  0
VERTEX
  8
0
 10
1577.25255035
 20
676.74338202
  0
VERTEX
  8
0
 10
1577.36626146
 20
677.33706174
  0
VERTEX
  8
0
 10
1577.52807615
 20
678.27514855
  0
VERTEX
  8
0
 10
1577.75956721
 20
679.87438766
  0
VERTEX
  8
0
 10
1578.39734918
 20
684.76828728
  0
VERTEX
  8
0
 10
1579.21114879
 20
691.44268969
  0
VERTEX
  8
0
 10
1580.13250747
 20
699.32152399
  0
VERTEX
  8
0
 10
1581.09296665
 20
707.82871925
  0
VERTEX
  8
0
 10
1582.02406776
 20
716.38820457
  0
VERTEX
  8
0
 10
1582.85735222
 20
724.42390904
  0
VERTEX
  8
0
 10
1583.21591990
 20
728.06532129
  0
VERTEX
  8
0
 10
1583.52436146
 20
731.35976174
  0
VERTEX
  8
0
 10
1583.79619134
 20
734.45739959
  0
VERTEX
  8
0
 10
1584.05175096
 20
737.55632140
  0
VERTEX
  8
0
 10
1584.52079195
 20
743.75748563
  0
VERTEX
  8
0
 10
1584.94494947
 20
749.96219183
  0
VERTEX
  8
0
 10
1585.33768856
 20
756.16937742
  0
VERTEX
  8
0
 10
1586.08277162
 20
768.58693637
  0
VERTEX
  8
0
 10
1586.46204567
 20
774.79518455
  0
VERTEX
  8
0
 10
1586.86376146
 20
781.00166174
  0
VERTEX
  8
0
 10
1587.42617387
 20
788.13028077
  0
VERTEX
  8
0
 10
1588.01617544
 20
795.25714127
  0
VERTEX
  8
0
 10
1589.21273209
 20
809.50980714
  0
VERTEX
  8
0
 10
1589.78618017
 20
816.63772276
  0
VERTEX
  8
0
 10
1590.32100342
 20
823.76810032
  0
VERTEX
  8
0
 10
1590.56875777
 20
827.33454205
  0
VERTEX
  8
0
 10
1590.80064835
 20
830.90199494
  0
VERTEX
  8
0
 10
1591.01460597
 20
834.47059087
  0
VERTEX
  8
0
 10
1591.20856146
 20
838.04046174
  0
VERTEX
  8
0
 10
1591.38254253
 20
841.66495648
  0
VERTEX
  8
0
 10
1591.53915425
 20
845.39037581
  0
VERTEX
  8
0
 10
1591.68019347
 20
849.20627923
  0
VERTEX
  8
0
 10
1591.80745699
 20
853.10222629
  0
VERTEX
  8
0
 10
1592.02784431
 20
861.09248939
  0
VERTEX
  8
0
 10
1592.21469082
 20
869.27764134
  0
VERTEX
  8
0
 10
1592.54525997
 20
885.89851659
  0
VERTEX
  8
0
 10
1592.71773186
 20
894.16719232
  0
VERTEX
  8
0
 10
1592.91416146
 20
902.29666174
  0
VERTEX
  8
0
 10
1593.65026146
 20
942.44106174
  0
VERTEX
  8
0
 10
-33.68893854
 20
942.44106174
  0
VERTEX
  8
0
 10
-33.71522613
 20
908.16655820
  0
VERTEX
  8
0
 10
-33.77587099
 20
869.16183533
  0
VERTEX
  8
0
 10
-33.91777507
 20
788.31425797
  0
VERTEX
  8
0
 10
-33.95780557
 20
752.14766670
  0
VERTEX
  8
0
 10
-33.96107165
 20
736.37035299
  0
VERTEX
  8
0
 10
-33.94973589
 20
722.60338250
  0
VERTEX
  8
0
 10
-33.92122149
 20
711.20152168
  0
VERTEX
  8
0
 10
-33.87295167
 20
702.51953698
  0
VERTEX
  8
0
 10
-33.84060322
 20
699.30936269
  0
VERTEX
  8
0
 10
-33.80234962
 20
696.91219485
  0
VERTEX
  8
0
 10
-33.75786876
 20
695.37237926
  0
VERTEX
  8
0
 10
-33.73319245
 20
694.93783663
  0
VERTEX
  8
0
 10
-33.70683854
 20
694.73426174
  0
VERTEX
  8
0
 10
-33.59041686
 20
694.39110412
  0
VERTEX
  8
0
 10
-33.45918070
 20
694.05190564
  0
VERTEX
  8
0
 10
-33.15454411
 20
693.38735481
  0
VERTEX
  8
0
 10
-32.79748714
 20
692.74454678
  0
VERTEX
  8
0
 10
-32.39256813
 20
692.12741906
  0
VERTEX
  8
0
 10
-31.94434541
 20
691.53990918
  0
VERTEX
  8
0
 10
-31.45737735
 20
690.98595465
  0
VERTEX
  8
0
 10
-30.93622228
 20
690.46949300
  0
VERTEX
  8
0
 10
-30.38543854
 20
689.99446174
  0
VERTEX
  8
0
 10
-30.07900056
 20
689.76521209
  0
VERTEX
  8
0
 10
-29.72668731
 20
689.53153334
  0
VERTEX
  8
0
 10
-29.33288188
 20
689.29502547
  0
VERTEX
  8
0
 10
-28.90196740
 20
689.05728845
  0
VERTEX
  8
0
 10
-27.94634370
 20
688.58452688
  0
VERTEX
  8
0
 10
-26.89488106
 20
688.12604842
  0
VERTEX
  8
0
 10
-25.78264436
 20
687.69465288
  0
VERTEX
  8
0
 10
-24.64469846
 20
687.30314005
  0
VERTEX
  8
0
 10
-23.51610824
 20
686.96430974
  0
VERTEX
  8
0
 10
-22.43193854
 20
686.69096174
  0
VERTEX
  8
0
 10
-22.09470656
 20
686.63285037
  0
VERTEX
  8
0
 10
-21.61454967
 20
686.57658859
  0
VERTEX
  8
0
 10
-20.26388221
 20
686.46902709
  0
VERTEX
  8
0
 10
-18.45677822
 20
686.36710380
  0
VERTEX
  8
0
 10
-16.27007977
 20
686.26964527
  0
VERTEX
  8
0
 10
-11.06526769
 20
686.08342873
  0
VERTEX
  8
0
 10
-5.26418242
 20
685.90098995
  0
VERTEX
  8
0
 10
0.51843958
 20
685.71294140
  0
VERTEX
  8
0
 10
3.21072171
 20
685.61387985
  0
VERTEX
  8
0
 10
5.66786186
 20
685.50989553
  0
VERTEX
  8
0
 10
7.81301797
 20
685.39981500
  0
VERTEX
  8
0
 10
9.56934797
 20
685.28246482
  0
VERTEX
  8
0
 10
10.86000982
 20
685.15667155
  0
VERTEX
  8
0
 10
11.30670205
 20
685.09024205
  0
VERTEX
  8
0
 10
11.60816146
 20
685.02126174
  0
VERTEX
  8
0
 10
12.50748626
 20
684.71269192
  0
VERTEX
  8
0
 10
13.39510076
 20
684.34954914
  0
VERTEX
  8
0
 10
14.26316014
 20
683.93202806
  0
VERTEX
  8
0
 10
14.68740515
 20
683.70293650
  0
VERTEX
  8
0
 10
15.10381958
 20
683.46032337
  0
VERTEX
  8
0
 10
15.51142281
 20
683.20421299
  0
VERTEX
  8
0
 10
15.90923425
 20
682.93462972
  0
VERTEX
  8
0
 10
16.29627329
 20
682.65159787
  0
VERTEX
  8
0
 10
16.67155933
 20
682.35514178
  0
VERTEX
  8
0
 10
17.03411177
 20
682.04528579
  0
VERTEX
  8
0
 10
17.38295001
 20
681.72205423
  0
VERTEX
  8
0
 10
17.71709344
 20
681.38547144
  0
VERTEX
  8
0
 10
18.03556146
 20
681.03556174
  0
VERTEX
  8
0
 10
18.33842372
 20
680.66328890
  0
VERTEX
  8
0
 10
18.62688183
 20
680.26144707
  0
VERTEX
  8
0
 10
18.90165312
 20
679.83280614
  0
VERTEX
  8
0
 10
19.16345491
 20
679.38013602
  0
VERTEX
  8
0
 10
19.41300452
 20
678.90620660
  0
VERTEX
  8
0
 10
19.65101927
 20
678.41378780
  0
VERTEX
  8
0
 10
20.09531353
 20
677.38456163
  0
VERTEX
  8
0
 10
20.50207628
 20
676.31461673
  0
VERTEX
  8
0
 10
20.87704612
 20
675.22611230
  0
VERTEX
  8
0
 10
21.22596165
 20
674.14120757
  0
VERTEX
  8
0
 10
21.55456146
 20
673.08206174
  0
VERTEX
  8
0
 10
21.72021641
 20
672.50765948
  0
VERTEX
  8
0
 10
21.89568844
 20
671.83035745
  0
VERTEX
  8
0
 10
22.26925567
 20
670.20920270
  0
VERTEX
  8
0
 10
22.66160702
 20
668.30289477
  0
VERTEX
  8
0
 10
23.05908638
 20
666.19573092
  0
VERTEX
  8
0
 10
23.44803763
 20
663.97200842
  0
VERTEX
  8
0
 10
23.81480463
 20
661.71602454
  0
VERTEX
  8
0
 10
24.14573128
 20
659.51207656
  0
VERTEX
  8
0
 10
24.42716146
 20
657.44446174
  0
VERTEX
  8
0
 10
24.57142377
 20
656.16064923
  0
VERTEX
  8
0
 10
24.74931626
 20
654.31900304
  0
VERTEX
  8
0
 10
25.18940451
 20
649.19286276
  0
VERTEX
  8
0
 10
25.71425166
 20
642.52734723
  0
VERTEX
  8
0
 10
26.29068315
 20
634.78376276
  0
VERTEX
  8
0
 10
26.88552443
 20
626.42341566
  0
VERTEX
  8
0
 10
27.46560094
 20
617.90761225
  0
VERTEX
  8
0
 10
27.99773814
 20
609.69765884
  0
VERTEX
  8
0
 10
28.44876146
 20
602.25486174
  0
VERTEX
  8
0
 10
28.84415398
 20
595.18787548
  0
VERTEX
  8
0
 10
29.22852440
 20
587.84075197
  0
VERTEX
  8
0
 10
29.59738664
 20
580.27789357
  0
VERTEX
  8
0
 10
29.94625458
 20
572.56370269
  0
VERTEX
  8
0
 10
30.27064214
 20
564.76258168
  0
VERTEX
  8
0
 10
30.56606320
 20
556.93893293
  0
VERTEX
  8
0
 10
30.82803167
 20
549.15715883
  0
VERTEX
  8
0
 10
31.05206146
 20
541.48166174
  0
VERTEX
  8
0
 10
31.24299093
 20
533.69218884
  0
VERTEX
  8
0
 10
31.40758098
 20
525.59418242
  0
VERTEX
  8
0
 10
31.54422925
 20
517.29058750
  0
VERTEX
  8
0
 10
31.65133338
 20
508.88434911
  0
VERTEX
  8
0
 10
31.72729101
 20
500.47841231
  0
VERTEX
  8
0
 10
31.77049981
 20
492.17572212
  0
VERTEX
  8
0
 10
31.77935741
 20
484.07922359
  0
VERTEX
  8
0
 10
31.75226146
 20
476.29186174
  0
VERTEX
  8
0
 10
31.67684079
 20
468.69381180
  0
VERTEX
  8
0
 10
31.54974282
 20
461.09650469
  0
VERTEX
  8
0
 10
31.38289308
 20
453.49976898
  0
VERTEX
  8
0
 10
31.18821711
 20
445.90343325
  0
VERTEX
  8
0
 10
30.76308858
 20
430.71127606
  0
VERTEX
  8
0
 10
30.55648708
 20
423.11511175
  0
VERTEX
  8
0
 10
30.36976146
 20
415.51866174
  0
VERTEX
  8
0
 10
30.29937281
 20
406.86898806
  0
VERTEX
  8
0
 10
30.25987537
 20
397.96213769
  0
VERTEX
  8
0
 10
30.19941524
 20
379.99413095
  0
VERTEX
  8
0
 10
30.14138307
 20
371.24158660
  0
VERTEX
  8
0
 10
30.09730752
 20
366.99068805
  0
VERTEX
  8
0
 10
30.04010321
 20
362.84908960
  0
VERTEX
  8
0
 10
29.96745328
 20
358.83607949
  0
VERTEX
  8
0
 10
29.87704091
 20
354.97094598
  0
VERTEX
  8
0
 10
29.76654925
 20
351.27297731
  0
VERTEX
  8
0
 10
29.63366146
 20
347.76146174
  0
VERTEX
  8
0
 10
29.46848807
 20
344.29414927
  0
VERTEX
  8
0
 10
29.26630799
 20
340.73082304
  0
VERTEX
  8
0
 10
29.03255687
 20
337.09382100
  0
VERTEX
  8
0
 10
28.77267040
 20
333.40548110
  0
VERTEX
  8
0
 10
28.49208426
 20
329.68814128
  0
VERTEX
  8
0
 10
28.19623411
 20
325.96413949
  0
VERTEX
  8
0
 10
27.58048453
 20
318.58550179
  0
VERTEX
  8
0
 10
26.96890706
 20
311.44827158
  0
VERTEX
  8
0
 10
26.40498712
 20
304.73115245
  0
VERTEX
  8
0
 10
26.15448792
 20
301.58597941
  0
VERTEX
  8
0
 10
25.93221012
 20
298.61284798
  0
VERTEX
  8
0
 10
25.74358941
 20
295.83409611
  0
VERTEX
  8
0
 10
25.59406146
 20
293.27206174
  0
VERTEX
  8
0
 10
25.33858315
 20
287.98524273
  0
VERTEX
  8
0
 10
25.09190558
 20
282.13473812
  0
VERTEX
  8
0
 10
24.86464671
 20
276.05809879
  0
VERTEX
  8
0
 10
24.66742450
 20
270.09287561
  0
VERTEX
  8
0
 10
24.51085691
 20
264.57661944
  0
VERTEX
  8
0
 10
24.40556190
 20
259.84688116
  0
VERTEX
  8
0
 10
24.36215742
 20
256.24121164
  0
VERTEX
  8
0
 10
24.36698226
 20
254.96538731
  0
VERTEX
  8
0
 10
24.39126146
 20
254.09716174
  0
VERTEX
  8
0
 10
24.51577335
 20
251.47699735
  0
VERTEX
  8
0
 10
24.59337116
 20
250.16182676
  0
VERTEX
  8
0
 10
24.70368963
 20
248.85121964
  0
VERTEX
  8
0
 10
24.77639086
 20
248.19949200
  0
VERTEX
  8
0
 10
24.86359834
 20
247.55114277
  0
VERTEX
  8
0
 10
24.96742076
 20
246.90691782
  0
VERTEX
  8
0
 10
25.08996683
 20
246.26756297
  0
VERTEX
  8
0
 10
25.23334524
 20
245.63382409
  0
VERTEX
  8
0
 10
25.39966468
 20
245.00644703
  0
VERTEX
  8
0
 10
25.59103386
 20
244.38617763
  0
VERTEX
  8
0
 10
25.80956146
 20
243.77376174
  0
VERTEX
  8
0
 10
26.06212267
 20
243.16065808
  0
VERTEX
  8
0
 10
26.35210892
 20
242.53880804
  0
VERTEX
  8
0
 10
26.67640327
 20
241.90968148
  0
VERTEX
  8
0
 10
27.03188880
 20
241.27474826
  0
VERTEX
  8
0
 10
27.41544855
 20
240.63547826
  0
VERTEX
  8
0
 10
27.82396560
 20
239.99334134
  0
VERTEX
  8
0
 10
28.25432301
 20
239.34980736
  0
VERTEX
  8
0
 10
28.70340384
 20
238.70634619
  0
VERTEX
  8
0
 10
29.64526804
 20
237.42552173
  0
VERTEX
  8
0
 10
30.62462270
 20
236.16262689
  0
VERTEX
  8
0
 10
31.61653233
 20
234.92942058
  0
VERTEX
  8
0
 10
32.59606146
 20
233.73766174
  0
VERTEX
  8
0
 10
33.09695335
 20
233.15253225
  0
VERTEX
  8
0
 10
33.63192637
 20
232.56417447
  0
VERTEX
  8
0
 10
34.19696713
 20
231.97246118
  0
VERTEX
  8
0
 10
34.78806221
 20
231.37726519
  0
VERTEX
  8
0
 10
36.03236174
 20
230.17591631
  0
VERTEX
  8
0
 10
37.33271772
 20
228.95911022
  0
VERTEX
  8
0
 10
38.65702292
 20
227.72582932
  0
VERTEX
  8
0
 10
39.97317010
 20
226.47505601
  0
VERTEX
  8
0
 10
41.24905202
 20
225.20577268
  0
VERTEX
  8
0
 10
41.86186000
 20
224.56387176
  0
VERTEX
  8
0
 10
42.45256146
 20
223.91696174
  0
VERTEX
  8
0
 10
43.88786644
 20
222.26904588
  0
VERTEX
  8
0
 10
45.79304561
 20
220.01960864
  0
VERTEX
  8
0
 10
48.03685757
 20
217.31337369
  0
VERTEX
  8
0
 10
50.48806097
 20
214.29506471
  0
VERTEX
  8
0
 10
53.01541443
 20
211.10940535
  0
VERTEX
  8
0
 10
54.26663451
 20
209.49904543
  0
VERTEX
  8
0
 10
55.48767658
 20
207.90111929
  0
VERTEX
  8
0
 10
56.66213548
 20
206.33371740
  0
VERTEX
  8
0
 10
57.77360605
 20
204.81493020
  0
VERTEX
  8
0
 10
58.80568309
 20
203.36284816
  0
VERTEX
  8
0
 10
59.74196146
 20
201.99556174
  0
VERTEX
  8
0
 10
60.61659796
 20
200.67122666
  0
VERTEX
  8
0
 10
61.47513777
 20
199.33632049
  0
VERTEX
  8
0
 10
62.31825826
 20
197.99141641
  0
VERTEX
  8
0
 10
63.14663676
 20
196.63708764
  0
VERTEX
  8
0
 10
63.96095065
 20
195.27390738
  0
VERTEX
  8
0
 10
64.76187726
 20
193.90244882
  0
VERTEX
  8
0
 10
66.32627809
 20
191.13698964
  0
VERTEX
  8
0
 10
67.84525809
 20
188.34529573
  0
VERTEX
  8
0
 10
69.32423610
 20
185.53195270
  0
VERTEX
  8
0
 10
70.76863094
 20
182.70154616
  0
VERTEX
  8
0
 10
72.18386146
 20
179.85866174
  0
VERTEX
  8
0
 10
73.59961587
 20
176.93221637
  0
VERTEX
  8
0
 10
75.02829108
 20
173.87595376
  0
VERTEX
  8
0
 10
76.44936892
 20
170.73169974
  0
VERTEX
  8
0
 10
77.84233120
 20
167.54128012
  0
VERTEX
  8
0
 10
79.18665977
 20
164.34652069
  0
VERTEX
  8
0
 10
80.46183645
 20
161.18924728
  0
VERTEX
  8
0
 10
81.64734307
 20
158.11128569
  0
VERTEX
  8
0
 10
82.20005818
 20
156.61511740
  0
VERTEX
  8
0
 10
82.72266146
 20
155.15446174
  0
VERTEX
  8
0
 10
83.23381964
 20
153.65677156
  0
VERTEX
  8
0
 10
83.75113712
 20
152.06059111
  0
VERTEX
  8
0
 10
84.27045560
 20
150.38778570
  0
VERTEX
  8
0
 10
84.78761677
 20
148.66022064
  0
VERTEX
  8
0
 10
85.79883403
 20
145.12827283
  0
VERTEX
  8
0
 10
86.75152252
 20
141.63967020
  0
VERTEX
  8
0
 10
87.61241588
 20
138.36933527
  0
VERTEX
  8
0
 10
88.34824774
 20
135.49219054
  0
VERTEX
  8
0
 10
89.31166146
 20
131.61716174
  0
VERTEX
  8
0
 10
89.58421418
 20
130.40591557
  0
VERTEX
  8
0
 10
89.84490472
 20
129.08682167
  0
VERTEX
  8
0
 10
90.33717918
 20
126.37889821
  0
VERTEX
  8
0
 10
90.57200310
 20
125.11697245
  0
VERTEX
  8
0
 10
90.80144478
 20
124.00100652
  0
VERTEX
  8
0
 10
91.02712424
 20
123.09445232
  0
VERTEX
  8
0
 10
91.13905938
 20
122.73953333
  0
VERTEX
  8
0
 10
91.25066146
 20
122.46076174
  0
VERTEX
  8
0
 10
91.49155927
 20
121.99388752
  0
VERTEX
  8
0
 10
91.76533142
 20
121.54471681
  0
VERTEX
  8
0
 10
92.06761427
 20
121.11210309
  0
VERTEX
  8
0
 10
92.39404418
 20
120.69489986
  0
VERTEX
  8
0
 10
92.74025749
 20
120.29196061
  0
VERTEX
  8
0
 10
93.10189057
 20
119.90213885
  0
VERTEX
  8
0
 10
93.85396146
 20
119.15726174
  0
VERTEX
  8
0
 10
94.27609663
 20
118.76778825
  0
VERTEX
  8
0
 10
94.77153092
 20
118.33510326
  0
VERTEX
  8
0
 10
95.32762760
 20
117.87682124
  0
VERTEX
  8
0
 10
95.93174994
 20
117.41055664
  0
VERTEX
  8
0
 10
96.57126122
 20
116.95392393
  0
VERTEX
  8
0
 10
97.23352472
 20
116.52453757
  0
VERTEX
  8
0
 10
97.90590371
 20
116.14001202
  0
VERTEX
  8
0
 10
98.24193753
 20
115.97007657
  0
VERTEX
  8
0
 10
98.57576146
 20
115.81796174
  0
VERTEX
  8
0
 10
98.82775679
 20
115.73520351
  0
VERTEX
  8
0
 10
99.24457937
 20
115.63023008
  0
VERTEX
  8
0
 10
100.53088039
 20
115.35862173
  0
VERTEX
  8
0
 10
102.35101282
 20
115.01310494
  0
VERTEX
  8
0
 10
104.62132494
 20
114.60364792
  0
VERTEX
  8
0
 10
116.53133597
 20
112.52578220
  0
VERTEX
  8
0
 10
123.01247500
 20
111.36238196
  0
VERTEX
  8
0
 10
126.09179688
 20
110.78445380
  0
VERTEX
  8
0
 10
128.95208474
 20
110.22233125
  0
VERTEX
  8
0
 10
131.50968684
 20
109.68598254
  0
VERTEX
  8
0
 10
133.68095147
 20
109.18537590
  0
VERTEX
  8
0
 10
134.59556607
 20
108.95159093
  0
VERTEX
  8
0
 10
135.38222691
 20
108.73047956
  0
VERTEX
  8
0
 10
136.03047753
 20
108.52328782
  0
VERTEX
  8
0
 10
136.52986146
 20
108.33126174
  0
VERTEX
  8
0
 10
137.37223349
 20
107.95057658
  0
VERTEX
  8
0
 10
138.21198849
 20
107.54512054
  0
VERTEX
  8
0
 10
139.04687536
 20
107.11562534
  0
VERTEX
  8
0
 10
139.87464302
 20
106.66282272
  0
VERTEX
  8
0
 10
140.69304039
 20
106.18744440
  0
VERTEX
  8
0
 10
141.49981638
 20
105.69022212
  0
VERTEX
  8
0
 10
142.29271990
 20
105.17188761
  0
VERTEX
  8
0
 10
143.06949987
 20
104.63317259
  0
VERTEX
  8
0
 10
143.82790520
 20
104.07480879
  0
VERTEX
  8
0
 10
144.56568480
 20
103.49752794
  0
VERTEX
  8
0
 10
145.28058760
 20
102.90206178
  0
VERTEX
  8
0
 10
145.97036251
 20
102.28914203
  0
VERTEX
  8
0
 10
146.63275843
 20
101.65950042
  0
VERTEX
  8
0
 10
147.26552429
 20
101.01386869
  0
VERTEX
  8
0
 10
147.86640899
 20
100.35297855
  0
VERTEX
  8
0
 10
148.43316146
 20
99.67756174
  0
VERTEX
  8
0
 10
148.96822179
 20
98.98382877
  0
VERTEX
  8
0
 10
149.47593570
 20
98.26851696
  0
VERTEX
  8
0
 10
149.95691051
 20
97.53314826
  0
VERTEX
  8
0
 10
150.41175357
 20
96.77924460
  0
VERTEX
  8
0
 10
150.84107219
 20
96.00832793
  0
VERTEX
  8
0
 10
151.24547372
 20
95.22192019
  0
VERTEX
  8
0
 10
151.62556548
 20
94.42154333
  0
VERTEX
  8
0
 10
151.98195481
 20
93.60871929
  0
VERTEX
  8
0
 10
152.31524903
 20
92.78497002
  0
VERTEX
  8
0
 10
152.62605547
 20
91.95181745
  0
VERTEX
  8
0
 10
152.91498148
 20
91.11078353
  0
VERTEX
  8
0
 10
153.18263437
 20
90.26339021
  0
VERTEX
  8
0
 10
153.42962148
 20
89.41115943
  0
VERTEX
  8
0
 10
153.65655015
 20
88.55561313
  0
VERTEX
  8
0
 10
153.86402770
 20
87.69827325
  0
VERTEX
  8
0
 10
154.05266146
 20
86.84066174
  0
VERTEX
  8
0
 10
154.13684952
 20
86.28825916
  0
VERTEX
  8
0
 10
154.21034982
 20
85.49615062
  0
VERTEX
  8
0
 10
154.27368797
 20
84.47612496
  0
VERTEX
  8
0
 10
154.32738962
 20
83.23997098
  0
VERTEX
  8
0
 10
154.40798589
 20
80.16643336
  0
VERTEX
  8
0
 10
154.45634366
 20
76.36984828
  0
VERTEX
  8
0
 10
154.47666793
 20
71.94452629
  0
VERTEX
  8
0
 10
154.47316375
 20
66.98477793
  0
VERTEX
  8
0
 10
154.41149008
 20
55.83924422
  0
VERTEX
  8
0
 10
154.30496283
 20
43.68773145
  0
VERTEX
  8
0
 10
154.18722219
 20
31.28472392
  0
VERTEX
  8
0
 10
154.09190834
 20
19.38470592
  0
VERTEX
  8
0
 10
154.06317401
 20
13.85909433
  0
VERTEX
  8
0
 10
154.05266146
 20
8.74216174
  0
VERTEX
  8
0
 10
1389.01426146
 20
8.36516174
  0
SEQEND
  0
POLYLINE
  8
Default Layer
 66
   1
 39
0.000000
 70
    1
  0
VERTEX
  8
0
 10
1589.97290825
 20
968.68759679
  0
VERTEX
  8
0
 10
1588.19550825
 20
1030.28669679
  0
VERTEX
  8
0
 10
1587.84380198
 20
1041.09335309
  0
VERTEX
  8
0
 10
1587.50903319
 20
1052.08067911
  0
VERTEX
  8
0
 10
1586.84965809
 20
1074.16373296
  0
VERTEX
  8
0
 10
1586.50472682
 20
1085.04265715
  0
VERTEX
  8
0
 10
1586.13608307
 20
1095.66864373
  0
VERTEX
  8
0
 10
1585.73356438
 20
1105.93329089
  0
VERTEX
  8
0
 10
1585.51642615
 20
1110.89623661
  0
VERTEX
  8
0
 10
1585.28700825
 20
1115.72819679
  0
VERTEX
  8
0
 10
1584.78645744
 20
1125.36968769
  0
VERTEX
  8
0
 10
1584.23453471
 20
1135.17856000
  0
VERTEX
  8
0
 10
1583.63994757
 20
1145.05311718
  0
VERTEX
  8
0
 10
1583.01140351
 20
1154.89166268
  0
VERTEX
  8
0
 10
1582.35761004
 20
1164.59249994
  0
VERTEX
  8
0
 10
1581.68727467
 20
1174.05393241
  0
VERTEX
  8
0
 10
1581.00910491
 20
1183.17426355
  0
VERTEX
  8
0
 10
1580.33180825
 20
1191.85179679
  0
VERTEX
  8
0
 10
1579.64448702
 20
1200.27312158
  0
VERTEX
  8
0
 10
1578.92914776
 20
1208.69236430
  0
VERTEX
  8
0
 10
1578.18385429
 20
1217.10913389
  0
VERTEX
  8
0
 10
1577.40667046
 20
1225.52303926
  0
VERTEX
  8
0
 10
1576.59566010
 20
1233.93368931
  0
VERTEX
  8
0
 10
1575.74888706
 20
1242.34069298
  0
VERTEX
  8
0
 10
1574.86441516
 20
1250.74365916
  0
VERTEX
  8
0
 10
1573.94030825
 20
1259.14219679
  0
VERTEX
  8
0
 10
1573.43408041
 20
1263.75141704
  0
VERTEX
  8
0
 10
1572.86540675
 20
1269.09155570
  0
VERTEX
  8
0
 10
1571.57336228
 20
1281.41661373
  0
VERTEX
  8
0
 10
1570.12945547
 20
1295.02142184
  0
VERTEX
  8
0
 10
1569.37095388
 20
1301.96124810
  0
VERTEX
  8
0
 10
1568.59896694
 20
1308.81003098
  0
VERTEX
  8
0
 10
1567.82165473
 20
1315.43077686
  0
VERTEX
  8
0
 10
1567.04717733
 20
1321.68649209
  0
VERTEX
  8
0
 10
1566.66355170
 20
1324.63465272
  0
VERTEX
  8
0
 10
1566.28369481
 20
1327.44018307
  0
VERTEX
  8
0
 10
1565.90862666
 20
1330.08595894
  0
VERTEX
  8
0
 10
1565.53936726
 20
1332.55485614
  0
VERTEX
  8
0
 10
1565.17693662
 20
1334.82975045
  0
VERTEX
  8
0
 10
1564.82235475
 20
1336.89351768
  0
VERTEX
  8
0
 10
1564.47664165
 20
1338.72903361
  0
VERTEX
  8
0
 10
1564.14081735
 20
1340.31917405
  0
VERTEX
  8
0
 10
1563.81590185
 20
1341.64681480
  0
VERTEX
  8
0
 10
1563.65785366
 20
1342.20684647
  0
VERTEX
  8
0
 10
1563.50291516
 20
1342.69483164
  0
VERTEX
  8
0
 10
1563.35121388
 20
1343.10862978
  0
VERTEX
  8
0
 10
1563.20287729
 20
1343.44610037
  0
VERTEX
  8
0
 10
1563.05803292
 20
1343.70510288
  0
VERTEX
  8
0
 10
1562.91680825
 20
1343.88349679
  0
VERTEX
  8
0
 10
1562.62719490
 20
1344.14343537
  0
VERTEX
  8
0
 10
1562.31680269
 20
1344.37473123
  0
VERTEX
  8
0
 10
1561.98706954
 20
1344.57886121
  0
VERTEX
  8
0
 10
1561.63943336
 20
1344.75730214
  0
VERTEX
  8
0
 10
1561.27533207
 20
1344.91153083
  0
VERTEX
  8
0
 10
1560.89620356
 20
1345.04302411
  0
VERTEX
  8
0
 10
1560.50348575
 20
1345.15325880
  0
VERTEX
  8
0
 10
1560.09861656
 20
1345.24371174
  0
VERTEX
  8
0
 10
1559.68303389
 20
1345.31585973
  0
VERTEX
  8
0
 10
1559.25817566
 20
1345.37117962
  0
VERTEX
  8
0
 10
1558.38638414
 20
1345.43724234
  0
VERTEX
  8
0
 10
1557.49474529
 20
1345.45371451
  0
VERTEX
  8
0
 10
1556.59476240
 20
1345.43241070
  0
VERTEX
  8
0
 10
1555.69793876
 20
1345.38514553
  0
VERTEX
  8
0
 10
1554.81577765
 20
1345.32373358
  0
VERTEX
  8
0
 10
1553.14145617
 20
1345.20572771
  0
VERTEX
  8
0
 10
1552.37230238
 20
1345.17276299
  0
VERTEX
  8
0
 10
1551.66382427
 20
1345.17290987
  0
VERTEX
  8
0
 10
1551.02752513
 20
1345.21798294
  0
VERTEX
  8
0
 10
1550.74003745
 20
1345.26105886
  0
VERTEX
  8
0
 10
1550.47490825
 20
1345.31979679
  0
VERTEX
  8
0
 10
1549.45730321
 20
1345.59569817
  0
VERTEX
  8
0
 10
1548.43787118
 20
1345.89271185
  0
VERTEX
  8
0
 10
1547.42503888
 20
1346.21953685
  0
VERTEX
  8
0
 10
1546.42723302
 20
1346.58487217
  0
VERTEX
  8
0
 10
1545.93659835
 20
1346.78469964
  0
VERTEX
  8
0
 10
1545.45288032
 20
1346.99741681
  0
VERTEX
  8
0
 10
1544.97713224
 20
1347.22411107
  0
VERTEX
  8
0
 10
1544.51040748
 20
1347.46586979
  0
VERTEX
  8
0
 10
1544.05375936
 20
1347.72378035
  0
VERTEX
  8
0
 10
1543.60824122
 20
1347.99893012
  0
VERTEX
  8
0
 10
1543.17490640
 20
1348.29240647
  0
VERTEX
  8
0
 10
1542.75480825
 20
1348.60529679
  0
VERTEX
  8
0
 10
1542.33802150
 20
1348.95220820
  0
VERTEX
  8
0
 10
1541.91495349
 20
1349.34430478
  0
VERTEX
  8
0
 10
1541.48715643
 20
1349.77750940
  0
VERTEX
  8
0
 10
1541.05618252
 20
1350.24774490
  0
VERTEX
  8
0
 10
1540.62358399
 20
1350.75093413
  0
VERTEX
  8
0
 10
1540.19091306
 20
1351.28299994
  0
VERTEX
  8
0
 10
1539.75972192
 20
1351.83986518
  0
VERTEX
  8
0
 10
1539.33156281
 20
1352.41745270
  0
VERTEX
  8
0
 10
1538.49054949
 20
1353.61848597
  0
VERTEX
  8
0
 10
1537.68029082
 20
1354.85348254
  0
VERTEX
  8
0
 10
1536.91320450
 20
1356.08982522
  0
VERTEX
  8
0
 10
1536.20170825
 20
1357.29489679
  0
VERTEX
  8
0
 10
1535.82264932
 20
1357.98386651
  0
VERTEX
  8
0
 10
1535.37191424
 20
1358.85770701
  0
VERTEX
  8
0
 10
1534.85982263
 20
1359.89466080
  0
VERTEX
  8
0
 10
1534.29669408
 20
1361.07297033
  0
VERTEX
  8
0
 10
1533.05860463
 20
1363.76662660
  0
VERTEX
  8
0
 10
1531.74020275
 20
1366.76461566
  0
VERTEX
  8
0
 10
1530.42404531
 20
1369.89287736
  0
VERTEX
  8
0
 10
1529.79260727
 20
1371.45146666
  0
VERTEX
  8
0
 10
1529.19268917
 20
1372.97735155
  0
VERTEX
  8
0
 10
1528.63461061
 20
1374.44877453
  0
VERTEX
  8
0
 10
1528.12869120
 20
1375.84397808
  0
VERTEX
  8
0
 10
1527.68525054
 20
1377.14120467
  0
VERTEX
  8
0
 10
1527.31460825
 20
1378.31869679
  0
VERTEX
  8
0
 10
1526.99557622
 20
1379.45379617
  0
VERTEX
  8
0
 10
1526.69901986
 20
1380.63225040
  0
VERTEX
  8
0
 10
1526.42333904
 20
1381.84491079
  0
VERTEX
  8
0
 10
1526.16693365
 20
1383.08262863
  0
VERTEX
  8
0
 10
1525.92820356
 20
1384.33625522
  0
VERTEX
  8
0
 10
1525.70554865
 20
1385.59664187
  0
VERTEX
  8
0
 10
1525.30206392
 20
1388.10110051
  0
VERTEX
  8
0
 10
1524.94367848
 20
1390.52281494
  0
VERTEX
  8
0
 10
1524.61759136
 20
1392.78859554
  0
VERTEX
  8
0
 10
1524.31100161
 20
1394.82525269
  0
VERTEX
  8
0
 10
1524.16101794
 20
1395.73478823
  0
VERTEX
  8
0
 10
1524.01110825
 20
1396.55959679
  0
VERTEX
  8
0
 10
1523.72133149
 20
1398.18031030
  0
VERTEX
  8
0
 10
1523.44604366
 20
1399.88923066
  0
VERTEX
  8
0
 10
1523.17387196
 20
1401.63290072
  0
VERTEX
  8
0
 10
1522.89344363
 20
1403.35786336
  0
VERTEX
  8
0
 10
1522.59338587
 20
1405.01066142
  0
VERTEX
  8
0
 10
1522.43244196
 20
1405.79329338
  0
VERTEX
  8
0
 10
1522.26232591
 20
1406.53783778
  0
VERTEX
  8
0
 10
1522.08161611
 20
1407.23761246
  0
VERTEX
  8
0
 10
1521.88889096
 20
1407.88593528
  0
VERTEX
  8
0
 10
1521.68272888
 20
1408.47612411
  0
VERTEX
  8
0
 10
1521.46170825
 20
1409.00149679
  0
VERTEX
  8
0
 10
1521.22513813
 20
1409.48964229
  0
VERTEX
  8
0
 10
1520.97351920
 20
1409.97218574
  0
VERTEX
  8
0
 10
1520.70721731
 20
1410.44849934
  0
VERTEX
  8
0
 10
1520.42659833
 20
1410.91795524
  0
VERTEX
  8
0
 10
1520.13202810
 20
1411.37992562
  0
VERTEX
  8
0
 10
1519.82387248
 20
1411.83378265
  0
VERTEX
  8
0
 10
1519.50249733
 20
1412.27889851
  0
VERTEX
  8
0
 10
1519.16826850
 20
1412.71464537
  0
VERTEX
  8
0
 10
1518.82155185
 20
1413.14039540
  0
VERTEX
  8
0
 10
1518.46271324
 20
1413.55552076
  0
VERTEX
  8
0
 10
1518.09211852
 20
1413.95939365
  0
VERTEX
  8
0
 10
1517.71013355
 20
1414.35138621
  0
VERTEX
  8
0
 10
1517.31712418
 20
1414.73087064
  0
VERTEX
  8
0
 10
1516.91345627
 20
1415.09721910
  0
VERTEX
  8
0
 10
1516.49949567
 20
1415.44980376
  0
VERTEX
  8
0
 10
1516.07560825
 20
1415.78799679
  0
VERTEX
  8
0
 10
1515.63498544
 20
1416.11226959
  0
VERTEX
  8
0
 10
1515.17187771
 20
1416.42370110
  0
VERTEX
  8
0
 10
1514.68823944
 20
1416.72257489
  0
VERTEX
  8
0
 10
1514.18602501
 20
1417.00917451
  0
VERTEX
  8
0
 10
1513.66718882
 20
1417.28378350
  0
VERTEX
  8
0
 10
1513.13368525
 20
1417.54668542
  0
VERTEX
  8
0
 10
1512.03049349
 20
1418.03850225
  0
VERTEX
  8
0
 10
1510.89208483
 20
1418.48689339
  0
VERTEX
  8
0
 10
1509.73409435
 20
1418.89412726
  0
VERTEX
  8
0
 10
1508.57215713
 20
1419.26247226
  0
VERTEX
  8
0
 10
1507.42190825
 20
1419.59419679
  0
VERTEX
  8
0
 10
1507.03120720
 20
1419.68234046
  0
VERTEX
  8
0
 10
1506.43778791
 20
1419.78884331
  0
VERTEX
  8
0
 10
1504.69731881
 20
1420.05186901
  0
VERTEX
  8
0
 10
1502.30954929
 20
1420.37315883
  0
VERTEX
  8
0
 10
1499.38352772
 20
1420.74259767
  0
VERTEX
  8
0
 10
1492.35292179
 20
1421.58546209
  0
VERTEX
  8
0
 10
1484.47788785
 20
1422.49954159
  0
VERTEX
  8
0
 10
1476.63081270
 20
1423.40391548
  0
VERTEX
  8
0
 10
1469.68408318
 20
1424.21766310
  0
VERTEX
  8
0
 10
1466.82096890
 20
1424.56526435
  0
VERTEX
  8
0
 10
1464.51008609
 20
1424.85986377
  0
VERTEX
  8
0
 10
1462.86048309
 20
1425.09134628
  0
VERTEX
  8
0
 10
1462.31773913
 20
1425.18025773
  0
VERTEX
  8
0
 10
1461.98120825
 20
1425.24959679
  0
VERTEX
  8
0
 10
1461.07332941
 20
1425.51024085
  0
VERTEX
  8
0
 10
1460.17908704
 20
1425.81361205
  0
VERTEX
  8
0
 10
1459.29600451
 20
1426.15144588
  0
VERTEX
  8
0
 10
1458.42160523
 20
1426.51547785
  0
VERTEX
  8
0
 10
1456.68894993
 20
1427.28907811
  0
VERTEX
  8
0
 10
1454.96130825
 20
1428.06829679
  0
VERTEX
  8
0
 10
1454.47253997
 20
1428.29527840
  0
VERTEX
  8
0
 10
1453.87982755
 20
1428.59006308
  0
VERTEX
  8
0
 10
1452.42890735
 20
1429.34604822
  0
VERTEX
  8
0
 10
1450.70122180
 20
1430.26226547
  0
VERTEX
  8
0
 10
1448.78944502
 20
1431.26472807
  0
VERTEX
  8
0
 10
1446.78625114
 20
1432.27944926
  0
VERTEX
  8
0
 10
1445.77933346
 20
1432.76828596
  0
VERTEX
  8
0
 10
1444.78431430
 20
1433.23244228
  0
VERTEX
  8
0
 10
1443.81277793
 20
1433.66266987
  0
VERTEX
  8
0
 10
1442.87630863
 20
1434.04972038
  0
VERTEX
  8
0
 10
1441.98649064
 20
1434.38434547
  0
VERTEX
  8
0
 10
1441.15490825
 20
1434.65729679
  0
VERTEX
  8
0
 10
1440.35326934
 20
1434.88347122
  0
VERTEX
  8
0
 10
1439.54591407
 20
1435.08526475
  0
VERTEX
  8
0
 10
1438.73337508
 20
1435.26467778
  0
VERTEX
  8
0
 10
1437.91618503
 20
1435.42371070
  0
VERTEX
  8
0
 10
1437.09487658
 20
1435.56436388
  0
VERTEX
  8
0
 10
1436.26998238
 20
1435.68863772
  0
VERTEX
  8
0
 10
1434.61156736
 20
1435.89604889
  0
VERTEX
  8
0
 10
1432.94520120
 20
1436.06194731
  0
VERTEX
  8
0
 10
1431.27514513
 20
1436.20233604
  0
VERTEX
  8
0
 10
1427.94100825
 20
1436.47059679
  0
VERTEX
  8
0
 10
1422.26234329
 20
1436.81973892
  0
VERTEX
  8
0
 10
1407.52249957
 20
1437.67250463
  0
VERTEX
  8
0
 10
1384.67448065
 20
1438.95584473
  0
VERTEX
  8
0
 10
1354.67129010
 20
1440.59671004
  0
VERTEX
  8
0
 10
1337.28431908
 20
1441.52838679
  0
VERTEX
  8
0
 10
1318.46593149
 20
1442.52205139
  0
VERTEX
  8
0
 10
1298.33525277
 20
1443.56857271
  0
VERTEX
  8
0
 10
1277.01140838
 20
1444.65881959
  0
VERTEX
  8
0
 10
1254.61352374
 20
1445.78366089
  0
VERTEX
  8
0
 10
1231.26072432
 20
1446.93396546
  0
VERTEX
  8
0
 10
1207.07213556
 20
1448.10060215
  0
VERTEX
  8
0
 10
1182.16688290
 20
1449.27443982
  0
VERTEX
  8
0
 10
1156.66409178
 20
1450.44634731
  0
VERTEX
  8
0
 10
1130.68288766
 20
1451.60719348
  0
VERTEX
  8
0
 10
1104.34239598
 20
1452.74784718
  0
VERTEX
  8
0
 10
1077.76174218
 20
1453.85917726
  0
VERTEX
  8
0
 10
1051.06005171
 20
1454.93205258
  0
VERTEX
  8
0
 10
1024.35645001
 20
1455.95734199
  0
VERTEX
  8
0
 10
997.77006254
 20
1456.92591434
  0
VERTEX
  8
0
 10
984.55805084
 20
1457.38607813
  0
VERTEX
  8
0
 10
971.42001473
 20
1457.82863848
  0
VERTEX
  8
0
 10
958.37084490
 20
1458.25245399
  0
VERTEX
  8
0
 10
945.42543204
 20
1458.65638327
  0
VERTEX
  8
0
 10
932.59866681
 20
1459.03928492
  0
VERTEX
  8
0
 10
919.90543990
 20
1459.40001755
  0
VERTEX
  8
0
 10
907.36064199
 20
1459.73743977
  0
VERTEX
  8
0
 10
894.97916376
 20
1460.05041018
  0
VERTEX
  8
0
 10
882.77589590
 20
1460.33778740
  0
VERTEX
  8
0
 10
870.76572908
 20
1460.59843002
  0
VERTEX
  8
0
 10
858.96355398
 20
1460.83119665
  0
VERTEX
  8
0
 10
847.38426128
 20
1461.03494590
  0
VERTEX
  8
0
 10
836.04274167
 20
1461.20853639
  0
VERTEX
  8
0
 10
824.95388583
 20
1461.35082670
  0
VERTEX
  8
0
 10
814.13258443
 20
1461.46067545
  0
VERTEX
  8
0
 10
803.59372816
 20
1461.53694125
  0
VERTEX
  8
0
 10
793.35220770
 20
1461.57848270
  0
VERTEX
  8
0
 10
783.42291372
 20
1461.58415842
  0
VERTEX
  8
0
 10
773.65495748
 20
1461.55933716
  0
VERTEX
  8
0
 10
763.88751488
 20
1461.51053237
  0
VERTEX
  8
0
 10
754.12057360
 20
1461.43831966
  0
VERTEX
  8
0
 10
744.35412131
 20
1461.34327463
  0
VERTEX
  8
0
 10
734.58814567
 20
1461.22597288
  0
VERTEX
  8
0
 10
724.82263437
 20
1461.08699002
  0
VERTEX
  8
0
 10
715.05757508
 20
1460.92690166
  0
VERTEX
  8
0
 10
705.29295546
 20
1460.74628339
  0
VERTEX
  8
0
 10
695.52876319
 20
1460.54571083
  0
VERTEX
  8
0
 10
685.76498595
 20
1460.32575958
  0
VERTEX
  8
0
 10
676.00161140
 20
1460.08700523
  0
VERTEX
  8
0
 10
666.23862722
 20
1459.83002341
  0
VERTEX
  8
0
 10
656.47602109
 20
1459.55538971
  0
VERTEX
  8
0
 10
646.71378066
 20
1459.26367973
  0
VERTEX
  8
0
 10
636.95189363
 20
1458.95546909
  0
VERTEX
  8
0
 10
627.19034765
 20
1458.63133338
  0
VERTEX
  8
0
 10
607.66822956
 20
1457.93758919
  0
VERTEX
  8
0
 10
588.14732777
 20
1457.18705200
  0
VERTEX
  8
0
 10
568.62754367
 20
1456.38432665
  0
VERTEX
  8
0
 10
549.10877864
 20
1455.53401798
  0
VERTEX
  8
0
 10
529.59093406
 20
1454.64073083
  0
VERTEX
  8
0
 10
510.07391130
 20
1453.70907002
  0
VERTEX
  8
0
 10
490.55761176
 20
1452.74364041
  0
VERTEX
  8
0
 10
471.04193680
 20
1451.74904682
  0
VERTEX
  8
0
 10
451.52678782
 20
1450.72989410
  0
VERTEX
  8
0
 10
432.01206618
 20
1449.69078708
  0
VERTEX
  8
0
 10
392.98351049
 20
1447.57112951
  0
VERTEX
  8
0
 10
353.95548076
 20
1445.42691280
  0
VERTEX
  8
0
 10
314.92718805
 20
1443.29497566
  0
VERTEX
  8
0
 10
295.41269653
 20
1442.24512402
  0
VERTEX
  8
0
 10
275.89784340
 20
1441.21215678
  0
VERTEX
  8
0
 10
256.38253005
 20
1440.20067879
  0
VERTEX
  8
0
 10
236.86665785
 20
1439.21529488
  0
VERTEX
  8
0
 10
217.35012819
 20
1438.26060989
  0
VERTEX
  8
0
 10
197.83284245
 20
1437.34122865
  0
VERTEX
  8
0
 10
178.31470201
 20
1436.46175601
  0
VERTEX
  8
0
 10
158.79560825
 20
1435.62679679
  0
VERTEX
  8
0
 10
155.39988645
 20
1435.44875733
  0
VERTEX
  8
0
 10
151.65116921
 20
1435.27285791
  0
VERTEX
  8
0
 10
143.94193747
 20
1434.92234310
  0
VERTEX
  8
0
 10
140.40501749
 20
1434.74515965
  0
VERTEX
  8
0
 10
137.36229112
 20
1434.56498014
  0
VERTEX
  8
0
 10
136.09243718
 20
1434.47336560
  0
VERTEX
  8
0
 10
135.02555562
 20
1434.38052053
  0
VERTEX
  8
0
 10
134.18812109
 20
1434.28628443
  0
VERTEX
  8
0
 10
133.60660825
 20
1434.19049679
  0
VERTEX
  8
0
 10
133.16408262
 20
1434.08631898
  0
VERTEX
  8
0
 10
132.72571573
 20
1433.96789669
  0
VERTEX
  8
0
 10
131.85999290
 20
1433.69358286
  0
VERTEX
  8
0
 10
131.00650920
 20
1433.37808361
  0
VERTEX
  8
0
 10
130.16233408
 20
1433.03192725
  0
VERTEX
  8
0
 10
128.49018734
 20
1432.28975641
  0
VERTEX
  8
0
 10
127.65635462
 20
1431.91479855
  0
VERTEX
  8
0
 10
126.82010825
 20
1431.55129679
  0
VERTEX
  8
0
 10
124.30742272
 20
1430.44773984
  0
VERTEX
  8
0
 10
120.80453193
 20
1428.86368179
  0
VERTEX
  8
0
 10
117.33360429
 20
1427.26345624
  0
VERTEX
  8
0
 10
115.92955430
 20
1426.60238490
  0
VERTEX
  8
0
 10
114.91680825
 20
1426.11139679
  0
VERTEX
  8
0
 10
114.14916725
 20
1425.71113531
  0
VERTEX
  8
0
 10
113.39230985
 20
1425.28947505
  0
VERTEX
  8
0
 10
111.89329496
 20
1424.41751232
  0
VERTEX
  8
0
 10
111.14231199
 20
1423.98498690
  0
VERTEX
  8
0
 10
110.38446171
 20
1423.56661683
  0
VERTEX
  8
0
 10
109.61533137
 20
1423.17129061
  0
VERTEX
  8
0
 10
108.83050825
 20
1422.80789679
  0
VERTEX
  8
0
 10
107.91342370
 20
1422.41804229
  0
VERTEX
  8
0
 10
106.78156919
 20
1421.95604996
  0
VERTEX
  8
0
 10
105.48162214
 20
1421.44988221
  0
VERTEX
  8
0
 10
104.06025995
 20
1420.92750146
  0
VERTEX
  8
0
 10
102.56416005
 20
1420.41687013
  0
VERTEX
  8
0
 10
101.03999985
 20
1419.94595063
  0
VERTEX
  8
0
 10
100.28198384
 20
1419.73412107
  0
VERTEX
  8
0
 10
99.53445678
 20
1419.54270538
  0
VERTEX
  8
0
 10
98.80325336
 20
1419.37519885
  0
VERTEX
  8
0
 10
98.09420825
 20
1419.23509679
  0
VERTEX
  8
0
 10
97.68828655
 20
1419.17357043
  0
VERTEX
  8
0
 10
97.17021940
 20
1419.11415678
  0
VERTEX
  8
0
 10
95.81971018
 20
1419.00125202
  0
VERTEX
  8
0
 10
94.08680338
 20
1418.89555129
  0
VERTEX
  8
0
 10
92.01562180
 20
1418.79622335
  0
VERTEX
  8
0
 10
87.03492549
 20
1418.61336092
  0
VERTEX
  8
0
 10
81.23060363
 20
1418.44601484
  0
VERTEX
  8
0
 10
68.56301277
 20
1418.13127231
  0
VERTEX
  8
0
 10
62.40570853
 20
1417.97057611
  0
VERTEX
  8
0
 10
56.83670825
 20
1417.79879679
  0
VERTEX
  8
0
 10
56.83670825
 20
1386.07469679
  0
VERTEX
  8
0
 10
60.87627598
 20
1384.85180496
  0
VERTEX
  8
0
 10
65.35826189
 20
1383.51058550
  0
VERTEX
  8
0
 10
74.58768462
 20
1380.75715001
  0
VERTEX
  8
0
 10
78.80421962
 20
1379.48692712
  0
VERTEX
  8
0
 10
82.40136917
 20
1378.38236291
  0
VERTEX
  8
0
 10
85.11368235
 20
1377.51445394
  0
VERTEX
  8
0
 10
86.05507189
 20
1377.19143160
  0
VERTEX
  8
0
 10
86.67570825
 20
1376.95419679
  0
VERTEX
  8
0
 10
88.51723254
 20
1376.16075879
  0
VERTEX
  8
0
 10
89.44621758
 20
1375.73613557
  0
VERTEX
  8
0
 10
90.35817577
 20
1375.28671020
  0
VERTEX
  8
0
 10
91.23622551
 20
1374.80783315
  0
VERTEX
  8
0
 10
91.65725923
 20
1374.55589727
  0
VERTEX
  8
0
 10
92.06348523
 20
1374.29485491
  0
VERTEX
  8
0
 10
92.45279334
 20
1374.02412487
  0
VERTEX
  8
0
 10
92.82307334
 20
1373.74312596
  0
VERTEX
  8
0
 10
93.17221504
 20
1373.45127700
  0
VERTEX
  8
0
 10
93.49810825
 20
1373.14799679
  0
VERTEX
  8
0
 10
93.80452847
 20
1372.83198919
  0
VERTEX
  8
0
 10
94.09700285
 20
1372.50295827
  0
VERTEX
  8
0
 10
94.37604869
 20
1372.16182316
  0
VERTEX
  8
0
 10
94.64218325
 20
1371.80950302
  0
VERTEX
  8
0
 10
94.89592382
 20
1371.44691699
  0
VERTEX
  8
0
 10
95.13778768
 20
1371.07498421
  0
VERTEX
  8
0
 10
95.58795436
 20
1370.30675498
  0
VERTEX
  8
0
 10
95.99682153
 20
1369.51216847
  0
VERTEX
  8
0
 10
96.36852741
 20
1368.69857784
  0
VERTEX
  8
0
 10
96.70721024
 20
1367.87333623
  0
VERTEX
  8
0
 10
97.01700825
 20
1367.04379679
  0
VERTEX
  8
0
 10
97.15870847
 20
1366.62476224
  0
VERTEX
  8
0
 10
97.28763231
 20
1366.19742823
  0
VERTEX
  8
0
 10
97.51049984
 20
1365.32105607
  0
VERTEX
  8
0
 10
97.69230887
 20
1364.42106869
  0
VERTEX
  8
0
 10
97.83975746
 20
1363.50385447
  0
VERTEX
  8
0
 10
97.95954365
 20
1362.57580179
  0
VERTEX
  8
0
 10
98.05836549
 20
1361.64329904
  0
VERTEX
  8
0
 10
98.21990825
 20
1359.79049679
  0
VERTEX
  8
0
 10
98.26112842
 20
1358.79475319
  0
VERTEX
  8
0
 10
98.30779055
 20
1356.81628731
  0
VERTEX
  8
0
 10
98.40806528
 20
1350.46810854
  0
VERTEX
  8
0
 10
98.50198163
 20
1341.85980005
  0
VERTEX
  8
0
 10
98.57078875
 20
1332.10520142
  0
VERTEX
  8
0
 10
98.59573581
 20
1322.31815220
  0
VERTEX
  8
0
 10
98.58590218
 20
1317.76053350
  0
VERTEX
  8
0
 10
98.55807197
 20
1313.61249198
  0
VERTEX
  8
0
 10
98.50990133
 20
1310.01325761
  0
VERTEX
  8
0
 10
98.43904640
 20
1307.10206032
  0
VERTEX
  8
0
 10
98.39437987
 20
1305.94798494
  0
VERTEX
  8
0
 10
98.34316332
 20
1305.01813007
  0
VERTEX
  8
0
 10
98.28510378
 20
1304.32989944
  0
VERTEX
  8
0
 10
98.21990825
 20
1303.90069679
  0
VERTEX
  8
0
 10
98.07235778
 20
1303.31486017
  0
VERTEX
  8
0
 10
97.90559760
 20
1302.73316504
  0
VERTEX
  8
0
 10
97.72029748
 20
1302.15600908
  0
VERTEX
  8
0
 10
97.51712720
 20
1301.58379000
  0
VERTEX
  8
0
 10
97.29675652
 20
1301.01690548
  0
VERTEX
  8
0
 10
97.05985522
 20
1300.45575322
  0
VERTEX
  8
0
 10
96.80709308
 20
1299.90073090
  0
VERTEX
  8
0
 10
96.53913986
 20
1299.35223623
  0
VERTEX
  8
0
 10
96.25666535
 20
1298.81066688
  0
VERTEX
  8
0
 10
95.96033930
 20
1298.27642055
  0
VERTEX
  8
0
 10
95.65083150
 20
1297.74989494
  0
VERTEX
  8
0
 10
95.32881172
 20
1297.23148773
  0
VERTEX
  8
0
 10
94.64991531
 20
1296.22061930
  0
VERTEX
  8
0
 10
93.92900825
 20
1295.24699679
  0
VERTEX
  8
0
 10
93.54362962
 20
1294.76731981
  0
VERTEX
  8
0
 10
93.12906336
 20
1294.28330646
  0
VERTEX
  8
0
 10
92.68747443
 20
1293.79657460
  0
VERTEX
  8
0
 10
92.22102777
 20
1293.30874206
  0
VERTEX
  8
0
 10
91.73188834
 20
1292.82142672
  0
VERTEX
  8
0
 10
91.22222109
 20
1292.33624640
  0
VERTEX
  8
0
 10
90.14996295
 20
1291.37876226
  0
VERTEX
  8
0
 10
89.02157297
 20
1290.44923243
  0
VERTEX
  8
0
 10
87.85437078
 20
1289.56059972
  0
VERTEX
  8
0
 10
86.66567600
 20
1288.72580691
  0
VERTEX
  8
0
 10
85.47280825
 20
1287.95779679
  0
VERTEX
  8
0
 10
85.09483683
 20
1287.74449960
  0
VERTEX
  8
0
 10
84.56187766
 20
1287.47230449
  0
VERTEX
  8
0
 10
83.06918347
 20
1286.76648593
  0
VERTEX
  8
0
 10
81.07110055
 20
1285.87087187
  0
VERTEX
  8
0
 10
78.64400376
 20
1284.81599308
  0
VERTEX
  8
0
 10
75.86426795
 20
1283.63238032
  0
VERTEX
  8
0
 10
72.80826798
 20
1282.35056436
  0
VERTEX
  8
0
 10
66.17297499
 20
1279.61444589
  0
VERTEX
  8
0
 10
59.34912366
 20
1276.85188378
  0
VERTEX
  8
0
 10
52.94771285
 20
1274.30712415
  0
VERTEX
  8
0
 10
50.09635979
 20
1273.19274718
  0
VERTEX
  8
0
 10
47.57974143
 20
1272.22441312
  0
VERTEX
  8
0
 10
45.47423263
 20
1271.43265273
  0
VERTEX
  8
0
 10
43.85620825
 20
1270.84799679
  0
VERTEX
  8
0
 10
38.45139833
 20
1268.94579882
  0
VERTEX
  8
0
 10
35.73660787
 20
1268.01540396
  0
VERTEX
  8
0
 10
34.37458510
 20
1267.56546612
  0
VERTEX
  8
0
 10
33.00889400
 20
1267.12954271
  0
VERTEX
  8
0
 10
31.63909709
 20
1266.71051474
  0
VERTEX
  8
0
 10
30.26475691
 20
1266.31126323
  0
VERTEX
  8
0
 10
28.88543596
 20
1265.93466919
  0
VERTEX
  8
0
 10
27.50069679
 20
1265.58361365
  0
VERTEX
  8
0
 10
26.11010191
 20
1265.26097762
  0
VERTEX
  8
0
 10
24.71321384
 20
1264.96964212
  0
VERTEX
  8
0
 10
23.30959511
 20
1264.71248817
  0
VERTEX
  8
0
 10
21.89880825
 20
1264.49239679
  0
VERTEX
  8
0
 10
21.11642508
 20
1264.39826771
  0
VERTEX
  8
0
 10
20.18856215
 20
1264.31608841
  0
VERTEX
  8
0
 10
19.12237421
 20
1264.24527122
  0
VERTEX
  8
0
 10
17.92501599
 20
1264.18522842
  0
VERTEX
  8
0
 10
15.16540771
 20
1264.09511525
  0
VERTEX
  8
0
 10
11.96697524
 20
1264.04104734
  0
VERTEX
  8
0
 10
8.38695652
 20
1264.01832315
  0
VERTEX
  8
0
 10
4.48258949
 20
1264.02224111
  0
VERTEX
  8
0
 10
0.31111208
 20
1264.04809968
  0
VERTEX
  8
0
 10
-4.07023776
 20
1264.09119728
  0
VERTEX
  8
0
 10
-13.23360301
 20
1264.21030339
  0
VERTEX
  8
0
 10
-22.54960275
 20
1264.34194698
  0
VERTEX
  8
0
 10
-31.56033350
 20
1264.44851560
  0
VERTEX
  8
0
 10
-35.80812816
 20
1264.48064290
  0
VERTEX
  8
0
 10
-39.80789175
 20
1264.49239679
  0
VERTEX
  8
0
 10
-39.80789175
 20
968.77739679
  0
VERTEX
  8
0
 10
503.43440825
 20
968.75939679
  0
VERTEX
  8
0
 10
1046.69470825
 20
968.74149679
  0
VERTEX
  8
0
 10
1589.97290825
 20
968.68759679
  0
SEQEND
  0
POLYLINE
  8
Default Layer
 66
   1
 39
0.000000
 70
    1
  0
VERTEX
  8
0
 10
188.10350825
 20
1424.77179679
  0
VERTEX
  8
0
 10
188.11383403
 20
1424.97628518
  0
VERTEX
  8
0
 10
188.14414114
 20
1425.17486655
  0
VERTEX
  8
0
 10
188.19342429
 20
1425.36653561
  0
VERTEX
  8
0
 10
188.26067816
 20
1425.55028705
  0
VERTEX
  8
0
 10
188.34489745
 20
1425.72511555
  0
VERTEX
  8
0
 10
188.44507684
 20
1425.89001581
  0
VERTEX
  8
0
 10
188.56021102
 20
1426.04398252
  0
VERTEX
  8
0
 10
188.68929469
 20
1426.18601036
  0
VERTEX
  8
0
 10
188.83132253
 20
1426.31509402
  0
VERTEX
  8
0
 10
188.98528923
 20
1426.43022821
  0
VERTEX
  8
0
 10
189.15018949
 20
1426.53040759
  0
VERTEX
  8
0
 10
189.32501799
 20
1426.61462688
  0
VERTEX
  8
0
 10
189.50876943
 20
1426.68188075
  0
VERTEX
  8
0
 10
189.70043849
 20
1426.73116390
  0
VERTEX
  8
0
 10
189.89901987
 20
1426.76147102
  0
VERTEX
  8
0
 10
190.10350825
 20
1426.77179679
  0
VERTEX
  8
0
 10
190.30799663
 20
1426.76147102
  0
VERTEX
  8
0
 10
190.50657801
 20
1426.73116390
  0
VERTEX
  8
0
 10
190.69824707
 20
1426.68188075
  0
VERTEX
  8
0
 10
190.88199851
 20
1426.61462688
  0
VERTEX
  8
0
 10
191.05682701
 20
1426.53040759
  0
VERTEX
  8
0
 10
191.22172727
 20
1426.43022821
  0
VERTEX
  8
0
 10
191.37569397
 20
1426.31509402
  0
VERTEX
  8
0
 10
191.51772181
 20
1426.18601036
  0
VERTEX
  8
0
 10
191.64680548
 20
1426.04398252
  0
VERTEX
  8
0
 10
191.76193966
 20
1425.89001581
  0
VERTEX
  8
0
 10
191.86211905
 20
1425.72511555
  0
VERTEX
  8
0
 10
191.94633834
 20
1425.55028705
  0
VERTEX
  8
0
 10
192.01359221
 20
1425.36653561
  0
VERTEX
  8
0
 10
192.06287536
 20
1425.17486655
  0
VERTEX
  8
0
 10
192.09318248
 20
1424.97628518
  0
VERTEX
  8
0
 10
192.10350825
 20
1424.77179679
  0
VERTEX
  8
0
 10
192.09318248
 20
1424.56730841
  0
VERTEX
  8
0
 10
192.06287536
 20
1424.36872704
  0
VERTEX
  8
0
 10
192.01359221
 20
1424.17705797
  0
VERTEX
  8
0
 10
191.94633834
 20
1423.99330654
  0
VERTEX
  8
0
 10
191.86211905
 20
1423.81847803
  0
VERTEX
  8
0
 10
191.76193966
 20
1423.65357778
  0
VERTEX
  8
0
 10
191.64680548
 20
1423.49961107
  0
VERTEX
  8
0
 10
191.51772181
 20
1423.35758323
  0
VERTEX
  8
0
 10
191.37569397
 20
1423.22849957
  0
VERTEX
  8
0
 10
191.22172727
 20
1423.11336538
  0
VERTEX
  8
0
 10
191.05682701
 20
1423.01318599
  0
VERTEX
  8
0
 10
190.88199851
 20
1422.92896671
  0
VERTEX
  8
0
 10
190.69824707
 20
1422.86171284
  0
VERTEX
  8
0
 10
190.50657801
 20
1422.81242969
  0
VERTEX
  8
0
 10
190.30799663
 20
1422.78212257
  0
VERTEX
  8
0
 10
190.10350825
 20
1422.77179679
  0
VERTEX
  8
0
 10
189.89901987
 20
1422.78212257
  0
VERTEX
  8
0
 10
189.70043849
 20
1422.81242969
  0
VERTEX
  8
0
 10
189.50876943
 20
1422.86171284
  0
VERTEX
  8
0
 10
189.32501799
 20
1422.92896671
  0
VERTEX
  8
0
 10
189.15018949
 20
1423.01318599
  0
VERTEX
  8
0
 10
188.98528923
 20
1423.11336538
  0
VERTEX
  8
0
 10
188.83132253
 20
1423.22849957
  0
VERTEX
  8
0
 10
188.68929469
 20
1423.35758323
  0
VERTEX
  8
0
 10
188.56021102
 20
1423.49961107
  0
VERTEX
  8
0
 10
188.44507684
 20
1423.65357778
  0
VERTEX
  8
0
 10
188.34489745
 20
1423.81847803
  0
VERTEX
  8
0
 10
188.26067816
 20
1423.99330654
  0
VERTEX
  8
0
 10
188.19342429
 20
1424.17705797
  0
VERTEX
  8
0
 10
188.14414114
 20
1424.36872704
  0
VERTEX
  8
0
 10
188.11383403
 20
1424.56730841
  0
VERTEX
  8
0
 10
188.10350825
 20
1424.77179679
  0
SEQEND
  0
POLYLINE
  8
Default Layer
 66
   1
 39
0.000000
 70
    1
  0
VERTEX
  8
0
 10
566.01050825
 20
1443.75279679
  0
VERTEX
  8
0
 10
566.02083403
 20
1443.95728518
  0
VERTEX
  8
0
 10
566.05114114
 20
1444.15586655
  0
VERTEX
  8
0
 10
566.10042429
 20
1444.34753561
  0
VERTEX
  8
0
 10
566.16767816
 20
1444.53128705
  0
VERTEX
  8
0
 10
566.25189745
 20
1444.70611555
  0
VERTEX
  8
0
 10
566.35207684
 20
1444.87101581
  0
VERTEX
  8
0
 10
566.46721102
 20
1445.02498252
  0
VERTEX
  8
0
 10
566.59629469
 20
1445.16701036
  0
VERTEX
  8
0
 10
566.73832253
 20
1445.29609402
  0
VERTEX
  8
0
 10
566.89228923
 20
1445.41122821
  0
VERTEX
  8
0
 10
567.05718949
 20
1445.51140759
  0
VERTEX
  8
0
 10
567.23201799
 20
1445.59562688
  0
VERTEX
  8
0
 10
567.41576943
 20
1445.66288075
  0
VERTEX
  8
0
 10
567.60743849
 20
1445.71216390
  0
VERTEX
  8
0
 10
567.80601987
 20
1445.74247102
  0
VERTEX
  8
0
 10
568.01050825
 20
1445.75279679
  0
VERTEX
  8
0
 10
568.21499663
 20
1445.74247102
  0
VERTEX
  8
0
 10
568.41357801
 20
1445.71216390
  0
VERTEX
  8
0
 10
568.60524707
 20
1445.66288075
  0
VERTEX
  8
0
 10
568.78899851
 20
1445.59562688
  0
VERTEX
  8
0
 10
568.96382701
 20
1445.51140759
  0
VERTEX
  8
0
 10
569.12872727
 20
1445.41122821
  0
VERTEX
  8
0
 10
569.28269397
 20
1445.29609402
  0
VERTEX
  8
0
 10
569.42472181
 20
1445.16701036
  0
VERTEX
  8
0
 10
569.55380548
 20
1445.02498252
  0
VERTEX
  8
0
 10
569.66893966
 20
1444.87101581
  0
VERTEX
  8
0
 10
569.76911905
 20
1444.70611555
  0
VERTEX
  8
0
 10
569.85333834
 20
1444.53128705
  0
VERTEX
  8
0
 10
569.92059221
 20
1444.34753561
  0
VERTEX
  8
0
 10
569.96987536
 20
1444.15586655
  0
VERTEX
  8
0
 10
570.00018248
 20
1443.95728518
  0
VERTEX
  8
0
 10
570.01050825
 20
1443.75279679
  0
VERTEX
  8
0
 10
570.00018248
 20
1443.54830841
  0
VERTEX
  8
0
 10
569.96987536
 20
1443.34972704
  0
VERTEX
  8
0
 10
569.92059221
 20
1443.15805797
  0
VERTEX
  8
0
 10
569.85333834
 20
1442.97430654
  0
VERTEX
  8
0
 10
569.76911905
 20
1442.79947803
  0
VERTEX
  8
0
 10
569.66893966
 20
1442.63457778
  0
VERTEX
  8
0
 10
569.55380548
 20
1442.48061107
  0
VERTEX
  8
0
 10
569.42472181
 20
1442.33858323
  0
VERTEX
  8
0
 10
569.28269397
 20
1442.20949957
  0
VERTEX
  8
0
 10
569.12872727
 20
1442.09436538
  0
VERTEX
  8
0
 10
568.96382701
 20
1441.99418599
  0
VERTEX
  8
0
 10
568.78899851
 20
1441.90996671
  0
VERTEX
  8
0
 10
568.60524707
 20
1441.84271284
  0
VERTEX
  8
0
 10
568.41357801
 20
1441.79342969
  0
VERTEX
  8
0
 10
568.21499663
 20
1441.76312257
  0
VERTEX
  8
0
 10
568.01050825
 20
1441.75279679
  0
VERTEX
  8
0
 10
567.80601987
 20
1441.76312257
  0
VERTEX
  8
0
 10
567.60743849
 20
1441.79342969
  0
VERTEX
  8
0
 10
567.41576943
 20
1441.84271284
  0
VERTEX
  8
0
 10
567.23201799
 20
1441.90996671
  0
VERTEX
  8
0
 10
567.05718949
 20
1441.99418599
  0
VERTEX
  8
0
 10
566.89228923
 20
1442.09436538
  0
VERTEX
  8
0
 10
566.73832253
 20
1442.20949957
  0
VERTEX
  8
0
 10
566.59629469
 20
1442.33858323
  0
VERTEX
  8
0
 10
566.46721102
 20
1442.48061107
  0
VERTEX
  8
0
 10
566.35207684
 20
1442.63457778
  0
VERTEX
  8
0
 10
566.25189745
 20
1442.79947803
  0
VERTEX
  8
0
 10
566.16767816
 20
1442.97430654
  0
VERTEX
  8
0
 10
566.10042429
 20
1443.15805797
  0
VERTEX
  8
0
 10
566.05114114
 20
1443.34972704
  0
VERTEX
  8
0
 10
566.02083403
 20
1443.54830841
  0
VERTEX
  8
0
 10
566.01050825
 20
1443.75279679
  0
SEQEND
  0
POLYLINE
  8
Default Layer
 66
   1
 39
0.000000
 70
    1
  0
VERTEX
  8
0
 10
1012.07850825
 20
1318.64679679
  0
VERTEX
  8
0
 10
1012.08883403
 20
1318.85128518
  0
VERTEX
  8
0
 10
1012.11914114
 20
1319.04986655
  0
VERTEX
  8
0
 10
1012.16842429
 20
1319.24153561
  0
VERTEX
  8
0
 10
1012.23567816
 20
1319.42528705
  0
VERTEX
  8
0
 10
1012.31989745
 20
1319.60011555
  0
VERTEX
  8
0
 10
1012.42007684
 20
1319.76501581
  0
VERTEX
  8
0
 10
1012.53521102
 20
1319.91898252
  0
VERTEX
  8
0
 10
1012.66429469
 20
1320.06101036
  0
VERTEX
  8
0
 10
1012.80632253
 20
1320.19009402
  0
VERTEX
  8
0
 10
1012.96028923
 20
1320.30522821
  0
VERTEX
  8
0
 10
1013.12518949
 20
1320.40540759
  0
VERTEX
  8
0
 10
1013.30001799
 20
1320.48962688
  0
VERTEX
  8
0
 10
1013.48376943
 20
1320.55688075
  0
VERTEX
  8
0
 10
1013.67543849
 20
1320.60616390
  0
VERTEX
  8
0
 10
1013.87401987
 20
1320.63647102
  0
VERTEX
  8
0
 10
1014.07850825
 20
1320.64679679
  0
VERTEX
  8
0
 10
1014.28299663
 20
1320.63647102
  0
VERTEX
  8
0
 10
1014.48157801
 20
1320.60616390
  0
VERTEX
  8
0
 10
1014.67324707
 20
1320.55688075
  0
VERTEX
  8
0
 10
1014.85699851
 20
1320.48962688
  0
VERTEX
  8
0
 10
1015.03182701
 20
1320.40540759
  0
VERTEX
  8
0
 10
1015.19672727
 20
1320.30522821
  0
VERTEX
  8
0
 10
1015.35069397
 20
1320.19009402
  0
VERTEX
  8
0
 10
1015.49272181
 20
1320.06101036
  0
VERTEX
  8
0
 10
1015.62180548
 20
1319.91898252
  0
VERTEX
  8
0
 10
1015.73693966
 20
1319.76501581
  0
VERTEX
  8
0
 10
1015.83711905
 20
1319.60011555
  0
VERTEX
  8
0
 10
1015.92133834
 20
1319.42528705
  0
VERTEX
  8
0
 10
1015.98859221
 20
1319.24153561
  0
VERTEX
  8
0
 10
1016.03787536
 20
1319.04986655
  0
VERTEX
  8
0
 10
1016.06818248
 20
1318.85128518
  0
VERTEX
  8
0
 10
1016.07850825
 20
1318.64679679
  0
VERTEX
  8
0
 10
1016.06818248
 20
1318.44230841
  0
VERTEX
  8
0
 10
1016.03787536
 20
1318.24372704
  0
VERTEX
  8
0
 10
1015.98859221
 20
1318.05205797
  0
VERTEX
  8
0
 10
1015.92133834
 20
1317.86830654
  0
VERTEX
  8
0
 10
1015.83711905
 20
1317.69347803
  0
VERTEX
  8
0
 10
1015.73693966
 20
1317.52857778
  0
VERTEX
  8
0
 10
1015.62180548
 20
1317.37461107
  0
VERTEX
  8
0
 10
1015.49272181
 20
1317.23258323
  0
VERTEX
  8
0
 10
1015.35069397
 20
1317.10349957
  0
VERTEX
  8
0
 10
1015.19672727
 20
1316.98836538
  0
VERTEX
  8
0
 10
1015.03182701
 20
1316.88818599
  0
VERTEX
  8
0
 10
1014.85699851
 20
1316.80396671
  0
VERTEX
  8
0
 10
1014.67324707
 20
1316.73671284
  0
VERTEX
  8
0
 10
1014.48157801
 20
1316.68742969
  0
VERTEX
  8
0
 10
1014.28299663
 20
1316.65712257
  0
VERTEX
  8
0
 10
1014.07850825
 20
1316.64679679
  0
VERTEX
  8
0
 10
1013.87401987
 20
1316.65712257
  0
VERTEX
  8
0
 10
1013.67543849
 20
1316.68742969
  0
VERTEX
  8
0
 10
1013.48376943
 20
1316.73671284
  0
VERTEX
  8
0
 10
1013.30001799
 20
1316.80396671
  0
VERTEX
  8
0
 10
1013.12518949
 20
1316.88818599
  0
VERTEX
  8
0
 10
1012.96028923
 20
1316.98836538
  0
VERTEX
  8
0
 10
1012.80632253
 20
1317.10349957
  0
VERTEX
  8
0
 10
1012.66429469
 20
1317.23258323
  0
VERTEX
  8
0
 10
1012.53521102
 20
1317.37461107
  0
VERTEX
  8
0
 10
1012.42007684
 20
1317.52857778
  0
VERTEX
  8
0
 10
1012.31989745
 20
1317.69347803
  0
VERTEX
  8
0
 10
1012.23567816
 20
1317.86830654
  0
VERTEX
  8
0
 10
1012.16842429
 20
1318.05205797
  0
VERTEX
  8
0
 10
1012.11914114
 20
1318.24372704
  0
VERTEX
  8
0
 10
1012.08883403
 20
1318.44230841
  0
VERTEX
  8
0
 10
1012.07850825
 20
1318.64679679
  0
SEQEND
  0
POLYLINE
  8
Default Layer
 66
   1
 39
0.000000
 70
    1
  0
VERTEX
  8
0
 10
1409.82950825
 20
1299.66479679
  0
VERTEX
  8
0
 10
1409.83983403
 20
1299.86928518
  0
VERTEX
  8
0
 10
1409.87014114
 20
1300.06786655
  0
VERTEX
  8
0
 10
1409.91942429
 20
1300.25953561
  0
VERTEX
  8
0
 10
1409.98667816
 20
1300.44328705
  0
VERTEX
  8
0
 10
1410.07089745
 20
1300.61811555
  0
VERTEX
  8
0
 10
1410.17107684
 20
1300.78301581
  0
VERTEX
  8
0
 10
1410.28621102
 20
1300.93698252
  0
VERTEX
  8
0
 10
1410.41529469
 20
1301.07901036
  0
VERTEX
  8
0
 10
1410.55732253
 20
1301.20809402
  0
VERTEX
  8
0
 10
1410.71128923
 20
1301.32322821
  0
VERTEX
  8
0
 10
1410.87618949
 20
1301.42340759
  0
VERTEX
  8
0
 10
1411.05101799
 20
1301.50762688
  0
VERTEX
  8
0
 10
1411.23476943
 20
1301.57488075
  0
VERTEX
  8
0
 10
1411.42643849
 20
1301.62416390
  0
VERTEX
  8
0
 10
1411.62501987
 20
1301.65447102
  0
VERTEX
  8
0
 10
1411.82950825
 20
1301.66479679
  0
VERTEX
  8
0
 10
1412.03399663
 20
1301.65447102
  0
VERTEX
  8
0
 10
1412.23257801
 20
1301.62416390
  0
VERTEX
  8
0
 10
1412.42424707
 20
1301.57488075
  0
VERTEX
  8
0
 10
1412.60799851
 20
1301.50762688
  0
VERTEX
  8
0
 10
1412.78282701
 20
1301.42340759
  0
VERTEX
  8
0
 10
1412.94772727
 20
1301.32322821
  0
VERTEX
  8
0
 10
1413.10169397
 20
1301.20809402
  0
VERTEX
  8
0
 10
1413.24372181
 20
1301.07901036
  0
VERTEX
  8
0
 10
1413.37280548
 20
1300.93698252
  0
VERTEX
  8
0
 10
1413.48793966
 20
1300.78301581
  0
VERTEX
  8
0
 10
1413.58811905
 20
1300.61811555
  0
VERTEX
  8
0
 10
1413.67233834
 20
1300.44328705
  0
VERTEX
  8
0
 10
1413.73959221
 20
1300.25953561
  0
VERTEX
  8
0
 10
1413.78887536
 20
1300.06786655
  0
VERTEX
  8
0
 10
1413.81918248
 20
1299.86928518
  0
VERTEX
  8
0
 10
1413.82950825
 20
1299.66479679
  0
VERTEX
  8
0
 10
1413.81918248
 20
1299.46030841
  0
VERTEX
  8
0
 10
1413.78887536
 20
1299.26172704
  0
VERTEX
  8
0
 10
1413.73959221
 20
1299.07005797
  0
VERTEX
  8
0
 10
1413.67233834
 20
1298.88630654
  0
VERTEX
  8
0
 10
1413.58811905
 20
1298.71147803
  0
VERTEX
  8
0
 10
1413.48793966
 20
1298.54657778
  0
VERTEX
  8
0
 10
1413.37280548
 20
1298.39261107
  0
VERTEX
  8
0
 10
1413.24372181
 20
1298.25058323
  0
VERTEX
  8
0
 10
1413.10169397
 20
1298.12149957
  0
VERTEX
  8
0
 10
1412.94772727
 20
1298.00636538
  0
VERTEX
  8
0
 10
1412.78282701
 20
1297.90618599
  0
VERTEX
  8
0
 10
1412.60799851
 20
1297.82196671
  0
VERTEX
  8
0
 10
1412.42424707
 20
1297.75471284
  0
VERTEX
  8
0
 10
1412.23257801
 20
1297.70542969
  0
VERTEX
  8
0
 10
1412.03399663
 20
1297.67512257
  0
VERTEX
  8
0
 10
1411.82950825
 20
1297.66479679
  0
VERTEX
  8
0
 10
1411.62501987
 20
1297.67512257
  0
VERTEX
  8
0
 10
1411.42643849
 20
1297.70542969
  0
VERTEX
  8
0
 10
1411.23476943
 20
1297.75471284
  0
VERTEX
  8
0
 10
1411.05101799
 20
1297.82196671
  0
VERTEX
  8
0
 10
1410.87618949
 20
1297.90618599
  0
VERTEX
  8
0
 10
1410.71128923
 20
1298.00636538
  0
VERTEX
  8
0
 10
1410.55732253
 20
1298.12149957
  0
VERTEX
  8
0
 10
1410.41529469
 20
1298.25058323
  0
VERTEX
  8
0
 10
1410.28621102
 20
1298.39261107
  0
VERTEX
  8
0
 10
1410.17107684
 20
1298.54657778
  0
VERTEX
  8
0
 10
1410.07089745
 20
1298.71147803
  0
VERTEX
  8
0
 10
1409.98667816
 20
1298.88630654
  0
VERTEX
  8
0
 10
1409.91942429
 20
1299.07005797
  0
VERTEX
  8
0
 10
1409.87014114
 20
1299.26172704
  0
VERTEX
  8
0
 10
1409.83983403
 20
1299.46030841
  0
VERTEX
  8
0
 10
1409.82950825
 20
1299.66479679
  0
SEQEND
  0
POLYLINE
  8
Default Layer
 66
   1
 39
0.000000
 70
    1
  0
VERTEX
  8
0
 10
934.42650825
 20
986.46879679
  0
VERTEX
  8
0
 10
934.43683403
 20
986.67328518
  0
VERTEX
  8
0
 10
934.46714114
 20
986.87186655
  0
VERTEX
  8
0
 10
934.51642429
 20
987.06353561
  0
VERTEX
  8
0
 10
934.58367816
 20
987.24728705
  0
VERTEX
  8
0
 10
934.66789745
 20
987.42211555
  0
VERTEX
  8
0
 10
934.76807684
 20
987.58701581
  0
VERTEX
  8
0
 10
934.88321102
 20
987.74098252
  0
VERTEX
  8
0
 10
935.01229469
 20
987.88301036
  0
VERTEX
  8
0
 10
935.15432253
 20
988.01209402
  0
VERTEX
  8
0
 10
935.30828923
 20
988.12722821
  0
VERTEX
  8
0
 10
935.47318949
 20
988.22740759
  0
VERTEX
  8
0
 10
935.64801799
 20
988.31162688
  0
VERTEX
  8
0
 10
935.83176943
 20
988.37888075
  0
VERTEX
  8
0
 10
936.02343849
 20
988.42816390
  0
VERTEX
  8
0
 10
936.22201987
 20
988.45847102
  0
VERTEX
  8
0
 10
936.42650825
 20
988.46879679
  0
VERTEX
  8
0
 10
936.63099663
 20
988.45847102
  0
VERTEX
  8
0
 10
936.82957801
 20
988.42816390
  0
VERTEX
  8
0
 10
937.02124707
 20
988.37888075
  0
VERTEX
  8
0
 10
937.20499851
 20
988.31162688
  0
VERTEX
  8
0
 10
937.37982701
 20
988.22740759
  0
VERTEX
  8
0
 10
937.54472727
 20
988.12722821
  0
VERTEX
  8
0
 10
937.69869397
 20
988.01209402
  0
VERTEX
  8
0
 10
937.84072181
 20
987.88301036
  0
VERTEX
  8
0
 10
937.96980548
 20
987.74098252
  0
VERTEX
  8
0
 10
938.08493966
 20
987.58701581
  0
VERTEX
  8
0
 10
938.18511905
 20
987.42211555
  0
VERTEX
  8
0
 10
938.26933834
 20
987.24728705
  0
VERTEX
  8
0
 10
938.33659221
 20
987.06353561
  0
VERTEX
  8
0
 10
938.38587536
 20
986.87186655
  0
VERTEX
  8
0
 10
938.41618248
 20
986.67328518
  0
VERTEX
  8
0
 10
938.42650825
 20
986.46879679
  0
VERTEX
  8
0
 10
938.41618248
 20
986.26430841
  0
VERTEX
  8
0
 10
938.38587536
 20
986.06572704
  0
VERTEX
  8
0
 10
938.33659221
 20
985.87405797
  0
VERTEX
  8
0
 10
938.26933834
 20
985.69030654
  0
VERTEX
  8
0
 10
938.18511905
 20
985.51547803
  0
VERTEX
  8
0
 10
938.08493966
 20
985.35057778
  0
VERTEX
  8
0
 10
937.96980548
 20
985.19661107
  0
VERTEX
  8
0
 10
937.84072181
 20
985.05458323
  0
VERTEX
  8
0
 10
937.69869397
 20
984.92549957
  0
VERTEX
  8
0
 10
937.54472727
 20
984.81036538
  0
VERTEX
  8
0
 10
937.37982701
 20
984.71018599
  0
VERTEX
  8
0
 10
937.20499851
 20
984.62596671
  0
VERTEX
  8
0
 10
937.02124707
 20
984.55871284
  0
VERTEX
  8
0
 10
936.82957801
 20
984.50942969
  0
VERTEX
  8
0
 10
936.63099663
 20
984.47912257
  0
VERTEX
  8
0
 10
936.42650825
 20
984.46879679
  0
VERTEX
  8
0
 10
936.22201987
 20
984.47912257
  0
VERTEX
  8
0
 10
936.02343849
 20
984.50942969
  0
VERTEX
  8
0
 10
935.83176943
 20
984.55871284
  0
VERTEX
  8
0
 10
935.64801799
 20
984.62596671
  0
VERTEX
  8
0
 10
935.47318949
 20
984.71018599
  0
VERTEX
  8
0
 10
935.30828923
 20
984.81036538
  0
VERTEX
  8
0
 10
935.15432253
 20
984.92549957
  0
VERTEX
  8
0
 10
935.01229469
 20
985.05458323
  0
VERTEX
  8
0
 10
934.88321102
 20
985.19661107
  0
VERTEX
  8
0
 10
934.76807684
 20
985.35057778
  0
VERTEX
  8
0
 10
934.66789745
 20
985.51547803
  0
VERTEX
  8
0
 10
934.58367816
 20
985.69030654
  0
VERTEX
  8
0
 10
934.51642429
 20
985.87405797
  0
VERTEX
  8
0
 10
934.46714114
 20
986.06572704
  0
VERTEX
  8
0
 10
934.43683403
 20
986.26430841
  0
VERTEX
  8
0
 10
934.42650825
 20
986.46879679
  0
SEQEND
  0
POLYLINE
  8
Default Layer
 66
   1
 39
0.000000
 70
    1
  0
VERTEX
  8
0
 10
1481.44150825
 20
986.46879679
  0
VERTEX
  8
0
 10
1481.45183403
 20
986.67328518
  0
VERTEX
  8
0
 10
1481.48214114
 20
986.87186655
  0
VERTEX
  8
0
 10
1481.53142429
 20
987.06353561
  0
VERTEX
  8
0
 10
1481.59867816
 20
987.24728705
  0
VERTEX
  8
0
 10
1481.68289745
 20
987.42211555
  0
VERTEX
  8
0
 10
1481.78307684
 20
987.58701581
  0
VERTEX
  8
0
 10
1481.89821102
 20
987.74098252
  0
VERTEX
  8
0
 10
1482.02729469
 20
987.88301036
  0
VERTEX
  8
0
 10
1482.16932253
 20
988.01209402
  0
VERTEX
  8
0
 10
1482.32328923
 20
988.12722821
  0
VERTEX
  8
0
 10
1482.48818949
 20
988.22740759
  0
VERTEX
  8
0
 10
1482.66301799
 20
988.31162688
  0
VERTEX
  8
0
 10
1482.84676943
 20
988.37888075
  0
VERTEX
  8
0
 10
1483.03843849
 20
988.42816390
  0
VERTEX
  8
0
 10
1483.23701987
 20
988.45847102
  0
VERTEX
  8
0
 10
1483.44150825
 20
988.46879679
  0
VERTEX
  8
0
 10
1483.64599663
 20
988.45847102
  0
VERTEX
  8
0
 10
1483.84457801
 20
988.42816390
  0
VERTEX
  8
0
 10
1484.03624707
 20
988.37888075
  0
VERTEX
  8
0
 10
1484.21999851
 20
988.31162688
  0
VERTEX
  8
0
 10
1484.39482701
 20
988.22740759
  0
VERTEX
  8
0
 10
1484.55972727
 20
988.12722821
  0
VERTEX
  8
0
 10
1484.71369397
 20
988.01209402
  0
VERTEX
  8
0
 10
1484.85572181
 20
987.88301036
  0
VERTEX
  8
0
 10
1484.98480548
 20
987.74098252
  0
VERTEX
  8
0
 10
1485.09993966
 20
987.58701581
  0
VERTEX
  8
0
 10
1485.20011905
 20
987.42211555
  0
VERTEX
  8
0
 10
1485.28433834
 20
987.24728705
  0
VERTEX
  8
0
 10
1485.35159221
 20
987.06353561
  0
VERTEX
  8
0
 10
1485.40087536
 20
986.87186655
  0
VERTEX
  8
0
 10
1485.43118248
 20
986.67328518
  0
VERTEX
  8
0
 10
1485.44150825
 20
986.46879679
  0
VERTEX
  8
0
 10
1485.43118248
 20
986.26430841
  0
VERTEX
  8
0
 10
1485.40087536
 20
986.06572704
  0
VERTEX
  8
0
 10
1485.35159221
 20
985.87405797
  0
VERTEX
  8
0
 10
1485.28433834
 20
985.69030654
  0
VERTEX
  8
0
 10
1485.20011905
 20
985.51547803
  0
VERTEX
  8
0
 10
1485.09993966
 20
985.35057778
  0
VERTEX
  8
0
 10
1484.98480548
 20
985.19661107
  0
VERTEX
  8
0
 10
1484.85572181
 20
985.05458323
  0
VERTEX
  8
0
 10
1484.71369397
 20
984.92549957
  0
VERTEX
  8
0
 10
1484.55972727
 20
984.81036538
  0
VERTEX
  8
0
 10
1484.39482701
 20
984.71018599
  0
VERTEX
  8
0
 10
1484.21999851
 20
984.62596671
  0
VERTEX
  8
0
 10
1484.03624707
 20
984.55871284
  0
VERTEX
  8
0
 10
1483.84457801
 20
984.50942969
  0
VERTEX
  8
0
 10
1483.64599663
 20
984.47912257
  0
VERTEX
  8
0
 10
1483.44150825
 20
984.46879679
  0
VERTEX
  8
0
 10
1483.23701987
 20
984.47912257
  0
VERTEX
  8
0
 10
1483.03843849
 20
984.50942969
  0
VERTEX
  8
0
 10
1482.84676943
 20
984.55871284
  0
VERTEX
  8
0
 10
1482.66301799
 20
984.62596671
  0
VERTEX
  8
0
 10
1482.48818949
 20
984.71018599
  0
VERTEX
  8
0
 10
1482.32328923
 20
984.81036538
  0
VERTEX
  8
0
 10
1482.16932253
 20
984.92549957
  0
VERTEX
  8
0
 10
1482.02729469
 20
985.05458323
  0
VERTEX
  8
0
 10
1481.89821102
 20
985.19661107
  0
VERTEX
  8
0
 10
1481.78307684
 20
985.35057778
  0
VERTEX
  8
0
 10
1481.68289745
 20
985.51547803
  0
VERTEX
  8
0
 10
1481.59867816
 20
985.69030654
  0
VERTEX
  8
0
 10
1481.53142429
 20
985.87405797
  0
VERTEX
  8
0
 10
1481.48214114
 20
986.06572704
  0
VERTEX
  8
0
 10
1481.45183403
 20
986.26430841
  0
VERTEX
  8
0
 10
1481.44150825
 20
986.46879679
  0
SEQEND
  0
POLYLINE
  8
Default Layer
 66
   1
 39
0.000000
 70
    0
  0
VERTEX
  8
0
 10
167.38330976
 20
2436.61188119
  0
VERTEX
  8
0
 10
256.28330976
 20
2258.81188119
  0
VERTEX
  8
0
 10
345.18330976
 20
2436.61188119
  0
SEQEND
  0
POLYLINE
  8
Default Layer
 66
   1
 39
0.000000
 70
    0
  0
VERTEX
  8
0
 10
404.44997643
 20
2436.61188119
  0
VERTEX
  8
0
 10
463.71664309
 20
2436.61188119
  0
SEQEND
  0
POLYLINE
  8
Default Layer
 66
   1
 39
0.000000
 70
    0
  0
VERTEX
  8
0
 10
434.08330976
 20
2436.61188119
  0
VERTEX
  8
0
 10
434.08330976
 20
2258.81188119
  0
SEQEND
  0
POLYLINE
  8
Default Layer
 66
   1
 39
0.000000
 70
    0
  0
VERTEX
  8
0
 10
404.44997643
 20
2258.81188119
  0
VERTEX
  8
0
 10
463.71664309
 20
2258.81188119
  0
SEQEND
  0
POLYLINE
  8
Default Layer
 66
   1
 39
0.000000
 70
    0
  0
VERTEX
  8
0
 10
522.98330976
 20
2436.61188119
  0
VERTEX
  8
0
 10
611.88330976
 20
2258.81188119
  0
VERTEX
  8
0
 10
700.78330976
 20
2436.61188119
  0
SEQEND
  0
POLYLINE
  8
Default Layer
 66
   1
 39
0.000000
 70
    0
  0
VERTEX
  8
0
 10
760.04997643
 20
2258.81188119
  0
VERTEX
  8
0
 10
760.04997643
 20
2318.07854785
  0
VERTEX
  8
0
 10
819.31664309
 20
2436.61188119
  0
VERTEX
  8
0
 10
878.58330976
 20
2318.07854785
  0
VERTEX
  8
0
 10
878.58330976
 20
2258.81188119
  0
SEQEND
  0
POLYLINE
  8
Default Layer
 66
   1
 39
0.000000
 70
    0
  0
VERTEX
  8
0
 10
760.04997643
 20
2318.07854785
  0
VERTEX
  8
0
 10
878.58330976
 20
2318.07854785
  0
SEQEND
  0
POLYLINE
  8
Default Layer
 66
   1
 39
0.000000
 70
    0
  0
VERTEX
  8
0
 10
937.84997643
 20
2258.81188119
  0
VERTEX
  8
0
 10
937.84997643
 20
2436.61188119
  0
VERTEX
  8
0
 10
1026.74997643
 20
2436.61188119
  0
VERTEX
  8
0
 10
1056.38330976
 20
2406.97854785
  0
VERTEX
  8
0
 10
1056.38330976
 20
2377.34521452
  0
VERTEX
  8
0
 10
1026.74997643
 20
2347.71188119
  0
VERTEX
  8
0
 10
937.84997643
 20
2347.71188119
  0
SEQEND
  0
POLYLINE
  8
Default Layer
 66
   1
 39
0.000000
 70
    0
  0
VERTEX
  8
0
 10
967.48330976
 20
2347.71188119
  0
VERTEX
  8
0
 10
1056.38330976
 20
2258.81188119
  0
SEQEND
  0
POLYLINE
  8
Default Layer
 66
   1
 39
0.000000
 70
    1
  0
VERTEX
  8
0
 10
1115.64997643
 20
2258.81188119
  0
VERTEX
  8
0
 10
1115.64997643
 20
2436.61188119
  0
VERTEX
  8
0
 10
1234.18330976
 20
2436.61188119
  0
VERTEX
  8
0
 10
1234.18330976
 20
2258.81188119
  0
VERTEX
  8
0
 10
1115.64997643
 20
2258.81188119
  0
SEQEND
  0
POLYLINE
  8
Default Layer
 66
   1
 39
0.000000
 70
    0
  0
VERTEX
  8
0
 10
1471.24997643
 20
2258.81188119
  0
VERTEX
  8
0
 10
1560.14997643
 20
2258.81188119
  0
VERTEX
  8
0
 10
1589.78330976
 20
2288.44521452
  0
VERTEX
  8
0
 10
1589.78330976
 20
2318.07854785
  0
VERTEX
  8
0
 10
1560.14997643
 20
2347.71188119
  0
VERTEX
  8
0
 10
1500.88330976
 20
2347.71188119
  0
SEQEND
  0
POLYLINE
  8
Default Layer
 66
   1
 39
0.000000
 70
    0
  0
VERTEX
  8
0
 10
1560.14997643
 20
2347.71188119
  0
VERTEX
  8
0
 10
1589.78330976
 20
2377.34521452
  0
VERTEX
  8
0
 10
1589.78330976
 20
2406.97854785
  0
VERTEX
  8
0
 10
1560.14997643
 20
2436.61188119
  0
VERTEX
  8
0
 10
1471.24997643
 20
2436.61188119
  0
SEQEND
  0
POLYLINE
  8
Default Layer
 66
   1
 39
0.000000
 70
    0
  0
VERTEX
  8
0
 10
1500.88330976
 20
2436.61188119
  0
VERTEX
  8
0
 10
1500.88330976
 20
2258.81188119
  0
SEQEND
  0
POLYLINE
  8
Default Layer
 66
   1
 39
0.000000
 70
    0
  0
VERTEX
  8
0
 10
1649.04997643
 20
2436.61188119
  0
VERTEX
  8
0
 10
1649.04997643
 20
2288.44521452
  0
VERTEX
  8
0
 10
1678.68330976
 20
2258.81188119
  0
VERTEX
  8
0
 10
1737.94997643
 20
2258.81188119
  0
VERTEX
  8
0
 10
1767.58330976
 20
2288.44521452
  0
VERTEX
  8
0
 10
1767.58330976
 20
2436.61188119
  0
SEQEND
  0
POLYLINE
  8
Default Layer
 66
   1
 39
0.000000
 70
    0
  0
VERTEX
  8
0
 10
1826.84997643
 20
2436.61188119
  0
VERTEX
  8
0
 10
1826.84997643
 20
2258.81188119
  0
VERTEX
  8
0
 10
1945.38330976
 20
2258.81188119
  0
SEQEND
  0
POLYLINE
  8
Default Layer
 66
   1
 39
0.000000
 70
    0
  0
VERTEX
  8
0
 10
2004.64997643
 20
2258.81188119
  0
VERTEX
  8
0
 10
2004.64997643
 20
2436.61188119
  0
SEQEND
  0
POLYLINE
  8
Default Layer
 66
   1
 39
0.000000
 70
    0
  0
VERTEX
  8
0
 10
2123.18330976
 20
2436.61188119
  0
VERTEX
  8
0
 10
2034.28330976
 20
2347.71188119
  0
VERTEX
  8
0
 10
2004.64997643
 20
2347.71188119
  0
SEQEND
  0
POLYLINE
  8
Default Layer
 66
   1
 39
0.000000
 70
    0
  0
VERTEX
  8
0
 10
2034.28330976
 20
2347.71188119
  0
VERTEX
  8
0
 10
2123.18330976
 20
2258.81188119
  0
SEQEND
  0
POLYLINE
  8
Default Layer
 66
   1
 39
0.000000
 70
    0
  0
VERTEX
  8
0
 10
2182.44997643
 20
2258.81188119
  0
VERTEX
  8
0
 10
2182.44997643
 20
2436.61188119
  0
SEQEND
  0
POLYLINE
  8
Default Layer
 66
   1
 39
0.000000
 70
    0
  0
VERTEX
  8
0
 10
2182.44997643
 20
2347.71188119
  0
VERTEX
  8
0
 10
2300.98330976
 20
2347.71188119
  0
SEQEND
  0
POLYLINE
  8
Default Layer
 66
   1
 39
0.000000
 70
    0
  0
VERTEX
  8
0
 10
2300.98330976
 20
2436.61188119
  0
VERTEX
  8
0
 10
2300.98330976
 20
2258.81188119
  0
SEQEND
  0
POLYLINE
  8
Default Layer
 66
   1
 39
0.000000
 70
    0
  0
VERTEX
  8
0
 10
2360.24997643
 20
2258.81188119
  0
VERTEX
  8
0
 10
2360.24997643
 20
2436.61188119
  0
VERTEX
  8
0
 10
2478.78330976
 20
2436.61188119
  0
SEQEND
  0
POLYLINE
  8
Default Layer
 66
   1
 39
0.000000
 70
    0
  0
VERTEX
  8
0
 10
2360.24997643
 20
2347.71188119
  0
VERTEX
  8
0
 10
2419.51664309
 20
2347.71188119
  0
SEQEND
  0
POLYLINE
  8
Default Layer
 66
   1
 39
0.000000
 70
    0
  0
VERTEX
  8
0
 10
2360.24997643
 20
2258.81188119
  0
VERTEX
  8
0
 10
2478.78330976
 20
2258.81188119
  0
SEQEND
  0
POLYLINE
  8
Default Layer
 66
   1
 39
0.000000
 70
    0
  0
VERTEX
  8
0
 10
2538.04997643
 20
2258.81188119
  0
VERTEX
  8
0
 10
2538.04997643
 20
2318.07854785
  0
VERTEX
  8
0
 10
2597.31664309
 20
2436.61188119
  0
VERTEX
  8
0
 10
2656.58330976
 20
2318.07854785
  0
VERTEX
  8
0
 10
2656.58330976
 20
2258.81188119
  0
SEQEND
  0
POLYLINE
  8
Default Layer
 66
   1
 39
0.000000
 70
    0
  0
VERTEX
  8
0
 10
2538.04997643
 20
2318.07854785
  0
VERTEX
  8
0
 10
2656.58330976
 20
2318.07854785
  0
SEQEND
  0
POLYLINE
  8
Default Layer
 66
   1
 39
0.000000
 70
    0
  0
VERTEX
  8
0
 10
2715.84997643
 20
2258.81188119
  0
VERTEX
  8
0
 10
2804.74997643
 20
2258.81188119
  0
VERTEX
  8
0
 10
2834.38330976
 20
2288.44521452
  0
VERTEX
  8
0
 10
2834.38330976
 20
2406.97854785
  0
VERTEX
  8
0
 10
2804.74997643
 20
2436.61188119
  0
VERTEX
  8
0
 10
2715.84997643
 20
2436.61188119
  0
SEQEND
  0
POLYLINE
  8
Default Layer
 66
   1
 39
0.000000
 70
    0
  0
VERTEX
  8
0
 10
2745.48330976
 20
2436.61188119
  0
VERTEX
  8
0
 10
2745.48330976
 20
2258.81188119
  0
SEQEND
  0
ENDSEC
  0
EOF
