  0
SECTION
  2
HEADER
  9
$ACADVER
  1
AC1009
  9
$EXTMIN
 10
-310.74573168
 20
0.09805092
 30
0.0
  9
$EXTMAX
 10
1489.27751061
 20
1814.92122680
 30
0.0
  0
ENDSEC
  0
SECTION
  2
TABLES
  0
TABLE
  2
LAYER
 70
1
 0
LAYER
 2
Default Layer
 70
0
 62
1
 6
CONTINUOUS
 0
ENDTAB
 0
ENDSEC
  0
SECTION
  2
ENTITIES
  0
POLYLINE
  8
Default Layer
 66
   1
 39
0.000000
 70
    1
  0
VERTEX
  8
0
 10
4.61621733
 20
610.43703397
  0
VERTEX
  8
0
 10
1420.74831733
 20
610.43703397
  0
VERTEX
  8
0
 10
1420.74831733
 20
315.13125092
  0
VERTEX
  8
0
 10
1419.33001733
 20
144.69695092
  0
VERTEX
  8
0
 10
1419.27611733
 20
0.09805092
  0
VERTEX
  8
0
 10
947.72281733
 20
0.09805092
  0
VERTEX
  8
0
 10
476.16951733
 20
0.09805092
  0
VERTEX
  8
0
 10
4.61621733
 20
0.09805092
  0
VERTEX
  8
0
 10
4.61621733
 20
305.34645092
  0
VERTEX
  8
0
 10
4.61621733
 20
610.43703397
  0
SEQEND
  0
POLYLINE
  8
Default Layer
 66
   1
 39
0.000000
 70
    1
  0
VERTEX
  8
0
 10
-43.39753168
 20
1122.63603390
  0
VERTEX
  8
0
 10
-48.31683168
 20
589.32203390
  0
VERTEX
  8
0
 10
-53.23613168
 20
55.99013390
  0
VERTEX
  8
0
 10
-91.99813168
 20
55.05653390
  0
VERTEX
  8
0
 10
-140.70643168
 20
357.86323390
  0
VERTEX
  8
0
 10
-189.41483168
 20
660.68793390
  0
VERTEX
  8
0
 10
-84.56533168
 20
1121.89993390
  0
VERTEX
  8
0
 10
-43.39753168
 20
1122.63603390
  0
SEQEND
  0
POLYLINE
  8
Default Layer
 66
   1
 39
0.000000
 70
    1
  0
VERTEX
  8
0
 10
-218.53563168
 20
1117.03443390
  0
VERTEX
  8
0
 10
-214.58583168
 20
583.66663390
  0
VERTEX
  8
0
 10
-210.63603168
 20
50.28083390
  0
VERTEX
  8
0
 10
-304.22853168
 20
49.83203390
  0
VERTEX
  8
0
 10
-309.04013168
 20
169.58303390
  0
VERTEX
  8
0
 10
-309.04013168
 20
326.44433390
  0
VERTEX
  8
0
 10
-310.00963168
 20
579.07053390
  0
VERTEX
  8
0
 10
-310.74573168
 20
623.07493390
  0
VERTEX
  8
0
 10
-308.57333168
 20
672.91433390
  0
VERTEX
  8
0
 10
-303.79763168
 20
738.80433390
  0
VERTEX
  8
0
 10
-295.34143168
 20
808.64413390
  0
VERTEX
  8
0
 10
-285.01813168
 20
879.65093390
  0
VERTEX
  8
0
 10
-267.53123168
 20
967.87533390
  0
VERTEX
  8
0
 10
-248.64393168
 20
1050.28273390
  0
VERTEX
  8
0
 10
-232.32403168
 20
1115.00573390
  0
VERTEX
  8
0
 10
-218.53563168
 20
1117.03443390
  0
SEQEND
  0
POLYLINE
  8
Default Layer
 66
   1
 39
0.000000
 70
    1
  0
VERTEX
  8
0
 10
0.94894293
 20
630.83578305
  0
VERTEX
  8
0
 10
0.94894293
 20
630.67796610
  0
VERTEX
  8
0
 10
1417.08104293
 20
630.67796610
  0
VERTEX
  8
0
 10
1417.08104293
 20
632.14638305
  0
VERTEX
  8
0
 10
1416.31675230
 20
645.20762959
  0
VERTEX
  8
0
 10
1415.53463578
 20
659.19853192
  0
VERTEX
  8
0
 10
1413.95970720
 20
687.73813002
  0
VERTEX
  8
0
 10
1413.18828621
 20
701.17123888
  0
VERTEX
  8
0
 10
1412.81126584
 20
707.43458612
  0
VERTEX
  8
0
 10
1412.44182148
 20
713.30282965
  0
VERTEX
  8
0
 10
1412.08129007
 20
718.70624529
  0
VERTEX
  8
0
 10
1411.73100854
 20
723.57510886
  0
VERTEX
  8
0
 10
1411.39231385
 20
727.83969617
  0
VERTEX
  8
0
 10
1411.06654293
 20
731.43028305
  0
VERTEX
  8
0
 10
1410.73902657
 20
734.65982872
  0
VERTEX
  8
0
 10
1410.39447631
 20
737.88774849
  0
VERTEX
  8
0
 10
1410.03330025
 20
741.11400234
  0
VERTEX
  8
0
 10
1409.65590646
 20
744.33855020
  0
VERTEX
  8
0
 10
1409.26270305
 20
747.56135206
  0
VERTEX
  8
0
 10
1408.85409809
 20
750.78236785
  0
VERTEX
  8
0
 10
1407.99231589
 20
757.21888107
  0
VERTEX
  8
0
 10
1407.07382458
 20
763.64776955
  0
VERTEX
  8
0
 10
1406.10188884
 20
770.06871293
  0
VERTEX
  8
0
 10
1405.07977339
 20
776.48139088
  0
VERTEX
  8
0
 10
1404.01074293
 20
782.88548305
  0
VERTEX
  8
0
 10
1403.42609295
 20
786.23705731
  0
VERTEX
  8
0
 10
1402.76819402
 20
789.87087748
  0
VERTEX
  8
0
 10
1402.04402306
 20
793.75512839
  0
VERTEX
  8
0
 10
1401.26055699
 20
797.85799485
  0
VERTEX
  8
0
 10
1399.54364718
 20
806.59231376
  0
VERTEX
  8
0
 10
1397.67327991
 20
815.81931284
  0
VERTEX
  8
0
 10
1395.70527052
 20
825.28447069
  0
VERTEX
  8
0
 10
1393.69543433
 20
834.73326594
  0
VERTEX
  8
0
 10
1391.69958669
 20
843.91117718
  0
VERTEX
  8
0
 10
1389.77354293
 20
852.56368305
  0
VERTEX
  8
0
 10
1387.87486720
 20
860.86271529
  0
VERTEX
  8
0
 10
1385.92688926
 20
869.15045130
  0
VERTEX
  8
0
 10
1383.93407281
 20
877.42773816
  0
VERTEX
  8
0
 10
1381.90088158
 20
885.69542295
  0
VERTEX
  8
0
 10
1379.83177926
 20
893.95435275
  0
VERTEX
  8
0
 10
1377.73122957
 20
902.20537465
  0
VERTEX
  8
0
 10
1375.60369622
 20
910.44933572
  0
VERTEX
  8
0
 10
1373.45364293
 20
918.68708305
  0
VERTEX
  8
0
 10
1371.23444535
 20
927.11277545
  0
VERTEX
  8
0
 10
1368.90564732
 20
935.86719596
  0
VERTEX
  8
0
 10
1366.48096478
 20
944.87112806
  0
VERTEX
  8
0
 10
1363.97411370
 20
954.04535518
  0
VERTEX
  8
0
 10
1361.39881002
 20
963.31066079
  0
VERTEX
  8
0
 10
1358.76876970
 20
972.58782833
  0
VERTEX
  8
0
 10
1357.43750953
 20
977.20610516
  0
VERTEX
  8
0
 10
1356.09770868
 20
981.79764127
  0
VERTEX
  8
0
 10
1354.75108165
 20
986.35253459
  0
VERTEX
  8
0
 10
1353.39934293
 20
990.86088305
  0
VERTEX
  8
0
 10
1352.01714140
 20
995.38911824
  0
VERTEX
  8
0
 10
1350.58165760
 20
1000.00427830
  0
VERTEX
  8
0
 10
1349.09840349
 20
1004.69737101
  0
VERTEX
  8
0
 10
1347.57289102
 20
1009.45940414
  0
VERTEX
  8
0
 10
1344.41713886
 20
1019.15432273
  0
VERTEX
  8
0
 10
1341.15849679
 20
1029.01709624
  0
VERTEX
  8
0
 10
1334.50892563
 20
1048.95845675
  0
VERTEX
  8
0
 10
1331.20618788
 20
1058.89316809
  0
VERTEX
  8
0
 10
1327.97694293
 20
1068.70798305
  0
VERTEX
  8
0
 10
1325.10709763
 20
1077.21400827
  0
VERTEX
  8
0
 10
1322.14820547
 20
1086.03167665
  0
VERTEX
  8
0
 10
1316.17699305
 20
1103.85399933
  0
VERTEX
  8
0
 10
1313.27152901
 20
1112.48468181
  0
VERTEX
  8
0
 10
1310.49073057
 20
1120.67906386
  0
VERTEX
  8
0
 10
1307.88802584
 20
1128.25015957
  0
VERTEX
  8
0
 10
1305.51684293
 20
1135.01098305
  0
VERTEX
  8
0
 10
1303.25717272
 20
1141.29631239
  0
VERTEX
  8
0
 10
1300.95926935
 20
1147.56772412
  0
VERTEX
  8
0
 10
1298.63195587
 20
1153.82842999
  0
VERTEX
  8
0
 10
1296.28405530
 20
1160.08164177
  0
VERTEX
  8
0
 10
1291.56178507
 20
1172.57843007
  0
VERTEX
  8
0
 10
1289.20506147
 20
1178.82843010
  0
VERTEX
  8
0
 10
1286.86304293
 20
1185.08378305
  0
VERTEX
  8
0
 10
1283.37630144
 20
1186.39784587
  0
VERTEX
  8
0
 10
1279.70150067
 20
1187.75530201
  0
VERTEX
  8
0
 10
1272.23906357
 20
1190.49625027
  0
VERTEX
  8
0
 10
1268.67709837
 20
1191.82767042
  0
VERTEX
  8
0
 10
1265.37841615
 20
1193.09833992
  0
VERTEX
  8
0
 10
1263.86306727
 20
1193.70275694
  0
VERTEX
  8
0
 10
1262.45585248
 20
1194.28222280
  0
VERTEX
  8
0
 10
1261.17087622
 20
1194.83348300
  0
VERTEX
  8
0
 10
1260.02224293
 20
1195.35328305
  0
VERTEX
  8
0
 10
1257.85521518
 20
1196.38691846
  0
VERTEX
  8
0
 10
1255.67159660
 20
1197.47093563
  0
VERTEX
  8
0
 10
1253.49302230
 20
1198.59791184
  0
VERTEX
  8
0
 10
1251.34112734
 20
1199.76042436
  0
VERTEX
  8
0
 10
1249.23754684
 20
1200.95105047
  0
VERTEX
  8
0
 10
1247.20391588
 20
1202.16236744
  0
VERTEX
  8
0
 10
1246.22009244
 20
1202.77346539
  0
VERTEX
  8
0
 10
1245.26186954
 20
1203.38695254
  0
VERTEX
  8
0
 10
1244.33195158
 20
1204.00190104
  0
VERTEX
  8
0
 10
1243.43304293
 20
1204.61738305
  0
VERTEX
  8
0
 10
1241.65029381
 20
1205.86745225
  0
VERTEX
  8
0
 10
1239.85156961
 20
1207.15704382
  0
VERTEX
  8
0
 10
1238.06613988
 20
1208.48787061
  0
VERTEX
  8
0
 10
1237.18755718
 20
1209.16928249
  0
VERTEX
  8
0
 10
1236.32327419
 20
1209.86164549
  0
VERTEX
  8
0
 10
1235.47694959
 20
1210.56517373
  0
VERTEX
  8
0
 10
1234.65224209
 20
1211.28008131
  0
VERTEX
  8
0
 10
1233.85281037
 20
1212.00658234
  0
VERTEX
  8
0
 10
1233.08231314
 20
1212.74489094
  0
VERTEX
  8
0
 10
1232.34440908
 20
1213.49522120
  0
VERTEX
  8
0
 10
1231.64275690
 20
1214.25778723
  0
VERTEX
  8
0
 10
1230.98101528
 20
1215.03280315
  0
VERTEX
  8
0
 10
1230.36284293
 20
1215.82048305
  0
VERTEX
  8
0
 10
1229.78618396
 20
1216.62625924
  0
VERTEX
  8
0
 10
1229.24471954
 20
1217.45414198
  0
VERTEX
  8
0
 10
1228.73571397
 20
1218.30221233
  0
VERTEX
  8
0
 10
1228.25643152
 20
1219.16855136
  0
VERTEX
  8
0
 10
1227.80413646
 20
1220.05124012
  0
VERTEX
  8
0
 10
1227.37609308
 20
1220.94835968
  0
VERTEX
  8
0
 10
1226.96956565
 20
1221.85799111
  0
VERTEX
  8
0
 10
1226.58181846
 20
1222.77821546
  0
VERTEX
  8
0
 10
1226.21011578
 20
1223.70711380
  0
VERTEX
  8
0
 10
1225.85172190
 20
1224.64276718
  0
VERTEX
  8
0
 10
1225.16391764
 20
1226.52666336
  0
VERTEX
  8
0
 10
1223.82764293
 20
1230.29108305
  0
VERTEX
  8
0
 10
1223.48140712
 20
1231.28176746
  0
VERTEX
  8
0
 10
1223.12076285
 20
1232.38066633
  0
VERTEX
  8
0
 10
1222.74743706
 20
1233.57664934
  0
VERTEX
  8
0
 10
1222.36315669
 20
1234.85858615
  0
VERTEX
  8
0
 10
1221.56864000
 20
1237.63579983
  0
VERTEX
  8
0
 10
1220.75102833
 20
1240.62326472
  0
VERTEX
  8
0
 10
1219.92413723
 20
1243.73193814
  0
VERTEX
  8
0
 10
1219.10178226
 20
1246.87277745
  0
VERTEX
  8
0
 10
1217.52594293
 20
1252.89478305
  0
VERTEX
  8
0
 10
1216.70589037
 20
1256.11280990
  0
VERTEX
  8
0
 10
1215.76154611
 20
1259.99150802
  0
VERTEX
  8
0
 10
1213.58109592
 20
1269.10345304
  0
VERTEX
  8
0
 10
1212.38554670
 20
1274.02296743
  0
VERTEX
  8
0
 10
1211.14681922
 20
1278.97568807
  0
VERTEX
  8
0
 10
1210.51760062
 20
1281.41548002
  0
VERTEX
  8
0
 10
1209.88519185
 20
1283.80474869
  0
VERTEX
  8
0
 10
1209.25212768
 20
1286.12388580
  0
VERTEX
  8
0
 10
1208.62094293
 20
1288.35328305
  0
VERTEX
  8
0
 10
1206.10440703
 20
1297.07460486
  0
VERTEX
  8
0
 10
1204.81788599
 20
1301.42994429
  0
VERTEX
  8
0
 10
1204.15908884
 20
1303.60268472
  0
VERTEX
  8
0
 10
1203.48670599
 20
1305.77076794
  0
VERTEX
  8
0
 10
1202.79831649
 20
1307.93316570
  0
VERTEX
  8
0
 10
1202.09149936
 20
1310.08884973
  0
VERTEX
  8
0
 10
1201.36383366
 20
1312.23679178
  0
VERTEX
  8
0
 10
1200.61289843
 20
1314.37596357
  0
VERTEX
  8
0
 10
1199.83627269
 20
1316.50533686
  0
VERTEX
  8
0
 10
1199.03153551
 20
1318.62388337
  0
VERTEX
  8
0
 10
1198.19626590
 20
1320.73057486
  0
VERTEX
  8
0
 10
1197.32804293
 20
1322.82438305
  0
VERTEX
  8
0
 10
1195.46745209
 20
1327.14461955
  0
VERTEX
  8
0
 10
1194.47477352
 20
1329.39255656
  0
VERTEX
  8
0
 10
1193.44477285
 20
1331.67964127
  0
VERTEX
  8
0
 10
1192.38065010
 20
1333.99132506
  0
VERTEX
  8
0
 10
1191.28560525
 20
1336.31305932
  0
VERTEX
  8
0
 10
1190.16283833
 20
1338.63029543
  0
VERTEX
  8
0
 10
1189.01554932
 20
1340.92848480
  0
VERTEX
  8
0
 10
1187.84693824
 20
1343.19307879
  0
VERTEX
  8
0
 10
1186.66020509
 20
1345.40952881
  0
VERTEX
  8
0
 10
1185.45854988
 20
1347.56328623
  0
VERTEX
  8
0
 10
1184.24517260
 20
1349.63980245
  0
VERTEX
  8
0
 10
1183.02327326
 20
1351.62452886
  0
VERTEX
  8
0
 10
1182.41012782
 20
1352.57792444
  0
VERTEX
  8
0
 10
1181.79605186
 20
1353.50291683
  0
VERTEX
  8
0
 10
1181.18144540
 20
1354.39768747
  0
VERTEX
  8
0
 10
1180.56670842
 20
1355.26041777
  0
VERTEX
  8
0
 10
1179.95224093
 20
1356.08928915
  0
VERTEX
  8
0
 10
1179.33844293
 20
1356.88248305
  0
VERTEX
  8
0
 10
1178.08322800
 20
1358.43314737
  0
VERTEX
  8
0
 10
1176.77414473
 20
1359.98166505
  0
VERTEX
  8
0
 10
1175.41605587
 20
1361.52131693
  0
VERTEX
  8
0
 10
1174.01382417
 20
1363.04538384
  0
VERTEX
  8
0
 10
1172.57231238
 20
1364.54714661
  0
VERTEX
  8
0
 10
1171.09638324
 20
1366.01988609
  0
VERTEX
  8
0
 10
1169.59089952
 20
1367.45688310
  0
VERTEX
  8
0
 10
1168.06072395
 20
1368.85141848
  0
VERTEX
  8
0
 10
1166.51071929
 20
1370.19677307
  0
VERTEX
  8
0
 10
1164.94574828
 20
1371.48622769
  0
VERTEX
  8
0
 10
1163.37067368
 20
1372.71306319
  0
VERTEX
  8
0
 10
1162.58086713
 20
1373.30089903
  0
VERTEX
  8
0
 10
1161.79035822
 20
1373.87056040
  0
VERTEX
  8
0
 10
1160.99975479
 20
1374.42120741
  0
VERTEX
  8
0
 10
1160.20966467
 20
1374.95200016
  0
VERTEX
  8
0
 10
1159.42069572
 20
1375.46209875
  0
VERTEX
  8
0
 10
1158.63345578
 20
1375.95066330
  0
VERTEX
  8
0
 10
1157.84855268
 20
1376.41685389
  0
VERTEX
  8
0
 10
1157.06659428
 20
1376.85983065
  0
VERTEX
  8
0
 10
1156.28818841
 20
1377.27875367
  0
VERTEX
  8
0
 10
1155.51394293
 20
1377.67278305
  0
VERTEX
  8
0
 10
1154.73791073
 20
1378.04337619
  0
VERTEX
  8
0
 10
1153.95397483
 20
1378.39308475
  0
VERTEX
  8
0
 10
1153.16248824
 20
1378.72271029
  0
VERTEX
  8
0
 10
1152.36380400
 20
1379.03305434
  0
VERTEX
  8
0
 10
1151.55827510
 20
1379.32491847
  0
VERTEX
  8
0
 10
1150.74625457
 20
1379.59910420
  0
VERTEX
  8
0
 10
1149.92809543
 20
1379.85641309
  0
VERTEX
  8
0
 10
1149.10415070
 20
1380.09764669
  0
VERTEX
  8
0
 10
1148.27477338
 20
1380.32360653
  0
VERTEX
  8
0
 10
1147.44031651
 20
1380.53509417
  0
VERTEX
  8
0
 10
1145.75757614
 20
1380.91785902
  0
VERTEX
  8
0
 10
1144.05875373
 20
1381.25235360
  0
VERTEX
  8
0
 10
1142.34667342
 20
1381.54499027
  0
VERTEX
  8
0
 10
1140.62415934
 20
1381.80218140
  0
VERTEX
  8
0
 10
1138.89403563
 20
1382.03033936
  0
VERTEX
  8
0
 10
1137.15912644
 20
1382.23587652
  0
VERTEX
  8
0
 10
1135.42225589
 20
1382.42520524
  0
VERTEX
  8
0
 10
1131.95392729
 20
1382.78088682
  0
VERTEX
  8
0
 10
1128.51164293
 20
1383.14868305
  0
VERTEX
  8
0
 10
1127.87793045
 20
1383.20477018
  0
VERTEX
  8
0
 10
1126.83878485
 20
1383.27497715
  0
VERTEX
  8
0
 10
1123.58354841
 20
1383.45585379
  0
VERTEX
  8
0
 10
1118.82464186
 20
1383.68751943
  0
VERTEX
  8
0
 10
1112.64077350
 20
1383.96618050
  0
VERTEX
  8
0
 10
1096.31298438
 20
1384.64931471
  0
VERTEX
  8
0
 10
1075.22984723
 20
1385.47490792
  0
VERTEX
  8
0
 10
1050.02102822
 20
1386.41261167
  0
VERTEX
  8
0
 10
1021.31619353
 20
1387.43207747
  0
VERTEX
  8
0
 10
989.74500933
 20
1388.50295685
  0
VERTEX
  8
0
 10
955.93714181
 20
1389.59490132
  0
VERTEX
  8
0
 10
938.39122248
 20
1390.13928907
  0
VERTEX
  8
0
 10
920.52225713
 20
1390.67756241
  0
VERTEX
  8
0
 10
902.40895404
 20
1391.20592778
  0
VERTEX
  8
0
 10
884.13002148
 20
1391.72059163
  0
VERTEX
  8
0
 10
865.76416771
 20
1392.21776040
  0
VERTEX
  8
0
 10
847.39010102
 20
1392.69364052
  0
VERTEX
  8
0
 10
829.08652968
 20
1393.14443843
  0
VERTEX
  8
0
 10
810.93216195
 20
1393.56636058
  0
VERTEX
  8
0
 10
793.00570610
 20
1393.95561341
  0
VERTEX
  8
0
 10
775.38587042
 20
1394.30840335
  0
VERTEX
  8
0
 10
758.15136317
 20
1394.62093684
  0
VERTEX
  8
0
 10
741.38089263
 20
1394.88942033
  0
VERTEX
  8
0
 10
725.15316706
 20
1395.11006026
  0
VERTEX
  8
0
 10
709.54689474
 20
1395.27906306
  0
VERTEX
  8
0
 10
694.64078394
 20
1395.39263518
  0
VERTEX
  8
0
 10
680.51354293
 20
1395.44698305
  0
VERTEX
  8
0
 10
666.42196249
 20
1395.44287619
  0
VERTEX
  8
0
 10
651.61941071
 20
1395.38574901
  0
VERTEX
  8
0
 10
636.17946177
 20
1395.27880526
  0
VERTEX
  8
0
 10
620.17568989
 20
1395.12524872
  0
VERTEX
  8
0
 10
603.68166928
 20
1394.92828317
  0
VERTEX
  8
0
 10
586.77097414
 20
1394.69111237
  0
VERTEX
  8
0
 10
569.51717869
 20
1394.41694010
  0
VERTEX
  8
0
 10
551.99385711
 20
1394.10897012
  0
VERTEX
  8
0
 10
534.27458363
 20
1393.77040620
  0
VERTEX
  8
0
 10
516.43293246
 20
1393.40445212
  0
VERTEX
  8
0
 10
498.54247778
 20
1393.01431165
  0
VERTEX
  8
0
 10
480.67679382
 20
1392.60318856
  0
VERTEX
  8
0
 10
462.90945479
 20
1392.17428661
  0
VERTEX
  8
0
 10
445.31403488
 20
1391.73080959
  0
VERTEX
  8
0
 10
427.96410830
 20
1391.27596125
  0
VERTEX
  8
0
 10
410.93324926
 20
1390.81294538
  0
VERTEX
  8
0
 10
394.29503197
 20
1390.34496573
  0
VERTEX
  8
0
 10
378.12303064
 20
1389.87522609
  0
VERTEX
  8
0
 10
347.47197265
 20
1388.94328190
  0
VERTEX
  8
0
 10
319.56866897
 20
1388.04274298
  0
VERTEX
  8
0
 10
295.00171324
 20
1387.19923947
  0
VERTEX
  8
0
 10
284.15330137
 20
1386.80688543
  0
VERTEX
  8
0
 10
274.35969912
 20
1386.43840156
  0
VERTEX
  8
0
 10
265.69448067
 20
1386.09699163
  0
VERTEX
  8
0
 10
258.23122025
 20
1385.78585941
  0
VERTEX
  8
0
 10
252.04349206
 20
1385.50820867
  0
VERTEX
  8
0
 10
247.20487031
 20
1385.26724319
  0
VERTEX
  8
0
 10
243.78892919
 20
1385.06616672
  0
VERTEX
  8
0
 10
242.63745582
 20
1384.98158805
  0
VERTEX
  8
0
 10
241.86924293
 20
1384.90818305
  0
VERTEX
  8
0
 10
239.57944624
 20
1384.61166439
  0
VERTEX
  8
0
 10
237.29764141
 20
1384.26691227
  0
VERTEX
  8
0
 10
235.02300171
 20
1383.87891634
  0
VERTEX
  8
0
 10
232.75470040
 20
1383.45266629
  0
VERTEX
  8
0
 10
230.49191071
 20
1382.99315177
  0
VERTEX
  8
0
 10
228.23380591
 20
1382.50536246
  0
VERTEX
  8
0
 10
225.97955926
 20
1381.99428803
  0
VERTEX
  8
0
 10
223.72834401
 20
1381.46491815
  0
VERTEX
  8
0
 10
219.23170072
 20
1380.37125070
  0
VERTEX
  8
0
 10
214.73726208
 20
1379.26427746
  0
VERTEX
  8
0
 10
210.23841414
 20
1378.18391580
  0
VERTEX
  8
0
 10
207.98526982
 20
1377.66618847
  0
VERTEX
  8
0
 10
205.72854293
 20
1377.17008305
  0
VERTEX
  8
0
 10
203.26625721
 20
1375.87593748
  0
VERTEX
  8
0
 10
200.78418833
 20
1374.61494108
  0
VERTEX
  8
0
 10
198.29420619
 20
1373.36720435
  0
VERTEX
  8
0
 10
195.80818067
 20
1372.11283779
  0
VERTEX
  8
0
 10
193.33798169
 20
1370.83195189
  0
VERTEX
  8
0
 10
192.11252649
 20
1370.17534871
  0
VERTEX
  8
0
 10
190.89547914
 20
1369.50465713
  0
VERTEX
  8
0
 10
189.68832337
 20
1368.81739097
  0
VERTEX
  8
0
 10
188.49254292
 20
1368.11106402
  0
VERTEX
  8
0
 10
187.30962153
 20
1367.38319011
  0
VERTEX
  8
0
 10
186.14104293
 20
1366.63128305
  0
VERTEX
  8
0
 10
183.74141945
 20
1365.03245364
  0
VERTEX
  8
0
 10
181.22097173
 20
1363.30437771
  0
VERTEX
  8
0
 10
179.93173826
 20
1362.39627989
  0
VERTEX
  8
0
 10
178.63185810
 20
1361.46115952
  0
VERTEX
  8
0
 10
177.32785105
 20
1360.50077965
  0
VERTEX
  8
0
 10
176.02623690
 20
1359.51690330
  0
VERTEX
  8
0
 10
174.73353543
 20
1358.51129351
  0
VERTEX
  8
0
 10
173.45626644
 20
1357.48571330
  0
VERTEX
  8
0
 10
172.20094973
 20
1356.44192571
  0
VERTEX
  8
0
 10
170.97410507
 20
1355.38169376
  0
VERTEX
  8
0
 10
169.78225228
 20
1354.30678049
  0
VERTEX
  8
0
 10
168.63191113
 20
1353.21894893
  0
VERTEX
  8
0
 10
167.52960141
 20
1352.11996211
  0
VERTEX
  8
0
 10
166.48184293
 20
1351.01158305
  0
VERTEX
  8
0
 10
165.48468552
 20
1349.88238894
  0
VERTEX
  8
0
 10
164.52732437
 20
1348.72179482
  0
VERTEX
  8
0
 10
163.60599727
 20
1347.53282052
  0
VERTEX
  8
0
 10
162.71694203
 20
1346.31848588
  0
VERTEX
  8
0
 10
161.85639645
 20
1345.08181073
  0
VERTEX
  8
0
 10
161.02059832
 20
1343.82581491
  0
VERTEX
  8
0
 10
160.20578545
 20
1342.55351824
  0
VERTEX
  8
0
 10
159.40819563
 20
1341.26794057
  0
VERTEX
  8
0
 10
157.84963635
 20
1338.66902155
  0
VERTEX
  8
0
 10
156.31482288
 20
1336.05321651
  0
VERTEX
  8
0
 10
154.77365760
 20
1333.44468412
  0
VERTEX
  8
0
 10
153.99128754
 20
1332.15069475
  0
VERTEX
  8
0
 10
153.19604293
 20
1330.86758305
  0
VERTEX
  8
0
 10
151.59059040
 20
1328.30149973
  0
VERTEX
  8
0
 10
149.98807159
 20
1325.71203008
  0
VERTEX
  8
0
 10
148.39162893
 20
1323.10234703
  0
VERTEX
  8
0
 10
146.80440486
 20
1320.47562349
  0
VERTEX
  8
0
 10
145.22954179
 20
1317.83503240
  0
VERTEX
  8
0
 10
143.67018216
 20
1315.18374668
  0
VERTEX
  8
0
 10
142.12946839
 20
1312.52493926
  0
VERTEX
  8
0
 10
140.61054293
 20
1309.86178305
  0
VERTEX
  8
0
 10
139.05299419
 20
1307.09662852
  0
VERTEX
  8
0
 10
137.41190874
 20
1304.15452428
  0
VERTEX
  8
0
 10
135.71367617
 20
1301.07269047
  0
VERTEX
  8
0
 10
133.98468610
 20
1297.88834724
  0
VERTEX
  8
0
 10
132.25132814
 20
1294.63871473
  0
VERTEX
  8
0
 10
130.53999188
 20
1291.36101310
  0
VERTEX
  8
0
 10
128.87706694
 20
1288.09246249
  0
VERTEX
  8
0
 10
127.28894293
 20
1284.87028305
  0
VERTEX
  8
0
 10
126.49267641
 20
1283.20554920
  0
VERTEX
  8
0
 10
125.64944813
 20
1281.40699721
  0
VERTEX
  8
0
 10
123.84397184
 20
1277.46281319
  0
VERTEX
  8
0
 10
121.91624512
 20
1273.14647985
  0
VERTEX
  8
0
 10
119.90999906
 20
1268.56674604
  0
VERTEX
  8
0
 10
117.86896473
 20
1263.83236061
  0
VERTEX
  8
0
 10
115.83687322
 20
1259.05207240
  0
VERTEX
  8
0
 10
113.85745559
 20
1254.33463026
  0
VERTEX
  8
0
 10
111.97444293
 20
1249.78878305
  0
VERTEX
  8
0
 10
109.99056852
 20
1245.03043415
  0
VERTEX
  8
0
 10
107.76339844
 20
1239.80030950
  0
VERTEX
  8
0
 10
105.41891294
 20
1234.39439178
  0
VERTEX
  8
0
 10
103.08309227
 20
1229.10866369
  0
VERTEX
  8
0
 10
100.88191671
 20
1224.23910792
  0
VERTEX
  8
0
 10
99.87118967
 20
1222.05288924
  0
VERTEX
  8
0
 10
98.94136650
 20
1220.08170714
  0
VERTEX
  8
0
 10
98.10819473
 20
1218.36255946
  0
VERTEX
  8
0
 10
97.38742190
 20
1216.93244404
  0
VERTEX
  8
0
 10
96.79479554
 20
1215.82835872
  0
VERTEX
  8
0
 10
96.55145839
 20
1215.41013916
  0
VERTEX
  8
0
 10
96.34606318
 20
1215.08730132
  0
VERTEX
  8
0
 10
95.96215727
 20
1214.55032870
  0
VERTEX
  8
0
 10
95.55491402
 20
1214.03273288
  0
VERTEX
  8
0
 10
95.12643660
 20
1213.53286447
  0
VERTEX
  8
0
 10
94.67882816
 20
1213.04907409
  0
VERTEX
  8
0
 10
94.21419186
 20
1212.57971233
  0
VERTEX
  8
0
 10
93.73463086
 20
1212.12312981
  0
VERTEX
  8
0
 10
93.24224834
 20
1211.67767714
  0
VERTEX
  8
0
 10
92.73914743
 20
1211.24170493
  0
VERTEX
  8
0
 10
91.70920315
 20
1210.39160429
  0
VERTEX
  8
0
 10
90.66162331
 20
1209.55963278
  0
VERTEX
  8
0
 10
89.61323319
 20
1208.73259527
  0
VERTEX
  8
0
 10
88.58085809
 20
1207.89729661
  0
VERTEX
  8
0
 10
87.51962202
 20
1207.03967153
  0
VERTEX
  8
0
 10
86.38423107
 20
1206.15885906
  0
VERTEX
  8
0
 10
85.19088365
 20
1205.26147052
  0
VERTEX
  8
0
 10
83.95577814
 20
1204.35411724
  0
VERTEX
  8
0
 10
81.42508638
 20
1202.53596171
  0
VERTEX
  8
0
 10
78.92174293
 20
1200.75728305
  0
VERTEX
  8
0
 10
77.50501254
 20
1199.76724042
  0
VERTEX
  8
0
 10
75.75368322
 20
1198.56912654
  0
VERTEX
  8
0
 10
71.56155731
 20
1195.73290905
  0
VERTEX
  8
0
 10
66.97402420
 20
1192.61707857
  0
VERTEX
  8
0
 10
64.72843590
 20
1191.06944844
  0
VERTEX
  8
0
 10
62.61974293
 20
1189.59008305
  0
VERTEX
  8
0
 10
61.58328221
 20
1188.86617743
  0
VERTEX
  8
0
 10
60.49289216
 20
1188.12416462
  0
VERTEX
  8
0
 10
58.17996961
 20
1186.58475561
  0
VERTEX
  8
0
 10
55.74026638
 20
1184.96973238
  0
VERTEX
  8
0
 10
53.23307358
 20
1183.27697129
  0
VERTEX
  8
0
 10
51.97269706
 20
1182.40077540
  0
VERTEX
  8
0
 10
50.71768231
 20
1181.50434869
  0
VERTEX
  8
0
 10
49.47544071
 20
1180.58742569
  0
VERTEX
  8
0
 10
48.25338366
 20
1179.64974095
  0
VERTEX
  8
0
 10
47.05892254
 20
1178.69102902
  0
VERTEX
  8
0
 10
45.89946875
 20
1177.71102443
  0
VERTEX
  8
0
 10
44.78243366
 20
1176.70946174
  0
VERTEX
  8
0
 10
43.71522867
 20
1175.68607548
  0
VERTEX
  8
0
 10
42.67388292
 20
1174.60804273
  0
VERTEX
  8
0
 10
41.62984611
 20
1173.44822875
  0
VERTEX
  8
0
 10
40.58366049
 20
1172.21490044
  0
VERTEX
  8
0
 10
39.53586826
 20
1170.91632469
  0
VERTEX
  8
0
 10
38.48701167
 20
1169.56076837
  0
VERTEX
  8
0
 10
37.43763293
 20
1168.15649837
  0
VERTEX
  8
0
 10
36.38827428
 20
1166.71178158
  0
VERTEX
  8
0
 10
35.33947794
 20
1165.23488488
  0
VERTEX
  8
0
 10
33.24574110
 20
1162.21761929
  0
VERTEX
  8
0
 10
31.16076024
 20
1159.17083669
  0
VERTEX
  8
0
 10
29.08887318
 20
1156.16067216
  0
VERTEX
  8
0
 10
28.05919539
 20
1154.68998888
  0
VERTEX
  8
0
 10
27.03441773
 20
1153.25326077
  0
VERTEX
  8
0
 10
24.94488012
 20
1150.33391573
  0
VERTEX
  8
0
 10
22.77691976
 20
1147.26662158
  0
VERTEX
  8
0
 10
18.27812097
 20
1140.82475434
  0
VERTEX
  8
0
 10
13.68280187
 20
1134.20079589
  0
VERTEX
  8
0
 10
9.13574293
 20
1127.66788305
  0
VERTEX
  8
0
 10
0.93094293
 20
1109.04988305
  0
VERTEX
  8
0
 10
0.94894293
 20
630.83578305
  0
SEQEND
  0
POLYLINE
  8
Default Layer
 66
   1
 39
0.000000
 70
    0
  0
VERTEX
  8
0
 10
1085.03656713
 20
1802.44669911
  0
VERTEX
  8
0
 10
1085.27536344
 20
1802.54089062
  0
VERTEX
  8
0
 10
1085.51043481
 20
1802.44474850
  0
SEQEND
  0
POLYLINE
  8
Default Layer
 66
   1
 39
0.000000
 70
    0
  0
VERTEX
  8
0
 10
-136.32248939
 20
1713.32122680
  0
VERTEX
  8
0
 10
-136.32248939
 20
1814.92122680
  0
VERTEX
  8
0
 10
-68.58915606
 20
1814.92122680
  0
SEQEND
  0
POLYLINE
  8
Default Layer
 66
   1
 39
0.000000
 70
    0
  0
VERTEX
  8
0
 10
-136.32248939
 20
1764.12122680
  0
VERTEX
  8
0
 10
-102.45582273
 20
1764.12122680
  0
SEQEND
  0
POLYLINE
  8
Default Layer
 66
   1
 39
0.000000
 70
    1
  0
VERTEX
  8
0
 10
-34.72248939
 20
1713.32122680
  0
VERTEX
  8
0
 10
-34.72248939
 20
1814.92122680
  0
VERTEX
  8
0
 10
33.01084394
 20
1814.92122680
  0
VERTEX
  8
0
 10
33.01084394
 20
1713.32122680
  0
VERTEX
  8
0
 10
-34.72248939
 20
1713.32122680
  0
SEQEND
  0
POLYLINE
  8
Default Layer
 66
   1
 39
0.000000
 70
    0
  0
VERTEX
  8
0
 10
66.87751061
 20
1713.32122680
  0
VERTEX
  8
0
 10
66.87751061
 20
1814.92122680
  0
VERTEX
  8
0
 10
117.67751061
 20
1814.92122680
  0
VERTEX
  8
0
 10
134.61084394
 20
1797.98789346
  0
VERTEX
  8
0
 10
134.61084394
 20
1781.05456013
  0
VERTEX
  8
0
 10
117.67751061
 20
1764.12122680
  0
VERTEX
  8
0
 10
66.87751061
 20
1764.12122680
  0
SEQEND
  0
POLYLINE
  8
Default Layer
 66
   1
 39
0.000000
 70
    0
  0
VERTEX
  8
0
 10
83.81084394
 20
1764.12122680
  0
VERTEX
  8
0
 10
134.61084394
 20
1713.32122680
  0
SEQEND
  0
POLYLINE
  8
Default Layer
 66
   1
 39
0.000000
 70
    0
  0
VERTEX
  8
0
 10
168.47751061
 20
1713.32122680
  0
VERTEX
  8
0
 10
219.27751061
 20
1713.32122680
  0
VERTEX
  8
0
 10
236.21084394
 20
1730.25456013
  0
VERTEX
  8
0
 10
236.21084394
 20
1797.98789346
  0
VERTEX
  8
0
 10
219.27751061
 20
1814.92122680
  0
VERTEX
  8
0
 10
168.47751061
 20
1814.92122680
  0
SEQEND
  0
POLYLINE
  8
Default Layer
 66
   1
 39
0.000000
 70
    0
  0
VERTEX
  8
0
 10
185.41084394
 20
1814.92122680
  0
VERTEX
  8
0
 10
185.41084394
 20
1713.32122680
  0
SEQEND
  0
POLYLINE
  8
Default Layer
 66
   1
 39
0.000000
 70
    0
  0
VERTEX
  8
0
 10
439.41084394
 20
1730.25456013
  0
VERTEX
  8
0
 10
422.47751061
 20
1713.32122680
  0
VERTEX
  8
0
 10
388.61084394
 20
1713.32122680
  0
VERTEX
  8
0
 10
371.67751061
 20
1730.25456013
  0
VERTEX
  8
0
 10
371.67751061
 20
1797.98789346
  0
VERTEX
  8
0
 10
388.61084394
 20
1814.92122680
  0
VERTEX
  8
0
 10
422.47751061
 20
1814.92122680
  0
VERTEX
  8
0
 10
439.41084394
 20
1797.98789346
  0
SEQEND
  0
POLYLINE
  8
Default Layer
 66
   1
 39
0.000000
 70
    1
  0
VERTEX
  8
0
 10
473.27751061
 20
1713.32122680
  0
VERTEX
  8
0
 10
473.27751061
 20
1814.92122680
  0
VERTEX
  8
0
 10
541.01084394
 20
1814.92122680
  0
VERTEX
  8
0
 10
541.01084394
 20
1713.32122680
  0
VERTEX
  8
0
 10
473.27751061
 20
1713.32122680
  0
SEQEND
  0
POLYLINE
  8
Default Layer
 66
   1
 39
0.000000
 70
    0
  0
VERTEX
  8
0
 10
574.87751061
 20
1713.32122680
  0
VERTEX
  8
0
 10
574.87751061
 20
1814.92122680
  0
VERTEX
  8
0
 10
642.61084394
 20
1713.32122680
  0
VERTEX
  8
0
 10
642.61084394
 20
1814.92122680
  0
SEQEND
  0
POLYLINE
  8
Default Layer
 66
   1
 39
0.000000
 70
    0
  0
VERTEX
  8
0
 10
676.47751061
 20
1713.32122680
  0
VERTEX
  8
0
 10
676.47751061
 20
1814.92122680
  0
VERTEX
  8
0
 10
744.21084394
 20
1713.32122680
  0
VERTEX
  8
0
 10
744.21084394
 20
1814.92122680
  0
SEQEND
  0
POLYLINE
  8
Default Layer
 66
   1
 39
0.000000
 70
    0
  0
VERTEX
  8
0
 10
778.07751061
 20
1713.32122680
  0
VERTEX
  8
0
 10
778.07751061
 20
1814.92122680
  0
VERTEX
  8
0
 10
845.81084394
 20
1814.92122680
  0
SEQEND
  0
POLYLINE
  8
Default Layer
 66
   1
 39
0.000000
 70
    0
  0
VERTEX
  8
0
 10
778.07751061
 20
1764.12122680
  0
VERTEX
  8
0
 10
811.94417727
 20
1764.12122680
  0
SEQEND
  0
POLYLINE
  8
Default Layer
 66
   1
 39
0.000000
 70
    0
  0
VERTEX
  8
0
 10
778.07751061
 20
1713.32122680
  0
VERTEX
  8
0
 10
845.81084394
 20
1713.32122680
  0
SEQEND
  0
POLYLINE
  8
Default Layer
 66
   1
 39
0.000000
 70
    0
  0
VERTEX
  8
0
 10
947.41084394
 20
1730.25456013
  0
VERTEX
  8
0
 10
930.47751061
 20
1713.32122680
  0
VERTEX
  8
0
 10
896.61084394
 20
1713.32122680
  0
VERTEX
  8
0
 10
879.67751061
 20
1730.25456013
  0
VERTEX
  8
0
 10
879.67751061
 20
1797.98789346
  0
VERTEX
  8
0
 10
896.61084394
 20
1814.92122680
  0
VERTEX
  8
0
 10
930.47751061
 20
1814.92122680
  0
VERTEX
  8
0
 10
947.41084394
 20
1797.98789346
  0
SEQEND
  0
POLYLINE
  8
Default Layer
 66
   1
 39
0.000000
 70
    0
  0
VERTEX
  8
0
 10
981.27751061
 20
1814.92122680
  0
VERTEX
  8
0
 10
1049.01084394
 20
1814.92122680
  0
SEQEND
  0
POLYLINE
  8
Default Layer
 66
   1
 39
0.000000
 70
    0
  0
VERTEX
  8
0
 10
1015.14417727
 20
1814.92122680
  0
VERTEX
  8
0
 10
1015.14417727
 20
1713.32122680
  0
SEQEND
  0
POLYLINE
  8
Default Layer
 66
   1
 39
0.000000
 70
    0
  0
VERTEX
  8
0
 10
1184.47751061
 20
1814.92122680
  0
VERTEX
  8
0
 10
1184.47751061
 20
1713.32122680
  0
VERTEX
  8
0
 10
1252.21084394
 20
1713.32122680
  0
SEQEND
  0
POLYLINE
  8
Default Layer
 66
   1
 39
0.000000
 70
    0
  0
VERTEX
  8
0
 10
1286.07751061
 20
1814.92122680
  0
VERTEX
  8
0
 10
1319.94417727
 20
1713.32122680
  0
VERTEX
  8
0
 10
1336.87751061
 20
1764.12122680
  0
VERTEX
  8
0
 10
1353.81084394
 20
1713.32122680
  0
VERTEX
  8
0
 10
1387.67751061
 20
1814.92122680
  0
SEQEND
  0
POLYLINE
  8
Default Layer
 66
   1
 39
0.000000
 70
    0
  0
VERTEX
  8
0
 10
1421.54417727
 20
1713.32122680
  0
VERTEX
  8
0
 10
1472.34417727
 20
1713.32122680
  0
VERTEX
  8
0
 10
1489.27751061
 20
1730.25456013
  0
VERTEX
  8
0
 10
1489.27751061
 20
1747.18789346
  0
VERTEX
  8
0
 10
1472.34417727
 20
1764.12122680
  0
VERTEX
  8
0
 10
1438.47751061
 20
1764.12122680
  0
SEQEND
  0
POLYLINE
  8
Default Layer
 66
   1
 39
0.000000
 70
    0
  0
VERTEX
  8
0
 10
1472.34417727
 20
1764.12122680
  0
VERTEX
  8
0
 10
1489.27751061
 20
1781.05456013
  0
VERTEX
  8
0
 10
1489.27751061
 20
1797.98789346
  0
VERTEX
  8
0
 10
1472.34417727
 20
1814.92122680
  0
VERTEX
  8
0
 10
1421.54417727
 20
1814.92122680
  0
SEQEND
  0
POLYLINE
  8
Default Layer
 66
   1
 39
0.000000
 70
    0
  0
VERTEX
  8
0
 10
1438.47751061
 20
1814.92122680
  0
VERTEX
  8
0
 10
1438.47751061
 20
1713.32122680
  0
SEQEND
  0
POLYLINE
  8
Default Layer
 66
   1
 39
0.000000
 70
    0
  0
VERTEX
  8
0
 10
473.27751061
 20
1633.49265537
  0
VERTEX
  8
0
 10
524.07751061
 20
1582.69265537
  0
VERTEX
  8
0
 10
473.27751061
 20
1531.89265537
  0
SEQEND
  0
POLYLINE
  8
Default Layer
 66
   1
 39
0.000000
 70
    0
  0
VERTEX
  8
0
 10
557.94417727
 20
1616.55932203
  0
VERTEX
  8
0
 10
574.87751061
 20
1633.49265537
  0
VERTEX
  8
0
 10
608.74417727
 20
1633.49265537
  0
VERTEX
  8
0
 10
625.67751061
 20
1616.55932203
  0
VERTEX
  8
0
 10
625.67751061
 20
1599.62598870
  0
VERTEX
  8
0
 10
608.74417727
 20
1582.69265537
  0
VERTEX
  8
0
 10
574.87751061
 20
1582.69265537
  0
VERTEX
  8
0
 10
557.94417727
 20
1565.75932203
  0
VERTEX
  8
0
 10
557.94417727
 20
1531.89265537
  0
VERTEX
  8
0
 10
625.67751061
 20
1531.89265537
  0
SEQEND
  0
POLYLINE
  8
Default Layer
 66
   1
 39
0.000000
 70
    1
  0
VERTEX
  8
0
 10
676.47751061
 20
1531.89265537
  0
VERTEX
  8
0
 10
659.54417727
 20
1548.82598870
  0
VERTEX
  8
0
 10
659.54417727
 20
1616.55932203
  0
VERTEX
  8
0
 10
676.47751061
 20
1633.49265537
  0
VERTEX
  8
0
 10
693.41084394
 20
1633.49265537
  0
VERTEX
  8
0
 10
710.34417727
 20
1616.55932203
  0
VERTEX
  8
0
 10
710.34417727
 20
1548.82598870
  0
VERTEX
  8
0
 10
693.41084394
 20
1531.89265537
  0
VERTEX
  8
0
 10
676.47751061
 20
1531.89265537
  0
SEQEND
  0
POLYLINE
  8
Default Layer
 66
   1
 39
0.000000
 70
    0
  0
VERTEX
  8
0
 10
744.21084394
 20
1616.55932203
  0
VERTEX
  8
0
 10
761.14417727
 20
1633.49265537
  0
VERTEX
  8
0
 10
761.14417727
 20
1531.89265537
  0
SEQEND
  0
POLYLINE
  8
Default Layer
 66
   1
 39
0.000000
 70
    0
  0
VERTEX
  8
0
 10
744.21084394
 20
1531.89265537
  0
VERTEX
  8
0
 10
778.07751061
 20
1531.89265537
  0
SEQEND
  0
POLYLINE
  8
Default Layer
 66
   1
 39
0.000000
 70
    0
  0
VERTEX
  8
0
 10
879.67751061
 20
1565.75932203
  0
VERTEX
  8
0
 10
811.94417727
 20
1565.75932203
  0
VERTEX
  8
0
 10
862.74417727
 20
1633.49265537
  0
VERTEX
  8
0
 10
862.74417727
 20
1531.89265537
  0
SEQEND
  0
ENDSEC
  0
EOF
