  0
SECTION
  2
HEADER
  9
$ACADVER
  1
AC1009
  9
$EXTMIN
 10
-345.88841769
 20
-653.07909605
 30
0.0
  9
$EXTMAX
 10
1476.30061292
 20
1099.31186441
 30
0.0
  0
ENDSEC
  0
SECTION
  2
TABLES
  0
TABLE
  2
LAYER
 70
2
 0
LAYER
 2
0
 70
0
 62
1
 6
CONTINUOUS
 0
LAYER
 2
Default Layer
 70
0
 62
1
 6
CONTINUOUS
 0
ENDTAB
 0
ENDSEC
  0
SECTION
  2
ENTITIES
  0
POLYLINE
  8
0
 66
   1
 39
0.000000
 70
    1
  0
VERTEX
  8
0
 10
1407.60974722
 20
-1.56833495
  0
VERTEX
  8
0
 10
1407.01509214
 20
4.56100130
  0
VERTEX
  8
0
 10
1406.45257267
 20
10.69412148
  0
VERTEX
  8
0
 10
1405.34681509
 20
22.96263218
  0
VERTEX
  8
0
 10
1404.76501425
 20
29.09348200
  0
VERTEX
  8
0
 10
1404.13822357
 20
35.21903433
  0
VERTEX
  8
0
 10
1403.80193161
 20
38.27911444
  0
VERTEX
  8
0
 10
1403.44716168
 20
41.33701879
  0
VERTEX
  8
0
 10
1403.07150361
 20
44.39246360
  0
VERTEX
  8
0
 10
1402.67254722
 20
47.44516505
  0
VERTEX
  8
0
 10
1402.21247344
 20
50.77857306
  0
VERTEX
  8
0
 10
1401.65977438
 20
54.63962108
  0
VERTEX
  8
0
 10
1401.02150667
 20
58.97325067
  0
VERTEX
  8
0
 10
1400.30472695
 20
63.72440337
  0
VERTEX
  8
0
 10
1399.51649185
 20
68.83802076
  0
VERTEX
  8
0
 10
1398.66385799
 20
74.25904437
  0
VERTEX
  8
0
 10
1397.75388202
 20
79.93241577
  0
VERTEX
  8
0
 10
1396.79362056
 20
85.80307650
  0
VERTEX
  8
0
 10
1395.79013024
 20
91.81596813
  0
VERTEX
  8
0
 10
1394.75046771
 20
97.91603221
  0
VERTEX
  8
0
 10
1393.68168958
 20
104.04821028
  0
VERTEX
  8
0
 10
1392.59085250
 20
110.15744391
  0
VERTEX
  8
0
 10
1391.48501309
 20
116.18867465
  0
VERTEX
  8
0
 10
1390.37122798
 20
122.08684405
  0
VERTEX
  8
0
 10
1389.25655382
 20
127.79689366
  0
VERTEX
  8
0
 10
1388.14804722
 20
133.26376505
  0
VERTEX
  8
0
 10
1386.99845830
 20
138.71813557
  0
VERTEX
  8
0
 10
1385.76275871
 20
144.40183344
  0
VERTEX
  8
0
 10
1384.45133737
 20
150.27652648
  0
VERTEX
  8
0
 10
1383.07458323
 20
156.30388256
  0
VERTEX
  8
0
 10
1381.64288522
 20
162.44556950
  0
VERTEX
  8
0
 10
1380.16663227
 20
168.66325514
  0
VERTEX
  8
0
 10
1378.65621332
 20
174.91860733
  0
VERTEX
  8
0
 10
1377.12201731
 20
181.17329390
  0
VERTEX
  8
0
 10
1375.57443318
 20
187.38898269
  0
VERTEX
  8
0
 10
1374.02384985
 20
193.52734155
  0
VERTEX
  8
0
 10
1372.48065626
 20
199.55003831
  0
VERTEX
  8
0
 10
1370.95524135
 20
205.41874081
  0
VERTEX
  8
0
 10
1369.45799406
 20
211.09511690
  0
VERTEX
  8
0
 10
1367.99930332
 20
216.54083441
  0
VERTEX
  8
0
 10
1366.58955806
 20
221.71756118
  0
VERTEX
  8
0
 10
1365.23914722
 20
226.58696505
  0
VERTEX
  8
0
 10
1363.89424258
 20
231.33101741
  0
VERTEX
  8
0
 10
1362.49893042
 20
236.14553597
  0
VERTEX
  8
0
 10
1361.06047139
 20
241.01295810
  0
VERTEX
  8
0
 10
1359.58612618
 20
245.91572114
  0
VERTEX
  8
0
 10
1358.08315547
 20
250.83626244
  0
VERTEX
  8
0
 10
1356.55881993
 20
255.75701936
  0
VERTEX
  8
0
 10
1355.02038023
 20
260.66042925
  0
VERTEX
  8
0
 10
1353.47509704
 20
265.52892946
  0
VERTEX
  8
0
 10
1350.39304293
 20
275.09095026
  0
VERTEX
  8
0
 10
1347.37074299
 20
284.30258058
  0
VERTEX
  8
0
 10
1344.46628262
 20
293.02331924
  0
VERTEX
  8
0
 10
1341.73774722
 20
301.11266505
  0
VERTEX
  8
0
 10
1340.41708474
 20
304.97253978
  0
VERTEX
  8
0
 10
1339.07760609
 20
308.82580420
  0
VERTEX
  8
0
 10
1337.72125777
 20
312.67314212
  0
VERTEX
  8
0
 10
1336.34998628
 20
316.51523737
  0
VERTEX
  8
0
 10
1333.57045978
 20
324.18643517
  0
VERTEX
  8
0
 10
1330.75459860
 20
331.84486822
  0
VERTEX
  8
0
 10
1325.07616024
 20
347.14532249
  0
VERTEX
  8
0
 10
1322.24472706
 20
354.79828493
  0
VERTEX
  8
0
 10
1319.43924722
 20
362.46036505
  0
VERTEX
  8
0
 10
1318.25189373
 20
365.91776820
  0
VERTEX
  8
0
 10
1317.04090668
 20
369.51360514
  0
VERTEX
  8
0
 10
1314.56984751
 20
376.99279536
  0
VERTEX
  8
0
 10
1312.06970088
 20
384.64236564
  0
VERTEX
  8
0
 10
1309.58409799
 20
392.20674588
  0
VERTEX
  8
0
 10
1308.36038518
 20
395.87712410
  0
VERTEX
  8
0
 10
1307.15666999
 20
399.43036602
  0
VERTEX
  8
0
 10
1305.97840633
 20
402.83452541
  0
VERTEX
  8
0
 10
1304.83104808
 20
406.05765598
  0
VERTEX
  8
0
 10
1303.72004915
 20
409.06781150
  0
VERTEX
  8
0
 10
1302.65086343
 20
411.83304569
  0
VERTEX
  8
0
 10
1302.13365487
 20
413.11383408
  0
VERTEX
  8
0
 10
1301.62894482
 20
414.32141229
  0
VERTEX
  8
0
 10
1301.13741503
 20
415.45178704
  0
VERTEX
  8
0
 10
1300.65974722
 20
416.50096505
  0
VERTEX
  8
0
 10
1299.68363448
 20
418.52314119
  0
VERTEX
  8
0
 10
1298.64333814
 20
420.55684575
  0
VERTEX
  8
0
 10
1297.54786361
 20
422.59633422
  0
VERTEX
  8
0
 10
1296.40621632
 20
424.63586208
  0
VERTEX
  8
0
 10
1295.22740170
 20
426.66968481
  0
VERTEX
  8
0
 10
1294.02042516
 20
428.69205791
  0
VERTEX
  8
0
 10
1292.79429212
 20
430.69723684
  0
VERTEX
  8
0
 10
1291.55800802
 20
432.67947711
  0
VERTEX
  8
0
 10
1289.09100828
 20
436.55216355
  0
VERTEX
  8
0
 10
1286.69146932
 20
440.26416111
  0
VERTEX
  8
0
 10
1284.43143451
 20
443.76951365
  0
VERTEX
  8
0
 10
1283.37624471
 20
445.43033675
  0
VERTEX
  8
0
 10
1282.38294722
 20
447.02226505
  0
VERTEX
  8
0
 10
1281.40679375
 20
448.58328723
  0
VERTEX
  8
0
 10
1280.40117593
 20
450.15355548
  0
VERTEX
  8
0
 10
1278.32640853
 20
453.31183315
  0
VERTEX
  8
0
 10
1274.09677550
 20
459.62937409
  0
VERTEX
  8
0
 10
1272.04135492
 20
462.74864926
  0
VERTEX
  8
0
 10
1271.05024722
 20
464.28966562
  0
VERTEX
  8
0
 10
1270.09182833
 20
465.81493550
  0
VERTEX
  8
0
 10
1269.17231357
 20
467.32195964
  0
VERTEX
  8
0
 10
1268.29791826
 20
468.80823878
  0
VERTEX
  8
0
 10
1267.47485770
 20
470.27127367
  0
VERTEX
  8
0
 10
1266.70934722
 20
471.70856505
  0
VERTEX
  8
0
 10
1265.98536616
 20
473.14687511
  0
VERTEX
  8
0
 10
1265.28206582
 20
474.61170313
  0
VERTEX
  8
0
 10
1264.59841942
 20
476.09865552
  0
VERTEX
  8
0
 10
1263.93340020
 20
477.60333867
  0
VERTEX
  8
0
 10
1263.28598140
 20
479.12135897
  0
VERTEX
  8
0
 10
1262.65513625
 20
480.64832284
  0
VERTEX
  8
0
 10
1261.43905984
 20
483.71150685
  0
VERTEX
  8
0
 10
1260.27695686
 20
486.75774189
  0
VERTEX
  8
0
 10
1259.16061318
 20
489.75187914
  0
VERTEX
  8
0
 10
1258.08181467
 20
492.65876980
  0
VERTEX
  8
0
 10
1257.03234722
 20
495.44326505
  0
VERTEX
  8
0
 10
1255.98421979
 20
498.15232253
  0
VERTEX
  8
0
 10
1254.92518632
 20
500.85933662
  0
VERTEX
  8
0
 10
1253.87065018
 20
503.56881367
  0
VERTEX
  8
0
 10
1252.83601474
 20
506.28526001
  0
VERTEX
  8
0
 10
1251.83668336
 20
509.01318197
  0
VERTEX
  8
0
 10
1251.35507024
 20
510.38285455
  0
VERTEX
  8
0
 10
1250.88805940
 20
511.75708591
  0
VERTEX
  8
0
 10
1250.43757626
 20
513.13643935
  0
VERTEX
  8
0
 10
1250.00554623
 20
514.52147816
  0
VERTEX
  8
0
 10
1249.59389475
 20
515.91276563
  0
VERTEX
  8
0
 10
1249.20454722
 20
517.31086505
  0
VERTEX
  8
0
 10
1248.81978282
 20
518.80724750
  0
VERTEX
  8
0
 10
1248.42207977
 20
520.48088358
  0
VERTEX
  8
0
 10
1248.01366214
 20
522.31358587
  0
VERTEX
  8
0
 10
1247.59675398
 20
524.28716694
  0
VERTEX
  8
0
 10
1247.17357932
 20
526.38343939
  0
VERTEX
  8
0
 10
1246.74636221
 20
528.58421579
  0
VERTEX
  8
0
 10
1245.88869686
 20
533.22653077
  0
VERTEX
  8
0
 10
1245.04155031
 20
538.06861253
  0
VERTEX
  8
0
 10
1244.22271493
 20
542.96496173
  0
VERTEX
  8
0
 10
1243.44998310
 20
547.77007902
  0
VERTEX
  8
0
 10
1242.74114722
 20
552.33846505
  0
VERTEX
  8
0
 10
1242.41232319
 20
554.55427001
  0
VERTEX
  8
0
 10
1242.09594958
 20
556.79822303
  0
VERTEX
  8
0
 10
1241.49540171
 20
561.35892575
  0
VERTEX
  8
0
 10
1240.92919982
 20
565.99727828
  0
VERTEX
  8
0
 10
1240.38704010
 20
570.68998567
  0
VERTEX
  8
0
 10
1239.33363205
 20
580.14528528
  0
VERTEX
  8
0
 10
1238.80177613
 20
584.86128762
  0
VERTEX
  8
0
 10
1238.25274722
 20
589.53846505
  0
VERTEX
  8
0
 10
1219.36101637
 20
590.77700543
  0
VERTEX
  8
0
 10
1199.75117000
 20
592.09531779
  0
VERTEX
  8
0
 10
1160.10060797
 20
594.77980567
  0
VERTEX
  8
0
 10
1140.92163091
 20
596.05025484
  0
VERTEX
  8
0
 10
1131.68222369
 20
596.64659059
  0
VERTEX
  8
0
 10
1122.74801556
 20
597.20902325
  0
VERTEX
  8
0
 10
1114.17286519
 20
597.73156993
  0
VERTEX
  8
0
 10
1106.01063123
 20
598.20824772
  0
VERTEX
  8
0
 10
1098.31517235
 20
598.63307372
  0
VERTEX
  8
0
 10
1091.14034722
 20
599.00006505
  0
VERTEX
  8
0
 10
1084.24326044
 20
599.32316747
  0
VERTEX
  8
0
 10
1077.34517942
 20
599.62198981
  0
VERTEX
  8
0
 10
1070.44620701
 20
599.89904382
  0
VERTEX
  8
0
 10
1063.54644607
 20
600.15684123
  0
VERTEX
  8
0
 10
1056.64599944
 20
600.39789376
  0
VERTEX
  8
0
 10
1049.74496998
 20
600.62471315
  0
VERTEX
  8
0
 10
1035.94157398
 20
601.04569943
  0
VERTEX
  8
0
 10
1008.33231350
 20
601.82739044
  0
VERTEX
  8
0
 10
994.52809468
 20
602.22828288
  0
VERTEX
  8
0
 10
980.72524722
 20
602.66266505
  0
VERTEX
  8
0
 10
840.36334722
 20
606.79196505
  0
VERTEX
  8
0
 10
668.02604722
 20
609.10806505
  0
VERTEX
  8
0
 10
645.92190137
 20
609.05990934
  0
VERTEX
  8
0
 10
622.84501146
 20
609.03915616
  0
VERTEX
  8
0
 10
576.10758519
 20
609.01409135
  0
VERTEX
  8
0
 10
553.61434171
 20
608.97689665
  0
VERTEX
  8
0
 10
532.48293993
 20
608.90133838
  0
VERTEX
  8
0
 10
522.61031919
 20
608.84403494
  0
VERTEX
  8
0
 10
513.29702629
 20
608.77097503
  0
VERTEX
  8
0
 10
504.61601703
 20
608.68010346
  0
VERTEX
  8
0
 10
496.64024722
 20
608.56936505
  0
VERTEX
  8
0
 10
481.44275298
 20
608.30471820
  0
VERTEX
  8
0
 10
466.24581140
 20
607.99481707
  0
VERTEX
  8
0
 10
451.04974534
 20
607.63757942
  0
VERTEX
  8
0
 10
435.85487763
 20
607.23092301
  0
VERTEX
  8
0
 10
420.66153112
 20
606.77276561
  0
VERTEX
  8
0
 10
405.47002866
 20
606.26102498
  0
VERTEX
  8
0
 10
390.28069307
 20
605.69361887
  0
VERTEX
  8
0
 10
375.09384722
 20
605.06846505
  0
VERTEX
  8
0
 10
367.42942701
 20
604.72381179
  0
VERTEX
  8
0
 10
359.63090796
 20
604.34680504
  0
VERTEX
  8
0
 10
351.71216235
 20
603.94079171
  0
VERTEX
  8
0
 10
343.68706249
 20
603.50911871
  0
VERTEX
  8
0
 10
335.56948066
 20
603.05513295
  0
VERTEX
  8
0
 10
327.37328917
 20
602.58218136
  0
VERTEX
  8
0
 10
310.80056635
 20
601.59276830
  0
VERTEX
  8
0
 10
277.32218564
 20
599.53361627
  0
VERTEX
  8
0
 10
260.63848447
 20
598.51742791
  0
VERTEX
  8
0
 10
244.13974722
 20
597.54586505
  0
VERTEX
  8
0
 10
88.53524722
 20
588.87426505
  0
VERTEX
  8
0
 10
88.87191966
 20
583.35918604
  0
VERTEX
  8
0
 10
89.25994558
 20
577.23986915
  0
VERTEX
  8
0
 10
90.06680951
 20
564.63869265
  0
VERTEX
  8
0
 10
90.42402334
 20
558.88191849
  0
VERTEX
  8
0
 10
90.70934229
 20
553.97107735
  0
VERTEX
  8
0
 10
90.89195428
 20
550.26871196
  0
VERTEX
  8
0
 10
90.93511639
 20
548.98400228
  0
VERTEX
  8
0
 10
90.94104722
 20
548.13736505
  0
VERTEX
  8
0
 10
90.89731266
 20
546.91284522
  0
VERTEX
  8
0
 10
90.82386857
 20
545.68945273
  0
VERTEX
  8
0
 10
90.72354252
 20
544.46746782
  0
VERTEX
  8
0
 10
90.59916206
 20
543.24717072
  0
VERTEX
  8
0
 10
90.45355475
 20
542.02884167
  0
VERTEX
  8
0
 10
90.28954813
 20
540.81276088
  0
VERTEX
  8
0
 10
89.91764722
 20
538.38846505
  0
VERTEX
  8
0
 10
89.69156939
 20
537.04048047
  0
VERTEX
  8
0
 10
89.41077819
 20
535.45355443
  0
VERTEX
  8
0
 10
89.07818072
 20
533.68549117
  0
VERTEX
  8
0
 10
88.69668406
 20
531.79409493
  0
VERTEX
  8
0
 10
88.26919530
 20
529.83716996
  0
VERTEX
  8
0
 10
87.79862151
 20
527.87252049
  0
VERTEX
  8
0
 10
87.28786979
 20
525.95795078
  0
VERTEX
  8
0
 10
87.01833567
 20
525.03750965
  0
VERTEX
  8
0
 10
86.73984722
 20
524.15126505
  0
VERTEX
  8
0
 10
86.44033553
 20
523.36213495
  0
VERTEX
  8
0
 10
85.83468237
 20
521.88407048
  0
VERTEX
  8
0
 10
83.76517618
 20
516.99666651
  0
VERTEX
  8
0
 10
80.65177775
 20
509.76010929
  0
VERTEX
  8
0
 10
76.61493620
 20
500.44545495
  0
VERTEX
  8
0
 10
66.25272011
 20
476.66607953
  0
VERTEX
  8
0
 10
53.64212076
 20
447.82698941
  0
VERTEX
  8
0
 10
25.53014355
 20
383.64346169
  0
VERTEX
  8
0
 10
11.95595136
 20
352.63592240
  0
VERTEX
  8
0
 10
-0.01225278
 20
325.24246505
  0
VERTEX
  8
0
 10
-0.01225278
 20
-1.51443495
  0
VERTEX
  8
0
 10
1407.60974722
 20
-1.56833495
  0
SEQEND
  0
POLYLINE
  8
Default Layer
 66
   1
 39
0.000000
 70
    1
  0
VERTEX
  8
0
 10
1036.56574722
 20
450.81286505
  0
VERTEX
  8
0
 10
1036.57607300
 20
451.01735343
  0
VERTEX
  8
0
 10
1036.60638011
 20
451.21593481
  0
VERTEX
  8
0
 10
1036.65566326
 20
451.40760387
  0
VERTEX
  8
0
 10
1036.72291714
 20
451.59135531
  0
VERTEX
  8
0
 10
1036.80713642
 20
451.76618381
  0
VERTEX
  8
0
 10
1036.90731581
 20
451.93108407
  0
VERTEX
  8
0
 10
1037.02244999
 20
452.08505078
  0
VERTEX
  8
0
 10
1037.15153366
 20
452.22707862
  0
VERTEX
  8
0
 10
1037.29356150
 20
452.35616228
  0
VERTEX
  8
0
 10
1037.44752820
 20
452.47129646
  0
VERTEX
  8
0
 10
1037.61242846
 20
452.57147585
  0
VERTEX
  8
0
 10
1037.78725696
 20
452.65569514
  0
VERTEX
  8
0
 10
1037.97100840
 20
452.72294901
  0
VERTEX
  8
0
 10
1038.16267746
 20
452.77223216
  0
VERTEX
  8
0
 10
1038.36125884
 20
452.80253928
  0
VERTEX
  8
0
 10
1038.56574722
 20
452.81286505
  0
VERTEX
  8
0
 10
1038.77023560
 20
452.80253928
  0
VERTEX
  8
0
 10
1038.96881698
 20
452.77223216
  0
VERTEX
  8
0
 10
1039.16048604
 20
452.72294901
  0
VERTEX
  8
0
 10
1039.34423748
 20
452.65569514
  0
VERTEX
  8
0
 10
1039.51906598
 20
452.57147585
  0
VERTEX
  8
0
 10
1039.68396624
 20
452.47129646
  0
VERTEX
  8
0
 10
1039.83793294
 20
452.35616228
  0
VERTEX
  8
0
 10
1039.97996078
 20
452.22707862
  0
VERTEX
  8
0
 10
1040.10904445
 20
452.08505078
  0
VERTEX
  8
0
 10
1040.22417863
 20
451.93108407
  0
VERTEX
  8
0
 10
1040.32435802
 20
451.76618381
  0
VERTEX
  8
0
 10
1040.40857731
 20
451.59135531
  0
VERTEX
  8
0
 10
1040.47583118
 20
451.40760387
  0
VERTEX
  8
0
 10
1040.52511433
 20
451.21593481
  0
VERTEX
  8
0
 10
1040.55542145
 20
451.01735343
  0
VERTEX
  8
0
 10
1040.56574722
 20
450.81286505
  0
VERTEX
  8
0
 10
1040.55542145
 20
450.60837667
  0
VERTEX
  8
0
 10
1040.52511433
 20
450.40979529
  0
VERTEX
  8
0
 10
1040.47583118
 20
450.21812623
  0
VERTEX
  8
0
 10
1040.40857731
 20
450.03437480
  0
VERTEX
  8
0
 10
1040.32435802
 20
449.85954629
  0
VERTEX
  8
0
 10
1040.22417863
 20
449.69464603
  0
VERTEX
  8
0
 10
1040.10904445
 20
449.54067933
  0
VERTEX
  8
0
 10
1039.97996078
 20
449.39865149
  0
VERTEX
  8
0
 10
1039.83793294
 20
449.26956782
  0
VERTEX
  8
0
 10
1039.68396624
 20
449.15443364
  0
VERTEX
  8
0
 10
1039.51906598
 20
449.05425425
  0
VERTEX
  8
0
 10
1039.34423748
 20
448.97003497
  0
VERTEX
  8
0
 10
1039.16048604
 20
448.90278109
  0
VERTEX
  8
0
 10
1038.96881698
 20
448.85349794
  0
VERTEX
  8
0
 10
1038.77023560
 20
448.82319083
  0
VERTEX
  8
0
 10
1038.56574722
 20
448.81286505
  0
VERTEX
  8
0
 10
1038.36125884
 20
448.82319083
  0
VERTEX
  8
0
 10
1038.16267746
 20
448.85349794
  0
VERTEX
  8
0
 10
1037.97100840
 20
448.90278109
  0
VERTEX
  8
0
 10
1037.78725696
 20
448.97003497
  0
VERTEX
  8
0
 10
1037.61242846
 20
449.05425425
  0
VERTEX
  8
0
 10
1037.44752820
 20
449.15443364
  0
VERTEX
  8
0
 10
1037.29356150
 20
449.26956782
  0
VERTEX
  8
0
 10
1037.15153366
 20
449.39865149
  0
VERTEX
  8
0
 10
1037.02244999
 20
449.54067933
  0
VERTEX
  8
0
 10
1036.90731581
 20
449.69464603
  0
VERTEX
  8
0
 10
1036.80713642
 20
449.85954629
  0
VERTEX
  8
0
 10
1036.72291714
 20
450.03437480
  0
VERTEX
  8
0
 10
1036.65566326
 20
450.21812623
  0
VERTEX
  8
0
 10
1036.60638011
 20
450.40979529
  0
VERTEX
  8
0
 10
1036.57607300
 20
450.60837667
  0
VERTEX
  8
0
 10
1036.56574722
 20
450.81286505
  0
SEQEND
  0
POLYLINE
  8
Default Layer
 66
   1
 39
0.000000
 70
    1
  0
VERTEX
  8
0
 10
831.53274722
 20
451.02186505
  0
VERTEX
  8
0
 10
831.54307300
 20
451.22635343
  0
VERTEX
  8
0
 10
831.57338011
 20
451.42493481
  0
VERTEX
  8
0
 10
831.62266326
 20
451.61660387
  0
VERTEX
  8
0
 10
831.68991714
 20
451.80035531
  0
VERTEX
  8
0
 10
831.77413642
 20
451.97518381
  0
VERTEX
  8
0
 10
831.87431581
 20
452.14008407
  0
VERTEX
  8
0
 10
831.98944999
 20
452.29405078
  0
VERTEX
  8
0
 10
832.11853366
 20
452.43607862
  0
VERTEX
  8
0
 10
832.26056150
 20
452.56516228
  0
VERTEX
  8
0
 10
832.41452820
 20
452.68029646
  0
VERTEX
  8
0
 10
832.57942846
 20
452.78047585
  0
VERTEX
  8
0
 10
832.75425696
 20
452.86469514
  0
VERTEX
  8
0
 10
832.93800840
 20
452.93194901
  0
VERTEX
  8
0
 10
833.12967746
 20
452.98123216
  0
VERTEX
  8
0
 10
833.32825884
 20
453.01153928
  0
VERTEX
  8
0
 10
833.53274722
 20
453.02186505
  0
VERTEX
  8
0
 10
833.73723560
 20
453.01153928
  0
VERTEX
  8
0
 10
833.93581698
 20
452.98123216
  0
VERTEX
  8
0
 10
834.12748604
 20
452.93194901
  0
VERTEX
  8
0
 10
834.31123748
 20
452.86469514
  0
VERTEX
  8
0
 10
834.48606598
 20
452.78047585
  0
VERTEX
  8
0
 10
834.65096624
 20
452.68029646
  0
VERTEX
  8
0
 10
834.80493294
 20
452.56516228
  0
VERTEX
  8
0
 10
834.94696078
 20
452.43607862
  0
VERTEX
  8
0
 10
835.07604445
 20
452.29405078
  0
VERTEX
  8
0
 10
835.19117863
 20
452.14008407
  0
VERTEX
  8
0
 10
835.29135802
 20
451.97518381
  0
VERTEX
  8
0
 10
835.37557731
 20
451.80035531
  0
VERTEX
  8
0
 10
835.44283118
 20
451.61660387
  0
VERTEX
  8
0
 10
835.49211433
 20
451.42493481
  0
VERTEX
  8
0
 10
835.52242145
 20
451.22635343
  0
VERTEX
  8
0
 10
835.53274722
 20
451.02186505
  0
VERTEX
  8
0
 10
835.52242145
 20
450.81737667
  0
VERTEX
  8
0
 10
835.49211433
 20
450.61879529
  0
VERTEX
  8
0
 10
835.44283118
 20
450.42712623
  0
VERTEX
  8
0
 10
835.37557731
 20
450.24337480
  0
VERTEX
  8
0
 10
835.29135802
 20
450.06854629
  0
VERTEX
  8
0
 10
835.19117863
 20
449.90364603
  0
VERTEX
  8
0
 10
835.07604445
 20
449.74967933
  0
VERTEX
  8
0
 10
834.94696078
 20
449.60765149
  0
VERTEX
  8
0
 10
834.80493294
 20
449.47856782
  0
VERTEX
  8
0
 10
834.65096624
 20
449.36343364
  0
VERTEX
  8
0
 10
834.48606598
 20
449.26325425
  0
VERTEX
  8
0
 10
834.31123748
 20
449.17903497
  0
VERTEX
  8
0
 10
834.12748604
 20
449.11178109
  0
VERTEX
  8
0
 10
833.93581698
 20
449.06249794
  0
VERTEX
  8
0
 10
833.73723560
 20
449.03219083
  0
VERTEX
  8
0
 10
833.53274722
 20
449.02186505
  0
VERTEX
  8
0
 10
833.32825884
 20
449.03219083
  0
VERTEX
  8
0
 10
833.12967746
 20
449.06249794
  0
VERTEX
  8
0
 10
832.93800840
 20
449.11178109
  0
VERTEX
  8
0
 10
832.75425696
 20
449.17903497
  0
VERTEX
  8
0
 10
832.57942846
 20
449.26325425
  0
VERTEX
  8
0
 10
832.41452820
 20
449.36343364
  0
VERTEX
  8
0
 10
832.26056150
 20
449.47856782
  0
VERTEX
  8
0
 10
832.11853366
 20
449.60765149
  0
VERTEX
  8
0
 10
831.98944999
 20
449.74967933
  0
VERTEX
  8
0
 10
831.87431581
 20
449.90364603
  0
VERTEX
  8
0
 10
831.77413642
 20
450.06854629
  0
VERTEX
  8
0
 10
831.68991714
 20
450.24337480
  0
VERTEX
  8
0
 10
831.62266326
 20
450.42712623
  0
VERTEX
  8
0
 10
831.57338011
 20
450.61879529
  0
VERTEX
  8
0
 10
831.54307300
 20
450.81737667
  0
VERTEX
  8
0
 10
831.53274722
 20
451.02186505
  0
SEQEND
  0
POLYLINE
  8
Default Layer
 66
   1
 39
0.000000
 70
    1
  0
VERTEX
  8
0
 10
15.06621909
 20
-42.74011299
  0
VERTEX
  8
0
 10
1431.19831909
 20
-42.74011299
  0
VERTEX
  8
0
 10
1431.19831909
 20
-338.04589605
  0
VERTEX
  8
0
 10
1429.78001909
 20
-508.48019605
  0
VERTEX
  8
0
 10
1429.72611909
 20
-653.07909605
  0
VERTEX
  8
0
 10
958.17281909
 20
-653.07909605
  0
VERTEX
  8
0
 10
486.61951909
 20
-653.07909605
  0
VERTEX
  8
0
 10
17.16751894
 20
-653.07909605
  0
VERTEX
  8
0
 10
15.06621909
 20
-652.57066000
  0
VERTEX
  8
0
 10
15.06621909
 20
-347.83069605
  0
VERTEX
  8
0
 10
15.06621909
 20
-42.74011299
  0
SEQEND
  0
POLYLINE
  8
Default Layer
 66
   1
 39
0.000000
 70
    1
  0
VERTEX
  8
0
 10
-253.64337287
 20
350.63180186
  0
VERTEX
  8
0
 10
-249.69357287
 20
-46.19780860
  0
VERTEX
  8
0
 10
-245.74377287
 20
-579.58360860
  0
VERTEX
  8
0
 10
-339.33627287
 20
-580.03240860
  0
VERTEX
  8
0
 10
-344.14787287
 20
-460.28140860
  0
VERTEX
  8
0
 10
-344.14787287
 20
-303.42010860
  0
VERTEX
  8
0
 10
-345.11737287
 20
-50.79390860
  0
VERTEX
  8
0
 10
-345.22752213
 20
-45.29338861
  0
VERTEX
  8
0
 10
-345.36358105
 20
-39.79291149
  0
VERTEX
  8
0
 10
-345.65124468
 20
-28.79198298
  0
VERTEX
  8
0
 10
-345.77175781
 20
-23.29148014
  0
VERTEX
  8
0
 10
-345.85599741
 20
-17.79091727
  0
VERTEX
  8
0
 10
-345.87965658
 20
-15.04060530
  0
VERTEX
  8
0
 10
-345.88841769
 20
-12.29026867
  0
VERTEX
  8
0
 10
-345.88033753
 20
-9.53990418
  0
VERTEX
  8
0
 10
-345.85347287
 20
-6.78950860
  0
VERTEX
  8
0
 10
-345.80722232
 20
-3.99481821
  0
VERTEX
  8
0
 10
-345.74312439
 20
-1.11730309
  0
VERTEX
  8
0
 10
-345.56645276
 20
4.85181125
  0
VERTEX
  8
0
 10
-345.33359079
 20
11.04905420
  0
VERTEX
  8
0
 10
-345.05467123
 20
17.40564559
  0
VERTEX
  8
0
 10
-344.73982688
 20
23.85280519
  0
VERTEX
  8
0
 10
-344.39919051
 20
30.32175283
  0
VERTEX
  8
0
 10
-343.68107287
 20
43.04989140
  0
VERTEX
  8
0
 10
-343.28627238
 20
49.74839393
  0
VERTEX
  8
0
 10
-342.82664254
 20
57.26643409
  0
VERTEX
  8
0
 10
-342.30571773
 20
65.41392127
  0
VERTEX
  8
0
 10
-341.72703235
 20
74.00076488
  0
VERTEX
  8
0
 10
-341.09412079
 20
82.83687430
  0
VERTEX
  8
0
 10
-340.41051742
 20
91.73215893
  0
VERTEX
  8
0
 10
-340.05081082
 20
96.14258863
  0
VERTEX
  8
0
 10
-339.67975665
 20
100.49652816
  0
VERTEX
  8
0
 10
-339.29779674
 20
104.77021619
  0
VERTEX
  8
0
 10
-338.90537287
 20
108.93989140
  0
VERTEX
  8
0
 10
-338.49505200
 20
113.08093558
  0
VERTEX
  8
0
 10
-338.06033977
 20
117.28047987
  0
VERTEX
  8
0
 10
-337.60308601
 20
121.53238690
  0
VERTEX
  8
0
 10
-337.12514052
 20
125.83051932
  0
VERTEX
  8
0
 10
-336.11457362
 20
134.54091091
  0
VERTEX
  8
0
 10
-335.04343760
 20
143.36255580
  0
VERTEX
  8
0
 10
-333.92653100
 20
152.24635513
  0
VERTEX
  8
0
 10
-332.77865232
 20
161.14321007
  0
VERTEX
  8
0
 10
-331.61460010
 20
170.00402178
  0
VERTEX
  8
0
 10
-330.44917287
 20
178.77969140
  0
VERTEX
  8
0
 10
-328.09888600
 20
196.36588066
  0
VERTEX
  8
0
 10
-326.88904068
 20
205.24608161
  0
VERTEX
  8
0
 10
-325.64383003
 20
214.15996484
  0
VERTEX
  8
0
 10
-324.35408098
 20
223.08923888
  0
VERTEX
  8
0
 10
-323.68963798
 20
227.55393138
  0
VERTEX
  8
0
 10
-323.01062048
 20
232.01561229
  0
VERTEX
  8
0
 10
-322.31588185
 20
236.47199518
  0
VERTEX
  8
0
 10
-321.60427546
 20
240.92079362
  0
VERTEX
  8
0
 10
-320.87465468
 20
245.35972116
  0
VERTEX
  8
0
 10
-320.12587287
 20
249.78649140
  0
VERTEX
  8
0
 10
-319.30778546
 20
254.43426276
  0
VERTEX
  8
0
 10
-318.37866945
 20
259.50831902
  0
VERTEX
  8
0
 10
-317.35001056
 20
264.96456176
  0
VERTEX
  8
0
 10
-316.23329451
 20
270.75889252
  0
VERTEX
  8
0
 10
-315.04000700
 20
276.84721288
  0
VERTEX
  8
0
 10
-313.78163377
 20
283.18542438
  0
VERTEX
  8
0
 10
-311.11557298
 20
296.43512710
  0
VERTEX
  8
0
 10
-305.50779418
 20
323.99289506
  0
VERTEX
  8
0
 10
-302.74984765
 20
337.59538528
  0
VERTEX
  8
0
 10
-300.14504401
 20
350.60989632
  0
VERTEX
  8
0
 10
-253.64337287
 20
350.63180186
  0
SEQEND
  0
POLYLINE
  8
Default Layer
 66
   1
 39
0.000000
 70
    1
  0
VERTEX
  8
0
 10
-76.18395318
 20
341.20560454
  0
VERTEX
  8
0
 10
-81.10325318
 20
-56.86440678
  0
VERTEX
  8
0
 10
-86.02255318
 20
-590.19630678
  0
VERTEX
  8
0
 10
-124.78455318
 20
-591.12990678
  0
VERTEX
  8
0
 10
-173.49285318
 20
-288.32320678
  0
VERTEX
  8
0
 10
-222.20125318
 20
14.50149322
  0
VERTEX
  8
0
 10
-148.08900953
 20
340.69088841
  0
VERTEX
  8
0
 10
-76.18395318
 20
341.20560454
  0
SEQEND
  0
POLYLINE
  8
Default Layer
 66
   1
 39
0.000000
 70
    0
  0
VERTEX
  8
0
 10
-149.29938708
 20
997.71186441
  0
VERTEX
  8
0
 10
-149.29938708
 20
1099.31186441
  0
VERTEX
  8
0
 10
-81.56605375
 20
1099.31186441
  0
SEQEND
  0
POLYLINE
  8
Default Layer
 66
   1
 39
0.000000
 70
    0
  0
VERTEX
  8
0
 10
-149.29938708
 20
1048.51186441
  0
VERTEX
  8
0
 10
-115.43272041
 20
1048.51186441
  0
SEQEND
  0
POLYLINE
  8
Default Layer
 66
   1
 39
0.000000
 70
    1
  0
VERTEX
  8
0
 10
-47.69938708
 20
997.71186441
  0
VERTEX
  8
0
 10
-47.69938708
 20
1099.31186441
  0
VERTEX
  8
0
 10
20.03394625
 20
1099.31186441
  0
VERTEX
  8
0
 10
20.03394625
 20
997.71186441
  0
VERTEX
  8
0
 10
-47.69938708
 20
997.71186441
  0
SEQEND
  0
POLYLINE
  8
Default Layer
 66
   1
 39
0.000000
 70
    0
  0
VERTEX
  8
0
 10
53.90061292
 20
997.71186441
  0
VERTEX
  8
0
 10
53.90061292
 20
1099.31186441
  0
VERTEX
  8
0
 10
104.70061292
 20
1099.31186441
  0
VERTEX
  8
0
 10
121.63394625
 20
1082.37853107
  0
VERTEX
  8
0
 10
121.63394625
 20
1065.44519774
  0
VERTEX
  8
0
 10
104.70061292
 20
1048.51186441
  0
VERTEX
  8
0
 10
53.90061292
 20
1048.51186441
  0
SEQEND
  0
POLYLINE
  8
Default Layer
 66
   1
 39
0.000000
 70
    0
  0
VERTEX
  8
0
 10
70.83394625
 20
1048.51186441
  0
VERTEX
  8
0
 10
121.63394625
 20
997.71186441
  0
SEQEND
  0
POLYLINE
  8
Default Layer
 66
   1
 39
0.000000
 70
    0
  0
VERTEX
  8
0
 10
155.50061292
 20
997.71186441
  0
VERTEX
  8
0
 10
206.30061292
 20
997.71186441
  0
VERTEX
  8
0
 10
223.23394625
 20
1014.64519774
  0
VERTEX
  8
0
 10
223.23394625
 20
1082.37853107
  0
VERTEX
  8
0
 10
206.30061292
 20
1099.31186441
  0
VERTEX
  8
0
 10
155.50061292
 20
1099.31186441
  0
SEQEND
  0
POLYLINE
  8
Default Layer
 66
   1
 39
0.000000
 70
    0
  0
VERTEX
  8
0
 10
172.43394625
 20
1099.31186441
  0
VERTEX
  8
0
 10
172.43394625
 20
997.71186441
  0
SEQEND
  0
POLYLINE
  8
Default Layer
 66
   1
 39
0.000000
 70
    0
  0
VERTEX
  8
0
 10
426.43394625
 20
1014.64519774
  0
VERTEX
  8
0
 10
409.50061292
 20
997.71186441
  0
VERTEX
  8
0
 10
375.63394625
 20
997.71186441
  0
VERTEX
  8
0
 10
358.70061292
 20
1014.64519774
  0
VERTEX
  8
0
 10
358.70061292
 20
1082.37853107
  0
VERTEX
  8
0
 10
375.63394625
 20
1099.31186441
  0
VERTEX
  8
0
 10
409.50061292
 20
1099.31186441
  0
VERTEX
  8
0
 10
426.43394625
 20
1082.37853107
  0
SEQEND
  0
POLYLINE
  8
Default Layer
 66
   1
 39
0.000000
 70
    1
  0
VERTEX
  8
0
 10
460.30061292
 20
997.71186441
  0
VERTEX
  8
0
 10
460.30061292
 20
1099.31186441
  0
VERTEX
  8
0
 10
528.03394625
 20
1099.31186441
  0
VERTEX
  8
0
 10
528.03394625
 20
997.71186441
  0
VERTEX
  8
0
 10
460.30061292
 20
997.71186441
  0
SEQEND
  0
POLYLINE
  8
Default Layer
 66
   1
 39
0.000000
 70
    0
  0
VERTEX
  8
0
 10
561.90061292
 20
997.71186441
  0
VERTEX
  8
0
 10
561.90061292
 20
1099.31186441
  0
VERTEX
  8
0
 10
629.63394625
 20
997.71186441
  0
VERTEX
  8
0
 10
629.63394625
 20
1099.31186441
  0
SEQEND
  0
POLYLINE
  8
Default Layer
 66
   1
 39
0.000000
 70
    0
  0
VERTEX
  8
0
 10
663.50061292
 20
997.71186441
  0
VERTEX
  8
0
 10
663.50061292
 20
1099.31186441
  0
VERTEX
  8
0
 10
731.23394625
 20
997.71186441
  0
VERTEX
  8
0
 10
731.23394625
 20
1099.31186441
  0
SEQEND
  0
POLYLINE
  8
Default Layer
 66
   1
 39
0.000000
 70
    0
  0
VERTEX
  8
0
 10
765.10061292
 20
997.71186441
  0
VERTEX
  8
0
 10
765.10061292
 20
1099.31186441
  0
VERTEX
  8
0
 10
832.83394625
 20
1099.31186441
  0
SEQEND
  0
POLYLINE
  8
Default Layer
 66
   1
 39
0.000000
 70
    0
  0
VERTEX
  8
0
 10
765.10061292
 20
1048.51186441
  0
VERTEX
  8
0
 10
798.96727959
 20
1048.51186441
  0
SEQEND
  0
POLYLINE
  8
Default Layer
 66
   1
 39
0.000000
 70
    0
  0
VERTEX
  8
0
 10
765.10061292
 20
997.71186441
  0
VERTEX
  8
0
 10
832.83394625
 20
997.71186441
  0
SEQEND
  0
POLYLINE
  8
Default Layer
 66
   1
 39
0.000000
 70
    0
  0
VERTEX
  8
0
 10
934.43394625
 20
1014.64519774
  0
VERTEX
  8
0
 10
917.50061292
 20
997.71186441
  0
VERTEX
  8
0
 10
883.63394625
 20
997.71186441
  0
VERTEX
  8
0
 10
866.70061292
 20
1014.64519774
  0
VERTEX
  8
0
 10
866.70061292
 20
1082.37853107
  0
VERTEX
  8
0
 10
883.63394625
 20
1099.31186441
  0
VERTEX
  8
0
 10
917.50061292
 20
1099.31186441
  0
VERTEX
  8
0
 10
934.43394625
 20
1082.37853107
  0
SEQEND
  0
POLYLINE
  8
Default Layer
 66
   1
 39
0.000000
 70
    0
  0
VERTEX
  8
0
 10
968.30061292
 20
1099.31186441
  0
VERTEX
  8
0
 10
1036.03394625
 20
1099.31186441
  0
SEQEND
  0
POLYLINE
  8
Default Layer
 66
   1
 39
0.000000
 70
    0
  0
VERTEX
  8
0
 10
1002.16727959
 20
1099.31186441
  0
VERTEX
  8
0
 10
1002.16727959
 20
997.71186441
  0
SEQEND
  0
POLYLINE
  8
Default Layer
 66
   1
 39
0.000000
 70
    0
  0
VERTEX
  8
0
 10
1171.50061292
 20
1014.64519774
  0
VERTEX
  8
0
 10
1188.43394625
 20
997.71186441
  0
VERTEX
  8
0
 10
1222.30061292
 20
997.71186441
  0
VERTEX
  8
0
 10
1239.23394625
 20
1014.64519774
  0
VERTEX
  8
0
 10
1171.50061292
 20
1082.37853107
  0
VERTEX
  8
0
 10
1188.43394625
 20
1099.31186441
  0
VERTEX
  8
0
 10
1222.30061292
 20
1099.31186441
  0
VERTEX
  8
0
 10
1239.23394625
 20
1082.37853107
  0
SEQEND
  0
POLYLINE
  8
Default Layer
 66
   1
 39
0.000000
 70
    0
  0
VERTEX
  8
0
 10
1273.10061292
 20
1099.31186441
  0
VERTEX
  8
0
 10
1306.96727959
 20
997.71186441
  0
VERTEX
  8
0
 10
1323.90061292
 20
1048.51186441
  0
VERTEX
  8
0
 10
1340.83394625
 20
997.71186441
  0
VERTEX
  8
0
 10
1374.70061292
 20
1099.31186441
  0
SEQEND
  0
POLYLINE
  8
Default Layer
 66
   1
 39
0.000000
 70
    0
  0
VERTEX
  8
0
 10
1408.56727959
 20
997.71186441
  0
VERTEX
  8
0
 10
1459.36727959
 20
997.71186441
  0
VERTEX
  8
0
 10
1476.30061292
 20
1014.64519774
  0
VERTEX
  8
0
 10
1476.30061292
 20
1031.57853107
  0
VERTEX
  8
0
 10
1459.36727959
 20
1048.51186441
  0
VERTEX
  8
0
 10
1425.50061292
 20
1048.51186441
  0
SEQEND
  0
POLYLINE
  8
Default Layer
 66
   1
 39
0.000000
 70
    0
  0
VERTEX
  8
0
 10
1459.36727959
 20
1048.51186441
  0
VERTEX
  8
0
 10
1476.30061292
 20
1065.44519774
  0
VERTEX
  8
0
 10
1476.30061292
 20
1082.37853107
  0
VERTEX
  8
0
 10
1459.36727959
 20
1099.31186441
  0
VERTEX
  8
0
 10
1408.56727959
 20
1099.31186441
  0
SEQEND
  0
POLYLINE
  8
Default Layer
 66
   1
 39
0.000000
 70
    0
  0
VERTEX
  8
0
 10
1425.50061292
 20
1099.31186441
  0
VERTEX
  8
0
 10
1425.50061292
 20
997.71186441
  0
SEQEND
  0
POLYLINE
  8
Default Layer
 66
   1
 39
0.000000
 70
    0
  0
VERTEX
  8
0
 10
257.10061292
 20
917.88329298
  0
VERTEX
  8
0
 10
307.90061292
 20
867.08329298
  0
VERTEX
  8
0
 10
257.10061292
 20
816.28329298
  0
SEQEND
  0
POLYLINE
  8
Default Layer
 66
   1
 39
0.000000
 70
    0
  0
VERTEX
  8
0
 10
341.76727959
 20
900.94995964
  0
VERTEX
  8
0
 10
358.70061292
 20
917.88329298
  0
VERTEX
  8
0
 10
392.56727959
 20
917.88329298
  0
VERTEX
  8
0
 10
409.50061292
 20
900.94995964
  0
VERTEX
  8
0
 10
409.50061292
 20
884.01662631
  0
VERTEX
  8
0
 10
392.56727959
 20
867.08329298
  0
VERTEX
  8
0
 10
358.70061292
 20
867.08329298
  0
VERTEX
  8
0
 10
341.76727959
 20
850.14995964
  0
VERTEX
  8
0
 10
341.76727959
 20
816.28329298
  0
VERTEX
  8
0
 10
409.50061292
 20
816.28329298
  0
SEQEND
  0
POLYLINE
  8
Default Layer
 66
   1
 39
0.000000
 70
    1
  0
VERTEX
  8
0
 10
460.30061292
 20
816.28329298
  0
VERTEX
  8
0
 10
443.36727959
 20
833.21662631
  0
VERTEX
  8
0
 10
443.36727959
 20
900.94995964
  0
VERTEX
  8
0
 10
460.30061292
 20
917.88329298
  0
VERTEX
  8
0
 10
477.23394625
 20
917.88329298
  0
VERTEX
  8
0
 10
494.16727959
 20
900.94995964
  0
VERTEX
  8
0
 10
494.16727959
 20
833.21662631
  0
VERTEX
  8
0
 10
477.23394625
 20
816.28329298
  0
VERTEX
  8
0
 10
460.30061292
 20
816.28329298
  0
SEQEND
  0
POLYLINE
  8
Default Layer
 66
   1
 39
0.000000
 70
    0
  0
VERTEX
  8
0
 10
528.03394625
 20
900.94995964
  0
VERTEX
  8
0
 10
544.96727959
 20
917.88329298
  0
VERTEX
  8
0
 10
544.96727959
 20
816.28329298
  0
SEQEND
  0
POLYLINE
  8
Default Layer
 66
   1
 39
0.000000
 70
    0
  0
VERTEX
  8
0
 10
528.03394625
 20
816.28329298
  0
VERTEX
  8
0
 10
561.90061292
 20
816.28329298
  0
SEQEND
  0
POLYLINE
  8
Default Layer
 66
   1
 39
0.000000
 70
    0
  0
VERTEX
  8
0
 10
663.50061292
 20
850.14995964
  0
VERTEX
  8
0
 10
595.76727959
 20
850.14995964
  0
VERTEX
  8
0
 10
646.56727959
 20
917.88329298
  0
VERTEX
  8
0
 10
646.56727959
 20
816.28329298
  0
SEQEND
  0
POLYLINE
  8
Default Layer
 66
   1
 39
0.000000
 70
    0
  0
VERTEX
  8
0
 10
798.96727959
 20
816.28329298
  0
VERTEX
  8
0
 10
798.96727959
 20
917.88329298
  0
VERTEX
  8
0
 10
866.70061292
 20
917.88329298
  0
SEQEND
  0
POLYLINE
  8
Default Layer
 66
   1
 39
0.000000
 70
    0
  0
VERTEX
  8
0
 10
798.96727959
 20
867.08329298
  0
VERTEX
  8
0
 10
832.83394625
 20
867.08329298
  0
SEQEND
  0
POLYLINE
  8
Default Layer
 66
   1
 39
0.000000
 70
    0
  0
VERTEX
  8
0
 10
900.56727959
 20
816.28329298
  0
VERTEX
  8
0
 10
951.36727959
 20
816.28329298
  0
VERTEX
  8
0
 10
968.30061292
 20
833.21662631
  0
VERTEX
  8
0
 10
968.30061292
 20
850.14995964
  0
VERTEX
  8
0
 10
951.36727959
 20
867.08329298
  0
VERTEX
  8
0
 10
917.50061292
 20
867.08329298
  0
SEQEND
  0
POLYLINE
  8
Default Layer
 66
   1
 39
0.000000
 70
    0
  0
VERTEX
  8
0
 10
951.36727959
 20
867.08329298
  0
VERTEX
  8
0
 10
968.30061292
 20
884.01662631
  0
VERTEX
  8
0
 10
968.30061292
 20
900.94995964
  0
VERTEX
  8
0
 10
951.36727959
 20
917.88329298
  0
VERTEX
  8
0
 10
900.56727959
 20
917.88329298
  0
SEQEND
  0
POLYLINE
  8
Default Layer
 66
   1
 39
0.000000
 70
    0
  0
VERTEX
  8
0
 10
917.50061292
 20
917.88329298
  0
VERTEX
  8
0
 10
917.50061292
 20
816.28329298
  0
SEQEND
  0
POLYLINE
  8
Default Layer
 66
   1
 39
0.000000
 70
    0
  0
VERTEX
  8
0
 10
1002.16727959
 20
816.28329298
  0
VERTEX
  8
0
 10
1002.16727959
 20
917.88329298
  0
SEQEND
  0
POLYLINE
  8
Default Layer
 66
   1
 39
0.000000
 70
    0
  0
VERTEX
  8
0
 10
1002.16727959
 20
867.08329298
  0
VERTEX
  8
0
 10
1069.90061292
 20
867.08329298
  0
SEQEND
  0
POLYLINE
  8
Default Layer
 66
   1
 39
0.000000
 70
    0
  0
VERTEX
  8
0
 10
1069.90061292
 20
917.88329298
  0
VERTEX
  8
0
 10
1069.90061292
 20
816.28329298
  0
SEQEND
  0
ENDSEC
  0
EOF
